M48
; DRILL file {KiCad (5.1.2)-1} date 01/02/2020 16:47:44
; FORMAT={-:-/ absolute / metric / decimal}
; #@! TF.CreationDate,2020-02-01T16:47:44+00:00
; #@! TF.GenerationSoftware,Kicad,Pcbnew,(5.1.2)-1
FMAT,2
METRIC
T1C0.400
T2C0.800
T3C0.900
T4C1.000
T5C1.200
T6C2.000
T7C2.200
T8C2.500
%
G90
G05
T1
X113.538Y-154.94
X135.382Y-130.302
X142.24Y-128.016
T2
X130.556Y-127.762
X130.556Y-137.922
X121.92Y-81.28
X121.92Y-91.44
X125.73Y-127.635
X125.73Y-137.795
X115.57Y-81.28
X115.57Y-91.44
X134.62Y-81.28
X134.62Y-91.44
X128.27Y-81.28
X128.27Y-91.44
T3
X132.003Y-31.782
X132.003Y-34.322
X126.288Y-31.782
X126.288Y-34.322
X119.938Y-31.782
X119.938Y-34.322
T4
X119.38Y-98.425
X119.38Y-121.285
X121.92Y-98.425
X121.92Y-121.285
X124.46Y-98.425
X124.46Y-121.285
X127.0Y-98.425
X127.0Y-121.285
X129.54Y-98.425
X129.54Y-121.285
X132.08Y-98.425
X132.08Y-121.285
X134.62Y-98.425
X134.62Y-121.285
X137.16Y-98.425
X137.16Y-121.285
X129.54Y-145.415
X132.04Y-145.415
X177.165Y-84.455
X179.705Y-84.455
X182.245Y-84.455
X184.785Y-84.455
X147.066Y-147.828
X149.606Y-147.828
X152.146Y-147.828
X173.355Y-85.09
X173.355Y-87.63
X173.355Y-90.17
X173.355Y-92.71
X173.355Y-95.25
X173.355Y-97.79
X173.355Y-100.33
X173.355Y-102.87
X173.355Y-105.41
X173.355Y-107.95
X173.355Y-110.49
X173.355Y-113.03
X173.355Y-115.57
X173.355Y-118.11
X173.355Y-120.65
X173.355Y-123.19
T5
X143.571Y-40.019
X146.111Y-40.019
X148.651Y-40.019
X151.191Y-40.019
X153.731Y-40.019
X156.271Y-40.019
X158.811Y-40.019
X161.351Y-40.019
X163.891Y-40.019
X166.431Y-40.019
X168.971Y-40.019
X171.511Y-40.019
X174.051Y-40.019
X176.591Y-40.019
X179.131Y-40.019
X181.671Y-40.019
T6
X153.75Y-97.66
X156.25Y-94.91
X156.25Y-99.91
T7
X115.316Y-131.572
X115.316Y-145.542
T8
X112.171Y-40.019
X112.171Y-71.02
X187.17Y-40.019
X187.17Y-71.02
T0
M30
