G04 #@! TF.GenerationSoftware,KiCad,Pcbnew,(5.1.2)-1*
G04 #@! TF.CreationDate,2020-02-01T16:47:36+00:00*
G04 #@! TF.ProjectId,Keypad,4b657970-6164-42e6-9b69-6361645f7063,1*
G04 #@! TF.SameCoordinates,Original*
G04 #@! TF.FileFunction,Soldermask,Top*
G04 #@! TF.FilePolarity,Negative*
%FSLAX46Y46*%
G04 Gerber Fmt 4.6, Leading zero omitted, Abs format (unit mm)*
G04 Created by KiCad (PCBNEW (5.1.2)-1) date 2020-02-01 16:47:36*
%MOMM*%
%LPD*%
G04 APERTURE LIST*
%ADD10C,0.100000*%
G04 APERTURE END LIST*
D10*
G36*
X190500000Y-170180000D02*
G01*
X109474000Y-170180000D01*
X109474000Y-155448000D01*
X190500000Y-155448000D01*
X190500000Y-170180000D01*
G37*
X190500000Y-170180000D02*
X109474000Y-170180000D01*
X109474000Y-155448000D01*
X190500000Y-155448000D01*
X190500000Y-170180000D01*
G36*
X152256443Y-146933519D02*
G01*
X152322627Y-146940037D01*
X152492466Y-146991557D01*
X152648991Y-147075222D01*
X152684729Y-147104552D01*
X152786186Y-147187814D01*
X152869448Y-147289271D01*
X152898778Y-147325009D01*
X152982443Y-147481534D01*
X153033963Y-147651373D01*
X153051359Y-147828000D01*
X153033963Y-148004627D01*
X152982443Y-148174466D01*
X152898778Y-148330991D01*
X152869448Y-148366729D01*
X152786186Y-148468186D01*
X152684729Y-148551448D01*
X152648991Y-148580778D01*
X152492466Y-148664443D01*
X152322627Y-148715963D01*
X152256443Y-148722481D01*
X152190260Y-148729000D01*
X152101740Y-148729000D01*
X152035557Y-148722481D01*
X151969373Y-148715963D01*
X151799534Y-148664443D01*
X151643009Y-148580778D01*
X151607271Y-148551448D01*
X151505814Y-148468186D01*
X151422552Y-148366729D01*
X151393222Y-148330991D01*
X151309557Y-148174466D01*
X151258037Y-148004627D01*
X151240641Y-147828000D01*
X151258037Y-147651373D01*
X151309557Y-147481534D01*
X151393222Y-147325009D01*
X151422552Y-147289271D01*
X151505814Y-147187814D01*
X151607271Y-147104552D01*
X151643009Y-147075222D01*
X151799534Y-146991557D01*
X151969373Y-146940037D01*
X152035557Y-146933519D01*
X152101740Y-146927000D01*
X152190260Y-146927000D01*
X152256443Y-146933519D01*
X152256443Y-146933519D01*
G37*
G36*
X149716443Y-146933519D02*
G01*
X149782627Y-146940037D01*
X149952466Y-146991557D01*
X150108991Y-147075222D01*
X150144729Y-147104552D01*
X150246186Y-147187814D01*
X150329448Y-147289271D01*
X150358778Y-147325009D01*
X150442443Y-147481534D01*
X150493963Y-147651373D01*
X150511359Y-147828000D01*
X150493963Y-148004627D01*
X150442443Y-148174466D01*
X150358778Y-148330991D01*
X150329448Y-148366729D01*
X150246186Y-148468186D01*
X150144729Y-148551448D01*
X150108991Y-148580778D01*
X149952466Y-148664443D01*
X149782627Y-148715963D01*
X149716443Y-148722481D01*
X149650260Y-148729000D01*
X149561740Y-148729000D01*
X149495557Y-148722481D01*
X149429373Y-148715963D01*
X149259534Y-148664443D01*
X149103009Y-148580778D01*
X149067271Y-148551448D01*
X148965814Y-148468186D01*
X148882552Y-148366729D01*
X148853222Y-148330991D01*
X148769557Y-148174466D01*
X148718037Y-148004627D01*
X148700641Y-147828000D01*
X148718037Y-147651373D01*
X148769557Y-147481534D01*
X148853222Y-147325009D01*
X148882552Y-147289271D01*
X148965814Y-147187814D01*
X149067271Y-147104552D01*
X149103009Y-147075222D01*
X149259534Y-146991557D01*
X149429373Y-146940037D01*
X149495557Y-146933519D01*
X149561740Y-146927000D01*
X149650260Y-146927000D01*
X149716443Y-146933519D01*
X149716443Y-146933519D01*
G37*
G36*
X147967000Y-148729000D02*
G01*
X146165000Y-148729000D01*
X146165000Y-146927000D01*
X147967000Y-146927000D01*
X147967000Y-148729000D01*
X147967000Y-148729000D01*
G37*
G36*
X117117000Y-147343000D02*
G01*
X113515000Y-147343000D01*
X113515000Y-143741000D01*
X117117000Y-143741000D01*
X117117000Y-147343000D01*
X117117000Y-147343000D01*
G37*
G36*
X132216626Y-144377037D02*
G01*
X132386465Y-144428557D01*
X132386467Y-144428558D01*
X132542989Y-144512221D01*
X132680186Y-144624814D01*
X132763448Y-144726271D01*
X132792778Y-144762009D01*
X132876443Y-144918534D01*
X132927963Y-145088373D01*
X132941000Y-145220742D01*
X132941000Y-145609257D01*
X132927963Y-145741626D01*
X132876443Y-145911466D01*
X132792778Y-146067991D01*
X132763448Y-146103729D01*
X132680186Y-146205186D01*
X132585250Y-146283097D01*
X132542991Y-146317778D01*
X132386466Y-146401443D01*
X132216627Y-146452963D01*
X132040000Y-146470359D01*
X131863374Y-146452963D01*
X131693535Y-146401443D01*
X131537010Y-146317778D01*
X131399815Y-146205185D01*
X131287222Y-146067991D01*
X131203557Y-145911466D01*
X131152037Y-145741627D01*
X131139000Y-145609258D01*
X131139000Y-145220743D01*
X131152037Y-145088374D01*
X131203557Y-144918535D01*
X131287222Y-144762010D01*
X131287223Y-144762009D01*
X131399814Y-144624814D01*
X131501271Y-144541552D01*
X131537009Y-144512222D01*
X131693534Y-144428557D01*
X131863373Y-144377037D01*
X132040000Y-144359641D01*
X132216626Y-144377037D01*
X132216626Y-144377037D01*
G37*
G36*
X130298600Y-144367989D02*
G01*
X130331652Y-144378015D01*
X130362103Y-144394292D01*
X130388799Y-144416201D01*
X130410708Y-144442897D01*
X130426985Y-144473348D01*
X130437011Y-144506400D01*
X130441000Y-144546903D01*
X130441000Y-146283097D01*
X130437011Y-146323600D01*
X130426985Y-146356652D01*
X130410708Y-146387103D01*
X130388799Y-146413799D01*
X130362103Y-146435708D01*
X130331652Y-146451985D01*
X130298600Y-146462011D01*
X130258097Y-146466000D01*
X128821903Y-146466000D01*
X128781400Y-146462011D01*
X128748348Y-146451985D01*
X128717897Y-146435708D01*
X128691201Y-146413799D01*
X128669292Y-146387103D01*
X128653015Y-146356652D01*
X128642989Y-146323600D01*
X128639000Y-146283097D01*
X128639000Y-144546903D01*
X128642989Y-144506400D01*
X128653015Y-144473348D01*
X128669292Y-144442897D01*
X128691201Y-144416201D01*
X128717897Y-144394292D01*
X128748348Y-144378015D01*
X128781400Y-144367989D01*
X128821903Y-144364000D01*
X130258097Y-144364000D01*
X130298600Y-144367989D01*
X130298600Y-144367989D01*
G37*
G36*
X188051000Y-144551000D02*
G01*
X184949000Y-144551000D01*
X184949000Y-141449000D01*
X188051000Y-141449000D01*
X188051000Y-144551000D01*
X188051000Y-144551000D01*
G37*
G36*
X166051000Y-144551000D02*
G01*
X162949000Y-144551000D01*
X162949000Y-141949000D01*
X166051000Y-141949000D01*
X166051000Y-144551000D01*
X166051000Y-144551000D01*
G37*
G36*
X166051000Y-141301000D02*
G01*
X162949000Y-141301000D01*
X162949000Y-138699000D01*
X166051000Y-138699000D01*
X166051000Y-141301000D01*
X166051000Y-141301000D01*
G37*
G36*
X130722823Y-137083313D02*
G01*
X130883242Y-137131976D01*
X131015906Y-137202886D01*
X131031078Y-137210996D01*
X131160659Y-137317341D01*
X131267004Y-137446922D01*
X131267005Y-137446924D01*
X131346024Y-137594758D01*
X131394687Y-137755177D01*
X131411117Y-137922000D01*
X131394687Y-138088823D01*
X131346024Y-138249242D01*
X131298860Y-138337480D01*
X131267004Y-138397078D01*
X131160659Y-138526659D01*
X131031078Y-138633004D01*
X131031076Y-138633005D01*
X130883242Y-138712024D01*
X130722823Y-138760687D01*
X130597804Y-138773000D01*
X130514196Y-138773000D01*
X130389177Y-138760687D01*
X130228758Y-138712024D01*
X130080924Y-138633005D01*
X130080922Y-138633004D01*
X129951341Y-138526659D01*
X129844996Y-138397078D01*
X129813140Y-138337480D01*
X129765976Y-138249242D01*
X129717313Y-138088823D01*
X129700883Y-137922000D01*
X129717313Y-137755177D01*
X129765976Y-137594758D01*
X129844995Y-137446924D01*
X129844996Y-137446922D01*
X129951341Y-137317341D01*
X130080922Y-137210996D01*
X130096094Y-137202886D01*
X130228758Y-137131976D01*
X130389177Y-137083313D01*
X130514196Y-137071000D01*
X130597804Y-137071000D01*
X130722823Y-137083313D01*
X130722823Y-137083313D01*
G37*
G36*
X125978228Y-136976703D02*
G01*
X126133100Y-137040853D01*
X126272481Y-137133985D01*
X126391015Y-137252519D01*
X126484147Y-137391900D01*
X126548297Y-137546772D01*
X126581000Y-137711184D01*
X126581000Y-137878816D01*
X126548297Y-138043228D01*
X126484147Y-138198100D01*
X126391015Y-138337481D01*
X126272481Y-138456015D01*
X126133100Y-138549147D01*
X125978228Y-138613297D01*
X125813816Y-138646000D01*
X125646184Y-138646000D01*
X125481772Y-138613297D01*
X125326900Y-138549147D01*
X125187519Y-138456015D01*
X125068985Y-138337481D01*
X124975853Y-138198100D01*
X124911703Y-138043228D01*
X124879000Y-137878816D01*
X124879000Y-137711184D01*
X124911703Y-137546772D01*
X124975853Y-137391900D01*
X125068985Y-137252519D01*
X125187519Y-137133985D01*
X125326900Y-137040853D01*
X125481772Y-136976703D01*
X125646184Y-136944000D01*
X125813816Y-136944000D01*
X125978228Y-136976703D01*
X125978228Y-136976703D01*
G37*
G36*
X166051000Y-133801000D02*
G01*
X162949000Y-133801000D01*
X162949000Y-131199000D01*
X166051000Y-131199000D01*
X166051000Y-133801000D01*
X166051000Y-133801000D01*
G37*
G36*
X115492669Y-129779686D02*
G01*
X115669058Y-129797059D01*
X116008548Y-129900042D01*
X116008550Y-129900043D01*
X116321422Y-130067277D01*
X116321424Y-130067278D01*
X116321423Y-130067278D01*
X116595661Y-130292339D01*
X116820722Y-130566577D01*
X116987958Y-130879452D01*
X117090941Y-131218942D01*
X117125714Y-131572000D01*
X117090941Y-131925058D01*
X116987958Y-132264548D01*
X116987957Y-132264550D01*
X116820723Y-132577422D01*
X116595661Y-132851661D01*
X116321422Y-133076723D01*
X116008550Y-133243957D01*
X116008548Y-133243958D01*
X115669058Y-133346941D01*
X115492669Y-133364314D01*
X115404476Y-133373000D01*
X115227524Y-133373000D01*
X115139331Y-133364314D01*
X114962942Y-133346941D01*
X114623452Y-133243958D01*
X114623450Y-133243957D01*
X114310578Y-133076723D01*
X114036339Y-132851661D01*
X113811277Y-132577422D01*
X113644043Y-132264550D01*
X113644042Y-132264548D01*
X113541059Y-131925058D01*
X113506286Y-131572000D01*
X113541059Y-131218942D01*
X113644042Y-130879452D01*
X113811278Y-130566577D01*
X114036339Y-130292339D01*
X114310577Y-130067278D01*
X114310576Y-130067278D01*
X114310578Y-130067277D01*
X114623450Y-129900043D01*
X114623452Y-129900042D01*
X114962942Y-129797059D01*
X115139331Y-129779686D01*
X115227524Y-129771000D01*
X115404476Y-129771000D01*
X115492669Y-129779686D01*
X115492669Y-129779686D01*
G37*
G36*
X188051000Y-131051000D02*
G01*
X184949000Y-131051000D01*
X184949000Y-127949000D01*
X188051000Y-127949000D01*
X188051000Y-131051000D01*
X188051000Y-131051000D01*
G37*
G36*
X166051000Y-130551000D02*
G01*
X162949000Y-130551000D01*
X162949000Y-127949000D01*
X166051000Y-127949000D01*
X166051000Y-130551000D01*
X166051000Y-130551000D01*
G37*
G36*
X137657000Y-129342000D02*
G01*
X135995000Y-129342000D01*
X135995000Y-126690000D01*
X137657000Y-126690000D01*
X137657000Y-129342000D01*
X137657000Y-129342000D01*
G37*
G36*
X140357000Y-129342000D02*
G01*
X138695000Y-129342000D01*
X138695000Y-126690000D01*
X140357000Y-126690000D01*
X140357000Y-129342000D01*
X140357000Y-129342000D01*
G37*
G36*
X130804228Y-126943703D02*
G01*
X130959100Y-127007853D01*
X131098481Y-127100985D01*
X131217015Y-127219519D01*
X131310147Y-127358900D01*
X131374297Y-127513772D01*
X131407000Y-127678184D01*
X131407000Y-127845816D01*
X131374297Y-128010228D01*
X131310147Y-128165100D01*
X131217015Y-128304481D01*
X131098481Y-128423015D01*
X130959100Y-128516147D01*
X130804228Y-128580297D01*
X130639816Y-128613000D01*
X130472184Y-128613000D01*
X130307772Y-128580297D01*
X130152900Y-128516147D01*
X130013519Y-128423015D01*
X129894985Y-128304481D01*
X129801853Y-128165100D01*
X129737703Y-128010228D01*
X129705000Y-127845816D01*
X129705000Y-127678184D01*
X129737703Y-127513772D01*
X129801853Y-127358900D01*
X129894985Y-127219519D01*
X130013519Y-127100985D01*
X130152900Y-127007853D01*
X130307772Y-126943703D01*
X130472184Y-126911000D01*
X130639816Y-126911000D01*
X130804228Y-126943703D01*
X130804228Y-126943703D01*
G37*
G36*
X125896823Y-126796313D02*
G01*
X126057242Y-126844976D01*
X126180764Y-126911000D01*
X126205078Y-126923996D01*
X126334659Y-127030341D01*
X126441004Y-127159922D01*
X126441005Y-127159924D01*
X126520024Y-127307758D01*
X126568687Y-127468177D01*
X126585117Y-127635000D01*
X126568687Y-127801823D01*
X126520024Y-127962242D01*
X126494375Y-128010228D01*
X126441004Y-128110078D01*
X126334659Y-128239659D01*
X126205078Y-128346004D01*
X126205076Y-128346005D01*
X126057242Y-128425024D01*
X125896823Y-128473687D01*
X125771804Y-128486000D01*
X125688196Y-128486000D01*
X125563177Y-128473687D01*
X125402758Y-128425024D01*
X125254924Y-128346005D01*
X125254922Y-128346004D01*
X125125341Y-128239659D01*
X125018996Y-128110078D01*
X124965625Y-128010228D01*
X124939976Y-127962242D01*
X124891313Y-127801823D01*
X124874883Y-127635000D01*
X124891313Y-127468177D01*
X124939976Y-127307758D01*
X125018995Y-127159924D01*
X125018996Y-127159922D01*
X125125341Y-127030341D01*
X125254922Y-126923996D01*
X125279236Y-126911000D01*
X125402758Y-126844976D01*
X125563177Y-126796313D01*
X125688196Y-126784000D01*
X125771804Y-126784000D01*
X125896823Y-126796313D01*
X125896823Y-126796313D01*
G37*
G36*
X173465443Y-122295519D02*
G01*
X173531627Y-122302037D01*
X173701466Y-122353557D01*
X173857991Y-122437222D01*
X173893729Y-122466552D01*
X173995186Y-122549814D01*
X174078448Y-122651271D01*
X174107778Y-122687009D01*
X174191443Y-122843534D01*
X174242963Y-123013373D01*
X174260359Y-123190000D01*
X174242963Y-123366627D01*
X174191443Y-123536466D01*
X174107778Y-123692991D01*
X174078448Y-123728729D01*
X173995186Y-123830186D01*
X173893729Y-123913448D01*
X173857991Y-123942778D01*
X173701466Y-124026443D01*
X173531627Y-124077963D01*
X173465442Y-124084482D01*
X173399260Y-124091000D01*
X173310740Y-124091000D01*
X173244558Y-124084482D01*
X173178373Y-124077963D01*
X173008534Y-124026443D01*
X172852009Y-123942778D01*
X172816271Y-123913448D01*
X172714814Y-123830186D01*
X172631552Y-123728729D01*
X172602222Y-123692991D01*
X172518557Y-123536466D01*
X172467037Y-123366627D01*
X172449641Y-123190000D01*
X172467037Y-123013373D01*
X172518557Y-122843534D01*
X172602222Y-122687009D01*
X172631552Y-122651271D01*
X172714814Y-122549814D01*
X172816271Y-122466552D01*
X172852009Y-122437222D01*
X173008534Y-122353557D01*
X173178373Y-122302037D01*
X173244557Y-122295519D01*
X173310740Y-122289000D01*
X173399260Y-122289000D01*
X173465443Y-122295519D01*
X173465443Y-122295519D01*
G37*
G36*
X137326822Y-120246313D02*
G01*
X137487241Y-120294976D01*
X137635077Y-120373995D01*
X137756171Y-120473375D01*
X137764659Y-120480341D01*
X137871004Y-120609922D01*
X137871005Y-120609924D01*
X137950024Y-120757758D01*
X137998687Y-120918177D01*
X138011000Y-121043196D01*
X138011000Y-121526803D01*
X137998687Y-121651822D01*
X137950024Y-121812242D01*
X137879114Y-121944906D01*
X137871004Y-121960078D01*
X137764659Y-122089659D01*
X137635078Y-122196004D01*
X137635076Y-122196005D01*
X137487242Y-122275024D01*
X137326823Y-122323687D01*
X137160000Y-122340117D01*
X136993178Y-122323687D01*
X136832759Y-122275024D01*
X136684925Y-122196005D01*
X136684923Y-122196004D01*
X136555342Y-122089659D01*
X136448996Y-121960078D01*
X136440886Y-121944906D01*
X136369976Y-121812242D01*
X136321313Y-121651823D01*
X136309000Y-121526804D01*
X136309000Y-121043197D01*
X136321313Y-120918178D01*
X136369976Y-120757759D01*
X136448995Y-120609923D01*
X136555341Y-120480341D01*
X136563829Y-120473375D01*
X136684922Y-120373996D01*
X136700094Y-120365886D01*
X136832758Y-120294976D01*
X136993177Y-120246313D01*
X137160000Y-120229883D01*
X137326822Y-120246313D01*
X137326822Y-120246313D01*
G37*
G36*
X134786822Y-120246313D02*
G01*
X134947241Y-120294976D01*
X135095077Y-120373995D01*
X135216171Y-120473375D01*
X135224659Y-120480341D01*
X135331004Y-120609922D01*
X135331005Y-120609924D01*
X135410024Y-120757758D01*
X135458687Y-120918177D01*
X135471000Y-121043196D01*
X135471000Y-121526803D01*
X135458687Y-121651822D01*
X135410024Y-121812242D01*
X135339114Y-121944906D01*
X135331004Y-121960078D01*
X135224659Y-122089659D01*
X135095078Y-122196004D01*
X135095076Y-122196005D01*
X134947242Y-122275024D01*
X134786823Y-122323687D01*
X134620000Y-122340117D01*
X134453178Y-122323687D01*
X134292759Y-122275024D01*
X134144925Y-122196005D01*
X134144923Y-122196004D01*
X134015342Y-122089659D01*
X133908996Y-121960078D01*
X133900886Y-121944906D01*
X133829976Y-121812242D01*
X133781313Y-121651823D01*
X133769000Y-121526804D01*
X133769000Y-121043197D01*
X133781313Y-120918178D01*
X133829976Y-120757759D01*
X133908995Y-120609923D01*
X134015341Y-120480341D01*
X134023829Y-120473375D01*
X134144922Y-120373996D01*
X134160094Y-120365886D01*
X134292758Y-120294976D01*
X134453177Y-120246313D01*
X134620000Y-120229883D01*
X134786822Y-120246313D01*
X134786822Y-120246313D01*
G37*
G36*
X132246822Y-120246313D02*
G01*
X132407241Y-120294976D01*
X132555077Y-120373995D01*
X132676171Y-120473375D01*
X132684659Y-120480341D01*
X132791004Y-120609922D01*
X132791005Y-120609924D01*
X132870024Y-120757758D01*
X132918687Y-120918177D01*
X132931000Y-121043196D01*
X132931000Y-121526803D01*
X132918687Y-121651822D01*
X132870024Y-121812242D01*
X132799114Y-121944906D01*
X132791004Y-121960078D01*
X132684659Y-122089659D01*
X132555078Y-122196004D01*
X132555076Y-122196005D01*
X132407242Y-122275024D01*
X132246823Y-122323687D01*
X132080000Y-122340117D01*
X131913178Y-122323687D01*
X131752759Y-122275024D01*
X131604925Y-122196005D01*
X131604923Y-122196004D01*
X131475342Y-122089659D01*
X131368996Y-121960078D01*
X131360886Y-121944906D01*
X131289976Y-121812242D01*
X131241313Y-121651823D01*
X131229000Y-121526804D01*
X131229000Y-121043197D01*
X131241313Y-120918178D01*
X131289976Y-120757759D01*
X131368995Y-120609923D01*
X131475341Y-120480341D01*
X131483829Y-120473375D01*
X131604922Y-120373996D01*
X131620094Y-120365886D01*
X131752758Y-120294976D01*
X131913177Y-120246313D01*
X132080000Y-120229883D01*
X132246822Y-120246313D01*
X132246822Y-120246313D01*
G37*
G36*
X127166822Y-120246313D02*
G01*
X127327241Y-120294976D01*
X127475077Y-120373995D01*
X127596171Y-120473375D01*
X127604659Y-120480341D01*
X127711004Y-120609922D01*
X127711005Y-120609924D01*
X127790024Y-120757758D01*
X127838687Y-120918177D01*
X127851000Y-121043196D01*
X127851000Y-121526803D01*
X127838687Y-121651822D01*
X127790024Y-121812242D01*
X127719114Y-121944906D01*
X127711004Y-121960078D01*
X127604659Y-122089659D01*
X127475078Y-122196004D01*
X127475076Y-122196005D01*
X127327242Y-122275024D01*
X127166823Y-122323687D01*
X127000000Y-122340117D01*
X126833178Y-122323687D01*
X126672759Y-122275024D01*
X126524925Y-122196005D01*
X126524923Y-122196004D01*
X126395342Y-122089659D01*
X126288996Y-121960078D01*
X126280886Y-121944906D01*
X126209976Y-121812242D01*
X126161313Y-121651823D01*
X126149000Y-121526804D01*
X126149000Y-121043197D01*
X126161313Y-120918178D01*
X126209976Y-120757759D01*
X126288995Y-120609923D01*
X126395341Y-120480341D01*
X126403829Y-120473375D01*
X126524922Y-120373996D01*
X126540094Y-120365886D01*
X126672758Y-120294976D01*
X126833177Y-120246313D01*
X127000000Y-120229883D01*
X127166822Y-120246313D01*
X127166822Y-120246313D01*
G37*
G36*
X122086822Y-120246313D02*
G01*
X122247241Y-120294976D01*
X122395077Y-120373995D01*
X122516171Y-120473375D01*
X122524659Y-120480341D01*
X122631004Y-120609922D01*
X122631005Y-120609924D01*
X122710024Y-120757758D01*
X122758687Y-120918177D01*
X122771000Y-121043196D01*
X122771000Y-121526803D01*
X122758687Y-121651822D01*
X122710024Y-121812242D01*
X122639114Y-121944906D01*
X122631004Y-121960078D01*
X122524659Y-122089659D01*
X122395078Y-122196004D01*
X122395076Y-122196005D01*
X122247242Y-122275024D01*
X122086823Y-122323687D01*
X121920000Y-122340117D01*
X121753178Y-122323687D01*
X121592759Y-122275024D01*
X121444925Y-122196005D01*
X121444923Y-122196004D01*
X121315342Y-122089659D01*
X121208996Y-121960078D01*
X121200886Y-121944906D01*
X121129976Y-121812242D01*
X121081313Y-121651823D01*
X121069000Y-121526804D01*
X121069000Y-121043197D01*
X121081313Y-120918178D01*
X121129976Y-120757759D01*
X121208995Y-120609923D01*
X121315341Y-120480341D01*
X121323829Y-120473375D01*
X121444922Y-120373996D01*
X121460094Y-120365886D01*
X121592758Y-120294976D01*
X121753177Y-120246313D01*
X121920000Y-120229883D01*
X122086822Y-120246313D01*
X122086822Y-120246313D01*
G37*
G36*
X124626822Y-120246313D02*
G01*
X124787241Y-120294976D01*
X124935077Y-120373995D01*
X125056171Y-120473375D01*
X125064659Y-120480341D01*
X125171004Y-120609922D01*
X125171005Y-120609924D01*
X125250024Y-120757758D01*
X125298687Y-120918177D01*
X125311000Y-121043196D01*
X125311000Y-121526803D01*
X125298687Y-121651822D01*
X125250024Y-121812242D01*
X125179114Y-121944906D01*
X125171004Y-121960078D01*
X125064659Y-122089659D01*
X124935078Y-122196004D01*
X124935076Y-122196005D01*
X124787242Y-122275024D01*
X124626823Y-122323687D01*
X124460000Y-122340117D01*
X124293178Y-122323687D01*
X124132759Y-122275024D01*
X123984925Y-122196005D01*
X123984923Y-122196004D01*
X123855342Y-122089659D01*
X123748996Y-121960078D01*
X123740886Y-121944906D01*
X123669976Y-121812242D01*
X123621313Y-121651823D01*
X123609000Y-121526804D01*
X123609000Y-121043197D01*
X123621313Y-120918178D01*
X123669976Y-120757759D01*
X123748995Y-120609923D01*
X123855341Y-120480341D01*
X123863829Y-120473375D01*
X123984922Y-120373996D01*
X124000094Y-120365886D01*
X124132758Y-120294976D01*
X124293177Y-120246313D01*
X124460000Y-120229883D01*
X124626822Y-120246313D01*
X124626822Y-120246313D01*
G37*
G36*
X129706822Y-120246313D02*
G01*
X129867241Y-120294976D01*
X130015077Y-120373995D01*
X130136171Y-120473375D01*
X130144659Y-120480341D01*
X130251004Y-120609922D01*
X130251005Y-120609924D01*
X130330024Y-120757758D01*
X130378687Y-120918177D01*
X130391000Y-121043196D01*
X130391000Y-121526803D01*
X130378687Y-121651822D01*
X130330024Y-121812242D01*
X130259114Y-121944906D01*
X130251004Y-121960078D01*
X130144659Y-122089659D01*
X130015078Y-122196004D01*
X130015076Y-122196005D01*
X129867242Y-122275024D01*
X129706823Y-122323687D01*
X129540000Y-122340117D01*
X129373178Y-122323687D01*
X129212759Y-122275024D01*
X129064925Y-122196005D01*
X129064923Y-122196004D01*
X128935342Y-122089659D01*
X128828996Y-121960078D01*
X128820886Y-121944906D01*
X128749976Y-121812242D01*
X128701313Y-121651823D01*
X128689000Y-121526804D01*
X128689000Y-121043197D01*
X128701313Y-120918178D01*
X128749976Y-120757759D01*
X128828995Y-120609923D01*
X128935341Y-120480341D01*
X128943829Y-120473375D01*
X129064922Y-120373996D01*
X129080094Y-120365886D01*
X129212758Y-120294976D01*
X129373177Y-120246313D01*
X129540000Y-120229883D01*
X129706822Y-120246313D01*
X129706822Y-120246313D01*
G37*
G36*
X120431000Y-122336000D02*
G01*
X118329000Y-122336000D01*
X118329000Y-120234000D01*
X120431000Y-120234000D01*
X120431000Y-122336000D01*
X120431000Y-122336000D01*
G37*
G36*
X163751000Y-121961000D02*
G01*
X160149000Y-121961000D01*
X160149000Y-116859000D01*
X163751000Y-116859000D01*
X163751000Y-121961000D01*
X163751000Y-121961000D01*
G37*
G36*
X157301000Y-121961000D02*
G01*
X153699000Y-121961000D01*
X153699000Y-116859000D01*
X157301000Y-116859000D01*
X157301000Y-121961000D01*
X157301000Y-121961000D01*
G37*
G36*
X173465442Y-119755518D02*
G01*
X173531627Y-119762037D01*
X173701466Y-119813557D01*
X173857991Y-119897222D01*
X173893729Y-119926552D01*
X173995186Y-120009814D01*
X174078448Y-120111271D01*
X174107778Y-120147009D01*
X174191443Y-120303534D01*
X174242963Y-120473373D01*
X174260359Y-120650000D01*
X174242963Y-120826627D01*
X174191443Y-120996466D01*
X174107778Y-121152991D01*
X174078448Y-121188729D01*
X173995186Y-121290186D01*
X173893729Y-121373448D01*
X173857991Y-121402778D01*
X173701466Y-121486443D01*
X173531627Y-121537963D01*
X173465443Y-121544481D01*
X173399260Y-121551000D01*
X173310740Y-121551000D01*
X173244557Y-121544481D01*
X173178373Y-121537963D01*
X173008534Y-121486443D01*
X172852009Y-121402778D01*
X172816271Y-121373448D01*
X172714814Y-121290186D01*
X172631552Y-121188729D01*
X172602222Y-121152991D01*
X172518557Y-120996466D01*
X172467037Y-120826627D01*
X172449641Y-120650000D01*
X172467037Y-120473373D01*
X172518557Y-120303534D01*
X172602222Y-120147009D01*
X172631552Y-120111271D01*
X172714814Y-120009814D01*
X172816271Y-119926552D01*
X172852009Y-119897222D01*
X173008534Y-119813557D01*
X173178373Y-119762037D01*
X173244558Y-119755518D01*
X173310740Y-119749000D01*
X173399260Y-119749000D01*
X173465442Y-119755518D01*
X173465442Y-119755518D01*
G37*
G36*
X173465443Y-117215519D02*
G01*
X173531627Y-117222037D01*
X173701466Y-117273557D01*
X173857991Y-117357222D01*
X173893729Y-117386552D01*
X173995186Y-117469814D01*
X174078448Y-117571271D01*
X174107778Y-117607009D01*
X174191443Y-117763534D01*
X174242963Y-117933373D01*
X174260359Y-118110000D01*
X174242963Y-118286627D01*
X174191443Y-118456466D01*
X174107778Y-118612991D01*
X174078448Y-118648729D01*
X173995186Y-118750186D01*
X173893729Y-118833448D01*
X173857991Y-118862778D01*
X173701466Y-118946443D01*
X173531627Y-118997963D01*
X173465443Y-119004481D01*
X173399260Y-119011000D01*
X173310740Y-119011000D01*
X173244557Y-119004481D01*
X173178373Y-118997963D01*
X173008534Y-118946443D01*
X172852009Y-118862778D01*
X172816271Y-118833448D01*
X172714814Y-118750186D01*
X172631552Y-118648729D01*
X172602222Y-118612991D01*
X172518557Y-118456466D01*
X172467037Y-118286627D01*
X172449641Y-118110000D01*
X172467037Y-117933373D01*
X172518557Y-117763534D01*
X172602222Y-117607009D01*
X172631552Y-117571271D01*
X172714814Y-117469814D01*
X172816271Y-117386552D01*
X172852009Y-117357222D01*
X173008534Y-117273557D01*
X173178373Y-117222037D01*
X173244557Y-117215519D01*
X173310740Y-117209000D01*
X173399260Y-117209000D01*
X173465443Y-117215519D01*
X173465443Y-117215519D01*
G37*
G36*
X173465443Y-114675519D02*
G01*
X173531627Y-114682037D01*
X173701466Y-114733557D01*
X173857991Y-114817222D01*
X173893729Y-114846552D01*
X173995186Y-114929814D01*
X174078448Y-115031271D01*
X174107778Y-115067009D01*
X174191443Y-115223534D01*
X174242963Y-115393373D01*
X174260359Y-115570000D01*
X174242963Y-115746627D01*
X174191443Y-115916466D01*
X174107778Y-116072991D01*
X174078448Y-116108729D01*
X173995186Y-116210186D01*
X173893729Y-116293448D01*
X173857991Y-116322778D01*
X173701466Y-116406443D01*
X173531627Y-116457963D01*
X173465442Y-116464482D01*
X173399260Y-116471000D01*
X173310740Y-116471000D01*
X173244558Y-116464482D01*
X173178373Y-116457963D01*
X173008534Y-116406443D01*
X172852009Y-116322778D01*
X172816271Y-116293448D01*
X172714814Y-116210186D01*
X172631552Y-116108729D01*
X172602222Y-116072991D01*
X172518557Y-115916466D01*
X172467037Y-115746627D01*
X172449641Y-115570000D01*
X172467037Y-115393373D01*
X172518557Y-115223534D01*
X172602222Y-115067009D01*
X172631552Y-115031271D01*
X172714814Y-114929814D01*
X172816271Y-114846552D01*
X172852009Y-114817222D01*
X173008534Y-114733557D01*
X173178373Y-114682037D01*
X173244557Y-114675519D01*
X173310740Y-114669000D01*
X173399260Y-114669000D01*
X173465443Y-114675519D01*
X173465443Y-114675519D01*
G37*
G36*
X173465443Y-112135519D02*
G01*
X173531627Y-112142037D01*
X173701466Y-112193557D01*
X173857991Y-112277222D01*
X173893729Y-112306552D01*
X173995186Y-112389814D01*
X174078448Y-112491271D01*
X174107778Y-112527009D01*
X174191443Y-112683534D01*
X174242963Y-112853373D01*
X174260359Y-113030000D01*
X174242963Y-113206627D01*
X174191443Y-113376466D01*
X174107778Y-113532991D01*
X174078448Y-113568729D01*
X173995186Y-113670186D01*
X173893729Y-113753448D01*
X173857991Y-113782778D01*
X173701466Y-113866443D01*
X173531627Y-113917963D01*
X173465443Y-113924481D01*
X173399260Y-113931000D01*
X173310740Y-113931000D01*
X173244557Y-113924481D01*
X173178373Y-113917963D01*
X173008534Y-113866443D01*
X172852009Y-113782778D01*
X172816271Y-113753448D01*
X172714814Y-113670186D01*
X172631552Y-113568729D01*
X172602222Y-113532991D01*
X172518557Y-113376466D01*
X172467037Y-113206627D01*
X172449641Y-113030000D01*
X172467037Y-112853373D01*
X172518557Y-112683534D01*
X172602222Y-112527009D01*
X172631552Y-112491271D01*
X172714814Y-112389814D01*
X172816271Y-112306552D01*
X172852009Y-112277222D01*
X173008534Y-112193557D01*
X173178373Y-112142037D01*
X173244557Y-112135519D01*
X173310740Y-112129000D01*
X173399260Y-112129000D01*
X173465443Y-112135519D01*
X173465443Y-112135519D01*
G37*
G36*
X173465442Y-109595518D02*
G01*
X173531627Y-109602037D01*
X173701466Y-109653557D01*
X173857991Y-109737222D01*
X173893729Y-109766552D01*
X173995186Y-109849814D01*
X174078448Y-109951271D01*
X174107778Y-109987009D01*
X174191443Y-110143534D01*
X174242963Y-110313373D01*
X174260359Y-110490000D01*
X174242963Y-110666627D01*
X174191443Y-110836466D01*
X174107778Y-110992991D01*
X174078448Y-111028729D01*
X173995186Y-111130186D01*
X173893729Y-111213448D01*
X173857991Y-111242778D01*
X173701466Y-111326443D01*
X173531627Y-111377963D01*
X173465443Y-111384481D01*
X173399260Y-111391000D01*
X173310740Y-111391000D01*
X173244557Y-111384481D01*
X173178373Y-111377963D01*
X173008534Y-111326443D01*
X172852009Y-111242778D01*
X172816271Y-111213448D01*
X172714814Y-111130186D01*
X172631552Y-111028729D01*
X172602222Y-110992991D01*
X172518557Y-110836466D01*
X172467037Y-110666627D01*
X172449641Y-110490000D01*
X172467037Y-110313373D01*
X172518557Y-110143534D01*
X172602222Y-109987009D01*
X172631552Y-109951271D01*
X172714814Y-109849814D01*
X172816271Y-109766552D01*
X172852009Y-109737222D01*
X173008534Y-109653557D01*
X173178373Y-109602037D01*
X173244558Y-109595518D01*
X173310740Y-109589000D01*
X173399260Y-109589000D01*
X173465442Y-109595518D01*
X173465442Y-109595518D01*
G37*
G36*
X173465442Y-107055518D02*
G01*
X173531627Y-107062037D01*
X173701466Y-107113557D01*
X173857991Y-107197222D01*
X173893729Y-107226552D01*
X173995186Y-107309814D01*
X174078448Y-107411271D01*
X174107778Y-107447009D01*
X174191443Y-107603534D01*
X174242963Y-107773373D01*
X174260359Y-107950000D01*
X174242963Y-108126627D01*
X174191443Y-108296466D01*
X174107778Y-108452991D01*
X174078448Y-108488729D01*
X173995186Y-108590186D01*
X173893729Y-108673448D01*
X173857991Y-108702778D01*
X173701466Y-108786443D01*
X173531627Y-108837963D01*
X173465442Y-108844482D01*
X173399260Y-108851000D01*
X173310740Y-108851000D01*
X173244558Y-108844482D01*
X173178373Y-108837963D01*
X173008534Y-108786443D01*
X172852009Y-108702778D01*
X172816271Y-108673448D01*
X172714814Y-108590186D01*
X172631552Y-108488729D01*
X172602222Y-108452991D01*
X172518557Y-108296466D01*
X172467037Y-108126627D01*
X172449641Y-107950000D01*
X172467037Y-107773373D01*
X172518557Y-107603534D01*
X172602222Y-107447009D01*
X172631552Y-107411271D01*
X172714814Y-107309814D01*
X172816271Y-107226552D01*
X172852009Y-107197222D01*
X173008534Y-107113557D01*
X173178373Y-107062037D01*
X173244558Y-107055518D01*
X173310740Y-107049000D01*
X173399260Y-107049000D01*
X173465442Y-107055518D01*
X173465442Y-107055518D01*
G37*
G36*
X173465443Y-104515519D02*
G01*
X173531627Y-104522037D01*
X173701466Y-104573557D01*
X173857991Y-104657222D01*
X173893729Y-104686552D01*
X173995186Y-104769814D01*
X174078448Y-104871271D01*
X174107778Y-104907009D01*
X174191443Y-105063534D01*
X174242963Y-105233373D01*
X174260359Y-105410000D01*
X174242963Y-105586627D01*
X174191443Y-105756466D01*
X174107778Y-105912991D01*
X174078448Y-105948729D01*
X173995186Y-106050186D01*
X173893729Y-106133448D01*
X173857991Y-106162778D01*
X173701466Y-106246443D01*
X173531627Y-106297963D01*
X173465442Y-106304482D01*
X173399260Y-106311000D01*
X173310740Y-106311000D01*
X173244558Y-106304482D01*
X173178373Y-106297963D01*
X173008534Y-106246443D01*
X172852009Y-106162778D01*
X172816271Y-106133448D01*
X172714814Y-106050186D01*
X172631552Y-105948729D01*
X172602222Y-105912991D01*
X172518557Y-105756466D01*
X172467037Y-105586627D01*
X172449641Y-105410000D01*
X172467037Y-105233373D01*
X172518557Y-105063534D01*
X172602222Y-104907009D01*
X172631552Y-104871271D01*
X172714814Y-104769814D01*
X172816271Y-104686552D01*
X172852009Y-104657222D01*
X173008534Y-104573557D01*
X173178373Y-104522037D01*
X173244557Y-104515519D01*
X173310740Y-104509000D01*
X173399260Y-104509000D01*
X173465443Y-104515519D01*
X173465443Y-104515519D01*
G37*
G36*
X173465442Y-101975518D02*
G01*
X173531627Y-101982037D01*
X173701466Y-102033557D01*
X173857991Y-102117222D01*
X173893729Y-102146552D01*
X173995186Y-102229814D01*
X174078448Y-102331271D01*
X174107778Y-102367009D01*
X174191443Y-102523534D01*
X174242963Y-102693373D01*
X174260359Y-102870000D01*
X174242963Y-103046627D01*
X174191443Y-103216466D01*
X174107778Y-103372991D01*
X174078448Y-103408729D01*
X173995186Y-103510186D01*
X173893729Y-103593448D01*
X173857991Y-103622778D01*
X173701466Y-103706443D01*
X173531627Y-103757963D01*
X173465443Y-103764481D01*
X173399260Y-103771000D01*
X173310740Y-103771000D01*
X173244557Y-103764481D01*
X173178373Y-103757963D01*
X173008534Y-103706443D01*
X172852009Y-103622778D01*
X172816271Y-103593448D01*
X172714814Y-103510186D01*
X172631552Y-103408729D01*
X172602222Y-103372991D01*
X172518557Y-103216466D01*
X172467037Y-103046627D01*
X172449641Y-102870000D01*
X172467037Y-102693373D01*
X172518557Y-102523534D01*
X172602222Y-102367009D01*
X172631552Y-102331271D01*
X172714814Y-102229814D01*
X172816271Y-102146552D01*
X172852009Y-102117222D01*
X173008534Y-102033557D01*
X173178373Y-101982037D01*
X173244558Y-101975518D01*
X173310740Y-101969000D01*
X173399260Y-101969000D01*
X173465442Y-101975518D01*
X173465442Y-101975518D01*
G37*
G36*
X173465443Y-99435519D02*
G01*
X173531627Y-99442037D01*
X173701466Y-99493557D01*
X173857991Y-99577222D01*
X173893729Y-99606552D01*
X173995186Y-99689814D01*
X174078448Y-99791271D01*
X174107778Y-99827009D01*
X174191443Y-99983534D01*
X174242963Y-100153373D01*
X174260359Y-100330000D01*
X174242963Y-100506627D01*
X174191443Y-100676466D01*
X174107778Y-100832991D01*
X174078448Y-100868729D01*
X173995186Y-100970186D01*
X173893729Y-101053448D01*
X173857991Y-101082778D01*
X173701466Y-101166443D01*
X173531627Y-101217963D01*
X173465443Y-101224481D01*
X173399260Y-101231000D01*
X173310740Y-101231000D01*
X173244558Y-101224482D01*
X173178373Y-101217963D01*
X173008534Y-101166443D01*
X172852009Y-101082778D01*
X172816271Y-101053448D01*
X172714814Y-100970186D01*
X172631552Y-100868729D01*
X172602222Y-100832991D01*
X172518557Y-100676466D01*
X172467037Y-100506627D01*
X172449641Y-100330000D01*
X172467037Y-100153373D01*
X172518557Y-99983534D01*
X172602222Y-99827009D01*
X172631552Y-99791271D01*
X172714814Y-99689814D01*
X172816271Y-99606552D01*
X172852009Y-99577222D01*
X173008534Y-99493557D01*
X173178373Y-99442037D01*
X173244558Y-99435518D01*
X173310740Y-99429000D01*
X173399260Y-99429000D01*
X173465443Y-99435519D01*
X173465443Y-99435519D01*
G37*
G36*
X156464794Y-98830155D02*
G01*
X156571150Y-98851311D01*
X156671334Y-98892809D01*
X156771520Y-98934307D01*
X156951844Y-99054795D01*
X157105205Y-99208156D01*
X157225693Y-99388480D01*
X157308689Y-99588851D01*
X157351000Y-99801560D01*
X157351000Y-100018440D01*
X157308689Y-100231149D01*
X157225693Y-100431520D01*
X157105205Y-100611844D01*
X156951844Y-100765205D01*
X156771520Y-100885693D01*
X156571150Y-100968689D01*
X156464794Y-100989845D01*
X156358440Y-101011000D01*
X156141560Y-101011000D01*
X156035206Y-100989845D01*
X155928850Y-100968689D01*
X155728480Y-100885693D01*
X155548156Y-100765205D01*
X155394795Y-100611844D01*
X155274307Y-100431520D01*
X155191311Y-100231149D01*
X155149000Y-100018440D01*
X155149000Y-99801560D01*
X155191311Y-99588851D01*
X155274307Y-99388480D01*
X155394795Y-99208156D01*
X155548156Y-99054795D01*
X155728480Y-98934307D01*
X155828666Y-98892809D01*
X155928850Y-98851311D01*
X156035206Y-98830155D01*
X156141560Y-98809000D01*
X156358440Y-98809000D01*
X156464794Y-98830155D01*
X156464794Y-98830155D01*
G37*
G36*
X119546822Y-97386313D02*
G01*
X119707241Y-97434976D01*
X119855077Y-97513995D01*
X119976171Y-97613375D01*
X119984659Y-97620341D01*
X120091004Y-97749922D01*
X120091005Y-97749924D01*
X120170024Y-97897758D01*
X120218687Y-98058177D01*
X120231000Y-98183196D01*
X120231000Y-98666803D01*
X120218687Y-98791822D01*
X120170024Y-98952242D01*
X120099114Y-99084906D01*
X120091004Y-99100078D01*
X119984659Y-99229659D01*
X119855078Y-99336004D01*
X119855076Y-99336005D01*
X119707242Y-99415024D01*
X119546823Y-99463687D01*
X119380000Y-99480117D01*
X119213178Y-99463687D01*
X119052759Y-99415024D01*
X118904925Y-99336005D01*
X118904923Y-99336004D01*
X118775342Y-99229659D01*
X118668996Y-99100078D01*
X118660886Y-99084906D01*
X118589976Y-98952242D01*
X118541313Y-98791823D01*
X118529000Y-98666804D01*
X118529000Y-98183197D01*
X118541313Y-98058178D01*
X118589976Y-97897759D01*
X118668995Y-97749923D01*
X118775341Y-97620341D01*
X118783829Y-97613375D01*
X118904922Y-97513996D01*
X118920094Y-97505886D01*
X119052758Y-97434976D01*
X119213177Y-97386313D01*
X119380000Y-97369883D01*
X119546822Y-97386313D01*
X119546822Y-97386313D01*
G37*
G36*
X137326822Y-97386313D02*
G01*
X137487241Y-97434976D01*
X137635077Y-97513995D01*
X137756171Y-97613375D01*
X137764659Y-97620341D01*
X137871004Y-97749922D01*
X137871005Y-97749924D01*
X137950024Y-97897758D01*
X137998687Y-98058177D01*
X138011000Y-98183196D01*
X138011000Y-98666803D01*
X137998687Y-98791822D01*
X137950024Y-98952242D01*
X137879114Y-99084906D01*
X137871004Y-99100078D01*
X137764659Y-99229659D01*
X137635078Y-99336004D01*
X137635076Y-99336005D01*
X137487242Y-99415024D01*
X137326823Y-99463687D01*
X137160000Y-99480117D01*
X136993178Y-99463687D01*
X136832759Y-99415024D01*
X136684925Y-99336005D01*
X136684923Y-99336004D01*
X136555342Y-99229659D01*
X136448996Y-99100078D01*
X136440886Y-99084906D01*
X136369976Y-98952242D01*
X136321313Y-98791823D01*
X136309000Y-98666804D01*
X136309000Y-98183197D01*
X136321313Y-98058178D01*
X136369976Y-97897759D01*
X136448995Y-97749923D01*
X136555341Y-97620341D01*
X136563829Y-97613375D01*
X136684922Y-97513996D01*
X136700094Y-97505886D01*
X136832758Y-97434976D01*
X136993177Y-97386313D01*
X137160000Y-97369883D01*
X137326822Y-97386313D01*
X137326822Y-97386313D01*
G37*
G36*
X122086822Y-97386313D02*
G01*
X122247241Y-97434976D01*
X122395077Y-97513995D01*
X122516171Y-97613375D01*
X122524659Y-97620341D01*
X122631004Y-97749922D01*
X122631005Y-97749924D01*
X122710024Y-97897758D01*
X122758687Y-98058177D01*
X122771000Y-98183196D01*
X122771000Y-98666803D01*
X122758687Y-98791822D01*
X122710024Y-98952242D01*
X122639114Y-99084906D01*
X122631004Y-99100078D01*
X122524659Y-99229659D01*
X122395078Y-99336004D01*
X122395076Y-99336005D01*
X122247242Y-99415024D01*
X122086823Y-99463687D01*
X121920000Y-99480117D01*
X121753178Y-99463687D01*
X121592759Y-99415024D01*
X121444925Y-99336005D01*
X121444923Y-99336004D01*
X121315342Y-99229659D01*
X121208996Y-99100078D01*
X121200886Y-99084906D01*
X121129976Y-98952242D01*
X121081313Y-98791823D01*
X121069000Y-98666804D01*
X121069000Y-98183197D01*
X121081313Y-98058178D01*
X121129976Y-97897759D01*
X121208995Y-97749923D01*
X121315341Y-97620341D01*
X121323829Y-97613375D01*
X121444922Y-97513996D01*
X121460094Y-97505886D01*
X121592758Y-97434976D01*
X121753177Y-97386313D01*
X121920000Y-97369883D01*
X122086822Y-97386313D01*
X122086822Y-97386313D01*
G37*
G36*
X124626822Y-97386313D02*
G01*
X124787241Y-97434976D01*
X124935077Y-97513995D01*
X125056171Y-97613375D01*
X125064659Y-97620341D01*
X125171004Y-97749922D01*
X125171005Y-97749924D01*
X125250024Y-97897758D01*
X125298687Y-98058177D01*
X125311000Y-98183196D01*
X125311000Y-98666803D01*
X125298687Y-98791822D01*
X125250024Y-98952242D01*
X125179114Y-99084906D01*
X125171004Y-99100078D01*
X125064659Y-99229659D01*
X124935078Y-99336004D01*
X124935076Y-99336005D01*
X124787242Y-99415024D01*
X124626823Y-99463687D01*
X124460000Y-99480117D01*
X124293178Y-99463687D01*
X124132759Y-99415024D01*
X123984925Y-99336005D01*
X123984923Y-99336004D01*
X123855342Y-99229659D01*
X123748996Y-99100078D01*
X123740886Y-99084906D01*
X123669976Y-98952242D01*
X123621313Y-98791823D01*
X123609000Y-98666804D01*
X123609000Y-98183197D01*
X123621313Y-98058178D01*
X123669976Y-97897759D01*
X123748995Y-97749923D01*
X123855341Y-97620341D01*
X123863829Y-97613375D01*
X123984922Y-97513996D01*
X124000094Y-97505886D01*
X124132758Y-97434976D01*
X124293177Y-97386313D01*
X124460000Y-97369883D01*
X124626822Y-97386313D01*
X124626822Y-97386313D01*
G37*
G36*
X127166822Y-97386313D02*
G01*
X127327241Y-97434976D01*
X127475077Y-97513995D01*
X127596171Y-97613375D01*
X127604659Y-97620341D01*
X127711004Y-97749922D01*
X127711005Y-97749924D01*
X127790024Y-97897758D01*
X127838687Y-98058177D01*
X127851000Y-98183196D01*
X127851000Y-98666803D01*
X127838687Y-98791822D01*
X127790024Y-98952242D01*
X127719114Y-99084906D01*
X127711004Y-99100078D01*
X127604659Y-99229659D01*
X127475078Y-99336004D01*
X127475076Y-99336005D01*
X127327242Y-99415024D01*
X127166823Y-99463687D01*
X127000000Y-99480117D01*
X126833178Y-99463687D01*
X126672759Y-99415024D01*
X126524925Y-99336005D01*
X126524923Y-99336004D01*
X126395342Y-99229659D01*
X126288996Y-99100078D01*
X126280886Y-99084906D01*
X126209976Y-98952242D01*
X126161313Y-98791823D01*
X126149000Y-98666804D01*
X126149000Y-98183197D01*
X126161313Y-98058178D01*
X126209976Y-97897759D01*
X126288995Y-97749923D01*
X126395341Y-97620341D01*
X126403829Y-97613375D01*
X126524922Y-97513996D01*
X126540094Y-97505886D01*
X126672758Y-97434976D01*
X126833177Y-97386313D01*
X127000000Y-97369883D01*
X127166822Y-97386313D01*
X127166822Y-97386313D01*
G37*
G36*
X129706822Y-97386313D02*
G01*
X129867241Y-97434976D01*
X130015077Y-97513995D01*
X130136171Y-97613375D01*
X130144659Y-97620341D01*
X130251004Y-97749922D01*
X130251005Y-97749924D01*
X130330024Y-97897758D01*
X130378687Y-98058177D01*
X130391000Y-98183196D01*
X130391000Y-98666803D01*
X130378687Y-98791822D01*
X130330024Y-98952242D01*
X130259114Y-99084906D01*
X130251004Y-99100078D01*
X130144659Y-99229659D01*
X130015078Y-99336004D01*
X130015076Y-99336005D01*
X129867242Y-99415024D01*
X129706823Y-99463687D01*
X129540000Y-99480117D01*
X129373178Y-99463687D01*
X129212759Y-99415024D01*
X129064925Y-99336005D01*
X129064923Y-99336004D01*
X128935342Y-99229659D01*
X128828996Y-99100078D01*
X128820886Y-99084906D01*
X128749976Y-98952242D01*
X128701313Y-98791823D01*
X128689000Y-98666804D01*
X128689000Y-98183197D01*
X128701313Y-98058178D01*
X128749976Y-97897759D01*
X128828995Y-97749923D01*
X128935341Y-97620341D01*
X128943829Y-97613375D01*
X129064922Y-97513996D01*
X129080094Y-97505886D01*
X129212758Y-97434976D01*
X129373177Y-97386313D01*
X129540000Y-97369883D01*
X129706822Y-97386313D01*
X129706822Y-97386313D01*
G37*
G36*
X132246822Y-97386313D02*
G01*
X132407241Y-97434976D01*
X132555077Y-97513995D01*
X132676171Y-97613375D01*
X132684659Y-97620341D01*
X132791004Y-97749922D01*
X132791005Y-97749924D01*
X132870024Y-97897758D01*
X132918687Y-98058177D01*
X132931000Y-98183196D01*
X132931000Y-98666803D01*
X132918687Y-98791822D01*
X132870024Y-98952242D01*
X132799114Y-99084906D01*
X132791004Y-99100078D01*
X132684659Y-99229659D01*
X132555078Y-99336004D01*
X132555076Y-99336005D01*
X132407242Y-99415024D01*
X132246823Y-99463687D01*
X132080000Y-99480117D01*
X131913178Y-99463687D01*
X131752759Y-99415024D01*
X131604925Y-99336005D01*
X131604923Y-99336004D01*
X131475342Y-99229659D01*
X131368996Y-99100078D01*
X131360886Y-99084906D01*
X131289976Y-98952242D01*
X131241313Y-98791823D01*
X131229000Y-98666804D01*
X131229000Y-98183197D01*
X131241313Y-98058178D01*
X131289976Y-97897759D01*
X131368995Y-97749923D01*
X131475341Y-97620341D01*
X131483829Y-97613375D01*
X131604922Y-97513996D01*
X131620094Y-97505886D01*
X131752758Y-97434976D01*
X131913177Y-97386313D01*
X132080000Y-97369883D01*
X132246822Y-97386313D01*
X132246822Y-97386313D01*
G37*
G36*
X134786822Y-97386313D02*
G01*
X134947241Y-97434976D01*
X135095077Y-97513995D01*
X135216171Y-97613375D01*
X135224659Y-97620341D01*
X135331004Y-97749922D01*
X135331005Y-97749924D01*
X135410024Y-97897758D01*
X135458687Y-98058177D01*
X135471000Y-98183196D01*
X135471000Y-98666803D01*
X135458687Y-98791822D01*
X135410024Y-98952242D01*
X135339114Y-99084906D01*
X135331004Y-99100078D01*
X135224659Y-99229659D01*
X135095078Y-99336004D01*
X135095076Y-99336005D01*
X134947242Y-99415024D01*
X134786823Y-99463687D01*
X134620000Y-99480117D01*
X134453178Y-99463687D01*
X134292759Y-99415024D01*
X134144925Y-99336005D01*
X134144923Y-99336004D01*
X134015342Y-99229659D01*
X133908996Y-99100078D01*
X133900886Y-99084906D01*
X133829976Y-98952242D01*
X133781313Y-98791823D01*
X133769000Y-98666804D01*
X133769000Y-98183197D01*
X133781313Y-98058178D01*
X133829976Y-97897759D01*
X133908995Y-97749923D01*
X134015341Y-97620341D01*
X134023829Y-97613375D01*
X134144922Y-97513996D01*
X134160094Y-97505886D01*
X134292758Y-97434976D01*
X134453177Y-97386313D01*
X134620000Y-97369883D01*
X134786822Y-97386313D01*
X134786822Y-97386313D01*
G37*
G36*
X153964795Y-96580156D02*
G01*
X154071150Y-96601311D01*
X154171334Y-96642809D01*
X154271520Y-96684307D01*
X154451844Y-96804795D01*
X154605205Y-96958156D01*
X154725693Y-97138480D01*
X154730388Y-97149815D01*
X154787216Y-97287009D01*
X154808689Y-97338851D01*
X154851000Y-97551560D01*
X154851000Y-97768440D01*
X154808689Y-97981149D01*
X154725693Y-98181520D01*
X154605205Y-98361844D01*
X154451844Y-98515205D01*
X154271520Y-98635693D01*
X154196413Y-98666803D01*
X154071150Y-98718689D01*
X153964794Y-98739845D01*
X153858440Y-98761000D01*
X153641560Y-98761000D01*
X153535205Y-98739844D01*
X153428850Y-98718689D01*
X153303587Y-98666803D01*
X153228480Y-98635693D01*
X153048156Y-98515205D01*
X152894795Y-98361844D01*
X152774307Y-98181520D01*
X152691311Y-97981149D01*
X152649000Y-97768440D01*
X152649000Y-97551560D01*
X152691311Y-97338851D01*
X152712785Y-97287009D01*
X152769612Y-97149815D01*
X152774307Y-97138480D01*
X152894795Y-96958156D01*
X153048156Y-96804795D01*
X153228480Y-96684307D01*
X153428850Y-96601311D01*
X153535205Y-96580156D01*
X153641560Y-96559000D01*
X153858440Y-96559000D01*
X153964795Y-96580156D01*
X153964795Y-96580156D01*
G37*
G36*
X173465442Y-96895518D02*
G01*
X173531627Y-96902037D01*
X173701466Y-96953557D01*
X173857991Y-97037222D01*
X173893729Y-97066552D01*
X173995186Y-97149814D01*
X174078448Y-97251271D01*
X174107778Y-97287009D01*
X174191443Y-97443534D01*
X174242963Y-97613373D01*
X174260359Y-97790000D01*
X174242963Y-97966627D01*
X174215191Y-98058178D01*
X174191442Y-98136468D01*
X174167361Y-98181520D01*
X174107778Y-98292991D01*
X174078448Y-98328729D01*
X173995186Y-98430186D01*
X173893729Y-98513448D01*
X173857991Y-98542778D01*
X173701466Y-98626443D01*
X173531627Y-98677963D01*
X173465442Y-98684482D01*
X173399260Y-98691000D01*
X173310740Y-98691000D01*
X173244558Y-98684482D01*
X173178373Y-98677963D01*
X173008534Y-98626443D01*
X172852009Y-98542778D01*
X172816271Y-98513448D01*
X172714814Y-98430186D01*
X172631552Y-98328729D01*
X172602222Y-98292991D01*
X172542639Y-98181520D01*
X172518558Y-98136468D01*
X172494809Y-98058178D01*
X172467037Y-97966627D01*
X172449641Y-97790000D01*
X172467037Y-97613373D01*
X172518557Y-97443534D01*
X172602222Y-97287009D01*
X172631552Y-97251271D01*
X172714814Y-97149814D01*
X172816271Y-97066552D01*
X172852009Y-97037222D01*
X173008534Y-96953557D01*
X173178373Y-96902037D01*
X173244558Y-96895518D01*
X173310740Y-96889000D01*
X173399260Y-96889000D01*
X173465442Y-96895518D01*
X173465442Y-96895518D01*
G37*
G36*
X173465442Y-94355518D02*
G01*
X173531627Y-94362037D01*
X173701466Y-94413557D01*
X173857991Y-94497222D01*
X173893729Y-94526552D01*
X173995186Y-94609814D01*
X174078448Y-94711271D01*
X174107778Y-94747009D01*
X174191443Y-94903534D01*
X174242963Y-95073373D01*
X174260359Y-95250000D01*
X174242963Y-95426627D01*
X174191443Y-95596466D01*
X174107778Y-95752991D01*
X174097754Y-95765205D01*
X173995186Y-95890186D01*
X173899528Y-95968689D01*
X173857991Y-96002778D01*
X173701466Y-96086443D01*
X173531627Y-96137963D01*
X173465443Y-96144481D01*
X173399260Y-96151000D01*
X173310740Y-96151000D01*
X173244558Y-96144482D01*
X173178373Y-96137963D01*
X173008534Y-96086443D01*
X172852009Y-96002778D01*
X172810472Y-95968689D01*
X172714814Y-95890186D01*
X172612246Y-95765205D01*
X172602222Y-95752991D01*
X172518557Y-95596466D01*
X172467037Y-95426627D01*
X172449641Y-95250000D01*
X172467037Y-95073373D01*
X172518557Y-94903534D01*
X172602222Y-94747009D01*
X172631552Y-94711271D01*
X172714814Y-94609814D01*
X172816271Y-94526552D01*
X172852009Y-94497222D01*
X173008534Y-94413557D01*
X173178373Y-94362037D01*
X173244557Y-94355519D01*
X173310740Y-94349000D01*
X173399260Y-94349000D01*
X173465442Y-94355518D01*
X173465442Y-94355518D01*
G37*
G36*
X156464794Y-93830155D02*
G01*
X156571150Y-93851311D01*
X156671334Y-93892809D01*
X156771520Y-93934307D01*
X156951844Y-94054795D01*
X157105205Y-94208156D01*
X157225693Y-94388480D01*
X157308689Y-94588851D01*
X157351000Y-94801560D01*
X157351000Y-95018440D01*
X157308689Y-95231149D01*
X157225693Y-95431520D01*
X157105205Y-95611844D01*
X156951844Y-95765205D01*
X156771520Y-95885693D01*
X156571150Y-95968689D01*
X156464794Y-95989845D01*
X156358440Y-96011000D01*
X156141560Y-96011000D01*
X156035205Y-95989844D01*
X155928850Y-95968689D01*
X155728480Y-95885693D01*
X155548156Y-95765205D01*
X155394795Y-95611844D01*
X155274307Y-95431520D01*
X155191311Y-95231149D01*
X155149000Y-95018440D01*
X155149000Y-94801560D01*
X155191311Y-94588851D01*
X155274307Y-94388480D01*
X155394795Y-94208156D01*
X155548156Y-94054795D01*
X155728480Y-93934307D01*
X155828666Y-93892809D01*
X155928850Y-93851311D01*
X156035206Y-93830155D01*
X156141560Y-93809000D01*
X156358440Y-93809000D01*
X156464794Y-93830155D01*
X156464794Y-93830155D01*
G37*
G36*
X173465442Y-91815518D02*
G01*
X173531627Y-91822037D01*
X173701466Y-91873557D01*
X173857991Y-91957222D01*
X173888768Y-91982480D01*
X173995186Y-92069814D01*
X174078448Y-92171271D01*
X174107778Y-92207009D01*
X174191443Y-92363534D01*
X174242963Y-92533373D01*
X174260359Y-92710000D01*
X174242963Y-92886627D01*
X174191443Y-93056466D01*
X174107778Y-93212991D01*
X174078448Y-93248729D01*
X173995186Y-93350186D01*
X173893729Y-93433448D01*
X173857991Y-93462778D01*
X173701466Y-93546443D01*
X173531627Y-93597963D01*
X173465442Y-93604482D01*
X173399260Y-93611000D01*
X173310740Y-93611000D01*
X173244557Y-93604481D01*
X173178373Y-93597963D01*
X173008534Y-93546443D01*
X172852009Y-93462778D01*
X172816271Y-93433448D01*
X172714814Y-93350186D01*
X172631552Y-93248729D01*
X172602222Y-93212991D01*
X172518557Y-93056466D01*
X172467037Y-92886627D01*
X172449641Y-92710000D01*
X172467037Y-92533373D01*
X172518557Y-92363534D01*
X172602222Y-92207009D01*
X172631552Y-92171271D01*
X172714814Y-92069814D01*
X172821232Y-91982480D01*
X172852009Y-91957222D01*
X173008534Y-91873557D01*
X173178373Y-91822037D01*
X173244558Y-91815518D01*
X173310740Y-91809000D01*
X173399260Y-91809000D01*
X173465442Y-91815518D01*
X173465442Y-91815518D01*
G37*
G36*
X134868228Y-90621703D02*
G01*
X135023100Y-90685853D01*
X135162481Y-90778985D01*
X135281015Y-90897519D01*
X135374147Y-91036900D01*
X135438297Y-91191772D01*
X135471000Y-91356184D01*
X135471000Y-91523816D01*
X135438297Y-91688228D01*
X135374147Y-91843100D01*
X135281015Y-91982481D01*
X135162481Y-92101015D01*
X135023100Y-92194147D01*
X134868228Y-92258297D01*
X134703816Y-92291000D01*
X134536184Y-92291000D01*
X134371772Y-92258297D01*
X134216900Y-92194147D01*
X134077519Y-92101015D01*
X133958985Y-91982481D01*
X133865853Y-91843100D01*
X133801703Y-91688228D01*
X133769000Y-91523816D01*
X133769000Y-91356184D01*
X133801703Y-91191772D01*
X133865853Y-91036900D01*
X133958985Y-90897519D01*
X134077519Y-90778985D01*
X134216900Y-90685853D01*
X134371772Y-90621703D01*
X134536184Y-90589000D01*
X134703816Y-90589000D01*
X134868228Y-90621703D01*
X134868228Y-90621703D01*
G37*
G36*
X122168228Y-90621703D02*
G01*
X122323100Y-90685853D01*
X122462481Y-90778985D01*
X122581015Y-90897519D01*
X122674147Y-91036900D01*
X122738297Y-91191772D01*
X122771000Y-91356184D01*
X122771000Y-91523816D01*
X122738297Y-91688228D01*
X122674147Y-91843100D01*
X122581015Y-91982481D01*
X122462481Y-92101015D01*
X122323100Y-92194147D01*
X122168228Y-92258297D01*
X122003816Y-92291000D01*
X121836184Y-92291000D01*
X121671772Y-92258297D01*
X121516900Y-92194147D01*
X121377519Y-92101015D01*
X121258985Y-91982481D01*
X121165853Y-91843100D01*
X121101703Y-91688228D01*
X121069000Y-91523816D01*
X121069000Y-91356184D01*
X121101703Y-91191772D01*
X121165853Y-91036900D01*
X121258985Y-90897519D01*
X121377519Y-90778985D01*
X121516900Y-90685853D01*
X121671772Y-90621703D01*
X121836184Y-90589000D01*
X122003816Y-90589000D01*
X122168228Y-90621703D01*
X122168228Y-90621703D01*
G37*
G36*
X115818228Y-90621703D02*
G01*
X115973100Y-90685853D01*
X116112481Y-90778985D01*
X116231015Y-90897519D01*
X116324147Y-91036900D01*
X116388297Y-91191772D01*
X116421000Y-91356184D01*
X116421000Y-91523816D01*
X116388297Y-91688228D01*
X116324147Y-91843100D01*
X116231015Y-91982481D01*
X116112481Y-92101015D01*
X115973100Y-92194147D01*
X115818228Y-92258297D01*
X115653816Y-92291000D01*
X115486184Y-92291000D01*
X115321772Y-92258297D01*
X115166900Y-92194147D01*
X115027519Y-92101015D01*
X114908985Y-91982481D01*
X114815853Y-91843100D01*
X114751703Y-91688228D01*
X114719000Y-91523816D01*
X114719000Y-91356184D01*
X114751703Y-91191772D01*
X114815853Y-91036900D01*
X114908985Y-90897519D01*
X115027519Y-90778985D01*
X115166900Y-90685853D01*
X115321772Y-90621703D01*
X115486184Y-90589000D01*
X115653816Y-90589000D01*
X115818228Y-90621703D01*
X115818228Y-90621703D01*
G37*
G36*
X128518228Y-90621703D02*
G01*
X128673100Y-90685853D01*
X128812481Y-90778985D01*
X128931015Y-90897519D01*
X129024147Y-91036900D01*
X129088297Y-91191772D01*
X129121000Y-91356184D01*
X129121000Y-91523816D01*
X129088297Y-91688228D01*
X129024147Y-91843100D01*
X128931015Y-91982481D01*
X128812481Y-92101015D01*
X128673100Y-92194147D01*
X128518228Y-92258297D01*
X128353816Y-92291000D01*
X128186184Y-92291000D01*
X128021772Y-92258297D01*
X127866900Y-92194147D01*
X127727519Y-92101015D01*
X127608985Y-91982481D01*
X127515853Y-91843100D01*
X127451703Y-91688228D01*
X127419000Y-91523816D01*
X127419000Y-91356184D01*
X127451703Y-91191772D01*
X127515853Y-91036900D01*
X127608985Y-90897519D01*
X127727519Y-90778985D01*
X127866900Y-90685853D01*
X128021772Y-90621703D01*
X128186184Y-90589000D01*
X128353816Y-90589000D01*
X128518228Y-90621703D01*
X128518228Y-90621703D01*
G37*
G36*
X173465443Y-89275519D02*
G01*
X173531627Y-89282037D01*
X173701466Y-89333557D01*
X173857991Y-89417222D01*
X173893729Y-89446552D01*
X173995186Y-89529814D01*
X174078448Y-89631271D01*
X174107778Y-89667009D01*
X174191443Y-89823534D01*
X174242963Y-89993373D01*
X174260359Y-90170000D01*
X174242963Y-90346627D01*
X174191443Y-90516466D01*
X174107778Y-90672991D01*
X174097223Y-90685852D01*
X173995186Y-90810186D01*
X173893729Y-90893448D01*
X173857991Y-90922778D01*
X173701466Y-91006443D01*
X173531627Y-91057963D01*
X173465442Y-91064482D01*
X173399260Y-91071000D01*
X173310740Y-91071000D01*
X173244558Y-91064482D01*
X173178373Y-91057963D01*
X173008534Y-91006443D01*
X172852009Y-90922778D01*
X172816271Y-90893448D01*
X172714814Y-90810186D01*
X172612777Y-90685852D01*
X172602222Y-90672991D01*
X172518557Y-90516466D01*
X172467037Y-90346627D01*
X172449641Y-90170000D01*
X172467037Y-89993373D01*
X172518557Y-89823534D01*
X172602222Y-89667009D01*
X172631552Y-89631271D01*
X172714814Y-89529814D01*
X172816271Y-89446552D01*
X172852009Y-89417222D01*
X173008534Y-89333557D01*
X173178373Y-89282037D01*
X173244557Y-89275519D01*
X173310740Y-89269000D01*
X173399260Y-89269000D01*
X173465443Y-89275519D01*
X173465443Y-89275519D01*
G37*
G36*
X163801000Y-90961000D02*
G01*
X160199000Y-90961000D01*
X160199000Y-85859000D01*
X163801000Y-85859000D01*
X163801000Y-90961000D01*
X163801000Y-90961000D01*
G37*
G36*
X157301000Y-90961000D02*
G01*
X153699000Y-90961000D01*
X153699000Y-85859000D01*
X157301000Y-85859000D01*
X157301000Y-90961000D01*
X157301000Y-90961000D01*
G37*
G36*
X173465442Y-86735518D02*
G01*
X173531627Y-86742037D01*
X173701466Y-86793557D01*
X173857991Y-86877222D01*
X173893729Y-86906552D01*
X173995186Y-86989814D01*
X174078448Y-87091271D01*
X174107778Y-87127009D01*
X174191443Y-87283534D01*
X174242963Y-87453373D01*
X174260359Y-87630000D01*
X174242963Y-87806627D01*
X174191443Y-87976466D01*
X174107778Y-88132991D01*
X174078448Y-88168729D01*
X173995186Y-88270186D01*
X173893729Y-88353448D01*
X173857991Y-88382778D01*
X173701466Y-88466443D01*
X173531627Y-88517963D01*
X173465442Y-88524482D01*
X173399260Y-88531000D01*
X173310740Y-88531000D01*
X173244558Y-88524482D01*
X173178373Y-88517963D01*
X173008534Y-88466443D01*
X172852009Y-88382778D01*
X172816271Y-88353448D01*
X172714814Y-88270186D01*
X172631552Y-88168729D01*
X172602222Y-88132991D01*
X172518557Y-87976466D01*
X172467037Y-87806627D01*
X172449641Y-87630000D01*
X172467037Y-87453373D01*
X172518557Y-87283534D01*
X172602222Y-87127009D01*
X172631552Y-87091271D01*
X172714814Y-86989814D01*
X172816271Y-86906552D01*
X172852009Y-86877222D01*
X173008534Y-86793557D01*
X173178373Y-86742037D01*
X173244558Y-86735518D01*
X173310740Y-86729000D01*
X173399260Y-86729000D01*
X173465442Y-86735518D01*
X173465442Y-86735518D01*
G37*
G36*
X174256000Y-85991000D02*
G01*
X172454000Y-85991000D01*
X172454000Y-84189000D01*
X174256000Y-84189000D01*
X174256000Y-85991000D01*
X174256000Y-85991000D01*
G37*
G36*
X179815443Y-83560519D02*
G01*
X179881627Y-83567037D01*
X180051466Y-83618557D01*
X180207991Y-83702222D01*
X180243729Y-83731552D01*
X180345186Y-83814814D01*
X180428448Y-83916271D01*
X180457778Y-83952009D01*
X180541443Y-84108534D01*
X180592963Y-84278373D01*
X180610359Y-84455000D01*
X180592963Y-84631627D01*
X180541443Y-84801466D01*
X180457778Y-84957991D01*
X180428448Y-84993729D01*
X180345186Y-85095186D01*
X180243729Y-85178448D01*
X180207991Y-85207778D01*
X180051466Y-85291443D01*
X179881627Y-85342963D01*
X179815442Y-85349482D01*
X179749260Y-85356000D01*
X179660740Y-85356000D01*
X179594558Y-85349482D01*
X179528373Y-85342963D01*
X179358534Y-85291443D01*
X179202009Y-85207778D01*
X179166271Y-85178448D01*
X179064814Y-85095186D01*
X178981552Y-84993729D01*
X178952222Y-84957991D01*
X178868557Y-84801466D01*
X178817037Y-84631627D01*
X178799641Y-84455000D01*
X178817037Y-84278373D01*
X178868557Y-84108534D01*
X178952222Y-83952009D01*
X178981552Y-83916271D01*
X179064814Y-83814814D01*
X179166271Y-83731552D01*
X179202009Y-83702222D01*
X179358534Y-83618557D01*
X179528373Y-83567037D01*
X179594557Y-83560519D01*
X179660740Y-83554000D01*
X179749260Y-83554000D01*
X179815443Y-83560519D01*
X179815443Y-83560519D01*
G37*
G36*
X182355443Y-83560519D02*
G01*
X182421627Y-83567037D01*
X182591466Y-83618557D01*
X182747991Y-83702222D01*
X182783729Y-83731552D01*
X182885186Y-83814814D01*
X182968448Y-83916271D01*
X182997778Y-83952009D01*
X183081443Y-84108534D01*
X183132963Y-84278373D01*
X183150359Y-84455000D01*
X183132963Y-84631627D01*
X183081443Y-84801466D01*
X182997778Y-84957991D01*
X182968448Y-84993729D01*
X182885186Y-85095186D01*
X182783729Y-85178448D01*
X182747991Y-85207778D01*
X182591466Y-85291443D01*
X182421627Y-85342963D01*
X182355442Y-85349482D01*
X182289260Y-85356000D01*
X182200740Y-85356000D01*
X182134558Y-85349482D01*
X182068373Y-85342963D01*
X181898534Y-85291443D01*
X181742009Y-85207778D01*
X181706271Y-85178448D01*
X181604814Y-85095186D01*
X181521552Y-84993729D01*
X181492222Y-84957991D01*
X181408557Y-84801466D01*
X181357037Y-84631627D01*
X181339641Y-84455000D01*
X181357037Y-84278373D01*
X181408557Y-84108534D01*
X181492222Y-83952009D01*
X181521552Y-83916271D01*
X181604814Y-83814814D01*
X181706271Y-83731552D01*
X181742009Y-83702222D01*
X181898534Y-83618557D01*
X182068373Y-83567037D01*
X182134557Y-83560519D01*
X182200740Y-83554000D01*
X182289260Y-83554000D01*
X182355443Y-83560519D01*
X182355443Y-83560519D01*
G37*
G36*
X178066000Y-85356000D02*
G01*
X176264000Y-85356000D01*
X176264000Y-83554000D01*
X178066000Y-83554000D01*
X178066000Y-85356000D01*
X178066000Y-85356000D01*
G37*
G36*
X184895443Y-83560519D02*
G01*
X184961627Y-83567037D01*
X185131466Y-83618557D01*
X185287991Y-83702222D01*
X185323729Y-83731552D01*
X185425186Y-83814814D01*
X185508448Y-83916271D01*
X185537778Y-83952009D01*
X185621443Y-84108534D01*
X185672963Y-84278373D01*
X185690359Y-84455000D01*
X185672963Y-84631627D01*
X185621443Y-84801466D01*
X185537778Y-84957991D01*
X185508448Y-84993729D01*
X185425186Y-85095186D01*
X185323729Y-85178448D01*
X185287991Y-85207778D01*
X185131466Y-85291443D01*
X184961627Y-85342963D01*
X184895442Y-85349482D01*
X184829260Y-85356000D01*
X184740740Y-85356000D01*
X184674558Y-85349482D01*
X184608373Y-85342963D01*
X184438534Y-85291443D01*
X184282009Y-85207778D01*
X184246271Y-85178448D01*
X184144814Y-85095186D01*
X184061552Y-84993729D01*
X184032222Y-84957991D01*
X183948557Y-84801466D01*
X183897037Y-84631627D01*
X183879641Y-84455000D01*
X183897037Y-84278373D01*
X183948557Y-84108534D01*
X184032222Y-83952009D01*
X184061552Y-83916271D01*
X184144814Y-83814814D01*
X184246271Y-83731552D01*
X184282009Y-83702222D01*
X184438534Y-83618557D01*
X184608373Y-83567037D01*
X184674557Y-83560519D01*
X184740740Y-83554000D01*
X184829260Y-83554000D01*
X184895443Y-83560519D01*
X184895443Y-83560519D01*
G37*
G36*
X128436823Y-80441313D02*
G01*
X128597242Y-80489976D01*
X128729906Y-80560886D01*
X128745078Y-80568996D01*
X128874659Y-80675341D01*
X128981004Y-80804922D01*
X128981005Y-80804924D01*
X129060024Y-80952758D01*
X129108687Y-81113177D01*
X129125117Y-81280000D01*
X129108687Y-81446823D01*
X129060024Y-81607242D01*
X128989114Y-81739906D01*
X128981004Y-81755078D01*
X128874659Y-81884659D01*
X128745078Y-81991004D01*
X128745076Y-81991005D01*
X128597242Y-82070024D01*
X128436823Y-82118687D01*
X128311804Y-82131000D01*
X128228196Y-82131000D01*
X128103177Y-82118687D01*
X127942758Y-82070024D01*
X127794924Y-81991005D01*
X127794922Y-81991004D01*
X127665341Y-81884659D01*
X127558996Y-81755078D01*
X127550886Y-81739906D01*
X127479976Y-81607242D01*
X127431313Y-81446823D01*
X127414883Y-81280000D01*
X127431313Y-81113177D01*
X127479976Y-80952758D01*
X127558995Y-80804924D01*
X127558996Y-80804922D01*
X127665341Y-80675341D01*
X127794922Y-80568996D01*
X127810094Y-80560886D01*
X127942758Y-80489976D01*
X128103177Y-80441313D01*
X128228196Y-80429000D01*
X128311804Y-80429000D01*
X128436823Y-80441313D01*
X128436823Y-80441313D01*
G37*
G36*
X134786823Y-80441313D02*
G01*
X134947242Y-80489976D01*
X135079906Y-80560886D01*
X135095078Y-80568996D01*
X135224659Y-80675341D01*
X135331004Y-80804922D01*
X135331005Y-80804924D01*
X135410024Y-80952758D01*
X135458687Y-81113177D01*
X135475117Y-81280000D01*
X135458687Y-81446823D01*
X135410024Y-81607242D01*
X135339114Y-81739906D01*
X135331004Y-81755078D01*
X135224659Y-81884659D01*
X135095078Y-81991004D01*
X135095076Y-81991005D01*
X134947242Y-82070024D01*
X134786823Y-82118687D01*
X134661804Y-82131000D01*
X134578196Y-82131000D01*
X134453177Y-82118687D01*
X134292758Y-82070024D01*
X134144924Y-81991005D01*
X134144922Y-81991004D01*
X134015341Y-81884659D01*
X133908996Y-81755078D01*
X133900886Y-81739906D01*
X133829976Y-81607242D01*
X133781313Y-81446823D01*
X133764883Y-81280000D01*
X133781313Y-81113177D01*
X133829976Y-80952758D01*
X133908995Y-80804924D01*
X133908996Y-80804922D01*
X134015341Y-80675341D01*
X134144922Y-80568996D01*
X134160094Y-80560886D01*
X134292758Y-80489976D01*
X134453177Y-80441313D01*
X134578196Y-80429000D01*
X134661804Y-80429000D01*
X134786823Y-80441313D01*
X134786823Y-80441313D01*
G37*
G36*
X122086823Y-80441313D02*
G01*
X122247242Y-80489976D01*
X122379906Y-80560886D01*
X122395078Y-80568996D01*
X122524659Y-80675341D01*
X122631004Y-80804922D01*
X122631005Y-80804924D01*
X122710024Y-80952758D01*
X122758687Y-81113177D01*
X122775117Y-81280000D01*
X122758687Y-81446823D01*
X122710024Y-81607242D01*
X122639114Y-81739906D01*
X122631004Y-81755078D01*
X122524659Y-81884659D01*
X122395078Y-81991004D01*
X122395076Y-81991005D01*
X122247242Y-82070024D01*
X122086823Y-82118687D01*
X121961804Y-82131000D01*
X121878196Y-82131000D01*
X121753177Y-82118687D01*
X121592758Y-82070024D01*
X121444924Y-81991005D01*
X121444922Y-81991004D01*
X121315341Y-81884659D01*
X121208996Y-81755078D01*
X121200886Y-81739906D01*
X121129976Y-81607242D01*
X121081313Y-81446823D01*
X121064883Y-81280000D01*
X121081313Y-81113177D01*
X121129976Y-80952758D01*
X121208995Y-80804924D01*
X121208996Y-80804922D01*
X121315341Y-80675341D01*
X121444922Y-80568996D01*
X121460094Y-80560886D01*
X121592758Y-80489976D01*
X121753177Y-80441313D01*
X121878196Y-80429000D01*
X121961804Y-80429000D01*
X122086823Y-80441313D01*
X122086823Y-80441313D01*
G37*
G36*
X115736823Y-80441313D02*
G01*
X115897242Y-80489976D01*
X116029906Y-80560886D01*
X116045078Y-80568996D01*
X116174659Y-80675341D01*
X116281004Y-80804922D01*
X116281005Y-80804924D01*
X116360024Y-80952758D01*
X116408687Y-81113177D01*
X116425117Y-81280000D01*
X116408687Y-81446823D01*
X116360024Y-81607242D01*
X116289114Y-81739906D01*
X116281004Y-81755078D01*
X116174659Y-81884659D01*
X116045078Y-81991004D01*
X116045076Y-81991005D01*
X115897242Y-82070024D01*
X115736823Y-82118687D01*
X115611804Y-82131000D01*
X115528196Y-82131000D01*
X115403177Y-82118687D01*
X115242758Y-82070024D01*
X115094924Y-81991005D01*
X115094922Y-81991004D01*
X114965341Y-81884659D01*
X114858996Y-81755078D01*
X114850886Y-81739906D01*
X114779976Y-81607242D01*
X114731313Y-81446823D01*
X114714883Y-81280000D01*
X114731313Y-81113177D01*
X114779976Y-80952758D01*
X114858995Y-80804924D01*
X114858996Y-80804922D01*
X114965341Y-80675341D01*
X115094922Y-80568996D01*
X115110094Y-80560886D01*
X115242758Y-80489976D01*
X115403177Y-80441313D01*
X115528196Y-80429000D01*
X115611804Y-80429000D01*
X115736823Y-80441313D01*
X115736823Y-80441313D01*
G37*
G36*
X187472321Y-69498735D02*
G01*
X187622146Y-69528537D01*
X187904410Y-69645454D01*
X188158441Y-69815192D01*
X188374477Y-70031228D01*
X188544215Y-70285259D01*
X188661132Y-70567523D01*
X188720736Y-70867173D01*
X188720736Y-71172693D01*
X188661132Y-71472343D01*
X188544215Y-71754607D01*
X188374477Y-72008638D01*
X188158441Y-72224674D01*
X187904410Y-72394412D01*
X187622146Y-72511329D01*
X187472321Y-72541131D01*
X187322497Y-72570933D01*
X187016975Y-72570933D01*
X186867151Y-72541131D01*
X186717326Y-72511329D01*
X186435062Y-72394412D01*
X186181031Y-72224674D01*
X185964995Y-72008638D01*
X185795257Y-71754607D01*
X185678340Y-71472343D01*
X185618736Y-71172693D01*
X185618736Y-70867173D01*
X185678340Y-70567523D01*
X185795257Y-70285259D01*
X185964995Y-70031228D01*
X186181031Y-69815192D01*
X186435062Y-69645454D01*
X186717326Y-69528537D01*
X186867151Y-69498735D01*
X187016975Y-69468933D01*
X187322497Y-69468933D01*
X187472321Y-69498735D01*
X187472321Y-69498735D01*
G37*
G36*
X112473741Y-69498735D02*
G01*
X112623566Y-69528537D01*
X112905830Y-69645454D01*
X113159861Y-69815192D01*
X113375897Y-70031228D01*
X113545635Y-70285259D01*
X113662552Y-70567523D01*
X113722156Y-70867173D01*
X113722156Y-71172693D01*
X113662552Y-71472343D01*
X113545635Y-71754607D01*
X113375897Y-72008638D01*
X113159861Y-72224674D01*
X112905830Y-72394412D01*
X112623566Y-72511329D01*
X112473741Y-72541131D01*
X112323917Y-72570933D01*
X112018395Y-72570933D01*
X111868571Y-72541131D01*
X111718746Y-72511329D01*
X111436482Y-72394412D01*
X111182451Y-72224674D01*
X110966415Y-72008638D01*
X110796677Y-71754607D01*
X110679760Y-71472343D01*
X110620156Y-71172693D01*
X110620156Y-70867173D01*
X110679760Y-70567523D01*
X110796677Y-70285259D01*
X110966415Y-70031228D01*
X111182451Y-69815192D01*
X111436482Y-69645454D01*
X111718746Y-69528537D01*
X111868571Y-69498735D01*
X112018395Y-69468933D01*
X112323917Y-69468933D01*
X112473741Y-69498735D01*
X112473741Y-69498735D01*
G37*
G36*
X112473221Y-38498035D02*
G01*
X112623046Y-38527837D01*
X112905310Y-38644754D01*
X113159341Y-38814492D01*
X113375377Y-39030528D01*
X113545115Y-39284559D01*
X113662032Y-39566823D01*
X113721636Y-39866473D01*
X113721636Y-40171993D01*
X113662032Y-40471643D01*
X113545115Y-40753907D01*
X113375377Y-41007938D01*
X113159341Y-41223974D01*
X112905310Y-41393712D01*
X112623046Y-41510629D01*
X112473221Y-41540431D01*
X112323397Y-41570233D01*
X112017875Y-41570233D01*
X111868051Y-41540431D01*
X111718226Y-41510629D01*
X111435962Y-41393712D01*
X111181931Y-41223974D01*
X110965895Y-41007938D01*
X110796157Y-40753907D01*
X110679240Y-40471643D01*
X110619636Y-40171993D01*
X110619636Y-39866473D01*
X110679240Y-39566823D01*
X110796157Y-39284559D01*
X110965895Y-39030528D01*
X111181931Y-38814492D01*
X111435962Y-38644754D01*
X111718226Y-38527837D01*
X111868051Y-38498035D01*
X112017875Y-38468233D01*
X112323397Y-38468233D01*
X112473221Y-38498035D01*
X112473221Y-38498035D01*
G37*
G36*
X187472321Y-38498035D02*
G01*
X187622146Y-38527837D01*
X187904410Y-38644754D01*
X188158441Y-38814492D01*
X188374477Y-39030528D01*
X188544215Y-39284559D01*
X188661132Y-39566823D01*
X188720736Y-39866473D01*
X188720736Y-40171993D01*
X188661132Y-40471643D01*
X188544215Y-40753907D01*
X188374477Y-41007938D01*
X188158441Y-41223974D01*
X187904410Y-41393712D01*
X187622146Y-41510629D01*
X187472321Y-41540431D01*
X187322497Y-41570233D01*
X187016975Y-41570233D01*
X186867151Y-41540431D01*
X186717326Y-41510629D01*
X186435062Y-41393712D01*
X186181031Y-41223974D01*
X185964995Y-41007938D01*
X185795257Y-40753907D01*
X185678340Y-40471643D01*
X185618736Y-40171993D01*
X185618736Y-39866473D01*
X185678340Y-39566823D01*
X185795257Y-39284559D01*
X185964995Y-39030528D01*
X186181031Y-38814492D01*
X186435062Y-38644754D01*
X186717326Y-38527837D01*
X186867151Y-38498035D01*
X187016975Y-38468233D01*
X187322497Y-38468233D01*
X187472321Y-38498035D01*
X187472321Y-38498035D01*
G37*
G36*
X164077061Y-38681993D02*
G01*
X164077064Y-38681994D01*
X164077065Y-38681994D01*
X164256329Y-38736373D01*
X164256332Y-38736375D01*
X164256333Y-38736375D01*
X164421539Y-38824679D01*
X164566348Y-38943521D01*
X164685190Y-39088330D01*
X164773495Y-39253538D01*
X164827876Y-39432807D01*
X164841636Y-39572516D01*
X164841636Y-40465951D01*
X164827876Y-40605658D01*
X164827875Y-40605661D01*
X164827875Y-40605662D01*
X164773496Y-40784926D01*
X164773494Y-40784929D01*
X164773494Y-40784930D01*
X164685190Y-40950136D01*
X164566348Y-41094945D01*
X164421539Y-41213787D01*
X164256332Y-41302091D01*
X164256328Y-41302093D01*
X164077064Y-41356472D01*
X164077063Y-41356472D01*
X164077060Y-41356473D01*
X163890636Y-41374834D01*
X163704211Y-41356473D01*
X163704208Y-41356472D01*
X163704207Y-41356472D01*
X163524943Y-41302093D01*
X163524939Y-41302091D01*
X163359733Y-41213787D01*
X163214924Y-41094945D01*
X163096082Y-40950136D01*
X163007778Y-40784929D01*
X163007777Y-40784926D01*
X163007776Y-40784925D01*
X162953397Y-40605661D01*
X162953397Y-40605660D01*
X162953396Y-40605657D01*
X162939636Y-40465950D01*
X162939636Y-39572515D01*
X162953396Y-39432803D01*
X163007776Y-39253541D01*
X163096083Y-39088330D01*
X163214925Y-38943521D01*
X163359734Y-38824679D01*
X163524940Y-38736375D01*
X163524941Y-38736375D01*
X163524944Y-38736373D01*
X163704208Y-38681994D01*
X163704209Y-38681994D01*
X163704212Y-38681993D01*
X163890636Y-38663632D01*
X164077061Y-38681993D01*
X164077061Y-38681993D01*
G37*
G36*
X176777061Y-38681993D02*
G01*
X176777064Y-38681994D01*
X176777065Y-38681994D01*
X176956329Y-38736373D01*
X176956332Y-38736375D01*
X176956333Y-38736375D01*
X177121539Y-38824679D01*
X177266348Y-38943521D01*
X177385190Y-39088330D01*
X177473495Y-39253538D01*
X177527876Y-39432807D01*
X177541636Y-39572516D01*
X177541636Y-40465951D01*
X177527876Y-40605658D01*
X177527875Y-40605661D01*
X177527875Y-40605662D01*
X177473496Y-40784926D01*
X177473494Y-40784929D01*
X177473494Y-40784930D01*
X177385190Y-40950136D01*
X177266348Y-41094945D01*
X177121539Y-41213787D01*
X176956332Y-41302091D01*
X176956328Y-41302093D01*
X176777064Y-41356472D01*
X176777063Y-41356472D01*
X176777060Y-41356473D01*
X176590636Y-41374834D01*
X176404211Y-41356473D01*
X176404208Y-41356472D01*
X176404207Y-41356472D01*
X176224943Y-41302093D01*
X176224939Y-41302091D01*
X176059733Y-41213787D01*
X175914924Y-41094945D01*
X175796082Y-40950136D01*
X175707778Y-40784929D01*
X175707777Y-40784926D01*
X175707776Y-40784925D01*
X175653397Y-40605661D01*
X175653397Y-40605660D01*
X175653396Y-40605657D01*
X175639636Y-40465950D01*
X175639636Y-39572515D01*
X175653396Y-39432803D01*
X175707776Y-39253541D01*
X175796083Y-39088330D01*
X175914925Y-38943521D01*
X176059734Y-38824679D01*
X176224940Y-38736375D01*
X176224941Y-38736375D01*
X176224944Y-38736373D01*
X176404208Y-38681994D01*
X176404209Y-38681994D01*
X176404212Y-38681993D01*
X176590636Y-38663632D01*
X176777061Y-38681993D01*
X176777061Y-38681993D01*
G37*
G36*
X143757061Y-38681993D02*
G01*
X143757064Y-38681994D01*
X143757065Y-38681994D01*
X143936329Y-38736373D01*
X143936332Y-38736375D01*
X143936333Y-38736375D01*
X144101539Y-38824679D01*
X144246348Y-38943521D01*
X144365190Y-39088330D01*
X144453495Y-39253538D01*
X144507876Y-39432807D01*
X144521636Y-39572516D01*
X144521636Y-40465951D01*
X144507876Y-40605658D01*
X144507875Y-40605661D01*
X144507875Y-40605662D01*
X144453496Y-40784926D01*
X144453494Y-40784929D01*
X144453494Y-40784930D01*
X144365190Y-40950136D01*
X144246348Y-41094945D01*
X144101539Y-41213787D01*
X143936332Y-41302091D01*
X143936328Y-41302093D01*
X143757064Y-41356472D01*
X143757063Y-41356472D01*
X143757060Y-41356473D01*
X143570636Y-41374834D01*
X143384211Y-41356473D01*
X143384208Y-41356472D01*
X143384207Y-41356472D01*
X143204943Y-41302093D01*
X143204939Y-41302091D01*
X143039733Y-41213787D01*
X142894924Y-41094945D01*
X142776082Y-40950136D01*
X142687778Y-40784929D01*
X142687777Y-40784926D01*
X142687776Y-40784925D01*
X142633397Y-40605661D01*
X142633397Y-40605660D01*
X142633396Y-40605657D01*
X142619636Y-40465950D01*
X142619636Y-39572515D01*
X142633396Y-39432803D01*
X142687776Y-39253541D01*
X142776083Y-39088330D01*
X142894925Y-38943521D01*
X143039734Y-38824679D01*
X143204940Y-38736375D01*
X143204941Y-38736375D01*
X143204944Y-38736373D01*
X143384208Y-38681994D01*
X143384209Y-38681994D01*
X143384212Y-38681993D01*
X143570636Y-38663632D01*
X143757061Y-38681993D01*
X143757061Y-38681993D01*
G37*
G36*
X146297061Y-38681993D02*
G01*
X146297064Y-38681994D01*
X146297065Y-38681994D01*
X146476329Y-38736373D01*
X146476332Y-38736375D01*
X146476333Y-38736375D01*
X146641539Y-38824679D01*
X146786348Y-38943521D01*
X146905190Y-39088330D01*
X146993495Y-39253538D01*
X147047876Y-39432807D01*
X147061636Y-39572516D01*
X147061636Y-40465951D01*
X147047876Y-40605658D01*
X147047875Y-40605661D01*
X147047875Y-40605662D01*
X146993496Y-40784926D01*
X146993494Y-40784929D01*
X146993494Y-40784930D01*
X146905190Y-40950136D01*
X146786348Y-41094945D01*
X146641539Y-41213787D01*
X146476332Y-41302091D01*
X146476328Y-41302093D01*
X146297064Y-41356472D01*
X146297063Y-41356472D01*
X146297060Y-41356473D01*
X146110636Y-41374834D01*
X145924211Y-41356473D01*
X145924208Y-41356472D01*
X145924207Y-41356472D01*
X145744943Y-41302093D01*
X145744939Y-41302091D01*
X145579733Y-41213787D01*
X145434924Y-41094945D01*
X145316082Y-40950136D01*
X145227778Y-40784929D01*
X145227777Y-40784926D01*
X145227776Y-40784925D01*
X145173397Y-40605661D01*
X145173397Y-40605660D01*
X145173396Y-40605657D01*
X145159636Y-40465950D01*
X145159636Y-39572515D01*
X145173396Y-39432803D01*
X145227776Y-39253541D01*
X145316083Y-39088330D01*
X145434925Y-38943521D01*
X145579734Y-38824679D01*
X145744940Y-38736375D01*
X145744941Y-38736375D01*
X145744944Y-38736373D01*
X145924208Y-38681994D01*
X145924209Y-38681994D01*
X145924212Y-38681993D01*
X146110636Y-38663632D01*
X146297061Y-38681993D01*
X146297061Y-38681993D01*
G37*
G36*
X148837061Y-38681993D02*
G01*
X148837064Y-38681994D01*
X148837065Y-38681994D01*
X149016329Y-38736373D01*
X149016332Y-38736375D01*
X149016333Y-38736375D01*
X149181539Y-38824679D01*
X149326348Y-38943521D01*
X149445190Y-39088330D01*
X149533495Y-39253538D01*
X149587876Y-39432807D01*
X149601636Y-39572516D01*
X149601636Y-40465951D01*
X149587876Y-40605658D01*
X149587875Y-40605661D01*
X149587875Y-40605662D01*
X149533496Y-40784926D01*
X149533494Y-40784929D01*
X149533494Y-40784930D01*
X149445190Y-40950136D01*
X149326348Y-41094945D01*
X149181539Y-41213787D01*
X149016332Y-41302091D01*
X149016328Y-41302093D01*
X148837064Y-41356472D01*
X148837063Y-41356472D01*
X148837060Y-41356473D01*
X148650636Y-41374834D01*
X148464211Y-41356473D01*
X148464208Y-41356472D01*
X148464207Y-41356472D01*
X148284943Y-41302093D01*
X148284939Y-41302091D01*
X148119733Y-41213787D01*
X147974924Y-41094945D01*
X147856082Y-40950136D01*
X147767778Y-40784929D01*
X147767777Y-40784926D01*
X147767776Y-40784925D01*
X147713397Y-40605661D01*
X147713397Y-40605660D01*
X147713396Y-40605657D01*
X147699636Y-40465950D01*
X147699636Y-39572515D01*
X147713396Y-39432803D01*
X147767776Y-39253541D01*
X147856083Y-39088330D01*
X147974925Y-38943521D01*
X148119734Y-38824679D01*
X148284940Y-38736375D01*
X148284941Y-38736375D01*
X148284944Y-38736373D01*
X148464208Y-38681994D01*
X148464209Y-38681994D01*
X148464212Y-38681993D01*
X148650636Y-38663632D01*
X148837061Y-38681993D01*
X148837061Y-38681993D01*
G37*
G36*
X179317061Y-38681993D02*
G01*
X179317064Y-38681994D01*
X179317065Y-38681994D01*
X179496329Y-38736373D01*
X179496332Y-38736375D01*
X179496333Y-38736375D01*
X179661539Y-38824679D01*
X179806348Y-38943521D01*
X179925190Y-39088330D01*
X180013495Y-39253538D01*
X180067876Y-39432807D01*
X180081636Y-39572516D01*
X180081636Y-40465951D01*
X180067876Y-40605658D01*
X180067875Y-40605661D01*
X180067875Y-40605662D01*
X180013496Y-40784926D01*
X180013494Y-40784929D01*
X180013494Y-40784930D01*
X179925190Y-40950136D01*
X179806348Y-41094945D01*
X179661539Y-41213787D01*
X179496332Y-41302091D01*
X179496328Y-41302093D01*
X179317064Y-41356472D01*
X179317063Y-41356472D01*
X179317060Y-41356473D01*
X179130636Y-41374834D01*
X178944211Y-41356473D01*
X178944208Y-41356472D01*
X178944207Y-41356472D01*
X178764943Y-41302093D01*
X178764939Y-41302091D01*
X178599733Y-41213787D01*
X178454924Y-41094945D01*
X178336082Y-40950136D01*
X178247778Y-40784929D01*
X178247777Y-40784926D01*
X178247776Y-40784925D01*
X178193397Y-40605661D01*
X178193397Y-40605660D01*
X178193396Y-40605657D01*
X178179636Y-40465950D01*
X178179636Y-39572515D01*
X178193396Y-39432803D01*
X178247776Y-39253541D01*
X178336083Y-39088330D01*
X178454925Y-38943521D01*
X178599734Y-38824679D01*
X178764940Y-38736375D01*
X178764941Y-38736375D01*
X178764944Y-38736373D01*
X178944208Y-38681994D01*
X178944209Y-38681994D01*
X178944212Y-38681993D01*
X179130636Y-38663632D01*
X179317061Y-38681993D01*
X179317061Y-38681993D01*
G37*
G36*
X153917061Y-38681993D02*
G01*
X153917064Y-38681994D01*
X153917065Y-38681994D01*
X154096329Y-38736373D01*
X154096332Y-38736375D01*
X154096333Y-38736375D01*
X154261539Y-38824679D01*
X154406348Y-38943521D01*
X154525190Y-39088330D01*
X154613495Y-39253538D01*
X154667876Y-39432807D01*
X154681636Y-39572516D01*
X154681636Y-40465951D01*
X154667876Y-40605658D01*
X154667875Y-40605661D01*
X154667875Y-40605662D01*
X154613496Y-40784926D01*
X154613494Y-40784929D01*
X154613494Y-40784930D01*
X154525190Y-40950136D01*
X154406348Y-41094945D01*
X154261539Y-41213787D01*
X154096332Y-41302091D01*
X154096328Y-41302093D01*
X153917064Y-41356472D01*
X153917063Y-41356472D01*
X153917060Y-41356473D01*
X153730636Y-41374834D01*
X153544211Y-41356473D01*
X153544208Y-41356472D01*
X153544207Y-41356472D01*
X153364943Y-41302093D01*
X153364939Y-41302091D01*
X153199733Y-41213787D01*
X153054924Y-41094945D01*
X152936082Y-40950136D01*
X152847778Y-40784929D01*
X152847777Y-40784926D01*
X152847776Y-40784925D01*
X152793397Y-40605661D01*
X152793397Y-40605660D01*
X152793396Y-40605657D01*
X152779636Y-40465950D01*
X152779636Y-39572515D01*
X152793396Y-39432803D01*
X152847776Y-39253541D01*
X152936083Y-39088330D01*
X153054925Y-38943521D01*
X153199734Y-38824679D01*
X153364940Y-38736375D01*
X153364941Y-38736375D01*
X153364944Y-38736373D01*
X153544208Y-38681994D01*
X153544209Y-38681994D01*
X153544212Y-38681993D01*
X153730636Y-38663632D01*
X153917061Y-38681993D01*
X153917061Y-38681993D01*
G37*
G36*
X174237061Y-38681993D02*
G01*
X174237064Y-38681994D01*
X174237065Y-38681994D01*
X174416329Y-38736373D01*
X174416332Y-38736375D01*
X174416333Y-38736375D01*
X174581539Y-38824679D01*
X174726348Y-38943521D01*
X174845190Y-39088330D01*
X174933495Y-39253538D01*
X174987876Y-39432807D01*
X175001636Y-39572516D01*
X175001636Y-40465951D01*
X174987876Y-40605658D01*
X174987875Y-40605661D01*
X174987875Y-40605662D01*
X174933496Y-40784926D01*
X174933494Y-40784929D01*
X174933494Y-40784930D01*
X174845190Y-40950136D01*
X174726348Y-41094945D01*
X174581539Y-41213787D01*
X174416332Y-41302091D01*
X174416328Y-41302093D01*
X174237064Y-41356472D01*
X174237063Y-41356472D01*
X174237060Y-41356473D01*
X174050636Y-41374834D01*
X173864211Y-41356473D01*
X173864208Y-41356472D01*
X173864207Y-41356472D01*
X173684943Y-41302093D01*
X173684939Y-41302091D01*
X173519733Y-41213787D01*
X173374924Y-41094945D01*
X173256082Y-40950136D01*
X173167778Y-40784929D01*
X173167777Y-40784926D01*
X173167776Y-40784925D01*
X173113397Y-40605661D01*
X173113397Y-40605660D01*
X173113396Y-40605657D01*
X173099636Y-40465950D01*
X173099636Y-39572515D01*
X173113396Y-39432803D01*
X173167776Y-39253541D01*
X173256083Y-39088330D01*
X173374925Y-38943521D01*
X173519734Y-38824679D01*
X173684940Y-38736375D01*
X173684941Y-38736375D01*
X173684944Y-38736373D01*
X173864208Y-38681994D01*
X173864209Y-38681994D01*
X173864212Y-38681993D01*
X174050636Y-38663632D01*
X174237061Y-38681993D01*
X174237061Y-38681993D01*
G37*
G36*
X171697061Y-38681993D02*
G01*
X171697064Y-38681994D01*
X171697065Y-38681994D01*
X171876329Y-38736373D01*
X171876332Y-38736375D01*
X171876333Y-38736375D01*
X172041539Y-38824679D01*
X172186348Y-38943521D01*
X172305190Y-39088330D01*
X172393495Y-39253538D01*
X172447876Y-39432807D01*
X172461636Y-39572516D01*
X172461636Y-40465951D01*
X172447876Y-40605658D01*
X172447875Y-40605661D01*
X172447875Y-40605662D01*
X172393496Y-40784926D01*
X172393494Y-40784929D01*
X172393494Y-40784930D01*
X172305190Y-40950136D01*
X172186348Y-41094945D01*
X172041539Y-41213787D01*
X171876332Y-41302091D01*
X171876328Y-41302093D01*
X171697064Y-41356472D01*
X171697063Y-41356472D01*
X171697060Y-41356473D01*
X171510636Y-41374834D01*
X171324211Y-41356473D01*
X171324208Y-41356472D01*
X171324207Y-41356472D01*
X171144943Y-41302093D01*
X171144939Y-41302091D01*
X170979733Y-41213787D01*
X170834924Y-41094945D01*
X170716082Y-40950136D01*
X170627778Y-40784929D01*
X170627777Y-40784926D01*
X170627776Y-40784925D01*
X170573397Y-40605661D01*
X170573397Y-40605660D01*
X170573396Y-40605657D01*
X170559636Y-40465950D01*
X170559636Y-39572515D01*
X170573396Y-39432803D01*
X170627776Y-39253541D01*
X170716083Y-39088330D01*
X170834925Y-38943521D01*
X170979734Y-38824679D01*
X171144940Y-38736375D01*
X171144941Y-38736375D01*
X171144944Y-38736373D01*
X171324208Y-38681994D01*
X171324209Y-38681994D01*
X171324212Y-38681993D01*
X171510636Y-38663632D01*
X171697061Y-38681993D01*
X171697061Y-38681993D01*
G37*
G36*
X169157061Y-38681993D02*
G01*
X169157064Y-38681994D01*
X169157065Y-38681994D01*
X169336329Y-38736373D01*
X169336332Y-38736375D01*
X169336333Y-38736375D01*
X169501539Y-38824679D01*
X169646348Y-38943521D01*
X169765190Y-39088330D01*
X169853495Y-39253538D01*
X169907876Y-39432807D01*
X169921636Y-39572516D01*
X169921636Y-40465951D01*
X169907876Y-40605658D01*
X169907875Y-40605661D01*
X169907875Y-40605662D01*
X169853496Y-40784926D01*
X169853494Y-40784929D01*
X169853494Y-40784930D01*
X169765190Y-40950136D01*
X169646348Y-41094945D01*
X169501539Y-41213787D01*
X169336332Y-41302091D01*
X169336328Y-41302093D01*
X169157064Y-41356472D01*
X169157063Y-41356472D01*
X169157060Y-41356473D01*
X168970636Y-41374834D01*
X168784211Y-41356473D01*
X168784208Y-41356472D01*
X168784207Y-41356472D01*
X168604943Y-41302093D01*
X168604939Y-41302091D01*
X168439733Y-41213787D01*
X168294924Y-41094945D01*
X168176082Y-40950136D01*
X168087778Y-40784929D01*
X168087777Y-40784926D01*
X168087776Y-40784925D01*
X168033397Y-40605661D01*
X168033397Y-40605660D01*
X168033396Y-40605657D01*
X168019636Y-40465950D01*
X168019636Y-39572515D01*
X168033396Y-39432803D01*
X168087776Y-39253541D01*
X168176083Y-39088330D01*
X168294925Y-38943521D01*
X168439734Y-38824679D01*
X168604940Y-38736375D01*
X168604941Y-38736375D01*
X168604944Y-38736373D01*
X168784208Y-38681994D01*
X168784209Y-38681994D01*
X168784212Y-38681993D01*
X168970636Y-38663632D01*
X169157061Y-38681993D01*
X169157061Y-38681993D01*
G37*
G36*
X166617061Y-38681993D02*
G01*
X166617064Y-38681994D01*
X166617065Y-38681994D01*
X166796329Y-38736373D01*
X166796332Y-38736375D01*
X166796333Y-38736375D01*
X166961539Y-38824679D01*
X167106348Y-38943521D01*
X167225190Y-39088330D01*
X167313495Y-39253538D01*
X167367876Y-39432807D01*
X167381636Y-39572516D01*
X167381636Y-40465951D01*
X167367876Y-40605658D01*
X167367875Y-40605661D01*
X167367875Y-40605662D01*
X167313496Y-40784926D01*
X167313494Y-40784929D01*
X167313494Y-40784930D01*
X167225190Y-40950136D01*
X167106348Y-41094945D01*
X166961539Y-41213787D01*
X166796332Y-41302091D01*
X166796328Y-41302093D01*
X166617064Y-41356472D01*
X166617063Y-41356472D01*
X166617060Y-41356473D01*
X166430636Y-41374834D01*
X166244211Y-41356473D01*
X166244208Y-41356472D01*
X166244207Y-41356472D01*
X166064943Y-41302093D01*
X166064939Y-41302091D01*
X165899733Y-41213787D01*
X165754924Y-41094945D01*
X165636082Y-40950136D01*
X165547778Y-40784929D01*
X165547777Y-40784926D01*
X165547776Y-40784925D01*
X165493397Y-40605661D01*
X165493397Y-40605660D01*
X165493396Y-40605657D01*
X165479636Y-40465950D01*
X165479636Y-39572515D01*
X165493396Y-39432803D01*
X165547776Y-39253541D01*
X165636083Y-39088330D01*
X165754925Y-38943521D01*
X165899734Y-38824679D01*
X166064940Y-38736375D01*
X166064941Y-38736375D01*
X166064944Y-38736373D01*
X166244208Y-38681994D01*
X166244209Y-38681994D01*
X166244212Y-38681993D01*
X166430636Y-38663632D01*
X166617061Y-38681993D01*
X166617061Y-38681993D01*
G37*
G36*
X161537061Y-38681993D02*
G01*
X161537064Y-38681994D01*
X161537065Y-38681994D01*
X161716329Y-38736373D01*
X161716332Y-38736375D01*
X161716333Y-38736375D01*
X161881539Y-38824679D01*
X162026348Y-38943521D01*
X162145190Y-39088330D01*
X162233495Y-39253538D01*
X162287876Y-39432807D01*
X162301636Y-39572516D01*
X162301636Y-40465951D01*
X162287876Y-40605658D01*
X162287875Y-40605661D01*
X162287875Y-40605662D01*
X162233496Y-40784926D01*
X162233494Y-40784929D01*
X162233494Y-40784930D01*
X162145190Y-40950136D01*
X162026348Y-41094945D01*
X161881539Y-41213787D01*
X161716332Y-41302091D01*
X161716328Y-41302093D01*
X161537064Y-41356472D01*
X161537063Y-41356472D01*
X161537060Y-41356473D01*
X161350636Y-41374834D01*
X161164211Y-41356473D01*
X161164208Y-41356472D01*
X161164207Y-41356472D01*
X160984943Y-41302093D01*
X160984939Y-41302091D01*
X160819733Y-41213787D01*
X160674924Y-41094945D01*
X160556082Y-40950136D01*
X160467778Y-40784929D01*
X160467777Y-40784926D01*
X160467776Y-40784925D01*
X160413397Y-40605661D01*
X160413397Y-40605660D01*
X160413396Y-40605657D01*
X160399636Y-40465950D01*
X160399636Y-39572515D01*
X160413396Y-39432803D01*
X160467776Y-39253541D01*
X160556083Y-39088330D01*
X160674925Y-38943521D01*
X160819734Y-38824679D01*
X160984940Y-38736375D01*
X160984941Y-38736375D01*
X160984944Y-38736373D01*
X161164208Y-38681994D01*
X161164209Y-38681994D01*
X161164212Y-38681993D01*
X161350636Y-38663632D01*
X161537061Y-38681993D01*
X161537061Y-38681993D01*
G37*
G36*
X158997061Y-38681993D02*
G01*
X158997064Y-38681994D01*
X158997065Y-38681994D01*
X159176329Y-38736373D01*
X159176332Y-38736375D01*
X159176333Y-38736375D01*
X159341539Y-38824679D01*
X159486348Y-38943521D01*
X159605190Y-39088330D01*
X159693495Y-39253538D01*
X159747876Y-39432807D01*
X159761636Y-39572516D01*
X159761636Y-40465951D01*
X159747876Y-40605658D01*
X159747875Y-40605661D01*
X159747875Y-40605662D01*
X159693496Y-40784926D01*
X159693494Y-40784929D01*
X159693494Y-40784930D01*
X159605190Y-40950136D01*
X159486348Y-41094945D01*
X159341539Y-41213787D01*
X159176332Y-41302091D01*
X159176328Y-41302093D01*
X158997064Y-41356472D01*
X158997063Y-41356472D01*
X158997060Y-41356473D01*
X158810636Y-41374834D01*
X158624211Y-41356473D01*
X158624208Y-41356472D01*
X158624207Y-41356472D01*
X158444943Y-41302093D01*
X158444939Y-41302091D01*
X158279733Y-41213787D01*
X158134924Y-41094945D01*
X158016082Y-40950136D01*
X157927778Y-40784929D01*
X157927777Y-40784926D01*
X157927776Y-40784925D01*
X157873397Y-40605661D01*
X157873397Y-40605660D01*
X157873396Y-40605657D01*
X157859636Y-40465950D01*
X157859636Y-39572515D01*
X157873396Y-39432803D01*
X157927776Y-39253541D01*
X158016083Y-39088330D01*
X158134925Y-38943521D01*
X158279734Y-38824679D01*
X158444940Y-38736375D01*
X158444941Y-38736375D01*
X158444944Y-38736373D01*
X158624208Y-38681994D01*
X158624209Y-38681994D01*
X158624212Y-38681993D01*
X158810636Y-38663632D01*
X158997061Y-38681993D01*
X158997061Y-38681993D01*
G37*
G36*
X156457061Y-38681993D02*
G01*
X156457064Y-38681994D01*
X156457065Y-38681994D01*
X156636329Y-38736373D01*
X156636332Y-38736375D01*
X156636333Y-38736375D01*
X156801539Y-38824679D01*
X156946348Y-38943521D01*
X157065190Y-39088330D01*
X157153495Y-39253538D01*
X157207876Y-39432807D01*
X157221636Y-39572516D01*
X157221636Y-40465951D01*
X157207876Y-40605658D01*
X157207875Y-40605661D01*
X157207875Y-40605662D01*
X157153496Y-40784926D01*
X157153494Y-40784929D01*
X157153494Y-40784930D01*
X157065190Y-40950136D01*
X156946348Y-41094945D01*
X156801539Y-41213787D01*
X156636332Y-41302091D01*
X156636328Y-41302093D01*
X156457064Y-41356472D01*
X156457063Y-41356472D01*
X156457060Y-41356473D01*
X156270636Y-41374834D01*
X156084211Y-41356473D01*
X156084208Y-41356472D01*
X156084207Y-41356472D01*
X155904943Y-41302093D01*
X155904939Y-41302091D01*
X155739733Y-41213787D01*
X155594924Y-41094945D01*
X155476082Y-40950136D01*
X155387778Y-40784929D01*
X155387777Y-40784926D01*
X155387776Y-40784925D01*
X155333397Y-40605661D01*
X155333397Y-40605660D01*
X155333396Y-40605657D01*
X155319636Y-40465950D01*
X155319636Y-39572515D01*
X155333396Y-39432803D01*
X155387776Y-39253541D01*
X155476083Y-39088330D01*
X155594925Y-38943521D01*
X155739734Y-38824679D01*
X155904940Y-38736375D01*
X155904941Y-38736375D01*
X155904944Y-38736373D01*
X156084208Y-38681994D01*
X156084209Y-38681994D01*
X156084212Y-38681993D01*
X156270636Y-38663632D01*
X156457061Y-38681993D01*
X156457061Y-38681993D01*
G37*
G36*
X151377061Y-38681993D02*
G01*
X151377064Y-38681994D01*
X151377065Y-38681994D01*
X151556329Y-38736373D01*
X151556332Y-38736375D01*
X151556333Y-38736375D01*
X151721539Y-38824679D01*
X151866348Y-38943521D01*
X151985190Y-39088330D01*
X152073495Y-39253538D01*
X152127876Y-39432807D01*
X152141636Y-39572516D01*
X152141636Y-40465951D01*
X152127876Y-40605658D01*
X152127875Y-40605661D01*
X152127875Y-40605662D01*
X152073496Y-40784926D01*
X152073494Y-40784929D01*
X152073494Y-40784930D01*
X151985190Y-40950136D01*
X151866348Y-41094945D01*
X151721539Y-41213787D01*
X151556332Y-41302091D01*
X151556328Y-41302093D01*
X151377064Y-41356472D01*
X151377063Y-41356472D01*
X151377060Y-41356473D01*
X151190636Y-41374834D01*
X151004211Y-41356473D01*
X151004208Y-41356472D01*
X151004207Y-41356472D01*
X150824943Y-41302093D01*
X150824939Y-41302091D01*
X150659733Y-41213787D01*
X150514924Y-41094945D01*
X150396082Y-40950136D01*
X150307778Y-40784929D01*
X150307777Y-40784926D01*
X150307776Y-40784925D01*
X150253397Y-40605661D01*
X150253397Y-40605660D01*
X150253396Y-40605657D01*
X150239636Y-40465950D01*
X150239636Y-39572515D01*
X150253396Y-39432803D01*
X150307776Y-39253541D01*
X150396083Y-39088330D01*
X150514925Y-38943521D01*
X150659734Y-38824679D01*
X150824940Y-38736375D01*
X150824941Y-38736375D01*
X150824944Y-38736373D01*
X151004208Y-38681994D01*
X151004209Y-38681994D01*
X151004212Y-38681993D01*
X151190636Y-38663632D01*
X151377061Y-38681993D01*
X151377061Y-38681993D01*
G37*
G36*
X182621636Y-41370233D02*
G01*
X180719636Y-41370233D01*
X180719636Y-38668233D01*
X182621636Y-38668233D01*
X182621636Y-41370233D01*
X182621636Y-41370233D01*
G37*
G36*
X132279980Y-33407906D02*
G01*
X132453051Y-33479594D01*
X132453052Y-33479595D01*
X132608812Y-33583670D01*
X132741275Y-33716133D01*
X132741276Y-33716135D01*
X132845351Y-33871894D01*
X132917039Y-34044965D01*
X132953585Y-34228693D01*
X132953585Y-34416027D01*
X132917039Y-34599755D01*
X132845351Y-34772826D01*
X132845350Y-34772827D01*
X132741275Y-34928587D01*
X132608812Y-35061050D01*
X132530403Y-35113441D01*
X132453051Y-35165126D01*
X132279980Y-35236814D01*
X132096252Y-35273360D01*
X131908918Y-35273360D01*
X131725190Y-35236814D01*
X131552119Y-35165126D01*
X131474767Y-35113441D01*
X131396358Y-35061050D01*
X131263895Y-34928587D01*
X131159820Y-34772827D01*
X131159819Y-34772826D01*
X131088131Y-34599755D01*
X131051585Y-34416027D01*
X131051585Y-34228693D01*
X131088131Y-34044965D01*
X131159819Y-33871894D01*
X131263894Y-33716135D01*
X131263895Y-33716133D01*
X131396358Y-33583670D01*
X131552118Y-33479595D01*
X131552119Y-33479594D01*
X131725190Y-33407906D01*
X131908918Y-33371360D01*
X132096252Y-33371360D01*
X132279980Y-33407906D01*
X132279980Y-33407906D01*
G37*
G36*
X126564980Y-33407906D02*
G01*
X126738051Y-33479594D01*
X126738052Y-33479595D01*
X126893812Y-33583670D01*
X127026275Y-33716133D01*
X127026276Y-33716135D01*
X127130351Y-33871894D01*
X127202039Y-34044965D01*
X127238585Y-34228693D01*
X127238585Y-34416027D01*
X127202039Y-34599755D01*
X127130351Y-34772826D01*
X127130350Y-34772827D01*
X127026275Y-34928587D01*
X126893812Y-35061050D01*
X126815403Y-35113441D01*
X126738051Y-35165126D01*
X126564980Y-35236814D01*
X126381252Y-35273360D01*
X126193918Y-35273360D01*
X126010190Y-35236814D01*
X125837119Y-35165126D01*
X125759767Y-35113441D01*
X125681358Y-35061050D01*
X125548895Y-34928587D01*
X125444820Y-34772827D01*
X125444819Y-34772826D01*
X125373131Y-34599755D01*
X125336585Y-34416027D01*
X125336585Y-34228693D01*
X125373131Y-34044965D01*
X125444819Y-33871894D01*
X125548894Y-33716135D01*
X125548895Y-33716133D01*
X125681358Y-33583670D01*
X125837118Y-33479595D01*
X125837119Y-33479594D01*
X126010190Y-33407906D01*
X126193918Y-33371360D01*
X126381252Y-33371360D01*
X126564980Y-33407906D01*
X126564980Y-33407906D01*
G37*
G36*
X120214980Y-33407906D02*
G01*
X120388051Y-33479594D01*
X120388052Y-33479595D01*
X120543812Y-33583670D01*
X120676275Y-33716133D01*
X120676276Y-33716135D01*
X120780351Y-33871894D01*
X120852039Y-34044965D01*
X120888585Y-34228693D01*
X120888585Y-34416027D01*
X120852039Y-34599755D01*
X120780351Y-34772826D01*
X120780350Y-34772827D01*
X120676275Y-34928587D01*
X120543812Y-35061050D01*
X120465403Y-35113441D01*
X120388051Y-35165126D01*
X120214980Y-35236814D01*
X120031252Y-35273360D01*
X119843918Y-35273360D01*
X119660190Y-35236814D01*
X119487119Y-35165126D01*
X119409767Y-35113441D01*
X119331358Y-35061050D01*
X119198895Y-34928587D01*
X119094820Y-34772827D01*
X119094819Y-34772826D01*
X119023131Y-34599755D01*
X118986585Y-34416027D01*
X118986585Y-34228693D01*
X119023131Y-34044965D01*
X119094819Y-33871894D01*
X119198894Y-33716135D01*
X119198895Y-33716133D01*
X119331358Y-33583670D01*
X119487118Y-33479595D01*
X119487119Y-33479594D01*
X119660190Y-33407906D01*
X119843918Y-33371360D01*
X120031252Y-33371360D01*
X120214980Y-33407906D01*
X120214980Y-33407906D01*
G37*
G36*
X132953585Y-32733360D02*
G01*
X131051585Y-32733360D01*
X131051585Y-30831360D01*
X132953585Y-30831360D01*
X132953585Y-32733360D01*
X132953585Y-32733360D01*
G37*
G36*
X127238585Y-32733360D02*
G01*
X125336585Y-32733360D01*
X125336585Y-30831360D01*
X127238585Y-30831360D01*
X127238585Y-32733360D01*
X127238585Y-32733360D01*
G37*
G36*
X120888585Y-32733360D02*
G01*
X118986585Y-32733360D01*
X118986585Y-30831360D01*
X120888585Y-30831360D01*
X120888585Y-32733360D01*
X120888585Y-32733360D01*
G37*
M02*
