G04 #@! TF.GenerationSoftware,KiCad,Pcbnew,(5.1.2)-1*
G04 #@! TF.CreationDate,2020-02-01T16:47:34+00:00*
G04 #@! TF.ProjectId,Keypad,4b657970-6164-42e6-9b69-6361645f7063,1*
G04 #@! TF.SameCoordinates,Original*
G04 #@! TF.FileFunction,Copper,L1,Top*
G04 #@! TF.FilePolarity,Positive*
%FSLAX46Y46*%
G04 Gerber Fmt 4.6, Leading zero omitted, Abs format (unit mm)*
G04 Created by KiCad (PCBNEW (5.1.2)-1) date 2020-02-01 16:47:34*
%MOMM*%
%LPD*%
G04 APERTURE LIST*
%ADD10R,3.500000X3.500000*%
%ADD11O,3.500000X3.500000*%
%ADD12R,1.560000X0.650000*%
%ADD13O,1.600000X1.600000*%
%ADD14C,1.600000*%
%ADD15O,1.700000X1.700000*%
%ADD16R,1.700000X1.700000*%
%ADD17C,3.000000*%
%ADD18O,1.800000X2.600000*%
%ADD19R,1.800000X2.600000*%
%ADD20O,1.600000X2.000000*%
%ADD21R,2.000000X2.000000*%
%ADD22C,2.100000*%
%ADD23R,3.500000X5.000000*%
%ADD24R,3.000000X3.000000*%
%ADD25R,3.000000X2.500000*%
%ADD26O,1.700000X2.000000*%
%ADD27C,0.100000*%
%ADD28C,1.700000*%
%ADD29C,1.800000*%
%ADD30R,1.800000X1.800000*%
%ADD31C,0.800000*%
%ADD32C,0.350000*%
%ADD33C,0.250000*%
%ADD34C,0.254000*%
G04 APERTURE END LIST*
D10*
X115316000Y-145542000D03*
D11*
X115316000Y-131572000D03*
D12*
X139526000Y-128016000D03*
X139526000Y-127066000D03*
X139526000Y-128966000D03*
X136826000Y-128966000D03*
X136826000Y-128016000D03*
X136826000Y-127066000D03*
D13*
X130556000Y-137922000D03*
D14*
X130556000Y-127762000D03*
D15*
X152146000Y-147828000D03*
X149606000Y-147828000D03*
D16*
X147066000Y-147828000D03*
D17*
X112170636Y-40019233D03*
X112171156Y-71019933D03*
X187169736Y-71019933D03*
X187169736Y-40019233D03*
D18*
X143570636Y-40019233D03*
X146110636Y-40019233D03*
X148650636Y-40019233D03*
X151190636Y-40019233D03*
X153730636Y-40019233D03*
X156270636Y-40019233D03*
X158810636Y-40019233D03*
X161350636Y-40019233D03*
X163890636Y-40019233D03*
X166430636Y-40019233D03*
X168970636Y-40019233D03*
X171510636Y-40019233D03*
X174050636Y-40019233D03*
X176590636Y-40019233D03*
X179130636Y-40019233D03*
D19*
X181670636Y-40019233D03*
D20*
X119380000Y-98425000D03*
X121920000Y-98425000D03*
X124460000Y-98425000D03*
X127000000Y-98425000D03*
X129540000Y-98425000D03*
X132080000Y-98425000D03*
X134620000Y-98425000D03*
X137160000Y-98425000D03*
X137160000Y-121285000D03*
X134620000Y-121285000D03*
X132080000Y-121285000D03*
X129540000Y-121285000D03*
X127000000Y-121285000D03*
X124460000Y-121285000D03*
D21*
X119380000Y-121285000D03*
D20*
X121920000Y-121285000D03*
D22*
X153750000Y-97660000D03*
X156250000Y-99910000D03*
X156250000Y-94910000D03*
D23*
X161950000Y-119410000D03*
X155500000Y-119410000D03*
X155500000Y-88410000D03*
X162000000Y-88410000D03*
D24*
X186500000Y-143000000D03*
X186500000Y-129500000D03*
D25*
X164500000Y-129250000D03*
X164500000Y-143250000D03*
X164500000Y-140000000D03*
X164500000Y-132500000D03*
D26*
X132040000Y-145415000D03*
D27*
G36*
X130164504Y-144416204D02*
G01*
X130188773Y-144419804D01*
X130212571Y-144425765D01*
X130235671Y-144434030D01*
X130257849Y-144444520D01*
X130278893Y-144457133D01*
X130298598Y-144471747D01*
X130316777Y-144488223D01*
X130333253Y-144506402D01*
X130347867Y-144526107D01*
X130360480Y-144547151D01*
X130370970Y-144569329D01*
X130379235Y-144592429D01*
X130385196Y-144616227D01*
X130388796Y-144640496D01*
X130390000Y-144665000D01*
X130390000Y-146165000D01*
X130388796Y-146189504D01*
X130385196Y-146213773D01*
X130379235Y-146237571D01*
X130370970Y-146260671D01*
X130360480Y-146282849D01*
X130347867Y-146303893D01*
X130333253Y-146323598D01*
X130316777Y-146341777D01*
X130298598Y-146358253D01*
X130278893Y-146372867D01*
X130257849Y-146385480D01*
X130235671Y-146395970D01*
X130212571Y-146404235D01*
X130188773Y-146410196D01*
X130164504Y-146413796D01*
X130140000Y-146415000D01*
X128940000Y-146415000D01*
X128915496Y-146413796D01*
X128891227Y-146410196D01*
X128867429Y-146404235D01*
X128844329Y-146395970D01*
X128822151Y-146385480D01*
X128801107Y-146372867D01*
X128781402Y-146358253D01*
X128763223Y-146341777D01*
X128746747Y-146323598D01*
X128732133Y-146303893D01*
X128719520Y-146282849D01*
X128709030Y-146260671D01*
X128700765Y-146237571D01*
X128694804Y-146213773D01*
X128691204Y-146189504D01*
X128690000Y-146165000D01*
X128690000Y-144665000D01*
X128691204Y-144640496D01*
X128694804Y-144616227D01*
X128700765Y-144592429D01*
X128709030Y-144569329D01*
X128719520Y-144547151D01*
X128732133Y-144526107D01*
X128746747Y-144506402D01*
X128763223Y-144488223D01*
X128781402Y-144471747D01*
X128801107Y-144457133D01*
X128822151Y-144444520D01*
X128844329Y-144434030D01*
X128867429Y-144425765D01*
X128891227Y-144419804D01*
X128915496Y-144416204D01*
X128940000Y-144415000D01*
X130140000Y-144415000D01*
X130164504Y-144416204D01*
X130164504Y-144416204D01*
G37*
D28*
X129540000Y-145415000D03*
D29*
X132002585Y-34322360D03*
D30*
X132002585Y-31782360D03*
D29*
X126287585Y-34322360D03*
D30*
X126287585Y-31782360D03*
D29*
X119937585Y-34322360D03*
D30*
X119937585Y-31782360D03*
D15*
X184785000Y-84455000D03*
X182245000Y-84455000D03*
X179705000Y-84455000D03*
D16*
X177165000Y-84455000D03*
D15*
X173355000Y-123190000D03*
X173355000Y-120650000D03*
X173355000Y-118110000D03*
X173355000Y-115570000D03*
X173355000Y-113030000D03*
X173355000Y-110490000D03*
X173355000Y-107950000D03*
X173355000Y-105410000D03*
X173355000Y-102870000D03*
X173355000Y-100330000D03*
X173355000Y-97790000D03*
X173355000Y-95250000D03*
X173355000Y-92710000D03*
X173355000Y-90170000D03*
X173355000Y-87630000D03*
D16*
X173355000Y-85090000D03*
D13*
X128270000Y-81280000D03*
D14*
X128270000Y-91440000D03*
D13*
X121920000Y-81280000D03*
D14*
X121920000Y-91440000D03*
D13*
X115570000Y-81280000D03*
D14*
X115570000Y-91440000D03*
D13*
X134620000Y-81280000D03*
D14*
X134620000Y-91440000D03*
D13*
X125730000Y-127635000D03*
D14*
X125730000Y-137795000D03*
D31*
X113538000Y-154940000D03*
X135382000Y-130302000D03*
X142240000Y-128016000D03*
D32*
X129540000Y-147320000D02*
X129540000Y-145415000D01*
X130175000Y-147955000D02*
X129540000Y-147320000D01*
X133350000Y-147955000D02*
X130175000Y-147955000D01*
X139760000Y-141545000D02*
X133350000Y-147955000D01*
X160105000Y-141545000D02*
X139760000Y-141545000D01*
X161650000Y-140000000D02*
X160105000Y-141545000D01*
X163500000Y-140000000D02*
X161650000Y-140000000D01*
X133240000Y-145415000D02*
X132040000Y-145415000D01*
X141495000Y-137160000D02*
X133240000Y-145415000D01*
X160440000Y-137160000D02*
X154160000Y-137160000D01*
X163500000Y-134100000D02*
X160440000Y-137160000D01*
X163500000Y-132500000D02*
X163500000Y-134100000D01*
X160565000Y-137160000D02*
X154160000Y-137160000D01*
X154160000Y-137160000D02*
X141495000Y-137160000D01*
D33*
X138806000Y-127066000D02*
X139526000Y-127066000D01*
X137856000Y-128016000D02*
X138806000Y-127066000D01*
X136826000Y-128016000D02*
X137856000Y-128016000D01*
D32*
X137160000Y-98425000D02*
X146685000Y-98425000D01*
X146685000Y-98425000D02*
X152400000Y-92710000D01*
X162000000Y-89160000D02*
X162000000Y-88410000D01*
X158450000Y-92710000D02*
X162000000Y-89160000D01*
X152400000Y-92710000D02*
X158450000Y-92710000D01*
X179705000Y-83185000D02*
X179705000Y-84455000D01*
X178435000Y-81915000D02*
X179705000Y-83185000D01*
X170595000Y-81915000D02*
X178435000Y-81915000D01*
X162000000Y-88410000D02*
X164100000Y-88410000D01*
X164100000Y-88410000D02*
X170595000Y-81915000D01*
D33*
X127000000Y-97175000D02*
X128290000Y-95885000D01*
X127000000Y-98425000D02*
X127000000Y-97175000D01*
X128290000Y-95885000D02*
X142240000Y-95885000D01*
X182245000Y-83252919D02*
X182245000Y-84455000D01*
X179187072Y-80194991D02*
X182245000Y-83252919D01*
X142240000Y-95885000D02*
X157930009Y-80194991D01*
X157930009Y-80194991D02*
X179187072Y-80194991D01*
X127000000Y-116953996D02*
X127000000Y-98425000D01*
X138496000Y-128966000D02*
X136398000Y-131064000D01*
X139526000Y-128966000D02*
X138496000Y-128966000D01*
X136398000Y-131064000D02*
X124714000Y-131064000D01*
X124714000Y-131064000D02*
X123334990Y-129684990D01*
X123334990Y-129684990D02*
X123334990Y-120619006D01*
X123334990Y-120619006D02*
X127000000Y-116953996D01*
X124460000Y-98225000D02*
X127435000Y-95250000D01*
X124460000Y-98425000D02*
X124460000Y-98225000D01*
X142238590Y-95250000D02*
X157743609Y-79744981D01*
X127435000Y-95250000D02*
X142238590Y-95250000D01*
X180074981Y-79744981D02*
X184785000Y-84455000D01*
X157743609Y-79744981D02*
X180074981Y-79744981D01*
X136826000Y-129541000D02*
X136065000Y-130302000D01*
X136826000Y-128966000D02*
X136826000Y-129541000D01*
X136065000Y-130302000D02*
X135382000Y-130302000D01*
D32*
X139526000Y-128016000D02*
X142240000Y-128016000D01*
D33*
X130429000Y-127635000D02*
X130556000Y-127762000D01*
X125730000Y-127635000D02*
X130429000Y-127635000D01*
X136722001Y-126962001D02*
X136826000Y-127066000D01*
X131355999Y-126962001D02*
X136722001Y-126962001D01*
X130556000Y-127762000D02*
X131355999Y-126962001D01*
D32*
X133985000Y-149860000D02*
X126365000Y-149860000D01*
X140595000Y-143250000D02*
X138797500Y-145047500D01*
X163500000Y-143250000D02*
X140595000Y-143250000D01*
X139050000Y-144795000D02*
X138797500Y-145047500D01*
X138797500Y-145047500D02*
X133985000Y-149860000D01*
X122047000Y-145542000D02*
X114300000Y-145542000D01*
X126365000Y-149860000D02*
X122047000Y-145542000D01*
D33*
X115570000Y-91875000D02*
X115570000Y-91440000D01*
X116774873Y-131572000D02*
X114300000Y-131572000D01*
X150538000Y-131572000D02*
X116774873Y-131572000D01*
X161950000Y-120160000D02*
X150538000Y-131572000D01*
X161950000Y-119410000D02*
X161950000Y-120160000D01*
X121920000Y-98425000D02*
X121920000Y-98225000D01*
D34*
G36*
X118448083Y-30638180D02*
G01*
X118411773Y-30757878D01*
X118399513Y-30882360D01*
X118402585Y-31496610D01*
X118561335Y-31655360D01*
X119810585Y-31655360D01*
X119810585Y-31635360D01*
X120064585Y-31635360D01*
X120064585Y-31655360D01*
X121313835Y-31655360D01*
X121472585Y-31496610D01*
X121475657Y-30882360D01*
X121463397Y-30757878D01*
X121427087Y-30638180D01*
X121393316Y-30575000D01*
X124831854Y-30575000D01*
X124798083Y-30638180D01*
X124761773Y-30757878D01*
X124749513Y-30882360D01*
X124752585Y-31496610D01*
X124911335Y-31655360D01*
X126160585Y-31655360D01*
X126160585Y-31635360D01*
X126414585Y-31635360D01*
X126414585Y-31655360D01*
X127663835Y-31655360D01*
X127822585Y-31496610D01*
X127825657Y-30882360D01*
X127813397Y-30757878D01*
X127777087Y-30638180D01*
X127743316Y-30575000D01*
X130546854Y-30575000D01*
X130513083Y-30638180D01*
X130476773Y-30757878D01*
X130464513Y-30882360D01*
X130467585Y-31496610D01*
X130626335Y-31655360D01*
X131875585Y-31655360D01*
X131875585Y-31635360D01*
X132129585Y-31635360D01*
X132129585Y-31655360D01*
X133378835Y-31655360D01*
X133537585Y-31496610D01*
X133540657Y-30882360D01*
X133528397Y-30757878D01*
X133492087Y-30638180D01*
X133458316Y-30575000D01*
X181315000Y-30575000D01*
X181315001Y-35423647D01*
X181317955Y-35453636D01*
X181317868Y-35466047D01*
X181318802Y-35475565D01*
X181359603Y-35863758D01*
X181372080Y-35924539D01*
X181383720Y-35985560D01*
X181386484Y-35994716D01*
X181501908Y-36367591D01*
X181525986Y-36424870D01*
X181549225Y-36482388D01*
X181553714Y-36490833D01*
X181739366Y-36834188D01*
X181774068Y-36885635D01*
X181808079Y-36937610D01*
X181814124Y-36945022D01*
X182062931Y-37245777D01*
X182106984Y-37289524D01*
X182150422Y-37333881D01*
X182157792Y-37339978D01*
X182460276Y-37586679D01*
X182512005Y-37621047D01*
X182563215Y-37656111D01*
X182571628Y-37660661D01*
X182916270Y-37843910D01*
X182973636Y-37867555D01*
X183030736Y-37892028D01*
X183039873Y-37894856D01*
X183413544Y-38007674D01*
X183474469Y-38019737D01*
X183535174Y-38032641D01*
X183544686Y-38033641D01*
X183933155Y-38071731D01*
X183933163Y-38071731D01*
X183966353Y-38075000D01*
X186284507Y-38075000D01*
X186158434Y-38127221D01*
X185808753Y-38360870D01*
X185511373Y-38658250D01*
X185277724Y-39007931D01*
X185116783Y-39396477D01*
X185034736Y-39808954D01*
X185034736Y-40229512D01*
X185116783Y-40641989D01*
X185277724Y-41030535D01*
X185511373Y-41380216D01*
X185808753Y-41677596D01*
X186158434Y-41911245D01*
X186546980Y-42072186D01*
X186959457Y-42154233D01*
X187380015Y-42154233D01*
X187792492Y-42072186D01*
X188181038Y-41911245D01*
X188315001Y-41821734D01*
X188315001Y-41966344D01*
X188315000Y-41966354D01*
X188315000Y-69217432D01*
X188181038Y-69127921D01*
X187792492Y-68966980D01*
X187380015Y-68884933D01*
X186959457Y-68884933D01*
X186546980Y-68966980D01*
X186158434Y-69127921D01*
X185808753Y-69361570D01*
X185511373Y-69658950D01*
X185277724Y-70008631D01*
X185116783Y-70397177D01*
X185034736Y-70809654D01*
X185034736Y-71230212D01*
X185116783Y-71642689D01*
X185277724Y-72031235D01*
X185511373Y-72380916D01*
X185808753Y-72678296D01*
X186158434Y-72911945D01*
X186546980Y-73072886D01*
X186959457Y-73154933D01*
X187380015Y-73154933D01*
X187792492Y-73072886D01*
X188181038Y-72911945D01*
X188315000Y-72822434D01*
X188315001Y-127448353D01*
X188244180Y-127410498D01*
X188124482Y-127374188D01*
X188000000Y-127361928D01*
X185000000Y-127361928D01*
X184875518Y-127374188D01*
X184755820Y-127410498D01*
X184645506Y-127469463D01*
X184548815Y-127548815D01*
X184469463Y-127645506D01*
X184410498Y-127755820D01*
X184374188Y-127875518D01*
X184361928Y-128000000D01*
X184361928Y-131000000D01*
X184374188Y-131124482D01*
X184410498Y-131244180D01*
X184469463Y-131354494D01*
X184548815Y-131451185D01*
X184645506Y-131530537D01*
X184755820Y-131589502D01*
X184875518Y-131625812D01*
X185000000Y-131638072D01*
X188000000Y-131638072D01*
X188124482Y-131625812D01*
X188244180Y-131589502D01*
X188315001Y-131551647D01*
X188315001Y-140948353D01*
X188244180Y-140910498D01*
X188124482Y-140874188D01*
X188000000Y-140861928D01*
X185000000Y-140861928D01*
X184875518Y-140874188D01*
X184755820Y-140910498D01*
X184645506Y-140969463D01*
X184548815Y-141048815D01*
X184469463Y-141145506D01*
X184410498Y-141255820D01*
X184374188Y-141375518D01*
X184361928Y-141500000D01*
X184361928Y-144500000D01*
X184374188Y-144624482D01*
X184410498Y-144744180D01*
X184469463Y-144854494D01*
X184548815Y-144951185D01*
X184645506Y-145030537D01*
X184755820Y-145089502D01*
X184875518Y-145125812D01*
X185000000Y-145138072D01*
X188000000Y-145138072D01*
X188124482Y-145125812D01*
X188244180Y-145089502D01*
X188315001Y-145051647D01*
X188315001Y-165836487D01*
X188288543Y-166106327D01*
X188219908Y-166333656D01*
X188108428Y-166543320D01*
X187958343Y-166727341D01*
X187775380Y-166878701D01*
X187566493Y-166991646D01*
X187339653Y-167061865D01*
X187071966Y-167090000D01*
X184691503Y-167090000D01*
X184421673Y-167063543D01*
X184194344Y-166994908D01*
X183984680Y-166883428D01*
X183800659Y-166733343D01*
X183649299Y-166550380D01*
X183536354Y-166341493D01*
X183466135Y-166114653D01*
X183438000Y-165846966D01*
X183438000Y-156379553D01*
X183435053Y-156349628D01*
X183435135Y-156337817D01*
X183434201Y-156328299D01*
X183395338Y-155958544D01*
X183382863Y-155897769D01*
X183371221Y-155836742D01*
X183368456Y-155827586D01*
X183258514Y-155472422D01*
X183234454Y-155415184D01*
X183211199Y-155357626D01*
X183206709Y-155349181D01*
X183029877Y-155022136D01*
X182995142Y-154970639D01*
X182961163Y-154918714D01*
X182955118Y-154911302D01*
X182718129Y-154624832D01*
X182674076Y-154581085D01*
X182630638Y-154536728D01*
X182623269Y-154530632D01*
X182335152Y-154295648D01*
X182283416Y-154261275D01*
X182232212Y-154226215D01*
X182223799Y-154221666D01*
X181895527Y-154047121D01*
X181838131Y-154023464D01*
X181781063Y-153999005D01*
X181771926Y-153996176D01*
X181416004Y-153888716D01*
X181355074Y-153876652D01*
X181294371Y-153863749D01*
X181284863Y-153862749D01*
X181284859Y-153862749D01*
X180914844Y-153826469D01*
X180914837Y-153826469D01*
X180881647Y-153823200D01*
X117873153Y-153823200D01*
X117843228Y-153826147D01*
X117831417Y-153826065D01*
X117821899Y-153826999D01*
X117452144Y-153865862D01*
X117391369Y-153878337D01*
X117330342Y-153889979D01*
X117321186Y-153892744D01*
X116966022Y-154002686D01*
X116908784Y-154026746D01*
X116851226Y-154050001D01*
X116849347Y-154051000D01*
X114070468Y-154051000D01*
X114028256Y-154022795D01*
X113839898Y-153944774D01*
X113639939Y-153905000D01*
X113436061Y-153905000D01*
X113236102Y-153944774D01*
X113047744Y-154022795D01*
X113005532Y-154051000D01*
X110685000Y-154051000D01*
X110685000Y-143792000D01*
X112927928Y-143792000D01*
X112927928Y-147292000D01*
X112940188Y-147416482D01*
X112976498Y-147536180D01*
X113035463Y-147646494D01*
X113114815Y-147743185D01*
X113211506Y-147822537D01*
X113321820Y-147881502D01*
X113441518Y-147917812D01*
X113566000Y-147930072D01*
X117066000Y-147930072D01*
X117190482Y-147917812D01*
X117310180Y-147881502D01*
X117420494Y-147822537D01*
X117517185Y-147743185D01*
X117596537Y-147646494D01*
X117655502Y-147536180D01*
X117691812Y-147416482D01*
X117704072Y-147292000D01*
X117704072Y-146352000D01*
X121711488Y-146352000D01*
X125764105Y-150404618D01*
X125789472Y-150435528D01*
X125857210Y-150491119D01*
X125912810Y-150536749D01*
X125988024Y-150576951D01*
X126053527Y-150611963D01*
X126206212Y-150658280D01*
X126325209Y-150670000D01*
X126325211Y-150670000D01*
X126364999Y-150673919D01*
X126404787Y-150670000D01*
X133945212Y-150670000D01*
X133985000Y-150673919D01*
X134024788Y-150670000D01*
X134024791Y-150670000D01*
X134143788Y-150658280D01*
X134296473Y-150611963D01*
X134437189Y-150536749D01*
X134560528Y-150435528D01*
X134585900Y-150404612D01*
X138012512Y-146978000D01*
X145577928Y-146978000D01*
X145577928Y-148678000D01*
X145590188Y-148802482D01*
X145626498Y-148922180D01*
X145685463Y-149032494D01*
X145764815Y-149129185D01*
X145861506Y-149208537D01*
X145971820Y-149267502D01*
X146091518Y-149303812D01*
X146216000Y-149316072D01*
X147916000Y-149316072D01*
X148040482Y-149303812D01*
X148160180Y-149267502D01*
X148270494Y-149208537D01*
X148367185Y-149129185D01*
X148446537Y-149032494D01*
X148505502Y-148922180D01*
X148529966Y-148841534D01*
X148605731Y-148925588D01*
X148839080Y-149099641D01*
X149101901Y-149224825D01*
X149249110Y-149269476D01*
X149479000Y-149148155D01*
X149479000Y-147955000D01*
X149459000Y-147955000D01*
X149459000Y-147701000D01*
X149479000Y-147701000D01*
X149479000Y-146507845D01*
X149733000Y-146507845D01*
X149733000Y-147701000D01*
X149753000Y-147701000D01*
X149753000Y-147955000D01*
X149733000Y-147955000D01*
X149733000Y-149148155D01*
X149962890Y-149269476D01*
X150110099Y-149224825D01*
X150372920Y-149099641D01*
X150606269Y-148925588D01*
X150801178Y-148709355D01*
X150870799Y-148592477D01*
X150905294Y-148657014D01*
X151090866Y-148883134D01*
X151316986Y-149068706D01*
X151574966Y-149206599D01*
X151854889Y-149291513D01*
X152073050Y-149313000D01*
X152218950Y-149313000D01*
X152437111Y-149291513D01*
X152717034Y-149206599D01*
X152975014Y-149068706D01*
X153201134Y-148883134D01*
X153386706Y-148657014D01*
X153524599Y-148399034D01*
X153609513Y-148119111D01*
X153638185Y-147828000D01*
X153609513Y-147536889D01*
X153524599Y-147256966D01*
X153386706Y-146998986D01*
X153201134Y-146772866D01*
X152975014Y-146587294D01*
X152717034Y-146449401D01*
X152437111Y-146364487D01*
X152218950Y-146343000D01*
X152073050Y-146343000D01*
X151854889Y-146364487D01*
X151574966Y-146449401D01*
X151316986Y-146587294D01*
X151090866Y-146772866D01*
X150905294Y-146998986D01*
X150870799Y-147063523D01*
X150801178Y-146946645D01*
X150606269Y-146730412D01*
X150372920Y-146556359D01*
X150110099Y-146431175D01*
X149962890Y-146386524D01*
X149733000Y-146507845D01*
X149479000Y-146507845D01*
X149249110Y-146386524D01*
X149101901Y-146431175D01*
X148839080Y-146556359D01*
X148605731Y-146730412D01*
X148529966Y-146814466D01*
X148505502Y-146733820D01*
X148446537Y-146623506D01*
X148367185Y-146526815D01*
X148270494Y-146447463D01*
X148160180Y-146388498D01*
X148040482Y-146352188D01*
X147916000Y-146339928D01*
X146216000Y-146339928D01*
X146091518Y-146352188D01*
X145971820Y-146388498D01*
X145861506Y-146447463D01*
X145764815Y-146526815D01*
X145685463Y-146623506D01*
X145626498Y-146733820D01*
X145590188Y-146853518D01*
X145577928Y-146978000D01*
X138012512Y-146978000D01*
X139398393Y-145592120D01*
X139398397Y-145592115D01*
X140930513Y-144060000D01*
X162361928Y-144060000D01*
X162361928Y-144500000D01*
X162374188Y-144624482D01*
X162410498Y-144744180D01*
X162469463Y-144854494D01*
X162548815Y-144951185D01*
X162645506Y-145030537D01*
X162755820Y-145089502D01*
X162875518Y-145125812D01*
X163000000Y-145138072D01*
X166000000Y-145138072D01*
X166124482Y-145125812D01*
X166244180Y-145089502D01*
X166354494Y-145030537D01*
X166451185Y-144951185D01*
X166530537Y-144854494D01*
X166589502Y-144744180D01*
X166625812Y-144624482D01*
X166638072Y-144500000D01*
X166638072Y-142000000D01*
X166625812Y-141875518D01*
X166589502Y-141755820D01*
X166530537Y-141645506D01*
X166513708Y-141625000D01*
X166530537Y-141604494D01*
X166589502Y-141494180D01*
X166625812Y-141374482D01*
X166638072Y-141250000D01*
X166638072Y-138750000D01*
X166625812Y-138625518D01*
X166589502Y-138505820D01*
X166530537Y-138395506D01*
X166451185Y-138298815D01*
X166354494Y-138219463D01*
X166244180Y-138160498D01*
X166124482Y-138124188D01*
X166000000Y-138111928D01*
X163000000Y-138111928D01*
X162875518Y-138124188D01*
X162755820Y-138160498D01*
X162645506Y-138219463D01*
X162548815Y-138298815D01*
X162469463Y-138395506D01*
X162410498Y-138505820D01*
X162374188Y-138625518D01*
X162361928Y-138750000D01*
X162361928Y-139190000D01*
X161689788Y-139190000D01*
X161650000Y-139186081D01*
X161610212Y-139190000D01*
X161610209Y-139190000D01*
X161491212Y-139201720D01*
X161338527Y-139248037D01*
X161291364Y-139273246D01*
X161197810Y-139323251D01*
X161133796Y-139375786D01*
X161074472Y-139424472D01*
X161049105Y-139455382D01*
X159769488Y-140735000D01*
X139799788Y-140735000D01*
X139760000Y-140731081D01*
X139720212Y-140735000D01*
X139720209Y-140735000D01*
X139601212Y-140746720D01*
X139448527Y-140793037D01*
X139383024Y-140828049D01*
X139307810Y-140868251D01*
X139243796Y-140920786D01*
X139184472Y-140969472D01*
X139159107Y-141000380D01*
X133014488Y-147145000D01*
X130510513Y-147145000D01*
X130380977Y-147015465D01*
X130479850Y-146985472D01*
X130633386Y-146903405D01*
X130767962Y-146792962D01*
X130878405Y-146658386D01*
X130932777Y-146556663D01*
X130984866Y-146620134D01*
X131210987Y-146805706D01*
X131468967Y-146943599D01*
X131748890Y-147028513D01*
X132040000Y-147057185D01*
X132331111Y-147028513D01*
X132611034Y-146943599D01*
X132869014Y-146805706D01*
X133095134Y-146620134D01*
X133280706Y-146394014D01*
X133376116Y-146215513D01*
X133398788Y-146213280D01*
X133551473Y-146166963D01*
X133692189Y-146091749D01*
X133815528Y-145990528D01*
X133840900Y-145959612D01*
X141830513Y-137970000D01*
X160400212Y-137970000D01*
X160440000Y-137973919D01*
X160479788Y-137970000D01*
X160604791Y-137970000D01*
X160723788Y-137958280D01*
X160876473Y-137911963D01*
X161017189Y-137836749D01*
X161140528Y-137735528D01*
X161241749Y-137612189D01*
X161316963Y-137471473D01*
X161335654Y-137409858D01*
X164044618Y-134700895D01*
X164075528Y-134675528D01*
X164176749Y-134552189D01*
X164251963Y-134411474D01*
X164259062Y-134388072D01*
X166000000Y-134388072D01*
X166124482Y-134375812D01*
X166244180Y-134339502D01*
X166354494Y-134280537D01*
X166451185Y-134201185D01*
X166530537Y-134104494D01*
X166589502Y-133994180D01*
X166625812Y-133874482D01*
X166638072Y-133750000D01*
X166638072Y-131250000D01*
X166625812Y-131125518D01*
X166589502Y-131005820D01*
X166530537Y-130895506D01*
X166513708Y-130875000D01*
X166530537Y-130854494D01*
X166589502Y-130744180D01*
X166625812Y-130624482D01*
X166638072Y-130500000D01*
X166635000Y-129535750D01*
X166476250Y-129377000D01*
X164627000Y-129377000D01*
X164627000Y-129397000D01*
X164373000Y-129397000D01*
X164373000Y-129377000D01*
X162523750Y-129377000D01*
X162365000Y-129535750D01*
X162361928Y-130500000D01*
X162374188Y-130624482D01*
X162410498Y-130744180D01*
X162469463Y-130854494D01*
X162486292Y-130875000D01*
X162469463Y-130895506D01*
X162410498Y-131005820D01*
X162374188Y-131125518D01*
X162361928Y-131250000D01*
X162361928Y-133750000D01*
X162374188Y-133874482D01*
X162410498Y-133994180D01*
X162427848Y-134026639D01*
X160104488Y-136350000D01*
X141534788Y-136350000D01*
X141495000Y-136346081D01*
X141455212Y-136350000D01*
X141455209Y-136350000D01*
X141336212Y-136361720D01*
X141183527Y-136408037D01*
X141118024Y-136443049D01*
X141042810Y-136483251D01*
X140993986Y-136523320D01*
X140919472Y-136584472D01*
X140894107Y-136615380D01*
X133187308Y-144322180D01*
X133095134Y-144209866D01*
X132869013Y-144024294D01*
X132611033Y-143886401D01*
X132331110Y-143801487D01*
X132040000Y-143772815D01*
X131748889Y-143801487D01*
X131468966Y-143886401D01*
X131210986Y-144024294D01*
X130984866Y-144209866D01*
X130932777Y-144273337D01*
X130878405Y-144171614D01*
X130767962Y-144037038D01*
X130633386Y-143926595D01*
X130479850Y-143844528D01*
X130313254Y-143793992D01*
X130140000Y-143776928D01*
X128940000Y-143776928D01*
X128766746Y-143793992D01*
X128600150Y-143844528D01*
X128446614Y-143926595D01*
X128312038Y-144037038D01*
X128201595Y-144171614D01*
X128119528Y-144325150D01*
X128068992Y-144491746D01*
X128051928Y-144665000D01*
X128051928Y-146165000D01*
X128068992Y-146338254D01*
X128119528Y-146504850D01*
X128201595Y-146658386D01*
X128312038Y-146792962D01*
X128446614Y-146903405D01*
X128600150Y-146985472D01*
X128730000Y-147024861D01*
X128730000Y-147280211D01*
X128726081Y-147320000D01*
X128730000Y-147359788D01*
X128730000Y-147359790D01*
X128741720Y-147478787D01*
X128788037Y-147631472D01*
X128823049Y-147696975D01*
X128863251Y-147772189D01*
X128894703Y-147810513D01*
X128964472Y-147895528D01*
X128995387Y-147920899D01*
X129574105Y-148499618D01*
X129599472Y-148530528D01*
X129630380Y-148555893D01*
X129722811Y-148631749D01*
X129863526Y-148706963D01*
X129871412Y-148709355D01*
X130016212Y-148753280D01*
X130135209Y-148765000D01*
X130135212Y-148765000D01*
X130175000Y-148768919D01*
X130214788Y-148765000D01*
X133310212Y-148765000D01*
X133350000Y-148768919D01*
X133389788Y-148765000D01*
X133389791Y-148765000D01*
X133508788Y-148753280D01*
X133661473Y-148706963D01*
X133802189Y-148631749D01*
X133925528Y-148530528D01*
X133950900Y-148499612D01*
X140095513Y-142355000D01*
X160065212Y-142355000D01*
X160105000Y-142358919D01*
X160144788Y-142355000D01*
X160144791Y-142355000D01*
X160263788Y-142343280D01*
X160416473Y-142296963D01*
X160557189Y-142221749D01*
X160680528Y-142120528D01*
X160705899Y-142089613D01*
X161985513Y-140810000D01*
X162361928Y-140810000D01*
X162361928Y-141250000D01*
X162374188Y-141374482D01*
X162410498Y-141494180D01*
X162469463Y-141604494D01*
X162486292Y-141625000D01*
X162469463Y-141645506D01*
X162410498Y-141755820D01*
X162374188Y-141875518D01*
X162361928Y-142000000D01*
X162361928Y-142440000D01*
X140634788Y-142440000D01*
X140595000Y-142436081D01*
X140555212Y-142440000D01*
X140555209Y-142440000D01*
X140436212Y-142451720D01*
X140283527Y-142498037D01*
X140218024Y-142533049D01*
X140142810Y-142573251D01*
X140078796Y-142625786D01*
X140019472Y-142674472D01*
X139994105Y-142705382D01*
X138505381Y-144194107D01*
X138252886Y-144446602D01*
X138252880Y-144446607D01*
X133649488Y-149050000D01*
X126700513Y-149050000D01*
X122647900Y-144997388D01*
X122622528Y-144966472D01*
X122499189Y-144865251D01*
X122358473Y-144790037D01*
X122205788Y-144743720D01*
X122086791Y-144732000D01*
X122086788Y-144732000D01*
X122047000Y-144728081D01*
X122007212Y-144732000D01*
X117704072Y-144732000D01*
X117704072Y-143792000D01*
X117691812Y-143667518D01*
X117655502Y-143547820D01*
X117596537Y-143437506D01*
X117517185Y-143340815D01*
X117420494Y-143261463D01*
X117310180Y-143202498D01*
X117190482Y-143166188D01*
X117066000Y-143153928D01*
X113566000Y-143153928D01*
X113441518Y-143166188D01*
X113321820Y-143202498D01*
X113211506Y-143261463D01*
X113114815Y-143340815D01*
X113035463Y-143437506D01*
X112976498Y-143547820D01*
X112940188Y-143667518D01*
X112927928Y-143792000D01*
X110685000Y-143792000D01*
X110685000Y-137653665D01*
X124295000Y-137653665D01*
X124295000Y-137936335D01*
X124350147Y-138213574D01*
X124458320Y-138474727D01*
X124615363Y-138709759D01*
X124815241Y-138909637D01*
X125050273Y-139066680D01*
X125311426Y-139174853D01*
X125588665Y-139230000D01*
X125871335Y-139230000D01*
X126148574Y-139174853D01*
X126409727Y-139066680D01*
X126644759Y-138909637D01*
X126844637Y-138709759D01*
X127001680Y-138474727D01*
X127086049Y-138271040D01*
X129164091Y-138271040D01*
X129258930Y-138535881D01*
X129403615Y-138777131D01*
X129592586Y-138985519D01*
X129818580Y-139153037D01*
X130072913Y-139273246D01*
X130206961Y-139313904D01*
X130429000Y-139191915D01*
X130429000Y-138049000D01*
X130683000Y-138049000D01*
X130683000Y-139191915D01*
X130905039Y-139313904D01*
X131039087Y-139273246D01*
X131293420Y-139153037D01*
X131519414Y-138985519D01*
X131708385Y-138777131D01*
X131853070Y-138535881D01*
X131947909Y-138271040D01*
X131826624Y-138049000D01*
X130683000Y-138049000D01*
X130429000Y-138049000D01*
X129285376Y-138049000D01*
X129164091Y-138271040D01*
X127086049Y-138271040D01*
X127109853Y-138213574D01*
X127165000Y-137936335D01*
X127165000Y-137653665D01*
X127148947Y-137572960D01*
X129164091Y-137572960D01*
X129285376Y-137795000D01*
X130429000Y-137795000D01*
X130429000Y-136652085D01*
X130683000Y-136652085D01*
X130683000Y-137795000D01*
X131826624Y-137795000D01*
X131947909Y-137572960D01*
X131853070Y-137308119D01*
X131708385Y-137066869D01*
X131519414Y-136858481D01*
X131293420Y-136690963D01*
X131039087Y-136570754D01*
X130905039Y-136530096D01*
X130683000Y-136652085D01*
X130429000Y-136652085D01*
X130206961Y-136530096D01*
X130072913Y-136570754D01*
X129818580Y-136690963D01*
X129592586Y-136858481D01*
X129403615Y-137066869D01*
X129258930Y-137308119D01*
X129164091Y-137572960D01*
X127148947Y-137572960D01*
X127109853Y-137376426D01*
X127001680Y-137115273D01*
X126844637Y-136880241D01*
X126644759Y-136680363D01*
X126409727Y-136523320D01*
X126148574Y-136415147D01*
X125871335Y-136360000D01*
X125588665Y-136360000D01*
X125311426Y-136415147D01*
X125050273Y-136523320D01*
X124815241Y-136680363D01*
X124615363Y-136880241D01*
X124458320Y-137115273D01*
X124350147Y-137376426D01*
X124295000Y-137653665D01*
X110685000Y-137653665D01*
X110685000Y-123317000D01*
X118110000Y-123317000D01*
X118134776Y-123314560D01*
X118158601Y-123307333D01*
X118180557Y-123295597D01*
X118199803Y-123279803D01*
X118215597Y-123260557D01*
X118227333Y-123238601D01*
X118234560Y-123214776D01*
X118237000Y-123190000D01*
X118237000Y-122905195D01*
X118255518Y-122910812D01*
X118380000Y-122923072D01*
X120380000Y-122923072D01*
X120504482Y-122910812D01*
X120624180Y-122874502D01*
X120734494Y-122815537D01*
X120831185Y-122736185D01*
X120910537Y-122639494D01*
X120957559Y-122551523D01*
X121118900Y-122683932D01*
X121368193Y-122817182D01*
X121638692Y-122899236D01*
X121920000Y-122926943D01*
X122201309Y-122899236D01*
X122471808Y-122817182D01*
X122574991Y-122762030D01*
X122574990Y-129647668D01*
X122571314Y-129684990D01*
X122574990Y-129722312D01*
X122574990Y-129722322D01*
X122585987Y-129833975D01*
X122600101Y-129880502D01*
X122629444Y-129977236D01*
X122700016Y-130109266D01*
X122735920Y-130153015D01*
X122794989Y-130224991D01*
X122823993Y-130248794D01*
X123387199Y-130812000D01*
X117577774Y-130812000D01*
X117530113Y-130654884D01*
X117308649Y-130240554D01*
X117010609Y-129877391D01*
X116647446Y-129579351D01*
X116233116Y-129357887D01*
X115783542Y-129221510D01*
X115433157Y-129187000D01*
X115198843Y-129187000D01*
X114848458Y-129221510D01*
X114398884Y-129357887D01*
X113984554Y-129579351D01*
X113621391Y-129877391D01*
X113323351Y-130240554D01*
X113101887Y-130654884D01*
X112965510Y-131104458D01*
X112919461Y-131572000D01*
X112965510Y-132039542D01*
X113101887Y-132489116D01*
X113323351Y-132903446D01*
X113621391Y-133266609D01*
X113984554Y-133564649D01*
X114398884Y-133786113D01*
X114848458Y-133922490D01*
X115198843Y-133957000D01*
X115433157Y-133957000D01*
X115783542Y-133922490D01*
X116233116Y-133786113D01*
X116647446Y-133564649D01*
X117010609Y-133266609D01*
X117308649Y-132903446D01*
X117530113Y-132489116D01*
X117577774Y-132332000D01*
X150500678Y-132332000D01*
X150538000Y-132335676D01*
X150575322Y-132332000D01*
X150575333Y-132332000D01*
X150686986Y-132321003D01*
X150830247Y-132277546D01*
X150962276Y-132206974D01*
X151078001Y-132112001D01*
X151101804Y-132082997D01*
X155184801Y-128000000D01*
X162361928Y-128000000D01*
X162365000Y-128964250D01*
X162523750Y-129123000D01*
X164373000Y-129123000D01*
X164373000Y-127523750D01*
X164627000Y-127523750D01*
X164627000Y-129123000D01*
X166476250Y-129123000D01*
X166635000Y-128964250D01*
X166638072Y-128000000D01*
X166625812Y-127875518D01*
X166589502Y-127755820D01*
X166530537Y-127645506D01*
X166451185Y-127548815D01*
X166354494Y-127469463D01*
X166244180Y-127410498D01*
X166124482Y-127374188D01*
X166000000Y-127361928D01*
X164785750Y-127365000D01*
X164627000Y-127523750D01*
X164373000Y-127523750D01*
X164214250Y-127365000D01*
X163000000Y-127361928D01*
X162875518Y-127374188D01*
X162755820Y-127410498D01*
X162645506Y-127469463D01*
X162548815Y-127548815D01*
X162469463Y-127645506D01*
X162410498Y-127755820D01*
X162374188Y-127875518D01*
X162361928Y-128000000D01*
X155184801Y-128000000D01*
X160636730Y-122548072D01*
X163700000Y-122548072D01*
X163824482Y-122535812D01*
X163944180Y-122499502D01*
X164054494Y-122440537D01*
X164151185Y-122361185D01*
X164230537Y-122264494D01*
X164289502Y-122154180D01*
X164325812Y-122034482D01*
X164338072Y-121910000D01*
X164338072Y-116910000D01*
X164325812Y-116785518D01*
X164289502Y-116665820D01*
X164230537Y-116555506D01*
X164151185Y-116458815D01*
X164054494Y-116379463D01*
X163944180Y-116320498D01*
X163824482Y-116284188D01*
X163700000Y-116271928D01*
X160200000Y-116271928D01*
X160075518Y-116284188D01*
X159955820Y-116320498D01*
X159845506Y-116379463D01*
X159748815Y-116458815D01*
X159669463Y-116555506D01*
X159610498Y-116665820D01*
X159574188Y-116785518D01*
X159561928Y-116910000D01*
X159561928Y-121473270D01*
X150223199Y-130812000D01*
X137724801Y-130812000D01*
X138620345Y-129916456D01*
X138621518Y-129916812D01*
X138746000Y-129929072D01*
X140306000Y-129929072D01*
X140430482Y-129916812D01*
X140550180Y-129880502D01*
X140660494Y-129821537D01*
X140757185Y-129742185D01*
X140836537Y-129645494D01*
X140895502Y-129535180D01*
X140931812Y-129415482D01*
X140944072Y-129291000D01*
X140944072Y-128826000D01*
X141589300Y-128826000D01*
X141749744Y-128933205D01*
X141938102Y-129011226D01*
X142138061Y-129051000D01*
X142341939Y-129051000D01*
X142541898Y-129011226D01*
X142730256Y-128933205D01*
X142899774Y-128819937D01*
X143043937Y-128675774D01*
X143157205Y-128506256D01*
X143235226Y-128317898D01*
X143275000Y-128117939D01*
X143275000Y-127914061D01*
X143235226Y-127714102D01*
X143157205Y-127525744D01*
X143043937Y-127356226D01*
X142899774Y-127212063D01*
X142730256Y-127098795D01*
X142541898Y-127020774D01*
X142341939Y-126981000D01*
X142138061Y-126981000D01*
X141938102Y-127020774D01*
X141749744Y-127098795D01*
X141589300Y-127206000D01*
X140795250Y-127206000D01*
X140782250Y-127193000D01*
X140700141Y-127193000D01*
X140660494Y-127160463D01*
X140550180Y-127101498D01*
X140430482Y-127065188D01*
X140306000Y-127052928D01*
X139379000Y-127052928D01*
X139379000Y-126939000D01*
X139399000Y-126939000D01*
X139399000Y-126264750D01*
X139653000Y-126264750D01*
X139653000Y-126939000D01*
X140782250Y-126939000D01*
X140941000Y-126780250D01*
X140944072Y-126741000D01*
X140931812Y-126616518D01*
X140895502Y-126496820D01*
X140836537Y-126386506D01*
X140757185Y-126289815D01*
X140660494Y-126210463D01*
X140550180Y-126151498D01*
X140430482Y-126115188D01*
X140306000Y-126102928D01*
X139811750Y-126106000D01*
X139653000Y-126264750D01*
X139399000Y-126264750D01*
X139240250Y-126106000D01*
X138746000Y-126102928D01*
X138621518Y-126115188D01*
X138501820Y-126151498D01*
X138391506Y-126210463D01*
X138294815Y-126289815D01*
X138215463Y-126386506D01*
X138176000Y-126460335D01*
X138136537Y-126386506D01*
X138057185Y-126289815D01*
X137960494Y-126210463D01*
X137850180Y-126151498D01*
X137730482Y-126115188D01*
X137606000Y-126102928D01*
X136046000Y-126102928D01*
X135921518Y-126115188D01*
X135801820Y-126151498D01*
X135707337Y-126202001D01*
X131393321Y-126202001D01*
X131355998Y-126198325D01*
X131318675Y-126202001D01*
X131318666Y-126202001D01*
X131207013Y-126212998D01*
X131063752Y-126256455D01*
X130931723Y-126327027D01*
X130931721Y-126327028D01*
X130931722Y-126327028D01*
X130886022Y-126364533D01*
X130697335Y-126327000D01*
X130414665Y-126327000D01*
X130137426Y-126382147D01*
X129876273Y-126490320D01*
X129641241Y-126647363D01*
X129441363Y-126847241D01*
X129422815Y-126875000D01*
X126950901Y-126875000D01*
X126928932Y-126833899D01*
X126749608Y-126615392D01*
X126531101Y-126436068D01*
X126281808Y-126302818D01*
X126011309Y-126220764D01*
X125800492Y-126200000D01*
X125659508Y-126200000D01*
X125448691Y-126220764D01*
X125178192Y-126302818D01*
X124928899Y-126436068D01*
X124710392Y-126615392D01*
X124531068Y-126833899D01*
X124397818Y-127083192D01*
X124315764Y-127353691D01*
X124288057Y-127635000D01*
X124315764Y-127916309D01*
X124397818Y-128186808D01*
X124531068Y-128436101D01*
X124710392Y-128654608D01*
X124928899Y-128833932D01*
X125178192Y-128967182D01*
X125448691Y-129049236D01*
X125659508Y-129070000D01*
X125800492Y-129070000D01*
X126011309Y-129049236D01*
X126281808Y-128967182D01*
X126531101Y-128833932D01*
X126749608Y-128654608D01*
X126928932Y-128436101D01*
X126950901Y-128395000D01*
X129264965Y-128395000D01*
X129284320Y-128441727D01*
X129441363Y-128676759D01*
X129641241Y-128876637D01*
X129876273Y-129033680D01*
X130137426Y-129141853D01*
X130414665Y-129197000D01*
X130697335Y-129197000D01*
X130974574Y-129141853D01*
X131235727Y-129033680D01*
X131470759Y-128876637D01*
X131670637Y-128676759D01*
X131827680Y-128441727D01*
X131935853Y-128180574D01*
X131991000Y-127903335D01*
X131991000Y-127722001D01*
X135410354Y-127722001D01*
X135411000Y-127730250D01*
X135569750Y-127889000D01*
X135651859Y-127889000D01*
X135691506Y-127921537D01*
X135801820Y-127980502D01*
X135918841Y-128016000D01*
X135801820Y-128051498D01*
X135691506Y-128110463D01*
X135651859Y-128143000D01*
X135569750Y-128143000D01*
X135411000Y-128301750D01*
X135407928Y-128341000D01*
X135420188Y-128465482D01*
X135427929Y-128491000D01*
X135420188Y-128516518D01*
X135407928Y-128641000D01*
X135407928Y-129267000D01*
X135280061Y-129267000D01*
X135080102Y-129306774D01*
X134891744Y-129384795D01*
X134722226Y-129498063D01*
X134578063Y-129642226D01*
X134464795Y-129811744D01*
X134386774Y-130000102D01*
X134347000Y-130200061D01*
X134347000Y-130304000D01*
X125028802Y-130304000D01*
X124094990Y-129370189D01*
X124094990Y-122873846D01*
X124178692Y-122899236D01*
X124460000Y-122926943D01*
X124741309Y-122899236D01*
X125011808Y-122817182D01*
X125261101Y-122683932D01*
X125479608Y-122504608D01*
X125658932Y-122286101D01*
X125730000Y-122153142D01*
X125801068Y-122286101D01*
X125980393Y-122504608D01*
X126198900Y-122683932D01*
X126448193Y-122817182D01*
X126718692Y-122899236D01*
X127000000Y-122926943D01*
X127281309Y-122899236D01*
X127551808Y-122817182D01*
X127801101Y-122683932D01*
X128019608Y-122504608D01*
X128198932Y-122286101D01*
X128270000Y-122153142D01*
X128341068Y-122286101D01*
X128520393Y-122504608D01*
X128738900Y-122683932D01*
X128988193Y-122817182D01*
X129258692Y-122899236D01*
X129540000Y-122926943D01*
X129821309Y-122899236D01*
X130091808Y-122817182D01*
X130341101Y-122683932D01*
X130559608Y-122504608D01*
X130738932Y-122286101D01*
X130810000Y-122153142D01*
X130881068Y-122286101D01*
X131060393Y-122504608D01*
X131278900Y-122683932D01*
X131528193Y-122817182D01*
X131798692Y-122899236D01*
X132080000Y-122926943D01*
X132361309Y-122899236D01*
X132631808Y-122817182D01*
X132881101Y-122683932D01*
X133099608Y-122504608D01*
X133278932Y-122286101D01*
X133350000Y-122153142D01*
X133421068Y-122286101D01*
X133600393Y-122504608D01*
X133818900Y-122683932D01*
X134068193Y-122817182D01*
X134338692Y-122899236D01*
X134620000Y-122926943D01*
X134901309Y-122899236D01*
X135171808Y-122817182D01*
X135421101Y-122683932D01*
X135639608Y-122504608D01*
X135818932Y-122286101D01*
X135890000Y-122153142D01*
X135961068Y-122286101D01*
X136140393Y-122504608D01*
X136358900Y-122683932D01*
X136608193Y-122817182D01*
X136878692Y-122899236D01*
X137160000Y-122926943D01*
X137441309Y-122899236D01*
X137711808Y-122817182D01*
X137961101Y-122683932D01*
X138179608Y-122504608D01*
X138358932Y-122286101D01*
X138492182Y-122036807D01*
X138530648Y-121910000D01*
X153111928Y-121910000D01*
X153124188Y-122034482D01*
X153160498Y-122154180D01*
X153219463Y-122264494D01*
X153298815Y-122361185D01*
X153395506Y-122440537D01*
X153505820Y-122499502D01*
X153625518Y-122535812D01*
X153750000Y-122548072D01*
X155214250Y-122545000D01*
X155373000Y-122386250D01*
X155373000Y-119537000D01*
X155627000Y-119537000D01*
X155627000Y-122386250D01*
X155785750Y-122545000D01*
X157250000Y-122548072D01*
X157374482Y-122535812D01*
X157494180Y-122499502D01*
X157604494Y-122440537D01*
X157701185Y-122361185D01*
X157780537Y-122264494D01*
X157839502Y-122154180D01*
X157875812Y-122034482D01*
X157888072Y-121910000D01*
X157885000Y-119695750D01*
X157726250Y-119537000D01*
X155627000Y-119537000D01*
X155373000Y-119537000D01*
X153273750Y-119537000D01*
X153115000Y-119695750D01*
X153111928Y-121910000D01*
X138530648Y-121910000D01*
X138574236Y-121766308D01*
X138595000Y-121555491D01*
X138595000Y-121014508D01*
X138574236Y-120803691D01*
X138492182Y-120533192D01*
X138358932Y-120283899D01*
X138179607Y-120065392D01*
X137961100Y-119886068D01*
X137711807Y-119752818D01*
X137441308Y-119670764D01*
X137160000Y-119643057D01*
X136878691Y-119670764D01*
X136608192Y-119752818D01*
X136358899Y-119886068D01*
X136140392Y-120065393D01*
X135961068Y-120283900D01*
X135890000Y-120416858D01*
X135818932Y-120283899D01*
X135639607Y-120065392D01*
X135421100Y-119886068D01*
X135171807Y-119752818D01*
X134901308Y-119670764D01*
X134620000Y-119643057D01*
X134338691Y-119670764D01*
X134068192Y-119752818D01*
X133818899Y-119886068D01*
X133600392Y-120065393D01*
X133421068Y-120283900D01*
X133350000Y-120416858D01*
X133278932Y-120283899D01*
X133099607Y-120065392D01*
X132881100Y-119886068D01*
X132631807Y-119752818D01*
X132361308Y-119670764D01*
X132080000Y-119643057D01*
X131798691Y-119670764D01*
X131528192Y-119752818D01*
X131278899Y-119886068D01*
X131060392Y-120065393D01*
X130881068Y-120283900D01*
X130810000Y-120416858D01*
X130738932Y-120283899D01*
X130559607Y-120065392D01*
X130341100Y-119886068D01*
X130091807Y-119752818D01*
X129821308Y-119670764D01*
X129540000Y-119643057D01*
X129258691Y-119670764D01*
X128988192Y-119752818D01*
X128738899Y-119886068D01*
X128520392Y-120065393D01*
X128341068Y-120283900D01*
X128270000Y-120416858D01*
X128198932Y-120283899D01*
X128019607Y-120065392D01*
X127801100Y-119886068D01*
X127551807Y-119752818D01*
X127281308Y-119670764D01*
X127000000Y-119643057D01*
X126718691Y-119670764D01*
X126448192Y-119752818D01*
X126198899Y-119886068D01*
X125980392Y-120065393D01*
X125801068Y-120283900D01*
X125730000Y-120416858D01*
X125658932Y-120283899D01*
X125479607Y-120065392D01*
X125261100Y-119886068D01*
X125183961Y-119844836D01*
X127511004Y-117517794D01*
X127540001Y-117493997D01*
X127634974Y-117378272D01*
X127705546Y-117246243D01*
X127749003Y-117102982D01*
X127760000Y-116991329D01*
X127760000Y-116991319D01*
X127763676Y-116953996D01*
X127760000Y-116916673D01*
X127760000Y-116910000D01*
X153111928Y-116910000D01*
X153115000Y-119124250D01*
X153273750Y-119283000D01*
X155373000Y-119283000D01*
X155373000Y-116433750D01*
X155627000Y-116433750D01*
X155627000Y-119283000D01*
X157726250Y-119283000D01*
X157885000Y-119124250D01*
X157888072Y-116910000D01*
X157875812Y-116785518D01*
X157839502Y-116665820D01*
X157780537Y-116555506D01*
X157701185Y-116458815D01*
X157604494Y-116379463D01*
X157494180Y-116320498D01*
X157374482Y-116284188D01*
X157250000Y-116271928D01*
X155785750Y-116275000D01*
X155627000Y-116433750D01*
X155373000Y-116433750D01*
X155214250Y-116275000D01*
X153750000Y-116271928D01*
X153625518Y-116284188D01*
X153505820Y-116320498D01*
X153395506Y-116379463D01*
X153298815Y-116458815D01*
X153219463Y-116555506D01*
X153160498Y-116665820D01*
X153124188Y-116785518D01*
X153111928Y-116910000D01*
X127760000Y-116910000D01*
X127760000Y-99845901D01*
X127801101Y-99823932D01*
X128019608Y-99644608D01*
X128198932Y-99426101D01*
X128270000Y-99293142D01*
X128341068Y-99426101D01*
X128520393Y-99644608D01*
X128738900Y-99823932D01*
X128988193Y-99957182D01*
X129258692Y-100039236D01*
X129540000Y-100066943D01*
X129821309Y-100039236D01*
X130091808Y-99957182D01*
X130341101Y-99823932D01*
X130559608Y-99644608D01*
X130738932Y-99426101D01*
X130810000Y-99293142D01*
X130881068Y-99426101D01*
X131060393Y-99644608D01*
X131278900Y-99823932D01*
X131528193Y-99957182D01*
X131798692Y-100039236D01*
X132080000Y-100066943D01*
X132361309Y-100039236D01*
X132631808Y-99957182D01*
X132881101Y-99823932D01*
X133099608Y-99644608D01*
X133278932Y-99426101D01*
X133348122Y-99296655D01*
X133355570Y-99314227D01*
X133514327Y-99547662D01*
X133715575Y-99745639D01*
X133951579Y-99900551D01*
X134213270Y-100006444D01*
X134270961Y-100016904D01*
X134493000Y-99894915D01*
X134493000Y-98552000D01*
X134473000Y-98552000D01*
X134473000Y-98298000D01*
X134493000Y-98298000D01*
X134493000Y-96955085D01*
X134270961Y-96833096D01*
X134213270Y-96843556D01*
X133951579Y-96949449D01*
X133715575Y-97104361D01*
X133514327Y-97302338D01*
X133355570Y-97535773D01*
X133348122Y-97553345D01*
X133278932Y-97423899D01*
X133099607Y-97205392D01*
X132881100Y-97026068D01*
X132631807Y-96892818D01*
X132361308Y-96810764D01*
X132080000Y-96783057D01*
X131798691Y-96810764D01*
X131528192Y-96892818D01*
X131278899Y-97026068D01*
X131060392Y-97205393D01*
X130881068Y-97423900D01*
X130810000Y-97556858D01*
X130738932Y-97423899D01*
X130559607Y-97205392D01*
X130341100Y-97026068D01*
X130091807Y-96892818D01*
X129821308Y-96810764D01*
X129540000Y-96783057D01*
X129258691Y-96810764D01*
X128988192Y-96892818D01*
X128738899Y-97026068D01*
X128520392Y-97205393D01*
X128341068Y-97423900D01*
X128270000Y-97556858D01*
X128198932Y-97423899D01*
X128030787Y-97219015D01*
X128604803Y-96645000D01*
X142202678Y-96645000D01*
X142240000Y-96648676D01*
X142277322Y-96645000D01*
X142277333Y-96645000D01*
X142388986Y-96634003D01*
X142532247Y-96590546D01*
X142664276Y-96519974D01*
X142780001Y-96425001D01*
X142803804Y-96395997D01*
X148289801Y-90910000D01*
X153111928Y-90910000D01*
X153124188Y-91034482D01*
X153160498Y-91154180D01*
X153219463Y-91264494D01*
X153298815Y-91361185D01*
X153395506Y-91440537D01*
X153505820Y-91499502D01*
X153625518Y-91535812D01*
X153750000Y-91548072D01*
X155214250Y-91545000D01*
X155373000Y-91386250D01*
X155373000Y-88537000D01*
X155627000Y-88537000D01*
X155627000Y-91386250D01*
X155785750Y-91545000D01*
X157250000Y-91548072D01*
X157374482Y-91535812D01*
X157494180Y-91499502D01*
X157604494Y-91440537D01*
X157701185Y-91361185D01*
X157780537Y-91264494D01*
X157839502Y-91154180D01*
X157875812Y-91034482D01*
X157888072Y-90910000D01*
X157885000Y-88695750D01*
X157726250Y-88537000D01*
X155627000Y-88537000D01*
X155373000Y-88537000D01*
X153273750Y-88537000D01*
X153115000Y-88695750D01*
X153111928Y-90910000D01*
X148289801Y-90910000D01*
X153112174Y-86087627D01*
X153115000Y-88124250D01*
X153273750Y-88283000D01*
X155373000Y-88283000D01*
X155373000Y-85433750D01*
X155627000Y-85433750D01*
X155627000Y-88283000D01*
X157726250Y-88283000D01*
X157885000Y-88124250D01*
X157888072Y-85910000D01*
X157875812Y-85785518D01*
X157839502Y-85665820D01*
X157780537Y-85555506D01*
X157701185Y-85458815D01*
X157604494Y-85379463D01*
X157494180Y-85320498D01*
X157374482Y-85284188D01*
X157250000Y-85271928D01*
X155785750Y-85275000D01*
X155627000Y-85433750D01*
X155373000Y-85433750D01*
X155214250Y-85275000D01*
X153927501Y-85272300D01*
X158244811Y-80954991D01*
X178872271Y-80954991D01*
X181259774Y-83342494D01*
X181189866Y-83399866D01*
X181004294Y-83625986D01*
X180975000Y-83680791D01*
X180945706Y-83625986D01*
X180760134Y-83399866D01*
X180534014Y-83214294D01*
X180516933Y-83205164D01*
X180518919Y-83184999D01*
X180513379Y-83128750D01*
X180503280Y-83026212D01*
X180456963Y-82873527D01*
X180381750Y-82732812D01*
X180381749Y-82732810D01*
X180327709Y-82666963D01*
X180280528Y-82609472D01*
X180249619Y-82584106D01*
X179035899Y-81370387D01*
X179010528Y-81339472D01*
X178887189Y-81238251D01*
X178746473Y-81163037D01*
X178593788Y-81116720D01*
X178474791Y-81105000D01*
X178474788Y-81105000D01*
X178435000Y-81101081D01*
X178395212Y-81105000D01*
X170634787Y-81105000D01*
X170594999Y-81101081D01*
X170555211Y-81105000D01*
X170555209Y-81105000D01*
X170436212Y-81116720D01*
X170283527Y-81163037D01*
X170218024Y-81198049D01*
X170142810Y-81238251D01*
X170091939Y-81280000D01*
X170019472Y-81339472D01*
X169994105Y-81370382D01*
X164388072Y-86976416D01*
X164388072Y-85910000D01*
X164375812Y-85785518D01*
X164339502Y-85665820D01*
X164280537Y-85555506D01*
X164201185Y-85458815D01*
X164104494Y-85379463D01*
X163994180Y-85320498D01*
X163874482Y-85284188D01*
X163750000Y-85271928D01*
X160250000Y-85271928D01*
X160125518Y-85284188D01*
X160005820Y-85320498D01*
X159895506Y-85379463D01*
X159798815Y-85458815D01*
X159719463Y-85555506D01*
X159660498Y-85665820D01*
X159624188Y-85785518D01*
X159611928Y-85910000D01*
X159611928Y-90402560D01*
X158114488Y-91900000D01*
X152439791Y-91900000D01*
X152400000Y-91896081D01*
X152241212Y-91911720D01*
X152088526Y-91958037D01*
X151965145Y-92023986D01*
X151947811Y-92033251D01*
X151824472Y-92134472D01*
X151799107Y-92165380D01*
X146349488Y-97615000D01*
X138461078Y-97615000D01*
X138358932Y-97423899D01*
X138179607Y-97205392D01*
X137961100Y-97026068D01*
X137711807Y-96892818D01*
X137441308Y-96810764D01*
X137160000Y-96783057D01*
X136878691Y-96810764D01*
X136608192Y-96892818D01*
X136358899Y-97026068D01*
X136140392Y-97205393D01*
X135961068Y-97423900D01*
X135891878Y-97553345D01*
X135884430Y-97535773D01*
X135725673Y-97302338D01*
X135524425Y-97104361D01*
X135288421Y-96949449D01*
X135026730Y-96843556D01*
X134969039Y-96833096D01*
X134747000Y-96955085D01*
X134747000Y-98298000D01*
X134767000Y-98298000D01*
X134767000Y-98552000D01*
X134747000Y-98552000D01*
X134747000Y-99894915D01*
X134969039Y-100016904D01*
X135026730Y-100006444D01*
X135288421Y-99900551D01*
X135524425Y-99745639D01*
X135725673Y-99547662D01*
X135884430Y-99314227D01*
X135891878Y-99296655D01*
X135961068Y-99426101D01*
X136140393Y-99644608D01*
X136358900Y-99823932D01*
X136608193Y-99957182D01*
X136878692Y-100039236D01*
X137160000Y-100066943D01*
X137441309Y-100039236D01*
X137711808Y-99957182D01*
X137961101Y-99823932D01*
X138179608Y-99644608D01*
X138358932Y-99426101D01*
X138461077Y-99235000D01*
X146645212Y-99235000D01*
X146685000Y-99238919D01*
X146724788Y-99235000D01*
X146724791Y-99235000D01*
X146843788Y-99223280D01*
X146996473Y-99176963D01*
X147137189Y-99101749D01*
X147260528Y-99000528D01*
X147285900Y-98969612D01*
X148761470Y-97494042D01*
X152065000Y-97494042D01*
X152065000Y-97825958D01*
X152129754Y-98151496D01*
X152256772Y-98458147D01*
X152441175Y-98734125D01*
X152675875Y-98968825D01*
X152951853Y-99153228D01*
X153258504Y-99280246D01*
X153584042Y-99345000D01*
X153915958Y-99345000D01*
X154241496Y-99280246D01*
X154548147Y-99153228D01*
X154824125Y-98968825D01*
X154909157Y-98883793D01*
X154756772Y-99111853D01*
X154629754Y-99418504D01*
X154565000Y-99744042D01*
X154565000Y-100075958D01*
X154629754Y-100401496D01*
X154756772Y-100708147D01*
X154941175Y-100984125D01*
X155175875Y-101218825D01*
X155451853Y-101403228D01*
X155758504Y-101530246D01*
X156084042Y-101595000D01*
X156415958Y-101595000D01*
X156741496Y-101530246D01*
X157048147Y-101403228D01*
X157324125Y-101218825D01*
X157558825Y-100984125D01*
X157743228Y-100708147D01*
X157870246Y-100401496D01*
X157935000Y-100075958D01*
X157935000Y-99744042D01*
X157870246Y-99418504D01*
X157743228Y-99111853D01*
X157558825Y-98835875D01*
X157324125Y-98601175D01*
X157048147Y-98416772D01*
X156741496Y-98289754D01*
X156415958Y-98225000D01*
X156084042Y-98225000D01*
X155758504Y-98289754D01*
X155451853Y-98416772D01*
X155175875Y-98601175D01*
X155090843Y-98686207D01*
X155243228Y-98458147D01*
X155370246Y-98151496D01*
X155435000Y-97825958D01*
X155435000Y-97494042D01*
X155370246Y-97168504D01*
X155243228Y-96861853D01*
X155058825Y-96585875D01*
X154824125Y-96351175D01*
X154548147Y-96166772D01*
X154241496Y-96039754D01*
X153915958Y-95975000D01*
X153584042Y-95975000D01*
X153258504Y-96039754D01*
X152951853Y-96166772D01*
X152675875Y-96351175D01*
X152441175Y-96585875D01*
X152256772Y-96861853D01*
X152129754Y-97168504D01*
X152065000Y-97494042D01*
X148761470Y-97494042D01*
X152735513Y-93520000D01*
X155297362Y-93520000D01*
X155175875Y-93601175D01*
X154941175Y-93835875D01*
X154756772Y-94111853D01*
X154629754Y-94418504D01*
X154565000Y-94744042D01*
X154565000Y-95075958D01*
X154629754Y-95401496D01*
X154756772Y-95708147D01*
X154941175Y-95984125D01*
X155175875Y-96218825D01*
X155451853Y-96403228D01*
X155758504Y-96530246D01*
X156084042Y-96595000D01*
X156415958Y-96595000D01*
X156741496Y-96530246D01*
X157048147Y-96403228D01*
X157324125Y-96218825D01*
X157558825Y-95984125D01*
X157743228Y-95708147D01*
X157870246Y-95401496D01*
X157935000Y-95075958D01*
X157935000Y-94744042D01*
X157870246Y-94418504D01*
X157743228Y-94111853D01*
X157558825Y-93835875D01*
X157324125Y-93601175D01*
X157202638Y-93520000D01*
X158410212Y-93520000D01*
X158450000Y-93523919D01*
X158489788Y-93520000D01*
X158489791Y-93520000D01*
X158608788Y-93508280D01*
X158761473Y-93461963D01*
X158902189Y-93386749D01*
X159025528Y-93285528D01*
X159050900Y-93254612D01*
X160757440Y-91548072D01*
X163750000Y-91548072D01*
X163874482Y-91535812D01*
X163994180Y-91499502D01*
X164104494Y-91440537D01*
X164201185Y-91361185D01*
X164280537Y-91264494D01*
X164339502Y-91154180D01*
X164375812Y-91034482D01*
X164388072Y-90910000D01*
X164388072Y-89169062D01*
X164411473Y-89161963D01*
X164552189Y-89086749D01*
X164675528Y-88985528D01*
X164700900Y-88954612D01*
X166025512Y-87630000D01*
X171862815Y-87630000D01*
X171891487Y-87921111D01*
X171976401Y-88201034D01*
X172114294Y-88459014D01*
X172299866Y-88685134D01*
X172525986Y-88870706D01*
X172580791Y-88900000D01*
X172525986Y-88929294D01*
X172299866Y-89114866D01*
X172114294Y-89340986D01*
X171976401Y-89598966D01*
X171891487Y-89878889D01*
X171862815Y-90170000D01*
X171891487Y-90461111D01*
X171976401Y-90741034D01*
X172114294Y-90999014D01*
X172299866Y-91225134D01*
X172525986Y-91410706D01*
X172580791Y-91440000D01*
X172525986Y-91469294D01*
X172299866Y-91654866D01*
X172114294Y-91880986D01*
X171976401Y-92138966D01*
X171891487Y-92418889D01*
X171862815Y-92710000D01*
X171891487Y-93001111D01*
X171976401Y-93281034D01*
X172114294Y-93539014D01*
X172299866Y-93765134D01*
X172525986Y-93950706D01*
X172580791Y-93980000D01*
X172525986Y-94009294D01*
X172299866Y-94194866D01*
X172114294Y-94420986D01*
X171976401Y-94678966D01*
X171891487Y-94958889D01*
X171862815Y-95250000D01*
X171891487Y-95541111D01*
X171976401Y-95821034D01*
X172114294Y-96079014D01*
X172299866Y-96305134D01*
X172525986Y-96490706D01*
X172580791Y-96520000D01*
X172525986Y-96549294D01*
X172299866Y-96734866D01*
X172114294Y-96960986D01*
X171976401Y-97218966D01*
X171891487Y-97498889D01*
X171862815Y-97790000D01*
X171891487Y-98081111D01*
X171976401Y-98361034D01*
X172114294Y-98619014D01*
X172299866Y-98845134D01*
X172525986Y-99030706D01*
X172580791Y-99060000D01*
X172525986Y-99089294D01*
X172299866Y-99274866D01*
X172114294Y-99500986D01*
X171976401Y-99758966D01*
X171891487Y-100038889D01*
X171862815Y-100330000D01*
X171891487Y-100621111D01*
X171976401Y-100901034D01*
X172114294Y-101159014D01*
X172299866Y-101385134D01*
X172525986Y-101570706D01*
X172580791Y-101600000D01*
X172525986Y-101629294D01*
X172299866Y-101814866D01*
X172114294Y-102040986D01*
X171976401Y-102298966D01*
X171891487Y-102578889D01*
X171862815Y-102870000D01*
X171891487Y-103161111D01*
X171976401Y-103441034D01*
X172114294Y-103699014D01*
X172299866Y-103925134D01*
X172525986Y-104110706D01*
X172580791Y-104140000D01*
X172525986Y-104169294D01*
X172299866Y-104354866D01*
X172114294Y-104580986D01*
X171976401Y-104838966D01*
X171891487Y-105118889D01*
X171862815Y-105410000D01*
X171891487Y-105701111D01*
X171976401Y-105981034D01*
X172114294Y-106239014D01*
X172299866Y-106465134D01*
X172525986Y-106650706D01*
X172580791Y-106680000D01*
X172525986Y-106709294D01*
X172299866Y-106894866D01*
X172114294Y-107120986D01*
X171976401Y-107378966D01*
X171891487Y-107658889D01*
X171862815Y-107950000D01*
X171891487Y-108241111D01*
X171976401Y-108521034D01*
X172114294Y-108779014D01*
X172299866Y-109005134D01*
X172525986Y-109190706D01*
X172580791Y-109220000D01*
X172525986Y-109249294D01*
X172299866Y-109434866D01*
X172114294Y-109660986D01*
X171976401Y-109918966D01*
X171891487Y-110198889D01*
X171862815Y-110490000D01*
X171891487Y-110781111D01*
X171976401Y-111061034D01*
X172114294Y-111319014D01*
X172299866Y-111545134D01*
X172525986Y-111730706D01*
X172580791Y-111760000D01*
X172525986Y-111789294D01*
X172299866Y-111974866D01*
X172114294Y-112200986D01*
X171976401Y-112458966D01*
X171891487Y-112738889D01*
X171862815Y-113030000D01*
X171891487Y-113321111D01*
X171976401Y-113601034D01*
X172114294Y-113859014D01*
X172299866Y-114085134D01*
X172525986Y-114270706D01*
X172580791Y-114300000D01*
X172525986Y-114329294D01*
X172299866Y-114514866D01*
X172114294Y-114740986D01*
X171976401Y-114998966D01*
X171891487Y-115278889D01*
X171862815Y-115570000D01*
X171891487Y-115861111D01*
X171976401Y-116141034D01*
X172114294Y-116399014D01*
X172299866Y-116625134D01*
X172525986Y-116810706D01*
X172580791Y-116840000D01*
X172525986Y-116869294D01*
X172299866Y-117054866D01*
X172114294Y-117280986D01*
X171976401Y-117538966D01*
X171891487Y-117818889D01*
X171862815Y-118110000D01*
X171891487Y-118401111D01*
X171976401Y-118681034D01*
X172114294Y-118939014D01*
X172299866Y-119165134D01*
X172525986Y-119350706D01*
X172580791Y-119380000D01*
X172525986Y-119409294D01*
X172299866Y-119594866D01*
X172114294Y-119820986D01*
X171976401Y-120078966D01*
X171891487Y-120358889D01*
X171862815Y-120650000D01*
X171891487Y-120941111D01*
X171976401Y-121221034D01*
X172114294Y-121479014D01*
X172299866Y-121705134D01*
X172525986Y-121890706D01*
X172580791Y-121920000D01*
X172525986Y-121949294D01*
X172299866Y-122134866D01*
X172114294Y-122360986D01*
X171976401Y-122618966D01*
X171891487Y-122898889D01*
X171862815Y-123190000D01*
X171891487Y-123481111D01*
X171976401Y-123761034D01*
X172114294Y-124019014D01*
X172299866Y-124245134D01*
X172525986Y-124430706D01*
X172783966Y-124568599D01*
X173063889Y-124653513D01*
X173282050Y-124675000D01*
X173427950Y-124675000D01*
X173646111Y-124653513D01*
X173926034Y-124568599D01*
X174184014Y-124430706D01*
X174410134Y-124245134D01*
X174595706Y-124019014D01*
X174733599Y-123761034D01*
X174818513Y-123481111D01*
X174847185Y-123190000D01*
X174818513Y-122898889D01*
X174733599Y-122618966D01*
X174595706Y-122360986D01*
X174410134Y-122134866D01*
X174184014Y-121949294D01*
X174129209Y-121920000D01*
X174184014Y-121890706D01*
X174410134Y-121705134D01*
X174595706Y-121479014D01*
X174733599Y-121221034D01*
X174818513Y-120941111D01*
X174847185Y-120650000D01*
X174818513Y-120358889D01*
X174733599Y-120078966D01*
X174595706Y-119820986D01*
X174410134Y-119594866D01*
X174184014Y-119409294D01*
X174129209Y-119380000D01*
X174184014Y-119350706D01*
X174410134Y-119165134D01*
X174595706Y-118939014D01*
X174733599Y-118681034D01*
X174818513Y-118401111D01*
X174847185Y-118110000D01*
X174818513Y-117818889D01*
X174733599Y-117538966D01*
X174595706Y-117280986D01*
X174410134Y-117054866D01*
X174184014Y-116869294D01*
X174129209Y-116840000D01*
X174184014Y-116810706D01*
X174410134Y-116625134D01*
X174595706Y-116399014D01*
X174733599Y-116141034D01*
X174818513Y-115861111D01*
X174847185Y-115570000D01*
X174818513Y-115278889D01*
X174733599Y-114998966D01*
X174595706Y-114740986D01*
X174410134Y-114514866D01*
X174184014Y-114329294D01*
X174129209Y-114300000D01*
X174184014Y-114270706D01*
X174410134Y-114085134D01*
X174595706Y-113859014D01*
X174733599Y-113601034D01*
X174818513Y-113321111D01*
X174847185Y-113030000D01*
X174818513Y-112738889D01*
X174733599Y-112458966D01*
X174595706Y-112200986D01*
X174410134Y-111974866D01*
X174184014Y-111789294D01*
X174129209Y-111760000D01*
X174184014Y-111730706D01*
X174410134Y-111545134D01*
X174595706Y-111319014D01*
X174733599Y-111061034D01*
X174818513Y-110781111D01*
X174847185Y-110490000D01*
X174818513Y-110198889D01*
X174733599Y-109918966D01*
X174595706Y-109660986D01*
X174410134Y-109434866D01*
X174184014Y-109249294D01*
X174129209Y-109220000D01*
X174184014Y-109190706D01*
X174410134Y-109005134D01*
X174595706Y-108779014D01*
X174733599Y-108521034D01*
X174818513Y-108241111D01*
X174847185Y-107950000D01*
X174818513Y-107658889D01*
X174733599Y-107378966D01*
X174595706Y-107120986D01*
X174410134Y-106894866D01*
X174184014Y-106709294D01*
X174129209Y-106680000D01*
X174184014Y-106650706D01*
X174410134Y-106465134D01*
X174595706Y-106239014D01*
X174733599Y-105981034D01*
X174818513Y-105701111D01*
X174847185Y-105410000D01*
X174818513Y-105118889D01*
X174733599Y-104838966D01*
X174595706Y-104580986D01*
X174410134Y-104354866D01*
X174184014Y-104169294D01*
X174129209Y-104140000D01*
X174184014Y-104110706D01*
X174410134Y-103925134D01*
X174595706Y-103699014D01*
X174733599Y-103441034D01*
X174818513Y-103161111D01*
X174847185Y-102870000D01*
X174818513Y-102578889D01*
X174733599Y-102298966D01*
X174595706Y-102040986D01*
X174410134Y-101814866D01*
X174184014Y-101629294D01*
X174129209Y-101600000D01*
X174184014Y-101570706D01*
X174410134Y-101385134D01*
X174595706Y-101159014D01*
X174733599Y-100901034D01*
X174818513Y-100621111D01*
X174847185Y-100330000D01*
X174818513Y-100038889D01*
X174733599Y-99758966D01*
X174595706Y-99500986D01*
X174410134Y-99274866D01*
X174184014Y-99089294D01*
X174129209Y-99060000D01*
X174184014Y-99030706D01*
X174410134Y-98845134D01*
X174595706Y-98619014D01*
X174733599Y-98361034D01*
X174818513Y-98081111D01*
X174847185Y-97790000D01*
X174818513Y-97498889D01*
X174733599Y-97218966D01*
X174595706Y-96960986D01*
X174410134Y-96734866D01*
X174184014Y-96549294D01*
X174129209Y-96520000D01*
X174184014Y-96490706D01*
X174410134Y-96305134D01*
X174595706Y-96079014D01*
X174733599Y-95821034D01*
X174818513Y-95541111D01*
X174847185Y-95250000D01*
X174818513Y-94958889D01*
X174733599Y-94678966D01*
X174595706Y-94420986D01*
X174410134Y-94194866D01*
X174184014Y-94009294D01*
X174129209Y-93980000D01*
X174184014Y-93950706D01*
X174410134Y-93765134D01*
X174595706Y-93539014D01*
X174733599Y-93281034D01*
X174818513Y-93001111D01*
X174847185Y-92710000D01*
X174818513Y-92418889D01*
X174733599Y-92138966D01*
X174595706Y-91880986D01*
X174410134Y-91654866D01*
X174184014Y-91469294D01*
X174129209Y-91440000D01*
X174184014Y-91410706D01*
X174410134Y-91225134D01*
X174595706Y-90999014D01*
X174733599Y-90741034D01*
X174818513Y-90461111D01*
X174847185Y-90170000D01*
X174818513Y-89878889D01*
X174733599Y-89598966D01*
X174595706Y-89340986D01*
X174410134Y-89114866D01*
X174184014Y-88929294D01*
X174129209Y-88900000D01*
X174184014Y-88870706D01*
X174410134Y-88685134D01*
X174595706Y-88459014D01*
X174733599Y-88201034D01*
X174818513Y-87921111D01*
X174847185Y-87630000D01*
X174818513Y-87338889D01*
X174733599Y-87058966D01*
X174595706Y-86800986D01*
X174410134Y-86574866D01*
X174380313Y-86550393D01*
X174449180Y-86529502D01*
X174559494Y-86470537D01*
X174656185Y-86391185D01*
X174735537Y-86294494D01*
X174794502Y-86184180D01*
X174830812Y-86064482D01*
X174843072Y-85940000D01*
X174840000Y-85375750D01*
X174769250Y-85305000D01*
X175676928Y-85305000D01*
X175689188Y-85429482D01*
X175725498Y-85549180D01*
X175784463Y-85659494D01*
X175863815Y-85756185D01*
X175960506Y-85835537D01*
X176070820Y-85894502D01*
X176190518Y-85930812D01*
X176315000Y-85943072D01*
X176879250Y-85940000D01*
X177038000Y-85781250D01*
X177038000Y-84582000D01*
X175838750Y-84582000D01*
X175680000Y-84740750D01*
X175676928Y-85305000D01*
X174769250Y-85305000D01*
X174681250Y-85217000D01*
X173482000Y-85217000D01*
X173482000Y-85237000D01*
X173228000Y-85237000D01*
X173228000Y-85217000D01*
X172028750Y-85217000D01*
X171870000Y-85375750D01*
X171866928Y-85940000D01*
X171879188Y-86064482D01*
X171915498Y-86184180D01*
X171974463Y-86294494D01*
X172053815Y-86391185D01*
X172150506Y-86470537D01*
X172260820Y-86529502D01*
X172329687Y-86550393D01*
X172299866Y-86574866D01*
X172114294Y-86800986D01*
X171976401Y-87058966D01*
X171891487Y-87338889D01*
X171862815Y-87630000D01*
X166025512Y-87630000D01*
X169415512Y-84240000D01*
X171866928Y-84240000D01*
X171870000Y-84804250D01*
X172028750Y-84963000D01*
X173228000Y-84963000D01*
X173228000Y-83763750D01*
X173482000Y-83763750D01*
X173482000Y-84963000D01*
X174681250Y-84963000D01*
X174840000Y-84804250D01*
X174843072Y-84240000D01*
X174830812Y-84115518D01*
X174794502Y-83995820D01*
X174735537Y-83885506D01*
X174656185Y-83788815D01*
X174559494Y-83709463D01*
X174449180Y-83650498D01*
X174329482Y-83614188D01*
X174236192Y-83605000D01*
X175676928Y-83605000D01*
X175680000Y-84169250D01*
X175838750Y-84328000D01*
X177038000Y-84328000D01*
X177038000Y-83128750D01*
X176879250Y-82970000D01*
X176315000Y-82966928D01*
X176190518Y-82979188D01*
X176070820Y-83015498D01*
X175960506Y-83074463D01*
X175863815Y-83153815D01*
X175784463Y-83250506D01*
X175725498Y-83360820D01*
X175689188Y-83480518D01*
X175676928Y-83605000D01*
X174236192Y-83605000D01*
X174205000Y-83601928D01*
X173640750Y-83605000D01*
X173482000Y-83763750D01*
X173228000Y-83763750D01*
X173069250Y-83605000D01*
X172505000Y-83601928D01*
X172380518Y-83614188D01*
X172260820Y-83650498D01*
X172150506Y-83709463D01*
X172053815Y-83788815D01*
X171974463Y-83885506D01*
X171915498Y-83995820D01*
X171879188Y-84115518D01*
X171866928Y-84240000D01*
X169415512Y-84240000D01*
X170930513Y-82725000D01*
X178099488Y-82725000D01*
X178718240Y-83343753D01*
X178649866Y-83399866D01*
X178625393Y-83429687D01*
X178604502Y-83360820D01*
X178545537Y-83250506D01*
X178466185Y-83153815D01*
X178369494Y-83074463D01*
X178259180Y-83015498D01*
X178139482Y-82979188D01*
X178015000Y-82966928D01*
X177450750Y-82970000D01*
X177292000Y-83128750D01*
X177292000Y-84328000D01*
X177312000Y-84328000D01*
X177312000Y-84582000D01*
X177292000Y-84582000D01*
X177292000Y-85781250D01*
X177450750Y-85940000D01*
X178015000Y-85943072D01*
X178139482Y-85930812D01*
X178259180Y-85894502D01*
X178369494Y-85835537D01*
X178466185Y-85756185D01*
X178545537Y-85659494D01*
X178604502Y-85549180D01*
X178625393Y-85480313D01*
X178649866Y-85510134D01*
X178875986Y-85695706D01*
X179133966Y-85833599D01*
X179413889Y-85918513D01*
X179632050Y-85940000D01*
X179777950Y-85940000D01*
X179996111Y-85918513D01*
X180276034Y-85833599D01*
X180534014Y-85695706D01*
X180760134Y-85510134D01*
X180945706Y-85284014D01*
X180975000Y-85229209D01*
X181004294Y-85284014D01*
X181189866Y-85510134D01*
X181415986Y-85695706D01*
X181673966Y-85833599D01*
X181953889Y-85918513D01*
X182172050Y-85940000D01*
X182317950Y-85940000D01*
X182536111Y-85918513D01*
X182816034Y-85833599D01*
X183074014Y-85695706D01*
X183300134Y-85510134D01*
X183485706Y-85284014D01*
X183515000Y-85229209D01*
X183544294Y-85284014D01*
X183729866Y-85510134D01*
X183955986Y-85695706D01*
X184213966Y-85833599D01*
X184493889Y-85918513D01*
X184712050Y-85940000D01*
X184857950Y-85940000D01*
X185076111Y-85918513D01*
X185356034Y-85833599D01*
X185614014Y-85695706D01*
X185840134Y-85510134D01*
X186025706Y-85284014D01*
X186163599Y-85026034D01*
X186248513Y-84746111D01*
X186277185Y-84455000D01*
X186248513Y-84163889D01*
X186163599Y-83883966D01*
X186025706Y-83625986D01*
X185840134Y-83399866D01*
X185614014Y-83214294D01*
X185356034Y-83076401D01*
X185076111Y-82991487D01*
X184857950Y-82970000D01*
X184712050Y-82970000D01*
X184493889Y-82991487D01*
X184419005Y-83014203D01*
X180638785Y-79233984D01*
X180614982Y-79204980D01*
X180499257Y-79110007D01*
X180367228Y-79039435D01*
X180223967Y-78995978D01*
X180112314Y-78984981D01*
X180112303Y-78984981D01*
X180074981Y-78981305D01*
X180037659Y-78984981D01*
X157780931Y-78984981D01*
X157743608Y-78981305D01*
X157706285Y-78984981D01*
X157706276Y-78984981D01*
X157594623Y-78995978D01*
X157451362Y-79039435D01*
X157319332Y-79110007D01*
X157235692Y-79178649D01*
X157203608Y-79204980D01*
X157179810Y-79233978D01*
X141923789Y-94490000D01*
X127472322Y-94490000D01*
X127434999Y-94486324D01*
X127397676Y-94490000D01*
X127397667Y-94490000D01*
X127286014Y-94500997D01*
X127142753Y-94544454D01*
X127010724Y-94615026D01*
X126894999Y-94709999D01*
X126871201Y-94738997D01*
X124785906Y-96824293D01*
X124741308Y-96810764D01*
X124460000Y-96783057D01*
X124178691Y-96810764D01*
X123908192Y-96892818D01*
X123658899Y-97026068D01*
X123440392Y-97205393D01*
X123261068Y-97423900D01*
X123190000Y-97556858D01*
X123118932Y-97423899D01*
X122939607Y-97205392D01*
X122721100Y-97026068D01*
X122471807Y-96892818D01*
X122201308Y-96810764D01*
X121920000Y-96783057D01*
X121638691Y-96810764D01*
X121368192Y-96892818D01*
X121118899Y-97026068D01*
X120900392Y-97205393D01*
X120721068Y-97423900D01*
X120650000Y-97556858D01*
X120578932Y-97423899D01*
X120399607Y-97205392D01*
X120181100Y-97026068D01*
X119931807Y-96892818D01*
X119661308Y-96810764D01*
X119380000Y-96783057D01*
X119098691Y-96810764D01*
X118828192Y-96892818D01*
X118578899Y-97026068D01*
X118360392Y-97205393D01*
X118237000Y-97355747D01*
X118237000Y-96520000D01*
X118234560Y-96495224D01*
X118227333Y-96471399D01*
X118215597Y-96449443D01*
X118199803Y-96430197D01*
X118180557Y-96414403D01*
X118158601Y-96402667D01*
X118134776Y-96395440D01*
X118110000Y-96393000D01*
X110685000Y-96393000D01*
X110685000Y-91298665D01*
X114135000Y-91298665D01*
X114135000Y-91581335D01*
X114190147Y-91858574D01*
X114298320Y-92119727D01*
X114455363Y-92354759D01*
X114655241Y-92554637D01*
X114890273Y-92711680D01*
X115151426Y-92819853D01*
X115428665Y-92875000D01*
X115711335Y-92875000D01*
X115988574Y-92819853D01*
X116249727Y-92711680D01*
X116484759Y-92554637D01*
X116684637Y-92354759D01*
X116841680Y-92119727D01*
X116949853Y-91858574D01*
X117005000Y-91581335D01*
X117005000Y-91298665D01*
X120485000Y-91298665D01*
X120485000Y-91581335D01*
X120540147Y-91858574D01*
X120648320Y-92119727D01*
X120805363Y-92354759D01*
X121005241Y-92554637D01*
X121240273Y-92711680D01*
X121501426Y-92819853D01*
X121778665Y-92875000D01*
X122061335Y-92875000D01*
X122338574Y-92819853D01*
X122599727Y-92711680D01*
X122834759Y-92554637D01*
X123034637Y-92354759D01*
X123191680Y-92119727D01*
X123299853Y-91858574D01*
X123355000Y-91581335D01*
X123355000Y-91298665D01*
X126835000Y-91298665D01*
X126835000Y-91581335D01*
X126890147Y-91858574D01*
X126998320Y-92119727D01*
X127155363Y-92354759D01*
X127355241Y-92554637D01*
X127590273Y-92711680D01*
X127851426Y-92819853D01*
X128128665Y-92875000D01*
X128411335Y-92875000D01*
X128688574Y-92819853D01*
X128949727Y-92711680D01*
X129184759Y-92554637D01*
X129384637Y-92354759D01*
X129541680Y-92119727D01*
X129649853Y-91858574D01*
X129705000Y-91581335D01*
X129705000Y-91298665D01*
X133185000Y-91298665D01*
X133185000Y-91581335D01*
X133240147Y-91858574D01*
X133348320Y-92119727D01*
X133505363Y-92354759D01*
X133705241Y-92554637D01*
X133940273Y-92711680D01*
X134201426Y-92819853D01*
X134478665Y-92875000D01*
X134761335Y-92875000D01*
X135038574Y-92819853D01*
X135299727Y-92711680D01*
X135534759Y-92554637D01*
X135734637Y-92354759D01*
X135891680Y-92119727D01*
X135999853Y-91858574D01*
X136055000Y-91581335D01*
X136055000Y-91298665D01*
X135999853Y-91021426D01*
X135891680Y-90760273D01*
X135734637Y-90525241D01*
X135534759Y-90325363D01*
X135299727Y-90168320D01*
X135038574Y-90060147D01*
X134761335Y-90005000D01*
X134478665Y-90005000D01*
X134201426Y-90060147D01*
X133940273Y-90168320D01*
X133705241Y-90325363D01*
X133505363Y-90525241D01*
X133348320Y-90760273D01*
X133240147Y-91021426D01*
X133185000Y-91298665D01*
X129705000Y-91298665D01*
X129649853Y-91021426D01*
X129541680Y-90760273D01*
X129384637Y-90525241D01*
X129184759Y-90325363D01*
X128949727Y-90168320D01*
X128688574Y-90060147D01*
X128411335Y-90005000D01*
X128128665Y-90005000D01*
X127851426Y-90060147D01*
X127590273Y-90168320D01*
X127355241Y-90325363D01*
X127155363Y-90525241D01*
X126998320Y-90760273D01*
X126890147Y-91021426D01*
X126835000Y-91298665D01*
X123355000Y-91298665D01*
X123299853Y-91021426D01*
X123191680Y-90760273D01*
X123034637Y-90525241D01*
X122834759Y-90325363D01*
X122599727Y-90168320D01*
X122338574Y-90060147D01*
X122061335Y-90005000D01*
X121778665Y-90005000D01*
X121501426Y-90060147D01*
X121240273Y-90168320D01*
X121005241Y-90325363D01*
X120805363Y-90525241D01*
X120648320Y-90760273D01*
X120540147Y-91021426D01*
X120485000Y-91298665D01*
X117005000Y-91298665D01*
X116949853Y-91021426D01*
X116841680Y-90760273D01*
X116684637Y-90525241D01*
X116484759Y-90325363D01*
X116249727Y-90168320D01*
X115988574Y-90060147D01*
X115711335Y-90005000D01*
X115428665Y-90005000D01*
X115151426Y-90060147D01*
X114890273Y-90168320D01*
X114655241Y-90325363D01*
X114455363Y-90525241D01*
X114298320Y-90760273D01*
X114190147Y-91021426D01*
X114135000Y-91298665D01*
X110685000Y-91298665D01*
X110685000Y-81280000D01*
X114128057Y-81280000D01*
X114155764Y-81561309D01*
X114237818Y-81831808D01*
X114371068Y-82081101D01*
X114550392Y-82299608D01*
X114768899Y-82478932D01*
X115018192Y-82612182D01*
X115288691Y-82694236D01*
X115499508Y-82715000D01*
X115640492Y-82715000D01*
X115851309Y-82694236D01*
X116121808Y-82612182D01*
X116371101Y-82478932D01*
X116589608Y-82299608D01*
X116768932Y-82081101D01*
X116902182Y-81831808D01*
X116984236Y-81561309D01*
X117011943Y-81280000D01*
X120478057Y-81280000D01*
X120505764Y-81561309D01*
X120587818Y-81831808D01*
X120721068Y-82081101D01*
X120900392Y-82299608D01*
X121118899Y-82478932D01*
X121368192Y-82612182D01*
X121638691Y-82694236D01*
X121849508Y-82715000D01*
X121990492Y-82715000D01*
X122201309Y-82694236D01*
X122471808Y-82612182D01*
X122721101Y-82478932D01*
X122939608Y-82299608D01*
X123118932Y-82081101D01*
X123252182Y-81831808D01*
X123334236Y-81561309D01*
X123361943Y-81280000D01*
X126828057Y-81280000D01*
X126855764Y-81561309D01*
X126937818Y-81831808D01*
X127071068Y-82081101D01*
X127250392Y-82299608D01*
X127468899Y-82478932D01*
X127718192Y-82612182D01*
X127988691Y-82694236D01*
X128199508Y-82715000D01*
X128340492Y-82715000D01*
X128551309Y-82694236D01*
X128821808Y-82612182D01*
X129071101Y-82478932D01*
X129289608Y-82299608D01*
X129468932Y-82081101D01*
X129602182Y-81831808D01*
X129684236Y-81561309D01*
X129711943Y-81280000D01*
X133178057Y-81280000D01*
X133205764Y-81561309D01*
X133287818Y-81831808D01*
X133421068Y-82081101D01*
X133600392Y-82299608D01*
X133818899Y-82478932D01*
X134068192Y-82612182D01*
X134338691Y-82694236D01*
X134549508Y-82715000D01*
X134690492Y-82715000D01*
X134901309Y-82694236D01*
X135171808Y-82612182D01*
X135421101Y-82478932D01*
X135639608Y-82299608D01*
X135818932Y-82081101D01*
X135952182Y-81831808D01*
X136034236Y-81561309D01*
X136061943Y-81280000D01*
X136034236Y-80998691D01*
X135952182Y-80728192D01*
X135818932Y-80478899D01*
X135639608Y-80260392D01*
X135421101Y-80081068D01*
X135171808Y-79947818D01*
X134901309Y-79865764D01*
X134690492Y-79845000D01*
X134549508Y-79845000D01*
X134338691Y-79865764D01*
X134068192Y-79947818D01*
X133818899Y-80081068D01*
X133600392Y-80260392D01*
X133421068Y-80478899D01*
X133287818Y-80728192D01*
X133205764Y-80998691D01*
X133178057Y-81280000D01*
X129711943Y-81280000D01*
X129684236Y-80998691D01*
X129602182Y-80728192D01*
X129468932Y-80478899D01*
X129289608Y-80260392D01*
X129071101Y-80081068D01*
X128821808Y-79947818D01*
X128551309Y-79865764D01*
X128340492Y-79845000D01*
X128199508Y-79845000D01*
X127988691Y-79865764D01*
X127718192Y-79947818D01*
X127468899Y-80081068D01*
X127250392Y-80260392D01*
X127071068Y-80478899D01*
X126937818Y-80728192D01*
X126855764Y-80998691D01*
X126828057Y-81280000D01*
X123361943Y-81280000D01*
X123334236Y-80998691D01*
X123252182Y-80728192D01*
X123118932Y-80478899D01*
X122939608Y-80260392D01*
X122721101Y-80081068D01*
X122471808Y-79947818D01*
X122201309Y-79865764D01*
X121990492Y-79845000D01*
X121849508Y-79845000D01*
X121638691Y-79865764D01*
X121368192Y-79947818D01*
X121118899Y-80081068D01*
X120900392Y-80260392D01*
X120721068Y-80478899D01*
X120587818Y-80728192D01*
X120505764Y-80998691D01*
X120478057Y-81280000D01*
X117011943Y-81280000D01*
X116984236Y-80998691D01*
X116902182Y-80728192D01*
X116768932Y-80478899D01*
X116589608Y-80260392D01*
X116371101Y-80081068D01*
X116121808Y-79947818D01*
X115851309Y-79865764D01*
X115640492Y-79845000D01*
X115499508Y-79845000D01*
X115288691Y-79865764D01*
X115018192Y-79947818D01*
X114768899Y-80081068D01*
X114550392Y-80260392D01*
X114371068Y-80478899D01*
X114237818Y-80728192D01*
X114155764Y-80998691D01*
X114128057Y-81280000D01*
X110685000Y-81280000D01*
X110685000Y-72553123D01*
X110810173Y-72678296D01*
X111159854Y-72911945D01*
X111548400Y-73072886D01*
X111960877Y-73154933D01*
X112381435Y-73154933D01*
X112793912Y-73072886D01*
X113182458Y-72911945D01*
X113532139Y-72678296D01*
X113829519Y-72380916D01*
X114063168Y-72031235D01*
X114224109Y-71642689D01*
X114306156Y-71230212D01*
X114306156Y-70809654D01*
X114224109Y-70397177D01*
X114063168Y-70008631D01*
X113829519Y-69658950D01*
X113532139Y-69361570D01*
X113182458Y-69127921D01*
X112793912Y-68966980D01*
X112381435Y-68884933D01*
X111960877Y-68884933D01*
X111548400Y-68966980D01*
X111159854Y-69127921D01*
X110810173Y-69361570D01*
X110685000Y-69486743D01*
X110685000Y-41552943D01*
X110809653Y-41677596D01*
X111159334Y-41911245D01*
X111547880Y-42072186D01*
X111960357Y-42154233D01*
X112380915Y-42154233D01*
X112793392Y-42072186D01*
X113181938Y-41911245D01*
X113531619Y-41677596D01*
X113828999Y-41380216D01*
X114062648Y-41030535D01*
X114223589Y-40641989D01*
X114305636Y-40229512D01*
X114305636Y-39808954D01*
X114252899Y-39543825D01*
X142035636Y-39543825D01*
X142035636Y-40494640D01*
X142057846Y-40720145D01*
X142145619Y-41009493D01*
X142288155Y-41276159D01*
X142479975Y-41509894D01*
X142713709Y-41701714D01*
X142980375Y-41844250D01*
X143269723Y-41932023D01*
X143570636Y-41961660D01*
X143871548Y-41932023D01*
X144160896Y-41844250D01*
X144427562Y-41701714D01*
X144661297Y-41509894D01*
X144840636Y-41291368D01*
X145019975Y-41509894D01*
X145253709Y-41701714D01*
X145520375Y-41844250D01*
X145809723Y-41932023D01*
X146110636Y-41961660D01*
X146411548Y-41932023D01*
X146700896Y-41844250D01*
X146967562Y-41701714D01*
X147201297Y-41509894D01*
X147380636Y-41291368D01*
X147559975Y-41509894D01*
X147793709Y-41701714D01*
X148060375Y-41844250D01*
X148349723Y-41932023D01*
X148650636Y-41961660D01*
X148951548Y-41932023D01*
X149240896Y-41844250D01*
X149507562Y-41701714D01*
X149741297Y-41509894D01*
X149920636Y-41291368D01*
X150099975Y-41509894D01*
X150333709Y-41701714D01*
X150600375Y-41844250D01*
X150889723Y-41932023D01*
X151190636Y-41961660D01*
X151491548Y-41932023D01*
X151780896Y-41844250D01*
X152047562Y-41701714D01*
X152281297Y-41509894D01*
X152460636Y-41291368D01*
X152639975Y-41509894D01*
X152873709Y-41701714D01*
X153140375Y-41844250D01*
X153429723Y-41932023D01*
X153730636Y-41961660D01*
X154031548Y-41932023D01*
X154320896Y-41844250D01*
X154587562Y-41701714D01*
X154821297Y-41509894D01*
X155000636Y-41291368D01*
X155179975Y-41509894D01*
X155413709Y-41701714D01*
X155680375Y-41844250D01*
X155969723Y-41932023D01*
X156270636Y-41961660D01*
X156571548Y-41932023D01*
X156860896Y-41844250D01*
X157127562Y-41701714D01*
X157361297Y-41509894D01*
X157540636Y-41291368D01*
X157719975Y-41509894D01*
X157953709Y-41701714D01*
X158220375Y-41844250D01*
X158509723Y-41932023D01*
X158810636Y-41961660D01*
X159111548Y-41932023D01*
X159400896Y-41844250D01*
X159667562Y-41701714D01*
X159901297Y-41509894D01*
X160080636Y-41291368D01*
X160259975Y-41509894D01*
X160493709Y-41701714D01*
X160760375Y-41844250D01*
X161049723Y-41932023D01*
X161350636Y-41961660D01*
X161651548Y-41932023D01*
X161940896Y-41844250D01*
X162207562Y-41701714D01*
X162441297Y-41509894D01*
X162620636Y-41291368D01*
X162799975Y-41509894D01*
X163033709Y-41701714D01*
X163300375Y-41844250D01*
X163589723Y-41932023D01*
X163890636Y-41961660D01*
X164191548Y-41932023D01*
X164480896Y-41844250D01*
X164747562Y-41701714D01*
X164981297Y-41509894D01*
X165160636Y-41291368D01*
X165339975Y-41509894D01*
X165573709Y-41701714D01*
X165840375Y-41844250D01*
X166129723Y-41932023D01*
X166430636Y-41961660D01*
X166731548Y-41932023D01*
X167020896Y-41844250D01*
X167287562Y-41701714D01*
X167521297Y-41509894D01*
X167700636Y-41291368D01*
X167879975Y-41509894D01*
X168113709Y-41701714D01*
X168380375Y-41844250D01*
X168669723Y-41932023D01*
X168970636Y-41961660D01*
X169271548Y-41932023D01*
X169560896Y-41844250D01*
X169827562Y-41701714D01*
X170061297Y-41509894D01*
X170240636Y-41291368D01*
X170419975Y-41509894D01*
X170653709Y-41701714D01*
X170920375Y-41844250D01*
X171209723Y-41932023D01*
X171510636Y-41961660D01*
X171811548Y-41932023D01*
X172100896Y-41844250D01*
X172367562Y-41701714D01*
X172601297Y-41509894D01*
X172780636Y-41291368D01*
X172959975Y-41509894D01*
X173193709Y-41701714D01*
X173460375Y-41844250D01*
X173749723Y-41932023D01*
X174050636Y-41961660D01*
X174351548Y-41932023D01*
X174640896Y-41844250D01*
X174907562Y-41701714D01*
X175141297Y-41509894D01*
X175320636Y-41291368D01*
X175499975Y-41509894D01*
X175733709Y-41701714D01*
X176000375Y-41844250D01*
X176289723Y-41932023D01*
X176590636Y-41961660D01*
X176891548Y-41932023D01*
X177180896Y-41844250D01*
X177447562Y-41701714D01*
X177681297Y-41509894D01*
X177860636Y-41291368D01*
X178039975Y-41509894D01*
X178273709Y-41701714D01*
X178540375Y-41844250D01*
X178829723Y-41932023D01*
X179130636Y-41961660D01*
X179431548Y-41932023D01*
X179720896Y-41844250D01*
X179987562Y-41701714D01*
X180176141Y-41546953D01*
X180181134Y-41563413D01*
X180240099Y-41673727D01*
X180319451Y-41770418D01*
X180416142Y-41849770D01*
X180526456Y-41908735D01*
X180646154Y-41945045D01*
X180770636Y-41957305D01*
X181384886Y-41954233D01*
X181543636Y-41795483D01*
X181543636Y-40146233D01*
X181797636Y-40146233D01*
X181797636Y-41795483D01*
X181956386Y-41954233D01*
X182570636Y-41957305D01*
X182695118Y-41945045D01*
X182814816Y-41908735D01*
X182925130Y-41849770D01*
X183021821Y-41770418D01*
X183101173Y-41673727D01*
X183160138Y-41563413D01*
X183196448Y-41443715D01*
X183208708Y-41319233D01*
X183205636Y-40304983D01*
X183046886Y-40146233D01*
X181797636Y-40146233D01*
X181543636Y-40146233D01*
X181523636Y-40146233D01*
X181523636Y-39892233D01*
X181543636Y-39892233D01*
X181543636Y-38242983D01*
X181797636Y-38242983D01*
X181797636Y-39892233D01*
X183046886Y-39892233D01*
X183205636Y-39733483D01*
X183208708Y-38719233D01*
X183196448Y-38594751D01*
X183160138Y-38475053D01*
X183101173Y-38364739D01*
X183021821Y-38268048D01*
X182925130Y-38188696D01*
X182814816Y-38129731D01*
X182695118Y-38093421D01*
X182570636Y-38081161D01*
X181956386Y-38084233D01*
X181797636Y-38242983D01*
X181543636Y-38242983D01*
X181384886Y-38084233D01*
X180770636Y-38081161D01*
X180646154Y-38093421D01*
X180526456Y-38129731D01*
X180416142Y-38188696D01*
X180319451Y-38268048D01*
X180240099Y-38364739D01*
X180181134Y-38475053D01*
X180176141Y-38491513D01*
X179987563Y-38336752D01*
X179720897Y-38194216D01*
X179431549Y-38106443D01*
X179130636Y-38076806D01*
X178829724Y-38106443D01*
X178540376Y-38194216D01*
X178273710Y-38336752D01*
X178039975Y-38528572D01*
X177860636Y-38747098D01*
X177681297Y-38528572D01*
X177447563Y-38336752D01*
X177180897Y-38194216D01*
X176891549Y-38106443D01*
X176590636Y-38076806D01*
X176289724Y-38106443D01*
X176000376Y-38194216D01*
X175733710Y-38336752D01*
X175499975Y-38528572D01*
X175320636Y-38747098D01*
X175141297Y-38528572D01*
X174907563Y-38336752D01*
X174640897Y-38194216D01*
X174351549Y-38106443D01*
X174050636Y-38076806D01*
X173749724Y-38106443D01*
X173460376Y-38194216D01*
X173193710Y-38336752D01*
X172959975Y-38528572D01*
X172780636Y-38747098D01*
X172601297Y-38528572D01*
X172367563Y-38336752D01*
X172100897Y-38194216D01*
X171811549Y-38106443D01*
X171510636Y-38076806D01*
X171209724Y-38106443D01*
X170920376Y-38194216D01*
X170653710Y-38336752D01*
X170419975Y-38528572D01*
X170240636Y-38747098D01*
X170061297Y-38528572D01*
X169827563Y-38336752D01*
X169560897Y-38194216D01*
X169271549Y-38106443D01*
X168970636Y-38076806D01*
X168669724Y-38106443D01*
X168380376Y-38194216D01*
X168113710Y-38336752D01*
X167879975Y-38528572D01*
X167700636Y-38747098D01*
X167521297Y-38528572D01*
X167287563Y-38336752D01*
X167020897Y-38194216D01*
X166731549Y-38106443D01*
X166430636Y-38076806D01*
X166129724Y-38106443D01*
X165840376Y-38194216D01*
X165573710Y-38336752D01*
X165339975Y-38528572D01*
X165160636Y-38747098D01*
X164981297Y-38528572D01*
X164747563Y-38336752D01*
X164480897Y-38194216D01*
X164191549Y-38106443D01*
X163890636Y-38076806D01*
X163589724Y-38106443D01*
X163300376Y-38194216D01*
X163033710Y-38336752D01*
X162799975Y-38528572D01*
X162620636Y-38747098D01*
X162441297Y-38528572D01*
X162207563Y-38336752D01*
X161940897Y-38194216D01*
X161651549Y-38106443D01*
X161350636Y-38076806D01*
X161049724Y-38106443D01*
X160760376Y-38194216D01*
X160493710Y-38336752D01*
X160259975Y-38528572D01*
X160080636Y-38747098D01*
X159901297Y-38528572D01*
X159667563Y-38336752D01*
X159400897Y-38194216D01*
X159111549Y-38106443D01*
X158810636Y-38076806D01*
X158509724Y-38106443D01*
X158220376Y-38194216D01*
X157953710Y-38336752D01*
X157719975Y-38528572D01*
X157540636Y-38747098D01*
X157361297Y-38528572D01*
X157127563Y-38336752D01*
X156860897Y-38194216D01*
X156571549Y-38106443D01*
X156270636Y-38076806D01*
X155969724Y-38106443D01*
X155680376Y-38194216D01*
X155413710Y-38336752D01*
X155179975Y-38528572D01*
X155000636Y-38747098D01*
X154821297Y-38528572D01*
X154587563Y-38336752D01*
X154320897Y-38194216D01*
X154031549Y-38106443D01*
X153730636Y-38076806D01*
X153429724Y-38106443D01*
X153140376Y-38194216D01*
X152873710Y-38336752D01*
X152639975Y-38528572D01*
X152460636Y-38747098D01*
X152281297Y-38528572D01*
X152047563Y-38336752D01*
X151780897Y-38194216D01*
X151491549Y-38106443D01*
X151190636Y-38076806D01*
X150889724Y-38106443D01*
X150600376Y-38194216D01*
X150333710Y-38336752D01*
X150099975Y-38528572D01*
X149920636Y-38747098D01*
X149741297Y-38528572D01*
X149507563Y-38336752D01*
X149240897Y-38194216D01*
X148951549Y-38106443D01*
X148650636Y-38076806D01*
X148349724Y-38106443D01*
X148060376Y-38194216D01*
X147793710Y-38336752D01*
X147559975Y-38528572D01*
X147380636Y-38747098D01*
X147201297Y-38528572D01*
X146967563Y-38336752D01*
X146700897Y-38194216D01*
X146411549Y-38106443D01*
X146110636Y-38076806D01*
X145809724Y-38106443D01*
X145520376Y-38194216D01*
X145253710Y-38336752D01*
X145019975Y-38528572D01*
X144840636Y-38747098D01*
X144661297Y-38528572D01*
X144427563Y-38336752D01*
X144160897Y-38194216D01*
X143871549Y-38106443D01*
X143570636Y-38076806D01*
X143269724Y-38106443D01*
X142980376Y-38194216D01*
X142713710Y-38336752D01*
X142479975Y-38528572D01*
X142288155Y-38762306D01*
X142145619Y-39028972D01*
X142057846Y-39318320D01*
X142035636Y-39543825D01*
X114252899Y-39543825D01*
X114223589Y-39396477D01*
X114062648Y-39007931D01*
X113828999Y-38658250D01*
X113531619Y-38360870D01*
X113181938Y-38127221D01*
X113055865Y-38075000D01*
X115033647Y-38075000D01*
X115063645Y-38072045D01*
X115076047Y-38072132D01*
X115085565Y-38071198D01*
X115473758Y-38030397D01*
X115534539Y-38017920D01*
X115595560Y-38006280D01*
X115604716Y-38003516D01*
X115977591Y-37888092D01*
X116034870Y-37864014D01*
X116092388Y-37840775D01*
X116100833Y-37836286D01*
X116444188Y-37650634D01*
X116495635Y-37615932D01*
X116547610Y-37581921D01*
X116555022Y-37575876D01*
X116855777Y-37327069D01*
X116899524Y-37283016D01*
X116943881Y-37239578D01*
X116949978Y-37232208D01*
X117196679Y-36929724D01*
X117231047Y-36877995D01*
X117266111Y-36826785D01*
X117270661Y-36818372D01*
X117453910Y-36473730D01*
X117477555Y-36416364D01*
X117502028Y-36359264D01*
X117504856Y-36350127D01*
X117617674Y-35976456D01*
X117629737Y-35915531D01*
X117642641Y-35854826D01*
X117643641Y-35845314D01*
X117681731Y-35456845D01*
X117681731Y-35456837D01*
X117685000Y-35423647D01*
X117685000Y-32682360D01*
X118399513Y-32682360D01*
X118411773Y-32806842D01*
X118448083Y-32926540D01*
X118507048Y-33036854D01*
X118586400Y-33133545D01*
X118683091Y-33212897D01*
X118793405Y-33271862D01*
X118811712Y-33277416D01*
X118745273Y-33343855D01*
X118577286Y-33595265D01*
X118461574Y-33874617D01*
X118402585Y-34171176D01*
X118402585Y-34473544D01*
X118461574Y-34770103D01*
X118577286Y-35049455D01*
X118745273Y-35300865D01*
X118959080Y-35514672D01*
X119210490Y-35682659D01*
X119489842Y-35798371D01*
X119786401Y-35857360D01*
X120088769Y-35857360D01*
X120385328Y-35798371D01*
X120664680Y-35682659D01*
X120916090Y-35514672D01*
X121129897Y-35300865D01*
X121297884Y-35049455D01*
X121413596Y-34770103D01*
X121472585Y-34473544D01*
X121472585Y-34171176D01*
X121413596Y-33874617D01*
X121297884Y-33595265D01*
X121129897Y-33343855D01*
X121063458Y-33277416D01*
X121081765Y-33271862D01*
X121192079Y-33212897D01*
X121288770Y-33133545D01*
X121368122Y-33036854D01*
X121427087Y-32926540D01*
X121463397Y-32806842D01*
X121475657Y-32682360D01*
X124749513Y-32682360D01*
X124761773Y-32806842D01*
X124798083Y-32926540D01*
X124857048Y-33036854D01*
X124936400Y-33133545D01*
X125033091Y-33212897D01*
X125143405Y-33271862D01*
X125161712Y-33277416D01*
X125095273Y-33343855D01*
X124927286Y-33595265D01*
X124811574Y-33874617D01*
X124752585Y-34171176D01*
X124752585Y-34473544D01*
X124811574Y-34770103D01*
X124927286Y-35049455D01*
X125095273Y-35300865D01*
X125309080Y-35514672D01*
X125560490Y-35682659D01*
X125839842Y-35798371D01*
X126136401Y-35857360D01*
X126438769Y-35857360D01*
X126735328Y-35798371D01*
X127014680Y-35682659D01*
X127266090Y-35514672D01*
X127479897Y-35300865D01*
X127647884Y-35049455D01*
X127763596Y-34770103D01*
X127822585Y-34473544D01*
X127822585Y-34171176D01*
X127763596Y-33874617D01*
X127647884Y-33595265D01*
X127479897Y-33343855D01*
X127413458Y-33277416D01*
X127431765Y-33271862D01*
X127542079Y-33212897D01*
X127638770Y-33133545D01*
X127718122Y-33036854D01*
X127777087Y-32926540D01*
X127813397Y-32806842D01*
X127825657Y-32682360D01*
X130464513Y-32682360D01*
X130476773Y-32806842D01*
X130513083Y-32926540D01*
X130572048Y-33036854D01*
X130651400Y-33133545D01*
X130748091Y-33212897D01*
X130858405Y-33271862D01*
X130876712Y-33277416D01*
X130810273Y-33343855D01*
X130642286Y-33595265D01*
X130526574Y-33874617D01*
X130467585Y-34171176D01*
X130467585Y-34473544D01*
X130526574Y-34770103D01*
X130642286Y-35049455D01*
X130810273Y-35300865D01*
X131024080Y-35514672D01*
X131275490Y-35682659D01*
X131554842Y-35798371D01*
X131851401Y-35857360D01*
X132153769Y-35857360D01*
X132450328Y-35798371D01*
X132729680Y-35682659D01*
X132981090Y-35514672D01*
X133194897Y-35300865D01*
X133362884Y-35049455D01*
X133478596Y-34770103D01*
X133537585Y-34473544D01*
X133537585Y-34171176D01*
X133478596Y-33874617D01*
X133362884Y-33595265D01*
X133194897Y-33343855D01*
X133128458Y-33277416D01*
X133146765Y-33271862D01*
X133257079Y-33212897D01*
X133353770Y-33133545D01*
X133433122Y-33036854D01*
X133492087Y-32926540D01*
X133528397Y-32806842D01*
X133540657Y-32682360D01*
X133537585Y-32068110D01*
X133378835Y-31909360D01*
X132129585Y-31909360D01*
X132129585Y-31929360D01*
X131875585Y-31929360D01*
X131875585Y-31909360D01*
X130626335Y-31909360D01*
X130467585Y-32068110D01*
X130464513Y-32682360D01*
X127825657Y-32682360D01*
X127822585Y-32068110D01*
X127663835Y-31909360D01*
X126414585Y-31909360D01*
X126414585Y-31929360D01*
X126160585Y-31929360D01*
X126160585Y-31909360D01*
X124911335Y-31909360D01*
X124752585Y-32068110D01*
X124749513Y-32682360D01*
X121475657Y-32682360D01*
X121472585Y-32068110D01*
X121313835Y-31909360D01*
X120064585Y-31909360D01*
X120064585Y-31929360D01*
X119810585Y-31929360D01*
X119810585Y-31909360D01*
X118561335Y-31909360D01*
X118402585Y-32068110D01*
X118399513Y-32682360D01*
X117685000Y-32682360D01*
X117685000Y-30575000D01*
X118481854Y-30575000D01*
X118448083Y-30638180D01*
X118448083Y-30638180D01*
G37*
X118448083Y-30638180D02*
X118411773Y-30757878D01*
X118399513Y-30882360D01*
X118402585Y-31496610D01*
X118561335Y-31655360D01*
X119810585Y-31655360D01*
X119810585Y-31635360D01*
X120064585Y-31635360D01*
X120064585Y-31655360D01*
X121313835Y-31655360D01*
X121472585Y-31496610D01*
X121475657Y-30882360D01*
X121463397Y-30757878D01*
X121427087Y-30638180D01*
X121393316Y-30575000D01*
X124831854Y-30575000D01*
X124798083Y-30638180D01*
X124761773Y-30757878D01*
X124749513Y-30882360D01*
X124752585Y-31496610D01*
X124911335Y-31655360D01*
X126160585Y-31655360D01*
X126160585Y-31635360D01*
X126414585Y-31635360D01*
X126414585Y-31655360D01*
X127663835Y-31655360D01*
X127822585Y-31496610D01*
X127825657Y-30882360D01*
X127813397Y-30757878D01*
X127777087Y-30638180D01*
X127743316Y-30575000D01*
X130546854Y-30575000D01*
X130513083Y-30638180D01*
X130476773Y-30757878D01*
X130464513Y-30882360D01*
X130467585Y-31496610D01*
X130626335Y-31655360D01*
X131875585Y-31655360D01*
X131875585Y-31635360D01*
X132129585Y-31635360D01*
X132129585Y-31655360D01*
X133378835Y-31655360D01*
X133537585Y-31496610D01*
X133540657Y-30882360D01*
X133528397Y-30757878D01*
X133492087Y-30638180D01*
X133458316Y-30575000D01*
X181315000Y-30575000D01*
X181315001Y-35423647D01*
X181317955Y-35453636D01*
X181317868Y-35466047D01*
X181318802Y-35475565D01*
X181359603Y-35863758D01*
X181372080Y-35924539D01*
X181383720Y-35985560D01*
X181386484Y-35994716D01*
X181501908Y-36367591D01*
X181525986Y-36424870D01*
X181549225Y-36482388D01*
X181553714Y-36490833D01*
X181739366Y-36834188D01*
X181774068Y-36885635D01*
X181808079Y-36937610D01*
X181814124Y-36945022D01*
X182062931Y-37245777D01*
X182106984Y-37289524D01*
X182150422Y-37333881D01*
X182157792Y-37339978D01*
X182460276Y-37586679D01*
X182512005Y-37621047D01*
X182563215Y-37656111D01*
X182571628Y-37660661D01*
X182916270Y-37843910D01*
X182973636Y-37867555D01*
X183030736Y-37892028D01*
X183039873Y-37894856D01*
X183413544Y-38007674D01*
X183474469Y-38019737D01*
X183535174Y-38032641D01*
X183544686Y-38033641D01*
X183933155Y-38071731D01*
X183933163Y-38071731D01*
X183966353Y-38075000D01*
X186284507Y-38075000D01*
X186158434Y-38127221D01*
X185808753Y-38360870D01*
X185511373Y-38658250D01*
X185277724Y-39007931D01*
X185116783Y-39396477D01*
X185034736Y-39808954D01*
X185034736Y-40229512D01*
X185116783Y-40641989D01*
X185277724Y-41030535D01*
X185511373Y-41380216D01*
X185808753Y-41677596D01*
X186158434Y-41911245D01*
X186546980Y-42072186D01*
X186959457Y-42154233D01*
X187380015Y-42154233D01*
X187792492Y-42072186D01*
X188181038Y-41911245D01*
X188315001Y-41821734D01*
X188315001Y-41966344D01*
X188315000Y-41966354D01*
X188315000Y-69217432D01*
X188181038Y-69127921D01*
X187792492Y-68966980D01*
X187380015Y-68884933D01*
X186959457Y-68884933D01*
X186546980Y-68966980D01*
X186158434Y-69127921D01*
X185808753Y-69361570D01*
X185511373Y-69658950D01*
X185277724Y-70008631D01*
X185116783Y-70397177D01*
X185034736Y-70809654D01*
X185034736Y-71230212D01*
X185116783Y-71642689D01*
X185277724Y-72031235D01*
X185511373Y-72380916D01*
X185808753Y-72678296D01*
X186158434Y-72911945D01*
X186546980Y-73072886D01*
X186959457Y-73154933D01*
X187380015Y-73154933D01*
X187792492Y-73072886D01*
X188181038Y-72911945D01*
X188315000Y-72822434D01*
X188315001Y-127448353D01*
X188244180Y-127410498D01*
X188124482Y-127374188D01*
X188000000Y-127361928D01*
X185000000Y-127361928D01*
X184875518Y-127374188D01*
X184755820Y-127410498D01*
X184645506Y-127469463D01*
X184548815Y-127548815D01*
X184469463Y-127645506D01*
X184410498Y-127755820D01*
X184374188Y-127875518D01*
X184361928Y-128000000D01*
X184361928Y-131000000D01*
X184374188Y-131124482D01*
X184410498Y-131244180D01*
X184469463Y-131354494D01*
X184548815Y-131451185D01*
X184645506Y-131530537D01*
X184755820Y-131589502D01*
X184875518Y-131625812D01*
X185000000Y-131638072D01*
X188000000Y-131638072D01*
X188124482Y-131625812D01*
X188244180Y-131589502D01*
X188315001Y-131551647D01*
X188315001Y-140948353D01*
X188244180Y-140910498D01*
X188124482Y-140874188D01*
X188000000Y-140861928D01*
X185000000Y-140861928D01*
X184875518Y-140874188D01*
X184755820Y-140910498D01*
X184645506Y-140969463D01*
X184548815Y-141048815D01*
X184469463Y-141145506D01*
X184410498Y-141255820D01*
X184374188Y-141375518D01*
X184361928Y-141500000D01*
X184361928Y-144500000D01*
X184374188Y-144624482D01*
X184410498Y-144744180D01*
X184469463Y-144854494D01*
X184548815Y-144951185D01*
X184645506Y-145030537D01*
X184755820Y-145089502D01*
X184875518Y-145125812D01*
X185000000Y-145138072D01*
X188000000Y-145138072D01*
X188124482Y-145125812D01*
X188244180Y-145089502D01*
X188315001Y-145051647D01*
X188315001Y-165836487D01*
X188288543Y-166106327D01*
X188219908Y-166333656D01*
X188108428Y-166543320D01*
X187958343Y-166727341D01*
X187775380Y-166878701D01*
X187566493Y-166991646D01*
X187339653Y-167061865D01*
X187071966Y-167090000D01*
X184691503Y-167090000D01*
X184421673Y-167063543D01*
X184194344Y-166994908D01*
X183984680Y-166883428D01*
X183800659Y-166733343D01*
X183649299Y-166550380D01*
X183536354Y-166341493D01*
X183466135Y-166114653D01*
X183438000Y-165846966D01*
X183438000Y-156379553D01*
X183435053Y-156349628D01*
X183435135Y-156337817D01*
X183434201Y-156328299D01*
X183395338Y-155958544D01*
X183382863Y-155897769D01*
X183371221Y-155836742D01*
X183368456Y-155827586D01*
X183258514Y-155472422D01*
X183234454Y-155415184D01*
X183211199Y-155357626D01*
X183206709Y-155349181D01*
X183029877Y-155022136D01*
X182995142Y-154970639D01*
X182961163Y-154918714D01*
X182955118Y-154911302D01*
X182718129Y-154624832D01*
X182674076Y-154581085D01*
X182630638Y-154536728D01*
X182623269Y-154530632D01*
X182335152Y-154295648D01*
X182283416Y-154261275D01*
X182232212Y-154226215D01*
X182223799Y-154221666D01*
X181895527Y-154047121D01*
X181838131Y-154023464D01*
X181781063Y-153999005D01*
X181771926Y-153996176D01*
X181416004Y-153888716D01*
X181355074Y-153876652D01*
X181294371Y-153863749D01*
X181284863Y-153862749D01*
X181284859Y-153862749D01*
X180914844Y-153826469D01*
X180914837Y-153826469D01*
X180881647Y-153823200D01*
X117873153Y-153823200D01*
X117843228Y-153826147D01*
X117831417Y-153826065D01*
X117821899Y-153826999D01*
X117452144Y-153865862D01*
X117391369Y-153878337D01*
X117330342Y-153889979D01*
X117321186Y-153892744D01*
X116966022Y-154002686D01*
X116908784Y-154026746D01*
X116851226Y-154050001D01*
X116849347Y-154051000D01*
X114070468Y-154051000D01*
X114028256Y-154022795D01*
X113839898Y-153944774D01*
X113639939Y-153905000D01*
X113436061Y-153905000D01*
X113236102Y-153944774D01*
X113047744Y-154022795D01*
X113005532Y-154051000D01*
X110685000Y-154051000D01*
X110685000Y-143792000D01*
X112927928Y-143792000D01*
X112927928Y-147292000D01*
X112940188Y-147416482D01*
X112976498Y-147536180D01*
X113035463Y-147646494D01*
X113114815Y-147743185D01*
X113211506Y-147822537D01*
X113321820Y-147881502D01*
X113441518Y-147917812D01*
X113566000Y-147930072D01*
X117066000Y-147930072D01*
X117190482Y-147917812D01*
X117310180Y-147881502D01*
X117420494Y-147822537D01*
X117517185Y-147743185D01*
X117596537Y-147646494D01*
X117655502Y-147536180D01*
X117691812Y-147416482D01*
X117704072Y-147292000D01*
X117704072Y-146352000D01*
X121711488Y-146352000D01*
X125764105Y-150404618D01*
X125789472Y-150435528D01*
X125857210Y-150491119D01*
X125912810Y-150536749D01*
X125988024Y-150576951D01*
X126053527Y-150611963D01*
X126206212Y-150658280D01*
X126325209Y-150670000D01*
X126325211Y-150670000D01*
X126364999Y-150673919D01*
X126404787Y-150670000D01*
X133945212Y-150670000D01*
X133985000Y-150673919D01*
X134024788Y-150670000D01*
X134024791Y-150670000D01*
X134143788Y-150658280D01*
X134296473Y-150611963D01*
X134437189Y-150536749D01*
X134560528Y-150435528D01*
X134585900Y-150404612D01*
X138012512Y-146978000D01*
X145577928Y-146978000D01*
X145577928Y-148678000D01*
X145590188Y-148802482D01*
X145626498Y-148922180D01*
X145685463Y-149032494D01*
X145764815Y-149129185D01*
X145861506Y-149208537D01*
X145971820Y-149267502D01*
X146091518Y-149303812D01*
X146216000Y-149316072D01*
X147916000Y-149316072D01*
X148040482Y-149303812D01*
X148160180Y-149267502D01*
X148270494Y-149208537D01*
X148367185Y-149129185D01*
X148446537Y-149032494D01*
X148505502Y-148922180D01*
X148529966Y-148841534D01*
X148605731Y-148925588D01*
X148839080Y-149099641D01*
X149101901Y-149224825D01*
X149249110Y-149269476D01*
X149479000Y-149148155D01*
X149479000Y-147955000D01*
X149459000Y-147955000D01*
X149459000Y-147701000D01*
X149479000Y-147701000D01*
X149479000Y-146507845D01*
X149733000Y-146507845D01*
X149733000Y-147701000D01*
X149753000Y-147701000D01*
X149753000Y-147955000D01*
X149733000Y-147955000D01*
X149733000Y-149148155D01*
X149962890Y-149269476D01*
X150110099Y-149224825D01*
X150372920Y-149099641D01*
X150606269Y-148925588D01*
X150801178Y-148709355D01*
X150870799Y-148592477D01*
X150905294Y-148657014D01*
X151090866Y-148883134D01*
X151316986Y-149068706D01*
X151574966Y-149206599D01*
X151854889Y-149291513D01*
X152073050Y-149313000D01*
X152218950Y-149313000D01*
X152437111Y-149291513D01*
X152717034Y-149206599D01*
X152975014Y-149068706D01*
X153201134Y-148883134D01*
X153386706Y-148657014D01*
X153524599Y-148399034D01*
X153609513Y-148119111D01*
X153638185Y-147828000D01*
X153609513Y-147536889D01*
X153524599Y-147256966D01*
X153386706Y-146998986D01*
X153201134Y-146772866D01*
X152975014Y-146587294D01*
X152717034Y-146449401D01*
X152437111Y-146364487D01*
X152218950Y-146343000D01*
X152073050Y-146343000D01*
X151854889Y-146364487D01*
X151574966Y-146449401D01*
X151316986Y-146587294D01*
X151090866Y-146772866D01*
X150905294Y-146998986D01*
X150870799Y-147063523D01*
X150801178Y-146946645D01*
X150606269Y-146730412D01*
X150372920Y-146556359D01*
X150110099Y-146431175D01*
X149962890Y-146386524D01*
X149733000Y-146507845D01*
X149479000Y-146507845D01*
X149249110Y-146386524D01*
X149101901Y-146431175D01*
X148839080Y-146556359D01*
X148605731Y-146730412D01*
X148529966Y-146814466D01*
X148505502Y-146733820D01*
X148446537Y-146623506D01*
X148367185Y-146526815D01*
X148270494Y-146447463D01*
X148160180Y-146388498D01*
X148040482Y-146352188D01*
X147916000Y-146339928D01*
X146216000Y-146339928D01*
X146091518Y-146352188D01*
X145971820Y-146388498D01*
X145861506Y-146447463D01*
X145764815Y-146526815D01*
X145685463Y-146623506D01*
X145626498Y-146733820D01*
X145590188Y-146853518D01*
X145577928Y-146978000D01*
X138012512Y-146978000D01*
X139398393Y-145592120D01*
X139398397Y-145592115D01*
X140930513Y-144060000D01*
X162361928Y-144060000D01*
X162361928Y-144500000D01*
X162374188Y-144624482D01*
X162410498Y-144744180D01*
X162469463Y-144854494D01*
X162548815Y-144951185D01*
X162645506Y-145030537D01*
X162755820Y-145089502D01*
X162875518Y-145125812D01*
X163000000Y-145138072D01*
X166000000Y-145138072D01*
X166124482Y-145125812D01*
X166244180Y-145089502D01*
X166354494Y-145030537D01*
X166451185Y-144951185D01*
X166530537Y-144854494D01*
X166589502Y-144744180D01*
X166625812Y-144624482D01*
X166638072Y-144500000D01*
X166638072Y-142000000D01*
X166625812Y-141875518D01*
X166589502Y-141755820D01*
X166530537Y-141645506D01*
X166513708Y-141625000D01*
X166530537Y-141604494D01*
X166589502Y-141494180D01*
X166625812Y-141374482D01*
X166638072Y-141250000D01*
X166638072Y-138750000D01*
X166625812Y-138625518D01*
X166589502Y-138505820D01*
X166530537Y-138395506D01*
X166451185Y-138298815D01*
X166354494Y-138219463D01*
X166244180Y-138160498D01*
X166124482Y-138124188D01*
X166000000Y-138111928D01*
X163000000Y-138111928D01*
X162875518Y-138124188D01*
X162755820Y-138160498D01*
X162645506Y-138219463D01*
X162548815Y-138298815D01*
X162469463Y-138395506D01*
X162410498Y-138505820D01*
X162374188Y-138625518D01*
X162361928Y-138750000D01*
X162361928Y-139190000D01*
X161689788Y-139190000D01*
X161650000Y-139186081D01*
X161610212Y-139190000D01*
X161610209Y-139190000D01*
X161491212Y-139201720D01*
X161338527Y-139248037D01*
X161291364Y-139273246D01*
X161197810Y-139323251D01*
X161133796Y-139375786D01*
X161074472Y-139424472D01*
X161049105Y-139455382D01*
X159769488Y-140735000D01*
X139799788Y-140735000D01*
X139760000Y-140731081D01*
X139720212Y-140735000D01*
X139720209Y-140735000D01*
X139601212Y-140746720D01*
X139448527Y-140793037D01*
X139383024Y-140828049D01*
X139307810Y-140868251D01*
X139243796Y-140920786D01*
X139184472Y-140969472D01*
X139159107Y-141000380D01*
X133014488Y-147145000D01*
X130510513Y-147145000D01*
X130380977Y-147015465D01*
X130479850Y-146985472D01*
X130633386Y-146903405D01*
X130767962Y-146792962D01*
X130878405Y-146658386D01*
X130932777Y-146556663D01*
X130984866Y-146620134D01*
X131210987Y-146805706D01*
X131468967Y-146943599D01*
X131748890Y-147028513D01*
X132040000Y-147057185D01*
X132331111Y-147028513D01*
X132611034Y-146943599D01*
X132869014Y-146805706D01*
X133095134Y-146620134D01*
X133280706Y-146394014D01*
X133376116Y-146215513D01*
X133398788Y-146213280D01*
X133551473Y-146166963D01*
X133692189Y-146091749D01*
X133815528Y-145990528D01*
X133840900Y-145959612D01*
X141830513Y-137970000D01*
X160400212Y-137970000D01*
X160440000Y-137973919D01*
X160479788Y-137970000D01*
X160604791Y-137970000D01*
X160723788Y-137958280D01*
X160876473Y-137911963D01*
X161017189Y-137836749D01*
X161140528Y-137735528D01*
X161241749Y-137612189D01*
X161316963Y-137471473D01*
X161335654Y-137409858D01*
X164044618Y-134700895D01*
X164075528Y-134675528D01*
X164176749Y-134552189D01*
X164251963Y-134411474D01*
X164259062Y-134388072D01*
X166000000Y-134388072D01*
X166124482Y-134375812D01*
X166244180Y-134339502D01*
X166354494Y-134280537D01*
X166451185Y-134201185D01*
X166530537Y-134104494D01*
X166589502Y-133994180D01*
X166625812Y-133874482D01*
X166638072Y-133750000D01*
X166638072Y-131250000D01*
X166625812Y-131125518D01*
X166589502Y-131005820D01*
X166530537Y-130895506D01*
X166513708Y-130875000D01*
X166530537Y-130854494D01*
X166589502Y-130744180D01*
X166625812Y-130624482D01*
X166638072Y-130500000D01*
X166635000Y-129535750D01*
X166476250Y-129377000D01*
X164627000Y-129377000D01*
X164627000Y-129397000D01*
X164373000Y-129397000D01*
X164373000Y-129377000D01*
X162523750Y-129377000D01*
X162365000Y-129535750D01*
X162361928Y-130500000D01*
X162374188Y-130624482D01*
X162410498Y-130744180D01*
X162469463Y-130854494D01*
X162486292Y-130875000D01*
X162469463Y-130895506D01*
X162410498Y-131005820D01*
X162374188Y-131125518D01*
X162361928Y-131250000D01*
X162361928Y-133750000D01*
X162374188Y-133874482D01*
X162410498Y-133994180D01*
X162427848Y-134026639D01*
X160104488Y-136350000D01*
X141534788Y-136350000D01*
X141495000Y-136346081D01*
X141455212Y-136350000D01*
X141455209Y-136350000D01*
X141336212Y-136361720D01*
X141183527Y-136408037D01*
X141118024Y-136443049D01*
X141042810Y-136483251D01*
X140993986Y-136523320D01*
X140919472Y-136584472D01*
X140894107Y-136615380D01*
X133187308Y-144322180D01*
X133095134Y-144209866D01*
X132869013Y-144024294D01*
X132611033Y-143886401D01*
X132331110Y-143801487D01*
X132040000Y-143772815D01*
X131748889Y-143801487D01*
X131468966Y-143886401D01*
X131210986Y-144024294D01*
X130984866Y-144209866D01*
X130932777Y-144273337D01*
X130878405Y-144171614D01*
X130767962Y-144037038D01*
X130633386Y-143926595D01*
X130479850Y-143844528D01*
X130313254Y-143793992D01*
X130140000Y-143776928D01*
X128940000Y-143776928D01*
X128766746Y-143793992D01*
X128600150Y-143844528D01*
X128446614Y-143926595D01*
X128312038Y-144037038D01*
X128201595Y-144171614D01*
X128119528Y-144325150D01*
X128068992Y-144491746D01*
X128051928Y-144665000D01*
X128051928Y-146165000D01*
X128068992Y-146338254D01*
X128119528Y-146504850D01*
X128201595Y-146658386D01*
X128312038Y-146792962D01*
X128446614Y-146903405D01*
X128600150Y-146985472D01*
X128730000Y-147024861D01*
X128730000Y-147280211D01*
X128726081Y-147320000D01*
X128730000Y-147359788D01*
X128730000Y-147359790D01*
X128741720Y-147478787D01*
X128788037Y-147631472D01*
X128823049Y-147696975D01*
X128863251Y-147772189D01*
X128894703Y-147810513D01*
X128964472Y-147895528D01*
X128995387Y-147920899D01*
X129574105Y-148499618D01*
X129599472Y-148530528D01*
X129630380Y-148555893D01*
X129722811Y-148631749D01*
X129863526Y-148706963D01*
X129871412Y-148709355D01*
X130016212Y-148753280D01*
X130135209Y-148765000D01*
X130135212Y-148765000D01*
X130175000Y-148768919D01*
X130214788Y-148765000D01*
X133310212Y-148765000D01*
X133350000Y-148768919D01*
X133389788Y-148765000D01*
X133389791Y-148765000D01*
X133508788Y-148753280D01*
X133661473Y-148706963D01*
X133802189Y-148631749D01*
X133925528Y-148530528D01*
X133950900Y-148499612D01*
X140095513Y-142355000D01*
X160065212Y-142355000D01*
X160105000Y-142358919D01*
X160144788Y-142355000D01*
X160144791Y-142355000D01*
X160263788Y-142343280D01*
X160416473Y-142296963D01*
X160557189Y-142221749D01*
X160680528Y-142120528D01*
X160705899Y-142089613D01*
X161985513Y-140810000D01*
X162361928Y-140810000D01*
X162361928Y-141250000D01*
X162374188Y-141374482D01*
X162410498Y-141494180D01*
X162469463Y-141604494D01*
X162486292Y-141625000D01*
X162469463Y-141645506D01*
X162410498Y-141755820D01*
X162374188Y-141875518D01*
X162361928Y-142000000D01*
X162361928Y-142440000D01*
X140634788Y-142440000D01*
X140595000Y-142436081D01*
X140555212Y-142440000D01*
X140555209Y-142440000D01*
X140436212Y-142451720D01*
X140283527Y-142498037D01*
X140218024Y-142533049D01*
X140142810Y-142573251D01*
X140078796Y-142625786D01*
X140019472Y-142674472D01*
X139994105Y-142705382D01*
X138505381Y-144194107D01*
X138252886Y-144446602D01*
X138252880Y-144446607D01*
X133649488Y-149050000D01*
X126700513Y-149050000D01*
X122647900Y-144997388D01*
X122622528Y-144966472D01*
X122499189Y-144865251D01*
X122358473Y-144790037D01*
X122205788Y-144743720D01*
X122086791Y-144732000D01*
X122086788Y-144732000D01*
X122047000Y-144728081D01*
X122007212Y-144732000D01*
X117704072Y-144732000D01*
X117704072Y-143792000D01*
X117691812Y-143667518D01*
X117655502Y-143547820D01*
X117596537Y-143437506D01*
X117517185Y-143340815D01*
X117420494Y-143261463D01*
X117310180Y-143202498D01*
X117190482Y-143166188D01*
X117066000Y-143153928D01*
X113566000Y-143153928D01*
X113441518Y-143166188D01*
X113321820Y-143202498D01*
X113211506Y-143261463D01*
X113114815Y-143340815D01*
X113035463Y-143437506D01*
X112976498Y-143547820D01*
X112940188Y-143667518D01*
X112927928Y-143792000D01*
X110685000Y-143792000D01*
X110685000Y-137653665D01*
X124295000Y-137653665D01*
X124295000Y-137936335D01*
X124350147Y-138213574D01*
X124458320Y-138474727D01*
X124615363Y-138709759D01*
X124815241Y-138909637D01*
X125050273Y-139066680D01*
X125311426Y-139174853D01*
X125588665Y-139230000D01*
X125871335Y-139230000D01*
X126148574Y-139174853D01*
X126409727Y-139066680D01*
X126644759Y-138909637D01*
X126844637Y-138709759D01*
X127001680Y-138474727D01*
X127086049Y-138271040D01*
X129164091Y-138271040D01*
X129258930Y-138535881D01*
X129403615Y-138777131D01*
X129592586Y-138985519D01*
X129818580Y-139153037D01*
X130072913Y-139273246D01*
X130206961Y-139313904D01*
X130429000Y-139191915D01*
X130429000Y-138049000D01*
X130683000Y-138049000D01*
X130683000Y-139191915D01*
X130905039Y-139313904D01*
X131039087Y-139273246D01*
X131293420Y-139153037D01*
X131519414Y-138985519D01*
X131708385Y-138777131D01*
X131853070Y-138535881D01*
X131947909Y-138271040D01*
X131826624Y-138049000D01*
X130683000Y-138049000D01*
X130429000Y-138049000D01*
X129285376Y-138049000D01*
X129164091Y-138271040D01*
X127086049Y-138271040D01*
X127109853Y-138213574D01*
X127165000Y-137936335D01*
X127165000Y-137653665D01*
X127148947Y-137572960D01*
X129164091Y-137572960D01*
X129285376Y-137795000D01*
X130429000Y-137795000D01*
X130429000Y-136652085D01*
X130683000Y-136652085D01*
X130683000Y-137795000D01*
X131826624Y-137795000D01*
X131947909Y-137572960D01*
X131853070Y-137308119D01*
X131708385Y-137066869D01*
X131519414Y-136858481D01*
X131293420Y-136690963D01*
X131039087Y-136570754D01*
X130905039Y-136530096D01*
X130683000Y-136652085D01*
X130429000Y-136652085D01*
X130206961Y-136530096D01*
X130072913Y-136570754D01*
X129818580Y-136690963D01*
X129592586Y-136858481D01*
X129403615Y-137066869D01*
X129258930Y-137308119D01*
X129164091Y-137572960D01*
X127148947Y-137572960D01*
X127109853Y-137376426D01*
X127001680Y-137115273D01*
X126844637Y-136880241D01*
X126644759Y-136680363D01*
X126409727Y-136523320D01*
X126148574Y-136415147D01*
X125871335Y-136360000D01*
X125588665Y-136360000D01*
X125311426Y-136415147D01*
X125050273Y-136523320D01*
X124815241Y-136680363D01*
X124615363Y-136880241D01*
X124458320Y-137115273D01*
X124350147Y-137376426D01*
X124295000Y-137653665D01*
X110685000Y-137653665D01*
X110685000Y-123317000D01*
X118110000Y-123317000D01*
X118134776Y-123314560D01*
X118158601Y-123307333D01*
X118180557Y-123295597D01*
X118199803Y-123279803D01*
X118215597Y-123260557D01*
X118227333Y-123238601D01*
X118234560Y-123214776D01*
X118237000Y-123190000D01*
X118237000Y-122905195D01*
X118255518Y-122910812D01*
X118380000Y-122923072D01*
X120380000Y-122923072D01*
X120504482Y-122910812D01*
X120624180Y-122874502D01*
X120734494Y-122815537D01*
X120831185Y-122736185D01*
X120910537Y-122639494D01*
X120957559Y-122551523D01*
X121118900Y-122683932D01*
X121368193Y-122817182D01*
X121638692Y-122899236D01*
X121920000Y-122926943D01*
X122201309Y-122899236D01*
X122471808Y-122817182D01*
X122574991Y-122762030D01*
X122574990Y-129647668D01*
X122571314Y-129684990D01*
X122574990Y-129722312D01*
X122574990Y-129722322D01*
X122585987Y-129833975D01*
X122600101Y-129880502D01*
X122629444Y-129977236D01*
X122700016Y-130109266D01*
X122735920Y-130153015D01*
X122794989Y-130224991D01*
X122823993Y-130248794D01*
X123387199Y-130812000D01*
X117577774Y-130812000D01*
X117530113Y-130654884D01*
X117308649Y-130240554D01*
X117010609Y-129877391D01*
X116647446Y-129579351D01*
X116233116Y-129357887D01*
X115783542Y-129221510D01*
X115433157Y-129187000D01*
X115198843Y-129187000D01*
X114848458Y-129221510D01*
X114398884Y-129357887D01*
X113984554Y-129579351D01*
X113621391Y-129877391D01*
X113323351Y-130240554D01*
X113101887Y-130654884D01*
X112965510Y-131104458D01*
X112919461Y-131572000D01*
X112965510Y-132039542D01*
X113101887Y-132489116D01*
X113323351Y-132903446D01*
X113621391Y-133266609D01*
X113984554Y-133564649D01*
X114398884Y-133786113D01*
X114848458Y-133922490D01*
X115198843Y-133957000D01*
X115433157Y-133957000D01*
X115783542Y-133922490D01*
X116233116Y-133786113D01*
X116647446Y-133564649D01*
X117010609Y-133266609D01*
X117308649Y-132903446D01*
X117530113Y-132489116D01*
X117577774Y-132332000D01*
X150500678Y-132332000D01*
X150538000Y-132335676D01*
X150575322Y-132332000D01*
X150575333Y-132332000D01*
X150686986Y-132321003D01*
X150830247Y-132277546D01*
X150962276Y-132206974D01*
X151078001Y-132112001D01*
X151101804Y-132082997D01*
X155184801Y-128000000D01*
X162361928Y-128000000D01*
X162365000Y-128964250D01*
X162523750Y-129123000D01*
X164373000Y-129123000D01*
X164373000Y-127523750D01*
X164627000Y-127523750D01*
X164627000Y-129123000D01*
X166476250Y-129123000D01*
X166635000Y-128964250D01*
X166638072Y-128000000D01*
X166625812Y-127875518D01*
X166589502Y-127755820D01*
X166530537Y-127645506D01*
X166451185Y-127548815D01*
X166354494Y-127469463D01*
X166244180Y-127410498D01*
X166124482Y-127374188D01*
X166000000Y-127361928D01*
X164785750Y-127365000D01*
X164627000Y-127523750D01*
X164373000Y-127523750D01*
X164214250Y-127365000D01*
X163000000Y-127361928D01*
X162875518Y-127374188D01*
X162755820Y-127410498D01*
X162645506Y-127469463D01*
X162548815Y-127548815D01*
X162469463Y-127645506D01*
X162410498Y-127755820D01*
X162374188Y-127875518D01*
X162361928Y-128000000D01*
X155184801Y-128000000D01*
X160636730Y-122548072D01*
X163700000Y-122548072D01*
X163824482Y-122535812D01*
X163944180Y-122499502D01*
X164054494Y-122440537D01*
X164151185Y-122361185D01*
X164230537Y-122264494D01*
X164289502Y-122154180D01*
X164325812Y-122034482D01*
X164338072Y-121910000D01*
X164338072Y-116910000D01*
X164325812Y-116785518D01*
X164289502Y-116665820D01*
X164230537Y-116555506D01*
X164151185Y-116458815D01*
X164054494Y-116379463D01*
X163944180Y-116320498D01*
X163824482Y-116284188D01*
X163700000Y-116271928D01*
X160200000Y-116271928D01*
X160075518Y-116284188D01*
X159955820Y-116320498D01*
X159845506Y-116379463D01*
X159748815Y-116458815D01*
X159669463Y-116555506D01*
X159610498Y-116665820D01*
X159574188Y-116785518D01*
X159561928Y-116910000D01*
X159561928Y-121473270D01*
X150223199Y-130812000D01*
X137724801Y-130812000D01*
X138620345Y-129916456D01*
X138621518Y-129916812D01*
X138746000Y-129929072D01*
X140306000Y-129929072D01*
X140430482Y-129916812D01*
X140550180Y-129880502D01*
X140660494Y-129821537D01*
X140757185Y-129742185D01*
X140836537Y-129645494D01*
X140895502Y-129535180D01*
X140931812Y-129415482D01*
X140944072Y-129291000D01*
X140944072Y-128826000D01*
X141589300Y-128826000D01*
X141749744Y-128933205D01*
X141938102Y-129011226D01*
X142138061Y-129051000D01*
X142341939Y-129051000D01*
X142541898Y-129011226D01*
X142730256Y-128933205D01*
X142899774Y-128819937D01*
X143043937Y-128675774D01*
X143157205Y-128506256D01*
X143235226Y-128317898D01*
X143275000Y-128117939D01*
X143275000Y-127914061D01*
X143235226Y-127714102D01*
X143157205Y-127525744D01*
X143043937Y-127356226D01*
X142899774Y-127212063D01*
X142730256Y-127098795D01*
X142541898Y-127020774D01*
X142341939Y-126981000D01*
X142138061Y-126981000D01*
X141938102Y-127020774D01*
X141749744Y-127098795D01*
X141589300Y-127206000D01*
X140795250Y-127206000D01*
X140782250Y-127193000D01*
X140700141Y-127193000D01*
X140660494Y-127160463D01*
X140550180Y-127101498D01*
X140430482Y-127065188D01*
X140306000Y-127052928D01*
X139379000Y-127052928D01*
X139379000Y-126939000D01*
X139399000Y-126939000D01*
X139399000Y-126264750D01*
X139653000Y-126264750D01*
X139653000Y-126939000D01*
X140782250Y-126939000D01*
X140941000Y-126780250D01*
X140944072Y-126741000D01*
X140931812Y-126616518D01*
X140895502Y-126496820D01*
X140836537Y-126386506D01*
X140757185Y-126289815D01*
X140660494Y-126210463D01*
X140550180Y-126151498D01*
X140430482Y-126115188D01*
X140306000Y-126102928D01*
X139811750Y-126106000D01*
X139653000Y-126264750D01*
X139399000Y-126264750D01*
X139240250Y-126106000D01*
X138746000Y-126102928D01*
X138621518Y-126115188D01*
X138501820Y-126151498D01*
X138391506Y-126210463D01*
X138294815Y-126289815D01*
X138215463Y-126386506D01*
X138176000Y-126460335D01*
X138136537Y-126386506D01*
X138057185Y-126289815D01*
X137960494Y-126210463D01*
X137850180Y-126151498D01*
X137730482Y-126115188D01*
X137606000Y-126102928D01*
X136046000Y-126102928D01*
X135921518Y-126115188D01*
X135801820Y-126151498D01*
X135707337Y-126202001D01*
X131393321Y-126202001D01*
X131355998Y-126198325D01*
X131318675Y-126202001D01*
X131318666Y-126202001D01*
X131207013Y-126212998D01*
X131063752Y-126256455D01*
X130931723Y-126327027D01*
X130931721Y-126327028D01*
X130931722Y-126327028D01*
X130886022Y-126364533D01*
X130697335Y-126327000D01*
X130414665Y-126327000D01*
X130137426Y-126382147D01*
X129876273Y-126490320D01*
X129641241Y-126647363D01*
X129441363Y-126847241D01*
X129422815Y-126875000D01*
X126950901Y-126875000D01*
X126928932Y-126833899D01*
X126749608Y-126615392D01*
X126531101Y-126436068D01*
X126281808Y-126302818D01*
X126011309Y-126220764D01*
X125800492Y-126200000D01*
X125659508Y-126200000D01*
X125448691Y-126220764D01*
X125178192Y-126302818D01*
X124928899Y-126436068D01*
X124710392Y-126615392D01*
X124531068Y-126833899D01*
X124397818Y-127083192D01*
X124315764Y-127353691D01*
X124288057Y-127635000D01*
X124315764Y-127916309D01*
X124397818Y-128186808D01*
X124531068Y-128436101D01*
X124710392Y-128654608D01*
X124928899Y-128833932D01*
X125178192Y-128967182D01*
X125448691Y-129049236D01*
X125659508Y-129070000D01*
X125800492Y-129070000D01*
X126011309Y-129049236D01*
X126281808Y-128967182D01*
X126531101Y-128833932D01*
X126749608Y-128654608D01*
X126928932Y-128436101D01*
X126950901Y-128395000D01*
X129264965Y-128395000D01*
X129284320Y-128441727D01*
X129441363Y-128676759D01*
X129641241Y-128876637D01*
X129876273Y-129033680D01*
X130137426Y-129141853D01*
X130414665Y-129197000D01*
X130697335Y-129197000D01*
X130974574Y-129141853D01*
X131235727Y-129033680D01*
X131470759Y-128876637D01*
X131670637Y-128676759D01*
X131827680Y-128441727D01*
X131935853Y-128180574D01*
X131991000Y-127903335D01*
X131991000Y-127722001D01*
X135410354Y-127722001D01*
X135411000Y-127730250D01*
X135569750Y-127889000D01*
X135651859Y-127889000D01*
X135691506Y-127921537D01*
X135801820Y-127980502D01*
X135918841Y-128016000D01*
X135801820Y-128051498D01*
X135691506Y-128110463D01*
X135651859Y-128143000D01*
X135569750Y-128143000D01*
X135411000Y-128301750D01*
X135407928Y-128341000D01*
X135420188Y-128465482D01*
X135427929Y-128491000D01*
X135420188Y-128516518D01*
X135407928Y-128641000D01*
X135407928Y-129267000D01*
X135280061Y-129267000D01*
X135080102Y-129306774D01*
X134891744Y-129384795D01*
X134722226Y-129498063D01*
X134578063Y-129642226D01*
X134464795Y-129811744D01*
X134386774Y-130000102D01*
X134347000Y-130200061D01*
X134347000Y-130304000D01*
X125028802Y-130304000D01*
X124094990Y-129370189D01*
X124094990Y-122873846D01*
X124178692Y-122899236D01*
X124460000Y-122926943D01*
X124741309Y-122899236D01*
X125011808Y-122817182D01*
X125261101Y-122683932D01*
X125479608Y-122504608D01*
X125658932Y-122286101D01*
X125730000Y-122153142D01*
X125801068Y-122286101D01*
X125980393Y-122504608D01*
X126198900Y-122683932D01*
X126448193Y-122817182D01*
X126718692Y-122899236D01*
X127000000Y-122926943D01*
X127281309Y-122899236D01*
X127551808Y-122817182D01*
X127801101Y-122683932D01*
X128019608Y-122504608D01*
X128198932Y-122286101D01*
X128270000Y-122153142D01*
X128341068Y-122286101D01*
X128520393Y-122504608D01*
X128738900Y-122683932D01*
X128988193Y-122817182D01*
X129258692Y-122899236D01*
X129540000Y-122926943D01*
X129821309Y-122899236D01*
X130091808Y-122817182D01*
X130341101Y-122683932D01*
X130559608Y-122504608D01*
X130738932Y-122286101D01*
X130810000Y-122153142D01*
X130881068Y-122286101D01*
X131060393Y-122504608D01*
X131278900Y-122683932D01*
X131528193Y-122817182D01*
X131798692Y-122899236D01*
X132080000Y-122926943D01*
X132361309Y-122899236D01*
X132631808Y-122817182D01*
X132881101Y-122683932D01*
X133099608Y-122504608D01*
X133278932Y-122286101D01*
X133350000Y-122153142D01*
X133421068Y-122286101D01*
X133600393Y-122504608D01*
X133818900Y-122683932D01*
X134068193Y-122817182D01*
X134338692Y-122899236D01*
X134620000Y-122926943D01*
X134901309Y-122899236D01*
X135171808Y-122817182D01*
X135421101Y-122683932D01*
X135639608Y-122504608D01*
X135818932Y-122286101D01*
X135890000Y-122153142D01*
X135961068Y-122286101D01*
X136140393Y-122504608D01*
X136358900Y-122683932D01*
X136608193Y-122817182D01*
X136878692Y-122899236D01*
X137160000Y-122926943D01*
X137441309Y-122899236D01*
X137711808Y-122817182D01*
X137961101Y-122683932D01*
X138179608Y-122504608D01*
X138358932Y-122286101D01*
X138492182Y-122036807D01*
X138530648Y-121910000D01*
X153111928Y-121910000D01*
X153124188Y-122034482D01*
X153160498Y-122154180D01*
X153219463Y-122264494D01*
X153298815Y-122361185D01*
X153395506Y-122440537D01*
X153505820Y-122499502D01*
X153625518Y-122535812D01*
X153750000Y-122548072D01*
X155214250Y-122545000D01*
X155373000Y-122386250D01*
X155373000Y-119537000D01*
X155627000Y-119537000D01*
X155627000Y-122386250D01*
X155785750Y-122545000D01*
X157250000Y-122548072D01*
X157374482Y-122535812D01*
X157494180Y-122499502D01*
X157604494Y-122440537D01*
X157701185Y-122361185D01*
X157780537Y-122264494D01*
X157839502Y-122154180D01*
X157875812Y-122034482D01*
X157888072Y-121910000D01*
X157885000Y-119695750D01*
X157726250Y-119537000D01*
X155627000Y-119537000D01*
X155373000Y-119537000D01*
X153273750Y-119537000D01*
X153115000Y-119695750D01*
X153111928Y-121910000D01*
X138530648Y-121910000D01*
X138574236Y-121766308D01*
X138595000Y-121555491D01*
X138595000Y-121014508D01*
X138574236Y-120803691D01*
X138492182Y-120533192D01*
X138358932Y-120283899D01*
X138179607Y-120065392D01*
X137961100Y-119886068D01*
X137711807Y-119752818D01*
X137441308Y-119670764D01*
X137160000Y-119643057D01*
X136878691Y-119670764D01*
X136608192Y-119752818D01*
X136358899Y-119886068D01*
X136140392Y-120065393D01*
X135961068Y-120283900D01*
X135890000Y-120416858D01*
X135818932Y-120283899D01*
X135639607Y-120065392D01*
X135421100Y-119886068D01*
X135171807Y-119752818D01*
X134901308Y-119670764D01*
X134620000Y-119643057D01*
X134338691Y-119670764D01*
X134068192Y-119752818D01*
X133818899Y-119886068D01*
X133600392Y-120065393D01*
X133421068Y-120283900D01*
X133350000Y-120416858D01*
X133278932Y-120283899D01*
X133099607Y-120065392D01*
X132881100Y-119886068D01*
X132631807Y-119752818D01*
X132361308Y-119670764D01*
X132080000Y-119643057D01*
X131798691Y-119670764D01*
X131528192Y-119752818D01*
X131278899Y-119886068D01*
X131060392Y-120065393D01*
X130881068Y-120283900D01*
X130810000Y-120416858D01*
X130738932Y-120283899D01*
X130559607Y-120065392D01*
X130341100Y-119886068D01*
X130091807Y-119752818D01*
X129821308Y-119670764D01*
X129540000Y-119643057D01*
X129258691Y-119670764D01*
X128988192Y-119752818D01*
X128738899Y-119886068D01*
X128520392Y-120065393D01*
X128341068Y-120283900D01*
X128270000Y-120416858D01*
X128198932Y-120283899D01*
X128019607Y-120065392D01*
X127801100Y-119886068D01*
X127551807Y-119752818D01*
X127281308Y-119670764D01*
X127000000Y-119643057D01*
X126718691Y-119670764D01*
X126448192Y-119752818D01*
X126198899Y-119886068D01*
X125980392Y-120065393D01*
X125801068Y-120283900D01*
X125730000Y-120416858D01*
X125658932Y-120283899D01*
X125479607Y-120065392D01*
X125261100Y-119886068D01*
X125183961Y-119844836D01*
X127511004Y-117517794D01*
X127540001Y-117493997D01*
X127634974Y-117378272D01*
X127705546Y-117246243D01*
X127749003Y-117102982D01*
X127760000Y-116991329D01*
X127760000Y-116991319D01*
X127763676Y-116953996D01*
X127760000Y-116916673D01*
X127760000Y-116910000D01*
X153111928Y-116910000D01*
X153115000Y-119124250D01*
X153273750Y-119283000D01*
X155373000Y-119283000D01*
X155373000Y-116433750D01*
X155627000Y-116433750D01*
X155627000Y-119283000D01*
X157726250Y-119283000D01*
X157885000Y-119124250D01*
X157888072Y-116910000D01*
X157875812Y-116785518D01*
X157839502Y-116665820D01*
X157780537Y-116555506D01*
X157701185Y-116458815D01*
X157604494Y-116379463D01*
X157494180Y-116320498D01*
X157374482Y-116284188D01*
X157250000Y-116271928D01*
X155785750Y-116275000D01*
X155627000Y-116433750D01*
X155373000Y-116433750D01*
X155214250Y-116275000D01*
X153750000Y-116271928D01*
X153625518Y-116284188D01*
X153505820Y-116320498D01*
X153395506Y-116379463D01*
X153298815Y-116458815D01*
X153219463Y-116555506D01*
X153160498Y-116665820D01*
X153124188Y-116785518D01*
X153111928Y-116910000D01*
X127760000Y-116910000D01*
X127760000Y-99845901D01*
X127801101Y-99823932D01*
X128019608Y-99644608D01*
X128198932Y-99426101D01*
X128270000Y-99293142D01*
X128341068Y-99426101D01*
X128520393Y-99644608D01*
X128738900Y-99823932D01*
X128988193Y-99957182D01*
X129258692Y-100039236D01*
X129540000Y-100066943D01*
X129821309Y-100039236D01*
X130091808Y-99957182D01*
X130341101Y-99823932D01*
X130559608Y-99644608D01*
X130738932Y-99426101D01*
X130810000Y-99293142D01*
X130881068Y-99426101D01*
X131060393Y-99644608D01*
X131278900Y-99823932D01*
X131528193Y-99957182D01*
X131798692Y-100039236D01*
X132080000Y-100066943D01*
X132361309Y-100039236D01*
X132631808Y-99957182D01*
X132881101Y-99823932D01*
X133099608Y-99644608D01*
X133278932Y-99426101D01*
X133348122Y-99296655D01*
X133355570Y-99314227D01*
X133514327Y-99547662D01*
X133715575Y-99745639D01*
X133951579Y-99900551D01*
X134213270Y-100006444D01*
X134270961Y-100016904D01*
X134493000Y-99894915D01*
X134493000Y-98552000D01*
X134473000Y-98552000D01*
X134473000Y-98298000D01*
X134493000Y-98298000D01*
X134493000Y-96955085D01*
X134270961Y-96833096D01*
X134213270Y-96843556D01*
X133951579Y-96949449D01*
X133715575Y-97104361D01*
X133514327Y-97302338D01*
X133355570Y-97535773D01*
X133348122Y-97553345D01*
X133278932Y-97423899D01*
X133099607Y-97205392D01*
X132881100Y-97026068D01*
X132631807Y-96892818D01*
X132361308Y-96810764D01*
X132080000Y-96783057D01*
X131798691Y-96810764D01*
X131528192Y-96892818D01*
X131278899Y-97026068D01*
X131060392Y-97205393D01*
X130881068Y-97423900D01*
X130810000Y-97556858D01*
X130738932Y-97423899D01*
X130559607Y-97205392D01*
X130341100Y-97026068D01*
X130091807Y-96892818D01*
X129821308Y-96810764D01*
X129540000Y-96783057D01*
X129258691Y-96810764D01*
X128988192Y-96892818D01*
X128738899Y-97026068D01*
X128520392Y-97205393D01*
X128341068Y-97423900D01*
X128270000Y-97556858D01*
X128198932Y-97423899D01*
X128030787Y-97219015D01*
X128604803Y-96645000D01*
X142202678Y-96645000D01*
X142240000Y-96648676D01*
X142277322Y-96645000D01*
X142277333Y-96645000D01*
X142388986Y-96634003D01*
X142532247Y-96590546D01*
X142664276Y-96519974D01*
X142780001Y-96425001D01*
X142803804Y-96395997D01*
X148289801Y-90910000D01*
X153111928Y-90910000D01*
X153124188Y-91034482D01*
X153160498Y-91154180D01*
X153219463Y-91264494D01*
X153298815Y-91361185D01*
X153395506Y-91440537D01*
X153505820Y-91499502D01*
X153625518Y-91535812D01*
X153750000Y-91548072D01*
X155214250Y-91545000D01*
X155373000Y-91386250D01*
X155373000Y-88537000D01*
X155627000Y-88537000D01*
X155627000Y-91386250D01*
X155785750Y-91545000D01*
X157250000Y-91548072D01*
X157374482Y-91535812D01*
X157494180Y-91499502D01*
X157604494Y-91440537D01*
X157701185Y-91361185D01*
X157780537Y-91264494D01*
X157839502Y-91154180D01*
X157875812Y-91034482D01*
X157888072Y-90910000D01*
X157885000Y-88695750D01*
X157726250Y-88537000D01*
X155627000Y-88537000D01*
X155373000Y-88537000D01*
X153273750Y-88537000D01*
X153115000Y-88695750D01*
X153111928Y-90910000D01*
X148289801Y-90910000D01*
X153112174Y-86087627D01*
X153115000Y-88124250D01*
X153273750Y-88283000D01*
X155373000Y-88283000D01*
X155373000Y-85433750D01*
X155627000Y-85433750D01*
X155627000Y-88283000D01*
X157726250Y-88283000D01*
X157885000Y-88124250D01*
X157888072Y-85910000D01*
X157875812Y-85785518D01*
X157839502Y-85665820D01*
X157780537Y-85555506D01*
X157701185Y-85458815D01*
X157604494Y-85379463D01*
X157494180Y-85320498D01*
X157374482Y-85284188D01*
X157250000Y-85271928D01*
X155785750Y-85275000D01*
X155627000Y-85433750D01*
X155373000Y-85433750D01*
X155214250Y-85275000D01*
X153927501Y-85272300D01*
X158244811Y-80954991D01*
X178872271Y-80954991D01*
X181259774Y-83342494D01*
X181189866Y-83399866D01*
X181004294Y-83625986D01*
X180975000Y-83680791D01*
X180945706Y-83625986D01*
X180760134Y-83399866D01*
X180534014Y-83214294D01*
X180516933Y-83205164D01*
X180518919Y-83184999D01*
X180513379Y-83128750D01*
X180503280Y-83026212D01*
X180456963Y-82873527D01*
X180381750Y-82732812D01*
X180381749Y-82732810D01*
X180327709Y-82666963D01*
X180280528Y-82609472D01*
X180249619Y-82584106D01*
X179035899Y-81370387D01*
X179010528Y-81339472D01*
X178887189Y-81238251D01*
X178746473Y-81163037D01*
X178593788Y-81116720D01*
X178474791Y-81105000D01*
X178474788Y-81105000D01*
X178435000Y-81101081D01*
X178395212Y-81105000D01*
X170634787Y-81105000D01*
X170594999Y-81101081D01*
X170555211Y-81105000D01*
X170555209Y-81105000D01*
X170436212Y-81116720D01*
X170283527Y-81163037D01*
X170218024Y-81198049D01*
X170142810Y-81238251D01*
X170091939Y-81280000D01*
X170019472Y-81339472D01*
X169994105Y-81370382D01*
X164388072Y-86976416D01*
X164388072Y-85910000D01*
X164375812Y-85785518D01*
X164339502Y-85665820D01*
X164280537Y-85555506D01*
X164201185Y-85458815D01*
X164104494Y-85379463D01*
X163994180Y-85320498D01*
X163874482Y-85284188D01*
X163750000Y-85271928D01*
X160250000Y-85271928D01*
X160125518Y-85284188D01*
X160005820Y-85320498D01*
X159895506Y-85379463D01*
X159798815Y-85458815D01*
X159719463Y-85555506D01*
X159660498Y-85665820D01*
X159624188Y-85785518D01*
X159611928Y-85910000D01*
X159611928Y-90402560D01*
X158114488Y-91900000D01*
X152439791Y-91900000D01*
X152400000Y-91896081D01*
X152241212Y-91911720D01*
X152088526Y-91958037D01*
X151965145Y-92023986D01*
X151947811Y-92033251D01*
X151824472Y-92134472D01*
X151799107Y-92165380D01*
X146349488Y-97615000D01*
X138461078Y-97615000D01*
X138358932Y-97423899D01*
X138179607Y-97205392D01*
X137961100Y-97026068D01*
X137711807Y-96892818D01*
X137441308Y-96810764D01*
X137160000Y-96783057D01*
X136878691Y-96810764D01*
X136608192Y-96892818D01*
X136358899Y-97026068D01*
X136140392Y-97205393D01*
X135961068Y-97423900D01*
X135891878Y-97553345D01*
X135884430Y-97535773D01*
X135725673Y-97302338D01*
X135524425Y-97104361D01*
X135288421Y-96949449D01*
X135026730Y-96843556D01*
X134969039Y-96833096D01*
X134747000Y-96955085D01*
X134747000Y-98298000D01*
X134767000Y-98298000D01*
X134767000Y-98552000D01*
X134747000Y-98552000D01*
X134747000Y-99894915D01*
X134969039Y-100016904D01*
X135026730Y-100006444D01*
X135288421Y-99900551D01*
X135524425Y-99745639D01*
X135725673Y-99547662D01*
X135884430Y-99314227D01*
X135891878Y-99296655D01*
X135961068Y-99426101D01*
X136140393Y-99644608D01*
X136358900Y-99823932D01*
X136608193Y-99957182D01*
X136878692Y-100039236D01*
X137160000Y-100066943D01*
X137441309Y-100039236D01*
X137711808Y-99957182D01*
X137961101Y-99823932D01*
X138179608Y-99644608D01*
X138358932Y-99426101D01*
X138461077Y-99235000D01*
X146645212Y-99235000D01*
X146685000Y-99238919D01*
X146724788Y-99235000D01*
X146724791Y-99235000D01*
X146843788Y-99223280D01*
X146996473Y-99176963D01*
X147137189Y-99101749D01*
X147260528Y-99000528D01*
X147285900Y-98969612D01*
X148761470Y-97494042D01*
X152065000Y-97494042D01*
X152065000Y-97825958D01*
X152129754Y-98151496D01*
X152256772Y-98458147D01*
X152441175Y-98734125D01*
X152675875Y-98968825D01*
X152951853Y-99153228D01*
X153258504Y-99280246D01*
X153584042Y-99345000D01*
X153915958Y-99345000D01*
X154241496Y-99280246D01*
X154548147Y-99153228D01*
X154824125Y-98968825D01*
X154909157Y-98883793D01*
X154756772Y-99111853D01*
X154629754Y-99418504D01*
X154565000Y-99744042D01*
X154565000Y-100075958D01*
X154629754Y-100401496D01*
X154756772Y-100708147D01*
X154941175Y-100984125D01*
X155175875Y-101218825D01*
X155451853Y-101403228D01*
X155758504Y-101530246D01*
X156084042Y-101595000D01*
X156415958Y-101595000D01*
X156741496Y-101530246D01*
X157048147Y-101403228D01*
X157324125Y-101218825D01*
X157558825Y-100984125D01*
X157743228Y-100708147D01*
X157870246Y-100401496D01*
X157935000Y-100075958D01*
X157935000Y-99744042D01*
X157870246Y-99418504D01*
X157743228Y-99111853D01*
X157558825Y-98835875D01*
X157324125Y-98601175D01*
X157048147Y-98416772D01*
X156741496Y-98289754D01*
X156415958Y-98225000D01*
X156084042Y-98225000D01*
X155758504Y-98289754D01*
X155451853Y-98416772D01*
X155175875Y-98601175D01*
X155090843Y-98686207D01*
X155243228Y-98458147D01*
X155370246Y-98151496D01*
X155435000Y-97825958D01*
X155435000Y-97494042D01*
X155370246Y-97168504D01*
X155243228Y-96861853D01*
X155058825Y-96585875D01*
X154824125Y-96351175D01*
X154548147Y-96166772D01*
X154241496Y-96039754D01*
X153915958Y-95975000D01*
X153584042Y-95975000D01*
X153258504Y-96039754D01*
X152951853Y-96166772D01*
X152675875Y-96351175D01*
X152441175Y-96585875D01*
X152256772Y-96861853D01*
X152129754Y-97168504D01*
X152065000Y-97494042D01*
X148761470Y-97494042D01*
X152735513Y-93520000D01*
X155297362Y-93520000D01*
X155175875Y-93601175D01*
X154941175Y-93835875D01*
X154756772Y-94111853D01*
X154629754Y-94418504D01*
X154565000Y-94744042D01*
X154565000Y-95075958D01*
X154629754Y-95401496D01*
X154756772Y-95708147D01*
X154941175Y-95984125D01*
X155175875Y-96218825D01*
X155451853Y-96403228D01*
X155758504Y-96530246D01*
X156084042Y-96595000D01*
X156415958Y-96595000D01*
X156741496Y-96530246D01*
X157048147Y-96403228D01*
X157324125Y-96218825D01*
X157558825Y-95984125D01*
X157743228Y-95708147D01*
X157870246Y-95401496D01*
X157935000Y-95075958D01*
X157935000Y-94744042D01*
X157870246Y-94418504D01*
X157743228Y-94111853D01*
X157558825Y-93835875D01*
X157324125Y-93601175D01*
X157202638Y-93520000D01*
X158410212Y-93520000D01*
X158450000Y-93523919D01*
X158489788Y-93520000D01*
X158489791Y-93520000D01*
X158608788Y-93508280D01*
X158761473Y-93461963D01*
X158902189Y-93386749D01*
X159025528Y-93285528D01*
X159050900Y-93254612D01*
X160757440Y-91548072D01*
X163750000Y-91548072D01*
X163874482Y-91535812D01*
X163994180Y-91499502D01*
X164104494Y-91440537D01*
X164201185Y-91361185D01*
X164280537Y-91264494D01*
X164339502Y-91154180D01*
X164375812Y-91034482D01*
X164388072Y-90910000D01*
X164388072Y-89169062D01*
X164411473Y-89161963D01*
X164552189Y-89086749D01*
X164675528Y-88985528D01*
X164700900Y-88954612D01*
X166025512Y-87630000D01*
X171862815Y-87630000D01*
X171891487Y-87921111D01*
X171976401Y-88201034D01*
X172114294Y-88459014D01*
X172299866Y-88685134D01*
X172525986Y-88870706D01*
X172580791Y-88900000D01*
X172525986Y-88929294D01*
X172299866Y-89114866D01*
X172114294Y-89340986D01*
X171976401Y-89598966D01*
X171891487Y-89878889D01*
X171862815Y-90170000D01*
X171891487Y-90461111D01*
X171976401Y-90741034D01*
X172114294Y-90999014D01*
X172299866Y-91225134D01*
X172525986Y-91410706D01*
X172580791Y-91440000D01*
X172525986Y-91469294D01*
X172299866Y-91654866D01*
X172114294Y-91880986D01*
X171976401Y-92138966D01*
X171891487Y-92418889D01*
X171862815Y-92710000D01*
X171891487Y-93001111D01*
X171976401Y-93281034D01*
X172114294Y-93539014D01*
X172299866Y-93765134D01*
X172525986Y-93950706D01*
X172580791Y-93980000D01*
X172525986Y-94009294D01*
X172299866Y-94194866D01*
X172114294Y-94420986D01*
X171976401Y-94678966D01*
X171891487Y-94958889D01*
X171862815Y-95250000D01*
X171891487Y-95541111D01*
X171976401Y-95821034D01*
X172114294Y-96079014D01*
X172299866Y-96305134D01*
X172525986Y-96490706D01*
X172580791Y-96520000D01*
X172525986Y-96549294D01*
X172299866Y-96734866D01*
X172114294Y-96960986D01*
X171976401Y-97218966D01*
X171891487Y-97498889D01*
X171862815Y-97790000D01*
X171891487Y-98081111D01*
X171976401Y-98361034D01*
X172114294Y-98619014D01*
X172299866Y-98845134D01*
X172525986Y-99030706D01*
X172580791Y-99060000D01*
X172525986Y-99089294D01*
X172299866Y-99274866D01*
X172114294Y-99500986D01*
X171976401Y-99758966D01*
X171891487Y-100038889D01*
X171862815Y-100330000D01*
X171891487Y-100621111D01*
X171976401Y-100901034D01*
X172114294Y-101159014D01*
X172299866Y-101385134D01*
X172525986Y-101570706D01*
X172580791Y-101600000D01*
X172525986Y-101629294D01*
X172299866Y-101814866D01*
X172114294Y-102040986D01*
X171976401Y-102298966D01*
X171891487Y-102578889D01*
X171862815Y-102870000D01*
X171891487Y-103161111D01*
X171976401Y-103441034D01*
X172114294Y-103699014D01*
X172299866Y-103925134D01*
X172525986Y-104110706D01*
X172580791Y-104140000D01*
X172525986Y-104169294D01*
X172299866Y-104354866D01*
X172114294Y-104580986D01*
X171976401Y-104838966D01*
X171891487Y-105118889D01*
X171862815Y-105410000D01*
X171891487Y-105701111D01*
X171976401Y-105981034D01*
X172114294Y-106239014D01*
X172299866Y-106465134D01*
X172525986Y-106650706D01*
X172580791Y-106680000D01*
X172525986Y-106709294D01*
X172299866Y-106894866D01*
X172114294Y-107120986D01*
X171976401Y-107378966D01*
X171891487Y-107658889D01*
X171862815Y-107950000D01*
X171891487Y-108241111D01*
X171976401Y-108521034D01*
X172114294Y-108779014D01*
X172299866Y-109005134D01*
X172525986Y-109190706D01*
X172580791Y-109220000D01*
X172525986Y-109249294D01*
X172299866Y-109434866D01*
X172114294Y-109660986D01*
X171976401Y-109918966D01*
X171891487Y-110198889D01*
X171862815Y-110490000D01*
X171891487Y-110781111D01*
X171976401Y-111061034D01*
X172114294Y-111319014D01*
X172299866Y-111545134D01*
X172525986Y-111730706D01*
X172580791Y-111760000D01*
X172525986Y-111789294D01*
X172299866Y-111974866D01*
X172114294Y-112200986D01*
X171976401Y-112458966D01*
X171891487Y-112738889D01*
X171862815Y-113030000D01*
X171891487Y-113321111D01*
X171976401Y-113601034D01*
X172114294Y-113859014D01*
X172299866Y-114085134D01*
X172525986Y-114270706D01*
X172580791Y-114300000D01*
X172525986Y-114329294D01*
X172299866Y-114514866D01*
X172114294Y-114740986D01*
X171976401Y-114998966D01*
X171891487Y-115278889D01*
X171862815Y-115570000D01*
X171891487Y-115861111D01*
X171976401Y-116141034D01*
X172114294Y-116399014D01*
X172299866Y-116625134D01*
X172525986Y-116810706D01*
X172580791Y-116840000D01*
X172525986Y-116869294D01*
X172299866Y-117054866D01*
X172114294Y-117280986D01*
X171976401Y-117538966D01*
X171891487Y-117818889D01*
X171862815Y-118110000D01*
X171891487Y-118401111D01*
X171976401Y-118681034D01*
X172114294Y-118939014D01*
X172299866Y-119165134D01*
X172525986Y-119350706D01*
X172580791Y-119380000D01*
X172525986Y-119409294D01*
X172299866Y-119594866D01*
X172114294Y-119820986D01*
X171976401Y-120078966D01*
X171891487Y-120358889D01*
X171862815Y-120650000D01*
X171891487Y-120941111D01*
X171976401Y-121221034D01*
X172114294Y-121479014D01*
X172299866Y-121705134D01*
X172525986Y-121890706D01*
X172580791Y-121920000D01*
X172525986Y-121949294D01*
X172299866Y-122134866D01*
X172114294Y-122360986D01*
X171976401Y-122618966D01*
X171891487Y-122898889D01*
X171862815Y-123190000D01*
X171891487Y-123481111D01*
X171976401Y-123761034D01*
X172114294Y-124019014D01*
X172299866Y-124245134D01*
X172525986Y-124430706D01*
X172783966Y-124568599D01*
X173063889Y-124653513D01*
X173282050Y-124675000D01*
X173427950Y-124675000D01*
X173646111Y-124653513D01*
X173926034Y-124568599D01*
X174184014Y-124430706D01*
X174410134Y-124245134D01*
X174595706Y-124019014D01*
X174733599Y-123761034D01*
X174818513Y-123481111D01*
X174847185Y-123190000D01*
X174818513Y-122898889D01*
X174733599Y-122618966D01*
X174595706Y-122360986D01*
X174410134Y-122134866D01*
X174184014Y-121949294D01*
X174129209Y-121920000D01*
X174184014Y-121890706D01*
X174410134Y-121705134D01*
X174595706Y-121479014D01*
X174733599Y-121221034D01*
X174818513Y-120941111D01*
X174847185Y-120650000D01*
X174818513Y-120358889D01*
X174733599Y-120078966D01*
X174595706Y-119820986D01*
X174410134Y-119594866D01*
X174184014Y-119409294D01*
X174129209Y-119380000D01*
X174184014Y-119350706D01*
X174410134Y-119165134D01*
X174595706Y-118939014D01*
X174733599Y-118681034D01*
X174818513Y-118401111D01*
X174847185Y-118110000D01*
X174818513Y-117818889D01*
X174733599Y-117538966D01*
X174595706Y-117280986D01*
X174410134Y-117054866D01*
X174184014Y-116869294D01*
X174129209Y-116840000D01*
X174184014Y-116810706D01*
X174410134Y-116625134D01*
X174595706Y-116399014D01*
X174733599Y-116141034D01*
X174818513Y-115861111D01*
X174847185Y-115570000D01*
X174818513Y-115278889D01*
X174733599Y-114998966D01*
X174595706Y-114740986D01*
X174410134Y-114514866D01*
X174184014Y-114329294D01*
X174129209Y-114300000D01*
X174184014Y-114270706D01*
X174410134Y-114085134D01*
X174595706Y-113859014D01*
X174733599Y-113601034D01*
X174818513Y-113321111D01*
X174847185Y-113030000D01*
X174818513Y-112738889D01*
X174733599Y-112458966D01*
X174595706Y-112200986D01*
X174410134Y-111974866D01*
X174184014Y-111789294D01*
X174129209Y-111760000D01*
X174184014Y-111730706D01*
X174410134Y-111545134D01*
X174595706Y-111319014D01*
X174733599Y-111061034D01*
X174818513Y-110781111D01*
X174847185Y-110490000D01*
X174818513Y-110198889D01*
X174733599Y-109918966D01*
X174595706Y-109660986D01*
X174410134Y-109434866D01*
X174184014Y-109249294D01*
X174129209Y-109220000D01*
X174184014Y-109190706D01*
X174410134Y-109005134D01*
X174595706Y-108779014D01*
X174733599Y-108521034D01*
X174818513Y-108241111D01*
X174847185Y-107950000D01*
X174818513Y-107658889D01*
X174733599Y-107378966D01*
X174595706Y-107120986D01*
X174410134Y-106894866D01*
X174184014Y-106709294D01*
X174129209Y-106680000D01*
X174184014Y-106650706D01*
X174410134Y-106465134D01*
X174595706Y-106239014D01*
X174733599Y-105981034D01*
X174818513Y-105701111D01*
X174847185Y-105410000D01*
X174818513Y-105118889D01*
X174733599Y-104838966D01*
X174595706Y-104580986D01*
X174410134Y-104354866D01*
X174184014Y-104169294D01*
X174129209Y-104140000D01*
X174184014Y-104110706D01*
X174410134Y-103925134D01*
X174595706Y-103699014D01*
X174733599Y-103441034D01*
X174818513Y-103161111D01*
X174847185Y-102870000D01*
X174818513Y-102578889D01*
X174733599Y-102298966D01*
X174595706Y-102040986D01*
X174410134Y-101814866D01*
X174184014Y-101629294D01*
X174129209Y-101600000D01*
X174184014Y-101570706D01*
X174410134Y-101385134D01*
X174595706Y-101159014D01*
X174733599Y-100901034D01*
X174818513Y-100621111D01*
X174847185Y-100330000D01*
X174818513Y-100038889D01*
X174733599Y-99758966D01*
X174595706Y-99500986D01*
X174410134Y-99274866D01*
X174184014Y-99089294D01*
X174129209Y-99060000D01*
X174184014Y-99030706D01*
X174410134Y-98845134D01*
X174595706Y-98619014D01*
X174733599Y-98361034D01*
X174818513Y-98081111D01*
X174847185Y-97790000D01*
X174818513Y-97498889D01*
X174733599Y-97218966D01*
X174595706Y-96960986D01*
X174410134Y-96734866D01*
X174184014Y-96549294D01*
X174129209Y-96520000D01*
X174184014Y-96490706D01*
X174410134Y-96305134D01*
X174595706Y-96079014D01*
X174733599Y-95821034D01*
X174818513Y-95541111D01*
X174847185Y-95250000D01*
X174818513Y-94958889D01*
X174733599Y-94678966D01*
X174595706Y-94420986D01*
X174410134Y-94194866D01*
X174184014Y-94009294D01*
X174129209Y-93980000D01*
X174184014Y-93950706D01*
X174410134Y-93765134D01*
X174595706Y-93539014D01*
X174733599Y-93281034D01*
X174818513Y-93001111D01*
X174847185Y-92710000D01*
X174818513Y-92418889D01*
X174733599Y-92138966D01*
X174595706Y-91880986D01*
X174410134Y-91654866D01*
X174184014Y-91469294D01*
X174129209Y-91440000D01*
X174184014Y-91410706D01*
X174410134Y-91225134D01*
X174595706Y-90999014D01*
X174733599Y-90741034D01*
X174818513Y-90461111D01*
X174847185Y-90170000D01*
X174818513Y-89878889D01*
X174733599Y-89598966D01*
X174595706Y-89340986D01*
X174410134Y-89114866D01*
X174184014Y-88929294D01*
X174129209Y-88900000D01*
X174184014Y-88870706D01*
X174410134Y-88685134D01*
X174595706Y-88459014D01*
X174733599Y-88201034D01*
X174818513Y-87921111D01*
X174847185Y-87630000D01*
X174818513Y-87338889D01*
X174733599Y-87058966D01*
X174595706Y-86800986D01*
X174410134Y-86574866D01*
X174380313Y-86550393D01*
X174449180Y-86529502D01*
X174559494Y-86470537D01*
X174656185Y-86391185D01*
X174735537Y-86294494D01*
X174794502Y-86184180D01*
X174830812Y-86064482D01*
X174843072Y-85940000D01*
X174840000Y-85375750D01*
X174769250Y-85305000D01*
X175676928Y-85305000D01*
X175689188Y-85429482D01*
X175725498Y-85549180D01*
X175784463Y-85659494D01*
X175863815Y-85756185D01*
X175960506Y-85835537D01*
X176070820Y-85894502D01*
X176190518Y-85930812D01*
X176315000Y-85943072D01*
X176879250Y-85940000D01*
X177038000Y-85781250D01*
X177038000Y-84582000D01*
X175838750Y-84582000D01*
X175680000Y-84740750D01*
X175676928Y-85305000D01*
X174769250Y-85305000D01*
X174681250Y-85217000D01*
X173482000Y-85217000D01*
X173482000Y-85237000D01*
X173228000Y-85237000D01*
X173228000Y-85217000D01*
X172028750Y-85217000D01*
X171870000Y-85375750D01*
X171866928Y-85940000D01*
X171879188Y-86064482D01*
X171915498Y-86184180D01*
X171974463Y-86294494D01*
X172053815Y-86391185D01*
X172150506Y-86470537D01*
X172260820Y-86529502D01*
X172329687Y-86550393D01*
X172299866Y-86574866D01*
X172114294Y-86800986D01*
X171976401Y-87058966D01*
X171891487Y-87338889D01*
X171862815Y-87630000D01*
X166025512Y-87630000D01*
X169415512Y-84240000D01*
X171866928Y-84240000D01*
X171870000Y-84804250D01*
X172028750Y-84963000D01*
X173228000Y-84963000D01*
X173228000Y-83763750D01*
X173482000Y-83763750D01*
X173482000Y-84963000D01*
X174681250Y-84963000D01*
X174840000Y-84804250D01*
X174843072Y-84240000D01*
X174830812Y-84115518D01*
X174794502Y-83995820D01*
X174735537Y-83885506D01*
X174656185Y-83788815D01*
X174559494Y-83709463D01*
X174449180Y-83650498D01*
X174329482Y-83614188D01*
X174236192Y-83605000D01*
X175676928Y-83605000D01*
X175680000Y-84169250D01*
X175838750Y-84328000D01*
X177038000Y-84328000D01*
X177038000Y-83128750D01*
X176879250Y-82970000D01*
X176315000Y-82966928D01*
X176190518Y-82979188D01*
X176070820Y-83015498D01*
X175960506Y-83074463D01*
X175863815Y-83153815D01*
X175784463Y-83250506D01*
X175725498Y-83360820D01*
X175689188Y-83480518D01*
X175676928Y-83605000D01*
X174236192Y-83605000D01*
X174205000Y-83601928D01*
X173640750Y-83605000D01*
X173482000Y-83763750D01*
X173228000Y-83763750D01*
X173069250Y-83605000D01*
X172505000Y-83601928D01*
X172380518Y-83614188D01*
X172260820Y-83650498D01*
X172150506Y-83709463D01*
X172053815Y-83788815D01*
X171974463Y-83885506D01*
X171915498Y-83995820D01*
X171879188Y-84115518D01*
X171866928Y-84240000D01*
X169415512Y-84240000D01*
X170930513Y-82725000D01*
X178099488Y-82725000D01*
X178718240Y-83343753D01*
X178649866Y-83399866D01*
X178625393Y-83429687D01*
X178604502Y-83360820D01*
X178545537Y-83250506D01*
X178466185Y-83153815D01*
X178369494Y-83074463D01*
X178259180Y-83015498D01*
X178139482Y-82979188D01*
X178015000Y-82966928D01*
X177450750Y-82970000D01*
X177292000Y-83128750D01*
X177292000Y-84328000D01*
X177312000Y-84328000D01*
X177312000Y-84582000D01*
X177292000Y-84582000D01*
X177292000Y-85781250D01*
X177450750Y-85940000D01*
X178015000Y-85943072D01*
X178139482Y-85930812D01*
X178259180Y-85894502D01*
X178369494Y-85835537D01*
X178466185Y-85756185D01*
X178545537Y-85659494D01*
X178604502Y-85549180D01*
X178625393Y-85480313D01*
X178649866Y-85510134D01*
X178875986Y-85695706D01*
X179133966Y-85833599D01*
X179413889Y-85918513D01*
X179632050Y-85940000D01*
X179777950Y-85940000D01*
X179996111Y-85918513D01*
X180276034Y-85833599D01*
X180534014Y-85695706D01*
X180760134Y-85510134D01*
X180945706Y-85284014D01*
X180975000Y-85229209D01*
X181004294Y-85284014D01*
X181189866Y-85510134D01*
X181415986Y-85695706D01*
X181673966Y-85833599D01*
X181953889Y-85918513D01*
X182172050Y-85940000D01*
X182317950Y-85940000D01*
X182536111Y-85918513D01*
X182816034Y-85833599D01*
X183074014Y-85695706D01*
X183300134Y-85510134D01*
X183485706Y-85284014D01*
X183515000Y-85229209D01*
X183544294Y-85284014D01*
X183729866Y-85510134D01*
X183955986Y-85695706D01*
X184213966Y-85833599D01*
X184493889Y-85918513D01*
X184712050Y-85940000D01*
X184857950Y-85940000D01*
X185076111Y-85918513D01*
X185356034Y-85833599D01*
X185614014Y-85695706D01*
X185840134Y-85510134D01*
X186025706Y-85284014D01*
X186163599Y-85026034D01*
X186248513Y-84746111D01*
X186277185Y-84455000D01*
X186248513Y-84163889D01*
X186163599Y-83883966D01*
X186025706Y-83625986D01*
X185840134Y-83399866D01*
X185614014Y-83214294D01*
X185356034Y-83076401D01*
X185076111Y-82991487D01*
X184857950Y-82970000D01*
X184712050Y-82970000D01*
X184493889Y-82991487D01*
X184419005Y-83014203D01*
X180638785Y-79233984D01*
X180614982Y-79204980D01*
X180499257Y-79110007D01*
X180367228Y-79039435D01*
X180223967Y-78995978D01*
X180112314Y-78984981D01*
X180112303Y-78984981D01*
X180074981Y-78981305D01*
X180037659Y-78984981D01*
X157780931Y-78984981D01*
X157743608Y-78981305D01*
X157706285Y-78984981D01*
X157706276Y-78984981D01*
X157594623Y-78995978D01*
X157451362Y-79039435D01*
X157319332Y-79110007D01*
X157235692Y-79178649D01*
X157203608Y-79204980D01*
X157179810Y-79233978D01*
X141923789Y-94490000D01*
X127472322Y-94490000D01*
X127434999Y-94486324D01*
X127397676Y-94490000D01*
X127397667Y-94490000D01*
X127286014Y-94500997D01*
X127142753Y-94544454D01*
X127010724Y-94615026D01*
X126894999Y-94709999D01*
X126871201Y-94738997D01*
X124785906Y-96824293D01*
X124741308Y-96810764D01*
X124460000Y-96783057D01*
X124178691Y-96810764D01*
X123908192Y-96892818D01*
X123658899Y-97026068D01*
X123440392Y-97205393D01*
X123261068Y-97423900D01*
X123190000Y-97556858D01*
X123118932Y-97423899D01*
X122939607Y-97205392D01*
X122721100Y-97026068D01*
X122471807Y-96892818D01*
X122201308Y-96810764D01*
X121920000Y-96783057D01*
X121638691Y-96810764D01*
X121368192Y-96892818D01*
X121118899Y-97026068D01*
X120900392Y-97205393D01*
X120721068Y-97423900D01*
X120650000Y-97556858D01*
X120578932Y-97423899D01*
X120399607Y-97205392D01*
X120181100Y-97026068D01*
X119931807Y-96892818D01*
X119661308Y-96810764D01*
X119380000Y-96783057D01*
X119098691Y-96810764D01*
X118828192Y-96892818D01*
X118578899Y-97026068D01*
X118360392Y-97205393D01*
X118237000Y-97355747D01*
X118237000Y-96520000D01*
X118234560Y-96495224D01*
X118227333Y-96471399D01*
X118215597Y-96449443D01*
X118199803Y-96430197D01*
X118180557Y-96414403D01*
X118158601Y-96402667D01*
X118134776Y-96395440D01*
X118110000Y-96393000D01*
X110685000Y-96393000D01*
X110685000Y-91298665D01*
X114135000Y-91298665D01*
X114135000Y-91581335D01*
X114190147Y-91858574D01*
X114298320Y-92119727D01*
X114455363Y-92354759D01*
X114655241Y-92554637D01*
X114890273Y-92711680D01*
X115151426Y-92819853D01*
X115428665Y-92875000D01*
X115711335Y-92875000D01*
X115988574Y-92819853D01*
X116249727Y-92711680D01*
X116484759Y-92554637D01*
X116684637Y-92354759D01*
X116841680Y-92119727D01*
X116949853Y-91858574D01*
X117005000Y-91581335D01*
X117005000Y-91298665D01*
X120485000Y-91298665D01*
X120485000Y-91581335D01*
X120540147Y-91858574D01*
X120648320Y-92119727D01*
X120805363Y-92354759D01*
X121005241Y-92554637D01*
X121240273Y-92711680D01*
X121501426Y-92819853D01*
X121778665Y-92875000D01*
X122061335Y-92875000D01*
X122338574Y-92819853D01*
X122599727Y-92711680D01*
X122834759Y-92554637D01*
X123034637Y-92354759D01*
X123191680Y-92119727D01*
X123299853Y-91858574D01*
X123355000Y-91581335D01*
X123355000Y-91298665D01*
X126835000Y-91298665D01*
X126835000Y-91581335D01*
X126890147Y-91858574D01*
X126998320Y-92119727D01*
X127155363Y-92354759D01*
X127355241Y-92554637D01*
X127590273Y-92711680D01*
X127851426Y-92819853D01*
X128128665Y-92875000D01*
X128411335Y-92875000D01*
X128688574Y-92819853D01*
X128949727Y-92711680D01*
X129184759Y-92554637D01*
X129384637Y-92354759D01*
X129541680Y-92119727D01*
X129649853Y-91858574D01*
X129705000Y-91581335D01*
X129705000Y-91298665D01*
X133185000Y-91298665D01*
X133185000Y-91581335D01*
X133240147Y-91858574D01*
X133348320Y-92119727D01*
X133505363Y-92354759D01*
X133705241Y-92554637D01*
X133940273Y-92711680D01*
X134201426Y-92819853D01*
X134478665Y-92875000D01*
X134761335Y-92875000D01*
X135038574Y-92819853D01*
X135299727Y-92711680D01*
X135534759Y-92554637D01*
X135734637Y-92354759D01*
X135891680Y-92119727D01*
X135999853Y-91858574D01*
X136055000Y-91581335D01*
X136055000Y-91298665D01*
X135999853Y-91021426D01*
X135891680Y-90760273D01*
X135734637Y-90525241D01*
X135534759Y-90325363D01*
X135299727Y-90168320D01*
X135038574Y-90060147D01*
X134761335Y-90005000D01*
X134478665Y-90005000D01*
X134201426Y-90060147D01*
X133940273Y-90168320D01*
X133705241Y-90325363D01*
X133505363Y-90525241D01*
X133348320Y-90760273D01*
X133240147Y-91021426D01*
X133185000Y-91298665D01*
X129705000Y-91298665D01*
X129649853Y-91021426D01*
X129541680Y-90760273D01*
X129384637Y-90525241D01*
X129184759Y-90325363D01*
X128949727Y-90168320D01*
X128688574Y-90060147D01*
X128411335Y-90005000D01*
X128128665Y-90005000D01*
X127851426Y-90060147D01*
X127590273Y-90168320D01*
X127355241Y-90325363D01*
X127155363Y-90525241D01*
X126998320Y-90760273D01*
X126890147Y-91021426D01*
X126835000Y-91298665D01*
X123355000Y-91298665D01*
X123299853Y-91021426D01*
X123191680Y-90760273D01*
X123034637Y-90525241D01*
X122834759Y-90325363D01*
X122599727Y-90168320D01*
X122338574Y-90060147D01*
X122061335Y-90005000D01*
X121778665Y-90005000D01*
X121501426Y-90060147D01*
X121240273Y-90168320D01*
X121005241Y-90325363D01*
X120805363Y-90525241D01*
X120648320Y-90760273D01*
X120540147Y-91021426D01*
X120485000Y-91298665D01*
X117005000Y-91298665D01*
X116949853Y-91021426D01*
X116841680Y-90760273D01*
X116684637Y-90525241D01*
X116484759Y-90325363D01*
X116249727Y-90168320D01*
X115988574Y-90060147D01*
X115711335Y-90005000D01*
X115428665Y-90005000D01*
X115151426Y-90060147D01*
X114890273Y-90168320D01*
X114655241Y-90325363D01*
X114455363Y-90525241D01*
X114298320Y-90760273D01*
X114190147Y-91021426D01*
X114135000Y-91298665D01*
X110685000Y-91298665D01*
X110685000Y-81280000D01*
X114128057Y-81280000D01*
X114155764Y-81561309D01*
X114237818Y-81831808D01*
X114371068Y-82081101D01*
X114550392Y-82299608D01*
X114768899Y-82478932D01*
X115018192Y-82612182D01*
X115288691Y-82694236D01*
X115499508Y-82715000D01*
X115640492Y-82715000D01*
X115851309Y-82694236D01*
X116121808Y-82612182D01*
X116371101Y-82478932D01*
X116589608Y-82299608D01*
X116768932Y-82081101D01*
X116902182Y-81831808D01*
X116984236Y-81561309D01*
X117011943Y-81280000D01*
X120478057Y-81280000D01*
X120505764Y-81561309D01*
X120587818Y-81831808D01*
X120721068Y-82081101D01*
X120900392Y-82299608D01*
X121118899Y-82478932D01*
X121368192Y-82612182D01*
X121638691Y-82694236D01*
X121849508Y-82715000D01*
X121990492Y-82715000D01*
X122201309Y-82694236D01*
X122471808Y-82612182D01*
X122721101Y-82478932D01*
X122939608Y-82299608D01*
X123118932Y-82081101D01*
X123252182Y-81831808D01*
X123334236Y-81561309D01*
X123361943Y-81280000D01*
X126828057Y-81280000D01*
X126855764Y-81561309D01*
X126937818Y-81831808D01*
X127071068Y-82081101D01*
X127250392Y-82299608D01*
X127468899Y-82478932D01*
X127718192Y-82612182D01*
X127988691Y-82694236D01*
X128199508Y-82715000D01*
X128340492Y-82715000D01*
X128551309Y-82694236D01*
X128821808Y-82612182D01*
X129071101Y-82478932D01*
X129289608Y-82299608D01*
X129468932Y-82081101D01*
X129602182Y-81831808D01*
X129684236Y-81561309D01*
X129711943Y-81280000D01*
X133178057Y-81280000D01*
X133205764Y-81561309D01*
X133287818Y-81831808D01*
X133421068Y-82081101D01*
X133600392Y-82299608D01*
X133818899Y-82478932D01*
X134068192Y-82612182D01*
X134338691Y-82694236D01*
X134549508Y-82715000D01*
X134690492Y-82715000D01*
X134901309Y-82694236D01*
X135171808Y-82612182D01*
X135421101Y-82478932D01*
X135639608Y-82299608D01*
X135818932Y-82081101D01*
X135952182Y-81831808D01*
X136034236Y-81561309D01*
X136061943Y-81280000D01*
X136034236Y-80998691D01*
X135952182Y-80728192D01*
X135818932Y-80478899D01*
X135639608Y-80260392D01*
X135421101Y-80081068D01*
X135171808Y-79947818D01*
X134901309Y-79865764D01*
X134690492Y-79845000D01*
X134549508Y-79845000D01*
X134338691Y-79865764D01*
X134068192Y-79947818D01*
X133818899Y-80081068D01*
X133600392Y-80260392D01*
X133421068Y-80478899D01*
X133287818Y-80728192D01*
X133205764Y-80998691D01*
X133178057Y-81280000D01*
X129711943Y-81280000D01*
X129684236Y-80998691D01*
X129602182Y-80728192D01*
X129468932Y-80478899D01*
X129289608Y-80260392D01*
X129071101Y-80081068D01*
X128821808Y-79947818D01*
X128551309Y-79865764D01*
X128340492Y-79845000D01*
X128199508Y-79845000D01*
X127988691Y-79865764D01*
X127718192Y-79947818D01*
X127468899Y-80081068D01*
X127250392Y-80260392D01*
X127071068Y-80478899D01*
X126937818Y-80728192D01*
X126855764Y-80998691D01*
X126828057Y-81280000D01*
X123361943Y-81280000D01*
X123334236Y-80998691D01*
X123252182Y-80728192D01*
X123118932Y-80478899D01*
X122939608Y-80260392D01*
X122721101Y-80081068D01*
X122471808Y-79947818D01*
X122201309Y-79865764D01*
X121990492Y-79845000D01*
X121849508Y-79845000D01*
X121638691Y-79865764D01*
X121368192Y-79947818D01*
X121118899Y-80081068D01*
X120900392Y-80260392D01*
X120721068Y-80478899D01*
X120587818Y-80728192D01*
X120505764Y-80998691D01*
X120478057Y-81280000D01*
X117011943Y-81280000D01*
X116984236Y-80998691D01*
X116902182Y-80728192D01*
X116768932Y-80478899D01*
X116589608Y-80260392D01*
X116371101Y-80081068D01*
X116121808Y-79947818D01*
X115851309Y-79865764D01*
X115640492Y-79845000D01*
X115499508Y-79845000D01*
X115288691Y-79865764D01*
X115018192Y-79947818D01*
X114768899Y-80081068D01*
X114550392Y-80260392D01*
X114371068Y-80478899D01*
X114237818Y-80728192D01*
X114155764Y-80998691D01*
X114128057Y-81280000D01*
X110685000Y-81280000D01*
X110685000Y-72553123D01*
X110810173Y-72678296D01*
X111159854Y-72911945D01*
X111548400Y-73072886D01*
X111960877Y-73154933D01*
X112381435Y-73154933D01*
X112793912Y-73072886D01*
X113182458Y-72911945D01*
X113532139Y-72678296D01*
X113829519Y-72380916D01*
X114063168Y-72031235D01*
X114224109Y-71642689D01*
X114306156Y-71230212D01*
X114306156Y-70809654D01*
X114224109Y-70397177D01*
X114063168Y-70008631D01*
X113829519Y-69658950D01*
X113532139Y-69361570D01*
X113182458Y-69127921D01*
X112793912Y-68966980D01*
X112381435Y-68884933D01*
X111960877Y-68884933D01*
X111548400Y-68966980D01*
X111159854Y-69127921D01*
X110810173Y-69361570D01*
X110685000Y-69486743D01*
X110685000Y-41552943D01*
X110809653Y-41677596D01*
X111159334Y-41911245D01*
X111547880Y-42072186D01*
X111960357Y-42154233D01*
X112380915Y-42154233D01*
X112793392Y-42072186D01*
X113181938Y-41911245D01*
X113531619Y-41677596D01*
X113828999Y-41380216D01*
X114062648Y-41030535D01*
X114223589Y-40641989D01*
X114305636Y-40229512D01*
X114305636Y-39808954D01*
X114252899Y-39543825D01*
X142035636Y-39543825D01*
X142035636Y-40494640D01*
X142057846Y-40720145D01*
X142145619Y-41009493D01*
X142288155Y-41276159D01*
X142479975Y-41509894D01*
X142713709Y-41701714D01*
X142980375Y-41844250D01*
X143269723Y-41932023D01*
X143570636Y-41961660D01*
X143871548Y-41932023D01*
X144160896Y-41844250D01*
X144427562Y-41701714D01*
X144661297Y-41509894D01*
X144840636Y-41291368D01*
X145019975Y-41509894D01*
X145253709Y-41701714D01*
X145520375Y-41844250D01*
X145809723Y-41932023D01*
X146110636Y-41961660D01*
X146411548Y-41932023D01*
X146700896Y-41844250D01*
X146967562Y-41701714D01*
X147201297Y-41509894D01*
X147380636Y-41291368D01*
X147559975Y-41509894D01*
X147793709Y-41701714D01*
X148060375Y-41844250D01*
X148349723Y-41932023D01*
X148650636Y-41961660D01*
X148951548Y-41932023D01*
X149240896Y-41844250D01*
X149507562Y-41701714D01*
X149741297Y-41509894D01*
X149920636Y-41291368D01*
X150099975Y-41509894D01*
X150333709Y-41701714D01*
X150600375Y-41844250D01*
X150889723Y-41932023D01*
X151190636Y-41961660D01*
X151491548Y-41932023D01*
X151780896Y-41844250D01*
X152047562Y-41701714D01*
X152281297Y-41509894D01*
X152460636Y-41291368D01*
X152639975Y-41509894D01*
X152873709Y-41701714D01*
X153140375Y-41844250D01*
X153429723Y-41932023D01*
X153730636Y-41961660D01*
X154031548Y-41932023D01*
X154320896Y-41844250D01*
X154587562Y-41701714D01*
X154821297Y-41509894D01*
X155000636Y-41291368D01*
X155179975Y-41509894D01*
X155413709Y-41701714D01*
X155680375Y-41844250D01*
X155969723Y-41932023D01*
X156270636Y-41961660D01*
X156571548Y-41932023D01*
X156860896Y-41844250D01*
X157127562Y-41701714D01*
X157361297Y-41509894D01*
X157540636Y-41291368D01*
X157719975Y-41509894D01*
X157953709Y-41701714D01*
X158220375Y-41844250D01*
X158509723Y-41932023D01*
X158810636Y-41961660D01*
X159111548Y-41932023D01*
X159400896Y-41844250D01*
X159667562Y-41701714D01*
X159901297Y-41509894D01*
X160080636Y-41291368D01*
X160259975Y-41509894D01*
X160493709Y-41701714D01*
X160760375Y-41844250D01*
X161049723Y-41932023D01*
X161350636Y-41961660D01*
X161651548Y-41932023D01*
X161940896Y-41844250D01*
X162207562Y-41701714D01*
X162441297Y-41509894D01*
X162620636Y-41291368D01*
X162799975Y-41509894D01*
X163033709Y-41701714D01*
X163300375Y-41844250D01*
X163589723Y-41932023D01*
X163890636Y-41961660D01*
X164191548Y-41932023D01*
X164480896Y-41844250D01*
X164747562Y-41701714D01*
X164981297Y-41509894D01*
X165160636Y-41291368D01*
X165339975Y-41509894D01*
X165573709Y-41701714D01*
X165840375Y-41844250D01*
X166129723Y-41932023D01*
X166430636Y-41961660D01*
X166731548Y-41932023D01*
X167020896Y-41844250D01*
X167287562Y-41701714D01*
X167521297Y-41509894D01*
X167700636Y-41291368D01*
X167879975Y-41509894D01*
X168113709Y-41701714D01*
X168380375Y-41844250D01*
X168669723Y-41932023D01*
X168970636Y-41961660D01*
X169271548Y-41932023D01*
X169560896Y-41844250D01*
X169827562Y-41701714D01*
X170061297Y-41509894D01*
X170240636Y-41291368D01*
X170419975Y-41509894D01*
X170653709Y-41701714D01*
X170920375Y-41844250D01*
X171209723Y-41932023D01*
X171510636Y-41961660D01*
X171811548Y-41932023D01*
X172100896Y-41844250D01*
X172367562Y-41701714D01*
X172601297Y-41509894D01*
X172780636Y-41291368D01*
X172959975Y-41509894D01*
X173193709Y-41701714D01*
X173460375Y-41844250D01*
X173749723Y-41932023D01*
X174050636Y-41961660D01*
X174351548Y-41932023D01*
X174640896Y-41844250D01*
X174907562Y-41701714D01*
X175141297Y-41509894D01*
X175320636Y-41291368D01*
X175499975Y-41509894D01*
X175733709Y-41701714D01*
X176000375Y-41844250D01*
X176289723Y-41932023D01*
X176590636Y-41961660D01*
X176891548Y-41932023D01*
X177180896Y-41844250D01*
X177447562Y-41701714D01*
X177681297Y-41509894D01*
X177860636Y-41291368D01*
X178039975Y-41509894D01*
X178273709Y-41701714D01*
X178540375Y-41844250D01*
X178829723Y-41932023D01*
X179130636Y-41961660D01*
X179431548Y-41932023D01*
X179720896Y-41844250D01*
X179987562Y-41701714D01*
X180176141Y-41546953D01*
X180181134Y-41563413D01*
X180240099Y-41673727D01*
X180319451Y-41770418D01*
X180416142Y-41849770D01*
X180526456Y-41908735D01*
X180646154Y-41945045D01*
X180770636Y-41957305D01*
X181384886Y-41954233D01*
X181543636Y-41795483D01*
X181543636Y-40146233D01*
X181797636Y-40146233D01*
X181797636Y-41795483D01*
X181956386Y-41954233D01*
X182570636Y-41957305D01*
X182695118Y-41945045D01*
X182814816Y-41908735D01*
X182925130Y-41849770D01*
X183021821Y-41770418D01*
X183101173Y-41673727D01*
X183160138Y-41563413D01*
X183196448Y-41443715D01*
X183208708Y-41319233D01*
X183205636Y-40304983D01*
X183046886Y-40146233D01*
X181797636Y-40146233D01*
X181543636Y-40146233D01*
X181523636Y-40146233D01*
X181523636Y-39892233D01*
X181543636Y-39892233D01*
X181543636Y-38242983D01*
X181797636Y-38242983D01*
X181797636Y-39892233D01*
X183046886Y-39892233D01*
X183205636Y-39733483D01*
X183208708Y-38719233D01*
X183196448Y-38594751D01*
X183160138Y-38475053D01*
X183101173Y-38364739D01*
X183021821Y-38268048D01*
X182925130Y-38188696D01*
X182814816Y-38129731D01*
X182695118Y-38093421D01*
X182570636Y-38081161D01*
X181956386Y-38084233D01*
X181797636Y-38242983D01*
X181543636Y-38242983D01*
X181384886Y-38084233D01*
X180770636Y-38081161D01*
X180646154Y-38093421D01*
X180526456Y-38129731D01*
X180416142Y-38188696D01*
X180319451Y-38268048D01*
X180240099Y-38364739D01*
X180181134Y-38475053D01*
X180176141Y-38491513D01*
X179987563Y-38336752D01*
X179720897Y-38194216D01*
X179431549Y-38106443D01*
X179130636Y-38076806D01*
X178829724Y-38106443D01*
X178540376Y-38194216D01*
X178273710Y-38336752D01*
X178039975Y-38528572D01*
X177860636Y-38747098D01*
X177681297Y-38528572D01*
X177447563Y-38336752D01*
X177180897Y-38194216D01*
X176891549Y-38106443D01*
X176590636Y-38076806D01*
X176289724Y-38106443D01*
X176000376Y-38194216D01*
X175733710Y-38336752D01*
X175499975Y-38528572D01*
X175320636Y-38747098D01*
X175141297Y-38528572D01*
X174907563Y-38336752D01*
X174640897Y-38194216D01*
X174351549Y-38106443D01*
X174050636Y-38076806D01*
X173749724Y-38106443D01*
X173460376Y-38194216D01*
X173193710Y-38336752D01*
X172959975Y-38528572D01*
X172780636Y-38747098D01*
X172601297Y-38528572D01*
X172367563Y-38336752D01*
X172100897Y-38194216D01*
X171811549Y-38106443D01*
X171510636Y-38076806D01*
X171209724Y-38106443D01*
X170920376Y-38194216D01*
X170653710Y-38336752D01*
X170419975Y-38528572D01*
X170240636Y-38747098D01*
X170061297Y-38528572D01*
X169827563Y-38336752D01*
X169560897Y-38194216D01*
X169271549Y-38106443D01*
X168970636Y-38076806D01*
X168669724Y-38106443D01*
X168380376Y-38194216D01*
X168113710Y-38336752D01*
X167879975Y-38528572D01*
X167700636Y-38747098D01*
X167521297Y-38528572D01*
X167287563Y-38336752D01*
X167020897Y-38194216D01*
X166731549Y-38106443D01*
X166430636Y-38076806D01*
X166129724Y-38106443D01*
X165840376Y-38194216D01*
X165573710Y-38336752D01*
X165339975Y-38528572D01*
X165160636Y-38747098D01*
X164981297Y-38528572D01*
X164747563Y-38336752D01*
X164480897Y-38194216D01*
X164191549Y-38106443D01*
X163890636Y-38076806D01*
X163589724Y-38106443D01*
X163300376Y-38194216D01*
X163033710Y-38336752D01*
X162799975Y-38528572D01*
X162620636Y-38747098D01*
X162441297Y-38528572D01*
X162207563Y-38336752D01*
X161940897Y-38194216D01*
X161651549Y-38106443D01*
X161350636Y-38076806D01*
X161049724Y-38106443D01*
X160760376Y-38194216D01*
X160493710Y-38336752D01*
X160259975Y-38528572D01*
X160080636Y-38747098D01*
X159901297Y-38528572D01*
X159667563Y-38336752D01*
X159400897Y-38194216D01*
X159111549Y-38106443D01*
X158810636Y-38076806D01*
X158509724Y-38106443D01*
X158220376Y-38194216D01*
X157953710Y-38336752D01*
X157719975Y-38528572D01*
X157540636Y-38747098D01*
X157361297Y-38528572D01*
X157127563Y-38336752D01*
X156860897Y-38194216D01*
X156571549Y-38106443D01*
X156270636Y-38076806D01*
X155969724Y-38106443D01*
X155680376Y-38194216D01*
X155413710Y-38336752D01*
X155179975Y-38528572D01*
X155000636Y-38747098D01*
X154821297Y-38528572D01*
X154587563Y-38336752D01*
X154320897Y-38194216D01*
X154031549Y-38106443D01*
X153730636Y-38076806D01*
X153429724Y-38106443D01*
X153140376Y-38194216D01*
X152873710Y-38336752D01*
X152639975Y-38528572D01*
X152460636Y-38747098D01*
X152281297Y-38528572D01*
X152047563Y-38336752D01*
X151780897Y-38194216D01*
X151491549Y-38106443D01*
X151190636Y-38076806D01*
X150889724Y-38106443D01*
X150600376Y-38194216D01*
X150333710Y-38336752D01*
X150099975Y-38528572D01*
X149920636Y-38747098D01*
X149741297Y-38528572D01*
X149507563Y-38336752D01*
X149240897Y-38194216D01*
X148951549Y-38106443D01*
X148650636Y-38076806D01*
X148349724Y-38106443D01*
X148060376Y-38194216D01*
X147793710Y-38336752D01*
X147559975Y-38528572D01*
X147380636Y-38747098D01*
X147201297Y-38528572D01*
X146967563Y-38336752D01*
X146700897Y-38194216D01*
X146411549Y-38106443D01*
X146110636Y-38076806D01*
X145809724Y-38106443D01*
X145520376Y-38194216D01*
X145253710Y-38336752D01*
X145019975Y-38528572D01*
X144840636Y-38747098D01*
X144661297Y-38528572D01*
X144427563Y-38336752D01*
X144160897Y-38194216D01*
X143871549Y-38106443D01*
X143570636Y-38076806D01*
X143269724Y-38106443D01*
X142980376Y-38194216D01*
X142713710Y-38336752D01*
X142479975Y-38528572D01*
X142288155Y-38762306D01*
X142145619Y-39028972D01*
X142057846Y-39318320D01*
X142035636Y-39543825D01*
X114252899Y-39543825D01*
X114223589Y-39396477D01*
X114062648Y-39007931D01*
X113828999Y-38658250D01*
X113531619Y-38360870D01*
X113181938Y-38127221D01*
X113055865Y-38075000D01*
X115033647Y-38075000D01*
X115063645Y-38072045D01*
X115076047Y-38072132D01*
X115085565Y-38071198D01*
X115473758Y-38030397D01*
X115534539Y-38017920D01*
X115595560Y-38006280D01*
X115604716Y-38003516D01*
X115977591Y-37888092D01*
X116034870Y-37864014D01*
X116092388Y-37840775D01*
X116100833Y-37836286D01*
X116444188Y-37650634D01*
X116495635Y-37615932D01*
X116547610Y-37581921D01*
X116555022Y-37575876D01*
X116855777Y-37327069D01*
X116899524Y-37283016D01*
X116943881Y-37239578D01*
X116949978Y-37232208D01*
X117196679Y-36929724D01*
X117231047Y-36877995D01*
X117266111Y-36826785D01*
X117270661Y-36818372D01*
X117453910Y-36473730D01*
X117477555Y-36416364D01*
X117502028Y-36359264D01*
X117504856Y-36350127D01*
X117617674Y-35976456D01*
X117629737Y-35915531D01*
X117642641Y-35854826D01*
X117643641Y-35845314D01*
X117681731Y-35456845D01*
X117681731Y-35456837D01*
X117685000Y-35423647D01*
X117685000Y-32682360D01*
X118399513Y-32682360D01*
X118411773Y-32806842D01*
X118448083Y-32926540D01*
X118507048Y-33036854D01*
X118586400Y-33133545D01*
X118683091Y-33212897D01*
X118793405Y-33271862D01*
X118811712Y-33277416D01*
X118745273Y-33343855D01*
X118577286Y-33595265D01*
X118461574Y-33874617D01*
X118402585Y-34171176D01*
X118402585Y-34473544D01*
X118461574Y-34770103D01*
X118577286Y-35049455D01*
X118745273Y-35300865D01*
X118959080Y-35514672D01*
X119210490Y-35682659D01*
X119489842Y-35798371D01*
X119786401Y-35857360D01*
X120088769Y-35857360D01*
X120385328Y-35798371D01*
X120664680Y-35682659D01*
X120916090Y-35514672D01*
X121129897Y-35300865D01*
X121297884Y-35049455D01*
X121413596Y-34770103D01*
X121472585Y-34473544D01*
X121472585Y-34171176D01*
X121413596Y-33874617D01*
X121297884Y-33595265D01*
X121129897Y-33343855D01*
X121063458Y-33277416D01*
X121081765Y-33271862D01*
X121192079Y-33212897D01*
X121288770Y-33133545D01*
X121368122Y-33036854D01*
X121427087Y-32926540D01*
X121463397Y-32806842D01*
X121475657Y-32682360D01*
X124749513Y-32682360D01*
X124761773Y-32806842D01*
X124798083Y-32926540D01*
X124857048Y-33036854D01*
X124936400Y-33133545D01*
X125033091Y-33212897D01*
X125143405Y-33271862D01*
X125161712Y-33277416D01*
X125095273Y-33343855D01*
X124927286Y-33595265D01*
X124811574Y-33874617D01*
X124752585Y-34171176D01*
X124752585Y-34473544D01*
X124811574Y-34770103D01*
X124927286Y-35049455D01*
X125095273Y-35300865D01*
X125309080Y-35514672D01*
X125560490Y-35682659D01*
X125839842Y-35798371D01*
X126136401Y-35857360D01*
X126438769Y-35857360D01*
X126735328Y-35798371D01*
X127014680Y-35682659D01*
X127266090Y-35514672D01*
X127479897Y-35300865D01*
X127647884Y-35049455D01*
X127763596Y-34770103D01*
X127822585Y-34473544D01*
X127822585Y-34171176D01*
X127763596Y-33874617D01*
X127647884Y-33595265D01*
X127479897Y-33343855D01*
X127413458Y-33277416D01*
X127431765Y-33271862D01*
X127542079Y-33212897D01*
X127638770Y-33133545D01*
X127718122Y-33036854D01*
X127777087Y-32926540D01*
X127813397Y-32806842D01*
X127825657Y-32682360D01*
X130464513Y-32682360D01*
X130476773Y-32806842D01*
X130513083Y-32926540D01*
X130572048Y-33036854D01*
X130651400Y-33133545D01*
X130748091Y-33212897D01*
X130858405Y-33271862D01*
X130876712Y-33277416D01*
X130810273Y-33343855D01*
X130642286Y-33595265D01*
X130526574Y-33874617D01*
X130467585Y-34171176D01*
X130467585Y-34473544D01*
X130526574Y-34770103D01*
X130642286Y-35049455D01*
X130810273Y-35300865D01*
X131024080Y-35514672D01*
X131275490Y-35682659D01*
X131554842Y-35798371D01*
X131851401Y-35857360D01*
X132153769Y-35857360D01*
X132450328Y-35798371D01*
X132729680Y-35682659D01*
X132981090Y-35514672D01*
X133194897Y-35300865D01*
X133362884Y-35049455D01*
X133478596Y-34770103D01*
X133537585Y-34473544D01*
X133537585Y-34171176D01*
X133478596Y-33874617D01*
X133362884Y-33595265D01*
X133194897Y-33343855D01*
X133128458Y-33277416D01*
X133146765Y-33271862D01*
X133257079Y-33212897D01*
X133353770Y-33133545D01*
X133433122Y-33036854D01*
X133492087Y-32926540D01*
X133528397Y-32806842D01*
X133540657Y-32682360D01*
X133537585Y-32068110D01*
X133378835Y-31909360D01*
X132129585Y-31909360D01*
X132129585Y-31929360D01*
X131875585Y-31929360D01*
X131875585Y-31909360D01*
X130626335Y-31909360D01*
X130467585Y-32068110D01*
X130464513Y-32682360D01*
X127825657Y-32682360D01*
X127822585Y-32068110D01*
X127663835Y-31909360D01*
X126414585Y-31909360D01*
X126414585Y-31929360D01*
X126160585Y-31929360D01*
X126160585Y-31909360D01*
X124911335Y-31909360D01*
X124752585Y-32068110D01*
X124749513Y-32682360D01*
X121475657Y-32682360D01*
X121472585Y-32068110D01*
X121313835Y-31909360D01*
X120064585Y-31909360D01*
X120064585Y-31929360D01*
X119810585Y-31929360D01*
X119810585Y-31909360D01*
X118561335Y-31909360D01*
X118402585Y-32068110D01*
X118399513Y-32682360D01*
X117685000Y-32682360D01*
X117685000Y-30575000D01*
X118481854Y-30575000D01*
X118448083Y-30638180D01*
G36*
X115789248Y-154926048D02*
G01*
X115754875Y-154977784D01*
X115719815Y-155028988D01*
X115715266Y-155037401D01*
X115540721Y-155365673D01*
X115517064Y-155423069D01*
X115492605Y-155480137D01*
X115489776Y-155489274D01*
X115382316Y-155845196D01*
X115370252Y-155906126D01*
X115357349Y-155966829D01*
X115356349Y-155976341D01*
X115320069Y-156346356D01*
X115320069Y-156346368D01*
X115316789Y-156379785D01*
X115319989Y-165836607D01*
X115293543Y-166106327D01*
X115224908Y-166333656D01*
X115113428Y-166543320D01*
X114963343Y-166727341D01*
X114780380Y-166878701D01*
X114571493Y-166991646D01*
X114344653Y-167061865D01*
X114076966Y-167090000D01*
X111938503Y-167090000D01*
X111668673Y-167063543D01*
X111441344Y-166994908D01*
X111231680Y-166883428D01*
X111047659Y-166733343D01*
X110896299Y-166550380D01*
X110783354Y-166341493D01*
X110713135Y-166114653D01*
X110685000Y-165846966D01*
X110685000Y-154813000D01*
X115881448Y-154813000D01*
X115789248Y-154926048D01*
X115789248Y-154926048D01*
G37*
X115789248Y-154926048D02*
X115754875Y-154977784D01*
X115719815Y-155028988D01*
X115715266Y-155037401D01*
X115540721Y-155365673D01*
X115517064Y-155423069D01*
X115492605Y-155480137D01*
X115489776Y-155489274D01*
X115382316Y-155845196D01*
X115370252Y-155906126D01*
X115357349Y-155966829D01*
X115356349Y-155976341D01*
X115320069Y-156346356D01*
X115320069Y-156346368D01*
X115316789Y-156379785D01*
X115319989Y-165836607D01*
X115293543Y-166106327D01*
X115224908Y-166333656D01*
X115113428Y-166543320D01*
X114963343Y-166727341D01*
X114780380Y-166878701D01*
X114571493Y-166991646D01*
X114344653Y-167061865D01*
X114076966Y-167090000D01*
X111938503Y-167090000D01*
X111668673Y-167063543D01*
X111441344Y-166994908D01*
X111231680Y-166883428D01*
X111047659Y-166733343D01*
X110896299Y-166550380D01*
X110783354Y-166341493D01*
X110713135Y-166114653D01*
X110685000Y-165846966D01*
X110685000Y-154813000D01*
X115881448Y-154813000D01*
X115789248Y-154926048D01*
M02*
