G04 #@! TF.GenerationSoftware,KiCad,Pcbnew,(5.1.2)-1*
G04 #@! TF.CreationDate,2019-10-17T22:12:22+01:00*
G04 #@! TF.ProjectId,Keypad,4b657970-6164-42e6-9b69-6361645f7063,1*
G04 #@! TF.SameCoordinates,Original*
G04 #@! TF.FileFunction,Copper,L2,Bot*
G04 #@! TF.FilePolarity,Positive*
%FSLAX46Y46*%
G04 Gerber Fmt 4.6, Leading zero omitted, Abs format (unit mm)*
G04 Created by KiCad (PCBNEW (5.1.2)-1) date 2019-10-17 22:12:22*
%MOMM*%
%LPD*%
G04 APERTURE LIST*
%ADD10O,1.600000X2.000000*%
%ADD11R,2.000000X2.000000*%
%ADD12R,1.800000X2.600000*%
%ADD13O,1.800000X2.600000*%
%ADD14C,3.000000*%
%ADD15C,0.100000*%
%ADD16C,1.700000*%
%ADD17O,1.700000X2.000000*%
%ADD18R,1.800000X1.800000*%
%ADD19C,1.800000*%
%ADD20R,1.700000X1.700000*%
%ADD21O,1.700000X1.700000*%
%ADD22C,1.600000*%
%ADD23O,1.600000X1.600000*%
%ADD24R,2.500000X1.500000*%
%ADD25O,2.500000X1.500000*%
%ADD26O,3.500000X2.200000*%
%ADD27C,0.350000*%
%ADD28C,0.250000*%
%ADD29C,0.254000*%
G04 APERTURE END LIST*
D10*
X121920000Y-121285000D03*
D11*
X119380000Y-121285000D03*
D10*
X124460000Y-121285000D03*
X127000000Y-121285000D03*
X129540000Y-121285000D03*
X132080000Y-121285000D03*
X134620000Y-121285000D03*
X137160000Y-121285000D03*
X137160000Y-98425000D03*
X134620000Y-98425000D03*
X132080000Y-98425000D03*
X129540000Y-98425000D03*
X127000000Y-98425000D03*
X124460000Y-98425000D03*
X121920000Y-98425000D03*
X119380000Y-98425000D03*
D12*
X182245000Y-45720000D03*
D13*
X179705000Y-45720000D03*
X177165000Y-45720000D03*
X174625000Y-45720000D03*
X172085000Y-45720000D03*
X169545000Y-45720000D03*
X167005000Y-45720000D03*
X164465000Y-45720000D03*
X161925000Y-45720000D03*
X159385000Y-45720000D03*
X156845000Y-45720000D03*
X154305000Y-45720000D03*
X151765000Y-45720000D03*
X149225000Y-45720000D03*
X146685000Y-45720000D03*
X144145000Y-45720000D03*
D14*
X187744100Y-45720000D03*
X187744100Y-76720700D03*
X112745520Y-76720700D03*
X112745000Y-45720000D03*
D15*
G36*
X130164504Y-144416204D02*
G01*
X130188773Y-144419804D01*
X130212571Y-144425765D01*
X130235671Y-144434030D01*
X130257849Y-144444520D01*
X130278893Y-144457133D01*
X130298598Y-144471747D01*
X130316777Y-144488223D01*
X130333253Y-144506402D01*
X130347867Y-144526107D01*
X130360480Y-144547151D01*
X130370970Y-144569329D01*
X130379235Y-144592429D01*
X130385196Y-144616227D01*
X130388796Y-144640496D01*
X130390000Y-144665000D01*
X130390000Y-146165000D01*
X130388796Y-146189504D01*
X130385196Y-146213773D01*
X130379235Y-146237571D01*
X130370970Y-146260671D01*
X130360480Y-146282849D01*
X130347867Y-146303893D01*
X130333253Y-146323598D01*
X130316777Y-146341777D01*
X130298598Y-146358253D01*
X130278893Y-146372867D01*
X130257849Y-146385480D01*
X130235671Y-146395970D01*
X130212571Y-146404235D01*
X130188773Y-146410196D01*
X130164504Y-146413796D01*
X130140000Y-146415000D01*
X128940000Y-146415000D01*
X128915496Y-146413796D01*
X128891227Y-146410196D01*
X128867429Y-146404235D01*
X128844329Y-146395970D01*
X128822151Y-146385480D01*
X128801107Y-146372867D01*
X128781402Y-146358253D01*
X128763223Y-146341777D01*
X128746747Y-146323598D01*
X128732133Y-146303893D01*
X128719520Y-146282849D01*
X128709030Y-146260671D01*
X128700765Y-146237571D01*
X128694804Y-146213773D01*
X128691204Y-146189504D01*
X128690000Y-146165000D01*
X128690000Y-144665000D01*
X128691204Y-144640496D01*
X128694804Y-144616227D01*
X128700765Y-144592429D01*
X128709030Y-144569329D01*
X128719520Y-144547151D01*
X128732133Y-144526107D01*
X128746747Y-144506402D01*
X128763223Y-144488223D01*
X128781402Y-144471747D01*
X128801107Y-144457133D01*
X128822151Y-144444520D01*
X128844329Y-144434030D01*
X128867429Y-144425765D01*
X128891227Y-144419804D01*
X128915496Y-144416204D01*
X128940000Y-144415000D01*
X130140000Y-144415000D01*
X130164504Y-144416204D01*
X130164504Y-144416204D01*
G37*
D16*
X129540000Y-145415000D03*
D17*
X132040000Y-145415000D03*
D18*
X130810000Y-37465000D03*
D19*
X130810000Y-40005000D03*
X125095000Y-40005000D03*
D18*
X125095000Y-37465000D03*
X118745000Y-37465000D03*
D19*
X118745000Y-40005000D03*
D20*
X177165000Y-84455000D03*
D21*
X179705000Y-84455000D03*
X182245000Y-84455000D03*
X184785000Y-84455000D03*
D20*
X173355000Y-85090000D03*
D21*
X173355000Y-87630000D03*
X173355000Y-90170000D03*
X173355000Y-92710000D03*
X173355000Y-95250000D03*
X173355000Y-97790000D03*
X173355000Y-100330000D03*
X173355000Y-102870000D03*
X173355000Y-105410000D03*
X173355000Y-107950000D03*
X173355000Y-110490000D03*
X173355000Y-113030000D03*
X173355000Y-115570000D03*
X173355000Y-118110000D03*
X173355000Y-120650000D03*
X173355000Y-123190000D03*
D20*
X160655000Y-147955000D03*
D21*
X158115000Y-147955000D03*
X155575000Y-147955000D03*
X153035000Y-147955000D03*
X150495000Y-147955000D03*
X147955000Y-147955000D03*
X145415000Y-147955000D03*
X142875000Y-147955000D03*
X140335000Y-147955000D03*
D22*
X128270000Y-91440000D03*
D23*
X128270000Y-81280000D03*
X121920000Y-81280000D03*
D22*
X121920000Y-91440000D03*
X115570000Y-91440000D03*
D23*
X115570000Y-81280000D03*
D22*
X134620000Y-91440000D03*
D23*
X134620000Y-81280000D03*
X125730000Y-127635000D03*
D22*
X125730000Y-137795000D03*
D24*
X114300000Y-137795000D03*
D25*
X114300000Y-139795000D03*
X114300000Y-141795000D03*
D26*
X114300000Y-135695000D03*
X114300000Y-143895000D03*
D27*
X129540000Y-141605000D02*
X125730000Y-137795000D01*
X129540000Y-145415000D02*
X129540000Y-141605000D01*
D28*
X119380000Y-93980000D02*
X121920000Y-91440000D01*
X119380000Y-98425000D02*
X119380000Y-93980000D01*
X133350000Y-37465000D02*
X130810000Y-37465000D01*
X127000000Y-86360000D02*
X128905000Y-86360000D01*
X134620000Y-38735000D02*
X133350000Y-37465000D01*
X121920000Y-91440000D02*
X127000000Y-86360000D01*
X128905000Y-86360000D02*
X131445000Y-83820000D01*
X131445000Y-83820000D02*
X131445000Y-44450000D01*
X131445000Y-44450000D02*
X134620000Y-41275000D01*
X134620000Y-41275000D02*
X134620000Y-38735000D01*
X128270000Y-42545000D02*
X130810000Y-40005000D01*
X128270000Y-81280000D02*
X128270000Y-42545000D01*
X125095000Y-78105000D02*
X125095000Y-40005000D01*
X121920000Y-81280000D02*
X125095000Y-78105000D01*
X123945000Y-37465000D02*
X125095000Y-37465000D01*
X121920000Y-39490000D02*
X123945000Y-37465000D01*
X121920000Y-76835000D02*
X121920000Y-39490000D01*
X118745000Y-80010000D02*
X121920000Y-76835000D01*
X118745000Y-88265000D02*
X118745000Y-80010000D01*
X115570000Y-91440000D02*
X118745000Y-88265000D01*
X116369999Y-80480001D02*
X116369999Y-78575001D01*
X115570000Y-81280000D02*
X116369999Y-80480001D01*
X118745000Y-76200000D02*
X118745000Y-40005000D01*
X116369999Y-78575001D02*
X118745000Y-76200000D01*
X172179999Y-86454999D02*
X172179999Y-71025001D01*
X173355000Y-87630000D02*
X172179999Y-86454999D01*
X179705000Y-63500000D02*
X179705000Y-45720000D01*
X172179999Y-71025001D02*
X179705000Y-63500000D01*
X171729989Y-88544989D02*
X171729989Y-70205011D01*
X173355000Y-90170000D02*
X171729989Y-88544989D01*
X177165000Y-64770000D02*
X177165000Y-45720000D01*
X171729989Y-70205011D02*
X177165000Y-64770000D01*
X171279979Y-90634979D02*
X171279979Y-69385021D01*
X173355000Y-92710000D02*
X171279979Y-90634979D01*
X174625000Y-66040000D02*
X174625000Y-45720000D01*
X171279979Y-69385021D02*
X174625000Y-66040000D01*
X170829969Y-92724969D02*
X170829969Y-67930031D01*
X173355000Y-95250000D02*
X170829969Y-92724969D01*
X172085000Y-66675000D02*
X172085000Y-45720000D01*
X170829969Y-67930031D02*
X172085000Y-66675000D01*
X170379959Y-94814959D02*
X170379959Y-67509959D01*
X173355000Y-97790000D02*
X170379959Y-94814959D01*
X169545000Y-66675000D02*
X169545000Y-45720000D01*
X170379959Y-67509959D02*
X169545000Y-66675000D01*
X167005000Y-47270000D02*
X167005000Y-45720000D01*
X167005000Y-64771410D02*
X167005000Y-47270000D01*
X169929949Y-67696359D02*
X167005000Y-64771410D01*
X169929949Y-96904949D02*
X169929949Y-67696359D01*
X173355000Y-100330000D02*
X169929949Y-96904949D01*
X164465000Y-47270000D02*
X164465000Y-45720000D01*
X164465000Y-62867820D02*
X164465000Y-47270000D01*
X169479939Y-67882759D02*
X164465000Y-62867820D01*
X169479939Y-98994939D02*
X169479939Y-67882759D01*
X173355000Y-102870000D02*
X169479939Y-98994939D01*
X173355000Y-105410000D02*
X168910000Y-100965000D01*
X161925000Y-47270000D02*
X161925000Y-45720000D01*
X161925000Y-60964230D02*
X161925000Y-47270000D01*
X168910000Y-67949230D02*
X161925000Y-60964230D01*
X168910000Y-100965000D02*
X168910000Y-67949230D01*
X159385000Y-47270000D02*
X159385000Y-45720000D01*
X159385000Y-59060640D02*
X159385000Y-47270000D01*
X168459990Y-68135630D02*
X159385000Y-59060640D01*
X168459990Y-103054990D02*
X168459990Y-68135630D01*
X173355000Y-107950000D02*
X168459990Y-103054990D01*
X156845000Y-47270000D02*
X156845000Y-45720000D01*
X156845000Y-57157050D02*
X156845000Y-47270000D01*
X168009980Y-68322030D02*
X156845000Y-57157050D01*
X168009980Y-105144980D02*
X168009980Y-68322030D01*
X173355000Y-110490000D02*
X168009980Y-105144980D01*
X154305000Y-47270000D02*
X154305000Y-45720000D01*
X154305000Y-55253460D02*
X154305000Y-47270000D01*
X167559970Y-68508430D02*
X154305000Y-55253460D01*
X167559970Y-107234970D02*
X167559970Y-68508430D01*
X173355000Y-113030000D02*
X167559970Y-107234970D01*
X173355000Y-115570000D02*
X167005000Y-109220000D01*
X151765000Y-47270000D02*
X151765000Y-45720000D01*
X151765000Y-53349870D02*
X151765000Y-47270000D01*
X167005000Y-68589870D02*
X151765000Y-53349870D01*
X167005000Y-109220000D02*
X167005000Y-68589870D01*
X149225000Y-51446280D02*
X149225000Y-45720000D01*
X166554990Y-68776270D02*
X149225000Y-51446280D01*
X173355000Y-118110000D02*
X166554990Y-111309990D01*
X166554990Y-111309990D02*
X166554990Y-68776270D01*
X146685000Y-49542690D02*
X146685000Y-45720000D01*
X166104980Y-68962670D02*
X146685000Y-49542690D01*
X173355000Y-120650000D02*
X166104980Y-113399980D01*
X166104980Y-113399980D02*
X166104980Y-68962670D01*
X142995000Y-45720000D02*
X144145000Y-45720000D01*
X134620000Y-54095000D02*
X142995000Y-45720000D01*
X134620000Y-81280000D02*
X134620000Y-54095000D01*
X172505001Y-124039999D02*
X152614999Y-124039999D01*
X173355000Y-123190000D02*
X172505001Y-124039999D01*
X152614999Y-124039999D02*
X143510000Y-114935000D01*
X143510000Y-100330000D02*
X134620000Y-91440000D01*
X143510000Y-114935000D02*
X143510000Y-100330000D01*
X158115000Y-147955000D02*
X158115000Y-146050000D01*
X158115000Y-146050000D02*
X140970000Y-128905000D01*
X140970000Y-128905000D02*
X140970000Y-118745000D01*
X132080000Y-109855000D02*
X132080000Y-98425000D01*
X140970000Y-118745000D02*
X132080000Y-109855000D01*
X155575000Y-147955000D02*
X155575000Y-146050000D01*
X155575000Y-146050000D02*
X139065000Y-129540000D01*
X139065000Y-129540000D02*
X139065000Y-119380000D01*
X129540000Y-109855000D02*
X129540000Y-98425000D01*
X139065000Y-119380000D02*
X129540000Y-109855000D01*
X134620000Y-121485000D02*
X134620000Y-121285000D01*
X135890000Y-122755000D02*
X134620000Y-121485000D01*
X135890000Y-129540000D02*
X135890000Y-122755000D01*
X153035000Y-146685000D02*
X135890000Y-129540000D01*
X153035000Y-147955000D02*
X153035000Y-146685000D01*
X150495000Y-146752919D02*
X133985000Y-130242919D01*
X150495000Y-147955000D02*
X150495000Y-146752919D01*
X132080000Y-121485000D02*
X132080000Y-121285000D01*
X133985000Y-123390000D02*
X132080000Y-121485000D01*
X133985000Y-130242919D02*
X133985000Y-123390000D01*
X129540000Y-121485000D02*
X129540000Y-121285000D01*
X132080000Y-124025000D02*
X129540000Y-121485000D01*
X132080000Y-130877919D02*
X132080000Y-124025000D01*
X147955000Y-146752919D02*
X132080000Y-130877919D01*
X147955000Y-147955000D02*
X147955000Y-146752919D01*
X145415000Y-146752919D02*
X130175000Y-131512919D01*
X145415000Y-147955000D02*
X145415000Y-146752919D01*
X130175000Y-131512919D02*
X130175000Y-125730000D01*
X127000000Y-122555000D02*
X127000000Y-121285000D01*
X130175000Y-125730000D02*
X127000000Y-122555000D01*
X142875000Y-146752919D02*
X128270000Y-132147919D01*
X142875000Y-147955000D02*
X142875000Y-146752919D01*
X128270000Y-132147919D02*
X128270000Y-127000000D01*
X124460000Y-123190000D02*
X124460000Y-121285000D01*
X128270000Y-127000000D02*
X124460000Y-123190000D01*
D27*
X137160000Y-121085000D02*
X125730000Y-109655000D01*
X137160000Y-121285000D02*
X137160000Y-121085000D01*
X125730000Y-93980000D02*
X128270000Y-91440000D01*
X125730000Y-109655000D02*
X125730000Y-93980000D01*
D28*
X121920000Y-123825000D02*
X121920000Y-121285000D01*
X125730000Y-127635000D02*
X121920000Y-123825000D01*
D29*
G36*
X182195001Y-40038647D02*
G01*
X182197948Y-40068563D01*
X182197865Y-40080383D01*
X182198799Y-40089902D01*
X182237662Y-40459656D01*
X182250139Y-40520437D01*
X182261779Y-40581458D01*
X182264544Y-40590614D01*
X182374485Y-40945777D01*
X182398549Y-41003023D01*
X182421801Y-41060574D01*
X182426291Y-41069019D01*
X182603123Y-41396064D01*
X182637858Y-41447561D01*
X182671837Y-41499486D01*
X182677882Y-41506898D01*
X182914871Y-41793368D01*
X182958908Y-41837098D01*
X183002362Y-41881472D01*
X183009731Y-41887569D01*
X183297849Y-42122552D01*
X183349582Y-42156924D01*
X183400788Y-42191985D01*
X183409201Y-42196534D01*
X183737474Y-42371079D01*
X183794884Y-42394742D01*
X183851937Y-42419195D01*
X183861073Y-42422024D01*
X184216996Y-42529483D01*
X184277857Y-42541534D01*
X184338629Y-42554451D01*
X184348140Y-42555451D01*
X184718156Y-42591731D01*
X184718163Y-42591731D01*
X184751353Y-42595000D01*
X189180000Y-42595000D01*
X189180000Y-44136554D01*
X189105083Y-44061637D01*
X188755402Y-43827988D01*
X188366856Y-43667047D01*
X187954379Y-43585000D01*
X187533821Y-43585000D01*
X187121344Y-43667047D01*
X186732798Y-43827988D01*
X186383117Y-44061637D01*
X186085737Y-44359017D01*
X185852088Y-44708698D01*
X185691147Y-45097244D01*
X185609100Y-45509721D01*
X185609100Y-45930279D01*
X185691147Y-46342756D01*
X185852088Y-46731302D01*
X186085737Y-47080983D01*
X186383117Y-47378363D01*
X186732798Y-47612012D01*
X187121344Y-47772953D01*
X187533821Y-47855000D01*
X187954379Y-47855000D01*
X188366856Y-47772953D01*
X188755402Y-47612012D01*
X189105083Y-47378363D01*
X189180000Y-47303446D01*
X189180000Y-75137254D01*
X189105083Y-75062337D01*
X188755402Y-74828688D01*
X188366856Y-74667747D01*
X187954379Y-74585700D01*
X187533821Y-74585700D01*
X187121344Y-74667747D01*
X186732798Y-74828688D01*
X186383117Y-75062337D01*
X186085737Y-75359717D01*
X185852088Y-75709398D01*
X185691147Y-76097944D01*
X185609100Y-76510421D01*
X185609100Y-76930979D01*
X185691147Y-77343456D01*
X185852088Y-77732002D01*
X186085737Y-78081683D01*
X186383117Y-78379063D01*
X186732798Y-78612712D01*
X187121344Y-78773653D01*
X187533821Y-78855700D01*
X187954379Y-78855700D01*
X188366856Y-78773653D01*
X188755402Y-78612712D01*
X189105083Y-78379063D01*
X189180000Y-78304146D01*
X189180001Y-149826487D01*
X189153543Y-150096327D01*
X189084908Y-150323656D01*
X188973428Y-150533320D01*
X188823343Y-150717341D01*
X188640380Y-150868701D01*
X188431493Y-150981646D01*
X188204653Y-151051865D01*
X187936966Y-151080000D01*
X112428503Y-151080000D01*
X112158673Y-151053543D01*
X111931344Y-150984908D01*
X111721680Y-150873428D01*
X111537659Y-150723343D01*
X111386299Y-150540380D01*
X111273354Y-150331493D01*
X111203135Y-150104653D01*
X111175000Y-149836966D01*
X111175000Y-135695000D01*
X111906606Y-135695000D01*
X111940105Y-136035119D01*
X112039314Y-136362168D01*
X112200421Y-136663578D01*
X112417234Y-136927766D01*
X112423008Y-136932504D01*
X112411928Y-137045000D01*
X112411928Y-138545000D01*
X112424188Y-138669482D01*
X112460498Y-138789180D01*
X112519463Y-138899494D01*
X112598815Y-138996185D01*
X112638940Y-139029114D01*
X112514236Y-139262419D01*
X112435040Y-139523493D01*
X112408299Y-139795000D01*
X112435040Y-140066507D01*
X112514236Y-140327581D01*
X112642843Y-140568188D01*
X112815919Y-140779081D01*
X112835316Y-140795000D01*
X112815919Y-140810919D01*
X112642843Y-141021812D01*
X112514236Y-141262419D01*
X112435040Y-141523493D01*
X112408299Y-141795000D01*
X112435040Y-142066507D01*
X112514236Y-142327581D01*
X112608994Y-142504861D01*
X112417234Y-142662234D01*
X112200421Y-142926422D01*
X112039314Y-143227832D01*
X111940105Y-143554881D01*
X111906606Y-143895000D01*
X111940105Y-144235119D01*
X112039314Y-144562168D01*
X112200421Y-144863578D01*
X112417234Y-145127766D01*
X112681422Y-145344579D01*
X112982832Y-145505686D01*
X113309881Y-145604895D01*
X113564775Y-145630000D01*
X115035225Y-145630000D01*
X115290119Y-145604895D01*
X115617168Y-145505686D01*
X115918578Y-145344579D01*
X116182766Y-145127766D01*
X116399579Y-144863578D01*
X116560686Y-144562168D01*
X116659895Y-144235119D01*
X116693394Y-143895000D01*
X116659895Y-143554881D01*
X116560686Y-143227832D01*
X116399579Y-142926422D01*
X116182766Y-142662234D01*
X115991006Y-142504861D01*
X116085764Y-142327581D01*
X116164960Y-142066507D01*
X116191701Y-141795000D01*
X116164960Y-141523493D01*
X116085764Y-141262419D01*
X115957157Y-141021812D01*
X115784081Y-140810919D01*
X115764684Y-140795000D01*
X115784081Y-140779081D01*
X115957157Y-140568188D01*
X116085764Y-140327581D01*
X116164960Y-140066507D01*
X116191701Y-139795000D01*
X116164960Y-139523493D01*
X116085764Y-139262419D01*
X115961060Y-139029114D01*
X116001185Y-138996185D01*
X116080537Y-138899494D01*
X116139502Y-138789180D01*
X116175812Y-138669482D01*
X116188072Y-138545000D01*
X116188072Y-137653665D01*
X124295000Y-137653665D01*
X124295000Y-137936335D01*
X124350147Y-138213574D01*
X124458320Y-138474727D01*
X124615363Y-138709759D01*
X124815241Y-138909637D01*
X125050273Y-139066680D01*
X125311426Y-139174853D01*
X125588665Y-139230000D01*
X125871335Y-139230000D01*
X125994907Y-139205420D01*
X128730001Y-141940514D01*
X128730000Y-143805139D01*
X128600150Y-143844528D01*
X128446614Y-143926595D01*
X128312038Y-144037038D01*
X128201595Y-144171614D01*
X128119528Y-144325150D01*
X128068992Y-144491746D01*
X128051928Y-144665000D01*
X128051928Y-146165000D01*
X128068992Y-146338254D01*
X128119528Y-146504850D01*
X128201595Y-146658386D01*
X128312038Y-146792962D01*
X128446614Y-146903405D01*
X128600150Y-146985472D01*
X128766746Y-147036008D01*
X128940000Y-147053072D01*
X130140000Y-147053072D01*
X130313254Y-147036008D01*
X130479850Y-146985472D01*
X130633386Y-146903405D01*
X130767962Y-146792962D01*
X130878405Y-146658386D01*
X130932777Y-146556663D01*
X130984866Y-146620134D01*
X131210987Y-146805706D01*
X131468967Y-146943599D01*
X131748890Y-147028513D01*
X132040000Y-147057185D01*
X132331111Y-147028513D01*
X132611034Y-146943599D01*
X132869014Y-146805706D01*
X133095134Y-146620134D01*
X133280706Y-146394014D01*
X133418599Y-146136033D01*
X133503513Y-145856110D01*
X133525000Y-145637949D01*
X133525000Y-145192050D01*
X133503513Y-144973889D01*
X133418599Y-144693966D01*
X133280706Y-144435986D01*
X133095134Y-144209866D01*
X132869013Y-144024294D01*
X132611033Y-143886401D01*
X132331110Y-143801487D01*
X132040000Y-143772815D01*
X131748889Y-143801487D01*
X131468966Y-143886401D01*
X131210986Y-144024294D01*
X130984866Y-144209866D01*
X130932777Y-144273337D01*
X130878405Y-144171614D01*
X130767962Y-144037038D01*
X130633386Y-143926595D01*
X130479850Y-143844528D01*
X130350000Y-143805139D01*
X130350000Y-141644788D01*
X130353919Y-141605000D01*
X130345891Y-141523493D01*
X130338280Y-141446212D01*
X130291963Y-141293527D01*
X130291963Y-141293526D01*
X130216749Y-141152811D01*
X130140893Y-141060380D01*
X130115528Y-141029472D01*
X130084618Y-141004105D01*
X127140420Y-138059907D01*
X127165000Y-137936335D01*
X127165000Y-137653665D01*
X127109853Y-137376426D01*
X127001680Y-137115273D01*
X126844637Y-136880241D01*
X126644759Y-136680363D01*
X126409727Y-136523320D01*
X126148574Y-136415147D01*
X125871335Y-136360000D01*
X125588665Y-136360000D01*
X125311426Y-136415147D01*
X125050273Y-136523320D01*
X124815241Y-136680363D01*
X124615363Y-136880241D01*
X124458320Y-137115273D01*
X124350147Y-137376426D01*
X124295000Y-137653665D01*
X116188072Y-137653665D01*
X116188072Y-137045000D01*
X116176992Y-136932504D01*
X116182766Y-136927766D01*
X116399579Y-136663578D01*
X116560686Y-136362168D01*
X116659895Y-136035119D01*
X116693394Y-135695000D01*
X116659895Y-135354881D01*
X116560686Y-135027832D01*
X116399579Y-134726422D01*
X116182766Y-134462234D01*
X115918578Y-134245421D01*
X115617168Y-134084314D01*
X115290119Y-133985105D01*
X115035225Y-133960000D01*
X113564775Y-133960000D01*
X113309881Y-133985105D01*
X112982832Y-134084314D01*
X112681422Y-134245421D01*
X112417234Y-134462234D01*
X112200421Y-134726422D01*
X112039314Y-135027832D01*
X111940105Y-135354881D01*
X111906606Y-135695000D01*
X111175000Y-135695000D01*
X111175000Y-123317000D01*
X118110000Y-123317000D01*
X118134776Y-123314560D01*
X118158601Y-123307333D01*
X118180557Y-123295597D01*
X118199803Y-123279803D01*
X118215597Y-123260557D01*
X118227333Y-123238601D01*
X118234560Y-123214776D01*
X118237000Y-123190000D01*
X118237000Y-122905195D01*
X118255518Y-122910812D01*
X118380000Y-122923072D01*
X120380000Y-122923072D01*
X120504482Y-122910812D01*
X120624180Y-122874502D01*
X120734494Y-122815537D01*
X120831185Y-122736185D01*
X120910537Y-122639494D01*
X120957559Y-122551523D01*
X121118900Y-122683932D01*
X121160000Y-122705901D01*
X121160000Y-123787677D01*
X121156324Y-123825000D01*
X121160000Y-123862322D01*
X121160000Y-123862332D01*
X121170997Y-123973985D01*
X121214454Y-124117246D01*
X121285026Y-124249276D01*
X121324871Y-124297826D01*
X121379999Y-124365001D01*
X121409003Y-124388804D01*
X124329292Y-127309094D01*
X124315764Y-127353691D01*
X124288057Y-127635000D01*
X124315764Y-127916309D01*
X124397818Y-128186808D01*
X124531068Y-128436101D01*
X124710392Y-128654608D01*
X124928899Y-128833932D01*
X125178192Y-128967182D01*
X125448691Y-129049236D01*
X125659508Y-129070000D01*
X125800492Y-129070000D01*
X126011309Y-129049236D01*
X126281808Y-128967182D01*
X126531101Y-128833932D01*
X126749608Y-128654608D01*
X126928932Y-128436101D01*
X127062182Y-128186808D01*
X127144236Y-127916309D01*
X127171943Y-127635000D01*
X127144236Y-127353691D01*
X127062182Y-127083192D01*
X126928932Y-126833899D01*
X126749608Y-126615392D01*
X126531101Y-126436068D01*
X126281808Y-126302818D01*
X126011309Y-126220764D01*
X125800492Y-126200000D01*
X125659508Y-126200000D01*
X125448691Y-126220764D01*
X125404094Y-126234292D01*
X122680000Y-123510199D01*
X122680000Y-122705901D01*
X122721101Y-122683932D01*
X122939608Y-122504608D01*
X123118932Y-122286101D01*
X123190000Y-122153142D01*
X123261068Y-122286101D01*
X123440393Y-122504608D01*
X123658900Y-122683932D01*
X123700000Y-122705901D01*
X123700000Y-123152677D01*
X123696324Y-123190000D01*
X123700000Y-123227322D01*
X123700000Y-123227332D01*
X123710997Y-123338985D01*
X123754110Y-123481111D01*
X123754454Y-123482246D01*
X123825026Y-123614276D01*
X123826214Y-123615723D01*
X123919999Y-123730001D01*
X123949003Y-123753804D01*
X127510001Y-127314803D01*
X127510000Y-132110596D01*
X127506324Y-132147919D01*
X127510000Y-132185241D01*
X127510000Y-132185251D01*
X127520997Y-132296904D01*
X127564454Y-132440165D01*
X127635026Y-132572195D01*
X127674871Y-132620745D01*
X127729999Y-132687920D01*
X127759003Y-132711723D01*
X141889773Y-146842494D01*
X141819866Y-146899866D01*
X141634294Y-147125986D01*
X141605000Y-147180791D01*
X141575706Y-147125986D01*
X141390134Y-146899866D01*
X141164014Y-146714294D01*
X140906034Y-146576401D01*
X140626111Y-146491487D01*
X140407950Y-146470000D01*
X140262050Y-146470000D01*
X140043889Y-146491487D01*
X139763966Y-146576401D01*
X139505986Y-146714294D01*
X139279866Y-146899866D01*
X139094294Y-147125986D01*
X138956401Y-147383966D01*
X138871487Y-147663889D01*
X138842815Y-147955000D01*
X138871487Y-148246111D01*
X138956401Y-148526034D01*
X139094294Y-148784014D01*
X139279866Y-149010134D01*
X139505986Y-149195706D01*
X139763966Y-149333599D01*
X140043889Y-149418513D01*
X140262050Y-149440000D01*
X140407950Y-149440000D01*
X140626111Y-149418513D01*
X140906034Y-149333599D01*
X141164014Y-149195706D01*
X141390134Y-149010134D01*
X141575706Y-148784014D01*
X141605000Y-148729209D01*
X141634294Y-148784014D01*
X141819866Y-149010134D01*
X142045986Y-149195706D01*
X142303966Y-149333599D01*
X142583889Y-149418513D01*
X142802050Y-149440000D01*
X142947950Y-149440000D01*
X143166111Y-149418513D01*
X143446034Y-149333599D01*
X143704014Y-149195706D01*
X143930134Y-149010134D01*
X144115706Y-148784014D01*
X144145000Y-148729209D01*
X144174294Y-148784014D01*
X144359866Y-149010134D01*
X144585986Y-149195706D01*
X144843966Y-149333599D01*
X145123889Y-149418513D01*
X145342050Y-149440000D01*
X145487950Y-149440000D01*
X145706111Y-149418513D01*
X145986034Y-149333599D01*
X146244014Y-149195706D01*
X146470134Y-149010134D01*
X146655706Y-148784014D01*
X146685000Y-148729209D01*
X146714294Y-148784014D01*
X146899866Y-149010134D01*
X147125986Y-149195706D01*
X147383966Y-149333599D01*
X147663889Y-149418513D01*
X147882050Y-149440000D01*
X148027950Y-149440000D01*
X148246111Y-149418513D01*
X148526034Y-149333599D01*
X148784014Y-149195706D01*
X149010134Y-149010134D01*
X149195706Y-148784014D01*
X149225000Y-148729209D01*
X149254294Y-148784014D01*
X149439866Y-149010134D01*
X149665986Y-149195706D01*
X149923966Y-149333599D01*
X150203889Y-149418513D01*
X150422050Y-149440000D01*
X150567950Y-149440000D01*
X150786111Y-149418513D01*
X151066034Y-149333599D01*
X151324014Y-149195706D01*
X151550134Y-149010134D01*
X151735706Y-148784014D01*
X151765000Y-148729209D01*
X151794294Y-148784014D01*
X151979866Y-149010134D01*
X152205986Y-149195706D01*
X152463966Y-149333599D01*
X152743889Y-149418513D01*
X152962050Y-149440000D01*
X153107950Y-149440000D01*
X153326111Y-149418513D01*
X153606034Y-149333599D01*
X153864014Y-149195706D01*
X154090134Y-149010134D01*
X154275706Y-148784014D01*
X154305000Y-148729209D01*
X154334294Y-148784014D01*
X154519866Y-149010134D01*
X154745986Y-149195706D01*
X155003966Y-149333599D01*
X155283889Y-149418513D01*
X155502050Y-149440000D01*
X155647950Y-149440000D01*
X155866111Y-149418513D01*
X156146034Y-149333599D01*
X156404014Y-149195706D01*
X156630134Y-149010134D01*
X156815706Y-148784014D01*
X156845000Y-148729209D01*
X156874294Y-148784014D01*
X157059866Y-149010134D01*
X157285986Y-149195706D01*
X157543966Y-149333599D01*
X157823889Y-149418513D01*
X158042050Y-149440000D01*
X158187950Y-149440000D01*
X158406111Y-149418513D01*
X158686034Y-149333599D01*
X158944014Y-149195706D01*
X159170134Y-149010134D01*
X159194607Y-148980313D01*
X159215498Y-149049180D01*
X159274463Y-149159494D01*
X159353815Y-149256185D01*
X159450506Y-149335537D01*
X159560820Y-149394502D01*
X159680518Y-149430812D01*
X159805000Y-149443072D01*
X161505000Y-149443072D01*
X161629482Y-149430812D01*
X161749180Y-149394502D01*
X161859494Y-149335537D01*
X161956185Y-149256185D01*
X162035537Y-149159494D01*
X162094502Y-149049180D01*
X162130812Y-148929482D01*
X162143072Y-148805000D01*
X162143072Y-147105000D01*
X162130812Y-146980518D01*
X162094502Y-146860820D01*
X162035537Y-146750506D01*
X161956185Y-146653815D01*
X161859494Y-146574463D01*
X161749180Y-146515498D01*
X161629482Y-146479188D01*
X161505000Y-146466928D01*
X159805000Y-146466928D01*
X159680518Y-146479188D01*
X159560820Y-146515498D01*
X159450506Y-146574463D01*
X159353815Y-146653815D01*
X159274463Y-146750506D01*
X159215498Y-146860820D01*
X159194607Y-146929687D01*
X159170134Y-146899866D01*
X158944014Y-146714294D01*
X158875000Y-146677405D01*
X158875000Y-146087333D01*
X158878677Y-146050000D01*
X158864003Y-145901014D01*
X158820546Y-145757753D01*
X158749974Y-145625724D01*
X158678799Y-145538997D01*
X158655001Y-145509999D01*
X158626003Y-145486201D01*
X141730000Y-128590199D01*
X141730000Y-118782333D01*
X141733677Y-118745000D01*
X141719003Y-118596014D01*
X141675546Y-118452753D01*
X141604974Y-118320724D01*
X141533799Y-118233997D01*
X141510001Y-118204999D01*
X141481003Y-118181201D01*
X132840000Y-109540199D01*
X132840000Y-99845901D01*
X132881101Y-99823932D01*
X133099608Y-99644608D01*
X133278932Y-99426101D01*
X133348122Y-99296655D01*
X133355570Y-99314227D01*
X133514327Y-99547662D01*
X133715575Y-99745639D01*
X133951579Y-99900551D01*
X134213270Y-100006444D01*
X134270961Y-100016904D01*
X134493000Y-99894915D01*
X134493000Y-98552000D01*
X134473000Y-98552000D01*
X134473000Y-98298000D01*
X134493000Y-98298000D01*
X134493000Y-96955085D01*
X134747000Y-96955085D01*
X134747000Y-98298000D01*
X134767000Y-98298000D01*
X134767000Y-98552000D01*
X134747000Y-98552000D01*
X134747000Y-99894915D01*
X134969039Y-100016904D01*
X135026730Y-100006444D01*
X135288421Y-99900551D01*
X135524425Y-99745639D01*
X135725673Y-99547662D01*
X135884430Y-99314227D01*
X135891878Y-99296655D01*
X135961068Y-99426101D01*
X136140393Y-99644608D01*
X136358900Y-99823932D01*
X136608193Y-99957182D01*
X136878692Y-100039236D01*
X137160000Y-100066943D01*
X137441309Y-100039236D01*
X137711808Y-99957182D01*
X137961101Y-99823932D01*
X138179608Y-99644608D01*
X138358932Y-99426101D01*
X138492182Y-99176807D01*
X138574236Y-98906308D01*
X138595000Y-98695491D01*
X138595000Y-98154508D01*
X138574236Y-97943691D01*
X138492182Y-97673192D01*
X138358932Y-97423899D01*
X138179607Y-97205392D01*
X137961100Y-97026068D01*
X137711807Y-96892818D01*
X137441308Y-96810764D01*
X137160000Y-96783057D01*
X136878691Y-96810764D01*
X136608192Y-96892818D01*
X136358899Y-97026068D01*
X136140392Y-97205393D01*
X135961068Y-97423900D01*
X135891878Y-97553345D01*
X135884430Y-97535773D01*
X135725673Y-97302338D01*
X135524425Y-97104361D01*
X135288421Y-96949449D01*
X135026730Y-96843556D01*
X134969039Y-96833096D01*
X134747000Y-96955085D01*
X134493000Y-96955085D01*
X134270961Y-96833096D01*
X134213270Y-96843556D01*
X133951579Y-96949449D01*
X133715575Y-97104361D01*
X133514327Y-97302338D01*
X133355570Y-97535773D01*
X133348122Y-97553345D01*
X133278932Y-97423899D01*
X133099607Y-97205392D01*
X132881100Y-97026068D01*
X132631807Y-96892818D01*
X132361308Y-96810764D01*
X132080000Y-96783057D01*
X131798691Y-96810764D01*
X131528192Y-96892818D01*
X131278899Y-97026068D01*
X131060392Y-97205393D01*
X130881068Y-97423900D01*
X130810000Y-97556858D01*
X130738932Y-97423899D01*
X130559607Y-97205392D01*
X130341100Y-97026068D01*
X130091807Y-96892818D01*
X129821308Y-96810764D01*
X129540000Y-96783057D01*
X129258691Y-96810764D01*
X128988192Y-96892818D01*
X128738899Y-97026068D01*
X128520392Y-97205393D01*
X128341068Y-97423900D01*
X128270000Y-97556858D01*
X128198932Y-97423899D01*
X128019607Y-97205392D01*
X127801100Y-97026068D01*
X127551807Y-96892818D01*
X127281308Y-96810764D01*
X127000000Y-96783057D01*
X126718691Y-96810764D01*
X126540000Y-96864969D01*
X126540000Y-94315512D01*
X128005093Y-92850420D01*
X128128665Y-92875000D01*
X128411335Y-92875000D01*
X128688574Y-92819853D01*
X128949727Y-92711680D01*
X129184759Y-92554637D01*
X129384637Y-92354759D01*
X129541680Y-92119727D01*
X129649853Y-91858574D01*
X129705000Y-91581335D01*
X129705000Y-91298665D01*
X129649853Y-91021426D01*
X129541680Y-90760273D01*
X129384637Y-90525241D01*
X129184759Y-90325363D01*
X128949727Y-90168320D01*
X128688574Y-90060147D01*
X128411335Y-90005000D01*
X128128665Y-90005000D01*
X127851426Y-90060147D01*
X127590273Y-90168320D01*
X127355241Y-90325363D01*
X127155363Y-90525241D01*
X126998320Y-90760273D01*
X126890147Y-91021426D01*
X126835000Y-91298665D01*
X126835000Y-91581335D01*
X126859580Y-91704907D01*
X125185383Y-93379105D01*
X125154473Y-93404472D01*
X125129108Y-93435380D01*
X125053251Y-93527811D01*
X124978038Y-93668527D01*
X124972206Y-93687754D01*
X124931721Y-93821213D01*
X124916081Y-93980000D01*
X124920001Y-94019798D01*
X124920001Y-96864969D01*
X124741308Y-96810764D01*
X124460000Y-96783057D01*
X124178691Y-96810764D01*
X123908192Y-96892818D01*
X123658899Y-97026068D01*
X123440392Y-97205393D01*
X123261068Y-97423900D01*
X123190000Y-97556858D01*
X123118932Y-97423899D01*
X122939607Y-97205392D01*
X122721100Y-97026068D01*
X122471807Y-96892818D01*
X122201308Y-96810764D01*
X121920000Y-96783057D01*
X121638691Y-96810764D01*
X121368192Y-96892818D01*
X121118899Y-97026068D01*
X120900392Y-97205393D01*
X120721068Y-97423900D01*
X120650000Y-97556858D01*
X120578932Y-97423899D01*
X120399607Y-97205392D01*
X120181100Y-97026068D01*
X120140000Y-97004100D01*
X120140000Y-94294801D01*
X121596114Y-92838688D01*
X121778665Y-92875000D01*
X122061335Y-92875000D01*
X122338574Y-92819853D01*
X122599727Y-92711680D01*
X122834759Y-92554637D01*
X123034637Y-92354759D01*
X123191680Y-92119727D01*
X123299853Y-91858574D01*
X123355000Y-91581335D01*
X123355000Y-91298665D01*
X123318688Y-91116113D01*
X127314802Y-87120000D01*
X128867678Y-87120000D01*
X128905000Y-87123676D01*
X128942322Y-87120000D01*
X128942333Y-87120000D01*
X129053986Y-87109003D01*
X129197247Y-87065546D01*
X129329276Y-86994974D01*
X129445001Y-86900001D01*
X129468804Y-86870997D01*
X131956009Y-84383794D01*
X131985001Y-84360001D01*
X132008795Y-84331008D01*
X132008799Y-84331004D01*
X132079973Y-84244277D01*
X132079974Y-84244276D01*
X132150546Y-84112247D01*
X132194003Y-83968986D01*
X132205000Y-83857333D01*
X132205000Y-83857324D01*
X132208676Y-83820001D01*
X132205000Y-83782678D01*
X132205000Y-81280000D01*
X133178057Y-81280000D01*
X133205764Y-81561309D01*
X133287818Y-81831808D01*
X133421068Y-82081101D01*
X133600392Y-82299608D01*
X133818899Y-82478932D01*
X134068192Y-82612182D01*
X134338691Y-82694236D01*
X134549508Y-82715000D01*
X134690492Y-82715000D01*
X134901309Y-82694236D01*
X135171808Y-82612182D01*
X135421101Y-82478932D01*
X135639608Y-82299608D01*
X135818932Y-82081101D01*
X135952182Y-81831808D01*
X136034236Y-81561309D01*
X136061943Y-81280000D01*
X136034236Y-80998691D01*
X135952182Y-80728192D01*
X135818932Y-80478899D01*
X135639608Y-80260392D01*
X135421101Y-80081068D01*
X135380000Y-80059099D01*
X135380000Y-54409801D01*
X142845227Y-46944575D01*
X142862519Y-46976926D01*
X143054339Y-47210661D01*
X143288073Y-47402481D01*
X143554739Y-47545017D01*
X143844087Y-47632790D01*
X144145000Y-47662427D01*
X144445912Y-47632790D01*
X144735260Y-47545017D01*
X145001926Y-47402481D01*
X145235661Y-47210661D01*
X145415000Y-46992135D01*
X145594339Y-47210661D01*
X145828073Y-47402481D01*
X145925001Y-47454290D01*
X145925000Y-49505367D01*
X145921324Y-49542690D01*
X145925000Y-49580012D01*
X145925000Y-49580022D01*
X145935997Y-49691675D01*
X145979454Y-49834936D01*
X146050026Y-49966966D01*
X146089871Y-50015516D01*
X146144999Y-50082691D01*
X146174003Y-50106494D01*
X165344981Y-69277473D01*
X165344980Y-113362658D01*
X165341304Y-113399980D01*
X165344980Y-113437302D01*
X165344980Y-113437312D01*
X165355977Y-113548965D01*
X165399434Y-113692226D01*
X165470006Y-113824256D01*
X165509851Y-113872806D01*
X165564979Y-113939981D01*
X165593983Y-113963784D01*
X171914203Y-120284005D01*
X171891487Y-120358889D01*
X171862815Y-120650000D01*
X171891487Y-120941111D01*
X171976401Y-121221034D01*
X172114294Y-121479014D01*
X172299866Y-121705134D01*
X172525986Y-121890706D01*
X172580791Y-121920000D01*
X172525986Y-121949294D01*
X172299866Y-122134866D01*
X172114294Y-122360986D01*
X171976401Y-122618966D01*
X171891487Y-122898889D01*
X171862815Y-123190000D01*
X171871679Y-123279999D01*
X152929801Y-123279999D01*
X144270000Y-114620199D01*
X144270000Y-100367333D01*
X144273677Y-100330000D01*
X144259003Y-100181014D01*
X144215546Y-100037753D01*
X144144974Y-99905724D01*
X144073799Y-99818997D01*
X144050001Y-99789999D01*
X144021003Y-99766201D01*
X136018688Y-91763887D01*
X136055000Y-91581335D01*
X136055000Y-91298665D01*
X135999853Y-91021426D01*
X135891680Y-90760273D01*
X135734637Y-90525241D01*
X135534759Y-90325363D01*
X135299727Y-90168320D01*
X135038574Y-90060147D01*
X134761335Y-90005000D01*
X134478665Y-90005000D01*
X134201426Y-90060147D01*
X133940273Y-90168320D01*
X133705241Y-90325363D01*
X133505363Y-90525241D01*
X133348320Y-90760273D01*
X133240147Y-91021426D01*
X133185000Y-91298665D01*
X133185000Y-91581335D01*
X133240147Y-91858574D01*
X133348320Y-92119727D01*
X133505363Y-92354759D01*
X133705241Y-92554637D01*
X133940273Y-92711680D01*
X134201426Y-92819853D01*
X134478665Y-92875000D01*
X134761335Y-92875000D01*
X134943887Y-92838688D01*
X142750001Y-100644803D01*
X142750000Y-114897678D01*
X142746324Y-114935000D01*
X142750000Y-114972322D01*
X142750000Y-114972332D01*
X142760997Y-115083985D01*
X142779725Y-115145723D01*
X142804454Y-115227246D01*
X142875026Y-115359276D01*
X142914871Y-115407826D01*
X142969999Y-115475001D01*
X142999003Y-115498804D01*
X152051200Y-124551002D01*
X152074998Y-124580000D01*
X152103996Y-124603798D01*
X152190722Y-124674973D01*
X152294689Y-124730545D01*
X152322752Y-124745545D01*
X152466013Y-124789002D01*
X152577666Y-124799999D01*
X152577675Y-124799999D01*
X152614998Y-124803675D01*
X152652321Y-124799999D01*
X172467679Y-124799999D01*
X172505001Y-124803675D01*
X172542323Y-124799999D01*
X172542334Y-124799999D01*
X172653987Y-124789002D01*
X172797248Y-124745545D01*
X172929277Y-124674973D01*
X172984698Y-124629490D01*
X173063889Y-124653513D01*
X173282050Y-124675000D01*
X173427950Y-124675000D01*
X173646111Y-124653513D01*
X173926034Y-124568599D01*
X174184014Y-124430706D01*
X174410134Y-124245134D01*
X174595706Y-124019014D01*
X174733599Y-123761034D01*
X174818513Y-123481111D01*
X174847185Y-123190000D01*
X174818513Y-122898889D01*
X174733599Y-122618966D01*
X174595706Y-122360986D01*
X174410134Y-122134866D01*
X174184014Y-121949294D01*
X174129209Y-121920000D01*
X174184014Y-121890706D01*
X174410134Y-121705134D01*
X174595706Y-121479014D01*
X174733599Y-121221034D01*
X174818513Y-120941111D01*
X174847185Y-120650000D01*
X174818513Y-120358889D01*
X174733599Y-120078966D01*
X174595706Y-119820986D01*
X174410134Y-119594866D01*
X174184014Y-119409294D01*
X174129209Y-119380000D01*
X174184014Y-119350706D01*
X174410134Y-119165134D01*
X174595706Y-118939014D01*
X174733599Y-118681034D01*
X174818513Y-118401111D01*
X174847185Y-118110000D01*
X174818513Y-117818889D01*
X174733599Y-117538966D01*
X174595706Y-117280986D01*
X174410134Y-117054866D01*
X174184014Y-116869294D01*
X174129209Y-116840000D01*
X174184014Y-116810706D01*
X174410134Y-116625134D01*
X174595706Y-116399014D01*
X174733599Y-116141034D01*
X174818513Y-115861111D01*
X174847185Y-115570000D01*
X174818513Y-115278889D01*
X174733599Y-114998966D01*
X174595706Y-114740986D01*
X174410134Y-114514866D01*
X174184014Y-114329294D01*
X174129209Y-114300000D01*
X174184014Y-114270706D01*
X174410134Y-114085134D01*
X174595706Y-113859014D01*
X174733599Y-113601034D01*
X174818513Y-113321111D01*
X174847185Y-113030000D01*
X174818513Y-112738889D01*
X174733599Y-112458966D01*
X174595706Y-112200986D01*
X174410134Y-111974866D01*
X174184014Y-111789294D01*
X174129209Y-111760000D01*
X174184014Y-111730706D01*
X174410134Y-111545134D01*
X174595706Y-111319014D01*
X174733599Y-111061034D01*
X174818513Y-110781111D01*
X174847185Y-110490000D01*
X174818513Y-110198889D01*
X174733599Y-109918966D01*
X174595706Y-109660986D01*
X174410134Y-109434866D01*
X174184014Y-109249294D01*
X174129209Y-109220000D01*
X174184014Y-109190706D01*
X174410134Y-109005134D01*
X174595706Y-108779014D01*
X174733599Y-108521034D01*
X174818513Y-108241111D01*
X174847185Y-107950000D01*
X174818513Y-107658889D01*
X174733599Y-107378966D01*
X174595706Y-107120986D01*
X174410134Y-106894866D01*
X174184014Y-106709294D01*
X174129209Y-106680000D01*
X174184014Y-106650706D01*
X174410134Y-106465134D01*
X174595706Y-106239014D01*
X174733599Y-105981034D01*
X174818513Y-105701111D01*
X174847185Y-105410000D01*
X174818513Y-105118889D01*
X174733599Y-104838966D01*
X174595706Y-104580986D01*
X174410134Y-104354866D01*
X174184014Y-104169294D01*
X174129209Y-104140000D01*
X174184014Y-104110706D01*
X174410134Y-103925134D01*
X174595706Y-103699014D01*
X174733599Y-103441034D01*
X174818513Y-103161111D01*
X174847185Y-102870000D01*
X174818513Y-102578889D01*
X174733599Y-102298966D01*
X174595706Y-102040986D01*
X174410134Y-101814866D01*
X174184014Y-101629294D01*
X174129209Y-101600000D01*
X174184014Y-101570706D01*
X174410134Y-101385134D01*
X174595706Y-101159014D01*
X174733599Y-100901034D01*
X174818513Y-100621111D01*
X174847185Y-100330000D01*
X174818513Y-100038889D01*
X174733599Y-99758966D01*
X174595706Y-99500986D01*
X174410134Y-99274866D01*
X174184014Y-99089294D01*
X174129209Y-99060000D01*
X174184014Y-99030706D01*
X174410134Y-98845134D01*
X174595706Y-98619014D01*
X174733599Y-98361034D01*
X174818513Y-98081111D01*
X174847185Y-97790000D01*
X174818513Y-97498889D01*
X174733599Y-97218966D01*
X174595706Y-96960986D01*
X174410134Y-96734866D01*
X174184014Y-96549294D01*
X174129209Y-96520000D01*
X174184014Y-96490706D01*
X174410134Y-96305134D01*
X174595706Y-96079014D01*
X174733599Y-95821034D01*
X174818513Y-95541111D01*
X174847185Y-95250000D01*
X174818513Y-94958889D01*
X174733599Y-94678966D01*
X174595706Y-94420986D01*
X174410134Y-94194866D01*
X174184014Y-94009294D01*
X174129209Y-93980000D01*
X174184014Y-93950706D01*
X174410134Y-93765134D01*
X174595706Y-93539014D01*
X174733599Y-93281034D01*
X174818513Y-93001111D01*
X174847185Y-92710000D01*
X174818513Y-92418889D01*
X174733599Y-92138966D01*
X174595706Y-91880986D01*
X174410134Y-91654866D01*
X174184014Y-91469294D01*
X174129209Y-91440000D01*
X174184014Y-91410706D01*
X174410134Y-91225134D01*
X174595706Y-90999014D01*
X174733599Y-90741034D01*
X174818513Y-90461111D01*
X174847185Y-90170000D01*
X174818513Y-89878889D01*
X174733599Y-89598966D01*
X174595706Y-89340986D01*
X174410134Y-89114866D01*
X174184014Y-88929294D01*
X174129209Y-88900000D01*
X174184014Y-88870706D01*
X174410134Y-88685134D01*
X174595706Y-88459014D01*
X174733599Y-88201034D01*
X174818513Y-87921111D01*
X174847185Y-87630000D01*
X174818513Y-87338889D01*
X174733599Y-87058966D01*
X174595706Y-86800986D01*
X174410134Y-86574866D01*
X174380313Y-86550393D01*
X174449180Y-86529502D01*
X174559494Y-86470537D01*
X174656185Y-86391185D01*
X174735537Y-86294494D01*
X174794502Y-86184180D01*
X174830812Y-86064482D01*
X174843072Y-85940000D01*
X174840000Y-85375750D01*
X174769250Y-85305000D01*
X175676928Y-85305000D01*
X175689188Y-85429482D01*
X175725498Y-85549180D01*
X175784463Y-85659494D01*
X175863815Y-85756185D01*
X175960506Y-85835537D01*
X176070820Y-85894502D01*
X176190518Y-85930812D01*
X176315000Y-85943072D01*
X176879250Y-85940000D01*
X177038000Y-85781250D01*
X177038000Y-84582000D01*
X175838750Y-84582000D01*
X175680000Y-84740750D01*
X175676928Y-85305000D01*
X174769250Y-85305000D01*
X174681250Y-85217000D01*
X173482000Y-85217000D01*
X173482000Y-85237000D01*
X173228000Y-85237000D01*
X173228000Y-85217000D01*
X173208000Y-85217000D01*
X173208000Y-84963000D01*
X173228000Y-84963000D01*
X173228000Y-83763750D01*
X173482000Y-83763750D01*
X173482000Y-84963000D01*
X174681250Y-84963000D01*
X174840000Y-84804250D01*
X174843072Y-84240000D01*
X174830812Y-84115518D01*
X174794502Y-83995820D01*
X174735537Y-83885506D01*
X174656185Y-83788815D01*
X174559494Y-83709463D01*
X174449180Y-83650498D01*
X174329482Y-83614188D01*
X174236192Y-83605000D01*
X175676928Y-83605000D01*
X175680000Y-84169250D01*
X175838750Y-84328000D01*
X177038000Y-84328000D01*
X177038000Y-83128750D01*
X177292000Y-83128750D01*
X177292000Y-84328000D01*
X177312000Y-84328000D01*
X177312000Y-84582000D01*
X177292000Y-84582000D01*
X177292000Y-85781250D01*
X177450750Y-85940000D01*
X178015000Y-85943072D01*
X178139482Y-85930812D01*
X178259180Y-85894502D01*
X178369494Y-85835537D01*
X178466185Y-85756185D01*
X178545537Y-85659494D01*
X178604502Y-85549180D01*
X178625393Y-85480313D01*
X178649866Y-85510134D01*
X178875986Y-85695706D01*
X179133966Y-85833599D01*
X179413889Y-85918513D01*
X179632050Y-85940000D01*
X179777950Y-85940000D01*
X179996111Y-85918513D01*
X180276034Y-85833599D01*
X180534014Y-85695706D01*
X180760134Y-85510134D01*
X180945706Y-85284014D01*
X180975000Y-85229209D01*
X181004294Y-85284014D01*
X181189866Y-85510134D01*
X181415986Y-85695706D01*
X181673966Y-85833599D01*
X181953889Y-85918513D01*
X182172050Y-85940000D01*
X182317950Y-85940000D01*
X182536111Y-85918513D01*
X182816034Y-85833599D01*
X183074014Y-85695706D01*
X183300134Y-85510134D01*
X183485706Y-85284014D01*
X183515000Y-85229209D01*
X183544294Y-85284014D01*
X183729866Y-85510134D01*
X183955986Y-85695706D01*
X184213966Y-85833599D01*
X184493889Y-85918513D01*
X184712050Y-85940000D01*
X184857950Y-85940000D01*
X185076111Y-85918513D01*
X185356034Y-85833599D01*
X185614014Y-85695706D01*
X185840134Y-85510134D01*
X186025706Y-85284014D01*
X186163599Y-85026034D01*
X186248513Y-84746111D01*
X186277185Y-84455000D01*
X186248513Y-84163889D01*
X186163599Y-83883966D01*
X186025706Y-83625986D01*
X185840134Y-83399866D01*
X185614014Y-83214294D01*
X185356034Y-83076401D01*
X185076111Y-82991487D01*
X184857950Y-82970000D01*
X184712050Y-82970000D01*
X184493889Y-82991487D01*
X184213966Y-83076401D01*
X183955986Y-83214294D01*
X183729866Y-83399866D01*
X183544294Y-83625986D01*
X183515000Y-83680791D01*
X183485706Y-83625986D01*
X183300134Y-83399866D01*
X183074014Y-83214294D01*
X182816034Y-83076401D01*
X182536111Y-82991487D01*
X182317950Y-82970000D01*
X182172050Y-82970000D01*
X181953889Y-82991487D01*
X181673966Y-83076401D01*
X181415986Y-83214294D01*
X181189866Y-83399866D01*
X181004294Y-83625986D01*
X180975000Y-83680791D01*
X180945706Y-83625986D01*
X180760134Y-83399866D01*
X180534014Y-83214294D01*
X180276034Y-83076401D01*
X179996111Y-82991487D01*
X179777950Y-82970000D01*
X179632050Y-82970000D01*
X179413889Y-82991487D01*
X179133966Y-83076401D01*
X178875986Y-83214294D01*
X178649866Y-83399866D01*
X178625393Y-83429687D01*
X178604502Y-83360820D01*
X178545537Y-83250506D01*
X178466185Y-83153815D01*
X178369494Y-83074463D01*
X178259180Y-83015498D01*
X178139482Y-82979188D01*
X178015000Y-82966928D01*
X177450750Y-82970000D01*
X177292000Y-83128750D01*
X177038000Y-83128750D01*
X176879250Y-82970000D01*
X176315000Y-82966928D01*
X176190518Y-82979188D01*
X176070820Y-83015498D01*
X175960506Y-83074463D01*
X175863815Y-83153815D01*
X175784463Y-83250506D01*
X175725498Y-83360820D01*
X175689188Y-83480518D01*
X175676928Y-83605000D01*
X174236192Y-83605000D01*
X174205000Y-83601928D01*
X173640750Y-83605000D01*
X173482000Y-83763750D01*
X173228000Y-83763750D01*
X173069250Y-83605000D01*
X172939999Y-83604296D01*
X172939999Y-71339802D01*
X180216009Y-64063794D01*
X180245001Y-64040001D01*
X180268795Y-64011008D01*
X180268799Y-64011004D01*
X180339973Y-63924277D01*
X180339974Y-63924276D01*
X180410546Y-63792247D01*
X180454003Y-63648986D01*
X180465000Y-63537333D01*
X180465000Y-63537324D01*
X180468676Y-63500001D01*
X180465000Y-63462678D01*
X180465000Y-47454289D01*
X180561926Y-47402481D01*
X180750505Y-47247720D01*
X180755498Y-47264180D01*
X180814463Y-47374494D01*
X180893815Y-47471185D01*
X180990506Y-47550537D01*
X181100820Y-47609502D01*
X181220518Y-47645812D01*
X181345000Y-47658072D01*
X181959250Y-47655000D01*
X182118000Y-47496250D01*
X182118000Y-45847000D01*
X182372000Y-45847000D01*
X182372000Y-47496250D01*
X182530750Y-47655000D01*
X183145000Y-47658072D01*
X183269482Y-47645812D01*
X183389180Y-47609502D01*
X183499494Y-47550537D01*
X183596185Y-47471185D01*
X183675537Y-47374494D01*
X183734502Y-47264180D01*
X183770812Y-47144482D01*
X183783072Y-47020000D01*
X183780000Y-46005750D01*
X183621250Y-45847000D01*
X182372000Y-45847000D01*
X182118000Y-45847000D01*
X182098000Y-45847000D01*
X182098000Y-45593000D01*
X182118000Y-45593000D01*
X182118000Y-43943750D01*
X182372000Y-43943750D01*
X182372000Y-45593000D01*
X183621250Y-45593000D01*
X183780000Y-45434250D01*
X183783072Y-44420000D01*
X183770812Y-44295518D01*
X183734502Y-44175820D01*
X183675537Y-44065506D01*
X183596185Y-43968815D01*
X183499494Y-43889463D01*
X183389180Y-43830498D01*
X183269482Y-43794188D01*
X183145000Y-43781928D01*
X182530750Y-43785000D01*
X182372000Y-43943750D01*
X182118000Y-43943750D01*
X181959250Y-43785000D01*
X181345000Y-43781928D01*
X181220518Y-43794188D01*
X181100820Y-43830498D01*
X180990506Y-43889463D01*
X180893815Y-43968815D01*
X180814463Y-44065506D01*
X180755498Y-44175820D01*
X180750505Y-44192280D01*
X180561927Y-44037519D01*
X180295261Y-43894983D01*
X180005913Y-43807210D01*
X179705000Y-43777573D01*
X179404088Y-43807210D01*
X179114740Y-43894983D01*
X178848074Y-44037519D01*
X178614339Y-44229339D01*
X178435000Y-44447865D01*
X178255661Y-44229339D01*
X178021927Y-44037519D01*
X177755261Y-43894983D01*
X177465913Y-43807210D01*
X177165000Y-43777573D01*
X176864088Y-43807210D01*
X176574740Y-43894983D01*
X176308074Y-44037519D01*
X176074339Y-44229339D01*
X175895000Y-44447865D01*
X175715661Y-44229339D01*
X175481927Y-44037519D01*
X175215261Y-43894983D01*
X174925913Y-43807210D01*
X174625000Y-43777573D01*
X174324088Y-43807210D01*
X174034740Y-43894983D01*
X173768074Y-44037519D01*
X173534339Y-44229339D01*
X173355000Y-44447865D01*
X173175661Y-44229339D01*
X172941927Y-44037519D01*
X172675261Y-43894983D01*
X172385913Y-43807210D01*
X172085000Y-43777573D01*
X171784088Y-43807210D01*
X171494740Y-43894983D01*
X171228074Y-44037519D01*
X170994339Y-44229339D01*
X170815000Y-44447865D01*
X170635661Y-44229339D01*
X170401927Y-44037519D01*
X170135261Y-43894983D01*
X169845913Y-43807210D01*
X169545000Y-43777573D01*
X169244088Y-43807210D01*
X168954740Y-43894983D01*
X168688074Y-44037519D01*
X168454339Y-44229339D01*
X168275000Y-44447865D01*
X168095661Y-44229339D01*
X167861927Y-44037519D01*
X167595261Y-43894983D01*
X167305913Y-43807210D01*
X167005000Y-43777573D01*
X166704088Y-43807210D01*
X166414740Y-43894983D01*
X166148074Y-44037519D01*
X165914339Y-44229339D01*
X165735000Y-44447865D01*
X165555661Y-44229339D01*
X165321927Y-44037519D01*
X165055261Y-43894983D01*
X164765913Y-43807210D01*
X164465000Y-43777573D01*
X164164088Y-43807210D01*
X163874740Y-43894983D01*
X163608074Y-44037519D01*
X163374339Y-44229339D01*
X163195000Y-44447865D01*
X163015661Y-44229339D01*
X162781927Y-44037519D01*
X162515261Y-43894983D01*
X162225913Y-43807210D01*
X161925000Y-43777573D01*
X161624088Y-43807210D01*
X161334740Y-43894983D01*
X161068074Y-44037519D01*
X160834339Y-44229339D01*
X160655000Y-44447865D01*
X160475661Y-44229339D01*
X160241927Y-44037519D01*
X159975261Y-43894983D01*
X159685913Y-43807210D01*
X159385000Y-43777573D01*
X159084088Y-43807210D01*
X158794740Y-43894983D01*
X158528074Y-44037519D01*
X158294339Y-44229339D01*
X158115000Y-44447865D01*
X157935661Y-44229339D01*
X157701927Y-44037519D01*
X157435261Y-43894983D01*
X157145913Y-43807210D01*
X156845000Y-43777573D01*
X156544088Y-43807210D01*
X156254740Y-43894983D01*
X155988074Y-44037519D01*
X155754339Y-44229339D01*
X155575000Y-44447865D01*
X155395661Y-44229339D01*
X155161927Y-44037519D01*
X154895261Y-43894983D01*
X154605913Y-43807210D01*
X154305000Y-43777573D01*
X154004088Y-43807210D01*
X153714740Y-43894983D01*
X153448074Y-44037519D01*
X153214339Y-44229339D01*
X153035000Y-44447865D01*
X152855661Y-44229339D01*
X152621927Y-44037519D01*
X152355261Y-43894983D01*
X152065913Y-43807210D01*
X151765000Y-43777573D01*
X151464088Y-43807210D01*
X151174740Y-43894983D01*
X150908074Y-44037519D01*
X150674339Y-44229339D01*
X150495000Y-44447865D01*
X150315661Y-44229339D01*
X150081927Y-44037519D01*
X149815261Y-43894983D01*
X149525913Y-43807210D01*
X149225000Y-43777573D01*
X148924088Y-43807210D01*
X148634740Y-43894983D01*
X148368074Y-44037519D01*
X148134339Y-44229339D01*
X147955000Y-44447865D01*
X147775661Y-44229339D01*
X147541927Y-44037519D01*
X147275261Y-43894983D01*
X146985913Y-43807210D01*
X146685000Y-43777573D01*
X146384088Y-43807210D01*
X146094740Y-43894983D01*
X145828074Y-44037519D01*
X145594339Y-44229339D01*
X145415000Y-44447865D01*
X145235661Y-44229339D01*
X145001927Y-44037519D01*
X144735261Y-43894983D01*
X144445913Y-43807210D01*
X144145000Y-43777573D01*
X143844088Y-43807210D01*
X143554740Y-43894983D01*
X143288074Y-44037519D01*
X143054339Y-44229339D01*
X142862519Y-44463073D01*
X142719983Y-44729739D01*
X142632210Y-45019087D01*
X142628772Y-45053998D01*
X142570724Y-45085026D01*
X142454999Y-45179999D01*
X142431201Y-45208997D01*
X134108998Y-53531201D01*
X134080000Y-53554999D01*
X134056202Y-53583997D01*
X134056201Y-53583998D01*
X133985026Y-53670724D01*
X133914454Y-53802754D01*
X133870998Y-53946015D01*
X133856324Y-54095000D01*
X133860001Y-54132333D01*
X133860000Y-80059099D01*
X133818899Y-80081068D01*
X133600392Y-80260392D01*
X133421068Y-80478899D01*
X133287818Y-80728192D01*
X133205764Y-80998691D01*
X133178057Y-81280000D01*
X132205000Y-81280000D01*
X132205000Y-44764801D01*
X135131004Y-41838798D01*
X135160001Y-41815001D01*
X135193170Y-41774584D01*
X135254974Y-41699277D01*
X135325546Y-41567247D01*
X135340644Y-41517474D01*
X135369003Y-41423986D01*
X135380000Y-41312333D01*
X135380000Y-41312324D01*
X135383676Y-41275001D01*
X135380000Y-41237678D01*
X135380000Y-38772322D01*
X135383676Y-38734999D01*
X135380000Y-38697676D01*
X135380000Y-38697667D01*
X135369003Y-38586014D01*
X135325546Y-38442753D01*
X135254974Y-38310724D01*
X135160001Y-38194999D01*
X135131003Y-38171201D01*
X133913804Y-36954003D01*
X133890001Y-36924999D01*
X133774276Y-36830026D01*
X133642247Y-36759454D01*
X133498986Y-36715997D01*
X133387333Y-36705000D01*
X133387322Y-36705000D01*
X133350000Y-36701324D01*
X133312678Y-36705000D01*
X132348072Y-36705000D01*
X132348072Y-36565000D01*
X132335812Y-36440518D01*
X132299502Y-36320820D01*
X132258975Y-36245000D01*
X182195000Y-36245000D01*
X182195001Y-40038647D01*
X182195001Y-40038647D01*
G37*
X182195001Y-40038647D02*
X182197948Y-40068563D01*
X182197865Y-40080383D01*
X182198799Y-40089902D01*
X182237662Y-40459656D01*
X182250139Y-40520437D01*
X182261779Y-40581458D01*
X182264544Y-40590614D01*
X182374485Y-40945777D01*
X182398549Y-41003023D01*
X182421801Y-41060574D01*
X182426291Y-41069019D01*
X182603123Y-41396064D01*
X182637858Y-41447561D01*
X182671837Y-41499486D01*
X182677882Y-41506898D01*
X182914871Y-41793368D01*
X182958908Y-41837098D01*
X183002362Y-41881472D01*
X183009731Y-41887569D01*
X183297849Y-42122552D01*
X183349582Y-42156924D01*
X183400788Y-42191985D01*
X183409201Y-42196534D01*
X183737474Y-42371079D01*
X183794884Y-42394742D01*
X183851937Y-42419195D01*
X183861073Y-42422024D01*
X184216996Y-42529483D01*
X184277857Y-42541534D01*
X184338629Y-42554451D01*
X184348140Y-42555451D01*
X184718156Y-42591731D01*
X184718163Y-42591731D01*
X184751353Y-42595000D01*
X189180000Y-42595000D01*
X189180000Y-44136554D01*
X189105083Y-44061637D01*
X188755402Y-43827988D01*
X188366856Y-43667047D01*
X187954379Y-43585000D01*
X187533821Y-43585000D01*
X187121344Y-43667047D01*
X186732798Y-43827988D01*
X186383117Y-44061637D01*
X186085737Y-44359017D01*
X185852088Y-44708698D01*
X185691147Y-45097244D01*
X185609100Y-45509721D01*
X185609100Y-45930279D01*
X185691147Y-46342756D01*
X185852088Y-46731302D01*
X186085737Y-47080983D01*
X186383117Y-47378363D01*
X186732798Y-47612012D01*
X187121344Y-47772953D01*
X187533821Y-47855000D01*
X187954379Y-47855000D01*
X188366856Y-47772953D01*
X188755402Y-47612012D01*
X189105083Y-47378363D01*
X189180000Y-47303446D01*
X189180000Y-75137254D01*
X189105083Y-75062337D01*
X188755402Y-74828688D01*
X188366856Y-74667747D01*
X187954379Y-74585700D01*
X187533821Y-74585700D01*
X187121344Y-74667747D01*
X186732798Y-74828688D01*
X186383117Y-75062337D01*
X186085737Y-75359717D01*
X185852088Y-75709398D01*
X185691147Y-76097944D01*
X185609100Y-76510421D01*
X185609100Y-76930979D01*
X185691147Y-77343456D01*
X185852088Y-77732002D01*
X186085737Y-78081683D01*
X186383117Y-78379063D01*
X186732798Y-78612712D01*
X187121344Y-78773653D01*
X187533821Y-78855700D01*
X187954379Y-78855700D01*
X188366856Y-78773653D01*
X188755402Y-78612712D01*
X189105083Y-78379063D01*
X189180000Y-78304146D01*
X189180001Y-149826487D01*
X189153543Y-150096327D01*
X189084908Y-150323656D01*
X188973428Y-150533320D01*
X188823343Y-150717341D01*
X188640380Y-150868701D01*
X188431493Y-150981646D01*
X188204653Y-151051865D01*
X187936966Y-151080000D01*
X112428503Y-151080000D01*
X112158673Y-151053543D01*
X111931344Y-150984908D01*
X111721680Y-150873428D01*
X111537659Y-150723343D01*
X111386299Y-150540380D01*
X111273354Y-150331493D01*
X111203135Y-150104653D01*
X111175000Y-149836966D01*
X111175000Y-135695000D01*
X111906606Y-135695000D01*
X111940105Y-136035119D01*
X112039314Y-136362168D01*
X112200421Y-136663578D01*
X112417234Y-136927766D01*
X112423008Y-136932504D01*
X112411928Y-137045000D01*
X112411928Y-138545000D01*
X112424188Y-138669482D01*
X112460498Y-138789180D01*
X112519463Y-138899494D01*
X112598815Y-138996185D01*
X112638940Y-139029114D01*
X112514236Y-139262419D01*
X112435040Y-139523493D01*
X112408299Y-139795000D01*
X112435040Y-140066507D01*
X112514236Y-140327581D01*
X112642843Y-140568188D01*
X112815919Y-140779081D01*
X112835316Y-140795000D01*
X112815919Y-140810919D01*
X112642843Y-141021812D01*
X112514236Y-141262419D01*
X112435040Y-141523493D01*
X112408299Y-141795000D01*
X112435040Y-142066507D01*
X112514236Y-142327581D01*
X112608994Y-142504861D01*
X112417234Y-142662234D01*
X112200421Y-142926422D01*
X112039314Y-143227832D01*
X111940105Y-143554881D01*
X111906606Y-143895000D01*
X111940105Y-144235119D01*
X112039314Y-144562168D01*
X112200421Y-144863578D01*
X112417234Y-145127766D01*
X112681422Y-145344579D01*
X112982832Y-145505686D01*
X113309881Y-145604895D01*
X113564775Y-145630000D01*
X115035225Y-145630000D01*
X115290119Y-145604895D01*
X115617168Y-145505686D01*
X115918578Y-145344579D01*
X116182766Y-145127766D01*
X116399579Y-144863578D01*
X116560686Y-144562168D01*
X116659895Y-144235119D01*
X116693394Y-143895000D01*
X116659895Y-143554881D01*
X116560686Y-143227832D01*
X116399579Y-142926422D01*
X116182766Y-142662234D01*
X115991006Y-142504861D01*
X116085764Y-142327581D01*
X116164960Y-142066507D01*
X116191701Y-141795000D01*
X116164960Y-141523493D01*
X116085764Y-141262419D01*
X115957157Y-141021812D01*
X115784081Y-140810919D01*
X115764684Y-140795000D01*
X115784081Y-140779081D01*
X115957157Y-140568188D01*
X116085764Y-140327581D01*
X116164960Y-140066507D01*
X116191701Y-139795000D01*
X116164960Y-139523493D01*
X116085764Y-139262419D01*
X115961060Y-139029114D01*
X116001185Y-138996185D01*
X116080537Y-138899494D01*
X116139502Y-138789180D01*
X116175812Y-138669482D01*
X116188072Y-138545000D01*
X116188072Y-137653665D01*
X124295000Y-137653665D01*
X124295000Y-137936335D01*
X124350147Y-138213574D01*
X124458320Y-138474727D01*
X124615363Y-138709759D01*
X124815241Y-138909637D01*
X125050273Y-139066680D01*
X125311426Y-139174853D01*
X125588665Y-139230000D01*
X125871335Y-139230000D01*
X125994907Y-139205420D01*
X128730001Y-141940514D01*
X128730000Y-143805139D01*
X128600150Y-143844528D01*
X128446614Y-143926595D01*
X128312038Y-144037038D01*
X128201595Y-144171614D01*
X128119528Y-144325150D01*
X128068992Y-144491746D01*
X128051928Y-144665000D01*
X128051928Y-146165000D01*
X128068992Y-146338254D01*
X128119528Y-146504850D01*
X128201595Y-146658386D01*
X128312038Y-146792962D01*
X128446614Y-146903405D01*
X128600150Y-146985472D01*
X128766746Y-147036008D01*
X128940000Y-147053072D01*
X130140000Y-147053072D01*
X130313254Y-147036008D01*
X130479850Y-146985472D01*
X130633386Y-146903405D01*
X130767962Y-146792962D01*
X130878405Y-146658386D01*
X130932777Y-146556663D01*
X130984866Y-146620134D01*
X131210987Y-146805706D01*
X131468967Y-146943599D01*
X131748890Y-147028513D01*
X132040000Y-147057185D01*
X132331111Y-147028513D01*
X132611034Y-146943599D01*
X132869014Y-146805706D01*
X133095134Y-146620134D01*
X133280706Y-146394014D01*
X133418599Y-146136033D01*
X133503513Y-145856110D01*
X133525000Y-145637949D01*
X133525000Y-145192050D01*
X133503513Y-144973889D01*
X133418599Y-144693966D01*
X133280706Y-144435986D01*
X133095134Y-144209866D01*
X132869013Y-144024294D01*
X132611033Y-143886401D01*
X132331110Y-143801487D01*
X132040000Y-143772815D01*
X131748889Y-143801487D01*
X131468966Y-143886401D01*
X131210986Y-144024294D01*
X130984866Y-144209866D01*
X130932777Y-144273337D01*
X130878405Y-144171614D01*
X130767962Y-144037038D01*
X130633386Y-143926595D01*
X130479850Y-143844528D01*
X130350000Y-143805139D01*
X130350000Y-141644788D01*
X130353919Y-141605000D01*
X130345891Y-141523493D01*
X130338280Y-141446212D01*
X130291963Y-141293527D01*
X130291963Y-141293526D01*
X130216749Y-141152811D01*
X130140893Y-141060380D01*
X130115528Y-141029472D01*
X130084618Y-141004105D01*
X127140420Y-138059907D01*
X127165000Y-137936335D01*
X127165000Y-137653665D01*
X127109853Y-137376426D01*
X127001680Y-137115273D01*
X126844637Y-136880241D01*
X126644759Y-136680363D01*
X126409727Y-136523320D01*
X126148574Y-136415147D01*
X125871335Y-136360000D01*
X125588665Y-136360000D01*
X125311426Y-136415147D01*
X125050273Y-136523320D01*
X124815241Y-136680363D01*
X124615363Y-136880241D01*
X124458320Y-137115273D01*
X124350147Y-137376426D01*
X124295000Y-137653665D01*
X116188072Y-137653665D01*
X116188072Y-137045000D01*
X116176992Y-136932504D01*
X116182766Y-136927766D01*
X116399579Y-136663578D01*
X116560686Y-136362168D01*
X116659895Y-136035119D01*
X116693394Y-135695000D01*
X116659895Y-135354881D01*
X116560686Y-135027832D01*
X116399579Y-134726422D01*
X116182766Y-134462234D01*
X115918578Y-134245421D01*
X115617168Y-134084314D01*
X115290119Y-133985105D01*
X115035225Y-133960000D01*
X113564775Y-133960000D01*
X113309881Y-133985105D01*
X112982832Y-134084314D01*
X112681422Y-134245421D01*
X112417234Y-134462234D01*
X112200421Y-134726422D01*
X112039314Y-135027832D01*
X111940105Y-135354881D01*
X111906606Y-135695000D01*
X111175000Y-135695000D01*
X111175000Y-123317000D01*
X118110000Y-123317000D01*
X118134776Y-123314560D01*
X118158601Y-123307333D01*
X118180557Y-123295597D01*
X118199803Y-123279803D01*
X118215597Y-123260557D01*
X118227333Y-123238601D01*
X118234560Y-123214776D01*
X118237000Y-123190000D01*
X118237000Y-122905195D01*
X118255518Y-122910812D01*
X118380000Y-122923072D01*
X120380000Y-122923072D01*
X120504482Y-122910812D01*
X120624180Y-122874502D01*
X120734494Y-122815537D01*
X120831185Y-122736185D01*
X120910537Y-122639494D01*
X120957559Y-122551523D01*
X121118900Y-122683932D01*
X121160000Y-122705901D01*
X121160000Y-123787677D01*
X121156324Y-123825000D01*
X121160000Y-123862322D01*
X121160000Y-123862332D01*
X121170997Y-123973985D01*
X121214454Y-124117246D01*
X121285026Y-124249276D01*
X121324871Y-124297826D01*
X121379999Y-124365001D01*
X121409003Y-124388804D01*
X124329292Y-127309094D01*
X124315764Y-127353691D01*
X124288057Y-127635000D01*
X124315764Y-127916309D01*
X124397818Y-128186808D01*
X124531068Y-128436101D01*
X124710392Y-128654608D01*
X124928899Y-128833932D01*
X125178192Y-128967182D01*
X125448691Y-129049236D01*
X125659508Y-129070000D01*
X125800492Y-129070000D01*
X126011309Y-129049236D01*
X126281808Y-128967182D01*
X126531101Y-128833932D01*
X126749608Y-128654608D01*
X126928932Y-128436101D01*
X127062182Y-128186808D01*
X127144236Y-127916309D01*
X127171943Y-127635000D01*
X127144236Y-127353691D01*
X127062182Y-127083192D01*
X126928932Y-126833899D01*
X126749608Y-126615392D01*
X126531101Y-126436068D01*
X126281808Y-126302818D01*
X126011309Y-126220764D01*
X125800492Y-126200000D01*
X125659508Y-126200000D01*
X125448691Y-126220764D01*
X125404094Y-126234292D01*
X122680000Y-123510199D01*
X122680000Y-122705901D01*
X122721101Y-122683932D01*
X122939608Y-122504608D01*
X123118932Y-122286101D01*
X123190000Y-122153142D01*
X123261068Y-122286101D01*
X123440393Y-122504608D01*
X123658900Y-122683932D01*
X123700000Y-122705901D01*
X123700000Y-123152677D01*
X123696324Y-123190000D01*
X123700000Y-123227322D01*
X123700000Y-123227332D01*
X123710997Y-123338985D01*
X123754110Y-123481111D01*
X123754454Y-123482246D01*
X123825026Y-123614276D01*
X123826214Y-123615723D01*
X123919999Y-123730001D01*
X123949003Y-123753804D01*
X127510001Y-127314803D01*
X127510000Y-132110596D01*
X127506324Y-132147919D01*
X127510000Y-132185241D01*
X127510000Y-132185251D01*
X127520997Y-132296904D01*
X127564454Y-132440165D01*
X127635026Y-132572195D01*
X127674871Y-132620745D01*
X127729999Y-132687920D01*
X127759003Y-132711723D01*
X141889773Y-146842494D01*
X141819866Y-146899866D01*
X141634294Y-147125986D01*
X141605000Y-147180791D01*
X141575706Y-147125986D01*
X141390134Y-146899866D01*
X141164014Y-146714294D01*
X140906034Y-146576401D01*
X140626111Y-146491487D01*
X140407950Y-146470000D01*
X140262050Y-146470000D01*
X140043889Y-146491487D01*
X139763966Y-146576401D01*
X139505986Y-146714294D01*
X139279866Y-146899866D01*
X139094294Y-147125986D01*
X138956401Y-147383966D01*
X138871487Y-147663889D01*
X138842815Y-147955000D01*
X138871487Y-148246111D01*
X138956401Y-148526034D01*
X139094294Y-148784014D01*
X139279866Y-149010134D01*
X139505986Y-149195706D01*
X139763966Y-149333599D01*
X140043889Y-149418513D01*
X140262050Y-149440000D01*
X140407950Y-149440000D01*
X140626111Y-149418513D01*
X140906034Y-149333599D01*
X141164014Y-149195706D01*
X141390134Y-149010134D01*
X141575706Y-148784014D01*
X141605000Y-148729209D01*
X141634294Y-148784014D01*
X141819866Y-149010134D01*
X142045986Y-149195706D01*
X142303966Y-149333599D01*
X142583889Y-149418513D01*
X142802050Y-149440000D01*
X142947950Y-149440000D01*
X143166111Y-149418513D01*
X143446034Y-149333599D01*
X143704014Y-149195706D01*
X143930134Y-149010134D01*
X144115706Y-148784014D01*
X144145000Y-148729209D01*
X144174294Y-148784014D01*
X144359866Y-149010134D01*
X144585986Y-149195706D01*
X144843966Y-149333599D01*
X145123889Y-149418513D01*
X145342050Y-149440000D01*
X145487950Y-149440000D01*
X145706111Y-149418513D01*
X145986034Y-149333599D01*
X146244014Y-149195706D01*
X146470134Y-149010134D01*
X146655706Y-148784014D01*
X146685000Y-148729209D01*
X146714294Y-148784014D01*
X146899866Y-149010134D01*
X147125986Y-149195706D01*
X147383966Y-149333599D01*
X147663889Y-149418513D01*
X147882050Y-149440000D01*
X148027950Y-149440000D01*
X148246111Y-149418513D01*
X148526034Y-149333599D01*
X148784014Y-149195706D01*
X149010134Y-149010134D01*
X149195706Y-148784014D01*
X149225000Y-148729209D01*
X149254294Y-148784014D01*
X149439866Y-149010134D01*
X149665986Y-149195706D01*
X149923966Y-149333599D01*
X150203889Y-149418513D01*
X150422050Y-149440000D01*
X150567950Y-149440000D01*
X150786111Y-149418513D01*
X151066034Y-149333599D01*
X151324014Y-149195706D01*
X151550134Y-149010134D01*
X151735706Y-148784014D01*
X151765000Y-148729209D01*
X151794294Y-148784014D01*
X151979866Y-149010134D01*
X152205986Y-149195706D01*
X152463966Y-149333599D01*
X152743889Y-149418513D01*
X152962050Y-149440000D01*
X153107950Y-149440000D01*
X153326111Y-149418513D01*
X153606034Y-149333599D01*
X153864014Y-149195706D01*
X154090134Y-149010134D01*
X154275706Y-148784014D01*
X154305000Y-148729209D01*
X154334294Y-148784014D01*
X154519866Y-149010134D01*
X154745986Y-149195706D01*
X155003966Y-149333599D01*
X155283889Y-149418513D01*
X155502050Y-149440000D01*
X155647950Y-149440000D01*
X155866111Y-149418513D01*
X156146034Y-149333599D01*
X156404014Y-149195706D01*
X156630134Y-149010134D01*
X156815706Y-148784014D01*
X156845000Y-148729209D01*
X156874294Y-148784014D01*
X157059866Y-149010134D01*
X157285986Y-149195706D01*
X157543966Y-149333599D01*
X157823889Y-149418513D01*
X158042050Y-149440000D01*
X158187950Y-149440000D01*
X158406111Y-149418513D01*
X158686034Y-149333599D01*
X158944014Y-149195706D01*
X159170134Y-149010134D01*
X159194607Y-148980313D01*
X159215498Y-149049180D01*
X159274463Y-149159494D01*
X159353815Y-149256185D01*
X159450506Y-149335537D01*
X159560820Y-149394502D01*
X159680518Y-149430812D01*
X159805000Y-149443072D01*
X161505000Y-149443072D01*
X161629482Y-149430812D01*
X161749180Y-149394502D01*
X161859494Y-149335537D01*
X161956185Y-149256185D01*
X162035537Y-149159494D01*
X162094502Y-149049180D01*
X162130812Y-148929482D01*
X162143072Y-148805000D01*
X162143072Y-147105000D01*
X162130812Y-146980518D01*
X162094502Y-146860820D01*
X162035537Y-146750506D01*
X161956185Y-146653815D01*
X161859494Y-146574463D01*
X161749180Y-146515498D01*
X161629482Y-146479188D01*
X161505000Y-146466928D01*
X159805000Y-146466928D01*
X159680518Y-146479188D01*
X159560820Y-146515498D01*
X159450506Y-146574463D01*
X159353815Y-146653815D01*
X159274463Y-146750506D01*
X159215498Y-146860820D01*
X159194607Y-146929687D01*
X159170134Y-146899866D01*
X158944014Y-146714294D01*
X158875000Y-146677405D01*
X158875000Y-146087333D01*
X158878677Y-146050000D01*
X158864003Y-145901014D01*
X158820546Y-145757753D01*
X158749974Y-145625724D01*
X158678799Y-145538997D01*
X158655001Y-145509999D01*
X158626003Y-145486201D01*
X141730000Y-128590199D01*
X141730000Y-118782333D01*
X141733677Y-118745000D01*
X141719003Y-118596014D01*
X141675546Y-118452753D01*
X141604974Y-118320724D01*
X141533799Y-118233997D01*
X141510001Y-118204999D01*
X141481003Y-118181201D01*
X132840000Y-109540199D01*
X132840000Y-99845901D01*
X132881101Y-99823932D01*
X133099608Y-99644608D01*
X133278932Y-99426101D01*
X133348122Y-99296655D01*
X133355570Y-99314227D01*
X133514327Y-99547662D01*
X133715575Y-99745639D01*
X133951579Y-99900551D01*
X134213270Y-100006444D01*
X134270961Y-100016904D01*
X134493000Y-99894915D01*
X134493000Y-98552000D01*
X134473000Y-98552000D01*
X134473000Y-98298000D01*
X134493000Y-98298000D01*
X134493000Y-96955085D01*
X134747000Y-96955085D01*
X134747000Y-98298000D01*
X134767000Y-98298000D01*
X134767000Y-98552000D01*
X134747000Y-98552000D01*
X134747000Y-99894915D01*
X134969039Y-100016904D01*
X135026730Y-100006444D01*
X135288421Y-99900551D01*
X135524425Y-99745639D01*
X135725673Y-99547662D01*
X135884430Y-99314227D01*
X135891878Y-99296655D01*
X135961068Y-99426101D01*
X136140393Y-99644608D01*
X136358900Y-99823932D01*
X136608193Y-99957182D01*
X136878692Y-100039236D01*
X137160000Y-100066943D01*
X137441309Y-100039236D01*
X137711808Y-99957182D01*
X137961101Y-99823932D01*
X138179608Y-99644608D01*
X138358932Y-99426101D01*
X138492182Y-99176807D01*
X138574236Y-98906308D01*
X138595000Y-98695491D01*
X138595000Y-98154508D01*
X138574236Y-97943691D01*
X138492182Y-97673192D01*
X138358932Y-97423899D01*
X138179607Y-97205392D01*
X137961100Y-97026068D01*
X137711807Y-96892818D01*
X137441308Y-96810764D01*
X137160000Y-96783057D01*
X136878691Y-96810764D01*
X136608192Y-96892818D01*
X136358899Y-97026068D01*
X136140392Y-97205393D01*
X135961068Y-97423900D01*
X135891878Y-97553345D01*
X135884430Y-97535773D01*
X135725673Y-97302338D01*
X135524425Y-97104361D01*
X135288421Y-96949449D01*
X135026730Y-96843556D01*
X134969039Y-96833096D01*
X134747000Y-96955085D01*
X134493000Y-96955085D01*
X134270961Y-96833096D01*
X134213270Y-96843556D01*
X133951579Y-96949449D01*
X133715575Y-97104361D01*
X133514327Y-97302338D01*
X133355570Y-97535773D01*
X133348122Y-97553345D01*
X133278932Y-97423899D01*
X133099607Y-97205392D01*
X132881100Y-97026068D01*
X132631807Y-96892818D01*
X132361308Y-96810764D01*
X132080000Y-96783057D01*
X131798691Y-96810764D01*
X131528192Y-96892818D01*
X131278899Y-97026068D01*
X131060392Y-97205393D01*
X130881068Y-97423900D01*
X130810000Y-97556858D01*
X130738932Y-97423899D01*
X130559607Y-97205392D01*
X130341100Y-97026068D01*
X130091807Y-96892818D01*
X129821308Y-96810764D01*
X129540000Y-96783057D01*
X129258691Y-96810764D01*
X128988192Y-96892818D01*
X128738899Y-97026068D01*
X128520392Y-97205393D01*
X128341068Y-97423900D01*
X128270000Y-97556858D01*
X128198932Y-97423899D01*
X128019607Y-97205392D01*
X127801100Y-97026068D01*
X127551807Y-96892818D01*
X127281308Y-96810764D01*
X127000000Y-96783057D01*
X126718691Y-96810764D01*
X126540000Y-96864969D01*
X126540000Y-94315512D01*
X128005093Y-92850420D01*
X128128665Y-92875000D01*
X128411335Y-92875000D01*
X128688574Y-92819853D01*
X128949727Y-92711680D01*
X129184759Y-92554637D01*
X129384637Y-92354759D01*
X129541680Y-92119727D01*
X129649853Y-91858574D01*
X129705000Y-91581335D01*
X129705000Y-91298665D01*
X129649853Y-91021426D01*
X129541680Y-90760273D01*
X129384637Y-90525241D01*
X129184759Y-90325363D01*
X128949727Y-90168320D01*
X128688574Y-90060147D01*
X128411335Y-90005000D01*
X128128665Y-90005000D01*
X127851426Y-90060147D01*
X127590273Y-90168320D01*
X127355241Y-90325363D01*
X127155363Y-90525241D01*
X126998320Y-90760273D01*
X126890147Y-91021426D01*
X126835000Y-91298665D01*
X126835000Y-91581335D01*
X126859580Y-91704907D01*
X125185383Y-93379105D01*
X125154473Y-93404472D01*
X125129108Y-93435380D01*
X125053251Y-93527811D01*
X124978038Y-93668527D01*
X124972206Y-93687754D01*
X124931721Y-93821213D01*
X124916081Y-93980000D01*
X124920001Y-94019798D01*
X124920001Y-96864969D01*
X124741308Y-96810764D01*
X124460000Y-96783057D01*
X124178691Y-96810764D01*
X123908192Y-96892818D01*
X123658899Y-97026068D01*
X123440392Y-97205393D01*
X123261068Y-97423900D01*
X123190000Y-97556858D01*
X123118932Y-97423899D01*
X122939607Y-97205392D01*
X122721100Y-97026068D01*
X122471807Y-96892818D01*
X122201308Y-96810764D01*
X121920000Y-96783057D01*
X121638691Y-96810764D01*
X121368192Y-96892818D01*
X121118899Y-97026068D01*
X120900392Y-97205393D01*
X120721068Y-97423900D01*
X120650000Y-97556858D01*
X120578932Y-97423899D01*
X120399607Y-97205392D01*
X120181100Y-97026068D01*
X120140000Y-97004100D01*
X120140000Y-94294801D01*
X121596114Y-92838688D01*
X121778665Y-92875000D01*
X122061335Y-92875000D01*
X122338574Y-92819853D01*
X122599727Y-92711680D01*
X122834759Y-92554637D01*
X123034637Y-92354759D01*
X123191680Y-92119727D01*
X123299853Y-91858574D01*
X123355000Y-91581335D01*
X123355000Y-91298665D01*
X123318688Y-91116113D01*
X127314802Y-87120000D01*
X128867678Y-87120000D01*
X128905000Y-87123676D01*
X128942322Y-87120000D01*
X128942333Y-87120000D01*
X129053986Y-87109003D01*
X129197247Y-87065546D01*
X129329276Y-86994974D01*
X129445001Y-86900001D01*
X129468804Y-86870997D01*
X131956009Y-84383794D01*
X131985001Y-84360001D01*
X132008795Y-84331008D01*
X132008799Y-84331004D01*
X132079973Y-84244277D01*
X132079974Y-84244276D01*
X132150546Y-84112247D01*
X132194003Y-83968986D01*
X132205000Y-83857333D01*
X132205000Y-83857324D01*
X132208676Y-83820001D01*
X132205000Y-83782678D01*
X132205000Y-81280000D01*
X133178057Y-81280000D01*
X133205764Y-81561309D01*
X133287818Y-81831808D01*
X133421068Y-82081101D01*
X133600392Y-82299608D01*
X133818899Y-82478932D01*
X134068192Y-82612182D01*
X134338691Y-82694236D01*
X134549508Y-82715000D01*
X134690492Y-82715000D01*
X134901309Y-82694236D01*
X135171808Y-82612182D01*
X135421101Y-82478932D01*
X135639608Y-82299608D01*
X135818932Y-82081101D01*
X135952182Y-81831808D01*
X136034236Y-81561309D01*
X136061943Y-81280000D01*
X136034236Y-80998691D01*
X135952182Y-80728192D01*
X135818932Y-80478899D01*
X135639608Y-80260392D01*
X135421101Y-80081068D01*
X135380000Y-80059099D01*
X135380000Y-54409801D01*
X142845227Y-46944575D01*
X142862519Y-46976926D01*
X143054339Y-47210661D01*
X143288073Y-47402481D01*
X143554739Y-47545017D01*
X143844087Y-47632790D01*
X144145000Y-47662427D01*
X144445912Y-47632790D01*
X144735260Y-47545017D01*
X145001926Y-47402481D01*
X145235661Y-47210661D01*
X145415000Y-46992135D01*
X145594339Y-47210661D01*
X145828073Y-47402481D01*
X145925001Y-47454290D01*
X145925000Y-49505367D01*
X145921324Y-49542690D01*
X145925000Y-49580012D01*
X145925000Y-49580022D01*
X145935997Y-49691675D01*
X145979454Y-49834936D01*
X146050026Y-49966966D01*
X146089871Y-50015516D01*
X146144999Y-50082691D01*
X146174003Y-50106494D01*
X165344981Y-69277473D01*
X165344980Y-113362658D01*
X165341304Y-113399980D01*
X165344980Y-113437302D01*
X165344980Y-113437312D01*
X165355977Y-113548965D01*
X165399434Y-113692226D01*
X165470006Y-113824256D01*
X165509851Y-113872806D01*
X165564979Y-113939981D01*
X165593983Y-113963784D01*
X171914203Y-120284005D01*
X171891487Y-120358889D01*
X171862815Y-120650000D01*
X171891487Y-120941111D01*
X171976401Y-121221034D01*
X172114294Y-121479014D01*
X172299866Y-121705134D01*
X172525986Y-121890706D01*
X172580791Y-121920000D01*
X172525986Y-121949294D01*
X172299866Y-122134866D01*
X172114294Y-122360986D01*
X171976401Y-122618966D01*
X171891487Y-122898889D01*
X171862815Y-123190000D01*
X171871679Y-123279999D01*
X152929801Y-123279999D01*
X144270000Y-114620199D01*
X144270000Y-100367333D01*
X144273677Y-100330000D01*
X144259003Y-100181014D01*
X144215546Y-100037753D01*
X144144974Y-99905724D01*
X144073799Y-99818997D01*
X144050001Y-99789999D01*
X144021003Y-99766201D01*
X136018688Y-91763887D01*
X136055000Y-91581335D01*
X136055000Y-91298665D01*
X135999853Y-91021426D01*
X135891680Y-90760273D01*
X135734637Y-90525241D01*
X135534759Y-90325363D01*
X135299727Y-90168320D01*
X135038574Y-90060147D01*
X134761335Y-90005000D01*
X134478665Y-90005000D01*
X134201426Y-90060147D01*
X133940273Y-90168320D01*
X133705241Y-90325363D01*
X133505363Y-90525241D01*
X133348320Y-90760273D01*
X133240147Y-91021426D01*
X133185000Y-91298665D01*
X133185000Y-91581335D01*
X133240147Y-91858574D01*
X133348320Y-92119727D01*
X133505363Y-92354759D01*
X133705241Y-92554637D01*
X133940273Y-92711680D01*
X134201426Y-92819853D01*
X134478665Y-92875000D01*
X134761335Y-92875000D01*
X134943887Y-92838688D01*
X142750001Y-100644803D01*
X142750000Y-114897678D01*
X142746324Y-114935000D01*
X142750000Y-114972322D01*
X142750000Y-114972332D01*
X142760997Y-115083985D01*
X142779725Y-115145723D01*
X142804454Y-115227246D01*
X142875026Y-115359276D01*
X142914871Y-115407826D01*
X142969999Y-115475001D01*
X142999003Y-115498804D01*
X152051200Y-124551002D01*
X152074998Y-124580000D01*
X152103996Y-124603798D01*
X152190722Y-124674973D01*
X152294689Y-124730545D01*
X152322752Y-124745545D01*
X152466013Y-124789002D01*
X152577666Y-124799999D01*
X152577675Y-124799999D01*
X152614998Y-124803675D01*
X152652321Y-124799999D01*
X172467679Y-124799999D01*
X172505001Y-124803675D01*
X172542323Y-124799999D01*
X172542334Y-124799999D01*
X172653987Y-124789002D01*
X172797248Y-124745545D01*
X172929277Y-124674973D01*
X172984698Y-124629490D01*
X173063889Y-124653513D01*
X173282050Y-124675000D01*
X173427950Y-124675000D01*
X173646111Y-124653513D01*
X173926034Y-124568599D01*
X174184014Y-124430706D01*
X174410134Y-124245134D01*
X174595706Y-124019014D01*
X174733599Y-123761034D01*
X174818513Y-123481111D01*
X174847185Y-123190000D01*
X174818513Y-122898889D01*
X174733599Y-122618966D01*
X174595706Y-122360986D01*
X174410134Y-122134866D01*
X174184014Y-121949294D01*
X174129209Y-121920000D01*
X174184014Y-121890706D01*
X174410134Y-121705134D01*
X174595706Y-121479014D01*
X174733599Y-121221034D01*
X174818513Y-120941111D01*
X174847185Y-120650000D01*
X174818513Y-120358889D01*
X174733599Y-120078966D01*
X174595706Y-119820986D01*
X174410134Y-119594866D01*
X174184014Y-119409294D01*
X174129209Y-119380000D01*
X174184014Y-119350706D01*
X174410134Y-119165134D01*
X174595706Y-118939014D01*
X174733599Y-118681034D01*
X174818513Y-118401111D01*
X174847185Y-118110000D01*
X174818513Y-117818889D01*
X174733599Y-117538966D01*
X174595706Y-117280986D01*
X174410134Y-117054866D01*
X174184014Y-116869294D01*
X174129209Y-116840000D01*
X174184014Y-116810706D01*
X174410134Y-116625134D01*
X174595706Y-116399014D01*
X174733599Y-116141034D01*
X174818513Y-115861111D01*
X174847185Y-115570000D01*
X174818513Y-115278889D01*
X174733599Y-114998966D01*
X174595706Y-114740986D01*
X174410134Y-114514866D01*
X174184014Y-114329294D01*
X174129209Y-114300000D01*
X174184014Y-114270706D01*
X174410134Y-114085134D01*
X174595706Y-113859014D01*
X174733599Y-113601034D01*
X174818513Y-113321111D01*
X174847185Y-113030000D01*
X174818513Y-112738889D01*
X174733599Y-112458966D01*
X174595706Y-112200986D01*
X174410134Y-111974866D01*
X174184014Y-111789294D01*
X174129209Y-111760000D01*
X174184014Y-111730706D01*
X174410134Y-111545134D01*
X174595706Y-111319014D01*
X174733599Y-111061034D01*
X174818513Y-110781111D01*
X174847185Y-110490000D01*
X174818513Y-110198889D01*
X174733599Y-109918966D01*
X174595706Y-109660986D01*
X174410134Y-109434866D01*
X174184014Y-109249294D01*
X174129209Y-109220000D01*
X174184014Y-109190706D01*
X174410134Y-109005134D01*
X174595706Y-108779014D01*
X174733599Y-108521034D01*
X174818513Y-108241111D01*
X174847185Y-107950000D01*
X174818513Y-107658889D01*
X174733599Y-107378966D01*
X174595706Y-107120986D01*
X174410134Y-106894866D01*
X174184014Y-106709294D01*
X174129209Y-106680000D01*
X174184014Y-106650706D01*
X174410134Y-106465134D01*
X174595706Y-106239014D01*
X174733599Y-105981034D01*
X174818513Y-105701111D01*
X174847185Y-105410000D01*
X174818513Y-105118889D01*
X174733599Y-104838966D01*
X174595706Y-104580986D01*
X174410134Y-104354866D01*
X174184014Y-104169294D01*
X174129209Y-104140000D01*
X174184014Y-104110706D01*
X174410134Y-103925134D01*
X174595706Y-103699014D01*
X174733599Y-103441034D01*
X174818513Y-103161111D01*
X174847185Y-102870000D01*
X174818513Y-102578889D01*
X174733599Y-102298966D01*
X174595706Y-102040986D01*
X174410134Y-101814866D01*
X174184014Y-101629294D01*
X174129209Y-101600000D01*
X174184014Y-101570706D01*
X174410134Y-101385134D01*
X174595706Y-101159014D01*
X174733599Y-100901034D01*
X174818513Y-100621111D01*
X174847185Y-100330000D01*
X174818513Y-100038889D01*
X174733599Y-99758966D01*
X174595706Y-99500986D01*
X174410134Y-99274866D01*
X174184014Y-99089294D01*
X174129209Y-99060000D01*
X174184014Y-99030706D01*
X174410134Y-98845134D01*
X174595706Y-98619014D01*
X174733599Y-98361034D01*
X174818513Y-98081111D01*
X174847185Y-97790000D01*
X174818513Y-97498889D01*
X174733599Y-97218966D01*
X174595706Y-96960986D01*
X174410134Y-96734866D01*
X174184014Y-96549294D01*
X174129209Y-96520000D01*
X174184014Y-96490706D01*
X174410134Y-96305134D01*
X174595706Y-96079014D01*
X174733599Y-95821034D01*
X174818513Y-95541111D01*
X174847185Y-95250000D01*
X174818513Y-94958889D01*
X174733599Y-94678966D01*
X174595706Y-94420986D01*
X174410134Y-94194866D01*
X174184014Y-94009294D01*
X174129209Y-93980000D01*
X174184014Y-93950706D01*
X174410134Y-93765134D01*
X174595706Y-93539014D01*
X174733599Y-93281034D01*
X174818513Y-93001111D01*
X174847185Y-92710000D01*
X174818513Y-92418889D01*
X174733599Y-92138966D01*
X174595706Y-91880986D01*
X174410134Y-91654866D01*
X174184014Y-91469294D01*
X174129209Y-91440000D01*
X174184014Y-91410706D01*
X174410134Y-91225134D01*
X174595706Y-90999014D01*
X174733599Y-90741034D01*
X174818513Y-90461111D01*
X174847185Y-90170000D01*
X174818513Y-89878889D01*
X174733599Y-89598966D01*
X174595706Y-89340986D01*
X174410134Y-89114866D01*
X174184014Y-88929294D01*
X174129209Y-88900000D01*
X174184014Y-88870706D01*
X174410134Y-88685134D01*
X174595706Y-88459014D01*
X174733599Y-88201034D01*
X174818513Y-87921111D01*
X174847185Y-87630000D01*
X174818513Y-87338889D01*
X174733599Y-87058966D01*
X174595706Y-86800986D01*
X174410134Y-86574866D01*
X174380313Y-86550393D01*
X174449180Y-86529502D01*
X174559494Y-86470537D01*
X174656185Y-86391185D01*
X174735537Y-86294494D01*
X174794502Y-86184180D01*
X174830812Y-86064482D01*
X174843072Y-85940000D01*
X174840000Y-85375750D01*
X174769250Y-85305000D01*
X175676928Y-85305000D01*
X175689188Y-85429482D01*
X175725498Y-85549180D01*
X175784463Y-85659494D01*
X175863815Y-85756185D01*
X175960506Y-85835537D01*
X176070820Y-85894502D01*
X176190518Y-85930812D01*
X176315000Y-85943072D01*
X176879250Y-85940000D01*
X177038000Y-85781250D01*
X177038000Y-84582000D01*
X175838750Y-84582000D01*
X175680000Y-84740750D01*
X175676928Y-85305000D01*
X174769250Y-85305000D01*
X174681250Y-85217000D01*
X173482000Y-85217000D01*
X173482000Y-85237000D01*
X173228000Y-85237000D01*
X173228000Y-85217000D01*
X173208000Y-85217000D01*
X173208000Y-84963000D01*
X173228000Y-84963000D01*
X173228000Y-83763750D01*
X173482000Y-83763750D01*
X173482000Y-84963000D01*
X174681250Y-84963000D01*
X174840000Y-84804250D01*
X174843072Y-84240000D01*
X174830812Y-84115518D01*
X174794502Y-83995820D01*
X174735537Y-83885506D01*
X174656185Y-83788815D01*
X174559494Y-83709463D01*
X174449180Y-83650498D01*
X174329482Y-83614188D01*
X174236192Y-83605000D01*
X175676928Y-83605000D01*
X175680000Y-84169250D01*
X175838750Y-84328000D01*
X177038000Y-84328000D01*
X177038000Y-83128750D01*
X177292000Y-83128750D01*
X177292000Y-84328000D01*
X177312000Y-84328000D01*
X177312000Y-84582000D01*
X177292000Y-84582000D01*
X177292000Y-85781250D01*
X177450750Y-85940000D01*
X178015000Y-85943072D01*
X178139482Y-85930812D01*
X178259180Y-85894502D01*
X178369494Y-85835537D01*
X178466185Y-85756185D01*
X178545537Y-85659494D01*
X178604502Y-85549180D01*
X178625393Y-85480313D01*
X178649866Y-85510134D01*
X178875986Y-85695706D01*
X179133966Y-85833599D01*
X179413889Y-85918513D01*
X179632050Y-85940000D01*
X179777950Y-85940000D01*
X179996111Y-85918513D01*
X180276034Y-85833599D01*
X180534014Y-85695706D01*
X180760134Y-85510134D01*
X180945706Y-85284014D01*
X180975000Y-85229209D01*
X181004294Y-85284014D01*
X181189866Y-85510134D01*
X181415986Y-85695706D01*
X181673966Y-85833599D01*
X181953889Y-85918513D01*
X182172050Y-85940000D01*
X182317950Y-85940000D01*
X182536111Y-85918513D01*
X182816034Y-85833599D01*
X183074014Y-85695706D01*
X183300134Y-85510134D01*
X183485706Y-85284014D01*
X183515000Y-85229209D01*
X183544294Y-85284014D01*
X183729866Y-85510134D01*
X183955986Y-85695706D01*
X184213966Y-85833599D01*
X184493889Y-85918513D01*
X184712050Y-85940000D01*
X184857950Y-85940000D01*
X185076111Y-85918513D01*
X185356034Y-85833599D01*
X185614014Y-85695706D01*
X185840134Y-85510134D01*
X186025706Y-85284014D01*
X186163599Y-85026034D01*
X186248513Y-84746111D01*
X186277185Y-84455000D01*
X186248513Y-84163889D01*
X186163599Y-83883966D01*
X186025706Y-83625986D01*
X185840134Y-83399866D01*
X185614014Y-83214294D01*
X185356034Y-83076401D01*
X185076111Y-82991487D01*
X184857950Y-82970000D01*
X184712050Y-82970000D01*
X184493889Y-82991487D01*
X184213966Y-83076401D01*
X183955986Y-83214294D01*
X183729866Y-83399866D01*
X183544294Y-83625986D01*
X183515000Y-83680791D01*
X183485706Y-83625986D01*
X183300134Y-83399866D01*
X183074014Y-83214294D01*
X182816034Y-83076401D01*
X182536111Y-82991487D01*
X182317950Y-82970000D01*
X182172050Y-82970000D01*
X181953889Y-82991487D01*
X181673966Y-83076401D01*
X181415986Y-83214294D01*
X181189866Y-83399866D01*
X181004294Y-83625986D01*
X180975000Y-83680791D01*
X180945706Y-83625986D01*
X180760134Y-83399866D01*
X180534014Y-83214294D01*
X180276034Y-83076401D01*
X179996111Y-82991487D01*
X179777950Y-82970000D01*
X179632050Y-82970000D01*
X179413889Y-82991487D01*
X179133966Y-83076401D01*
X178875986Y-83214294D01*
X178649866Y-83399866D01*
X178625393Y-83429687D01*
X178604502Y-83360820D01*
X178545537Y-83250506D01*
X178466185Y-83153815D01*
X178369494Y-83074463D01*
X178259180Y-83015498D01*
X178139482Y-82979188D01*
X178015000Y-82966928D01*
X177450750Y-82970000D01*
X177292000Y-83128750D01*
X177038000Y-83128750D01*
X176879250Y-82970000D01*
X176315000Y-82966928D01*
X176190518Y-82979188D01*
X176070820Y-83015498D01*
X175960506Y-83074463D01*
X175863815Y-83153815D01*
X175784463Y-83250506D01*
X175725498Y-83360820D01*
X175689188Y-83480518D01*
X175676928Y-83605000D01*
X174236192Y-83605000D01*
X174205000Y-83601928D01*
X173640750Y-83605000D01*
X173482000Y-83763750D01*
X173228000Y-83763750D01*
X173069250Y-83605000D01*
X172939999Y-83604296D01*
X172939999Y-71339802D01*
X180216009Y-64063794D01*
X180245001Y-64040001D01*
X180268795Y-64011008D01*
X180268799Y-64011004D01*
X180339973Y-63924277D01*
X180339974Y-63924276D01*
X180410546Y-63792247D01*
X180454003Y-63648986D01*
X180465000Y-63537333D01*
X180465000Y-63537324D01*
X180468676Y-63500001D01*
X180465000Y-63462678D01*
X180465000Y-47454289D01*
X180561926Y-47402481D01*
X180750505Y-47247720D01*
X180755498Y-47264180D01*
X180814463Y-47374494D01*
X180893815Y-47471185D01*
X180990506Y-47550537D01*
X181100820Y-47609502D01*
X181220518Y-47645812D01*
X181345000Y-47658072D01*
X181959250Y-47655000D01*
X182118000Y-47496250D01*
X182118000Y-45847000D01*
X182372000Y-45847000D01*
X182372000Y-47496250D01*
X182530750Y-47655000D01*
X183145000Y-47658072D01*
X183269482Y-47645812D01*
X183389180Y-47609502D01*
X183499494Y-47550537D01*
X183596185Y-47471185D01*
X183675537Y-47374494D01*
X183734502Y-47264180D01*
X183770812Y-47144482D01*
X183783072Y-47020000D01*
X183780000Y-46005750D01*
X183621250Y-45847000D01*
X182372000Y-45847000D01*
X182118000Y-45847000D01*
X182098000Y-45847000D01*
X182098000Y-45593000D01*
X182118000Y-45593000D01*
X182118000Y-43943750D01*
X182372000Y-43943750D01*
X182372000Y-45593000D01*
X183621250Y-45593000D01*
X183780000Y-45434250D01*
X183783072Y-44420000D01*
X183770812Y-44295518D01*
X183734502Y-44175820D01*
X183675537Y-44065506D01*
X183596185Y-43968815D01*
X183499494Y-43889463D01*
X183389180Y-43830498D01*
X183269482Y-43794188D01*
X183145000Y-43781928D01*
X182530750Y-43785000D01*
X182372000Y-43943750D01*
X182118000Y-43943750D01*
X181959250Y-43785000D01*
X181345000Y-43781928D01*
X181220518Y-43794188D01*
X181100820Y-43830498D01*
X180990506Y-43889463D01*
X180893815Y-43968815D01*
X180814463Y-44065506D01*
X180755498Y-44175820D01*
X180750505Y-44192280D01*
X180561927Y-44037519D01*
X180295261Y-43894983D01*
X180005913Y-43807210D01*
X179705000Y-43777573D01*
X179404088Y-43807210D01*
X179114740Y-43894983D01*
X178848074Y-44037519D01*
X178614339Y-44229339D01*
X178435000Y-44447865D01*
X178255661Y-44229339D01*
X178021927Y-44037519D01*
X177755261Y-43894983D01*
X177465913Y-43807210D01*
X177165000Y-43777573D01*
X176864088Y-43807210D01*
X176574740Y-43894983D01*
X176308074Y-44037519D01*
X176074339Y-44229339D01*
X175895000Y-44447865D01*
X175715661Y-44229339D01*
X175481927Y-44037519D01*
X175215261Y-43894983D01*
X174925913Y-43807210D01*
X174625000Y-43777573D01*
X174324088Y-43807210D01*
X174034740Y-43894983D01*
X173768074Y-44037519D01*
X173534339Y-44229339D01*
X173355000Y-44447865D01*
X173175661Y-44229339D01*
X172941927Y-44037519D01*
X172675261Y-43894983D01*
X172385913Y-43807210D01*
X172085000Y-43777573D01*
X171784088Y-43807210D01*
X171494740Y-43894983D01*
X171228074Y-44037519D01*
X170994339Y-44229339D01*
X170815000Y-44447865D01*
X170635661Y-44229339D01*
X170401927Y-44037519D01*
X170135261Y-43894983D01*
X169845913Y-43807210D01*
X169545000Y-43777573D01*
X169244088Y-43807210D01*
X168954740Y-43894983D01*
X168688074Y-44037519D01*
X168454339Y-44229339D01*
X168275000Y-44447865D01*
X168095661Y-44229339D01*
X167861927Y-44037519D01*
X167595261Y-43894983D01*
X167305913Y-43807210D01*
X167005000Y-43777573D01*
X166704088Y-43807210D01*
X166414740Y-43894983D01*
X166148074Y-44037519D01*
X165914339Y-44229339D01*
X165735000Y-44447865D01*
X165555661Y-44229339D01*
X165321927Y-44037519D01*
X165055261Y-43894983D01*
X164765913Y-43807210D01*
X164465000Y-43777573D01*
X164164088Y-43807210D01*
X163874740Y-43894983D01*
X163608074Y-44037519D01*
X163374339Y-44229339D01*
X163195000Y-44447865D01*
X163015661Y-44229339D01*
X162781927Y-44037519D01*
X162515261Y-43894983D01*
X162225913Y-43807210D01*
X161925000Y-43777573D01*
X161624088Y-43807210D01*
X161334740Y-43894983D01*
X161068074Y-44037519D01*
X160834339Y-44229339D01*
X160655000Y-44447865D01*
X160475661Y-44229339D01*
X160241927Y-44037519D01*
X159975261Y-43894983D01*
X159685913Y-43807210D01*
X159385000Y-43777573D01*
X159084088Y-43807210D01*
X158794740Y-43894983D01*
X158528074Y-44037519D01*
X158294339Y-44229339D01*
X158115000Y-44447865D01*
X157935661Y-44229339D01*
X157701927Y-44037519D01*
X157435261Y-43894983D01*
X157145913Y-43807210D01*
X156845000Y-43777573D01*
X156544088Y-43807210D01*
X156254740Y-43894983D01*
X155988074Y-44037519D01*
X155754339Y-44229339D01*
X155575000Y-44447865D01*
X155395661Y-44229339D01*
X155161927Y-44037519D01*
X154895261Y-43894983D01*
X154605913Y-43807210D01*
X154305000Y-43777573D01*
X154004088Y-43807210D01*
X153714740Y-43894983D01*
X153448074Y-44037519D01*
X153214339Y-44229339D01*
X153035000Y-44447865D01*
X152855661Y-44229339D01*
X152621927Y-44037519D01*
X152355261Y-43894983D01*
X152065913Y-43807210D01*
X151765000Y-43777573D01*
X151464088Y-43807210D01*
X151174740Y-43894983D01*
X150908074Y-44037519D01*
X150674339Y-44229339D01*
X150495000Y-44447865D01*
X150315661Y-44229339D01*
X150081927Y-44037519D01*
X149815261Y-43894983D01*
X149525913Y-43807210D01*
X149225000Y-43777573D01*
X148924088Y-43807210D01*
X148634740Y-43894983D01*
X148368074Y-44037519D01*
X148134339Y-44229339D01*
X147955000Y-44447865D01*
X147775661Y-44229339D01*
X147541927Y-44037519D01*
X147275261Y-43894983D01*
X146985913Y-43807210D01*
X146685000Y-43777573D01*
X146384088Y-43807210D01*
X146094740Y-43894983D01*
X145828074Y-44037519D01*
X145594339Y-44229339D01*
X145415000Y-44447865D01*
X145235661Y-44229339D01*
X145001927Y-44037519D01*
X144735261Y-43894983D01*
X144445913Y-43807210D01*
X144145000Y-43777573D01*
X143844088Y-43807210D01*
X143554740Y-43894983D01*
X143288074Y-44037519D01*
X143054339Y-44229339D01*
X142862519Y-44463073D01*
X142719983Y-44729739D01*
X142632210Y-45019087D01*
X142628772Y-45053998D01*
X142570724Y-45085026D01*
X142454999Y-45179999D01*
X142431201Y-45208997D01*
X134108998Y-53531201D01*
X134080000Y-53554999D01*
X134056202Y-53583997D01*
X134056201Y-53583998D01*
X133985026Y-53670724D01*
X133914454Y-53802754D01*
X133870998Y-53946015D01*
X133856324Y-54095000D01*
X133860001Y-54132333D01*
X133860000Y-80059099D01*
X133818899Y-80081068D01*
X133600392Y-80260392D01*
X133421068Y-80478899D01*
X133287818Y-80728192D01*
X133205764Y-80998691D01*
X133178057Y-81280000D01*
X132205000Y-81280000D01*
X132205000Y-44764801D01*
X135131004Y-41838798D01*
X135160001Y-41815001D01*
X135193170Y-41774584D01*
X135254974Y-41699277D01*
X135325546Y-41567247D01*
X135340644Y-41517474D01*
X135369003Y-41423986D01*
X135380000Y-41312333D01*
X135380000Y-41312324D01*
X135383676Y-41275001D01*
X135380000Y-41237678D01*
X135380000Y-38772322D01*
X135383676Y-38734999D01*
X135380000Y-38697676D01*
X135380000Y-38697667D01*
X135369003Y-38586014D01*
X135325546Y-38442753D01*
X135254974Y-38310724D01*
X135160001Y-38194999D01*
X135131003Y-38171201D01*
X133913804Y-36954003D01*
X133890001Y-36924999D01*
X133774276Y-36830026D01*
X133642247Y-36759454D01*
X133498986Y-36715997D01*
X133387333Y-36705000D01*
X133387322Y-36705000D01*
X133350000Y-36701324D01*
X133312678Y-36705000D01*
X132348072Y-36705000D01*
X132348072Y-36565000D01*
X132335812Y-36440518D01*
X132299502Y-36320820D01*
X132258975Y-36245000D01*
X182195000Y-36245000D01*
X182195001Y-40038647D01*
G36*
X123605498Y-36320820D02*
G01*
X123569188Y-36440518D01*
X123556928Y-36565000D01*
X123556928Y-36810674D01*
X123520724Y-36830026D01*
X123520722Y-36830027D01*
X123520723Y-36830027D01*
X123433996Y-36901201D01*
X123433992Y-36901205D01*
X123404999Y-36924999D01*
X123381205Y-36953992D01*
X121408998Y-38926201D01*
X121380000Y-38949999D01*
X121356202Y-38978997D01*
X121356201Y-38978998D01*
X121285026Y-39065724D01*
X121214454Y-39197754D01*
X121184180Y-39297558D01*
X121170998Y-39341014D01*
X121168067Y-39370770D01*
X121156324Y-39490000D01*
X121160001Y-39527333D01*
X121160000Y-76520198D01*
X118233998Y-79446201D01*
X118205000Y-79469999D01*
X118181202Y-79498997D01*
X118181201Y-79498998D01*
X118110026Y-79585724D01*
X118039454Y-79717754D01*
X118009180Y-79817558D01*
X117995998Y-79861014D01*
X117985001Y-79972667D01*
X117981324Y-80010000D01*
X117985001Y-80047332D01*
X117985000Y-87950198D01*
X115893886Y-90041312D01*
X115711335Y-90005000D01*
X115428665Y-90005000D01*
X115151426Y-90060147D01*
X114890273Y-90168320D01*
X114655241Y-90325363D01*
X114455363Y-90525241D01*
X114298320Y-90760273D01*
X114190147Y-91021426D01*
X114135000Y-91298665D01*
X114135000Y-91581335D01*
X114190147Y-91858574D01*
X114298320Y-92119727D01*
X114455363Y-92354759D01*
X114655241Y-92554637D01*
X114890273Y-92711680D01*
X115151426Y-92819853D01*
X115428665Y-92875000D01*
X115711335Y-92875000D01*
X115988574Y-92819853D01*
X116249727Y-92711680D01*
X116484759Y-92554637D01*
X116684637Y-92354759D01*
X116841680Y-92119727D01*
X116949853Y-91858574D01*
X117005000Y-91581335D01*
X117005000Y-91298665D01*
X116968688Y-91116114D01*
X119256004Y-88828798D01*
X119285001Y-88805001D01*
X119311332Y-88772917D01*
X119379974Y-88689277D01*
X119450546Y-88557247D01*
X119480344Y-88459014D01*
X119494003Y-88413986D01*
X119505000Y-88302333D01*
X119505000Y-88302324D01*
X119508676Y-88265001D01*
X119505000Y-88227678D01*
X119505000Y-80324801D01*
X122431004Y-77398798D01*
X122460001Y-77375001D01*
X122487639Y-77341324D01*
X122554974Y-77259277D01*
X122625546Y-77127247D01*
X122625546Y-77127246D01*
X122669003Y-76983986D01*
X122680000Y-76872333D01*
X122680000Y-76872324D01*
X122683676Y-76835001D01*
X122680000Y-76797678D01*
X122680000Y-39804801D01*
X123709919Y-38774883D01*
X123743815Y-38816185D01*
X123840506Y-38895537D01*
X123950820Y-38954502D01*
X123969127Y-38960056D01*
X123902688Y-39026495D01*
X123734701Y-39277905D01*
X123618989Y-39557257D01*
X123560000Y-39853816D01*
X123560000Y-40156184D01*
X123618989Y-40452743D01*
X123734701Y-40732095D01*
X123902688Y-40983505D01*
X124116495Y-41197312D01*
X124335001Y-41343313D01*
X124335000Y-77790198D01*
X122245906Y-79879292D01*
X122201309Y-79865764D01*
X121990492Y-79845000D01*
X121849508Y-79845000D01*
X121638691Y-79865764D01*
X121368192Y-79947818D01*
X121118899Y-80081068D01*
X120900392Y-80260392D01*
X120721068Y-80478899D01*
X120587818Y-80728192D01*
X120505764Y-80998691D01*
X120478057Y-81280000D01*
X120505764Y-81561309D01*
X120587818Y-81831808D01*
X120721068Y-82081101D01*
X120900392Y-82299608D01*
X121118899Y-82478932D01*
X121368192Y-82612182D01*
X121638691Y-82694236D01*
X121849508Y-82715000D01*
X121990492Y-82715000D01*
X122201309Y-82694236D01*
X122471808Y-82612182D01*
X122721101Y-82478932D01*
X122939608Y-82299608D01*
X123118932Y-82081101D01*
X123252182Y-81831808D01*
X123334236Y-81561309D01*
X123361943Y-81280000D01*
X123334236Y-80998691D01*
X123320708Y-80954094D01*
X125606004Y-78668798D01*
X125635001Y-78645001D01*
X125661500Y-78612712D01*
X125729974Y-78529277D01*
X125800546Y-78397247D01*
X125835276Y-78282754D01*
X125844003Y-78253986D01*
X125855000Y-78142333D01*
X125855000Y-78142324D01*
X125858676Y-78105001D01*
X125855000Y-78067678D01*
X125855000Y-41343313D01*
X126073505Y-41197312D01*
X126287312Y-40983505D01*
X126455299Y-40732095D01*
X126571011Y-40452743D01*
X126630000Y-40156184D01*
X126630000Y-39853816D01*
X126571011Y-39557257D01*
X126455299Y-39277905D01*
X126287312Y-39026495D01*
X126220873Y-38960056D01*
X126239180Y-38954502D01*
X126349494Y-38895537D01*
X126446185Y-38816185D01*
X126525537Y-38719494D01*
X126584502Y-38609180D01*
X126620812Y-38489482D01*
X126633072Y-38365000D01*
X126633072Y-36565000D01*
X126620812Y-36440518D01*
X126584502Y-36320820D01*
X126543975Y-36245000D01*
X129361025Y-36245000D01*
X129320498Y-36320820D01*
X129284188Y-36440518D01*
X129271928Y-36565000D01*
X129271928Y-38365000D01*
X129284188Y-38489482D01*
X129320498Y-38609180D01*
X129379463Y-38719494D01*
X129458815Y-38816185D01*
X129555506Y-38895537D01*
X129665820Y-38954502D01*
X129684127Y-38960056D01*
X129617688Y-39026495D01*
X129449701Y-39277905D01*
X129333989Y-39557257D01*
X129275000Y-39853816D01*
X129275000Y-40156184D01*
X129326268Y-40413929D01*
X127758998Y-41981201D01*
X127730000Y-42004999D01*
X127706202Y-42033997D01*
X127706201Y-42033998D01*
X127635026Y-42120724D01*
X127564454Y-42252754D01*
X127537111Y-42342895D01*
X127520998Y-42396014D01*
X127520157Y-42404557D01*
X127506324Y-42545000D01*
X127510001Y-42582333D01*
X127510000Y-80059099D01*
X127468899Y-80081068D01*
X127250392Y-80260392D01*
X127071068Y-80478899D01*
X126937818Y-80728192D01*
X126855764Y-80998691D01*
X126828057Y-81280000D01*
X126855764Y-81561309D01*
X126937818Y-81831808D01*
X127071068Y-82081101D01*
X127250392Y-82299608D01*
X127468899Y-82478932D01*
X127718192Y-82612182D01*
X127988691Y-82694236D01*
X128199508Y-82715000D01*
X128340492Y-82715000D01*
X128551309Y-82694236D01*
X128821808Y-82612182D01*
X129071101Y-82478932D01*
X129289608Y-82299608D01*
X129468932Y-82081101D01*
X129602182Y-81831808D01*
X129684236Y-81561309D01*
X129711943Y-81280000D01*
X129684236Y-80998691D01*
X129602182Y-80728192D01*
X129468932Y-80478899D01*
X129289608Y-80260392D01*
X129071101Y-80081068D01*
X129030000Y-80059099D01*
X129030000Y-42859801D01*
X130401071Y-41488732D01*
X130658816Y-41540000D01*
X130961184Y-41540000D01*
X131257743Y-41481011D01*
X131537095Y-41365299D01*
X131788505Y-41197312D01*
X132002312Y-40983505D01*
X132170299Y-40732095D01*
X132286011Y-40452743D01*
X132345000Y-40156184D01*
X132345000Y-39853816D01*
X132286011Y-39557257D01*
X132170299Y-39277905D01*
X132002312Y-39026495D01*
X131935873Y-38960056D01*
X131954180Y-38954502D01*
X132064494Y-38895537D01*
X132161185Y-38816185D01*
X132240537Y-38719494D01*
X132299502Y-38609180D01*
X132335812Y-38489482D01*
X132348072Y-38365000D01*
X132348072Y-38225000D01*
X133035199Y-38225000D01*
X133860001Y-39049803D01*
X133860000Y-40960198D01*
X130933998Y-43886201D01*
X130905000Y-43909999D01*
X130881202Y-43938997D01*
X130881201Y-43938998D01*
X130810026Y-44025724D01*
X130739454Y-44157754D01*
X130695998Y-44301015D01*
X130681324Y-44450000D01*
X130685001Y-44487333D01*
X130685000Y-83505197D01*
X128590199Y-85600000D01*
X127037323Y-85600000D01*
X127000000Y-85596324D01*
X126962677Y-85600000D01*
X126962667Y-85600000D01*
X126851014Y-85610997D01*
X126707753Y-85654454D01*
X126575723Y-85725026D01*
X126507215Y-85781250D01*
X126459999Y-85819999D01*
X126436201Y-85848997D01*
X122243887Y-90041312D01*
X122061335Y-90005000D01*
X121778665Y-90005000D01*
X121501426Y-90060147D01*
X121240273Y-90168320D01*
X121005241Y-90325363D01*
X120805363Y-90525241D01*
X120648320Y-90760273D01*
X120540147Y-91021426D01*
X120485000Y-91298665D01*
X120485000Y-91581335D01*
X120521312Y-91763886D01*
X118868998Y-93416201D01*
X118840000Y-93439999D01*
X118816202Y-93468997D01*
X118816201Y-93468998D01*
X118745026Y-93555724D01*
X118674454Y-93687754D01*
X118651023Y-93765000D01*
X118633972Y-93821212D01*
X118630998Y-93831015D01*
X118616324Y-93980000D01*
X118620001Y-94017332D01*
X118620000Y-97004099D01*
X118578899Y-97026068D01*
X118360392Y-97205393D01*
X118237000Y-97355747D01*
X118237000Y-96520000D01*
X118234560Y-96495224D01*
X118227333Y-96471399D01*
X118215597Y-96449443D01*
X118199803Y-96430197D01*
X118180557Y-96414403D01*
X118158601Y-96402667D01*
X118134776Y-96395440D01*
X118110000Y-96393000D01*
X111175000Y-96393000D01*
X111175000Y-78169526D01*
X111384537Y-78379063D01*
X111734218Y-78612712D01*
X112122764Y-78773653D01*
X112535241Y-78855700D01*
X112955799Y-78855700D01*
X113368276Y-78773653D01*
X113756822Y-78612712D01*
X114106503Y-78379063D01*
X114403883Y-78081683D01*
X114637532Y-77732002D01*
X114798473Y-77343456D01*
X114880520Y-76930979D01*
X114880520Y-76510421D01*
X114798473Y-76097944D01*
X114637532Y-75709398D01*
X114403883Y-75359717D01*
X114106503Y-75062337D01*
X113756822Y-74828688D01*
X113368276Y-74667747D01*
X112955799Y-74585700D01*
X112535241Y-74585700D01*
X112122764Y-74667747D01*
X111734218Y-74828688D01*
X111384537Y-75062337D01*
X111175000Y-75271874D01*
X111175000Y-47169346D01*
X111384017Y-47378363D01*
X111733698Y-47612012D01*
X112122244Y-47772953D01*
X112534721Y-47855000D01*
X112955279Y-47855000D01*
X113367756Y-47772953D01*
X113756302Y-47612012D01*
X114105983Y-47378363D01*
X114403363Y-47080983D01*
X114637012Y-46731302D01*
X114797953Y-46342756D01*
X114880000Y-45930279D01*
X114880000Y-45509721D01*
X114797953Y-45097244D01*
X114637012Y-44708698D01*
X114403363Y-44359017D01*
X114105983Y-44061637D01*
X113756302Y-43827988D01*
X113367756Y-43667047D01*
X112955279Y-43585000D01*
X112534721Y-43585000D01*
X112122244Y-43667047D01*
X111733698Y-43827988D01*
X111384017Y-44061637D01*
X111175000Y-44270654D01*
X111175000Y-42595000D01*
X115603647Y-42595000D01*
X115633573Y-42592052D01*
X115645383Y-42592135D01*
X115654902Y-42591201D01*
X116024656Y-42552338D01*
X116085437Y-42539861D01*
X116146458Y-42528221D01*
X116155614Y-42525456D01*
X116510777Y-42415515D01*
X116568023Y-42391451D01*
X116625574Y-42368199D01*
X116634019Y-42363709D01*
X116961064Y-42186877D01*
X117012561Y-42152142D01*
X117064486Y-42118163D01*
X117071898Y-42112118D01*
X117358368Y-41875129D01*
X117402098Y-41831092D01*
X117446472Y-41787638D01*
X117452569Y-41780269D01*
X117687552Y-41492151D01*
X117721924Y-41440418D01*
X117756985Y-41389212D01*
X117761534Y-41380799D01*
X117834821Y-41242966D01*
X117985001Y-41343313D01*
X117985000Y-75885198D01*
X115858997Y-78011202D01*
X115829999Y-78035000D01*
X115806201Y-78063998D01*
X115806200Y-78063999D01*
X115735025Y-78150725D01*
X115664453Y-78282755D01*
X115635239Y-78379063D01*
X115620997Y-78426015D01*
X115610000Y-78537668D01*
X115606323Y-78575001D01*
X115610000Y-78612333D01*
X115609999Y-79845000D01*
X115499508Y-79845000D01*
X115288691Y-79865764D01*
X115018192Y-79947818D01*
X114768899Y-80081068D01*
X114550392Y-80260392D01*
X114371068Y-80478899D01*
X114237818Y-80728192D01*
X114155764Y-80998691D01*
X114128057Y-81280000D01*
X114155764Y-81561309D01*
X114237818Y-81831808D01*
X114371068Y-82081101D01*
X114550392Y-82299608D01*
X114768899Y-82478932D01*
X115018192Y-82612182D01*
X115288691Y-82694236D01*
X115499508Y-82715000D01*
X115640492Y-82715000D01*
X115851309Y-82694236D01*
X116121808Y-82612182D01*
X116371101Y-82478932D01*
X116589608Y-82299608D01*
X116768932Y-82081101D01*
X116902182Y-81831808D01*
X116984236Y-81561309D01*
X117011943Y-81280000D01*
X116984236Y-80998691D01*
X116968922Y-80948206D01*
X117004972Y-80904278D01*
X117004973Y-80904277D01*
X117075545Y-80772248D01*
X117119002Y-80628987D01*
X117129999Y-80517334D01*
X117129999Y-80517325D01*
X117133675Y-80480002D01*
X117129999Y-80442679D01*
X117129999Y-78889802D01*
X119256004Y-76763798D01*
X119285001Y-76740001D01*
X119379974Y-76624276D01*
X119450546Y-76492247D01*
X119494003Y-76348986D01*
X119505000Y-76237333D01*
X119505000Y-76237332D01*
X119508677Y-76200000D01*
X119505000Y-76162667D01*
X119505000Y-41343313D01*
X119723505Y-41197312D01*
X119937312Y-40983505D01*
X120105299Y-40732095D01*
X120221011Y-40452743D01*
X120280000Y-40156184D01*
X120280000Y-39853816D01*
X120221011Y-39557257D01*
X120105299Y-39277905D01*
X119937312Y-39026495D01*
X119870873Y-38960056D01*
X119889180Y-38954502D01*
X119999494Y-38895537D01*
X120096185Y-38816185D01*
X120175537Y-38719494D01*
X120234502Y-38609180D01*
X120270812Y-38489482D01*
X120283072Y-38365000D01*
X120280000Y-37750750D01*
X120121250Y-37592000D01*
X118872000Y-37592000D01*
X118872000Y-37612000D01*
X118618000Y-37612000D01*
X118618000Y-37592000D01*
X118598000Y-37592000D01*
X118598000Y-37338000D01*
X118618000Y-37338000D01*
X118618000Y-37318000D01*
X118872000Y-37318000D01*
X118872000Y-37338000D01*
X120121250Y-37338000D01*
X120280000Y-37179250D01*
X120283072Y-36565000D01*
X120270812Y-36440518D01*
X120234502Y-36320820D01*
X120193975Y-36245000D01*
X123646025Y-36245000D01*
X123605498Y-36320820D01*
X123605498Y-36320820D01*
G37*
X123605498Y-36320820D02*
X123569188Y-36440518D01*
X123556928Y-36565000D01*
X123556928Y-36810674D01*
X123520724Y-36830026D01*
X123520722Y-36830027D01*
X123520723Y-36830027D01*
X123433996Y-36901201D01*
X123433992Y-36901205D01*
X123404999Y-36924999D01*
X123381205Y-36953992D01*
X121408998Y-38926201D01*
X121380000Y-38949999D01*
X121356202Y-38978997D01*
X121356201Y-38978998D01*
X121285026Y-39065724D01*
X121214454Y-39197754D01*
X121184180Y-39297558D01*
X121170998Y-39341014D01*
X121168067Y-39370770D01*
X121156324Y-39490000D01*
X121160001Y-39527333D01*
X121160000Y-76520198D01*
X118233998Y-79446201D01*
X118205000Y-79469999D01*
X118181202Y-79498997D01*
X118181201Y-79498998D01*
X118110026Y-79585724D01*
X118039454Y-79717754D01*
X118009180Y-79817558D01*
X117995998Y-79861014D01*
X117985001Y-79972667D01*
X117981324Y-80010000D01*
X117985001Y-80047332D01*
X117985000Y-87950198D01*
X115893886Y-90041312D01*
X115711335Y-90005000D01*
X115428665Y-90005000D01*
X115151426Y-90060147D01*
X114890273Y-90168320D01*
X114655241Y-90325363D01*
X114455363Y-90525241D01*
X114298320Y-90760273D01*
X114190147Y-91021426D01*
X114135000Y-91298665D01*
X114135000Y-91581335D01*
X114190147Y-91858574D01*
X114298320Y-92119727D01*
X114455363Y-92354759D01*
X114655241Y-92554637D01*
X114890273Y-92711680D01*
X115151426Y-92819853D01*
X115428665Y-92875000D01*
X115711335Y-92875000D01*
X115988574Y-92819853D01*
X116249727Y-92711680D01*
X116484759Y-92554637D01*
X116684637Y-92354759D01*
X116841680Y-92119727D01*
X116949853Y-91858574D01*
X117005000Y-91581335D01*
X117005000Y-91298665D01*
X116968688Y-91116114D01*
X119256004Y-88828798D01*
X119285001Y-88805001D01*
X119311332Y-88772917D01*
X119379974Y-88689277D01*
X119450546Y-88557247D01*
X119480344Y-88459014D01*
X119494003Y-88413986D01*
X119505000Y-88302333D01*
X119505000Y-88302324D01*
X119508676Y-88265001D01*
X119505000Y-88227678D01*
X119505000Y-80324801D01*
X122431004Y-77398798D01*
X122460001Y-77375001D01*
X122487639Y-77341324D01*
X122554974Y-77259277D01*
X122625546Y-77127247D01*
X122625546Y-77127246D01*
X122669003Y-76983986D01*
X122680000Y-76872333D01*
X122680000Y-76872324D01*
X122683676Y-76835001D01*
X122680000Y-76797678D01*
X122680000Y-39804801D01*
X123709919Y-38774883D01*
X123743815Y-38816185D01*
X123840506Y-38895537D01*
X123950820Y-38954502D01*
X123969127Y-38960056D01*
X123902688Y-39026495D01*
X123734701Y-39277905D01*
X123618989Y-39557257D01*
X123560000Y-39853816D01*
X123560000Y-40156184D01*
X123618989Y-40452743D01*
X123734701Y-40732095D01*
X123902688Y-40983505D01*
X124116495Y-41197312D01*
X124335001Y-41343313D01*
X124335000Y-77790198D01*
X122245906Y-79879292D01*
X122201309Y-79865764D01*
X121990492Y-79845000D01*
X121849508Y-79845000D01*
X121638691Y-79865764D01*
X121368192Y-79947818D01*
X121118899Y-80081068D01*
X120900392Y-80260392D01*
X120721068Y-80478899D01*
X120587818Y-80728192D01*
X120505764Y-80998691D01*
X120478057Y-81280000D01*
X120505764Y-81561309D01*
X120587818Y-81831808D01*
X120721068Y-82081101D01*
X120900392Y-82299608D01*
X121118899Y-82478932D01*
X121368192Y-82612182D01*
X121638691Y-82694236D01*
X121849508Y-82715000D01*
X121990492Y-82715000D01*
X122201309Y-82694236D01*
X122471808Y-82612182D01*
X122721101Y-82478932D01*
X122939608Y-82299608D01*
X123118932Y-82081101D01*
X123252182Y-81831808D01*
X123334236Y-81561309D01*
X123361943Y-81280000D01*
X123334236Y-80998691D01*
X123320708Y-80954094D01*
X125606004Y-78668798D01*
X125635001Y-78645001D01*
X125661500Y-78612712D01*
X125729974Y-78529277D01*
X125800546Y-78397247D01*
X125835276Y-78282754D01*
X125844003Y-78253986D01*
X125855000Y-78142333D01*
X125855000Y-78142324D01*
X125858676Y-78105001D01*
X125855000Y-78067678D01*
X125855000Y-41343313D01*
X126073505Y-41197312D01*
X126287312Y-40983505D01*
X126455299Y-40732095D01*
X126571011Y-40452743D01*
X126630000Y-40156184D01*
X126630000Y-39853816D01*
X126571011Y-39557257D01*
X126455299Y-39277905D01*
X126287312Y-39026495D01*
X126220873Y-38960056D01*
X126239180Y-38954502D01*
X126349494Y-38895537D01*
X126446185Y-38816185D01*
X126525537Y-38719494D01*
X126584502Y-38609180D01*
X126620812Y-38489482D01*
X126633072Y-38365000D01*
X126633072Y-36565000D01*
X126620812Y-36440518D01*
X126584502Y-36320820D01*
X126543975Y-36245000D01*
X129361025Y-36245000D01*
X129320498Y-36320820D01*
X129284188Y-36440518D01*
X129271928Y-36565000D01*
X129271928Y-38365000D01*
X129284188Y-38489482D01*
X129320498Y-38609180D01*
X129379463Y-38719494D01*
X129458815Y-38816185D01*
X129555506Y-38895537D01*
X129665820Y-38954502D01*
X129684127Y-38960056D01*
X129617688Y-39026495D01*
X129449701Y-39277905D01*
X129333989Y-39557257D01*
X129275000Y-39853816D01*
X129275000Y-40156184D01*
X129326268Y-40413929D01*
X127758998Y-41981201D01*
X127730000Y-42004999D01*
X127706202Y-42033997D01*
X127706201Y-42033998D01*
X127635026Y-42120724D01*
X127564454Y-42252754D01*
X127537111Y-42342895D01*
X127520998Y-42396014D01*
X127520157Y-42404557D01*
X127506324Y-42545000D01*
X127510001Y-42582333D01*
X127510000Y-80059099D01*
X127468899Y-80081068D01*
X127250392Y-80260392D01*
X127071068Y-80478899D01*
X126937818Y-80728192D01*
X126855764Y-80998691D01*
X126828057Y-81280000D01*
X126855764Y-81561309D01*
X126937818Y-81831808D01*
X127071068Y-82081101D01*
X127250392Y-82299608D01*
X127468899Y-82478932D01*
X127718192Y-82612182D01*
X127988691Y-82694236D01*
X128199508Y-82715000D01*
X128340492Y-82715000D01*
X128551309Y-82694236D01*
X128821808Y-82612182D01*
X129071101Y-82478932D01*
X129289608Y-82299608D01*
X129468932Y-82081101D01*
X129602182Y-81831808D01*
X129684236Y-81561309D01*
X129711943Y-81280000D01*
X129684236Y-80998691D01*
X129602182Y-80728192D01*
X129468932Y-80478899D01*
X129289608Y-80260392D01*
X129071101Y-80081068D01*
X129030000Y-80059099D01*
X129030000Y-42859801D01*
X130401071Y-41488732D01*
X130658816Y-41540000D01*
X130961184Y-41540000D01*
X131257743Y-41481011D01*
X131537095Y-41365299D01*
X131788505Y-41197312D01*
X132002312Y-40983505D01*
X132170299Y-40732095D01*
X132286011Y-40452743D01*
X132345000Y-40156184D01*
X132345000Y-39853816D01*
X132286011Y-39557257D01*
X132170299Y-39277905D01*
X132002312Y-39026495D01*
X131935873Y-38960056D01*
X131954180Y-38954502D01*
X132064494Y-38895537D01*
X132161185Y-38816185D01*
X132240537Y-38719494D01*
X132299502Y-38609180D01*
X132335812Y-38489482D01*
X132348072Y-38365000D01*
X132348072Y-38225000D01*
X133035199Y-38225000D01*
X133860001Y-39049803D01*
X133860000Y-40960198D01*
X130933998Y-43886201D01*
X130905000Y-43909999D01*
X130881202Y-43938997D01*
X130881201Y-43938998D01*
X130810026Y-44025724D01*
X130739454Y-44157754D01*
X130695998Y-44301015D01*
X130681324Y-44450000D01*
X130685001Y-44487333D01*
X130685000Y-83505197D01*
X128590199Y-85600000D01*
X127037323Y-85600000D01*
X127000000Y-85596324D01*
X126962677Y-85600000D01*
X126962667Y-85600000D01*
X126851014Y-85610997D01*
X126707753Y-85654454D01*
X126575723Y-85725026D01*
X126507215Y-85781250D01*
X126459999Y-85819999D01*
X126436201Y-85848997D01*
X122243887Y-90041312D01*
X122061335Y-90005000D01*
X121778665Y-90005000D01*
X121501426Y-90060147D01*
X121240273Y-90168320D01*
X121005241Y-90325363D01*
X120805363Y-90525241D01*
X120648320Y-90760273D01*
X120540147Y-91021426D01*
X120485000Y-91298665D01*
X120485000Y-91581335D01*
X120521312Y-91763886D01*
X118868998Y-93416201D01*
X118840000Y-93439999D01*
X118816202Y-93468997D01*
X118816201Y-93468998D01*
X118745026Y-93555724D01*
X118674454Y-93687754D01*
X118651023Y-93765000D01*
X118633972Y-93821212D01*
X118630998Y-93831015D01*
X118616324Y-93980000D01*
X118620001Y-94017332D01*
X118620000Y-97004099D01*
X118578899Y-97026068D01*
X118360392Y-97205393D01*
X118237000Y-97355747D01*
X118237000Y-96520000D01*
X118234560Y-96495224D01*
X118227333Y-96471399D01*
X118215597Y-96449443D01*
X118199803Y-96430197D01*
X118180557Y-96414403D01*
X118158601Y-96402667D01*
X118134776Y-96395440D01*
X118110000Y-96393000D01*
X111175000Y-96393000D01*
X111175000Y-78169526D01*
X111384537Y-78379063D01*
X111734218Y-78612712D01*
X112122764Y-78773653D01*
X112535241Y-78855700D01*
X112955799Y-78855700D01*
X113368276Y-78773653D01*
X113756822Y-78612712D01*
X114106503Y-78379063D01*
X114403883Y-78081683D01*
X114637532Y-77732002D01*
X114798473Y-77343456D01*
X114880520Y-76930979D01*
X114880520Y-76510421D01*
X114798473Y-76097944D01*
X114637532Y-75709398D01*
X114403883Y-75359717D01*
X114106503Y-75062337D01*
X113756822Y-74828688D01*
X113368276Y-74667747D01*
X112955799Y-74585700D01*
X112535241Y-74585700D01*
X112122764Y-74667747D01*
X111734218Y-74828688D01*
X111384537Y-75062337D01*
X111175000Y-75271874D01*
X111175000Y-47169346D01*
X111384017Y-47378363D01*
X111733698Y-47612012D01*
X112122244Y-47772953D01*
X112534721Y-47855000D01*
X112955279Y-47855000D01*
X113367756Y-47772953D01*
X113756302Y-47612012D01*
X114105983Y-47378363D01*
X114403363Y-47080983D01*
X114637012Y-46731302D01*
X114797953Y-46342756D01*
X114880000Y-45930279D01*
X114880000Y-45509721D01*
X114797953Y-45097244D01*
X114637012Y-44708698D01*
X114403363Y-44359017D01*
X114105983Y-44061637D01*
X113756302Y-43827988D01*
X113367756Y-43667047D01*
X112955279Y-43585000D01*
X112534721Y-43585000D01*
X112122244Y-43667047D01*
X111733698Y-43827988D01*
X111384017Y-44061637D01*
X111175000Y-44270654D01*
X111175000Y-42595000D01*
X115603647Y-42595000D01*
X115633573Y-42592052D01*
X115645383Y-42592135D01*
X115654902Y-42591201D01*
X116024656Y-42552338D01*
X116085437Y-42539861D01*
X116146458Y-42528221D01*
X116155614Y-42525456D01*
X116510777Y-42415515D01*
X116568023Y-42391451D01*
X116625574Y-42368199D01*
X116634019Y-42363709D01*
X116961064Y-42186877D01*
X117012561Y-42152142D01*
X117064486Y-42118163D01*
X117071898Y-42112118D01*
X117358368Y-41875129D01*
X117402098Y-41831092D01*
X117446472Y-41787638D01*
X117452569Y-41780269D01*
X117687552Y-41492151D01*
X117721924Y-41440418D01*
X117756985Y-41389212D01*
X117761534Y-41380799D01*
X117834821Y-41242966D01*
X117985001Y-41343313D01*
X117985000Y-75885198D01*
X115858997Y-78011202D01*
X115829999Y-78035000D01*
X115806201Y-78063998D01*
X115806200Y-78063999D01*
X115735025Y-78150725D01*
X115664453Y-78282755D01*
X115635239Y-78379063D01*
X115620997Y-78426015D01*
X115610000Y-78537668D01*
X115606323Y-78575001D01*
X115610000Y-78612333D01*
X115609999Y-79845000D01*
X115499508Y-79845000D01*
X115288691Y-79865764D01*
X115018192Y-79947818D01*
X114768899Y-80081068D01*
X114550392Y-80260392D01*
X114371068Y-80478899D01*
X114237818Y-80728192D01*
X114155764Y-80998691D01*
X114128057Y-81280000D01*
X114155764Y-81561309D01*
X114237818Y-81831808D01*
X114371068Y-82081101D01*
X114550392Y-82299608D01*
X114768899Y-82478932D01*
X115018192Y-82612182D01*
X115288691Y-82694236D01*
X115499508Y-82715000D01*
X115640492Y-82715000D01*
X115851309Y-82694236D01*
X116121808Y-82612182D01*
X116371101Y-82478932D01*
X116589608Y-82299608D01*
X116768932Y-82081101D01*
X116902182Y-81831808D01*
X116984236Y-81561309D01*
X117011943Y-81280000D01*
X116984236Y-80998691D01*
X116968922Y-80948206D01*
X117004972Y-80904278D01*
X117004973Y-80904277D01*
X117075545Y-80772248D01*
X117119002Y-80628987D01*
X117129999Y-80517334D01*
X117129999Y-80517325D01*
X117133675Y-80480002D01*
X117129999Y-80442679D01*
X117129999Y-78889802D01*
X119256004Y-76763798D01*
X119285001Y-76740001D01*
X119379974Y-76624276D01*
X119450546Y-76492247D01*
X119494003Y-76348986D01*
X119505000Y-76237333D01*
X119505000Y-76237332D01*
X119508677Y-76200000D01*
X119505000Y-76162667D01*
X119505000Y-41343313D01*
X119723505Y-41197312D01*
X119937312Y-40983505D01*
X120105299Y-40732095D01*
X120221011Y-40452743D01*
X120280000Y-40156184D01*
X120280000Y-39853816D01*
X120221011Y-39557257D01*
X120105299Y-39277905D01*
X119937312Y-39026495D01*
X119870873Y-38960056D01*
X119889180Y-38954502D01*
X119999494Y-38895537D01*
X120096185Y-38816185D01*
X120175537Y-38719494D01*
X120234502Y-38609180D01*
X120270812Y-38489482D01*
X120283072Y-38365000D01*
X120280000Y-37750750D01*
X120121250Y-37592000D01*
X118872000Y-37592000D01*
X118872000Y-37612000D01*
X118618000Y-37612000D01*
X118618000Y-37592000D01*
X118598000Y-37592000D01*
X118598000Y-37338000D01*
X118618000Y-37338000D01*
X118618000Y-37318000D01*
X118872000Y-37318000D01*
X118872000Y-37338000D01*
X120121250Y-37338000D01*
X120280000Y-37179250D01*
X120283072Y-36565000D01*
X120270812Y-36440518D01*
X120234502Y-36320820D01*
X120193975Y-36245000D01*
X123646025Y-36245000D01*
X123605498Y-36320820D01*
M02*
