G04 #@! TF.GenerationSoftware,KiCad,Pcbnew,(5.1.5)-3*
G04 #@! TF.CreationDate,2020-04-07T21:38:51+01:00*
G04 #@! TF.ProjectId,Keypad,4b657970-6164-42e6-9b69-6361645f7063,1*
G04 #@! TF.SameCoordinates,Original*
G04 #@! TF.FileFunction,Legend,Top*
G04 #@! TF.FilePolarity,Positive*
%FSLAX46Y46*%
G04 Gerber Fmt 4.6, Leading zero omitted, Abs format (unit mm)*
G04 Created by KiCad (PCBNEW (5.1.5)-3) date 2020-04-07 21:38:51*
%MOMM*%
%LPD*%
G04 APERTURE LIST*
%ADD10C,0.120000*%
%ADD11C,0.150000*%
%ADD12C,0.100000*%
%ADD13O,1.702000X2.102000*%
%ADD14R,2.102000X2.102000*%
%ADD15C,3.102000*%
%ADD16O,1.902000X2.702000*%
%ADD17R,1.902000X2.702000*%
%ADD18C,1.702000*%
%ADD19R,1.702000X1.702000*%
%ADD20R,3.602000X3.602000*%
%ADD21O,3.602000X3.602000*%
%ADD22R,1.662000X0.752000*%
%ADD23O,1.702000X1.702000*%
%ADD24O,1.802000X1.802000*%
%ADD25R,1.802000X1.802000*%
%ADD26C,2.202000*%
%ADD27R,3.602000X5.102000*%
%ADD28R,3.102000X3.102000*%
%ADD29R,3.102000X2.602000*%
%ADD30O,1.802000X2.102000*%
%ADD31C,1.902000*%
%ADD32R,1.902000X1.902000*%
G04 APERTURE END LIST*
D10*
X146770000Y-120655000D02*
G75*
G02X144640000Y-122785000I-2130000J0D01*
G01*
X144640000Y-96925000D02*
G75*
G02X146770000Y-99055000I0J-2130000D01*
G01*
X119210000Y-99465000D02*
X112310000Y-99465000D01*
X119210000Y-96925000D02*
X119210000Y-99465000D01*
D11*
G36*
X139065000Y-95885000D02*
G01*
X137795000Y-95885000D01*
X138430000Y-96520000D01*
X139065000Y-95885000D01*
G37*
X139065000Y-95885000D02*
X137795000Y-95885000D01*
X138430000Y-96520000D01*
X139065000Y-95885000D01*
D10*
X146770000Y-120665000D02*
X146770000Y-99055000D01*
X112310000Y-122785000D02*
X144640000Y-122785000D01*
X119210000Y-96925000D02*
X144640000Y-96925000D01*
X112310000Y-99465000D02*
X112310000Y-122785000D01*
X159771000Y-83215241D02*
X160401000Y-83215241D01*
X160086000Y-83530241D02*
X160086000Y-82900241D01*
X161523000Y-76789000D02*
X162327000Y-76789000D01*
X161292000Y-76829000D02*
X162558000Y-76829000D01*
X161123000Y-76869000D02*
X162727000Y-76869000D01*
X160985000Y-76909000D02*
X162865000Y-76909000D01*
X160866000Y-76949000D02*
X162984000Y-76949000D01*
X160760000Y-76989000D02*
X163090000Y-76989000D01*
X160663000Y-77029000D02*
X163187000Y-77029000D01*
X160575000Y-77069000D02*
X163275000Y-77069000D01*
X160493000Y-77109000D02*
X163357000Y-77109000D01*
X160416000Y-77149000D02*
X163434000Y-77149000D01*
X160344000Y-77189000D02*
X163506000Y-77189000D01*
X160275000Y-77229000D02*
X163575000Y-77229000D01*
X160211000Y-77269000D02*
X163639000Y-77269000D01*
X160149000Y-77309000D02*
X163701000Y-77309000D01*
X160091000Y-77349000D02*
X163759000Y-77349000D01*
X160035000Y-77389000D02*
X163815000Y-77389000D01*
X159981000Y-77429000D02*
X163869000Y-77429000D01*
X159930000Y-77469000D02*
X163920000Y-77469000D01*
X159881000Y-77509000D02*
X163969000Y-77509000D01*
X159833000Y-77549000D02*
X164017000Y-77549000D01*
X159788000Y-77589000D02*
X164062000Y-77589000D01*
X159743000Y-77629000D02*
X164107000Y-77629000D01*
X159701000Y-77669000D02*
X164149000Y-77669000D01*
X159660000Y-77709000D02*
X164190000Y-77709000D01*
X162965000Y-77749000D02*
X164230000Y-77749000D01*
X159620000Y-77749000D02*
X160885000Y-77749000D01*
X162965000Y-77789000D02*
X164268000Y-77789000D01*
X159582000Y-77789000D02*
X160885000Y-77789000D01*
X162965000Y-77829000D02*
X164305000Y-77829000D01*
X159545000Y-77829000D02*
X160885000Y-77829000D01*
X162965000Y-77869000D02*
X164341000Y-77869000D01*
X159509000Y-77869000D02*
X160885000Y-77869000D01*
X162965000Y-77909000D02*
X164375000Y-77909000D01*
X159475000Y-77909000D02*
X160885000Y-77909000D01*
X162965000Y-77949000D02*
X164409000Y-77949000D01*
X159441000Y-77949000D02*
X160885000Y-77949000D01*
X162965000Y-77989000D02*
X164441000Y-77989000D01*
X159409000Y-77989000D02*
X160885000Y-77989000D01*
X162965000Y-78029000D02*
X164473000Y-78029000D01*
X159377000Y-78029000D02*
X160885000Y-78029000D01*
X162965000Y-78069000D02*
X164503000Y-78069000D01*
X159347000Y-78069000D02*
X160885000Y-78069000D01*
X162965000Y-78109000D02*
X164532000Y-78109000D01*
X159318000Y-78109000D02*
X160885000Y-78109000D01*
X162965000Y-78149000D02*
X164561000Y-78149000D01*
X159289000Y-78149000D02*
X160885000Y-78149000D01*
X162965000Y-78189000D02*
X164589000Y-78189000D01*
X159261000Y-78189000D02*
X160885000Y-78189000D01*
X162965000Y-78229000D02*
X164615000Y-78229000D01*
X159235000Y-78229000D02*
X160885000Y-78229000D01*
X162965000Y-78269000D02*
X164641000Y-78269000D01*
X159209000Y-78269000D02*
X160885000Y-78269000D01*
X162965000Y-78309000D02*
X164667000Y-78309000D01*
X159183000Y-78309000D02*
X160885000Y-78309000D01*
X162965000Y-78349000D02*
X164691000Y-78349000D01*
X159159000Y-78349000D02*
X160885000Y-78349000D01*
X162965000Y-78389000D02*
X164715000Y-78389000D01*
X159135000Y-78389000D02*
X160885000Y-78389000D01*
X162965000Y-78429000D02*
X164737000Y-78429000D01*
X159113000Y-78429000D02*
X160885000Y-78429000D01*
X162965000Y-78469000D02*
X164759000Y-78469000D01*
X159091000Y-78469000D02*
X160885000Y-78469000D01*
X162965000Y-78509000D02*
X164781000Y-78509000D01*
X159069000Y-78509000D02*
X160885000Y-78509000D01*
X162965000Y-78549000D02*
X164801000Y-78549000D01*
X159049000Y-78549000D02*
X160885000Y-78549000D01*
X162965000Y-78589000D02*
X164821000Y-78589000D01*
X159029000Y-78589000D02*
X160885000Y-78589000D01*
X162965000Y-78629000D02*
X164841000Y-78629000D01*
X159009000Y-78629000D02*
X160885000Y-78629000D01*
X162965000Y-78669000D02*
X164859000Y-78669000D01*
X158991000Y-78669000D02*
X160885000Y-78669000D01*
X162965000Y-78709000D02*
X164877000Y-78709000D01*
X158973000Y-78709000D02*
X160885000Y-78709000D01*
X162965000Y-78749000D02*
X164895000Y-78749000D01*
X158955000Y-78749000D02*
X160885000Y-78749000D01*
X162965000Y-78789000D02*
X164911000Y-78789000D01*
X158939000Y-78789000D02*
X160885000Y-78789000D01*
X162965000Y-78829000D02*
X164927000Y-78829000D01*
X158923000Y-78829000D02*
X160885000Y-78829000D01*
X162965000Y-78869000D02*
X164943000Y-78869000D01*
X158907000Y-78869000D02*
X160885000Y-78869000D01*
X162965000Y-78909000D02*
X164958000Y-78909000D01*
X158892000Y-78909000D02*
X160885000Y-78909000D01*
X162965000Y-78949000D02*
X164972000Y-78949000D01*
X158878000Y-78949000D02*
X160885000Y-78949000D01*
X162965000Y-78989000D02*
X164986000Y-78989000D01*
X158864000Y-78989000D02*
X160885000Y-78989000D01*
X162965000Y-79029000D02*
X164999000Y-79029000D01*
X158851000Y-79029000D02*
X160885000Y-79029000D01*
X162965000Y-79069000D02*
X165011000Y-79069000D01*
X158839000Y-79069000D02*
X160885000Y-79069000D01*
X162965000Y-79109000D02*
X165023000Y-79109000D01*
X158827000Y-79109000D02*
X160885000Y-79109000D01*
X162965000Y-79149000D02*
X165035000Y-79149000D01*
X158815000Y-79149000D02*
X160885000Y-79149000D01*
X162965000Y-79189000D02*
X165046000Y-79189000D01*
X158804000Y-79189000D02*
X160885000Y-79189000D01*
X162965000Y-79229000D02*
X165056000Y-79229000D01*
X158794000Y-79229000D02*
X160885000Y-79229000D01*
X162965000Y-79269000D02*
X165066000Y-79269000D01*
X158784000Y-79269000D02*
X160885000Y-79269000D01*
X162965000Y-79309000D02*
X165075000Y-79309000D01*
X158775000Y-79309000D02*
X160885000Y-79309000D01*
X162965000Y-79350000D02*
X165084000Y-79350000D01*
X158766000Y-79350000D02*
X160885000Y-79350000D01*
X162965000Y-79390000D02*
X165092000Y-79390000D01*
X158758000Y-79390000D02*
X160885000Y-79390000D01*
X162965000Y-79430000D02*
X165100000Y-79430000D01*
X158750000Y-79430000D02*
X160885000Y-79430000D01*
X162965000Y-79470000D02*
X165107000Y-79470000D01*
X158743000Y-79470000D02*
X160885000Y-79470000D01*
X162965000Y-79510000D02*
X165114000Y-79510000D01*
X158736000Y-79510000D02*
X160885000Y-79510000D01*
X162965000Y-79550000D02*
X165120000Y-79550000D01*
X158730000Y-79550000D02*
X160885000Y-79550000D01*
X162965000Y-79590000D02*
X165126000Y-79590000D01*
X158724000Y-79590000D02*
X160885000Y-79590000D01*
X162965000Y-79630000D02*
X165131000Y-79630000D01*
X158719000Y-79630000D02*
X160885000Y-79630000D01*
X162965000Y-79670000D02*
X165136000Y-79670000D01*
X158714000Y-79670000D02*
X160885000Y-79670000D01*
X162965000Y-79710000D02*
X165140000Y-79710000D01*
X158710000Y-79710000D02*
X160885000Y-79710000D01*
X162965000Y-79750000D02*
X165143000Y-79750000D01*
X158707000Y-79750000D02*
X160885000Y-79750000D01*
X162965000Y-79790000D02*
X165147000Y-79790000D01*
X158703000Y-79790000D02*
X160885000Y-79790000D01*
X158701000Y-79830000D02*
X165149000Y-79830000D01*
X158698000Y-79870000D02*
X165152000Y-79870000D01*
X158697000Y-79910000D02*
X165153000Y-79910000D01*
X158695000Y-79950000D02*
X165155000Y-79950000D01*
X158695000Y-79990000D02*
X165155000Y-79990000D01*
X158695000Y-80030000D02*
X165155000Y-80030000D01*
X165195000Y-80030000D02*
G75*
G03X165195000Y-80030000I-3270000J0D01*
G01*
X113206000Y-143382000D02*
X113206000Y-134112000D01*
X117426000Y-143382000D02*
X117426000Y-134112000D01*
X113206000Y-143382000D02*
X117426000Y-143382000D01*
X113206000Y-134112000D02*
X117426000Y-134112000D01*
X114506000Y-143382000D02*
X116126000Y-143382000D01*
X139076000Y-126406000D02*
X136126000Y-126406000D01*
X137276000Y-129626000D02*
X139076000Y-129626000D01*
X130556000Y-136882000D02*
X130556000Y-136112000D01*
X130556000Y-128802000D02*
X130556000Y-129572000D01*
X131926000Y-136112000D02*
X131926000Y-129572000D01*
X129186000Y-136112000D02*
X131926000Y-136112000D01*
X129186000Y-129572000D02*
X129186000Y-136112000D01*
X131926000Y-129572000D02*
X129186000Y-129572000D01*
D11*
X165750000Y-97410000D02*
X162750000Y-97410000D01*
X165750000Y-100910000D02*
X162750000Y-100910000D01*
X162750000Y-100910000D02*
X164250000Y-97410000D01*
X164250000Y-97410000D02*
X165750000Y-100910000D01*
X167250000Y-88410000D02*
G75*
G03X164750000Y-85910000I-2500000J0D01*
G01*
X164750000Y-121910000D02*
G75*
G03X167250000Y-119410000I0J2500000D01*
G01*
X150250000Y-119410000D02*
G75*
G03X152750000Y-121910000I2500000J0D01*
G01*
X152750000Y-85910000D02*
G75*
G03X150250000Y-88410000I0J-2500000D01*
G01*
X150250000Y-88410000D02*
X150250000Y-119410000D01*
X167250000Y-119410000D02*
X167250000Y-88410000D01*
X152750000Y-121910000D02*
X164750000Y-121910000D01*
X164750000Y-85910000D02*
X152750000Y-85910000D01*
X188790000Y-127750000D02*
X162800000Y-127750000D01*
X188800000Y-144750000D02*
X162800000Y-144750000D01*
X189370000Y-132990000D02*
X189370000Y-139540000D01*
X189356000Y-132962000D02*
X188848000Y-132962000D01*
X188848000Y-132962000D02*
X188594000Y-133470000D01*
X188594000Y-133470000D02*
X188340000Y-133470000D01*
X189356000Y-139566000D02*
X188848000Y-139566000D01*
X188848000Y-139566000D02*
X188594000Y-139058000D01*
X188594000Y-139058000D02*
X183768000Y-139058000D01*
X183768000Y-139058000D02*
X183768000Y-133470000D01*
X183768000Y-133470000D02*
X188340000Y-133470000D01*
X188796000Y-127750000D02*
X188796000Y-144750000D01*
X162794000Y-144750000D02*
X162794000Y-127750000D01*
D10*
X126690000Y-142665000D02*
X126690000Y-143915000D01*
X127940000Y-142665000D02*
X126690000Y-142665000D01*
X133840000Y-148165000D02*
X130790000Y-148165000D01*
X133840000Y-145215000D02*
X133840000Y-148165000D01*
X134590000Y-145215000D02*
X133840000Y-145215000D01*
X127740000Y-148165000D02*
X130790000Y-148165000D01*
X127740000Y-145215000D02*
X127740000Y-148165000D01*
X126990000Y-145215000D02*
X127740000Y-145215000D01*
X134590000Y-142965000D02*
X132790000Y-142965000D01*
X134590000Y-143715000D02*
X134590000Y-142965000D01*
X132790000Y-143715000D02*
X134590000Y-143715000D01*
X132790000Y-142965000D02*
X132790000Y-143715000D01*
X128790000Y-142965000D02*
X126990000Y-142965000D01*
X128790000Y-143715000D02*
X128790000Y-142965000D01*
X126990000Y-143715000D02*
X128790000Y-143715000D01*
X126990000Y-142965000D02*
X126990000Y-143715000D01*
X131290000Y-142965000D02*
X130290000Y-142965000D01*
X131290000Y-143715000D02*
X131290000Y-142965000D01*
X130290000Y-143715000D02*
X131290000Y-143715000D01*
X130290000Y-142965000D02*
X130290000Y-143715000D01*
X134600000Y-142955000D02*
X126980000Y-142955000D01*
X134600000Y-148925000D02*
X134600000Y-142955000D01*
X126980000Y-148925000D02*
X134600000Y-148925000D01*
X126980000Y-142955000D02*
X126980000Y-148925000D01*
X173835000Y-85785000D02*
X173835000Y-84455000D01*
X175165000Y-85785000D02*
X173835000Y-85785000D01*
X176435000Y-85785000D02*
X176435000Y-83125000D01*
X176435000Y-83125000D02*
X184115000Y-83125000D01*
X176435000Y-85785000D02*
X184115000Y-85785000D01*
X184115000Y-85785000D02*
X184115000Y-83125000D01*
X170025000Y-83760000D02*
X171355000Y-83760000D01*
X170025000Y-85090000D02*
X170025000Y-83760000D01*
X170025000Y-86360000D02*
X172685000Y-86360000D01*
X172685000Y-86360000D02*
X172685000Y-124520000D01*
X170025000Y-86360000D02*
X170025000Y-124520000D01*
X170025000Y-124520000D02*
X172685000Y-124520000D01*
X128270000Y-82320000D02*
X128270000Y-83090000D01*
X128270000Y-90400000D02*
X128270000Y-89630000D01*
X126900000Y-83090000D02*
X126900000Y-89630000D01*
X129640000Y-83090000D02*
X126900000Y-83090000D01*
X129640000Y-89630000D02*
X129640000Y-83090000D01*
X126900000Y-89630000D02*
X129640000Y-89630000D01*
X121920000Y-82320000D02*
X121920000Y-83090000D01*
X121920000Y-90400000D02*
X121920000Y-89630000D01*
X120550000Y-83090000D02*
X120550000Y-89630000D01*
X123290000Y-83090000D02*
X120550000Y-83090000D01*
X123290000Y-89630000D02*
X123290000Y-83090000D01*
X120550000Y-89630000D02*
X123290000Y-89630000D01*
X115570000Y-82320000D02*
X115570000Y-83090000D01*
X115570000Y-90400000D02*
X115570000Y-89630000D01*
X114200000Y-83090000D02*
X114200000Y-89630000D01*
X116940000Y-83090000D02*
X114200000Y-83090000D01*
X116940000Y-89630000D02*
X116940000Y-83090000D01*
X114200000Y-89630000D02*
X116940000Y-89630000D01*
X134620000Y-82320000D02*
X134620000Y-83090000D01*
X134620000Y-90400000D02*
X134620000Y-89630000D01*
X133250000Y-83090000D02*
X133250000Y-89630000D01*
X135990000Y-83090000D02*
X133250000Y-83090000D01*
X135990000Y-89630000D02*
X135990000Y-83090000D01*
X133250000Y-89630000D02*
X135990000Y-89630000D01*
X125730000Y-128675000D02*
X125730000Y-129445000D01*
X125730000Y-136755000D02*
X125730000Y-135985000D01*
X124360000Y-129445000D02*
X124360000Y-135985000D01*
X127100000Y-129445000D02*
X124360000Y-129445000D01*
X127100000Y-135985000D02*
X127100000Y-129445000D01*
X124360000Y-135985000D02*
X127100000Y-135985000D01*
D11*
X110882380Y-121186904D02*
X111691904Y-121186904D01*
X111787142Y-121139285D01*
X111834761Y-121091666D01*
X111882380Y-120996428D01*
X111882380Y-120805952D01*
X111834761Y-120710714D01*
X111787142Y-120663095D01*
X111691904Y-120615476D01*
X110882380Y-120615476D01*
X110882380Y-120234523D02*
X110882380Y-119615476D01*
X111263333Y-119948809D01*
X111263333Y-119805952D01*
X111310952Y-119710714D01*
X111358571Y-119663095D01*
X111453809Y-119615476D01*
X111691904Y-119615476D01*
X111787142Y-119663095D01*
X111834761Y-119710714D01*
X111882380Y-119805952D01*
X111882380Y-120091666D01*
X111834761Y-120186904D01*
X111787142Y-120234523D01*
X127087380Y-115744047D02*
X128087380Y-115505952D01*
X127373095Y-115315476D01*
X128087380Y-115125000D01*
X127087380Y-114886904D01*
X128039761Y-114125000D02*
X128087380Y-114220238D01*
X128087380Y-114410714D01*
X128039761Y-114505952D01*
X127944523Y-114553571D01*
X127563571Y-114553571D01*
X127468333Y-114505952D01*
X127420714Y-114410714D01*
X127420714Y-114220238D01*
X127468333Y-114125000D01*
X127563571Y-114077380D01*
X127658809Y-114077380D01*
X127754047Y-114553571D01*
X128087380Y-113648809D02*
X127087380Y-113648809D01*
X127801666Y-113315476D01*
X127087380Y-112982142D01*
X128087380Y-112982142D01*
X128087380Y-112363095D02*
X128039761Y-112458333D01*
X127992142Y-112505952D01*
X127896904Y-112553571D01*
X127611190Y-112553571D01*
X127515952Y-112505952D01*
X127468333Y-112458333D01*
X127420714Y-112363095D01*
X127420714Y-112220238D01*
X127468333Y-112125000D01*
X127515952Y-112077380D01*
X127611190Y-112029761D01*
X127896904Y-112029761D01*
X127992142Y-112077380D01*
X128039761Y-112125000D01*
X128087380Y-112220238D01*
X128087380Y-112363095D01*
X128039761Y-111648809D02*
X128087380Y-111553571D01*
X128087380Y-111363095D01*
X128039761Y-111267857D01*
X127944523Y-111220238D01*
X127896904Y-111220238D01*
X127801666Y-111267857D01*
X127754047Y-111363095D01*
X127754047Y-111505952D01*
X127706428Y-111601190D01*
X127611190Y-111648809D01*
X127563571Y-111648809D01*
X127468333Y-111601190D01*
X127420714Y-111505952D01*
X127420714Y-111363095D01*
X127468333Y-111267857D01*
X128182619Y-111029761D02*
X128182619Y-110267857D01*
X128087380Y-110029761D02*
X127087380Y-110029761D01*
X127087380Y-109791666D01*
X127135000Y-109648809D01*
X127230238Y-109553571D01*
X127325476Y-109505952D01*
X127515952Y-109458333D01*
X127658809Y-109458333D01*
X127849285Y-109505952D01*
X127944523Y-109553571D01*
X128039761Y-109648809D01*
X128087380Y-109791666D01*
X128087380Y-110029761D01*
X128087380Y-108505952D02*
X128087380Y-109077380D01*
X128087380Y-108791666D02*
X127087380Y-108791666D01*
X127230238Y-108886904D01*
X127325476Y-108982142D01*
X127373095Y-109077380D01*
X128182619Y-108315476D02*
X128182619Y-107553571D01*
X128087380Y-107315476D02*
X127420714Y-107315476D01*
X127515952Y-107315476D02*
X127468333Y-107267857D01*
X127420714Y-107172619D01*
X127420714Y-107029761D01*
X127468333Y-106934523D01*
X127563571Y-106886904D01*
X128087380Y-106886904D01*
X127563571Y-106886904D02*
X127468333Y-106839285D01*
X127420714Y-106744047D01*
X127420714Y-106601190D01*
X127468333Y-106505952D01*
X127563571Y-106458333D01*
X128087380Y-106458333D01*
X128087380Y-105982142D02*
X127420714Y-105982142D01*
X127087380Y-105982142D02*
X127135000Y-106029761D01*
X127182619Y-105982142D01*
X127135000Y-105934523D01*
X127087380Y-105982142D01*
X127182619Y-105982142D01*
X127420714Y-105505952D02*
X128087380Y-105505952D01*
X127515952Y-105505952D02*
X127468333Y-105458333D01*
X127420714Y-105363095D01*
X127420714Y-105220238D01*
X127468333Y-105125000D01*
X127563571Y-105077380D01*
X128087380Y-105077380D01*
X128087380Y-104601190D02*
X127420714Y-104601190D01*
X127087380Y-104601190D02*
X127135000Y-104648809D01*
X127182619Y-104601190D01*
X127135000Y-104553571D01*
X127087380Y-104601190D01*
X127182619Y-104601190D01*
X157882142Y-80196666D02*
X157929761Y-80244285D01*
X157977380Y-80387142D01*
X157977380Y-80482380D01*
X157929761Y-80625238D01*
X157834523Y-80720476D01*
X157739285Y-80768095D01*
X157548809Y-80815714D01*
X157405952Y-80815714D01*
X157215476Y-80768095D01*
X157120238Y-80720476D01*
X157025000Y-80625238D01*
X156977380Y-80482380D01*
X156977380Y-80387142D01*
X157025000Y-80244285D01*
X157072619Y-80196666D01*
X157977380Y-79244285D02*
X157977380Y-79815714D01*
X157977380Y-79530000D02*
X156977380Y-79530000D01*
X157120238Y-79625238D01*
X157215476Y-79720476D01*
X157263095Y-79815714D01*
X112610761Y-139255333D02*
X112658380Y-139112476D01*
X112658380Y-138874380D01*
X112610761Y-138779142D01*
X112563142Y-138731523D01*
X112467904Y-138683904D01*
X112372666Y-138683904D01*
X112277428Y-138731523D01*
X112229809Y-138779142D01*
X112182190Y-138874380D01*
X112134571Y-139064857D01*
X112086952Y-139160095D01*
X112039333Y-139207714D01*
X111944095Y-139255333D01*
X111848857Y-139255333D01*
X111753619Y-139207714D01*
X111706000Y-139160095D01*
X111658380Y-139064857D01*
X111658380Y-138826761D01*
X111706000Y-138683904D01*
X111658380Y-138350571D02*
X112658380Y-138112476D01*
X111944095Y-137922000D01*
X112658380Y-137731523D01*
X111658380Y-137493428D01*
X112658380Y-136588666D02*
X112658380Y-137160095D01*
X112658380Y-136874380D02*
X111658380Y-136874380D01*
X111801238Y-136969619D01*
X111896476Y-137064857D01*
X111944095Y-137160095D01*
X137414095Y-124568380D02*
X137414095Y-125377904D01*
X137461714Y-125473142D01*
X137509333Y-125520761D01*
X137604571Y-125568380D01*
X137795047Y-125568380D01*
X137890285Y-125520761D01*
X137937904Y-125473142D01*
X137985523Y-125377904D01*
X137985523Y-124568380D01*
X138890285Y-124901714D02*
X138890285Y-125568380D01*
X138652190Y-124520761D02*
X138414095Y-125235047D01*
X139033142Y-125235047D01*
X133378380Y-133008666D02*
X132902190Y-133342000D01*
X133378380Y-133580095D02*
X132378380Y-133580095D01*
X132378380Y-133199142D01*
X132426000Y-133103904D01*
X132473619Y-133056285D01*
X132568857Y-133008666D01*
X132711714Y-133008666D01*
X132806952Y-133056285D01*
X132854571Y-133103904D01*
X132902190Y-133199142D01*
X132902190Y-133580095D01*
X132378380Y-132151523D02*
X132378380Y-132342000D01*
X132426000Y-132437238D01*
X132473619Y-132484857D01*
X132616476Y-132580095D01*
X132806952Y-132627714D01*
X133187904Y-132627714D01*
X133283142Y-132580095D01*
X133330761Y-132532476D01*
X133378380Y-132437238D01*
X133378380Y-132246761D01*
X133330761Y-132151523D01*
X133283142Y-132103904D01*
X133187904Y-132056285D01*
X132949809Y-132056285D01*
X132854571Y-132103904D01*
X132806952Y-132151523D01*
X132759333Y-132246761D01*
X132759333Y-132437238D01*
X132806952Y-132532476D01*
X132854571Y-132580095D01*
X132949809Y-132627714D01*
X156932380Y-106421904D02*
X157741904Y-106421904D01*
X157837142Y-106374285D01*
X157884761Y-106326666D01*
X157932380Y-106231428D01*
X157932380Y-106040952D01*
X157884761Y-105945714D01*
X157837142Y-105898095D01*
X157741904Y-105850476D01*
X156932380Y-105850476D01*
X157027619Y-105421904D02*
X156980000Y-105374285D01*
X156932380Y-105279047D01*
X156932380Y-105040952D01*
X156980000Y-104945714D01*
X157027619Y-104898095D01*
X157122857Y-104850476D01*
X157218095Y-104850476D01*
X157360952Y-104898095D01*
X157932380Y-105469523D01*
X157932380Y-104850476D01*
X160202380Y-108029047D02*
X159202380Y-108029047D01*
X159916666Y-107695714D01*
X159202380Y-107362380D01*
X160202380Y-107362380D01*
X159202380Y-107029047D02*
X159202380Y-106457619D01*
X160202380Y-106743333D02*
X159202380Y-106743333D01*
X159202380Y-106219523D02*
X159202380Y-105600476D01*
X159583333Y-105933809D01*
X159583333Y-105790952D01*
X159630952Y-105695714D01*
X159678571Y-105648095D01*
X159773809Y-105600476D01*
X160011904Y-105600476D01*
X160107142Y-105648095D01*
X160154761Y-105695714D01*
X160202380Y-105790952D01*
X160202380Y-106076666D01*
X160154761Y-106171904D01*
X160107142Y-106219523D01*
X159202380Y-104743333D02*
X159202380Y-104933809D01*
X159250000Y-105029047D01*
X159297619Y-105076666D01*
X159440476Y-105171904D01*
X159630952Y-105219523D01*
X160011904Y-105219523D01*
X160107142Y-105171904D01*
X160154761Y-105124285D01*
X160202380Y-105029047D01*
X160202380Y-104838571D01*
X160154761Y-104743333D01*
X160107142Y-104695714D01*
X160011904Y-104648095D01*
X159773809Y-104648095D01*
X159678571Y-104695714D01*
X159630952Y-104743333D01*
X159583333Y-104838571D01*
X159583333Y-105029047D01*
X159630952Y-105124285D01*
X159678571Y-105171904D01*
X159773809Y-105219523D01*
X159202380Y-104029047D02*
X159202380Y-103933809D01*
X159250000Y-103838571D01*
X159297619Y-103790952D01*
X159392857Y-103743333D01*
X159583333Y-103695714D01*
X159821428Y-103695714D01*
X160011904Y-103743333D01*
X160107142Y-103790952D01*
X160154761Y-103838571D01*
X160202380Y-103933809D01*
X160202380Y-104029047D01*
X160154761Y-104124285D01*
X160107142Y-104171904D01*
X160011904Y-104219523D01*
X159821428Y-104267142D01*
X159583333Y-104267142D01*
X159392857Y-104219523D01*
X159297619Y-104171904D01*
X159250000Y-104124285D01*
X159202380Y-104029047D01*
X159630952Y-103124285D02*
X159583333Y-103219523D01*
X159535714Y-103267142D01*
X159440476Y-103314761D01*
X159392857Y-103314761D01*
X159297619Y-103267142D01*
X159250000Y-103219523D01*
X159202380Y-103124285D01*
X159202380Y-102933809D01*
X159250000Y-102838571D01*
X159297619Y-102790952D01*
X159392857Y-102743333D01*
X159440476Y-102743333D01*
X159535714Y-102790952D01*
X159583333Y-102838571D01*
X159630952Y-102933809D01*
X159630952Y-103124285D01*
X159678571Y-103219523D01*
X159726190Y-103267142D01*
X159821428Y-103314761D01*
X160011904Y-103314761D01*
X160107142Y-103267142D01*
X160154761Y-103219523D01*
X160202380Y-103124285D01*
X160202380Y-102933809D01*
X160154761Y-102838571D01*
X160107142Y-102790952D01*
X160011904Y-102743333D01*
X159821428Y-102743333D01*
X159726190Y-102790952D01*
X159678571Y-102838571D01*
X159630952Y-102933809D01*
X151702380Y-91790952D02*
X152702380Y-91457619D01*
X151702380Y-91124285D01*
X151702380Y-90600476D02*
X151702380Y-90410000D01*
X151750000Y-90314761D01*
X151845238Y-90219523D01*
X152035714Y-90171904D01*
X152369047Y-90171904D01*
X152559523Y-90219523D01*
X152654761Y-90314761D01*
X152702380Y-90410000D01*
X152702380Y-90600476D01*
X152654761Y-90695714D01*
X152559523Y-90790952D01*
X152369047Y-90838571D01*
X152035714Y-90838571D01*
X151845238Y-90790952D01*
X151750000Y-90695714D01*
X151702380Y-90600476D01*
X151702380Y-89743333D02*
X152511904Y-89743333D01*
X152607142Y-89695714D01*
X152654761Y-89648095D01*
X152702380Y-89552857D01*
X152702380Y-89362380D01*
X152654761Y-89267142D01*
X152607142Y-89219523D01*
X152511904Y-89171904D01*
X151702380Y-89171904D01*
X151702380Y-88838571D02*
X151702380Y-88267142D01*
X152702380Y-88552857D02*
X151702380Y-88552857D01*
X152321428Y-87933809D02*
X152321428Y-87171904D01*
X164702380Y-121124285D02*
X165702380Y-120790952D01*
X164702380Y-120457619D01*
X165702380Y-120124285D02*
X164702380Y-120124285D01*
X165702380Y-119648095D02*
X164702380Y-119648095D01*
X165702380Y-119076666D01*
X164702380Y-119076666D01*
X165321428Y-118600476D02*
X165321428Y-117838571D01*
X165702380Y-118219523D02*
X164940476Y-118219523D01*
X151702380Y-121124285D02*
X152702380Y-120790952D01*
X151702380Y-120457619D01*
X152702380Y-120124285D02*
X151702380Y-120124285D01*
X152702380Y-119648095D02*
X151702380Y-119648095D01*
X152702380Y-119076666D01*
X151702380Y-119076666D01*
X152321428Y-118600476D02*
X152321428Y-117838571D01*
X164702380Y-91790952D02*
X165702380Y-91457619D01*
X164702380Y-91124285D01*
X164702380Y-90600476D02*
X164702380Y-90410000D01*
X164750000Y-90314761D01*
X164845238Y-90219523D01*
X165035714Y-90171904D01*
X165369047Y-90171904D01*
X165559523Y-90219523D01*
X165654761Y-90314761D01*
X165702380Y-90410000D01*
X165702380Y-90600476D01*
X165654761Y-90695714D01*
X165559523Y-90790952D01*
X165369047Y-90838571D01*
X165035714Y-90838571D01*
X164845238Y-90790952D01*
X164750000Y-90695714D01*
X164702380Y-90600476D01*
X164702380Y-89743333D02*
X165511904Y-89743333D01*
X165607142Y-89695714D01*
X165654761Y-89648095D01*
X165702380Y-89552857D01*
X165702380Y-89362380D01*
X165654761Y-89267142D01*
X165607142Y-89219523D01*
X165511904Y-89171904D01*
X164702380Y-89171904D01*
X164702380Y-88838571D02*
X164702380Y-88267142D01*
X165702380Y-88552857D02*
X164702380Y-88552857D01*
X165321428Y-87933809D02*
X165321428Y-87171904D01*
X165702380Y-87552857D02*
X164940476Y-87552857D01*
X174103095Y-133797380D02*
X174103095Y-134606904D01*
X174150714Y-134702142D01*
X174198333Y-134749761D01*
X174293571Y-134797380D01*
X174484047Y-134797380D01*
X174579285Y-134749761D01*
X174626904Y-134702142D01*
X174674523Y-134606904D01*
X174674523Y-133797380D01*
X175674523Y-134797380D02*
X175103095Y-134797380D01*
X175388809Y-134797380D02*
X175388809Y-133797380D01*
X175293571Y-133940238D01*
X175198333Y-134035476D01*
X175103095Y-134083095D01*
X172174523Y-137607380D02*
X172745952Y-137607380D01*
X172460238Y-138607380D02*
X172460238Y-137607380D01*
X173079285Y-138607380D02*
X173079285Y-137607380D01*
X173460238Y-137607380D01*
X173555476Y-137655000D01*
X173603095Y-137702619D01*
X173650714Y-137797857D01*
X173650714Y-137940714D01*
X173603095Y-138035952D01*
X173555476Y-138083571D01*
X173460238Y-138131190D01*
X173079285Y-138131190D01*
X174507857Y-137940714D02*
X174507857Y-138607380D01*
X174269761Y-137559761D02*
X174031666Y-138274047D01*
X174650714Y-138274047D01*
X175222142Y-137607380D02*
X175317380Y-137607380D01*
X175412619Y-137655000D01*
X175460238Y-137702619D01*
X175507857Y-137797857D01*
X175555476Y-137988333D01*
X175555476Y-138226428D01*
X175507857Y-138416904D01*
X175460238Y-138512142D01*
X175412619Y-138559761D01*
X175317380Y-138607380D01*
X175222142Y-138607380D01*
X175126904Y-138559761D01*
X175079285Y-138512142D01*
X175031666Y-138416904D01*
X174984047Y-138226428D01*
X174984047Y-137988333D01*
X175031666Y-137797857D01*
X175079285Y-137702619D01*
X175126904Y-137655000D01*
X175222142Y-137607380D01*
X176460238Y-137607380D02*
X175984047Y-137607380D01*
X175936428Y-138083571D01*
X175984047Y-138035952D01*
X176079285Y-137988333D01*
X176317380Y-137988333D01*
X176412619Y-138035952D01*
X176460238Y-138083571D01*
X176507857Y-138178809D01*
X176507857Y-138416904D01*
X176460238Y-138512142D01*
X176412619Y-138559761D01*
X176317380Y-138607380D01*
X176079285Y-138607380D01*
X175984047Y-138559761D01*
X175936428Y-138512142D01*
X177365000Y-137607380D02*
X177174523Y-137607380D01*
X177079285Y-137655000D01*
X177031666Y-137702619D01*
X176936428Y-137845476D01*
X176888809Y-138035952D01*
X176888809Y-138416904D01*
X176936428Y-138512142D01*
X176984047Y-138559761D01*
X177079285Y-138607380D01*
X177269761Y-138607380D01*
X177365000Y-138559761D01*
X177412619Y-138512142D01*
X177460238Y-138416904D01*
X177460238Y-138178809D01*
X177412619Y-138083571D01*
X177365000Y-138035952D01*
X177269761Y-137988333D01*
X177079285Y-137988333D01*
X176984047Y-138035952D01*
X176936428Y-138083571D01*
X176888809Y-138178809D01*
X181680857Y-136716380D02*
X181680857Y-136049714D01*
X181680857Y-136144952D02*
X181728476Y-136097333D01*
X181823714Y-136049714D01*
X181966571Y-136049714D01*
X182061809Y-136097333D01*
X182109428Y-136192571D01*
X182109428Y-136716380D01*
X182109428Y-136192571D02*
X182157047Y-136097333D01*
X182252285Y-136049714D01*
X182395142Y-136049714D01*
X182490380Y-136097333D01*
X182538000Y-136192571D01*
X182538000Y-136716380D01*
X183014190Y-136716380D02*
X183014190Y-136049714D01*
X183014190Y-135716380D02*
X182966571Y-135764000D01*
X183014190Y-135811619D01*
X183061809Y-135764000D01*
X183014190Y-135716380D01*
X183014190Y-135811619D01*
X183918952Y-136668761D02*
X183823714Y-136716380D01*
X183633238Y-136716380D01*
X183538000Y-136668761D01*
X183490380Y-136621142D01*
X183442761Y-136525904D01*
X183442761Y-136240190D01*
X183490380Y-136144952D01*
X183538000Y-136097333D01*
X183633238Y-136049714D01*
X183823714Y-136049714D01*
X183918952Y-136097333D01*
X184347523Y-136716380D02*
X184347523Y-136049714D01*
X184347523Y-136240190D02*
X184395142Y-136144952D01*
X184442761Y-136097333D01*
X184538000Y-136049714D01*
X184633238Y-136049714D01*
X185109428Y-136716380D02*
X185014190Y-136668761D01*
X184966571Y-136621142D01*
X184918952Y-136525904D01*
X184918952Y-136240190D01*
X184966571Y-136144952D01*
X185014190Y-136097333D01*
X185109428Y-136049714D01*
X185252285Y-136049714D01*
X185347523Y-136097333D01*
X185395142Y-136144952D01*
X185442761Y-136240190D01*
X185442761Y-136525904D01*
X185395142Y-136621142D01*
X185347523Y-136668761D01*
X185252285Y-136716380D01*
X185109428Y-136716380D01*
X185871333Y-135716380D02*
X185871333Y-136525904D01*
X185918952Y-136621142D01*
X185966571Y-136668761D01*
X186061809Y-136716380D01*
X186252285Y-136716380D01*
X186347523Y-136668761D01*
X186395142Y-136621142D01*
X186442761Y-136525904D01*
X186442761Y-135716380D01*
X186871333Y-136668761D02*
X187014190Y-136716380D01*
X187252285Y-136716380D01*
X187347523Y-136668761D01*
X187395142Y-136621142D01*
X187442761Y-136525904D01*
X187442761Y-136430666D01*
X187395142Y-136335428D01*
X187347523Y-136287809D01*
X187252285Y-136240190D01*
X187061809Y-136192571D01*
X186966571Y-136144952D01*
X186918952Y-136097333D01*
X186871333Y-136002095D01*
X186871333Y-135906857D01*
X186918952Y-135811619D01*
X186966571Y-135764000D01*
X187061809Y-135716380D01*
X187299904Y-135716380D01*
X187442761Y-135764000D01*
X188204666Y-136192571D02*
X188347523Y-136240190D01*
X188395142Y-136287809D01*
X188442761Y-136383047D01*
X188442761Y-136525904D01*
X188395142Y-136621142D01*
X188347523Y-136668761D01*
X188252285Y-136716380D01*
X187871333Y-136716380D01*
X187871333Y-135716380D01*
X188204666Y-135716380D01*
X188299904Y-135764000D01*
X188347523Y-135811619D01*
X188395142Y-135906857D01*
X188395142Y-136002095D01*
X188347523Y-136097333D01*
X188299904Y-136144952D01*
X188204666Y-136192571D01*
X187871333Y-136192571D01*
X164278380Y-134888571D02*
X164421238Y-134936190D01*
X164468857Y-134983809D01*
X164516476Y-135079047D01*
X164516476Y-135221904D01*
X164468857Y-135317142D01*
X164421238Y-135364761D01*
X164326000Y-135412380D01*
X163945047Y-135412380D01*
X163945047Y-134412380D01*
X164278380Y-134412380D01*
X164373619Y-134460000D01*
X164421238Y-134507619D01*
X164468857Y-134602857D01*
X164468857Y-134698095D01*
X164421238Y-134793333D01*
X164373619Y-134840952D01*
X164278380Y-134888571D01*
X163945047Y-134888571D01*
X164945047Y-135031428D02*
X165706952Y-135031428D01*
X164278380Y-138190571D02*
X164421238Y-138238190D01*
X164468857Y-138285809D01*
X164516476Y-138381047D01*
X164516476Y-138523904D01*
X164468857Y-138619142D01*
X164421238Y-138666761D01*
X164326000Y-138714380D01*
X163945047Y-138714380D01*
X163945047Y-137714380D01*
X164278380Y-137714380D01*
X164373619Y-137762000D01*
X164421238Y-137809619D01*
X164468857Y-137904857D01*
X164468857Y-138000095D01*
X164421238Y-138095333D01*
X164373619Y-138142952D01*
X164278380Y-138190571D01*
X163945047Y-138190571D01*
X164945047Y-138333428D02*
X165706952Y-138333428D01*
X165326000Y-138714380D02*
X165326000Y-137952476D01*
X166690952Y-129146380D02*
X166881428Y-129146380D01*
X166976666Y-129194000D01*
X167071904Y-129289238D01*
X167119523Y-129479714D01*
X167119523Y-129813047D01*
X167071904Y-130003523D01*
X166976666Y-130098761D01*
X166881428Y-130146380D01*
X166690952Y-130146380D01*
X166595714Y-130098761D01*
X166500476Y-130003523D01*
X166452857Y-129813047D01*
X166452857Y-129479714D01*
X166500476Y-129289238D01*
X166595714Y-129194000D01*
X166690952Y-129146380D01*
X167548095Y-129146380D02*
X167548095Y-129955904D01*
X167595714Y-130051142D01*
X167643333Y-130098761D01*
X167738571Y-130146380D01*
X167929047Y-130146380D01*
X168024285Y-130098761D01*
X168071904Y-130051142D01*
X168119523Y-129955904D01*
X168119523Y-129146380D01*
X168452857Y-129146380D02*
X169024285Y-129146380D01*
X168738571Y-130146380D02*
X168738571Y-129146380D01*
X169357619Y-129765428D02*
X170119523Y-129765428D01*
X167010952Y-142050380D02*
X167201428Y-142050380D01*
X167296666Y-142098000D01*
X167391904Y-142193238D01*
X167439523Y-142383714D01*
X167439523Y-142717047D01*
X167391904Y-142907523D01*
X167296666Y-143002761D01*
X167201428Y-143050380D01*
X167010952Y-143050380D01*
X166915714Y-143002761D01*
X166820476Y-142907523D01*
X166772857Y-142717047D01*
X166772857Y-142383714D01*
X166820476Y-142193238D01*
X166915714Y-142098000D01*
X167010952Y-142050380D01*
X167868095Y-142050380D02*
X167868095Y-142859904D01*
X167915714Y-142955142D01*
X167963333Y-143002761D01*
X168058571Y-143050380D01*
X168249047Y-143050380D01*
X168344285Y-143002761D01*
X168391904Y-142955142D01*
X168439523Y-142859904D01*
X168439523Y-142050380D01*
X168772857Y-142050380D02*
X169344285Y-142050380D01*
X169058571Y-143050380D02*
X169058571Y-142050380D01*
X169677619Y-142669428D02*
X170439523Y-142669428D01*
X170058571Y-143050380D02*
X170058571Y-142288476D01*
X181257142Y-129942380D02*
X181257142Y-128942380D01*
X181733333Y-129942380D02*
X181733333Y-128942380D01*
X182304761Y-129942380D01*
X182304761Y-128942380D01*
X182780952Y-129561428D02*
X183542857Y-129561428D01*
X181787142Y-142832380D02*
X181787142Y-141832380D01*
X182263333Y-142832380D02*
X182263333Y-141832380D01*
X182834761Y-142832380D01*
X182834761Y-141832380D01*
X183310952Y-142451428D02*
X184072857Y-142451428D01*
X183691904Y-142832380D02*
X183691904Y-142070476D01*
X130004285Y-141793571D02*
X130147142Y-141841190D01*
X130194761Y-141888809D01*
X130242380Y-141984047D01*
X130242380Y-142126904D01*
X130194761Y-142222142D01*
X130147142Y-142269761D01*
X130051904Y-142317380D01*
X129670952Y-142317380D01*
X129670952Y-141317380D01*
X130004285Y-141317380D01*
X130099523Y-141365000D01*
X130147142Y-141412619D01*
X130194761Y-141507857D01*
X130194761Y-141603095D01*
X130147142Y-141698333D01*
X130099523Y-141745952D01*
X130004285Y-141793571D01*
X129670952Y-141793571D01*
X130528095Y-141317380D02*
X131099523Y-141317380D01*
X130813809Y-142317380D02*
X130813809Y-141317380D01*
X131956666Y-142317380D02*
X131385238Y-142317380D01*
X131670952Y-142317380D02*
X131670952Y-141317380D01*
X131575714Y-141460238D01*
X131480476Y-141555476D01*
X131385238Y-141603095D01*
X123698809Y-149947380D02*
X124317857Y-149947380D01*
X123984523Y-150328333D01*
X124127380Y-150328333D01*
X124222619Y-150375952D01*
X124270238Y-150423571D01*
X124317857Y-150518809D01*
X124317857Y-150756904D01*
X124270238Y-150852142D01*
X124222619Y-150899761D01*
X124127380Y-150947380D01*
X123841666Y-150947380D01*
X123746428Y-150899761D01*
X123698809Y-150852142D01*
X124746428Y-150852142D02*
X124794047Y-150899761D01*
X124746428Y-150947380D01*
X124698809Y-150899761D01*
X124746428Y-150852142D01*
X124746428Y-150947380D01*
X125127380Y-149947380D02*
X125794047Y-149947380D01*
X125365476Y-150947380D01*
X126032142Y-149947380D02*
X126365476Y-150947380D01*
X126698809Y-149947380D01*
X128270238Y-150947380D02*
X127794047Y-150947380D01*
X127794047Y-149947380D01*
X128603571Y-150947380D02*
X128603571Y-150280714D01*
X128603571Y-149947380D02*
X128555952Y-149995000D01*
X128603571Y-150042619D01*
X128651190Y-149995000D01*
X128603571Y-149947380D01*
X128603571Y-150042619D01*
X129079761Y-150947380D02*
X129079761Y-149947380D01*
X129460714Y-149947380D01*
X129555952Y-149995000D01*
X129603571Y-150042619D01*
X129651190Y-150137857D01*
X129651190Y-150280714D01*
X129603571Y-150375952D01*
X129555952Y-150423571D01*
X129460714Y-150471190D01*
X129079761Y-150471190D01*
X130222619Y-150947380D02*
X130127380Y-150899761D01*
X130079761Y-150852142D01*
X130032142Y-150756904D01*
X130032142Y-150471190D01*
X130079761Y-150375952D01*
X130127380Y-150328333D01*
X130222619Y-150280714D01*
X130365476Y-150280714D01*
X130460714Y-150328333D01*
X130508333Y-150375952D01*
X130555952Y-150471190D01*
X130555952Y-150756904D01*
X130508333Y-150852142D01*
X130460714Y-150899761D01*
X130365476Y-150947380D01*
X130222619Y-150947380D01*
X132079761Y-150423571D02*
X132222619Y-150471190D01*
X132270238Y-150518809D01*
X132317857Y-150614047D01*
X132317857Y-150756904D01*
X132270238Y-150852142D01*
X132222619Y-150899761D01*
X132127380Y-150947380D01*
X131746428Y-150947380D01*
X131746428Y-149947380D01*
X132079761Y-149947380D01*
X132175000Y-149995000D01*
X132222619Y-150042619D01*
X132270238Y-150137857D01*
X132270238Y-150233095D01*
X132222619Y-150328333D01*
X132175000Y-150375952D01*
X132079761Y-150423571D01*
X131746428Y-150423571D01*
X133175000Y-150947380D02*
X133175000Y-150423571D01*
X133127380Y-150328333D01*
X133032142Y-150280714D01*
X132841666Y-150280714D01*
X132746428Y-150328333D01*
X133175000Y-150899761D02*
X133079761Y-150947380D01*
X132841666Y-150947380D01*
X132746428Y-150899761D01*
X132698809Y-150804523D01*
X132698809Y-150709285D01*
X132746428Y-150614047D01*
X132841666Y-150566428D01*
X133079761Y-150566428D01*
X133175000Y-150518809D01*
X133508333Y-150280714D02*
X133889285Y-150280714D01*
X133651190Y-149947380D02*
X133651190Y-150804523D01*
X133698809Y-150899761D01*
X133794047Y-150947380D01*
X133889285Y-150947380D01*
X134079761Y-150280714D02*
X134460714Y-150280714D01*
X134222619Y-149947380D02*
X134222619Y-150804523D01*
X134270238Y-150899761D01*
X134365476Y-150947380D01*
X134460714Y-150947380D01*
X135175000Y-150899761D02*
X135079761Y-150947380D01*
X134889285Y-150947380D01*
X134794047Y-150899761D01*
X134746428Y-150804523D01*
X134746428Y-150423571D01*
X134794047Y-150328333D01*
X134889285Y-150280714D01*
X135079761Y-150280714D01*
X135175000Y-150328333D01*
X135222619Y-150423571D01*
X135222619Y-150518809D01*
X134746428Y-150614047D01*
X135651190Y-150947380D02*
X135651190Y-150280714D01*
X135651190Y-150471190D02*
X135698809Y-150375952D01*
X135746428Y-150328333D01*
X135841666Y-150280714D01*
X135936904Y-150280714D01*
X136175000Y-150280714D02*
X136413095Y-150947380D01*
X136651190Y-150280714D02*
X136413095Y-150947380D01*
X136317857Y-151185476D01*
X136270238Y-151233095D01*
X136175000Y-151280714D01*
X173712619Y-82367380D02*
X173712619Y-81367380D01*
X174141190Y-81462619D02*
X174188809Y-81415000D01*
X174284047Y-81367380D01*
X174522142Y-81367380D01*
X174617380Y-81415000D01*
X174665000Y-81462619D01*
X174712619Y-81557857D01*
X174712619Y-81653095D01*
X174665000Y-81795952D01*
X174093571Y-82367380D01*
X174712619Y-82367380D01*
X175712619Y-82272142D02*
X175665000Y-82319761D01*
X175522142Y-82367380D01*
X175426904Y-82367380D01*
X175284047Y-82319761D01*
X175188809Y-82224523D01*
X175141190Y-82129285D01*
X175093571Y-81938809D01*
X175093571Y-81795952D01*
X175141190Y-81605476D01*
X175188809Y-81510238D01*
X175284047Y-81415000D01*
X175426904Y-81367380D01*
X175522142Y-81367380D01*
X175665000Y-81415000D01*
X175712619Y-81462619D01*
X176665000Y-82367380D02*
X176093571Y-82367380D01*
X176379285Y-82367380D02*
X176379285Y-81367380D01*
X176284047Y-81510238D01*
X176188809Y-81605476D01*
X176093571Y-81653095D01*
X169267380Y-104060000D02*
X168267380Y-104060000D01*
X168362619Y-103631428D02*
X168315000Y-103583809D01*
X168267380Y-103488571D01*
X168267380Y-103250476D01*
X168315000Y-103155238D01*
X168362619Y-103107619D01*
X168457857Y-103060000D01*
X168553095Y-103060000D01*
X168695952Y-103107619D01*
X169267380Y-103679047D01*
X169267380Y-103060000D01*
X169172142Y-102060000D02*
X169219761Y-102107619D01*
X169267380Y-102250476D01*
X169267380Y-102345714D01*
X169219761Y-102488571D01*
X169124523Y-102583809D01*
X169029285Y-102631428D01*
X168838809Y-102679047D01*
X168695952Y-102679047D01*
X168505476Y-102631428D01*
X168410238Y-102583809D01*
X168315000Y-102488571D01*
X168267380Y-102345714D01*
X168267380Y-102250476D01*
X168315000Y-102107619D01*
X168362619Y-102060000D01*
X168886428Y-101631428D02*
X168886428Y-100869523D01*
X169267380Y-100393333D02*
X168267380Y-100393333D01*
X168267380Y-100012380D01*
X168315000Y-99917142D01*
X168362619Y-99869523D01*
X168457857Y-99821904D01*
X168600714Y-99821904D01*
X168695952Y-99869523D01*
X168743571Y-99917142D01*
X168791190Y-100012380D01*
X168791190Y-100393333D01*
X169267380Y-98964761D02*
X168743571Y-98964761D01*
X168648333Y-99012380D01*
X168600714Y-99107619D01*
X168600714Y-99298095D01*
X168648333Y-99393333D01*
X169219761Y-98964761D02*
X169267380Y-99060000D01*
X169267380Y-99298095D01*
X169219761Y-99393333D01*
X169124523Y-99440952D01*
X169029285Y-99440952D01*
X168934047Y-99393333D01*
X168886428Y-99298095D01*
X168886428Y-99060000D01*
X168838809Y-98964761D01*
X169267380Y-98488571D02*
X168600714Y-98488571D01*
X168791190Y-98488571D02*
X168695952Y-98440952D01*
X168648333Y-98393333D01*
X168600714Y-98298095D01*
X168600714Y-98202857D01*
X169267380Y-97440952D02*
X168743571Y-97440952D01*
X168648333Y-97488571D01*
X168600714Y-97583809D01*
X168600714Y-97774285D01*
X168648333Y-97869523D01*
X169219761Y-97440952D02*
X169267380Y-97536190D01*
X169267380Y-97774285D01*
X169219761Y-97869523D01*
X169124523Y-97917142D01*
X169029285Y-97917142D01*
X168934047Y-97869523D01*
X168886428Y-97774285D01*
X168886428Y-97536190D01*
X168838809Y-97440952D01*
X169267380Y-96821904D02*
X169219761Y-96917142D01*
X169124523Y-96964761D01*
X168267380Y-96964761D01*
X169267380Y-96298095D02*
X169219761Y-96393333D01*
X169124523Y-96440952D01*
X168267380Y-96440952D01*
X169219761Y-95536190D02*
X169267380Y-95631428D01*
X169267380Y-95821904D01*
X169219761Y-95917142D01*
X169124523Y-95964761D01*
X168743571Y-95964761D01*
X168648333Y-95917142D01*
X168600714Y-95821904D01*
X168600714Y-95631428D01*
X168648333Y-95536190D01*
X168743571Y-95488571D01*
X168838809Y-95488571D01*
X168934047Y-95964761D01*
X169267380Y-94917142D02*
X169219761Y-95012380D01*
X169124523Y-95060000D01*
X168267380Y-95060000D01*
X169267380Y-94012380D02*
X169267380Y-94583809D01*
X169267380Y-94298095D02*
X168267380Y-94298095D01*
X168410238Y-94393333D01*
X168505476Y-94488571D01*
X168553095Y-94583809D01*
X126352380Y-86526666D02*
X125876190Y-86860000D01*
X126352380Y-87098095D02*
X125352380Y-87098095D01*
X125352380Y-86717142D01*
X125400000Y-86621904D01*
X125447619Y-86574285D01*
X125542857Y-86526666D01*
X125685714Y-86526666D01*
X125780952Y-86574285D01*
X125828571Y-86621904D01*
X125876190Y-86717142D01*
X125876190Y-87098095D01*
X126352380Y-85574285D02*
X126352380Y-86145714D01*
X126352380Y-85860000D02*
X125352380Y-85860000D01*
X125495238Y-85955238D01*
X125590476Y-86050476D01*
X125638095Y-86145714D01*
X131092380Y-87026666D02*
X131092380Y-87598095D01*
X131092380Y-87312380D02*
X130092380Y-87312380D01*
X130235238Y-87407619D01*
X130330476Y-87502857D01*
X130378095Y-87598095D01*
X130092380Y-86121904D02*
X130092380Y-86598095D01*
X130568571Y-86645714D01*
X130520952Y-86598095D01*
X130473333Y-86502857D01*
X130473333Y-86264761D01*
X130520952Y-86169523D01*
X130568571Y-86121904D01*
X130663809Y-86074285D01*
X130901904Y-86074285D01*
X130997142Y-86121904D01*
X131044761Y-86169523D01*
X131092380Y-86264761D01*
X131092380Y-86502857D01*
X131044761Y-86598095D01*
X130997142Y-86645714D01*
X130092380Y-85455238D02*
X130092380Y-85360000D01*
X130140000Y-85264761D01*
X130187619Y-85217142D01*
X130282857Y-85169523D01*
X130473333Y-85121904D01*
X130711428Y-85121904D01*
X130901904Y-85169523D01*
X130997142Y-85217142D01*
X131044761Y-85264761D01*
X131092380Y-85360000D01*
X131092380Y-85455238D01*
X131044761Y-85550476D01*
X130997142Y-85598095D01*
X130901904Y-85645714D01*
X130711428Y-85693333D01*
X130473333Y-85693333D01*
X130282857Y-85645714D01*
X130187619Y-85598095D01*
X130140000Y-85550476D01*
X130092380Y-85455238D01*
X120002380Y-86526666D02*
X119526190Y-86860000D01*
X120002380Y-87098095D02*
X119002380Y-87098095D01*
X119002380Y-86717142D01*
X119050000Y-86621904D01*
X119097619Y-86574285D01*
X119192857Y-86526666D01*
X119335714Y-86526666D01*
X119430952Y-86574285D01*
X119478571Y-86621904D01*
X119526190Y-86717142D01*
X119526190Y-87098095D01*
X119097619Y-86145714D02*
X119050000Y-86098095D01*
X119002380Y-86002857D01*
X119002380Y-85764761D01*
X119050000Y-85669523D01*
X119097619Y-85621904D01*
X119192857Y-85574285D01*
X119288095Y-85574285D01*
X119430952Y-85621904D01*
X120002380Y-86193333D01*
X120002380Y-85574285D01*
X124742380Y-87026666D02*
X124742380Y-87598095D01*
X124742380Y-87312380D02*
X123742380Y-87312380D01*
X123885238Y-87407619D01*
X123980476Y-87502857D01*
X124028095Y-87598095D01*
X123837619Y-86645714D02*
X123790000Y-86598095D01*
X123742380Y-86502857D01*
X123742380Y-86264761D01*
X123790000Y-86169523D01*
X123837619Y-86121904D01*
X123932857Y-86074285D01*
X124028095Y-86074285D01*
X124170952Y-86121904D01*
X124742380Y-86693333D01*
X124742380Y-86074285D01*
X123742380Y-85455238D02*
X123742380Y-85360000D01*
X123790000Y-85264761D01*
X123837619Y-85217142D01*
X123932857Y-85169523D01*
X124123333Y-85121904D01*
X124361428Y-85121904D01*
X124551904Y-85169523D01*
X124647142Y-85217142D01*
X124694761Y-85264761D01*
X124742380Y-85360000D01*
X124742380Y-85455238D01*
X124694761Y-85550476D01*
X124647142Y-85598095D01*
X124551904Y-85645714D01*
X124361428Y-85693333D01*
X124123333Y-85693333D01*
X123932857Y-85645714D01*
X123837619Y-85598095D01*
X123790000Y-85550476D01*
X123742380Y-85455238D01*
X113652380Y-86526666D02*
X113176190Y-86860000D01*
X113652380Y-87098095D02*
X112652380Y-87098095D01*
X112652380Y-86717142D01*
X112700000Y-86621904D01*
X112747619Y-86574285D01*
X112842857Y-86526666D01*
X112985714Y-86526666D01*
X113080952Y-86574285D01*
X113128571Y-86621904D01*
X113176190Y-86717142D01*
X113176190Y-87098095D01*
X112652380Y-86193333D02*
X112652380Y-85574285D01*
X113033333Y-85907619D01*
X113033333Y-85764761D01*
X113080952Y-85669523D01*
X113128571Y-85621904D01*
X113223809Y-85574285D01*
X113461904Y-85574285D01*
X113557142Y-85621904D01*
X113604761Y-85669523D01*
X113652380Y-85764761D01*
X113652380Y-86050476D01*
X113604761Y-86145714D01*
X113557142Y-86193333D01*
X118392380Y-87026666D02*
X118392380Y-87598095D01*
X118392380Y-87312380D02*
X117392380Y-87312380D01*
X117535238Y-87407619D01*
X117630476Y-87502857D01*
X117678095Y-87598095D01*
X117392380Y-86407619D02*
X117392380Y-86312380D01*
X117440000Y-86217142D01*
X117487619Y-86169523D01*
X117582857Y-86121904D01*
X117773333Y-86074285D01*
X118011428Y-86074285D01*
X118201904Y-86121904D01*
X118297142Y-86169523D01*
X118344761Y-86217142D01*
X118392380Y-86312380D01*
X118392380Y-86407619D01*
X118344761Y-86502857D01*
X118297142Y-86550476D01*
X118201904Y-86598095D01*
X118011428Y-86645714D01*
X117773333Y-86645714D01*
X117582857Y-86598095D01*
X117487619Y-86550476D01*
X117440000Y-86502857D01*
X117392380Y-86407619D01*
X117392380Y-85455238D02*
X117392380Y-85360000D01*
X117440000Y-85264761D01*
X117487619Y-85217142D01*
X117582857Y-85169523D01*
X117773333Y-85121904D01*
X118011428Y-85121904D01*
X118201904Y-85169523D01*
X118297142Y-85217142D01*
X118344761Y-85264761D01*
X118392380Y-85360000D01*
X118392380Y-85455238D01*
X118344761Y-85550476D01*
X118297142Y-85598095D01*
X118201904Y-85645714D01*
X118011428Y-85693333D01*
X117773333Y-85693333D01*
X117582857Y-85645714D01*
X117487619Y-85598095D01*
X117440000Y-85550476D01*
X117392380Y-85455238D01*
X132702380Y-86526666D02*
X132226190Y-86860000D01*
X132702380Y-87098095D02*
X131702380Y-87098095D01*
X131702380Y-86717142D01*
X131750000Y-86621904D01*
X131797619Y-86574285D01*
X131892857Y-86526666D01*
X132035714Y-86526666D01*
X132130952Y-86574285D01*
X132178571Y-86621904D01*
X132226190Y-86717142D01*
X132226190Y-87098095D01*
X132035714Y-85669523D02*
X132702380Y-85669523D01*
X131654761Y-85907619D02*
X132369047Y-86145714D01*
X132369047Y-85526666D01*
X137442380Y-87026666D02*
X137442380Y-87598095D01*
X137442380Y-87312380D02*
X136442380Y-87312380D01*
X136585238Y-87407619D01*
X136680476Y-87502857D01*
X136728095Y-87598095D01*
X136442380Y-86407619D02*
X136442380Y-86312380D01*
X136490000Y-86217142D01*
X136537619Y-86169523D01*
X136632857Y-86121904D01*
X136823333Y-86074285D01*
X137061428Y-86074285D01*
X137251904Y-86121904D01*
X137347142Y-86169523D01*
X137394761Y-86217142D01*
X137442380Y-86312380D01*
X137442380Y-86407619D01*
X137394761Y-86502857D01*
X137347142Y-86550476D01*
X137251904Y-86598095D01*
X137061428Y-86645714D01*
X136823333Y-86645714D01*
X136632857Y-86598095D01*
X136537619Y-86550476D01*
X136490000Y-86502857D01*
X136442380Y-86407619D01*
X136442380Y-85455238D02*
X136442380Y-85360000D01*
X136490000Y-85264761D01*
X136537619Y-85217142D01*
X136632857Y-85169523D01*
X136823333Y-85121904D01*
X137061428Y-85121904D01*
X137251904Y-85169523D01*
X137347142Y-85217142D01*
X137394761Y-85264761D01*
X137442380Y-85360000D01*
X137442380Y-85455238D01*
X137394761Y-85550476D01*
X137347142Y-85598095D01*
X137251904Y-85645714D01*
X137061428Y-85693333D01*
X136823333Y-85693333D01*
X136632857Y-85645714D01*
X136537619Y-85598095D01*
X136490000Y-85550476D01*
X136442380Y-85455238D01*
X123812380Y-132881666D02*
X123336190Y-133215000D01*
X123812380Y-133453095D02*
X122812380Y-133453095D01*
X122812380Y-133072142D01*
X122860000Y-132976904D01*
X122907619Y-132929285D01*
X123002857Y-132881666D01*
X123145714Y-132881666D01*
X123240952Y-132929285D01*
X123288571Y-132976904D01*
X123336190Y-133072142D01*
X123336190Y-133453095D01*
X122812380Y-131976904D02*
X122812380Y-132453095D01*
X123288571Y-132500714D01*
X123240952Y-132453095D01*
X123193333Y-132357857D01*
X123193333Y-132119761D01*
X123240952Y-132024523D01*
X123288571Y-131976904D01*
X123383809Y-131929285D01*
X123621904Y-131929285D01*
X123717142Y-131976904D01*
X123764761Y-132024523D01*
X123812380Y-132119761D01*
X123812380Y-132357857D01*
X123764761Y-132453095D01*
X123717142Y-132500714D01*
X127552380Y-133834047D02*
X127552380Y-134310238D01*
X128028571Y-134357857D01*
X127980952Y-134310238D01*
X127933333Y-134215000D01*
X127933333Y-133976904D01*
X127980952Y-133881666D01*
X128028571Y-133834047D01*
X128123809Y-133786428D01*
X128361904Y-133786428D01*
X128457142Y-133834047D01*
X128504761Y-133881666D01*
X128552380Y-133976904D01*
X128552380Y-134215000D01*
X128504761Y-134310238D01*
X128457142Y-134357857D01*
X127552380Y-132929285D02*
X127552380Y-133119761D01*
X127600000Y-133215000D01*
X127647619Y-133262619D01*
X127790476Y-133357857D01*
X127980952Y-133405476D01*
X128361904Y-133405476D01*
X128457142Y-133357857D01*
X128504761Y-133310238D01*
X128552380Y-133215000D01*
X128552380Y-133024523D01*
X128504761Y-132929285D01*
X128457142Y-132881666D01*
X128361904Y-132834047D01*
X128123809Y-132834047D01*
X128028571Y-132881666D01*
X127980952Y-132929285D01*
X127933333Y-133024523D01*
X127933333Y-133215000D01*
X127980952Y-133310238D01*
X128028571Y-133357857D01*
X128123809Y-133405476D01*
X127552380Y-132215000D02*
X127552380Y-132119761D01*
X127600000Y-132024523D01*
X127647619Y-131976904D01*
X127742857Y-131929285D01*
X127933333Y-131881666D01*
X128171428Y-131881666D01*
X128361904Y-131929285D01*
X128457142Y-131976904D01*
X128504761Y-132024523D01*
X128552380Y-132119761D01*
X128552380Y-132215000D01*
X128504761Y-132310238D01*
X128457142Y-132357857D01*
X128361904Y-132405476D01*
X128171428Y-132453095D01*
X127933333Y-132453095D01*
X127742857Y-132405476D01*
X127647619Y-132357857D01*
X127600000Y-132310238D01*
X127552380Y-132215000D01*
X128552380Y-131453095D02*
X127552380Y-131453095D01*
X128171428Y-131357857D02*
X128552380Y-131072142D01*
X127885714Y-131072142D02*
X128266666Y-131453095D01*
%LPC*%
D12*
G36*
X190500000Y-170180000D02*
G01*
X109474000Y-170180000D01*
X109474000Y-155448000D01*
X190500000Y-155448000D01*
X190500000Y-170180000D01*
G37*
X190500000Y-170180000D02*
X109474000Y-170180000D01*
X109474000Y-155448000D01*
X190500000Y-155448000D01*
X190500000Y-170180000D01*
D13*
X138430000Y-121285000D03*
X135890000Y-121285000D03*
X133350000Y-121285000D03*
X130810000Y-121285000D03*
X128270000Y-121285000D03*
X125730000Y-121285000D03*
X123190000Y-121285000D03*
X120650000Y-121285000D03*
X120650000Y-98425000D03*
X123190000Y-98425000D03*
X125730000Y-98425000D03*
X128270000Y-98425000D03*
X130810000Y-98425000D03*
X133350000Y-98425000D03*
D14*
X138430000Y-98425000D03*
D13*
X135890000Y-98425000D03*
D15*
X112170636Y-40019233D03*
X112171156Y-71019933D03*
X187169736Y-71019933D03*
X187169736Y-40019233D03*
D16*
X143570636Y-40019233D03*
X146110636Y-40019233D03*
X148650636Y-40019233D03*
X151190636Y-40019233D03*
X153730636Y-40019233D03*
X156270636Y-40019233D03*
X158810636Y-40019233D03*
X161350636Y-40019233D03*
X163890636Y-40019233D03*
X166430636Y-40019233D03*
X168970636Y-40019233D03*
X171510636Y-40019233D03*
X174050636Y-40019233D03*
X176590636Y-40019233D03*
X179130636Y-40019233D03*
D17*
X181670636Y-40019233D03*
D18*
X161925000Y-78780000D03*
D19*
X161925000Y-81280000D03*
D20*
X115316000Y-145542000D03*
D21*
X115316000Y-131572000D03*
D22*
X139526000Y-128016000D03*
X139526000Y-127066000D03*
X139526000Y-128966000D03*
X136826000Y-128966000D03*
X136826000Y-128016000D03*
X136826000Y-127066000D03*
D23*
X130556000Y-137922000D03*
D18*
X130556000Y-127762000D03*
D24*
X152146000Y-147828000D03*
X149606000Y-147828000D03*
D25*
X147066000Y-147828000D03*
D26*
X153750000Y-97660000D03*
X156250000Y-99910000D03*
X156250000Y-94910000D03*
D27*
X161950000Y-119410000D03*
X155500000Y-119410000D03*
X155500000Y-88410000D03*
X162000000Y-88410000D03*
D28*
X186500000Y-143000000D03*
X186500000Y-129500000D03*
D29*
X164500000Y-129250000D03*
X164500000Y-143250000D03*
X164500000Y-140000000D03*
X164500000Y-132500000D03*
D30*
X132040000Y-145415000D03*
D12*
G36*
X130201975Y-144365276D02*
G01*
X130227699Y-144369092D01*
X130252925Y-144375411D01*
X130277411Y-144384172D01*
X130300920Y-144395291D01*
X130323226Y-144408661D01*
X130344114Y-144424152D01*
X130363383Y-144441617D01*
X130380848Y-144460886D01*
X130396339Y-144481774D01*
X130409709Y-144504080D01*
X130420828Y-144527589D01*
X130429589Y-144552075D01*
X130435908Y-144577301D01*
X130439724Y-144603025D01*
X130441000Y-144629000D01*
X130441000Y-146201000D01*
X130439724Y-146226975D01*
X130435908Y-146252699D01*
X130429589Y-146277925D01*
X130420828Y-146302411D01*
X130409709Y-146325920D01*
X130396339Y-146348226D01*
X130380848Y-146369114D01*
X130363383Y-146388383D01*
X130344114Y-146405848D01*
X130323226Y-146421339D01*
X130300920Y-146434709D01*
X130277411Y-146445828D01*
X130252925Y-146454589D01*
X130227699Y-146460908D01*
X130201975Y-146464724D01*
X130176000Y-146466000D01*
X128904000Y-146466000D01*
X128878025Y-146464724D01*
X128852301Y-146460908D01*
X128827075Y-146454589D01*
X128802589Y-146445828D01*
X128779080Y-146434709D01*
X128756774Y-146421339D01*
X128735886Y-146405848D01*
X128716617Y-146388383D01*
X128699152Y-146369114D01*
X128683661Y-146348226D01*
X128670291Y-146325920D01*
X128659172Y-146302411D01*
X128650411Y-146277925D01*
X128644092Y-146252699D01*
X128640276Y-146226975D01*
X128639000Y-146201000D01*
X128639000Y-144629000D01*
X128640276Y-144603025D01*
X128644092Y-144577301D01*
X128650411Y-144552075D01*
X128659172Y-144527589D01*
X128670291Y-144504080D01*
X128683661Y-144481774D01*
X128699152Y-144460886D01*
X128716617Y-144441617D01*
X128735886Y-144424152D01*
X128756774Y-144408661D01*
X128779080Y-144395291D01*
X128802589Y-144384172D01*
X128827075Y-144375411D01*
X128852301Y-144369092D01*
X128878025Y-144365276D01*
X128904000Y-144364000D01*
X130176000Y-144364000D01*
X130201975Y-144365276D01*
G37*
D31*
X132002585Y-34322360D03*
D32*
X132002585Y-31782360D03*
D31*
X126287585Y-34322360D03*
D32*
X126287585Y-31782360D03*
D31*
X119937585Y-34322360D03*
D32*
X119937585Y-31782360D03*
D24*
X182785000Y-84455000D03*
X180245000Y-84455000D03*
X177705000Y-84455000D03*
D25*
X175165000Y-84455000D03*
D24*
X171355000Y-123190000D03*
X171355000Y-120650000D03*
X171355000Y-118110000D03*
X171355000Y-115570000D03*
X171355000Y-113030000D03*
X171355000Y-110490000D03*
X171355000Y-107950000D03*
X171355000Y-105410000D03*
X171355000Y-102870000D03*
X171355000Y-100330000D03*
X171355000Y-97790000D03*
X171355000Y-95250000D03*
X171355000Y-92710000D03*
X171355000Y-90170000D03*
X171355000Y-87630000D03*
D25*
X171355000Y-85090000D03*
D23*
X128270000Y-81280000D03*
D18*
X128270000Y-91440000D03*
D23*
X121920000Y-81280000D03*
D18*
X121920000Y-91440000D03*
D23*
X115570000Y-81280000D03*
D18*
X115570000Y-91440000D03*
D23*
X134620000Y-81280000D03*
D18*
X134620000Y-91440000D03*
D23*
X125730000Y-127635000D03*
D18*
X125730000Y-137795000D03*
M02*
