G04 #@! TF.GenerationSoftware,KiCad,Pcbnew,(5.1.5)-3*
G04 #@! TF.CreationDate,2020-04-07T21:38:51+01:00*
G04 #@! TF.ProjectId,Keypad,4b657970-6164-42e6-9b69-6361645f7063,1*
G04 #@! TF.SameCoordinates,Original*
G04 #@! TF.FileFunction,Copper,L1,Top*
G04 #@! TF.FilePolarity,Positive*
%FSLAX46Y46*%
G04 Gerber Fmt 4.6, Leading zero omitted, Abs format (unit mm)*
G04 Created by KiCad (PCBNEW (5.1.5)-3) date 2020-04-07 21:38:51*
%MOMM*%
%LPD*%
G04 APERTURE LIST*
%ADD10O,1.600000X2.000000*%
%ADD11R,2.000000X2.000000*%
%ADD12C,3.000000*%
%ADD13O,1.800000X2.600000*%
%ADD14R,1.800000X2.600000*%
%ADD15C,1.600000*%
%ADD16R,1.600000X1.600000*%
%ADD17R,3.500000X3.500000*%
%ADD18O,3.500000X3.500000*%
%ADD19R,1.560000X0.650000*%
%ADD20O,1.600000X1.600000*%
%ADD21O,1.700000X1.700000*%
%ADD22R,1.700000X1.700000*%
%ADD23C,2.100000*%
%ADD24R,3.500000X5.000000*%
%ADD25R,3.000000X3.000000*%
%ADD26R,3.000000X2.500000*%
%ADD27O,1.700000X2.000000*%
%ADD28C,0.100000*%
%ADD29C,1.800000*%
%ADD30R,1.800000X1.800000*%
%ADD31C,0.800000*%
%ADD32C,0.350000*%
%ADD33C,0.250000*%
%ADD34C,0.254000*%
G04 APERTURE END LIST*
D10*
X138430000Y-121285000D03*
X135890000Y-121285000D03*
X133350000Y-121285000D03*
X130810000Y-121285000D03*
X128270000Y-121285000D03*
X125730000Y-121285000D03*
X123190000Y-121285000D03*
X120650000Y-121285000D03*
X120650000Y-98425000D03*
X123190000Y-98425000D03*
X125730000Y-98425000D03*
X128270000Y-98425000D03*
X130810000Y-98425000D03*
X133350000Y-98425000D03*
D11*
X138430000Y-98425000D03*
D10*
X135890000Y-98425000D03*
D12*
X112170636Y-40019233D03*
X112171156Y-71019933D03*
X187169736Y-71019933D03*
X187169736Y-40019233D03*
D13*
X143570636Y-40019233D03*
X146110636Y-40019233D03*
X148650636Y-40019233D03*
X151190636Y-40019233D03*
X153730636Y-40019233D03*
X156270636Y-40019233D03*
X158810636Y-40019233D03*
X161350636Y-40019233D03*
X163890636Y-40019233D03*
X166430636Y-40019233D03*
X168970636Y-40019233D03*
X171510636Y-40019233D03*
X174050636Y-40019233D03*
X176590636Y-40019233D03*
X179130636Y-40019233D03*
D14*
X181670636Y-40019233D03*
D15*
X161925000Y-78780000D03*
D16*
X161925000Y-81280000D03*
D17*
X115316000Y-145542000D03*
D18*
X115316000Y-131572000D03*
D19*
X139526000Y-128016000D03*
X139526000Y-127066000D03*
X139526000Y-128966000D03*
X136826000Y-128966000D03*
X136826000Y-128016000D03*
X136826000Y-127066000D03*
D20*
X130556000Y-137922000D03*
D15*
X130556000Y-127762000D03*
D21*
X152146000Y-147828000D03*
X149606000Y-147828000D03*
D22*
X147066000Y-147828000D03*
D23*
X153750000Y-97660000D03*
X156250000Y-99910000D03*
X156250000Y-94910000D03*
D24*
X161950000Y-119410000D03*
X155500000Y-119410000D03*
X155500000Y-88410000D03*
X162000000Y-88410000D03*
D25*
X186500000Y-143000000D03*
X186500000Y-129500000D03*
D26*
X164500000Y-129250000D03*
X164500000Y-143250000D03*
X164500000Y-140000000D03*
X164500000Y-132500000D03*
D27*
X132040000Y-145415000D03*
G04 #@! TA.AperFunction,ComponentPad*
D28*
G36*
X130164504Y-144416204D02*
G01*
X130188773Y-144419804D01*
X130212571Y-144425765D01*
X130235671Y-144434030D01*
X130257849Y-144444520D01*
X130278893Y-144457133D01*
X130298598Y-144471747D01*
X130316777Y-144488223D01*
X130333253Y-144506402D01*
X130347867Y-144526107D01*
X130360480Y-144547151D01*
X130370970Y-144569329D01*
X130379235Y-144592429D01*
X130385196Y-144616227D01*
X130388796Y-144640496D01*
X130390000Y-144665000D01*
X130390000Y-146165000D01*
X130388796Y-146189504D01*
X130385196Y-146213773D01*
X130379235Y-146237571D01*
X130370970Y-146260671D01*
X130360480Y-146282849D01*
X130347867Y-146303893D01*
X130333253Y-146323598D01*
X130316777Y-146341777D01*
X130298598Y-146358253D01*
X130278893Y-146372867D01*
X130257849Y-146385480D01*
X130235671Y-146395970D01*
X130212571Y-146404235D01*
X130188773Y-146410196D01*
X130164504Y-146413796D01*
X130140000Y-146415000D01*
X128940000Y-146415000D01*
X128915496Y-146413796D01*
X128891227Y-146410196D01*
X128867429Y-146404235D01*
X128844329Y-146395970D01*
X128822151Y-146385480D01*
X128801107Y-146372867D01*
X128781402Y-146358253D01*
X128763223Y-146341777D01*
X128746747Y-146323598D01*
X128732133Y-146303893D01*
X128719520Y-146282849D01*
X128709030Y-146260671D01*
X128700765Y-146237571D01*
X128694804Y-146213773D01*
X128691204Y-146189504D01*
X128690000Y-146165000D01*
X128690000Y-144665000D01*
X128691204Y-144640496D01*
X128694804Y-144616227D01*
X128700765Y-144592429D01*
X128709030Y-144569329D01*
X128719520Y-144547151D01*
X128732133Y-144526107D01*
X128746747Y-144506402D01*
X128763223Y-144488223D01*
X128781402Y-144471747D01*
X128801107Y-144457133D01*
X128822151Y-144444520D01*
X128844329Y-144434030D01*
X128867429Y-144425765D01*
X128891227Y-144419804D01*
X128915496Y-144416204D01*
X128940000Y-144415000D01*
X130140000Y-144415000D01*
X130164504Y-144416204D01*
G37*
G04 #@! TD.AperFunction*
D29*
X132002585Y-34322360D03*
D30*
X132002585Y-31782360D03*
D29*
X126287585Y-34322360D03*
D30*
X126287585Y-31782360D03*
D29*
X119937585Y-34322360D03*
D30*
X119937585Y-31782360D03*
D21*
X182785000Y-84455000D03*
X180245000Y-84455000D03*
X177705000Y-84455000D03*
D22*
X175165000Y-84455000D03*
D21*
X171355000Y-123190000D03*
X171355000Y-120650000D03*
X171355000Y-118110000D03*
X171355000Y-115570000D03*
X171355000Y-113030000D03*
X171355000Y-110490000D03*
X171355000Y-107950000D03*
X171355000Y-105410000D03*
X171355000Y-102870000D03*
X171355000Y-100330000D03*
X171355000Y-97790000D03*
X171355000Y-95250000D03*
X171355000Y-92710000D03*
X171355000Y-90170000D03*
X171355000Y-87630000D03*
D22*
X171355000Y-85090000D03*
D20*
X128270000Y-81280000D03*
D15*
X128270000Y-91440000D03*
D20*
X121920000Y-81280000D03*
D15*
X121920000Y-91440000D03*
D20*
X115570000Y-81280000D03*
D15*
X115570000Y-91440000D03*
D20*
X134620000Y-81280000D03*
D15*
X134620000Y-91440000D03*
D20*
X125730000Y-127635000D03*
D15*
X125730000Y-137795000D03*
D31*
X113538000Y-154940000D03*
X142240000Y-128016000D03*
D32*
X129540000Y-147320000D02*
X129540000Y-145415000D01*
X130175000Y-147955000D02*
X129540000Y-147320000D01*
X133350000Y-147955000D02*
X130175000Y-147955000D01*
X139760000Y-141545000D02*
X133350000Y-147955000D01*
X160105000Y-141545000D02*
X139760000Y-141545000D01*
X161650000Y-140000000D02*
X160105000Y-141545000D01*
X163500000Y-140000000D02*
X161650000Y-140000000D01*
X133240000Y-145415000D02*
X132040000Y-145415000D01*
X141495000Y-137160000D02*
X133240000Y-145415000D01*
X160440000Y-137160000D02*
X154160000Y-137160000D01*
X163500000Y-134100000D02*
X160440000Y-137160000D01*
X163500000Y-132500000D02*
X163500000Y-134100000D01*
X160565000Y-137160000D02*
X154160000Y-137160000D01*
X154160000Y-137160000D02*
X141495000Y-137160000D01*
D33*
X137546000Y-128016000D02*
X136826000Y-128016000D01*
X138496000Y-127066000D02*
X137546000Y-128016000D01*
X139526000Y-127066000D02*
X138496000Y-127066000D01*
X136826000Y-128016000D02*
X135001000Y-128016000D01*
D32*
X162000000Y-81355000D02*
X161925000Y-81280000D01*
X162000000Y-88410000D02*
X162000000Y-81355000D01*
X161925000Y-81280000D02*
X176530000Y-81280000D01*
X177705000Y-82455000D02*
X177705000Y-84455000D01*
X176530000Y-81280000D02*
X177705000Y-82455000D01*
X120015000Y-120650000D02*
X120650000Y-121285000D01*
X118745000Y-91440000D02*
X118745000Y-118745000D01*
X120015000Y-120015000D02*
X120015000Y-120650000D01*
X118745000Y-118745000D02*
X120015000Y-120015000D01*
X121285000Y-88900000D02*
X118745000Y-91440000D01*
X161925000Y-81280000D02*
X161925000Y-82430000D01*
X161849999Y-82505001D02*
X138474999Y-82505001D01*
X132080000Y-88900000D02*
X121285000Y-88900000D01*
X161925000Y-82430000D02*
X161849999Y-82505001D01*
X138474999Y-82505001D02*
X132080000Y-88900000D01*
D33*
X139526000Y-128966000D02*
X139526000Y-130610990D01*
X139526000Y-130610990D02*
X139065000Y-131071990D01*
X139065000Y-131071990D02*
X119641990Y-131071990D01*
X119641990Y-131071990D02*
X119380000Y-130810000D01*
X119380000Y-130810000D02*
X119380000Y-125730000D01*
X119380000Y-125730000D02*
X120650000Y-124460000D01*
X128885000Y-124460000D02*
X130810000Y-122535000D01*
X130810000Y-122535000D02*
X130810000Y-121285000D01*
X120650000Y-124460000D02*
X128885000Y-124460000D01*
X130810000Y-120035000D02*
X130810000Y-121285000D01*
X130885010Y-119959990D02*
X130810000Y-120035000D01*
X133815994Y-119959990D02*
X130885010Y-119959990D01*
X134620000Y-120763996D02*
X133815994Y-119959990D01*
X134620000Y-123188590D02*
X134620000Y-120763996D01*
X169545000Y-125730000D02*
X168275000Y-124460000D01*
X135891410Y-124460000D02*
X134620000Y-123188590D01*
X150495000Y-123188590D02*
X149223590Y-124460000D01*
X163830000Y-112395000D02*
X154938590Y-112395000D01*
X168275000Y-124460000D02*
X168275000Y-116840000D01*
X154938590Y-112395000D02*
X150495000Y-116838590D01*
X150495000Y-116838590D02*
X150495000Y-123188590D01*
X178435000Y-125730000D02*
X169545000Y-125730000D01*
X180245000Y-123920000D02*
X178435000Y-125730000D01*
X180245000Y-84455000D02*
X180245000Y-123920000D01*
X168275000Y-116840000D02*
X163830000Y-112395000D01*
X149223590Y-124460000D02*
X135891410Y-124460000D01*
X133350000Y-122555000D02*
X133350000Y-121285000D01*
X130994990Y-124910010D02*
X133350000Y-122555000D01*
X120836400Y-124910010D02*
X130994990Y-124910010D01*
X120015000Y-125731410D02*
X120836400Y-124910010D01*
X136826000Y-130320980D02*
X136525000Y-130621980D01*
X136826000Y-128966000D02*
X136826000Y-130320980D01*
X120461980Y-130621980D02*
X120015000Y-130175000D01*
X136525000Y-130621980D02*
X120461980Y-130621980D01*
X120015000Y-130175000D02*
X120015000Y-125731410D01*
X135890000Y-125095000D02*
X133350000Y-122555000D01*
X149225000Y-125095000D02*
X135890000Y-125095000D01*
X178621401Y-126180009D02*
X169358600Y-126180010D01*
X180695010Y-86544990D02*
X180695010Y-124106400D01*
X180695010Y-124106400D02*
X178621401Y-126180009D01*
X169358600Y-126180010D02*
X167824991Y-124646401D01*
X182785000Y-84455000D02*
X180695010Y-86544990D01*
X167824991Y-124646401D02*
X167824990Y-117026400D01*
X167824990Y-117026400D02*
X163828590Y-113030000D01*
X163828590Y-113030000D02*
X154940000Y-113030000D01*
X154940000Y-113030000D02*
X151130000Y-116840000D01*
X151130000Y-116840000D02*
X151130000Y-123190000D01*
X151130000Y-123190000D02*
X149225000Y-125095000D01*
D32*
X139526000Y-128016000D02*
X142240000Y-128016000D01*
D33*
X130429000Y-127635000D02*
X130556000Y-127762000D01*
X125730000Y-127635000D02*
X130429000Y-127635000D01*
X135796000Y-127066000D02*
X136826000Y-127066000D01*
X132383370Y-127066000D02*
X135796000Y-127066000D01*
X131687370Y-127762000D02*
X132383370Y-127066000D01*
X130556000Y-127762000D02*
X131687370Y-127762000D01*
D32*
X133985000Y-149860000D02*
X126365000Y-149860000D01*
X140595000Y-143250000D02*
X138797500Y-145047500D01*
X163500000Y-143250000D02*
X140595000Y-143250000D01*
X139050000Y-144795000D02*
X138797500Y-145047500D01*
X138797500Y-145047500D02*
X133985000Y-149860000D01*
X122047000Y-145542000D02*
X114300000Y-145542000D01*
X126365000Y-149860000D02*
X122047000Y-145542000D01*
D33*
X115570000Y-91875000D02*
X115570000Y-91440000D01*
X116774873Y-131572000D02*
X114300000Y-131572000D01*
D32*
X150538000Y-131572000D02*
X116774873Y-131572000D01*
X161950000Y-120160000D02*
X161950000Y-119410000D01*
X150538000Y-131572000D02*
X161950000Y-120160000D01*
D34*
G36*
X118448083Y-30638180D02*
G01*
X118411773Y-30757878D01*
X118399513Y-30882360D01*
X118402585Y-31496610D01*
X118561335Y-31655360D01*
X119810585Y-31655360D01*
X119810585Y-31635360D01*
X120064585Y-31635360D01*
X120064585Y-31655360D01*
X121313835Y-31655360D01*
X121472585Y-31496610D01*
X121475657Y-30882360D01*
X121463397Y-30757878D01*
X121427087Y-30638180D01*
X121393316Y-30575000D01*
X124831854Y-30575000D01*
X124798083Y-30638180D01*
X124761773Y-30757878D01*
X124749513Y-30882360D01*
X124752585Y-31496610D01*
X124911335Y-31655360D01*
X126160585Y-31655360D01*
X126160585Y-31635360D01*
X126414585Y-31635360D01*
X126414585Y-31655360D01*
X127663835Y-31655360D01*
X127822585Y-31496610D01*
X127825657Y-30882360D01*
X127813397Y-30757878D01*
X127777087Y-30638180D01*
X127743316Y-30575000D01*
X130546854Y-30575000D01*
X130513083Y-30638180D01*
X130476773Y-30757878D01*
X130464513Y-30882360D01*
X130467585Y-31496610D01*
X130626335Y-31655360D01*
X131875585Y-31655360D01*
X131875585Y-31635360D01*
X132129585Y-31635360D01*
X132129585Y-31655360D01*
X133378835Y-31655360D01*
X133537585Y-31496610D01*
X133540657Y-30882360D01*
X133528397Y-30757878D01*
X133492087Y-30638180D01*
X133458316Y-30575000D01*
X181315000Y-30575000D01*
X181315001Y-35423647D01*
X181317955Y-35453636D01*
X181317868Y-35466047D01*
X181318802Y-35475565D01*
X181359603Y-35863758D01*
X181372080Y-35924539D01*
X181383720Y-35985560D01*
X181386484Y-35994716D01*
X181501908Y-36367591D01*
X181525986Y-36424870D01*
X181549225Y-36482388D01*
X181553714Y-36490833D01*
X181739366Y-36834188D01*
X181774068Y-36885635D01*
X181808079Y-36937610D01*
X181814124Y-36945022D01*
X182062931Y-37245777D01*
X182106984Y-37289524D01*
X182150422Y-37333881D01*
X182157792Y-37339978D01*
X182460276Y-37586679D01*
X182512005Y-37621047D01*
X182563215Y-37656111D01*
X182571628Y-37660661D01*
X182916270Y-37843910D01*
X182973636Y-37867555D01*
X183030736Y-37892028D01*
X183039873Y-37894856D01*
X183413544Y-38007674D01*
X183474469Y-38019737D01*
X183535174Y-38032641D01*
X183544686Y-38033641D01*
X183933155Y-38071731D01*
X183933163Y-38071731D01*
X183966353Y-38075000D01*
X186284507Y-38075000D01*
X186158434Y-38127221D01*
X185808753Y-38360870D01*
X185511373Y-38658250D01*
X185277724Y-39007931D01*
X185116783Y-39396477D01*
X185034736Y-39808954D01*
X185034736Y-40229512D01*
X185116783Y-40641989D01*
X185277724Y-41030535D01*
X185511373Y-41380216D01*
X185808753Y-41677596D01*
X186158434Y-41911245D01*
X186546980Y-42072186D01*
X186959457Y-42154233D01*
X187380015Y-42154233D01*
X187792492Y-42072186D01*
X188181038Y-41911245D01*
X188315001Y-41821734D01*
X188315001Y-41966344D01*
X188315000Y-41966354D01*
X188315000Y-69217432D01*
X188181038Y-69127921D01*
X187792492Y-68966980D01*
X187380015Y-68884933D01*
X186959457Y-68884933D01*
X186546980Y-68966980D01*
X186158434Y-69127921D01*
X185808753Y-69361570D01*
X185511373Y-69658950D01*
X185277724Y-70008631D01*
X185116783Y-70397177D01*
X185034736Y-70809654D01*
X185034736Y-71230212D01*
X185116783Y-71642689D01*
X185277724Y-72031235D01*
X185511373Y-72380916D01*
X185808753Y-72678296D01*
X186158434Y-72911945D01*
X186546980Y-73072886D01*
X186959457Y-73154933D01*
X187380015Y-73154933D01*
X187792492Y-73072886D01*
X188181038Y-72911945D01*
X188315000Y-72822434D01*
X188315001Y-127448353D01*
X188244180Y-127410498D01*
X188124482Y-127374188D01*
X188000000Y-127361928D01*
X185000000Y-127361928D01*
X184875518Y-127374188D01*
X184755820Y-127410498D01*
X184645506Y-127469463D01*
X184548815Y-127548815D01*
X184469463Y-127645506D01*
X184410498Y-127755820D01*
X184374188Y-127875518D01*
X184361928Y-128000000D01*
X184361928Y-131000000D01*
X184374188Y-131124482D01*
X184410498Y-131244180D01*
X184469463Y-131354494D01*
X184548815Y-131451185D01*
X184645506Y-131530537D01*
X184755820Y-131589502D01*
X184875518Y-131625812D01*
X185000000Y-131638072D01*
X188000000Y-131638072D01*
X188124482Y-131625812D01*
X188244180Y-131589502D01*
X188315001Y-131551647D01*
X188315001Y-140948353D01*
X188244180Y-140910498D01*
X188124482Y-140874188D01*
X188000000Y-140861928D01*
X185000000Y-140861928D01*
X184875518Y-140874188D01*
X184755820Y-140910498D01*
X184645506Y-140969463D01*
X184548815Y-141048815D01*
X184469463Y-141145506D01*
X184410498Y-141255820D01*
X184374188Y-141375518D01*
X184361928Y-141500000D01*
X184361928Y-144500000D01*
X184374188Y-144624482D01*
X184410498Y-144744180D01*
X184469463Y-144854494D01*
X184548815Y-144951185D01*
X184645506Y-145030537D01*
X184755820Y-145089502D01*
X184875518Y-145125812D01*
X185000000Y-145138072D01*
X188000000Y-145138072D01*
X188124482Y-145125812D01*
X188244180Y-145089502D01*
X188315001Y-145051647D01*
X188315001Y-165836487D01*
X188288543Y-166106327D01*
X188219908Y-166333656D01*
X188108428Y-166543320D01*
X187958343Y-166727341D01*
X187775380Y-166878701D01*
X187566493Y-166991646D01*
X187339653Y-167061865D01*
X187071966Y-167090000D01*
X184691503Y-167090000D01*
X184421673Y-167063543D01*
X184194344Y-166994908D01*
X183984680Y-166883428D01*
X183800659Y-166733343D01*
X183649299Y-166550380D01*
X183536354Y-166341493D01*
X183466135Y-166114653D01*
X183438000Y-165846966D01*
X183438000Y-156379553D01*
X183435053Y-156349628D01*
X183435135Y-156337817D01*
X183434201Y-156328299D01*
X183395338Y-155958544D01*
X183382863Y-155897769D01*
X183371221Y-155836742D01*
X183368456Y-155827586D01*
X183258514Y-155472422D01*
X183234454Y-155415184D01*
X183211199Y-155357626D01*
X183206709Y-155349181D01*
X183029877Y-155022136D01*
X182995142Y-154970639D01*
X182961163Y-154918714D01*
X182955118Y-154911302D01*
X182718129Y-154624832D01*
X182674076Y-154581085D01*
X182630638Y-154536728D01*
X182623269Y-154530632D01*
X182335152Y-154295648D01*
X182283416Y-154261275D01*
X182232212Y-154226215D01*
X182223799Y-154221666D01*
X181895527Y-154047121D01*
X181838131Y-154023464D01*
X181781063Y-153999005D01*
X181771926Y-153996176D01*
X181416004Y-153888716D01*
X181355074Y-153876652D01*
X181294371Y-153863749D01*
X181284863Y-153862749D01*
X181284859Y-153862749D01*
X180914844Y-153826469D01*
X180914837Y-153826469D01*
X180881647Y-153823200D01*
X117873153Y-153823200D01*
X117843228Y-153826147D01*
X117831417Y-153826065D01*
X117821899Y-153826999D01*
X117452144Y-153865862D01*
X117391369Y-153878337D01*
X117330342Y-153889979D01*
X117321186Y-153892744D01*
X116966022Y-154002686D01*
X116908784Y-154026746D01*
X116851226Y-154050001D01*
X116849347Y-154051000D01*
X114070468Y-154051000D01*
X114028256Y-154022795D01*
X113839898Y-153944774D01*
X113639939Y-153905000D01*
X113436061Y-153905000D01*
X113236102Y-153944774D01*
X113047744Y-154022795D01*
X113005532Y-154051000D01*
X110685000Y-154051000D01*
X110685000Y-143792000D01*
X112927928Y-143792000D01*
X112927928Y-147292000D01*
X112940188Y-147416482D01*
X112976498Y-147536180D01*
X113035463Y-147646494D01*
X113114815Y-147743185D01*
X113211506Y-147822537D01*
X113321820Y-147881502D01*
X113441518Y-147917812D01*
X113566000Y-147930072D01*
X117066000Y-147930072D01*
X117190482Y-147917812D01*
X117310180Y-147881502D01*
X117420494Y-147822537D01*
X117517185Y-147743185D01*
X117596537Y-147646494D01*
X117655502Y-147536180D01*
X117691812Y-147416482D01*
X117704072Y-147292000D01*
X117704072Y-146352000D01*
X121711488Y-146352000D01*
X125764105Y-150404618D01*
X125789472Y-150435528D01*
X125857210Y-150491119D01*
X125912810Y-150536749D01*
X125988024Y-150576951D01*
X126053527Y-150611963D01*
X126206212Y-150658280D01*
X126325209Y-150670000D01*
X126325211Y-150670000D01*
X126364999Y-150673919D01*
X126404787Y-150670000D01*
X133945212Y-150670000D01*
X133985000Y-150673919D01*
X134024788Y-150670000D01*
X134024791Y-150670000D01*
X134143788Y-150658280D01*
X134296473Y-150611963D01*
X134437189Y-150536749D01*
X134560528Y-150435528D01*
X134585900Y-150404612D01*
X138012512Y-146978000D01*
X145577928Y-146978000D01*
X145577928Y-148678000D01*
X145590188Y-148802482D01*
X145626498Y-148922180D01*
X145685463Y-149032494D01*
X145764815Y-149129185D01*
X145861506Y-149208537D01*
X145971820Y-149267502D01*
X146091518Y-149303812D01*
X146216000Y-149316072D01*
X147916000Y-149316072D01*
X148040482Y-149303812D01*
X148160180Y-149267502D01*
X148270494Y-149208537D01*
X148367185Y-149129185D01*
X148446537Y-149032494D01*
X148505502Y-148922180D01*
X148529966Y-148841534D01*
X148605731Y-148925588D01*
X148839080Y-149099641D01*
X149101901Y-149224825D01*
X149249110Y-149269476D01*
X149479000Y-149148155D01*
X149479000Y-147955000D01*
X149459000Y-147955000D01*
X149459000Y-147701000D01*
X149479000Y-147701000D01*
X149479000Y-146507845D01*
X149733000Y-146507845D01*
X149733000Y-147701000D01*
X149753000Y-147701000D01*
X149753000Y-147955000D01*
X149733000Y-147955000D01*
X149733000Y-149148155D01*
X149962890Y-149269476D01*
X150110099Y-149224825D01*
X150372920Y-149099641D01*
X150606269Y-148925588D01*
X150801178Y-148709355D01*
X150870805Y-148592466D01*
X150992525Y-148774632D01*
X151199368Y-148981475D01*
X151442589Y-149143990D01*
X151712842Y-149255932D01*
X151999740Y-149313000D01*
X152292260Y-149313000D01*
X152579158Y-149255932D01*
X152849411Y-149143990D01*
X153092632Y-148981475D01*
X153299475Y-148774632D01*
X153461990Y-148531411D01*
X153573932Y-148261158D01*
X153631000Y-147974260D01*
X153631000Y-147681740D01*
X153573932Y-147394842D01*
X153461990Y-147124589D01*
X153299475Y-146881368D01*
X153092632Y-146674525D01*
X152849411Y-146512010D01*
X152579158Y-146400068D01*
X152292260Y-146343000D01*
X151999740Y-146343000D01*
X151712842Y-146400068D01*
X151442589Y-146512010D01*
X151199368Y-146674525D01*
X150992525Y-146881368D01*
X150870805Y-147063534D01*
X150801178Y-146946645D01*
X150606269Y-146730412D01*
X150372920Y-146556359D01*
X150110099Y-146431175D01*
X149962890Y-146386524D01*
X149733000Y-146507845D01*
X149479000Y-146507845D01*
X149249110Y-146386524D01*
X149101901Y-146431175D01*
X148839080Y-146556359D01*
X148605731Y-146730412D01*
X148529966Y-146814466D01*
X148505502Y-146733820D01*
X148446537Y-146623506D01*
X148367185Y-146526815D01*
X148270494Y-146447463D01*
X148160180Y-146388498D01*
X148040482Y-146352188D01*
X147916000Y-146339928D01*
X146216000Y-146339928D01*
X146091518Y-146352188D01*
X145971820Y-146388498D01*
X145861506Y-146447463D01*
X145764815Y-146526815D01*
X145685463Y-146623506D01*
X145626498Y-146733820D01*
X145590188Y-146853518D01*
X145577928Y-146978000D01*
X138012512Y-146978000D01*
X139398393Y-145592120D01*
X139398397Y-145592115D01*
X140930513Y-144060000D01*
X162361928Y-144060000D01*
X162361928Y-144500000D01*
X162374188Y-144624482D01*
X162410498Y-144744180D01*
X162469463Y-144854494D01*
X162548815Y-144951185D01*
X162645506Y-145030537D01*
X162755820Y-145089502D01*
X162875518Y-145125812D01*
X163000000Y-145138072D01*
X166000000Y-145138072D01*
X166124482Y-145125812D01*
X166244180Y-145089502D01*
X166354494Y-145030537D01*
X166451185Y-144951185D01*
X166530537Y-144854494D01*
X166589502Y-144744180D01*
X166625812Y-144624482D01*
X166638072Y-144500000D01*
X166638072Y-142000000D01*
X166625812Y-141875518D01*
X166589502Y-141755820D01*
X166530537Y-141645506D01*
X166513708Y-141625000D01*
X166530537Y-141604494D01*
X166589502Y-141494180D01*
X166625812Y-141374482D01*
X166638072Y-141250000D01*
X166638072Y-138750000D01*
X166625812Y-138625518D01*
X166589502Y-138505820D01*
X166530537Y-138395506D01*
X166451185Y-138298815D01*
X166354494Y-138219463D01*
X166244180Y-138160498D01*
X166124482Y-138124188D01*
X166000000Y-138111928D01*
X163000000Y-138111928D01*
X162875518Y-138124188D01*
X162755820Y-138160498D01*
X162645506Y-138219463D01*
X162548815Y-138298815D01*
X162469463Y-138395506D01*
X162410498Y-138505820D01*
X162374188Y-138625518D01*
X162361928Y-138750000D01*
X162361928Y-139190000D01*
X161689788Y-139190000D01*
X161650000Y-139186081D01*
X161610212Y-139190000D01*
X161610209Y-139190000D01*
X161491212Y-139201720D01*
X161338527Y-139248037D01*
X161291364Y-139273246D01*
X161197810Y-139323251D01*
X161133796Y-139375786D01*
X161074472Y-139424472D01*
X161049105Y-139455382D01*
X159769488Y-140735000D01*
X139799788Y-140735000D01*
X139760000Y-140731081D01*
X139720212Y-140735000D01*
X139720209Y-140735000D01*
X139601212Y-140746720D01*
X139448527Y-140793037D01*
X139383024Y-140828049D01*
X139307810Y-140868251D01*
X139243796Y-140920786D01*
X139184472Y-140969472D01*
X139159107Y-141000380D01*
X133014488Y-147145000D01*
X130510513Y-147145000D01*
X130380977Y-147015465D01*
X130479850Y-146985472D01*
X130633386Y-146903405D01*
X130767962Y-146792962D01*
X130878405Y-146658386D01*
X130932777Y-146556663D01*
X130984866Y-146620134D01*
X131210987Y-146805706D01*
X131468967Y-146943599D01*
X131748890Y-147028513D01*
X132040000Y-147057185D01*
X132331111Y-147028513D01*
X132611034Y-146943599D01*
X132869014Y-146805706D01*
X133095134Y-146620134D01*
X133280706Y-146394014D01*
X133376116Y-146215513D01*
X133398788Y-146213280D01*
X133551473Y-146166963D01*
X133692189Y-146091749D01*
X133815528Y-145990528D01*
X133840900Y-145959612D01*
X141830513Y-137970000D01*
X160400212Y-137970000D01*
X160440000Y-137973919D01*
X160479788Y-137970000D01*
X160604791Y-137970000D01*
X160723788Y-137958280D01*
X160876473Y-137911963D01*
X161017189Y-137836749D01*
X161140528Y-137735528D01*
X161241749Y-137612189D01*
X161316963Y-137471473D01*
X161335654Y-137409858D01*
X164044618Y-134700895D01*
X164075528Y-134675528D01*
X164176749Y-134552189D01*
X164251963Y-134411474D01*
X164259062Y-134388072D01*
X166000000Y-134388072D01*
X166124482Y-134375812D01*
X166244180Y-134339502D01*
X166354494Y-134280537D01*
X166451185Y-134201185D01*
X166530537Y-134104494D01*
X166589502Y-133994180D01*
X166625812Y-133874482D01*
X166638072Y-133750000D01*
X166638072Y-131250000D01*
X166625812Y-131125518D01*
X166589502Y-131005820D01*
X166530537Y-130895506D01*
X166513708Y-130875000D01*
X166530537Y-130854494D01*
X166589502Y-130744180D01*
X166625812Y-130624482D01*
X166638072Y-130500000D01*
X166635000Y-129535750D01*
X166476250Y-129377000D01*
X164627000Y-129377000D01*
X164627000Y-129397000D01*
X164373000Y-129397000D01*
X164373000Y-129377000D01*
X162523750Y-129377000D01*
X162365000Y-129535750D01*
X162361928Y-130500000D01*
X162374188Y-130624482D01*
X162410498Y-130744180D01*
X162469463Y-130854494D01*
X162486292Y-130875000D01*
X162469463Y-130895506D01*
X162410498Y-131005820D01*
X162374188Y-131125518D01*
X162361928Y-131250000D01*
X162361928Y-133750000D01*
X162374188Y-133874482D01*
X162410498Y-133994180D01*
X162427848Y-134026639D01*
X160104488Y-136350000D01*
X141534788Y-136350000D01*
X141495000Y-136346081D01*
X141455212Y-136350000D01*
X141455209Y-136350000D01*
X141336212Y-136361720D01*
X141183527Y-136408037D01*
X141118024Y-136443049D01*
X141042810Y-136483251D01*
X140993986Y-136523320D01*
X140919472Y-136584472D01*
X140894107Y-136615380D01*
X133187308Y-144322180D01*
X133095134Y-144209866D01*
X132869013Y-144024294D01*
X132611033Y-143886401D01*
X132331110Y-143801487D01*
X132040000Y-143772815D01*
X131748889Y-143801487D01*
X131468966Y-143886401D01*
X131210986Y-144024294D01*
X130984866Y-144209866D01*
X130932777Y-144273337D01*
X130878405Y-144171614D01*
X130767962Y-144037038D01*
X130633386Y-143926595D01*
X130479850Y-143844528D01*
X130313254Y-143793992D01*
X130140000Y-143776928D01*
X128940000Y-143776928D01*
X128766746Y-143793992D01*
X128600150Y-143844528D01*
X128446614Y-143926595D01*
X128312038Y-144037038D01*
X128201595Y-144171614D01*
X128119528Y-144325150D01*
X128068992Y-144491746D01*
X128051928Y-144665000D01*
X128051928Y-146165000D01*
X128068992Y-146338254D01*
X128119528Y-146504850D01*
X128201595Y-146658386D01*
X128312038Y-146792962D01*
X128446614Y-146903405D01*
X128600150Y-146985472D01*
X128730000Y-147024861D01*
X128730000Y-147280211D01*
X128726081Y-147320000D01*
X128730000Y-147359788D01*
X128730000Y-147359790D01*
X128741720Y-147478787D01*
X128788037Y-147631472D01*
X128814906Y-147681740D01*
X128863251Y-147772189D01*
X128894703Y-147810513D01*
X128964472Y-147895528D01*
X128995387Y-147920899D01*
X129574105Y-148499618D01*
X129599472Y-148530528D01*
X129630380Y-148555893D01*
X129722811Y-148631749D01*
X129863526Y-148706963D01*
X129871412Y-148709355D01*
X130016212Y-148753280D01*
X130135209Y-148765000D01*
X130135212Y-148765000D01*
X130175000Y-148768919D01*
X130214788Y-148765000D01*
X133310212Y-148765000D01*
X133350000Y-148768919D01*
X133389788Y-148765000D01*
X133389791Y-148765000D01*
X133508788Y-148753280D01*
X133661473Y-148706963D01*
X133802189Y-148631749D01*
X133925528Y-148530528D01*
X133950900Y-148499612D01*
X140095513Y-142355000D01*
X160065212Y-142355000D01*
X160105000Y-142358919D01*
X160144788Y-142355000D01*
X160144791Y-142355000D01*
X160263788Y-142343280D01*
X160416473Y-142296963D01*
X160557189Y-142221749D01*
X160680528Y-142120528D01*
X160705899Y-142089613D01*
X161985513Y-140810000D01*
X162361928Y-140810000D01*
X162361928Y-141250000D01*
X162374188Y-141374482D01*
X162410498Y-141494180D01*
X162469463Y-141604494D01*
X162486292Y-141625000D01*
X162469463Y-141645506D01*
X162410498Y-141755820D01*
X162374188Y-141875518D01*
X162361928Y-142000000D01*
X162361928Y-142440000D01*
X140634788Y-142440000D01*
X140595000Y-142436081D01*
X140555212Y-142440000D01*
X140555209Y-142440000D01*
X140436212Y-142451720D01*
X140283527Y-142498037D01*
X140218024Y-142533049D01*
X140142810Y-142573251D01*
X140078796Y-142625786D01*
X140019472Y-142674472D01*
X139994105Y-142705382D01*
X138505381Y-144194107D01*
X138252886Y-144446602D01*
X138252880Y-144446607D01*
X133649488Y-149050000D01*
X126700513Y-149050000D01*
X122647900Y-144997388D01*
X122622528Y-144966472D01*
X122499189Y-144865251D01*
X122358473Y-144790037D01*
X122205788Y-144743720D01*
X122086791Y-144732000D01*
X122086788Y-144732000D01*
X122047000Y-144728081D01*
X122007212Y-144732000D01*
X117704072Y-144732000D01*
X117704072Y-143792000D01*
X117691812Y-143667518D01*
X117655502Y-143547820D01*
X117596537Y-143437506D01*
X117517185Y-143340815D01*
X117420494Y-143261463D01*
X117310180Y-143202498D01*
X117190482Y-143166188D01*
X117066000Y-143153928D01*
X113566000Y-143153928D01*
X113441518Y-143166188D01*
X113321820Y-143202498D01*
X113211506Y-143261463D01*
X113114815Y-143340815D01*
X113035463Y-143437506D01*
X112976498Y-143547820D01*
X112940188Y-143667518D01*
X112927928Y-143792000D01*
X110685000Y-143792000D01*
X110685000Y-137653665D01*
X124295000Y-137653665D01*
X124295000Y-137936335D01*
X124350147Y-138213574D01*
X124458320Y-138474727D01*
X124615363Y-138709759D01*
X124815241Y-138909637D01*
X125050273Y-139066680D01*
X125311426Y-139174853D01*
X125588665Y-139230000D01*
X125871335Y-139230000D01*
X126148574Y-139174853D01*
X126409727Y-139066680D01*
X126644759Y-138909637D01*
X126844637Y-138709759D01*
X127001680Y-138474727D01*
X127086049Y-138271040D01*
X129164091Y-138271040D01*
X129258930Y-138535881D01*
X129403615Y-138777131D01*
X129592586Y-138985519D01*
X129818580Y-139153037D01*
X130072913Y-139273246D01*
X130206961Y-139313904D01*
X130429000Y-139191915D01*
X130429000Y-138049000D01*
X130683000Y-138049000D01*
X130683000Y-139191915D01*
X130905039Y-139313904D01*
X131039087Y-139273246D01*
X131293420Y-139153037D01*
X131519414Y-138985519D01*
X131708385Y-138777131D01*
X131853070Y-138535881D01*
X131947909Y-138271040D01*
X131826624Y-138049000D01*
X130683000Y-138049000D01*
X130429000Y-138049000D01*
X129285376Y-138049000D01*
X129164091Y-138271040D01*
X127086049Y-138271040D01*
X127109853Y-138213574D01*
X127165000Y-137936335D01*
X127165000Y-137653665D01*
X127148947Y-137572960D01*
X129164091Y-137572960D01*
X129285376Y-137795000D01*
X130429000Y-137795000D01*
X130429000Y-136652085D01*
X130683000Y-136652085D01*
X130683000Y-137795000D01*
X131826624Y-137795000D01*
X131947909Y-137572960D01*
X131853070Y-137308119D01*
X131708385Y-137066869D01*
X131519414Y-136858481D01*
X131293420Y-136690963D01*
X131039087Y-136570754D01*
X130905039Y-136530096D01*
X130683000Y-136652085D01*
X130429000Y-136652085D01*
X130206961Y-136530096D01*
X130072913Y-136570754D01*
X129818580Y-136690963D01*
X129592586Y-136858481D01*
X129403615Y-137066869D01*
X129258930Y-137308119D01*
X129164091Y-137572960D01*
X127148947Y-137572960D01*
X127109853Y-137376426D01*
X127001680Y-137115273D01*
X126844637Y-136880241D01*
X126644759Y-136680363D01*
X126409727Y-136523320D01*
X126148574Y-136415147D01*
X125871335Y-136360000D01*
X125588665Y-136360000D01*
X125311426Y-136415147D01*
X125050273Y-136523320D01*
X124815241Y-136680363D01*
X124615363Y-136880241D01*
X124458320Y-137115273D01*
X124350147Y-137376426D01*
X124295000Y-137653665D01*
X110685000Y-137653665D01*
X110685000Y-131337098D01*
X112931000Y-131337098D01*
X112931000Y-131806902D01*
X113022654Y-132267679D01*
X113202440Y-132701721D01*
X113463450Y-133092349D01*
X113795651Y-133424550D01*
X114186279Y-133685560D01*
X114620321Y-133865346D01*
X115081098Y-133957000D01*
X115550902Y-133957000D01*
X116011679Y-133865346D01*
X116445721Y-133685560D01*
X116836349Y-133424550D01*
X117168550Y-133092349D01*
X117429560Y-132701721D01*
X117561993Y-132382000D01*
X150498212Y-132382000D01*
X150538000Y-132385919D01*
X150577788Y-132382000D01*
X150577791Y-132382000D01*
X150696788Y-132370280D01*
X150849473Y-132323963D01*
X150990189Y-132248749D01*
X151113528Y-132147528D01*
X151138900Y-132116612D01*
X155255512Y-128000000D01*
X162361928Y-128000000D01*
X162365000Y-128964250D01*
X162523750Y-129123000D01*
X164373000Y-129123000D01*
X164373000Y-127523750D01*
X164627000Y-127523750D01*
X164627000Y-129123000D01*
X166476250Y-129123000D01*
X166635000Y-128964250D01*
X166638072Y-128000000D01*
X166625812Y-127875518D01*
X166589502Y-127755820D01*
X166530537Y-127645506D01*
X166451185Y-127548815D01*
X166354494Y-127469463D01*
X166244180Y-127410498D01*
X166124482Y-127374188D01*
X166000000Y-127361928D01*
X164785750Y-127365000D01*
X164627000Y-127523750D01*
X164373000Y-127523750D01*
X164214250Y-127365000D01*
X163000000Y-127361928D01*
X162875518Y-127374188D01*
X162755820Y-127410498D01*
X162645506Y-127469463D01*
X162548815Y-127548815D01*
X162469463Y-127645506D01*
X162410498Y-127755820D01*
X162374188Y-127875518D01*
X162361928Y-128000000D01*
X155255512Y-128000000D01*
X160707441Y-122548072D01*
X163700000Y-122548072D01*
X163824482Y-122535812D01*
X163944180Y-122499502D01*
X164054494Y-122440537D01*
X164151185Y-122361185D01*
X164230537Y-122264494D01*
X164289502Y-122154180D01*
X164325812Y-122034482D01*
X164338072Y-121910000D01*
X164338072Y-116910000D01*
X164325812Y-116785518D01*
X164289502Y-116665820D01*
X164230537Y-116555506D01*
X164151185Y-116458815D01*
X164054494Y-116379463D01*
X163944180Y-116320498D01*
X163824482Y-116284188D01*
X163700000Y-116271928D01*
X160200000Y-116271928D01*
X160075518Y-116284188D01*
X159955820Y-116320498D01*
X159845506Y-116379463D01*
X159748815Y-116458815D01*
X159669463Y-116555506D01*
X159610498Y-116665820D01*
X159574188Y-116785518D01*
X159561928Y-116910000D01*
X159561928Y-121402559D01*
X150202488Y-130762000D01*
X140274389Y-130762000D01*
X140275003Y-130759976D01*
X140286000Y-130648323D01*
X140286000Y-130648314D01*
X140289676Y-130610991D01*
X140286000Y-130573668D01*
X140286000Y-129929072D01*
X140306000Y-129929072D01*
X140430482Y-129916812D01*
X140550180Y-129880502D01*
X140660494Y-129821537D01*
X140757185Y-129742185D01*
X140836537Y-129645494D01*
X140895502Y-129535180D01*
X140931812Y-129415482D01*
X140944072Y-129291000D01*
X140944072Y-128826000D01*
X141589300Y-128826000D01*
X141749744Y-128933205D01*
X141938102Y-129011226D01*
X142138061Y-129051000D01*
X142341939Y-129051000D01*
X142541898Y-129011226D01*
X142730256Y-128933205D01*
X142899774Y-128819937D01*
X143043937Y-128675774D01*
X143157205Y-128506256D01*
X143235226Y-128317898D01*
X143275000Y-128117939D01*
X143275000Y-127914061D01*
X143235226Y-127714102D01*
X143157205Y-127525744D01*
X143043937Y-127356226D01*
X142899774Y-127212063D01*
X142730256Y-127098795D01*
X142541898Y-127020774D01*
X142341939Y-126981000D01*
X142138061Y-126981000D01*
X141938102Y-127020774D01*
X141749744Y-127098795D01*
X141589300Y-127206000D01*
X140795250Y-127206000D01*
X140782250Y-127193000D01*
X140700141Y-127193000D01*
X140660494Y-127160463D01*
X140550180Y-127101498D01*
X140430482Y-127065188D01*
X140306000Y-127052928D01*
X139379000Y-127052928D01*
X139379000Y-126939000D01*
X139399000Y-126939000D01*
X139399000Y-126264750D01*
X139653000Y-126264750D01*
X139653000Y-126939000D01*
X140782250Y-126939000D01*
X140941000Y-126780250D01*
X140944072Y-126741000D01*
X140931812Y-126616518D01*
X140895502Y-126496820D01*
X140836537Y-126386506D01*
X140757185Y-126289815D01*
X140660494Y-126210463D01*
X140550180Y-126151498D01*
X140430482Y-126115188D01*
X140306000Y-126102928D01*
X139811750Y-126106000D01*
X139653000Y-126264750D01*
X139399000Y-126264750D01*
X139240250Y-126106000D01*
X138746000Y-126102928D01*
X138621518Y-126115188D01*
X138501820Y-126151498D01*
X138391506Y-126210463D01*
X138294815Y-126289815D01*
X138215463Y-126386506D01*
X138176000Y-126460335D01*
X138136537Y-126386506D01*
X138057185Y-126289815D01*
X137960494Y-126210463D01*
X137850180Y-126151498D01*
X137730482Y-126115188D01*
X137606000Y-126102928D01*
X136046000Y-126102928D01*
X135921518Y-126115188D01*
X135801820Y-126151498D01*
X135691506Y-126210463D01*
X135594815Y-126289815D01*
X135581532Y-126306000D01*
X132420695Y-126306000D01*
X132383370Y-126302324D01*
X132346045Y-126306000D01*
X132346037Y-126306000D01*
X132234384Y-126316997D01*
X132091123Y-126360454D01*
X131959094Y-126431026D01*
X131843369Y-126525999D01*
X131819571Y-126554998D01*
X131598982Y-126775586D01*
X131470759Y-126647363D01*
X131235727Y-126490320D01*
X130974574Y-126382147D01*
X130697335Y-126327000D01*
X130414665Y-126327000D01*
X130137426Y-126382147D01*
X129876273Y-126490320D01*
X129641241Y-126647363D01*
X129441363Y-126847241D01*
X129422815Y-126875000D01*
X126948043Y-126875000D01*
X126844637Y-126720241D01*
X126644759Y-126520363D01*
X126409727Y-126363320D01*
X126148574Y-126255147D01*
X125871335Y-126200000D01*
X125588665Y-126200000D01*
X125311426Y-126255147D01*
X125050273Y-126363320D01*
X124815241Y-126520363D01*
X124615363Y-126720241D01*
X124458320Y-126955273D01*
X124350147Y-127216426D01*
X124295000Y-127493665D01*
X124295000Y-127776335D01*
X124350147Y-128053574D01*
X124458320Y-128314727D01*
X124615363Y-128549759D01*
X124815241Y-128749637D01*
X125050273Y-128906680D01*
X125311426Y-129014853D01*
X125588665Y-129070000D01*
X125871335Y-129070000D01*
X126148574Y-129014853D01*
X126409727Y-128906680D01*
X126644759Y-128749637D01*
X126844637Y-128549759D01*
X126948043Y-128395000D01*
X129264965Y-128395000D01*
X129284320Y-128441727D01*
X129441363Y-128676759D01*
X129641241Y-128876637D01*
X129876273Y-129033680D01*
X130137426Y-129141853D01*
X130414665Y-129197000D01*
X130697335Y-129197000D01*
X130974574Y-129141853D01*
X131235727Y-129033680D01*
X131470759Y-128876637D01*
X131670637Y-128676759D01*
X131777519Y-128516798D01*
X131836356Y-128511003D01*
X131979617Y-128467546D01*
X132111646Y-128396974D01*
X132227371Y-128302001D01*
X132251173Y-128272998D01*
X132698172Y-127826000D01*
X135506750Y-127826000D01*
X135569750Y-127889000D01*
X135651859Y-127889000D01*
X135691506Y-127921537D01*
X135801820Y-127980502D01*
X135918841Y-128016000D01*
X135801820Y-128051498D01*
X135691506Y-128110463D01*
X135651859Y-128143000D01*
X135569750Y-128143000D01*
X135411000Y-128301750D01*
X135407928Y-128341000D01*
X135420188Y-128465482D01*
X135427929Y-128491000D01*
X135420188Y-128516518D01*
X135407928Y-128641000D01*
X135407928Y-129291000D01*
X135420188Y-129415482D01*
X135456498Y-129535180D01*
X135515463Y-129645494D01*
X135594815Y-129742185D01*
X135691506Y-129821537D01*
X135767168Y-129861980D01*
X120776781Y-129861980D01*
X120775000Y-129860199D01*
X120775000Y-126046211D01*
X121151202Y-125670010D01*
X130957668Y-125670010D01*
X130994990Y-125673686D01*
X131032312Y-125670010D01*
X131032323Y-125670010D01*
X131143976Y-125659013D01*
X131287237Y-125615556D01*
X131419266Y-125544984D01*
X131534991Y-125450011D01*
X131558794Y-125421007D01*
X133350000Y-123629802D01*
X135326205Y-125606008D01*
X135349999Y-125635001D01*
X135378992Y-125658795D01*
X135378996Y-125658799D01*
X135420265Y-125692667D01*
X135465724Y-125729974D01*
X135597753Y-125800546D01*
X135741014Y-125844003D01*
X135852667Y-125855000D01*
X135852676Y-125855000D01*
X135889999Y-125858676D01*
X135927322Y-125855000D01*
X149187678Y-125855000D01*
X149225000Y-125858676D01*
X149262322Y-125855000D01*
X149262333Y-125855000D01*
X149373986Y-125844003D01*
X149517247Y-125800546D01*
X149649276Y-125729974D01*
X149765001Y-125635001D01*
X149788804Y-125605997D01*
X151641003Y-123753799D01*
X151670001Y-123730001D01*
X151764974Y-123614276D01*
X151835546Y-123482247D01*
X151879003Y-123338986D01*
X151890000Y-123227333D01*
X151890000Y-123227323D01*
X151893676Y-123190000D01*
X151890000Y-123152677D01*
X151890000Y-121910000D01*
X153111928Y-121910000D01*
X153124188Y-122034482D01*
X153160498Y-122154180D01*
X153219463Y-122264494D01*
X153298815Y-122361185D01*
X153395506Y-122440537D01*
X153505820Y-122499502D01*
X153625518Y-122535812D01*
X153750000Y-122548072D01*
X155214250Y-122545000D01*
X155373000Y-122386250D01*
X155373000Y-119537000D01*
X155627000Y-119537000D01*
X155627000Y-122386250D01*
X155785750Y-122545000D01*
X157250000Y-122548072D01*
X157374482Y-122535812D01*
X157494180Y-122499502D01*
X157604494Y-122440537D01*
X157701185Y-122361185D01*
X157780537Y-122264494D01*
X157839502Y-122154180D01*
X157875812Y-122034482D01*
X157888072Y-121910000D01*
X157885000Y-119695750D01*
X157726250Y-119537000D01*
X155627000Y-119537000D01*
X155373000Y-119537000D01*
X153273750Y-119537000D01*
X153115000Y-119695750D01*
X153111928Y-121910000D01*
X151890000Y-121910000D01*
X151890000Y-117154801D01*
X152134801Y-116910000D01*
X153111928Y-116910000D01*
X153115000Y-119124250D01*
X153273750Y-119283000D01*
X155373000Y-119283000D01*
X155373000Y-116433750D01*
X155627000Y-116433750D01*
X155627000Y-119283000D01*
X157726250Y-119283000D01*
X157885000Y-119124250D01*
X157888072Y-116910000D01*
X157875812Y-116785518D01*
X157839502Y-116665820D01*
X157780537Y-116555506D01*
X157701185Y-116458815D01*
X157604494Y-116379463D01*
X157494180Y-116320498D01*
X157374482Y-116284188D01*
X157250000Y-116271928D01*
X155785750Y-116275000D01*
X155627000Y-116433750D01*
X155373000Y-116433750D01*
X155214250Y-116275000D01*
X153750000Y-116271928D01*
X153625518Y-116284188D01*
X153505820Y-116320498D01*
X153395506Y-116379463D01*
X153298815Y-116458815D01*
X153219463Y-116555506D01*
X153160498Y-116665820D01*
X153124188Y-116785518D01*
X153111928Y-116910000D01*
X152134801Y-116910000D01*
X155254802Y-113790000D01*
X163513789Y-113790000D01*
X167064990Y-117341202D01*
X167064992Y-124609069D01*
X167061315Y-124646401D01*
X167064992Y-124683733D01*
X167064992Y-124683734D01*
X167075989Y-124795387D01*
X167078224Y-124802754D01*
X167119445Y-124938647D01*
X167190017Y-125070677D01*
X167261192Y-125157403D01*
X167284991Y-125186402D01*
X167313989Y-125210200D01*
X168794806Y-126691018D01*
X168818600Y-126720011D01*
X168847593Y-126743805D01*
X168847597Y-126743809D01*
X168934324Y-126814984D01*
X169066353Y-126885556D01*
X169209614Y-126929013D01*
X169214092Y-126929454D01*
X169321268Y-126940010D01*
X169321275Y-126940010D01*
X169358600Y-126943686D01*
X169395925Y-126940010D01*
X178584069Y-126940008D01*
X178621401Y-126943685D01*
X178668968Y-126939000D01*
X178770387Y-126929011D01*
X178813843Y-126915829D01*
X178913647Y-126885555D01*
X179045677Y-126814983D01*
X179132403Y-126743808D01*
X179132404Y-126743807D01*
X179161402Y-126720009D01*
X179185200Y-126691011D01*
X181206013Y-124670199D01*
X181235011Y-124646401D01*
X181286224Y-124583998D01*
X181329984Y-124530677D01*
X181400556Y-124398647D01*
X181417292Y-124343475D01*
X181444013Y-124255386D01*
X181455010Y-124143733D01*
X181455010Y-124143723D01*
X181458686Y-124106400D01*
X181455010Y-124069077D01*
X181455010Y-86859791D01*
X182418592Y-85896210D01*
X182638740Y-85940000D01*
X182931260Y-85940000D01*
X183218158Y-85882932D01*
X183488411Y-85770990D01*
X183731632Y-85608475D01*
X183938475Y-85401632D01*
X184100990Y-85158411D01*
X184212932Y-84888158D01*
X184270000Y-84601260D01*
X184270000Y-84308740D01*
X184212932Y-84021842D01*
X184100990Y-83751589D01*
X183938475Y-83508368D01*
X183731632Y-83301525D01*
X183488411Y-83139010D01*
X183218158Y-83027068D01*
X182931260Y-82970000D01*
X182638740Y-82970000D01*
X182351842Y-83027068D01*
X182081589Y-83139010D01*
X181838368Y-83301525D01*
X181631525Y-83508368D01*
X181515000Y-83682760D01*
X181398475Y-83508368D01*
X181191632Y-83301525D01*
X180948411Y-83139010D01*
X180678158Y-83027068D01*
X180391260Y-82970000D01*
X180098740Y-82970000D01*
X179811842Y-83027068D01*
X179541589Y-83139010D01*
X179298368Y-83301525D01*
X179091525Y-83508368D01*
X178975000Y-83682760D01*
X178858475Y-83508368D01*
X178651632Y-83301525D01*
X178515000Y-83210230D01*
X178515000Y-82494788D01*
X178518919Y-82455000D01*
X178515000Y-82415209D01*
X178503280Y-82296212D01*
X178456963Y-82143527D01*
X178381750Y-82002812D01*
X178381749Y-82002810D01*
X178305893Y-81910380D01*
X178280528Y-81879472D01*
X178249619Y-81854106D01*
X177130899Y-80735387D01*
X177105528Y-80704472D01*
X176982189Y-80603251D01*
X176841473Y-80528037D01*
X176688788Y-80481720D01*
X176569791Y-80470000D01*
X176569788Y-80470000D01*
X176530000Y-80466081D01*
X176490212Y-80470000D01*
X163362087Y-80470000D01*
X163350812Y-80355518D01*
X163314502Y-80235820D01*
X163255537Y-80125506D01*
X163176185Y-80028815D01*
X163079494Y-79949463D01*
X162969180Y-79890498D01*
X162849482Y-79854188D01*
X162725000Y-79841928D01*
X162717785Y-79841928D01*
X162738097Y-79772702D01*
X161925000Y-78959605D01*
X161111903Y-79772702D01*
X161132215Y-79841928D01*
X161125000Y-79841928D01*
X161000518Y-79854188D01*
X160880820Y-79890498D01*
X160770506Y-79949463D01*
X160673815Y-80028815D01*
X160594463Y-80125506D01*
X160535498Y-80235820D01*
X160499188Y-80355518D01*
X160486928Y-80480000D01*
X160486928Y-81695001D01*
X138514786Y-81695001D01*
X138474998Y-81691082D01*
X138435210Y-81695001D01*
X138435208Y-81695001D01*
X138316211Y-81706721D01*
X138163526Y-81753038D01*
X138163126Y-81753252D01*
X138022809Y-81828252D01*
X137967209Y-81873882D01*
X137899471Y-81929473D01*
X137874106Y-81960381D01*
X131744488Y-88090000D01*
X121324787Y-88090000D01*
X121284999Y-88086081D01*
X121245211Y-88090000D01*
X121245209Y-88090000D01*
X121126212Y-88101720D01*
X120973527Y-88148037D01*
X120832811Y-88223251D01*
X120709472Y-88324472D01*
X120684107Y-88355380D01*
X118200387Y-90839100D01*
X118169472Y-90864472D01*
X118099703Y-90949487D01*
X118068251Y-90987811D01*
X118050284Y-91021426D01*
X117993037Y-91128528D01*
X117946720Y-91281213D01*
X117942558Y-91323475D01*
X117931081Y-91440000D01*
X117935000Y-91479788D01*
X117935001Y-118705202D01*
X117931081Y-118745000D01*
X117946721Y-118903787D01*
X117993038Y-119056473D01*
X118068251Y-119197189D01*
X118122292Y-119263037D01*
X118169473Y-119320528D01*
X118200383Y-119345895D01*
X119205000Y-120350513D01*
X119205000Y-120610212D01*
X119201081Y-120650000D01*
X119205000Y-120689788D01*
X119205000Y-120689791D01*
X119216720Y-120808788D01*
X119230717Y-120854930D01*
X119215000Y-121014508D01*
X119215000Y-121555491D01*
X119235764Y-121766308D01*
X119317818Y-122036807D01*
X119451068Y-122286100D01*
X119630392Y-122504607D01*
X119848899Y-122683932D01*
X120098192Y-122817182D01*
X120368691Y-122899236D01*
X120650000Y-122926943D01*
X120931308Y-122899236D01*
X121201807Y-122817182D01*
X121451100Y-122683932D01*
X121669607Y-122504608D01*
X121848932Y-122286101D01*
X121918122Y-122156655D01*
X121925570Y-122174227D01*
X122084327Y-122407662D01*
X122285575Y-122605639D01*
X122521579Y-122760551D01*
X122783270Y-122866444D01*
X122840961Y-122876904D01*
X123063000Y-122754915D01*
X123063000Y-121412000D01*
X123043000Y-121412000D01*
X123043000Y-121158000D01*
X123063000Y-121158000D01*
X123063000Y-119815085D01*
X122840961Y-119693096D01*
X122783270Y-119703556D01*
X122521579Y-119809449D01*
X122285575Y-119964361D01*
X122084327Y-120162338D01*
X121925570Y-120395773D01*
X121918122Y-120413345D01*
X121848932Y-120283899D01*
X121669608Y-120065392D01*
X121451101Y-119886068D01*
X121201808Y-119752818D01*
X120931309Y-119670764D01*
X120739345Y-119651857D01*
X120731951Y-119638024D01*
X120691749Y-119562810D01*
X120637350Y-119496525D01*
X120590528Y-119439472D01*
X120559619Y-119414106D01*
X119555000Y-118409488D01*
X119555000Y-99552742D01*
X119630392Y-99644607D01*
X119848899Y-99823932D01*
X120098192Y-99957182D01*
X120368691Y-100039236D01*
X120650000Y-100066943D01*
X120931308Y-100039236D01*
X121201807Y-99957182D01*
X121451100Y-99823932D01*
X121669607Y-99644608D01*
X121848932Y-99426101D01*
X121920000Y-99293142D01*
X121991068Y-99426100D01*
X122170392Y-99644607D01*
X122388899Y-99823932D01*
X122638192Y-99957182D01*
X122908691Y-100039236D01*
X123190000Y-100066943D01*
X123471308Y-100039236D01*
X123741807Y-99957182D01*
X123991100Y-99823932D01*
X124209607Y-99644608D01*
X124388932Y-99426101D01*
X124460000Y-99293142D01*
X124531068Y-99426100D01*
X124710392Y-99644607D01*
X124928899Y-99823932D01*
X125178192Y-99957182D01*
X125448691Y-100039236D01*
X125730000Y-100066943D01*
X126011308Y-100039236D01*
X126281807Y-99957182D01*
X126531100Y-99823932D01*
X126749607Y-99644608D01*
X126928932Y-99426101D01*
X127000000Y-99293142D01*
X127071068Y-99426100D01*
X127250392Y-99644607D01*
X127468899Y-99823932D01*
X127718192Y-99957182D01*
X127988691Y-100039236D01*
X128270000Y-100066943D01*
X128551308Y-100039236D01*
X128821807Y-99957182D01*
X129071100Y-99823932D01*
X129289607Y-99644608D01*
X129468932Y-99426101D01*
X129540000Y-99293142D01*
X129611068Y-99426100D01*
X129790392Y-99644607D01*
X130008899Y-99823932D01*
X130258192Y-99957182D01*
X130528691Y-100039236D01*
X130810000Y-100066943D01*
X131091308Y-100039236D01*
X131361807Y-99957182D01*
X131611100Y-99823932D01*
X131829607Y-99644608D01*
X132008932Y-99426101D01*
X132080000Y-99293142D01*
X132151068Y-99426100D01*
X132330392Y-99644607D01*
X132548899Y-99823932D01*
X132798192Y-99957182D01*
X133068691Y-100039236D01*
X133350000Y-100066943D01*
X133631308Y-100039236D01*
X133901807Y-99957182D01*
X134151100Y-99823932D01*
X134369607Y-99644608D01*
X134548932Y-99426101D01*
X134620000Y-99293142D01*
X134691068Y-99426100D01*
X134870392Y-99644607D01*
X135088899Y-99823932D01*
X135338192Y-99957182D01*
X135608691Y-100039236D01*
X135890000Y-100066943D01*
X136171308Y-100039236D01*
X136441807Y-99957182D01*
X136691100Y-99823932D01*
X136852441Y-99691523D01*
X136899463Y-99779494D01*
X136978815Y-99876185D01*
X137075506Y-99955537D01*
X137185820Y-100014502D01*
X137305518Y-100050812D01*
X137430000Y-100063072D01*
X139430000Y-100063072D01*
X139554482Y-100050812D01*
X139573000Y-100045195D01*
X139573000Y-120215746D01*
X139449608Y-120065392D01*
X139231101Y-119886068D01*
X138981808Y-119752818D01*
X138711309Y-119670764D01*
X138430000Y-119643057D01*
X138148692Y-119670764D01*
X137878193Y-119752818D01*
X137628900Y-119886068D01*
X137410393Y-120065392D01*
X137231068Y-120283899D01*
X137160000Y-120416858D01*
X137088932Y-120283899D01*
X136909608Y-120065392D01*
X136691101Y-119886068D01*
X136441808Y-119752818D01*
X136171309Y-119670764D01*
X135890000Y-119643057D01*
X135608692Y-119670764D01*
X135338193Y-119752818D01*
X135088900Y-119886068D01*
X134939491Y-120008685D01*
X134379797Y-119448992D01*
X134355995Y-119419989D01*
X134240270Y-119325016D01*
X134108241Y-119254444D01*
X133964980Y-119210987D01*
X133853327Y-119199990D01*
X133853316Y-119199990D01*
X133815994Y-119196314D01*
X133778672Y-119199990D01*
X130922332Y-119199990D01*
X130885009Y-119196314D01*
X130847687Y-119199990D01*
X130847677Y-119199990D01*
X130736024Y-119210987D01*
X130592763Y-119254444D01*
X130460734Y-119325016D01*
X130345009Y-119419989D01*
X130321206Y-119448993D01*
X130299003Y-119471196D01*
X130269999Y-119494999D01*
X130230376Y-119543280D01*
X130175026Y-119610724D01*
X130125421Y-119703528D01*
X130104454Y-119742754D01*
X130071059Y-119852843D01*
X130008900Y-119886068D01*
X129790393Y-120065392D01*
X129611068Y-120283899D01*
X129540000Y-120416858D01*
X129468932Y-120283899D01*
X129289608Y-120065392D01*
X129071101Y-119886068D01*
X128821808Y-119752818D01*
X128551309Y-119670764D01*
X128270000Y-119643057D01*
X127988692Y-119670764D01*
X127718193Y-119752818D01*
X127468900Y-119886068D01*
X127250393Y-120065392D01*
X127071068Y-120283899D01*
X127000000Y-120416858D01*
X126928932Y-120283899D01*
X126749608Y-120065392D01*
X126531101Y-119886068D01*
X126281808Y-119752818D01*
X126011309Y-119670764D01*
X125730000Y-119643057D01*
X125448692Y-119670764D01*
X125178193Y-119752818D01*
X124928900Y-119886068D01*
X124710393Y-120065392D01*
X124531068Y-120283899D01*
X124461878Y-120413345D01*
X124454430Y-120395773D01*
X124295673Y-120162338D01*
X124094425Y-119964361D01*
X123858421Y-119809449D01*
X123596730Y-119703556D01*
X123539039Y-119693096D01*
X123317000Y-119815085D01*
X123317000Y-121158000D01*
X123337000Y-121158000D01*
X123337000Y-121412000D01*
X123317000Y-121412000D01*
X123317000Y-122754915D01*
X123539039Y-122876904D01*
X123596730Y-122866444D01*
X123858421Y-122760551D01*
X124094425Y-122605639D01*
X124295673Y-122407662D01*
X124454430Y-122174227D01*
X124461878Y-122156655D01*
X124531068Y-122286100D01*
X124710392Y-122504607D01*
X124928899Y-122683932D01*
X125178192Y-122817182D01*
X125448691Y-122899236D01*
X125730000Y-122926943D01*
X126011308Y-122899236D01*
X126281807Y-122817182D01*
X126531100Y-122683932D01*
X126749607Y-122504608D01*
X126928932Y-122286101D01*
X127000000Y-122153142D01*
X127071068Y-122286100D01*
X127250392Y-122504607D01*
X127468899Y-122683932D01*
X127718192Y-122817182D01*
X127988691Y-122899236D01*
X128270000Y-122926943D01*
X128551308Y-122899236D01*
X128821807Y-122817182D01*
X129071100Y-122683932D01*
X129289607Y-122504608D01*
X129468932Y-122286101D01*
X129540000Y-122153142D01*
X129611068Y-122286100D01*
X129779213Y-122490985D01*
X128570199Y-123700000D01*
X120687322Y-123700000D01*
X120649999Y-123696324D01*
X120612676Y-123700000D01*
X120612667Y-123700000D01*
X120501014Y-123710997D01*
X120357753Y-123754454D01*
X120225724Y-123825026D01*
X120109999Y-123919999D01*
X120086201Y-123948997D01*
X118868998Y-125166201D01*
X118840000Y-125189999D01*
X118816202Y-125218997D01*
X118816201Y-125218998D01*
X118745026Y-125305724D01*
X118674454Y-125437754D01*
X118649726Y-125519275D01*
X118630998Y-125581014D01*
X118620001Y-125692667D01*
X118616324Y-125730000D01*
X118620001Y-125767332D01*
X118620000Y-130762000D01*
X117561993Y-130762000D01*
X117429560Y-130442279D01*
X117168550Y-130051651D01*
X116836349Y-129719450D01*
X116445721Y-129458440D01*
X116011679Y-129278654D01*
X115550902Y-129187000D01*
X115081098Y-129187000D01*
X114620321Y-129278654D01*
X114186279Y-129458440D01*
X113795651Y-129719450D01*
X113463450Y-130051651D01*
X113202440Y-130442279D01*
X113022654Y-130876321D01*
X112931000Y-131337098D01*
X110685000Y-131337098D01*
X110685000Y-91298665D01*
X114135000Y-91298665D01*
X114135000Y-91581335D01*
X114190147Y-91858574D01*
X114298320Y-92119727D01*
X114455363Y-92354759D01*
X114655241Y-92554637D01*
X114890273Y-92711680D01*
X115151426Y-92819853D01*
X115428665Y-92875000D01*
X115711335Y-92875000D01*
X115988574Y-92819853D01*
X116249727Y-92711680D01*
X116484759Y-92554637D01*
X116684637Y-92354759D01*
X116841680Y-92119727D01*
X116949853Y-91858574D01*
X117005000Y-91581335D01*
X117005000Y-91298665D01*
X116949853Y-91021426D01*
X116841680Y-90760273D01*
X116684637Y-90525241D01*
X116484759Y-90325363D01*
X116249727Y-90168320D01*
X115988574Y-90060147D01*
X115711335Y-90005000D01*
X115428665Y-90005000D01*
X115151426Y-90060147D01*
X114890273Y-90168320D01*
X114655241Y-90325363D01*
X114455363Y-90525241D01*
X114298320Y-90760273D01*
X114190147Y-91021426D01*
X114135000Y-91298665D01*
X110685000Y-91298665D01*
X110685000Y-81138665D01*
X114135000Y-81138665D01*
X114135000Y-81421335D01*
X114190147Y-81698574D01*
X114298320Y-81959727D01*
X114455363Y-82194759D01*
X114655241Y-82394637D01*
X114890273Y-82551680D01*
X115151426Y-82659853D01*
X115428665Y-82715000D01*
X115711335Y-82715000D01*
X115988574Y-82659853D01*
X116249727Y-82551680D01*
X116484759Y-82394637D01*
X116684637Y-82194759D01*
X116841680Y-81959727D01*
X116949853Y-81698574D01*
X117005000Y-81421335D01*
X117005000Y-81138665D01*
X120485000Y-81138665D01*
X120485000Y-81421335D01*
X120540147Y-81698574D01*
X120648320Y-81959727D01*
X120805363Y-82194759D01*
X121005241Y-82394637D01*
X121240273Y-82551680D01*
X121501426Y-82659853D01*
X121778665Y-82715000D01*
X122061335Y-82715000D01*
X122338574Y-82659853D01*
X122599727Y-82551680D01*
X122834759Y-82394637D01*
X123034637Y-82194759D01*
X123191680Y-81959727D01*
X123299853Y-81698574D01*
X123355000Y-81421335D01*
X123355000Y-81138665D01*
X126835000Y-81138665D01*
X126835000Y-81421335D01*
X126890147Y-81698574D01*
X126998320Y-81959727D01*
X127155363Y-82194759D01*
X127355241Y-82394637D01*
X127590273Y-82551680D01*
X127851426Y-82659853D01*
X128128665Y-82715000D01*
X128411335Y-82715000D01*
X128688574Y-82659853D01*
X128949727Y-82551680D01*
X129184759Y-82394637D01*
X129384637Y-82194759D01*
X129541680Y-81959727D01*
X129649853Y-81698574D01*
X129705000Y-81421335D01*
X129705000Y-81138665D01*
X133185000Y-81138665D01*
X133185000Y-81421335D01*
X133240147Y-81698574D01*
X133348320Y-81959727D01*
X133505363Y-82194759D01*
X133705241Y-82394637D01*
X133940273Y-82551680D01*
X134201426Y-82659853D01*
X134478665Y-82715000D01*
X134761335Y-82715000D01*
X135038574Y-82659853D01*
X135299727Y-82551680D01*
X135534759Y-82394637D01*
X135734637Y-82194759D01*
X135891680Y-81959727D01*
X135999853Y-81698574D01*
X136055000Y-81421335D01*
X136055000Y-81138665D01*
X135999853Y-80861426D01*
X135891680Y-80600273D01*
X135734637Y-80365241D01*
X135534759Y-80165363D01*
X135299727Y-80008320D01*
X135038574Y-79900147D01*
X134761335Y-79845000D01*
X134478665Y-79845000D01*
X134201426Y-79900147D01*
X133940273Y-80008320D01*
X133705241Y-80165363D01*
X133505363Y-80365241D01*
X133348320Y-80600273D01*
X133240147Y-80861426D01*
X133185000Y-81138665D01*
X129705000Y-81138665D01*
X129649853Y-80861426D01*
X129541680Y-80600273D01*
X129384637Y-80365241D01*
X129184759Y-80165363D01*
X128949727Y-80008320D01*
X128688574Y-79900147D01*
X128411335Y-79845000D01*
X128128665Y-79845000D01*
X127851426Y-79900147D01*
X127590273Y-80008320D01*
X127355241Y-80165363D01*
X127155363Y-80365241D01*
X126998320Y-80600273D01*
X126890147Y-80861426D01*
X126835000Y-81138665D01*
X123355000Y-81138665D01*
X123299853Y-80861426D01*
X123191680Y-80600273D01*
X123034637Y-80365241D01*
X122834759Y-80165363D01*
X122599727Y-80008320D01*
X122338574Y-79900147D01*
X122061335Y-79845000D01*
X121778665Y-79845000D01*
X121501426Y-79900147D01*
X121240273Y-80008320D01*
X121005241Y-80165363D01*
X120805363Y-80365241D01*
X120648320Y-80600273D01*
X120540147Y-80861426D01*
X120485000Y-81138665D01*
X117005000Y-81138665D01*
X116949853Y-80861426D01*
X116841680Y-80600273D01*
X116684637Y-80365241D01*
X116484759Y-80165363D01*
X116249727Y-80008320D01*
X115988574Y-79900147D01*
X115711335Y-79845000D01*
X115428665Y-79845000D01*
X115151426Y-79900147D01*
X114890273Y-80008320D01*
X114655241Y-80165363D01*
X114455363Y-80365241D01*
X114298320Y-80600273D01*
X114190147Y-80861426D01*
X114135000Y-81138665D01*
X110685000Y-81138665D01*
X110685000Y-78850512D01*
X160484783Y-78850512D01*
X160526213Y-79130130D01*
X160621397Y-79396292D01*
X160688329Y-79521514D01*
X160932298Y-79593097D01*
X161745395Y-78780000D01*
X162104605Y-78780000D01*
X162917702Y-79593097D01*
X163161671Y-79521514D01*
X163282571Y-79266004D01*
X163351300Y-78991816D01*
X163365217Y-78709488D01*
X163323787Y-78429870D01*
X163228603Y-78163708D01*
X163161671Y-78038486D01*
X162917702Y-77966903D01*
X162104605Y-78780000D01*
X161745395Y-78780000D01*
X160932298Y-77966903D01*
X160688329Y-78038486D01*
X160567429Y-78293996D01*
X160498700Y-78568184D01*
X160484783Y-78850512D01*
X110685000Y-78850512D01*
X110685000Y-77787298D01*
X161111903Y-77787298D01*
X161925000Y-78600395D01*
X162738097Y-77787298D01*
X162666514Y-77543329D01*
X162411004Y-77422429D01*
X162136816Y-77353700D01*
X161854488Y-77339783D01*
X161574870Y-77381213D01*
X161308708Y-77476397D01*
X161183486Y-77543329D01*
X161111903Y-77787298D01*
X110685000Y-77787298D01*
X110685000Y-72553123D01*
X110810173Y-72678296D01*
X111159854Y-72911945D01*
X111548400Y-73072886D01*
X111960877Y-73154933D01*
X112381435Y-73154933D01*
X112793912Y-73072886D01*
X113182458Y-72911945D01*
X113532139Y-72678296D01*
X113829519Y-72380916D01*
X114063168Y-72031235D01*
X114224109Y-71642689D01*
X114306156Y-71230212D01*
X114306156Y-70809654D01*
X114224109Y-70397177D01*
X114063168Y-70008631D01*
X113829519Y-69658950D01*
X113532139Y-69361570D01*
X113182458Y-69127921D01*
X112793912Y-68966980D01*
X112381435Y-68884933D01*
X111960877Y-68884933D01*
X111548400Y-68966980D01*
X111159854Y-69127921D01*
X110810173Y-69361570D01*
X110685000Y-69486743D01*
X110685000Y-41552943D01*
X110809653Y-41677596D01*
X111159334Y-41911245D01*
X111547880Y-42072186D01*
X111960357Y-42154233D01*
X112380915Y-42154233D01*
X112793392Y-42072186D01*
X113181938Y-41911245D01*
X113531619Y-41677596D01*
X113828999Y-41380216D01*
X114062648Y-41030535D01*
X114223589Y-40641989D01*
X114305636Y-40229512D01*
X114305636Y-39808954D01*
X114252899Y-39543825D01*
X142035636Y-39543825D01*
X142035636Y-40494640D01*
X142057846Y-40720145D01*
X142145619Y-41009493D01*
X142288155Y-41276159D01*
X142479975Y-41509894D01*
X142713709Y-41701714D01*
X142980375Y-41844250D01*
X143269723Y-41932023D01*
X143570636Y-41961660D01*
X143871548Y-41932023D01*
X144160896Y-41844250D01*
X144427562Y-41701714D01*
X144661297Y-41509894D01*
X144840636Y-41291368D01*
X145019975Y-41509894D01*
X145253709Y-41701714D01*
X145520375Y-41844250D01*
X145809723Y-41932023D01*
X146110636Y-41961660D01*
X146411548Y-41932023D01*
X146700896Y-41844250D01*
X146967562Y-41701714D01*
X147201297Y-41509894D01*
X147380636Y-41291368D01*
X147559975Y-41509894D01*
X147793709Y-41701714D01*
X148060375Y-41844250D01*
X148349723Y-41932023D01*
X148650636Y-41961660D01*
X148951548Y-41932023D01*
X149240896Y-41844250D01*
X149507562Y-41701714D01*
X149741297Y-41509894D01*
X149920636Y-41291368D01*
X150099975Y-41509894D01*
X150333709Y-41701714D01*
X150600375Y-41844250D01*
X150889723Y-41932023D01*
X151190636Y-41961660D01*
X151491548Y-41932023D01*
X151780896Y-41844250D01*
X152047562Y-41701714D01*
X152281297Y-41509894D01*
X152460636Y-41291368D01*
X152639975Y-41509894D01*
X152873709Y-41701714D01*
X153140375Y-41844250D01*
X153429723Y-41932023D01*
X153730636Y-41961660D01*
X154031548Y-41932023D01*
X154320896Y-41844250D01*
X154587562Y-41701714D01*
X154821297Y-41509894D01*
X155000636Y-41291368D01*
X155179975Y-41509894D01*
X155413709Y-41701714D01*
X155680375Y-41844250D01*
X155969723Y-41932023D01*
X156270636Y-41961660D01*
X156571548Y-41932023D01*
X156860896Y-41844250D01*
X157127562Y-41701714D01*
X157361297Y-41509894D01*
X157540636Y-41291368D01*
X157719975Y-41509894D01*
X157953709Y-41701714D01*
X158220375Y-41844250D01*
X158509723Y-41932023D01*
X158810636Y-41961660D01*
X159111548Y-41932023D01*
X159400896Y-41844250D01*
X159667562Y-41701714D01*
X159901297Y-41509894D01*
X160080636Y-41291368D01*
X160259975Y-41509894D01*
X160493709Y-41701714D01*
X160760375Y-41844250D01*
X161049723Y-41932023D01*
X161350636Y-41961660D01*
X161651548Y-41932023D01*
X161940896Y-41844250D01*
X162207562Y-41701714D01*
X162441297Y-41509894D01*
X162620636Y-41291368D01*
X162799975Y-41509894D01*
X163033709Y-41701714D01*
X163300375Y-41844250D01*
X163589723Y-41932023D01*
X163890636Y-41961660D01*
X164191548Y-41932023D01*
X164480896Y-41844250D01*
X164747562Y-41701714D01*
X164981297Y-41509894D01*
X165160636Y-41291368D01*
X165339975Y-41509894D01*
X165573709Y-41701714D01*
X165840375Y-41844250D01*
X166129723Y-41932023D01*
X166430636Y-41961660D01*
X166731548Y-41932023D01*
X167020896Y-41844250D01*
X167287562Y-41701714D01*
X167521297Y-41509894D01*
X167700636Y-41291368D01*
X167879975Y-41509894D01*
X168113709Y-41701714D01*
X168380375Y-41844250D01*
X168669723Y-41932023D01*
X168970636Y-41961660D01*
X169271548Y-41932023D01*
X169560896Y-41844250D01*
X169827562Y-41701714D01*
X170061297Y-41509894D01*
X170240636Y-41291368D01*
X170419975Y-41509894D01*
X170653709Y-41701714D01*
X170920375Y-41844250D01*
X171209723Y-41932023D01*
X171510636Y-41961660D01*
X171811548Y-41932023D01*
X172100896Y-41844250D01*
X172367562Y-41701714D01*
X172601297Y-41509894D01*
X172780636Y-41291368D01*
X172959975Y-41509894D01*
X173193709Y-41701714D01*
X173460375Y-41844250D01*
X173749723Y-41932023D01*
X174050636Y-41961660D01*
X174351548Y-41932023D01*
X174640896Y-41844250D01*
X174907562Y-41701714D01*
X175141297Y-41509894D01*
X175320636Y-41291368D01*
X175499975Y-41509894D01*
X175733709Y-41701714D01*
X176000375Y-41844250D01*
X176289723Y-41932023D01*
X176590636Y-41961660D01*
X176891548Y-41932023D01*
X177180896Y-41844250D01*
X177447562Y-41701714D01*
X177681297Y-41509894D01*
X177860636Y-41291368D01*
X178039975Y-41509894D01*
X178273709Y-41701714D01*
X178540375Y-41844250D01*
X178829723Y-41932023D01*
X179130636Y-41961660D01*
X179431548Y-41932023D01*
X179720896Y-41844250D01*
X179987562Y-41701714D01*
X180176141Y-41546953D01*
X180181134Y-41563413D01*
X180240099Y-41673727D01*
X180319451Y-41770418D01*
X180416142Y-41849770D01*
X180526456Y-41908735D01*
X180646154Y-41945045D01*
X180770636Y-41957305D01*
X181384886Y-41954233D01*
X181543636Y-41795483D01*
X181543636Y-40146233D01*
X181797636Y-40146233D01*
X181797636Y-41795483D01*
X181956386Y-41954233D01*
X182570636Y-41957305D01*
X182695118Y-41945045D01*
X182814816Y-41908735D01*
X182925130Y-41849770D01*
X183021821Y-41770418D01*
X183101173Y-41673727D01*
X183160138Y-41563413D01*
X183196448Y-41443715D01*
X183208708Y-41319233D01*
X183205636Y-40304983D01*
X183046886Y-40146233D01*
X181797636Y-40146233D01*
X181543636Y-40146233D01*
X181523636Y-40146233D01*
X181523636Y-39892233D01*
X181543636Y-39892233D01*
X181543636Y-38242983D01*
X181797636Y-38242983D01*
X181797636Y-39892233D01*
X183046886Y-39892233D01*
X183205636Y-39733483D01*
X183208708Y-38719233D01*
X183196448Y-38594751D01*
X183160138Y-38475053D01*
X183101173Y-38364739D01*
X183021821Y-38268048D01*
X182925130Y-38188696D01*
X182814816Y-38129731D01*
X182695118Y-38093421D01*
X182570636Y-38081161D01*
X181956386Y-38084233D01*
X181797636Y-38242983D01*
X181543636Y-38242983D01*
X181384886Y-38084233D01*
X180770636Y-38081161D01*
X180646154Y-38093421D01*
X180526456Y-38129731D01*
X180416142Y-38188696D01*
X180319451Y-38268048D01*
X180240099Y-38364739D01*
X180181134Y-38475053D01*
X180176141Y-38491513D01*
X179987563Y-38336752D01*
X179720897Y-38194216D01*
X179431549Y-38106443D01*
X179130636Y-38076806D01*
X178829724Y-38106443D01*
X178540376Y-38194216D01*
X178273710Y-38336752D01*
X178039975Y-38528572D01*
X177860636Y-38747098D01*
X177681297Y-38528572D01*
X177447563Y-38336752D01*
X177180897Y-38194216D01*
X176891549Y-38106443D01*
X176590636Y-38076806D01*
X176289724Y-38106443D01*
X176000376Y-38194216D01*
X175733710Y-38336752D01*
X175499975Y-38528572D01*
X175320636Y-38747098D01*
X175141297Y-38528572D01*
X174907563Y-38336752D01*
X174640897Y-38194216D01*
X174351549Y-38106443D01*
X174050636Y-38076806D01*
X173749724Y-38106443D01*
X173460376Y-38194216D01*
X173193710Y-38336752D01*
X172959975Y-38528572D01*
X172780636Y-38747098D01*
X172601297Y-38528572D01*
X172367563Y-38336752D01*
X172100897Y-38194216D01*
X171811549Y-38106443D01*
X171510636Y-38076806D01*
X171209724Y-38106443D01*
X170920376Y-38194216D01*
X170653710Y-38336752D01*
X170419975Y-38528572D01*
X170240636Y-38747098D01*
X170061297Y-38528572D01*
X169827563Y-38336752D01*
X169560897Y-38194216D01*
X169271549Y-38106443D01*
X168970636Y-38076806D01*
X168669724Y-38106443D01*
X168380376Y-38194216D01*
X168113710Y-38336752D01*
X167879975Y-38528572D01*
X167700636Y-38747098D01*
X167521297Y-38528572D01*
X167287563Y-38336752D01*
X167020897Y-38194216D01*
X166731549Y-38106443D01*
X166430636Y-38076806D01*
X166129724Y-38106443D01*
X165840376Y-38194216D01*
X165573710Y-38336752D01*
X165339975Y-38528572D01*
X165160636Y-38747098D01*
X164981297Y-38528572D01*
X164747563Y-38336752D01*
X164480897Y-38194216D01*
X164191549Y-38106443D01*
X163890636Y-38076806D01*
X163589724Y-38106443D01*
X163300376Y-38194216D01*
X163033710Y-38336752D01*
X162799975Y-38528572D01*
X162620636Y-38747098D01*
X162441297Y-38528572D01*
X162207563Y-38336752D01*
X161940897Y-38194216D01*
X161651549Y-38106443D01*
X161350636Y-38076806D01*
X161049724Y-38106443D01*
X160760376Y-38194216D01*
X160493710Y-38336752D01*
X160259975Y-38528572D01*
X160080636Y-38747098D01*
X159901297Y-38528572D01*
X159667563Y-38336752D01*
X159400897Y-38194216D01*
X159111549Y-38106443D01*
X158810636Y-38076806D01*
X158509724Y-38106443D01*
X158220376Y-38194216D01*
X157953710Y-38336752D01*
X157719975Y-38528572D01*
X157540636Y-38747098D01*
X157361297Y-38528572D01*
X157127563Y-38336752D01*
X156860897Y-38194216D01*
X156571549Y-38106443D01*
X156270636Y-38076806D01*
X155969724Y-38106443D01*
X155680376Y-38194216D01*
X155413710Y-38336752D01*
X155179975Y-38528572D01*
X155000636Y-38747098D01*
X154821297Y-38528572D01*
X154587563Y-38336752D01*
X154320897Y-38194216D01*
X154031549Y-38106443D01*
X153730636Y-38076806D01*
X153429724Y-38106443D01*
X153140376Y-38194216D01*
X152873710Y-38336752D01*
X152639975Y-38528572D01*
X152460636Y-38747098D01*
X152281297Y-38528572D01*
X152047563Y-38336752D01*
X151780897Y-38194216D01*
X151491549Y-38106443D01*
X151190636Y-38076806D01*
X150889724Y-38106443D01*
X150600376Y-38194216D01*
X150333710Y-38336752D01*
X150099975Y-38528572D01*
X149920636Y-38747098D01*
X149741297Y-38528572D01*
X149507563Y-38336752D01*
X149240897Y-38194216D01*
X148951549Y-38106443D01*
X148650636Y-38076806D01*
X148349724Y-38106443D01*
X148060376Y-38194216D01*
X147793710Y-38336752D01*
X147559975Y-38528572D01*
X147380636Y-38747098D01*
X147201297Y-38528572D01*
X146967563Y-38336752D01*
X146700897Y-38194216D01*
X146411549Y-38106443D01*
X146110636Y-38076806D01*
X145809724Y-38106443D01*
X145520376Y-38194216D01*
X145253710Y-38336752D01*
X145019975Y-38528572D01*
X144840636Y-38747098D01*
X144661297Y-38528572D01*
X144427563Y-38336752D01*
X144160897Y-38194216D01*
X143871549Y-38106443D01*
X143570636Y-38076806D01*
X143269724Y-38106443D01*
X142980376Y-38194216D01*
X142713710Y-38336752D01*
X142479975Y-38528572D01*
X142288155Y-38762306D01*
X142145619Y-39028972D01*
X142057846Y-39318320D01*
X142035636Y-39543825D01*
X114252899Y-39543825D01*
X114223589Y-39396477D01*
X114062648Y-39007931D01*
X113828999Y-38658250D01*
X113531619Y-38360870D01*
X113181938Y-38127221D01*
X113055865Y-38075000D01*
X115033647Y-38075000D01*
X115063645Y-38072045D01*
X115076047Y-38072132D01*
X115085565Y-38071198D01*
X115473758Y-38030397D01*
X115534539Y-38017920D01*
X115595560Y-38006280D01*
X115604716Y-38003516D01*
X115977591Y-37888092D01*
X116034870Y-37864014D01*
X116092388Y-37840775D01*
X116100833Y-37836286D01*
X116444188Y-37650634D01*
X116495635Y-37615932D01*
X116547610Y-37581921D01*
X116555022Y-37575876D01*
X116855777Y-37327069D01*
X116899524Y-37283016D01*
X116943881Y-37239578D01*
X116949978Y-37232208D01*
X117196679Y-36929724D01*
X117231047Y-36877995D01*
X117266111Y-36826785D01*
X117270661Y-36818372D01*
X117453910Y-36473730D01*
X117477555Y-36416364D01*
X117502028Y-36359264D01*
X117504856Y-36350127D01*
X117617674Y-35976456D01*
X117629737Y-35915531D01*
X117642641Y-35854826D01*
X117643641Y-35845314D01*
X117681731Y-35456845D01*
X117681731Y-35456837D01*
X117685000Y-35423647D01*
X117685000Y-32682360D01*
X118399513Y-32682360D01*
X118411773Y-32806842D01*
X118448083Y-32926540D01*
X118507048Y-33036854D01*
X118586400Y-33133545D01*
X118683091Y-33212897D01*
X118793405Y-33271862D01*
X118811712Y-33277416D01*
X118745273Y-33343855D01*
X118577286Y-33595265D01*
X118461574Y-33874617D01*
X118402585Y-34171176D01*
X118402585Y-34473544D01*
X118461574Y-34770103D01*
X118577286Y-35049455D01*
X118745273Y-35300865D01*
X118959080Y-35514672D01*
X119210490Y-35682659D01*
X119489842Y-35798371D01*
X119786401Y-35857360D01*
X120088769Y-35857360D01*
X120385328Y-35798371D01*
X120664680Y-35682659D01*
X120916090Y-35514672D01*
X121129897Y-35300865D01*
X121297884Y-35049455D01*
X121413596Y-34770103D01*
X121472585Y-34473544D01*
X121472585Y-34171176D01*
X121413596Y-33874617D01*
X121297884Y-33595265D01*
X121129897Y-33343855D01*
X121063458Y-33277416D01*
X121081765Y-33271862D01*
X121192079Y-33212897D01*
X121288770Y-33133545D01*
X121368122Y-33036854D01*
X121427087Y-32926540D01*
X121463397Y-32806842D01*
X121475657Y-32682360D01*
X124749513Y-32682360D01*
X124761773Y-32806842D01*
X124798083Y-32926540D01*
X124857048Y-33036854D01*
X124936400Y-33133545D01*
X125033091Y-33212897D01*
X125143405Y-33271862D01*
X125161712Y-33277416D01*
X125095273Y-33343855D01*
X124927286Y-33595265D01*
X124811574Y-33874617D01*
X124752585Y-34171176D01*
X124752585Y-34473544D01*
X124811574Y-34770103D01*
X124927286Y-35049455D01*
X125095273Y-35300865D01*
X125309080Y-35514672D01*
X125560490Y-35682659D01*
X125839842Y-35798371D01*
X126136401Y-35857360D01*
X126438769Y-35857360D01*
X126735328Y-35798371D01*
X127014680Y-35682659D01*
X127266090Y-35514672D01*
X127479897Y-35300865D01*
X127647884Y-35049455D01*
X127763596Y-34770103D01*
X127822585Y-34473544D01*
X127822585Y-34171176D01*
X127763596Y-33874617D01*
X127647884Y-33595265D01*
X127479897Y-33343855D01*
X127413458Y-33277416D01*
X127431765Y-33271862D01*
X127542079Y-33212897D01*
X127638770Y-33133545D01*
X127718122Y-33036854D01*
X127777087Y-32926540D01*
X127813397Y-32806842D01*
X127825657Y-32682360D01*
X130464513Y-32682360D01*
X130476773Y-32806842D01*
X130513083Y-32926540D01*
X130572048Y-33036854D01*
X130651400Y-33133545D01*
X130748091Y-33212897D01*
X130858405Y-33271862D01*
X130876712Y-33277416D01*
X130810273Y-33343855D01*
X130642286Y-33595265D01*
X130526574Y-33874617D01*
X130467585Y-34171176D01*
X130467585Y-34473544D01*
X130526574Y-34770103D01*
X130642286Y-35049455D01*
X130810273Y-35300865D01*
X131024080Y-35514672D01*
X131275490Y-35682659D01*
X131554842Y-35798371D01*
X131851401Y-35857360D01*
X132153769Y-35857360D01*
X132450328Y-35798371D01*
X132729680Y-35682659D01*
X132981090Y-35514672D01*
X133194897Y-35300865D01*
X133362884Y-35049455D01*
X133478596Y-34770103D01*
X133537585Y-34473544D01*
X133537585Y-34171176D01*
X133478596Y-33874617D01*
X133362884Y-33595265D01*
X133194897Y-33343855D01*
X133128458Y-33277416D01*
X133146765Y-33271862D01*
X133257079Y-33212897D01*
X133353770Y-33133545D01*
X133433122Y-33036854D01*
X133492087Y-32926540D01*
X133528397Y-32806842D01*
X133540657Y-32682360D01*
X133537585Y-32068110D01*
X133378835Y-31909360D01*
X132129585Y-31909360D01*
X132129585Y-31929360D01*
X131875585Y-31929360D01*
X131875585Y-31909360D01*
X130626335Y-31909360D01*
X130467585Y-32068110D01*
X130464513Y-32682360D01*
X127825657Y-32682360D01*
X127822585Y-32068110D01*
X127663835Y-31909360D01*
X126414585Y-31909360D01*
X126414585Y-31929360D01*
X126160585Y-31929360D01*
X126160585Y-31909360D01*
X124911335Y-31909360D01*
X124752585Y-32068110D01*
X124749513Y-32682360D01*
X121475657Y-32682360D01*
X121472585Y-32068110D01*
X121313835Y-31909360D01*
X120064585Y-31909360D01*
X120064585Y-31929360D01*
X119810585Y-31929360D01*
X119810585Y-31909360D01*
X118561335Y-31909360D01*
X118402585Y-32068110D01*
X118399513Y-32682360D01*
X117685000Y-32682360D01*
X117685000Y-30575000D01*
X118481854Y-30575000D01*
X118448083Y-30638180D01*
G37*
X118448083Y-30638180D02*
X118411773Y-30757878D01*
X118399513Y-30882360D01*
X118402585Y-31496610D01*
X118561335Y-31655360D01*
X119810585Y-31655360D01*
X119810585Y-31635360D01*
X120064585Y-31635360D01*
X120064585Y-31655360D01*
X121313835Y-31655360D01*
X121472585Y-31496610D01*
X121475657Y-30882360D01*
X121463397Y-30757878D01*
X121427087Y-30638180D01*
X121393316Y-30575000D01*
X124831854Y-30575000D01*
X124798083Y-30638180D01*
X124761773Y-30757878D01*
X124749513Y-30882360D01*
X124752585Y-31496610D01*
X124911335Y-31655360D01*
X126160585Y-31655360D01*
X126160585Y-31635360D01*
X126414585Y-31635360D01*
X126414585Y-31655360D01*
X127663835Y-31655360D01*
X127822585Y-31496610D01*
X127825657Y-30882360D01*
X127813397Y-30757878D01*
X127777087Y-30638180D01*
X127743316Y-30575000D01*
X130546854Y-30575000D01*
X130513083Y-30638180D01*
X130476773Y-30757878D01*
X130464513Y-30882360D01*
X130467585Y-31496610D01*
X130626335Y-31655360D01*
X131875585Y-31655360D01*
X131875585Y-31635360D01*
X132129585Y-31635360D01*
X132129585Y-31655360D01*
X133378835Y-31655360D01*
X133537585Y-31496610D01*
X133540657Y-30882360D01*
X133528397Y-30757878D01*
X133492087Y-30638180D01*
X133458316Y-30575000D01*
X181315000Y-30575000D01*
X181315001Y-35423647D01*
X181317955Y-35453636D01*
X181317868Y-35466047D01*
X181318802Y-35475565D01*
X181359603Y-35863758D01*
X181372080Y-35924539D01*
X181383720Y-35985560D01*
X181386484Y-35994716D01*
X181501908Y-36367591D01*
X181525986Y-36424870D01*
X181549225Y-36482388D01*
X181553714Y-36490833D01*
X181739366Y-36834188D01*
X181774068Y-36885635D01*
X181808079Y-36937610D01*
X181814124Y-36945022D01*
X182062931Y-37245777D01*
X182106984Y-37289524D01*
X182150422Y-37333881D01*
X182157792Y-37339978D01*
X182460276Y-37586679D01*
X182512005Y-37621047D01*
X182563215Y-37656111D01*
X182571628Y-37660661D01*
X182916270Y-37843910D01*
X182973636Y-37867555D01*
X183030736Y-37892028D01*
X183039873Y-37894856D01*
X183413544Y-38007674D01*
X183474469Y-38019737D01*
X183535174Y-38032641D01*
X183544686Y-38033641D01*
X183933155Y-38071731D01*
X183933163Y-38071731D01*
X183966353Y-38075000D01*
X186284507Y-38075000D01*
X186158434Y-38127221D01*
X185808753Y-38360870D01*
X185511373Y-38658250D01*
X185277724Y-39007931D01*
X185116783Y-39396477D01*
X185034736Y-39808954D01*
X185034736Y-40229512D01*
X185116783Y-40641989D01*
X185277724Y-41030535D01*
X185511373Y-41380216D01*
X185808753Y-41677596D01*
X186158434Y-41911245D01*
X186546980Y-42072186D01*
X186959457Y-42154233D01*
X187380015Y-42154233D01*
X187792492Y-42072186D01*
X188181038Y-41911245D01*
X188315001Y-41821734D01*
X188315001Y-41966344D01*
X188315000Y-41966354D01*
X188315000Y-69217432D01*
X188181038Y-69127921D01*
X187792492Y-68966980D01*
X187380015Y-68884933D01*
X186959457Y-68884933D01*
X186546980Y-68966980D01*
X186158434Y-69127921D01*
X185808753Y-69361570D01*
X185511373Y-69658950D01*
X185277724Y-70008631D01*
X185116783Y-70397177D01*
X185034736Y-70809654D01*
X185034736Y-71230212D01*
X185116783Y-71642689D01*
X185277724Y-72031235D01*
X185511373Y-72380916D01*
X185808753Y-72678296D01*
X186158434Y-72911945D01*
X186546980Y-73072886D01*
X186959457Y-73154933D01*
X187380015Y-73154933D01*
X187792492Y-73072886D01*
X188181038Y-72911945D01*
X188315000Y-72822434D01*
X188315001Y-127448353D01*
X188244180Y-127410498D01*
X188124482Y-127374188D01*
X188000000Y-127361928D01*
X185000000Y-127361928D01*
X184875518Y-127374188D01*
X184755820Y-127410498D01*
X184645506Y-127469463D01*
X184548815Y-127548815D01*
X184469463Y-127645506D01*
X184410498Y-127755820D01*
X184374188Y-127875518D01*
X184361928Y-128000000D01*
X184361928Y-131000000D01*
X184374188Y-131124482D01*
X184410498Y-131244180D01*
X184469463Y-131354494D01*
X184548815Y-131451185D01*
X184645506Y-131530537D01*
X184755820Y-131589502D01*
X184875518Y-131625812D01*
X185000000Y-131638072D01*
X188000000Y-131638072D01*
X188124482Y-131625812D01*
X188244180Y-131589502D01*
X188315001Y-131551647D01*
X188315001Y-140948353D01*
X188244180Y-140910498D01*
X188124482Y-140874188D01*
X188000000Y-140861928D01*
X185000000Y-140861928D01*
X184875518Y-140874188D01*
X184755820Y-140910498D01*
X184645506Y-140969463D01*
X184548815Y-141048815D01*
X184469463Y-141145506D01*
X184410498Y-141255820D01*
X184374188Y-141375518D01*
X184361928Y-141500000D01*
X184361928Y-144500000D01*
X184374188Y-144624482D01*
X184410498Y-144744180D01*
X184469463Y-144854494D01*
X184548815Y-144951185D01*
X184645506Y-145030537D01*
X184755820Y-145089502D01*
X184875518Y-145125812D01*
X185000000Y-145138072D01*
X188000000Y-145138072D01*
X188124482Y-145125812D01*
X188244180Y-145089502D01*
X188315001Y-145051647D01*
X188315001Y-165836487D01*
X188288543Y-166106327D01*
X188219908Y-166333656D01*
X188108428Y-166543320D01*
X187958343Y-166727341D01*
X187775380Y-166878701D01*
X187566493Y-166991646D01*
X187339653Y-167061865D01*
X187071966Y-167090000D01*
X184691503Y-167090000D01*
X184421673Y-167063543D01*
X184194344Y-166994908D01*
X183984680Y-166883428D01*
X183800659Y-166733343D01*
X183649299Y-166550380D01*
X183536354Y-166341493D01*
X183466135Y-166114653D01*
X183438000Y-165846966D01*
X183438000Y-156379553D01*
X183435053Y-156349628D01*
X183435135Y-156337817D01*
X183434201Y-156328299D01*
X183395338Y-155958544D01*
X183382863Y-155897769D01*
X183371221Y-155836742D01*
X183368456Y-155827586D01*
X183258514Y-155472422D01*
X183234454Y-155415184D01*
X183211199Y-155357626D01*
X183206709Y-155349181D01*
X183029877Y-155022136D01*
X182995142Y-154970639D01*
X182961163Y-154918714D01*
X182955118Y-154911302D01*
X182718129Y-154624832D01*
X182674076Y-154581085D01*
X182630638Y-154536728D01*
X182623269Y-154530632D01*
X182335152Y-154295648D01*
X182283416Y-154261275D01*
X182232212Y-154226215D01*
X182223799Y-154221666D01*
X181895527Y-154047121D01*
X181838131Y-154023464D01*
X181781063Y-153999005D01*
X181771926Y-153996176D01*
X181416004Y-153888716D01*
X181355074Y-153876652D01*
X181294371Y-153863749D01*
X181284863Y-153862749D01*
X181284859Y-153862749D01*
X180914844Y-153826469D01*
X180914837Y-153826469D01*
X180881647Y-153823200D01*
X117873153Y-153823200D01*
X117843228Y-153826147D01*
X117831417Y-153826065D01*
X117821899Y-153826999D01*
X117452144Y-153865862D01*
X117391369Y-153878337D01*
X117330342Y-153889979D01*
X117321186Y-153892744D01*
X116966022Y-154002686D01*
X116908784Y-154026746D01*
X116851226Y-154050001D01*
X116849347Y-154051000D01*
X114070468Y-154051000D01*
X114028256Y-154022795D01*
X113839898Y-153944774D01*
X113639939Y-153905000D01*
X113436061Y-153905000D01*
X113236102Y-153944774D01*
X113047744Y-154022795D01*
X113005532Y-154051000D01*
X110685000Y-154051000D01*
X110685000Y-143792000D01*
X112927928Y-143792000D01*
X112927928Y-147292000D01*
X112940188Y-147416482D01*
X112976498Y-147536180D01*
X113035463Y-147646494D01*
X113114815Y-147743185D01*
X113211506Y-147822537D01*
X113321820Y-147881502D01*
X113441518Y-147917812D01*
X113566000Y-147930072D01*
X117066000Y-147930072D01*
X117190482Y-147917812D01*
X117310180Y-147881502D01*
X117420494Y-147822537D01*
X117517185Y-147743185D01*
X117596537Y-147646494D01*
X117655502Y-147536180D01*
X117691812Y-147416482D01*
X117704072Y-147292000D01*
X117704072Y-146352000D01*
X121711488Y-146352000D01*
X125764105Y-150404618D01*
X125789472Y-150435528D01*
X125857210Y-150491119D01*
X125912810Y-150536749D01*
X125988024Y-150576951D01*
X126053527Y-150611963D01*
X126206212Y-150658280D01*
X126325209Y-150670000D01*
X126325211Y-150670000D01*
X126364999Y-150673919D01*
X126404787Y-150670000D01*
X133945212Y-150670000D01*
X133985000Y-150673919D01*
X134024788Y-150670000D01*
X134024791Y-150670000D01*
X134143788Y-150658280D01*
X134296473Y-150611963D01*
X134437189Y-150536749D01*
X134560528Y-150435528D01*
X134585900Y-150404612D01*
X138012512Y-146978000D01*
X145577928Y-146978000D01*
X145577928Y-148678000D01*
X145590188Y-148802482D01*
X145626498Y-148922180D01*
X145685463Y-149032494D01*
X145764815Y-149129185D01*
X145861506Y-149208537D01*
X145971820Y-149267502D01*
X146091518Y-149303812D01*
X146216000Y-149316072D01*
X147916000Y-149316072D01*
X148040482Y-149303812D01*
X148160180Y-149267502D01*
X148270494Y-149208537D01*
X148367185Y-149129185D01*
X148446537Y-149032494D01*
X148505502Y-148922180D01*
X148529966Y-148841534D01*
X148605731Y-148925588D01*
X148839080Y-149099641D01*
X149101901Y-149224825D01*
X149249110Y-149269476D01*
X149479000Y-149148155D01*
X149479000Y-147955000D01*
X149459000Y-147955000D01*
X149459000Y-147701000D01*
X149479000Y-147701000D01*
X149479000Y-146507845D01*
X149733000Y-146507845D01*
X149733000Y-147701000D01*
X149753000Y-147701000D01*
X149753000Y-147955000D01*
X149733000Y-147955000D01*
X149733000Y-149148155D01*
X149962890Y-149269476D01*
X150110099Y-149224825D01*
X150372920Y-149099641D01*
X150606269Y-148925588D01*
X150801178Y-148709355D01*
X150870805Y-148592466D01*
X150992525Y-148774632D01*
X151199368Y-148981475D01*
X151442589Y-149143990D01*
X151712842Y-149255932D01*
X151999740Y-149313000D01*
X152292260Y-149313000D01*
X152579158Y-149255932D01*
X152849411Y-149143990D01*
X153092632Y-148981475D01*
X153299475Y-148774632D01*
X153461990Y-148531411D01*
X153573932Y-148261158D01*
X153631000Y-147974260D01*
X153631000Y-147681740D01*
X153573932Y-147394842D01*
X153461990Y-147124589D01*
X153299475Y-146881368D01*
X153092632Y-146674525D01*
X152849411Y-146512010D01*
X152579158Y-146400068D01*
X152292260Y-146343000D01*
X151999740Y-146343000D01*
X151712842Y-146400068D01*
X151442589Y-146512010D01*
X151199368Y-146674525D01*
X150992525Y-146881368D01*
X150870805Y-147063534D01*
X150801178Y-146946645D01*
X150606269Y-146730412D01*
X150372920Y-146556359D01*
X150110099Y-146431175D01*
X149962890Y-146386524D01*
X149733000Y-146507845D01*
X149479000Y-146507845D01*
X149249110Y-146386524D01*
X149101901Y-146431175D01*
X148839080Y-146556359D01*
X148605731Y-146730412D01*
X148529966Y-146814466D01*
X148505502Y-146733820D01*
X148446537Y-146623506D01*
X148367185Y-146526815D01*
X148270494Y-146447463D01*
X148160180Y-146388498D01*
X148040482Y-146352188D01*
X147916000Y-146339928D01*
X146216000Y-146339928D01*
X146091518Y-146352188D01*
X145971820Y-146388498D01*
X145861506Y-146447463D01*
X145764815Y-146526815D01*
X145685463Y-146623506D01*
X145626498Y-146733820D01*
X145590188Y-146853518D01*
X145577928Y-146978000D01*
X138012512Y-146978000D01*
X139398393Y-145592120D01*
X139398397Y-145592115D01*
X140930513Y-144060000D01*
X162361928Y-144060000D01*
X162361928Y-144500000D01*
X162374188Y-144624482D01*
X162410498Y-144744180D01*
X162469463Y-144854494D01*
X162548815Y-144951185D01*
X162645506Y-145030537D01*
X162755820Y-145089502D01*
X162875518Y-145125812D01*
X163000000Y-145138072D01*
X166000000Y-145138072D01*
X166124482Y-145125812D01*
X166244180Y-145089502D01*
X166354494Y-145030537D01*
X166451185Y-144951185D01*
X166530537Y-144854494D01*
X166589502Y-144744180D01*
X166625812Y-144624482D01*
X166638072Y-144500000D01*
X166638072Y-142000000D01*
X166625812Y-141875518D01*
X166589502Y-141755820D01*
X166530537Y-141645506D01*
X166513708Y-141625000D01*
X166530537Y-141604494D01*
X166589502Y-141494180D01*
X166625812Y-141374482D01*
X166638072Y-141250000D01*
X166638072Y-138750000D01*
X166625812Y-138625518D01*
X166589502Y-138505820D01*
X166530537Y-138395506D01*
X166451185Y-138298815D01*
X166354494Y-138219463D01*
X166244180Y-138160498D01*
X166124482Y-138124188D01*
X166000000Y-138111928D01*
X163000000Y-138111928D01*
X162875518Y-138124188D01*
X162755820Y-138160498D01*
X162645506Y-138219463D01*
X162548815Y-138298815D01*
X162469463Y-138395506D01*
X162410498Y-138505820D01*
X162374188Y-138625518D01*
X162361928Y-138750000D01*
X162361928Y-139190000D01*
X161689788Y-139190000D01*
X161650000Y-139186081D01*
X161610212Y-139190000D01*
X161610209Y-139190000D01*
X161491212Y-139201720D01*
X161338527Y-139248037D01*
X161291364Y-139273246D01*
X161197810Y-139323251D01*
X161133796Y-139375786D01*
X161074472Y-139424472D01*
X161049105Y-139455382D01*
X159769488Y-140735000D01*
X139799788Y-140735000D01*
X139760000Y-140731081D01*
X139720212Y-140735000D01*
X139720209Y-140735000D01*
X139601212Y-140746720D01*
X139448527Y-140793037D01*
X139383024Y-140828049D01*
X139307810Y-140868251D01*
X139243796Y-140920786D01*
X139184472Y-140969472D01*
X139159107Y-141000380D01*
X133014488Y-147145000D01*
X130510513Y-147145000D01*
X130380977Y-147015465D01*
X130479850Y-146985472D01*
X130633386Y-146903405D01*
X130767962Y-146792962D01*
X130878405Y-146658386D01*
X130932777Y-146556663D01*
X130984866Y-146620134D01*
X131210987Y-146805706D01*
X131468967Y-146943599D01*
X131748890Y-147028513D01*
X132040000Y-147057185D01*
X132331111Y-147028513D01*
X132611034Y-146943599D01*
X132869014Y-146805706D01*
X133095134Y-146620134D01*
X133280706Y-146394014D01*
X133376116Y-146215513D01*
X133398788Y-146213280D01*
X133551473Y-146166963D01*
X133692189Y-146091749D01*
X133815528Y-145990528D01*
X133840900Y-145959612D01*
X141830513Y-137970000D01*
X160400212Y-137970000D01*
X160440000Y-137973919D01*
X160479788Y-137970000D01*
X160604791Y-137970000D01*
X160723788Y-137958280D01*
X160876473Y-137911963D01*
X161017189Y-137836749D01*
X161140528Y-137735528D01*
X161241749Y-137612189D01*
X161316963Y-137471473D01*
X161335654Y-137409858D01*
X164044618Y-134700895D01*
X164075528Y-134675528D01*
X164176749Y-134552189D01*
X164251963Y-134411474D01*
X164259062Y-134388072D01*
X166000000Y-134388072D01*
X166124482Y-134375812D01*
X166244180Y-134339502D01*
X166354494Y-134280537D01*
X166451185Y-134201185D01*
X166530537Y-134104494D01*
X166589502Y-133994180D01*
X166625812Y-133874482D01*
X166638072Y-133750000D01*
X166638072Y-131250000D01*
X166625812Y-131125518D01*
X166589502Y-131005820D01*
X166530537Y-130895506D01*
X166513708Y-130875000D01*
X166530537Y-130854494D01*
X166589502Y-130744180D01*
X166625812Y-130624482D01*
X166638072Y-130500000D01*
X166635000Y-129535750D01*
X166476250Y-129377000D01*
X164627000Y-129377000D01*
X164627000Y-129397000D01*
X164373000Y-129397000D01*
X164373000Y-129377000D01*
X162523750Y-129377000D01*
X162365000Y-129535750D01*
X162361928Y-130500000D01*
X162374188Y-130624482D01*
X162410498Y-130744180D01*
X162469463Y-130854494D01*
X162486292Y-130875000D01*
X162469463Y-130895506D01*
X162410498Y-131005820D01*
X162374188Y-131125518D01*
X162361928Y-131250000D01*
X162361928Y-133750000D01*
X162374188Y-133874482D01*
X162410498Y-133994180D01*
X162427848Y-134026639D01*
X160104488Y-136350000D01*
X141534788Y-136350000D01*
X141495000Y-136346081D01*
X141455212Y-136350000D01*
X141455209Y-136350000D01*
X141336212Y-136361720D01*
X141183527Y-136408037D01*
X141118024Y-136443049D01*
X141042810Y-136483251D01*
X140993986Y-136523320D01*
X140919472Y-136584472D01*
X140894107Y-136615380D01*
X133187308Y-144322180D01*
X133095134Y-144209866D01*
X132869013Y-144024294D01*
X132611033Y-143886401D01*
X132331110Y-143801487D01*
X132040000Y-143772815D01*
X131748889Y-143801487D01*
X131468966Y-143886401D01*
X131210986Y-144024294D01*
X130984866Y-144209866D01*
X130932777Y-144273337D01*
X130878405Y-144171614D01*
X130767962Y-144037038D01*
X130633386Y-143926595D01*
X130479850Y-143844528D01*
X130313254Y-143793992D01*
X130140000Y-143776928D01*
X128940000Y-143776928D01*
X128766746Y-143793992D01*
X128600150Y-143844528D01*
X128446614Y-143926595D01*
X128312038Y-144037038D01*
X128201595Y-144171614D01*
X128119528Y-144325150D01*
X128068992Y-144491746D01*
X128051928Y-144665000D01*
X128051928Y-146165000D01*
X128068992Y-146338254D01*
X128119528Y-146504850D01*
X128201595Y-146658386D01*
X128312038Y-146792962D01*
X128446614Y-146903405D01*
X128600150Y-146985472D01*
X128730000Y-147024861D01*
X128730000Y-147280211D01*
X128726081Y-147320000D01*
X128730000Y-147359788D01*
X128730000Y-147359790D01*
X128741720Y-147478787D01*
X128788037Y-147631472D01*
X128814906Y-147681740D01*
X128863251Y-147772189D01*
X128894703Y-147810513D01*
X128964472Y-147895528D01*
X128995387Y-147920899D01*
X129574105Y-148499618D01*
X129599472Y-148530528D01*
X129630380Y-148555893D01*
X129722811Y-148631749D01*
X129863526Y-148706963D01*
X129871412Y-148709355D01*
X130016212Y-148753280D01*
X130135209Y-148765000D01*
X130135212Y-148765000D01*
X130175000Y-148768919D01*
X130214788Y-148765000D01*
X133310212Y-148765000D01*
X133350000Y-148768919D01*
X133389788Y-148765000D01*
X133389791Y-148765000D01*
X133508788Y-148753280D01*
X133661473Y-148706963D01*
X133802189Y-148631749D01*
X133925528Y-148530528D01*
X133950900Y-148499612D01*
X140095513Y-142355000D01*
X160065212Y-142355000D01*
X160105000Y-142358919D01*
X160144788Y-142355000D01*
X160144791Y-142355000D01*
X160263788Y-142343280D01*
X160416473Y-142296963D01*
X160557189Y-142221749D01*
X160680528Y-142120528D01*
X160705899Y-142089613D01*
X161985513Y-140810000D01*
X162361928Y-140810000D01*
X162361928Y-141250000D01*
X162374188Y-141374482D01*
X162410498Y-141494180D01*
X162469463Y-141604494D01*
X162486292Y-141625000D01*
X162469463Y-141645506D01*
X162410498Y-141755820D01*
X162374188Y-141875518D01*
X162361928Y-142000000D01*
X162361928Y-142440000D01*
X140634788Y-142440000D01*
X140595000Y-142436081D01*
X140555212Y-142440000D01*
X140555209Y-142440000D01*
X140436212Y-142451720D01*
X140283527Y-142498037D01*
X140218024Y-142533049D01*
X140142810Y-142573251D01*
X140078796Y-142625786D01*
X140019472Y-142674472D01*
X139994105Y-142705382D01*
X138505381Y-144194107D01*
X138252886Y-144446602D01*
X138252880Y-144446607D01*
X133649488Y-149050000D01*
X126700513Y-149050000D01*
X122647900Y-144997388D01*
X122622528Y-144966472D01*
X122499189Y-144865251D01*
X122358473Y-144790037D01*
X122205788Y-144743720D01*
X122086791Y-144732000D01*
X122086788Y-144732000D01*
X122047000Y-144728081D01*
X122007212Y-144732000D01*
X117704072Y-144732000D01*
X117704072Y-143792000D01*
X117691812Y-143667518D01*
X117655502Y-143547820D01*
X117596537Y-143437506D01*
X117517185Y-143340815D01*
X117420494Y-143261463D01*
X117310180Y-143202498D01*
X117190482Y-143166188D01*
X117066000Y-143153928D01*
X113566000Y-143153928D01*
X113441518Y-143166188D01*
X113321820Y-143202498D01*
X113211506Y-143261463D01*
X113114815Y-143340815D01*
X113035463Y-143437506D01*
X112976498Y-143547820D01*
X112940188Y-143667518D01*
X112927928Y-143792000D01*
X110685000Y-143792000D01*
X110685000Y-137653665D01*
X124295000Y-137653665D01*
X124295000Y-137936335D01*
X124350147Y-138213574D01*
X124458320Y-138474727D01*
X124615363Y-138709759D01*
X124815241Y-138909637D01*
X125050273Y-139066680D01*
X125311426Y-139174853D01*
X125588665Y-139230000D01*
X125871335Y-139230000D01*
X126148574Y-139174853D01*
X126409727Y-139066680D01*
X126644759Y-138909637D01*
X126844637Y-138709759D01*
X127001680Y-138474727D01*
X127086049Y-138271040D01*
X129164091Y-138271040D01*
X129258930Y-138535881D01*
X129403615Y-138777131D01*
X129592586Y-138985519D01*
X129818580Y-139153037D01*
X130072913Y-139273246D01*
X130206961Y-139313904D01*
X130429000Y-139191915D01*
X130429000Y-138049000D01*
X130683000Y-138049000D01*
X130683000Y-139191915D01*
X130905039Y-139313904D01*
X131039087Y-139273246D01*
X131293420Y-139153037D01*
X131519414Y-138985519D01*
X131708385Y-138777131D01*
X131853070Y-138535881D01*
X131947909Y-138271040D01*
X131826624Y-138049000D01*
X130683000Y-138049000D01*
X130429000Y-138049000D01*
X129285376Y-138049000D01*
X129164091Y-138271040D01*
X127086049Y-138271040D01*
X127109853Y-138213574D01*
X127165000Y-137936335D01*
X127165000Y-137653665D01*
X127148947Y-137572960D01*
X129164091Y-137572960D01*
X129285376Y-137795000D01*
X130429000Y-137795000D01*
X130429000Y-136652085D01*
X130683000Y-136652085D01*
X130683000Y-137795000D01*
X131826624Y-137795000D01*
X131947909Y-137572960D01*
X131853070Y-137308119D01*
X131708385Y-137066869D01*
X131519414Y-136858481D01*
X131293420Y-136690963D01*
X131039087Y-136570754D01*
X130905039Y-136530096D01*
X130683000Y-136652085D01*
X130429000Y-136652085D01*
X130206961Y-136530096D01*
X130072913Y-136570754D01*
X129818580Y-136690963D01*
X129592586Y-136858481D01*
X129403615Y-137066869D01*
X129258930Y-137308119D01*
X129164091Y-137572960D01*
X127148947Y-137572960D01*
X127109853Y-137376426D01*
X127001680Y-137115273D01*
X126844637Y-136880241D01*
X126644759Y-136680363D01*
X126409727Y-136523320D01*
X126148574Y-136415147D01*
X125871335Y-136360000D01*
X125588665Y-136360000D01*
X125311426Y-136415147D01*
X125050273Y-136523320D01*
X124815241Y-136680363D01*
X124615363Y-136880241D01*
X124458320Y-137115273D01*
X124350147Y-137376426D01*
X124295000Y-137653665D01*
X110685000Y-137653665D01*
X110685000Y-131337098D01*
X112931000Y-131337098D01*
X112931000Y-131806902D01*
X113022654Y-132267679D01*
X113202440Y-132701721D01*
X113463450Y-133092349D01*
X113795651Y-133424550D01*
X114186279Y-133685560D01*
X114620321Y-133865346D01*
X115081098Y-133957000D01*
X115550902Y-133957000D01*
X116011679Y-133865346D01*
X116445721Y-133685560D01*
X116836349Y-133424550D01*
X117168550Y-133092349D01*
X117429560Y-132701721D01*
X117561993Y-132382000D01*
X150498212Y-132382000D01*
X150538000Y-132385919D01*
X150577788Y-132382000D01*
X150577791Y-132382000D01*
X150696788Y-132370280D01*
X150849473Y-132323963D01*
X150990189Y-132248749D01*
X151113528Y-132147528D01*
X151138900Y-132116612D01*
X155255512Y-128000000D01*
X162361928Y-128000000D01*
X162365000Y-128964250D01*
X162523750Y-129123000D01*
X164373000Y-129123000D01*
X164373000Y-127523750D01*
X164627000Y-127523750D01*
X164627000Y-129123000D01*
X166476250Y-129123000D01*
X166635000Y-128964250D01*
X166638072Y-128000000D01*
X166625812Y-127875518D01*
X166589502Y-127755820D01*
X166530537Y-127645506D01*
X166451185Y-127548815D01*
X166354494Y-127469463D01*
X166244180Y-127410498D01*
X166124482Y-127374188D01*
X166000000Y-127361928D01*
X164785750Y-127365000D01*
X164627000Y-127523750D01*
X164373000Y-127523750D01*
X164214250Y-127365000D01*
X163000000Y-127361928D01*
X162875518Y-127374188D01*
X162755820Y-127410498D01*
X162645506Y-127469463D01*
X162548815Y-127548815D01*
X162469463Y-127645506D01*
X162410498Y-127755820D01*
X162374188Y-127875518D01*
X162361928Y-128000000D01*
X155255512Y-128000000D01*
X160707441Y-122548072D01*
X163700000Y-122548072D01*
X163824482Y-122535812D01*
X163944180Y-122499502D01*
X164054494Y-122440537D01*
X164151185Y-122361185D01*
X164230537Y-122264494D01*
X164289502Y-122154180D01*
X164325812Y-122034482D01*
X164338072Y-121910000D01*
X164338072Y-116910000D01*
X164325812Y-116785518D01*
X164289502Y-116665820D01*
X164230537Y-116555506D01*
X164151185Y-116458815D01*
X164054494Y-116379463D01*
X163944180Y-116320498D01*
X163824482Y-116284188D01*
X163700000Y-116271928D01*
X160200000Y-116271928D01*
X160075518Y-116284188D01*
X159955820Y-116320498D01*
X159845506Y-116379463D01*
X159748815Y-116458815D01*
X159669463Y-116555506D01*
X159610498Y-116665820D01*
X159574188Y-116785518D01*
X159561928Y-116910000D01*
X159561928Y-121402559D01*
X150202488Y-130762000D01*
X140274389Y-130762000D01*
X140275003Y-130759976D01*
X140286000Y-130648323D01*
X140286000Y-130648314D01*
X140289676Y-130610991D01*
X140286000Y-130573668D01*
X140286000Y-129929072D01*
X140306000Y-129929072D01*
X140430482Y-129916812D01*
X140550180Y-129880502D01*
X140660494Y-129821537D01*
X140757185Y-129742185D01*
X140836537Y-129645494D01*
X140895502Y-129535180D01*
X140931812Y-129415482D01*
X140944072Y-129291000D01*
X140944072Y-128826000D01*
X141589300Y-128826000D01*
X141749744Y-128933205D01*
X141938102Y-129011226D01*
X142138061Y-129051000D01*
X142341939Y-129051000D01*
X142541898Y-129011226D01*
X142730256Y-128933205D01*
X142899774Y-128819937D01*
X143043937Y-128675774D01*
X143157205Y-128506256D01*
X143235226Y-128317898D01*
X143275000Y-128117939D01*
X143275000Y-127914061D01*
X143235226Y-127714102D01*
X143157205Y-127525744D01*
X143043937Y-127356226D01*
X142899774Y-127212063D01*
X142730256Y-127098795D01*
X142541898Y-127020774D01*
X142341939Y-126981000D01*
X142138061Y-126981000D01*
X141938102Y-127020774D01*
X141749744Y-127098795D01*
X141589300Y-127206000D01*
X140795250Y-127206000D01*
X140782250Y-127193000D01*
X140700141Y-127193000D01*
X140660494Y-127160463D01*
X140550180Y-127101498D01*
X140430482Y-127065188D01*
X140306000Y-127052928D01*
X139379000Y-127052928D01*
X139379000Y-126939000D01*
X139399000Y-126939000D01*
X139399000Y-126264750D01*
X139653000Y-126264750D01*
X139653000Y-126939000D01*
X140782250Y-126939000D01*
X140941000Y-126780250D01*
X140944072Y-126741000D01*
X140931812Y-126616518D01*
X140895502Y-126496820D01*
X140836537Y-126386506D01*
X140757185Y-126289815D01*
X140660494Y-126210463D01*
X140550180Y-126151498D01*
X140430482Y-126115188D01*
X140306000Y-126102928D01*
X139811750Y-126106000D01*
X139653000Y-126264750D01*
X139399000Y-126264750D01*
X139240250Y-126106000D01*
X138746000Y-126102928D01*
X138621518Y-126115188D01*
X138501820Y-126151498D01*
X138391506Y-126210463D01*
X138294815Y-126289815D01*
X138215463Y-126386506D01*
X138176000Y-126460335D01*
X138136537Y-126386506D01*
X138057185Y-126289815D01*
X137960494Y-126210463D01*
X137850180Y-126151498D01*
X137730482Y-126115188D01*
X137606000Y-126102928D01*
X136046000Y-126102928D01*
X135921518Y-126115188D01*
X135801820Y-126151498D01*
X135691506Y-126210463D01*
X135594815Y-126289815D01*
X135581532Y-126306000D01*
X132420695Y-126306000D01*
X132383370Y-126302324D01*
X132346045Y-126306000D01*
X132346037Y-126306000D01*
X132234384Y-126316997D01*
X132091123Y-126360454D01*
X131959094Y-126431026D01*
X131843369Y-126525999D01*
X131819571Y-126554998D01*
X131598982Y-126775586D01*
X131470759Y-126647363D01*
X131235727Y-126490320D01*
X130974574Y-126382147D01*
X130697335Y-126327000D01*
X130414665Y-126327000D01*
X130137426Y-126382147D01*
X129876273Y-126490320D01*
X129641241Y-126647363D01*
X129441363Y-126847241D01*
X129422815Y-126875000D01*
X126948043Y-126875000D01*
X126844637Y-126720241D01*
X126644759Y-126520363D01*
X126409727Y-126363320D01*
X126148574Y-126255147D01*
X125871335Y-126200000D01*
X125588665Y-126200000D01*
X125311426Y-126255147D01*
X125050273Y-126363320D01*
X124815241Y-126520363D01*
X124615363Y-126720241D01*
X124458320Y-126955273D01*
X124350147Y-127216426D01*
X124295000Y-127493665D01*
X124295000Y-127776335D01*
X124350147Y-128053574D01*
X124458320Y-128314727D01*
X124615363Y-128549759D01*
X124815241Y-128749637D01*
X125050273Y-128906680D01*
X125311426Y-129014853D01*
X125588665Y-129070000D01*
X125871335Y-129070000D01*
X126148574Y-129014853D01*
X126409727Y-128906680D01*
X126644759Y-128749637D01*
X126844637Y-128549759D01*
X126948043Y-128395000D01*
X129264965Y-128395000D01*
X129284320Y-128441727D01*
X129441363Y-128676759D01*
X129641241Y-128876637D01*
X129876273Y-129033680D01*
X130137426Y-129141853D01*
X130414665Y-129197000D01*
X130697335Y-129197000D01*
X130974574Y-129141853D01*
X131235727Y-129033680D01*
X131470759Y-128876637D01*
X131670637Y-128676759D01*
X131777519Y-128516798D01*
X131836356Y-128511003D01*
X131979617Y-128467546D01*
X132111646Y-128396974D01*
X132227371Y-128302001D01*
X132251173Y-128272998D01*
X132698172Y-127826000D01*
X135506750Y-127826000D01*
X135569750Y-127889000D01*
X135651859Y-127889000D01*
X135691506Y-127921537D01*
X135801820Y-127980502D01*
X135918841Y-128016000D01*
X135801820Y-128051498D01*
X135691506Y-128110463D01*
X135651859Y-128143000D01*
X135569750Y-128143000D01*
X135411000Y-128301750D01*
X135407928Y-128341000D01*
X135420188Y-128465482D01*
X135427929Y-128491000D01*
X135420188Y-128516518D01*
X135407928Y-128641000D01*
X135407928Y-129291000D01*
X135420188Y-129415482D01*
X135456498Y-129535180D01*
X135515463Y-129645494D01*
X135594815Y-129742185D01*
X135691506Y-129821537D01*
X135767168Y-129861980D01*
X120776781Y-129861980D01*
X120775000Y-129860199D01*
X120775000Y-126046211D01*
X121151202Y-125670010D01*
X130957668Y-125670010D01*
X130994990Y-125673686D01*
X131032312Y-125670010D01*
X131032323Y-125670010D01*
X131143976Y-125659013D01*
X131287237Y-125615556D01*
X131419266Y-125544984D01*
X131534991Y-125450011D01*
X131558794Y-125421007D01*
X133350000Y-123629802D01*
X135326205Y-125606008D01*
X135349999Y-125635001D01*
X135378992Y-125658795D01*
X135378996Y-125658799D01*
X135420265Y-125692667D01*
X135465724Y-125729974D01*
X135597753Y-125800546D01*
X135741014Y-125844003D01*
X135852667Y-125855000D01*
X135852676Y-125855000D01*
X135889999Y-125858676D01*
X135927322Y-125855000D01*
X149187678Y-125855000D01*
X149225000Y-125858676D01*
X149262322Y-125855000D01*
X149262333Y-125855000D01*
X149373986Y-125844003D01*
X149517247Y-125800546D01*
X149649276Y-125729974D01*
X149765001Y-125635001D01*
X149788804Y-125605997D01*
X151641003Y-123753799D01*
X151670001Y-123730001D01*
X151764974Y-123614276D01*
X151835546Y-123482247D01*
X151879003Y-123338986D01*
X151890000Y-123227333D01*
X151890000Y-123227323D01*
X151893676Y-123190000D01*
X151890000Y-123152677D01*
X151890000Y-121910000D01*
X153111928Y-121910000D01*
X153124188Y-122034482D01*
X153160498Y-122154180D01*
X153219463Y-122264494D01*
X153298815Y-122361185D01*
X153395506Y-122440537D01*
X153505820Y-122499502D01*
X153625518Y-122535812D01*
X153750000Y-122548072D01*
X155214250Y-122545000D01*
X155373000Y-122386250D01*
X155373000Y-119537000D01*
X155627000Y-119537000D01*
X155627000Y-122386250D01*
X155785750Y-122545000D01*
X157250000Y-122548072D01*
X157374482Y-122535812D01*
X157494180Y-122499502D01*
X157604494Y-122440537D01*
X157701185Y-122361185D01*
X157780537Y-122264494D01*
X157839502Y-122154180D01*
X157875812Y-122034482D01*
X157888072Y-121910000D01*
X157885000Y-119695750D01*
X157726250Y-119537000D01*
X155627000Y-119537000D01*
X155373000Y-119537000D01*
X153273750Y-119537000D01*
X153115000Y-119695750D01*
X153111928Y-121910000D01*
X151890000Y-121910000D01*
X151890000Y-117154801D01*
X152134801Y-116910000D01*
X153111928Y-116910000D01*
X153115000Y-119124250D01*
X153273750Y-119283000D01*
X155373000Y-119283000D01*
X155373000Y-116433750D01*
X155627000Y-116433750D01*
X155627000Y-119283000D01*
X157726250Y-119283000D01*
X157885000Y-119124250D01*
X157888072Y-116910000D01*
X157875812Y-116785518D01*
X157839502Y-116665820D01*
X157780537Y-116555506D01*
X157701185Y-116458815D01*
X157604494Y-116379463D01*
X157494180Y-116320498D01*
X157374482Y-116284188D01*
X157250000Y-116271928D01*
X155785750Y-116275000D01*
X155627000Y-116433750D01*
X155373000Y-116433750D01*
X155214250Y-116275000D01*
X153750000Y-116271928D01*
X153625518Y-116284188D01*
X153505820Y-116320498D01*
X153395506Y-116379463D01*
X153298815Y-116458815D01*
X153219463Y-116555506D01*
X153160498Y-116665820D01*
X153124188Y-116785518D01*
X153111928Y-116910000D01*
X152134801Y-116910000D01*
X155254802Y-113790000D01*
X163513789Y-113790000D01*
X167064990Y-117341202D01*
X167064992Y-124609069D01*
X167061315Y-124646401D01*
X167064992Y-124683733D01*
X167064992Y-124683734D01*
X167075989Y-124795387D01*
X167078224Y-124802754D01*
X167119445Y-124938647D01*
X167190017Y-125070677D01*
X167261192Y-125157403D01*
X167284991Y-125186402D01*
X167313989Y-125210200D01*
X168794806Y-126691018D01*
X168818600Y-126720011D01*
X168847593Y-126743805D01*
X168847597Y-126743809D01*
X168934324Y-126814984D01*
X169066353Y-126885556D01*
X169209614Y-126929013D01*
X169214092Y-126929454D01*
X169321268Y-126940010D01*
X169321275Y-126940010D01*
X169358600Y-126943686D01*
X169395925Y-126940010D01*
X178584069Y-126940008D01*
X178621401Y-126943685D01*
X178668968Y-126939000D01*
X178770387Y-126929011D01*
X178813843Y-126915829D01*
X178913647Y-126885555D01*
X179045677Y-126814983D01*
X179132403Y-126743808D01*
X179132404Y-126743807D01*
X179161402Y-126720009D01*
X179185200Y-126691011D01*
X181206013Y-124670199D01*
X181235011Y-124646401D01*
X181286224Y-124583998D01*
X181329984Y-124530677D01*
X181400556Y-124398647D01*
X181417292Y-124343475D01*
X181444013Y-124255386D01*
X181455010Y-124143733D01*
X181455010Y-124143723D01*
X181458686Y-124106400D01*
X181455010Y-124069077D01*
X181455010Y-86859791D01*
X182418592Y-85896210D01*
X182638740Y-85940000D01*
X182931260Y-85940000D01*
X183218158Y-85882932D01*
X183488411Y-85770990D01*
X183731632Y-85608475D01*
X183938475Y-85401632D01*
X184100990Y-85158411D01*
X184212932Y-84888158D01*
X184270000Y-84601260D01*
X184270000Y-84308740D01*
X184212932Y-84021842D01*
X184100990Y-83751589D01*
X183938475Y-83508368D01*
X183731632Y-83301525D01*
X183488411Y-83139010D01*
X183218158Y-83027068D01*
X182931260Y-82970000D01*
X182638740Y-82970000D01*
X182351842Y-83027068D01*
X182081589Y-83139010D01*
X181838368Y-83301525D01*
X181631525Y-83508368D01*
X181515000Y-83682760D01*
X181398475Y-83508368D01*
X181191632Y-83301525D01*
X180948411Y-83139010D01*
X180678158Y-83027068D01*
X180391260Y-82970000D01*
X180098740Y-82970000D01*
X179811842Y-83027068D01*
X179541589Y-83139010D01*
X179298368Y-83301525D01*
X179091525Y-83508368D01*
X178975000Y-83682760D01*
X178858475Y-83508368D01*
X178651632Y-83301525D01*
X178515000Y-83210230D01*
X178515000Y-82494788D01*
X178518919Y-82455000D01*
X178515000Y-82415209D01*
X178503280Y-82296212D01*
X178456963Y-82143527D01*
X178381750Y-82002812D01*
X178381749Y-82002810D01*
X178305893Y-81910380D01*
X178280528Y-81879472D01*
X178249619Y-81854106D01*
X177130899Y-80735387D01*
X177105528Y-80704472D01*
X176982189Y-80603251D01*
X176841473Y-80528037D01*
X176688788Y-80481720D01*
X176569791Y-80470000D01*
X176569788Y-80470000D01*
X176530000Y-80466081D01*
X176490212Y-80470000D01*
X163362087Y-80470000D01*
X163350812Y-80355518D01*
X163314502Y-80235820D01*
X163255537Y-80125506D01*
X163176185Y-80028815D01*
X163079494Y-79949463D01*
X162969180Y-79890498D01*
X162849482Y-79854188D01*
X162725000Y-79841928D01*
X162717785Y-79841928D01*
X162738097Y-79772702D01*
X161925000Y-78959605D01*
X161111903Y-79772702D01*
X161132215Y-79841928D01*
X161125000Y-79841928D01*
X161000518Y-79854188D01*
X160880820Y-79890498D01*
X160770506Y-79949463D01*
X160673815Y-80028815D01*
X160594463Y-80125506D01*
X160535498Y-80235820D01*
X160499188Y-80355518D01*
X160486928Y-80480000D01*
X160486928Y-81695001D01*
X138514786Y-81695001D01*
X138474998Y-81691082D01*
X138435210Y-81695001D01*
X138435208Y-81695001D01*
X138316211Y-81706721D01*
X138163526Y-81753038D01*
X138163126Y-81753252D01*
X138022809Y-81828252D01*
X137967209Y-81873882D01*
X137899471Y-81929473D01*
X137874106Y-81960381D01*
X131744488Y-88090000D01*
X121324787Y-88090000D01*
X121284999Y-88086081D01*
X121245211Y-88090000D01*
X121245209Y-88090000D01*
X121126212Y-88101720D01*
X120973527Y-88148037D01*
X120832811Y-88223251D01*
X120709472Y-88324472D01*
X120684107Y-88355380D01*
X118200387Y-90839100D01*
X118169472Y-90864472D01*
X118099703Y-90949487D01*
X118068251Y-90987811D01*
X118050284Y-91021426D01*
X117993037Y-91128528D01*
X117946720Y-91281213D01*
X117942558Y-91323475D01*
X117931081Y-91440000D01*
X117935000Y-91479788D01*
X117935001Y-118705202D01*
X117931081Y-118745000D01*
X117946721Y-118903787D01*
X117993038Y-119056473D01*
X118068251Y-119197189D01*
X118122292Y-119263037D01*
X118169473Y-119320528D01*
X118200383Y-119345895D01*
X119205000Y-120350513D01*
X119205000Y-120610212D01*
X119201081Y-120650000D01*
X119205000Y-120689788D01*
X119205000Y-120689791D01*
X119216720Y-120808788D01*
X119230717Y-120854930D01*
X119215000Y-121014508D01*
X119215000Y-121555491D01*
X119235764Y-121766308D01*
X119317818Y-122036807D01*
X119451068Y-122286100D01*
X119630392Y-122504607D01*
X119848899Y-122683932D01*
X120098192Y-122817182D01*
X120368691Y-122899236D01*
X120650000Y-122926943D01*
X120931308Y-122899236D01*
X121201807Y-122817182D01*
X121451100Y-122683932D01*
X121669607Y-122504608D01*
X121848932Y-122286101D01*
X121918122Y-122156655D01*
X121925570Y-122174227D01*
X122084327Y-122407662D01*
X122285575Y-122605639D01*
X122521579Y-122760551D01*
X122783270Y-122866444D01*
X122840961Y-122876904D01*
X123063000Y-122754915D01*
X123063000Y-121412000D01*
X123043000Y-121412000D01*
X123043000Y-121158000D01*
X123063000Y-121158000D01*
X123063000Y-119815085D01*
X122840961Y-119693096D01*
X122783270Y-119703556D01*
X122521579Y-119809449D01*
X122285575Y-119964361D01*
X122084327Y-120162338D01*
X121925570Y-120395773D01*
X121918122Y-120413345D01*
X121848932Y-120283899D01*
X121669608Y-120065392D01*
X121451101Y-119886068D01*
X121201808Y-119752818D01*
X120931309Y-119670764D01*
X120739345Y-119651857D01*
X120731951Y-119638024D01*
X120691749Y-119562810D01*
X120637350Y-119496525D01*
X120590528Y-119439472D01*
X120559619Y-119414106D01*
X119555000Y-118409488D01*
X119555000Y-99552742D01*
X119630392Y-99644607D01*
X119848899Y-99823932D01*
X120098192Y-99957182D01*
X120368691Y-100039236D01*
X120650000Y-100066943D01*
X120931308Y-100039236D01*
X121201807Y-99957182D01*
X121451100Y-99823932D01*
X121669607Y-99644608D01*
X121848932Y-99426101D01*
X121920000Y-99293142D01*
X121991068Y-99426100D01*
X122170392Y-99644607D01*
X122388899Y-99823932D01*
X122638192Y-99957182D01*
X122908691Y-100039236D01*
X123190000Y-100066943D01*
X123471308Y-100039236D01*
X123741807Y-99957182D01*
X123991100Y-99823932D01*
X124209607Y-99644608D01*
X124388932Y-99426101D01*
X124460000Y-99293142D01*
X124531068Y-99426100D01*
X124710392Y-99644607D01*
X124928899Y-99823932D01*
X125178192Y-99957182D01*
X125448691Y-100039236D01*
X125730000Y-100066943D01*
X126011308Y-100039236D01*
X126281807Y-99957182D01*
X126531100Y-99823932D01*
X126749607Y-99644608D01*
X126928932Y-99426101D01*
X127000000Y-99293142D01*
X127071068Y-99426100D01*
X127250392Y-99644607D01*
X127468899Y-99823932D01*
X127718192Y-99957182D01*
X127988691Y-100039236D01*
X128270000Y-100066943D01*
X128551308Y-100039236D01*
X128821807Y-99957182D01*
X129071100Y-99823932D01*
X129289607Y-99644608D01*
X129468932Y-99426101D01*
X129540000Y-99293142D01*
X129611068Y-99426100D01*
X129790392Y-99644607D01*
X130008899Y-99823932D01*
X130258192Y-99957182D01*
X130528691Y-100039236D01*
X130810000Y-100066943D01*
X131091308Y-100039236D01*
X131361807Y-99957182D01*
X131611100Y-99823932D01*
X131829607Y-99644608D01*
X132008932Y-99426101D01*
X132080000Y-99293142D01*
X132151068Y-99426100D01*
X132330392Y-99644607D01*
X132548899Y-99823932D01*
X132798192Y-99957182D01*
X133068691Y-100039236D01*
X133350000Y-100066943D01*
X133631308Y-100039236D01*
X133901807Y-99957182D01*
X134151100Y-99823932D01*
X134369607Y-99644608D01*
X134548932Y-99426101D01*
X134620000Y-99293142D01*
X134691068Y-99426100D01*
X134870392Y-99644607D01*
X135088899Y-99823932D01*
X135338192Y-99957182D01*
X135608691Y-100039236D01*
X135890000Y-100066943D01*
X136171308Y-100039236D01*
X136441807Y-99957182D01*
X136691100Y-99823932D01*
X136852441Y-99691523D01*
X136899463Y-99779494D01*
X136978815Y-99876185D01*
X137075506Y-99955537D01*
X137185820Y-100014502D01*
X137305518Y-100050812D01*
X137430000Y-100063072D01*
X139430000Y-100063072D01*
X139554482Y-100050812D01*
X139573000Y-100045195D01*
X139573000Y-120215746D01*
X139449608Y-120065392D01*
X139231101Y-119886068D01*
X138981808Y-119752818D01*
X138711309Y-119670764D01*
X138430000Y-119643057D01*
X138148692Y-119670764D01*
X137878193Y-119752818D01*
X137628900Y-119886068D01*
X137410393Y-120065392D01*
X137231068Y-120283899D01*
X137160000Y-120416858D01*
X137088932Y-120283899D01*
X136909608Y-120065392D01*
X136691101Y-119886068D01*
X136441808Y-119752818D01*
X136171309Y-119670764D01*
X135890000Y-119643057D01*
X135608692Y-119670764D01*
X135338193Y-119752818D01*
X135088900Y-119886068D01*
X134939491Y-120008685D01*
X134379797Y-119448992D01*
X134355995Y-119419989D01*
X134240270Y-119325016D01*
X134108241Y-119254444D01*
X133964980Y-119210987D01*
X133853327Y-119199990D01*
X133853316Y-119199990D01*
X133815994Y-119196314D01*
X133778672Y-119199990D01*
X130922332Y-119199990D01*
X130885009Y-119196314D01*
X130847687Y-119199990D01*
X130847677Y-119199990D01*
X130736024Y-119210987D01*
X130592763Y-119254444D01*
X130460734Y-119325016D01*
X130345009Y-119419989D01*
X130321206Y-119448993D01*
X130299003Y-119471196D01*
X130269999Y-119494999D01*
X130230376Y-119543280D01*
X130175026Y-119610724D01*
X130125421Y-119703528D01*
X130104454Y-119742754D01*
X130071059Y-119852843D01*
X130008900Y-119886068D01*
X129790393Y-120065392D01*
X129611068Y-120283899D01*
X129540000Y-120416858D01*
X129468932Y-120283899D01*
X129289608Y-120065392D01*
X129071101Y-119886068D01*
X128821808Y-119752818D01*
X128551309Y-119670764D01*
X128270000Y-119643057D01*
X127988692Y-119670764D01*
X127718193Y-119752818D01*
X127468900Y-119886068D01*
X127250393Y-120065392D01*
X127071068Y-120283899D01*
X127000000Y-120416858D01*
X126928932Y-120283899D01*
X126749608Y-120065392D01*
X126531101Y-119886068D01*
X126281808Y-119752818D01*
X126011309Y-119670764D01*
X125730000Y-119643057D01*
X125448692Y-119670764D01*
X125178193Y-119752818D01*
X124928900Y-119886068D01*
X124710393Y-120065392D01*
X124531068Y-120283899D01*
X124461878Y-120413345D01*
X124454430Y-120395773D01*
X124295673Y-120162338D01*
X124094425Y-119964361D01*
X123858421Y-119809449D01*
X123596730Y-119703556D01*
X123539039Y-119693096D01*
X123317000Y-119815085D01*
X123317000Y-121158000D01*
X123337000Y-121158000D01*
X123337000Y-121412000D01*
X123317000Y-121412000D01*
X123317000Y-122754915D01*
X123539039Y-122876904D01*
X123596730Y-122866444D01*
X123858421Y-122760551D01*
X124094425Y-122605639D01*
X124295673Y-122407662D01*
X124454430Y-122174227D01*
X124461878Y-122156655D01*
X124531068Y-122286100D01*
X124710392Y-122504607D01*
X124928899Y-122683932D01*
X125178192Y-122817182D01*
X125448691Y-122899236D01*
X125730000Y-122926943D01*
X126011308Y-122899236D01*
X126281807Y-122817182D01*
X126531100Y-122683932D01*
X126749607Y-122504608D01*
X126928932Y-122286101D01*
X127000000Y-122153142D01*
X127071068Y-122286100D01*
X127250392Y-122504607D01*
X127468899Y-122683932D01*
X127718192Y-122817182D01*
X127988691Y-122899236D01*
X128270000Y-122926943D01*
X128551308Y-122899236D01*
X128821807Y-122817182D01*
X129071100Y-122683932D01*
X129289607Y-122504608D01*
X129468932Y-122286101D01*
X129540000Y-122153142D01*
X129611068Y-122286100D01*
X129779213Y-122490985D01*
X128570199Y-123700000D01*
X120687322Y-123700000D01*
X120649999Y-123696324D01*
X120612676Y-123700000D01*
X120612667Y-123700000D01*
X120501014Y-123710997D01*
X120357753Y-123754454D01*
X120225724Y-123825026D01*
X120109999Y-123919999D01*
X120086201Y-123948997D01*
X118868998Y-125166201D01*
X118840000Y-125189999D01*
X118816202Y-125218997D01*
X118816201Y-125218998D01*
X118745026Y-125305724D01*
X118674454Y-125437754D01*
X118649726Y-125519275D01*
X118630998Y-125581014D01*
X118620001Y-125692667D01*
X118616324Y-125730000D01*
X118620001Y-125767332D01*
X118620000Y-130762000D01*
X117561993Y-130762000D01*
X117429560Y-130442279D01*
X117168550Y-130051651D01*
X116836349Y-129719450D01*
X116445721Y-129458440D01*
X116011679Y-129278654D01*
X115550902Y-129187000D01*
X115081098Y-129187000D01*
X114620321Y-129278654D01*
X114186279Y-129458440D01*
X113795651Y-129719450D01*
X113463450Y-130051651D01*
X113202440Y-130442279D01*
X113022654Y-130876321D01*
X112931000Y-131337098D01*
X110685000Y-131337098D01*
X110685000Y-91298665D01*
X114135000Y-91298665D01*
X114135000Y-91581335D01*
X114190147Y-91858574D01*
X114298320Y-92119727D01*
X114455363Y-92354759D01*
X114655241Y-92554637D01*
X114890273Y-92711680D01*
X115151426Y-92819853D01*
X115428665Y-92875000D01*
X115711335Y-92875000D01*
X115988574Y-92819853D01*
X116249727Y-92711680D01*
X116484759Y-92554637D01*
X116684637Y-92354759D01*
X116841680Y-92119727D01*
X116949853Y-91858574D01*
X117005000Y-91581335D01*
X117005000Y-91298665D01*
X116949853Y-91021426D01*
X116841680Y-90760273D01*
X116684637Y-90525241D01*
X116484759Y-90325363D01*
X116249727Y-90168320D01*
X115988574Y-90060147D01*
X115711335Y-90005000D01*
X115428665Y-90005000D01*
X115151426Y-90060147D01*
X114890273Y-90168320D01*
X114655241Y-90325363D01*
X114455363Y-90525241D01*
X114298320Y-90760273D01*
X114190147Y-91021426D01*
X114135000Y-91298665D01*
X110685000Y-91298665D01*
X110685000Y-81138665D01*
X114135000Y-81138665D01*
X114135000Y-81421335D01*
X114190147Y-81698574D01*
X114298320Y-81959727D01*
X114455363Y-82194759D01*
X114655241Y-82394637D01*
X114890273Y-82551680D01*
X115151426Y-82659853D01*
X115428665Y-82715000D01*
X115711335Y-82715000D01*
X115988574Y-82659853D01*
X116249727Y-82551680D01*
X116484759Y-82394637D01*
X116684637Y-82194759D01*
X116841680Y-81959727D01*
X116949853Y-81698574D01*
X117005000Y-81421335D01*
X117005000Y-81138665D01*
X120485000Y-81138665D01*
X120485000Y-81421335D01*
X120540147Y-81698574D01*
X120648320Y-81959727D01*
X120805363Y-82194759D01*
X121005241Y-82394637D01*
X121240273Y-82551680D01*
X121501426Y-82659853D01*
X121778665Y-82715000D01*
X122061335Y-82715000D01*
X122338574Y-82659853D01*
X122599727Y-82551680D01*
X122834759Y-82394637D01*
X123034637Y-82194759D01*
X123191680Y-81959727D01*
X123299853Y-81698574D01*
X123355000Y-81421335D01*
X123355000Y-81138665D01*
X126835000Y-81138665D01*
X126835000Y-81421335D01*
X126890147Y-81698574D01*
X126998320Y-81959727D01*
X127155363Y-82194759D01*
X127355241Y-82394637D01*
X127590273Y-82551680D01*
X127851426Y-82659853D01*
X128128665Y-82715000D01*
X128411335Y-82715000D01*
X128688574Y-82659853D01*
X128949727Y-82551680D01*
X129184759Y-82394637D01*
X129384637Y-82194759D01*
X129541680Y-81959727D01*
X129649853Y-81698574D01*
X129705000Y-81421335D01*
X129705000Y-81138665D01*
X133185000Y-81138665D01*
X133185000Y-81421335D01*
X133240147Y-81698574D01*
X133348320Y-81959727D01*
X133505363Y-82194759D01*
X133705241Y-82394637D01*
X133940273Y-82551680D01*
X134201426Y-82659853D01*
X134478665Y-82715000D01*
X134761335Y-82715000D01*
X135038574Y-82659853D01*
X135299727Y-82551680D01*
X135534759Y-82394637D01*
X135734637Y-82194759D01*
X135891680Y-81959727D01*
X135999853Y-81698574D01*
X136055000Y-81421335D01*
X136055000Y-81138665D01*
X135999853Y-80861426D01*
X135891680Y-80600273D01*
X135734637Y-80365241D01*
X135534759Y-80165363D01*
X135299727Y-80008320D01*
X135038574Y-79900147D01*
X134761335Y-79845000D01*
X134478665Y-79845000D01*
X134201426Y-79900147D01*
X133940273Y-80008320D01*
X133705241Y-80165363D01*
X133505363Y-80365241D01*
X133348320Y-80600273D01*
X133240147Y-80861426D01*
X133185000Y-81138665D01*
X129705000Y-81138665D01*
X129649853Y-80861426D01*
X129541680Y-80600273D01*
X129384637Y-80365241D01*
X129184759Y-80165363D01*
X128949727Y-80008320D01*
X128688574Y-79900147D01*
X128411335Y-79845000D01*
X128128665Y-79845000D01*
X127851426Y-79900147D01*
X127590273Y-80008320D01*
X127355241Y-80165363D01*
X127155363Y-80365241D01*
X126998320Y-80600273D01*
X126890147Y-80861426D01*
X126835000Y-81138665D01*
X123355000Y-81138665D01*
X123299853Y-80861426D01*
X123191680Y-80600273D01*
X123034637Y-80365241D01*
X122834759Y-80165363D01*
X122599727Y-80008320D01*
X122338574Y-79900147D01*
X122061335Y-79845000D01*
X121778665Y-79845000D01*
X121501426Y-79900147D01*
X121240273Y-80008320D01*
X121005241Y-80165363D01*
X120805363Y-80365241D01*
X120648320Y-80600273D01*
X120540147Y-80861426D01*
X120485000Y-81138665D01*
X117005000Y-81138665D01*
X116949853Y-80861426D01*
X116841680Y-80600273D01*
X116684637Y-80365241D01*
X116484759Y-80165363D01*
X116249727Y-80008320D01*
X115988574Y-79900147D01*
X115711335Y-79845000D01*
X115428665Y-79845000D01*
X115151426Y-79900147D01*
X114890273Y-80008320D01*
X114655241Y-80165363D01*
X114455363Y-80365241D01*
X114298320Y-80600273D01*
X114190147Y-80861426D01*
X114135000Y-81138665D01*
X110685000Y-81138665D01*
X110685000Y-78850512D01*
X160484783Y-78850512D01*
X160526213Y-79130130D01*
X160621397Y-79396292D01*
X160688329Y-79521514D01*
X160932298Y-79593097D01*
X161745395Y-78780000D01*
X162104605Y-78780000D01*
X162917702Y-79593097D01*
X163161671Y-79521514D01*
X163282571Y-79266004D01*
X163351300Y-78991816D01*
X163365217Y-78709488D01*
X163323787Y-78429870D01*
X163228603Y-78163708D01*
X163161671Y-78038486D01*
X162917702Y-77966903D01*
X162104605Y-78780000D01*
X161745395Y-78780000D01*
X160932298Y-77966903D01*
X160688329Y-78038486D01*
X160567429Y-78293996D01*
X160498700Y-78568184D01*
X160484783Y-78850512D01*
X110685000Y-78850512D01*
X110685000Y-77787298D01*
X161111903Y-77787298D01*
X161925000Y-78600395D01*
X162738097Y-77787298D01*
X162666514Y-77543329D01*
X162411004Y-77422429D01*
X162136816Y-77353700D01*
X161854488Y-77339783D01*
X161574870Y-77381213D01*
X161308708Y-77476397D01*
X161183486Y-77543329D01*
X161111903Y-77787298D01*
X110685000Y-77787298D01*
X110685000Y-72553123D01*
X110810173Y-72678296D01*
X111159854Y-72911945D01*
X111548400Y-73072886D01*
X111960877Y-73154933D01*
X112381435Y-73154933D01*
X112793912Y-73072886D01*
X113182458Y-72911945D01*
X113532139Y-72678296D01*
X113829519Y-72380916D01*
X114063168Y-72031235D01*
X114224109Y-71642689D01*
X114306156Y-71230212D01*
X114306156Y-70809654D01*
X114224109Y-70397177D01*
X114063168Y-70008631D01*
X113829519Y-69658950D01*
X113532139Y-69361570D01*
X113182458Y-69127921D01*
X112793912Y-68966980D01*
X112381435Y-68884933D01*
X111960877Y-68884933D01*
X111548400Y-68966980D01*
X111159854Y-69127921D01*
X110810173Y-69361570D01*
X110685000Y-69486743D01*
X110685000Y-41552943D01*
X110809653Y-41677596D01*
X111159334Y-41911245D01*
X111547880Y-42072186D01*
X111960357Y-42154233D01*
X112380915Y-42154233D01*
X112793392Y-42072186D01*
X113181938Y-41911245D01*
X113531619Y-41677596D01*
X113828999Y-41380216D01*
X114062648Y-41030535D01*
X114223589Y-40641989D01*
X114305636Y-40229512D01*
X114305636Y-39808954D01*
X114252899Y-39543825D01*
X142035636Y-39543825D01*
X142035636Y-40494640D01*
X142057846Y-40720145D01*
X142145619Y-41009493D01*
X142288155Y-41276159D01*
X142479975Y-41509894D01*
X142713709Y-41701714D01*
X142980375Y-41844250D01*
X143269723Y-41932023D01*
X143570636Y-41961660D01*
X143871548Y-41932023D01*
X144160896Y-41844250D01*
X144427562Y-41701714D01*
X144661297Y-41509894D01*
X144840636Y-41291368D01*
X145019975Y-41509894D01*
X145253709Y-41701714D01*
X145520375Y-41844250D01*
X145809723Y-41932023D01*
X146110636Y-41961660D01*
X146411548Y-41932023D01*
X146700896Y-41844250D01*
X146967562Y-41701714D01*
X147201297Y-41509894D01*
X147380636Y-41291368D01*
X147559975Y-41509894D01*
X147793709Y-41701714D01*
X148060375Y-41844250D01*
X148349723Y-41932023D01*
X148650636Y-41961660D01*
X148951548Y-41932023D01*
X149240896Y-41844250D01*
X149507562Y-41701714D01*
X149741297Y-41509894D01*
X149920636Y-41291368D01*
X150099975Y-41509894D01*
X150333709Y-41701714D01*
X150600375Y-41844250D01*
X150889723Y-41932023D01*
X151190636Y-41961660D01*
X151491548Y-41932023D01*
X151780896Y-41844250D01*
X152047562Y-41701714D01*
X152281297Y-41509894D01*
X152460636Y-41291368D01*
X152639975Y-41509894D01*
X152873709Y-41701714D01*
X153140375Y-41844250D01*
X153429723Y-41932023D01*
X153730636Y-41961660D01*
X154031548Y-41932023D01*
X154320896Y-41844250D01*
X154587562Y-41701714D01*
X154821297Y-41509894D01*
X155000636Y-41291368D01*
X155179975Y-41509894D01*
X155413709Y-41701714D01*
X155680375Y-41844250D01*
X155969723Y-41932023D01*
X156270636Y-41961660D01*
X156571548Y-41932023D01*
X156860896Y-41844250D01*
X157127562Y-41701714D01*
X157361297Y-41509894D01*
X157540636Y-41291368D01*
X157719975Y-41509894D01*
X157953709Y-41701714D01*
X158220375Y-41844250D01*
X158509723Y-41932023D01*
X158810636Y-41961660D01*
X159111548Y-41932023D01*
X159400896Y-41844250D01*
X159667562Y-41701714D01*
X159901297Y-41509894D01*
X160080636Y-41291368D01*
X160259975Y-41509894D01*
X160493709Y-41701714D01*
X160760375Y-41844250D01*
X161049723Y-41932023D01*
X161350636Y-41961660D01*
X161651548Y-41932023D01*
X161940896Y-41844250D01*
X162207562Y-41701714D01*
X162441297Y-41509894D01*
X162620636Y-41291368D01*
X162799975Y-41509894D01*
X163033709Y-41701714D01*
X163300375Y-41844250D01*
X163589723Y-41932023D01*
X163890636Y-41961660D01*
X164191548Y-41932023D01*
X164480896Y-41844250D01*
X164747562Y-41701714D01*
X164981297Y-41509894D01*
X165160636Y-41291368D01*
X165339975Y-41509894D01*
X165573709Y-41701714D01*
X165840375Y-41844250D01*
X166129723Y-41932023D01*
X166430636Y-41961660D01*
X166731548Y-41932023D01*
X167020896Y-41844250D01*
X167287562Y-41701714D01*
X167521297Y-41509894D01*
X167700636Y-41291368D01*
X167879975Y-41509894D01*
X168113709Y-41701714D01*
X168380375Y-41844250D01*
X168669723Y-41932023D01*
X168970636Y-41961660D01*
X169271548Y-41932023D01*
X169560896Y-41844250D01*
X169827562Y-41701714D01*
X170061297Y-41509894D01*
X170240636Y-41291368D01*
X170419975Y-41509894D01*
X170653709Y-41701714D01*
X170920375Y-41844250D01*
X171209723Y-41932023D01*
X171510636Y-41961660D01*
X171811548Y-41932023D01*
X172100896Y-41844250D01*
X172367562Y-41701714D01*
X172601297Y-41509894D01*
X172780636Y-41291368D01*
X172959975Y-41509894D01*
X173193709Y-41701714D01*
X173460375Y-41844250D01*
X173749723Y-41932023D01*
X174050636Y-41961660D01*
X174351548Y-41932023D01*
X174640896Y-41844250D01*
X174907562Y-41701714D01*
X175141297Y-41509894D01*
X175320636Y-41291368D01*
X175499975Y-41509894D01*
X175733709Y-41701714D01*
X176000375Y-41844250D01*
X176289723Y-41932023D01*
X176590636Y-41961660D01*
X176891548Y-41932023D01*
X177180896Y-41844250D01*
X177447562Y-41701714D01*
X177681297Y-41509894D01*
X177860636Y-41291368D01*
X178039975Y-41509894D01*
X178273709Y-41701714D01*
X178540375Y-41844250D01*
X178829723Y-41932023D01*
X179130636Y-41961660D01*
X179431548Y-41932023D01*
X179720896Y-41844250D01*
X179987562Y-41701714D01*
X180176141Y-41546953D01*
X180181134Y-41563413D01*
X180240099Y-41673727D01*
X180319451Y-41770418D01*
X180416142Y-41849770D01*
X180526456Y-41908735D01*
X180646154Y-41945045D01*
X180770636Y-41957305D01*
X181384886Y-41954233D01*
X181543636Y-41795483D01*
X181543636Y-40146233D01*
X181797636Y-40146233D01*
X181797636Y-41795483D01*
X181956386Y-41954233D01*
X182570636Y-41957305D01*
X182695118Y-41945045D01*
X182814816Y-41908735D01*
X182925130Y-41849770D01*
X183021821Y-41770418D01*
X183101173Y-41673727D01*
X183160138Y-41563413D01*
X183196448Y-41443715D01*
X183208708Y-41319233D01*
X183205636Y-40304983D01*
X183046886Y-40146233D01*
X181797636Y-40146233D01*
X181543636Y-40146233D01*
X181523636Y-40146233D01*
X181523636Y-39892233D01*
X181543636Y-39892233D01*
X181543636Y-38242983D01*
X181797636Y-38242983D01*
X181797636Y-39892233D01*
X183046886Y-39892233D01*
X183205636Y-39733483D01*
X183208708Y-38719233D01*
X183196448Y-38594751D01*
X183160138Y-38475053D01*
X183101173Y-38364739D01*
X183021821Y-38268048D01*
X182925130Y-38188696D01*
X182814816Y-38129731D01*
X182695118Y-38093421D01*
X182570636Y-38081161D01*
X181956386Y-38084233D01*
X181797636Y-38242983D01*
X181543636Y-38242983D01*
X181384886Y-38084233D01*
X180770636Y-38081161D01*
X180646154Y-38093421D01*
X180526456Y-38129731D01*
X180416142Y-38188696D01*
X180319451Y-38268048D01*
X180240099Y-38364739D01*
X180181134Y-38475053D01*
X180176141Y-38491513D01*
X179987563Y-38336752D01*
X179720897Y-38194216D01*
X179431549Y-38106443D01*
X179130636Y-38076806D01*
X178829724Y-38106443D01*
X178540376Y-38194216D01*
X178273710Y-38336752D01*
X178039975Y-38528572D01*
X177860636Y-38747098D01*
X177681297Y-38528572D01*
X177447563Y-38336752D01*
X177180897Y-38194216D01*
X176891549Y-38106443D01*
X176590636Y-38076806D01*
X176289724Y-38106443D01*
X176000376Y-38194216D01*
X175733710Y-38336752D01*
X175499975Y-38528572D01*
X175320636Y-38747098D01*
X175141297Y-38528572D01*
X174907563Y-38336752D01*
X174640897Y-38194216D01*
X174351549Y-38106443D01*
X174050636Y-38076806D01*
X173749724Y-38106443D01*
X173460376Y-38194216D01*
X173193710Y-38336752D01*
X172959975Y-38528572D01*
X172780636Y-38747098D01*
X172601297Y-38528572D01*
X172367563Y-38336752D01*
X172100897Y-38194216D01*
X171811549Y-38106443D01*
X171510636Y-38076806D01*
X171209724Y-38106443D01*
X170920376Y-38194216D01*
X170653710Y-38336752D01*
X170419975Y-38528572D01*
X170240636Y-38747098D01*
X170061297Y-38528572D01*
X169827563Y-38336752D01*
X169560897Y-38194216D01*
X169271549Y-38106443D01*
X168970636Y-38076806D01*
X168669724Y-38106443D01*
X168380376Y-38194216D01*
X168113710Y-38336752D01*
X167879975Y-38528572D01*
X167700636Y-38747098D01*
X167521297Y-38528572D01*
X167287563Y-38336752D01*
X167020897Y-38194216D01*
X166731549Y-38106443D01*
X166430636Y-38076806D01*
X166129724Y-38106443D01*
X165840376Y-38194216D01*
X165573710Y-38336752D01*
X165339975Y-38528572D01*
X165160636Y-38747098D01*
X164981297Y-38528572D01*
X164747563Y-38336752D01*
X164480897Y-38194216D01*
X164191549Y-38106443D01*
X163890636Y-38076806D01*
X163589724Y-38106443D01*
X163300376Y-38194216D01*
X163033710Y-38336752D01*
X162799975Y-38528572D01*
X162620636Y-38747098D01*
X162441297Y-38528572D01*
X162207563Y-38336752D01*
X161940897Y-38194216D01*
X161651549Y-38106443D01*
X161350636Y-38076806D01*
X161049724Y-38106443D01*
X160760376Y-38194216D01*
X160493710Y-38336752D01*
X160259975Y-38528572D01*
X160080636Y-38747098D01*
X159901297Y-38528572D01*
X159667563Y-38336752D01*
X159400897Y-38194216D01*
X159111549Y-38106443D01*
X158810636Y-38076806D01*
X158509724Y-38106443D01*
X158220376Y-38194216D01*
X157953710Y-38336752D01*
X157719975Y-38528572D01*
X157540636Y-38747098D01*
X157361297Y-38528572D01*
X157127563Y-38336752D01*
X156860897Y-38194216D01*
X156571549Y-38106443D01*
X156270636Y-38076806D01*
X155969724Y-38106443D01*
X155680376Y-38194216D01*
X155413710Y-38336752D01*
X155179975Y-38528572D01*
X155000636Y-38747098D01*
X154821297Y-38528572D01*
X154587563Y-38336752D01*
X154320897Y-38194216D01*
X154031549Y-38106443D01*
X153730636Y-38076806D01*
X153429724Y-38106443D01*
X153140376Y-38194216D01*
X152873710Y-38336752D01*
X152639975Y-38528572D01*
X152460636Y-38747098D01*
X152281297Y-38528572D01*
X152047563Y-38336752D01*
X151780897Y-38194216D01*
X151491549Y-38106443D01*
X151190636Y-38076806D01*
X150889724Y-38106443D01*
X150600376Y-38194216D01*
X150333710Y-38336752D01*
X150099975Y-38528572D01*
X149920636Y-38747098D01*
X149741297Y-38528572D01*
X149507563Y-38336752D01*
X149240897Y-38194216D01*
X148951549Y-38106443D01*
X148650636Y-38076806D01*
X148349724Y-38106443D01*
X148060376Y-38194216D01*
X147793710Y-38336752D01*
X147559975Y-38528572D01*
X147380636Y-38747098D01*
X147201297Y-38528572D01*
X146967563Y-38336752D01*
X146700897Y-38194216D01*
X146411549Y-38106443D01*
X146110636Y-38076806D01*
X145809724Y-38106443D01*
X145520376Y-38194216D01*
X145253710Y-38336752D01*
X145019975Y-38528572D01*
X144840636Y-38747098D01*
X144661297Y-38528572D01*
X144427563Y-38336752D01*
X144160897Y-38194216D01*
X143871549Y-38106443D01*
X143570636Y-38076806D01*
X143269724Y-38106443D01*
X142980376Y-38194216D01*
X142713710Y-38336752D01*
X142479975Y-38528572D01*
X142288155Y-38762306D01*
X142145619Y-39028972D01*
X142057846Y-39318320D01*
X142035636Y-39543825D01*
X114252899Y-39543825D01*
X114223589Y-39396477D01*
X114062648Y-39007931D01*
X113828999Y-38658250D01*
X113531619Y-38360870D01*
X113181938Y-38127221D01*
X113055865Y-38075000D01*
X115033647Y-38075000D01*
X115063645Y-38072045D01*
X115076047Y-38072132D01*
X115085565Y-38071198D01*
X115473758Y-38030397D01*
X115534539Y-38017920D01*
X115595560Y-38006280D01*
X115604716Y-38003516D01*
X115977591Y-37888092D01*
X116034870Y-37864014D01*
X116092388Y-37840775D01*
X116100833Y-37836286D01*
X116444188Y-37650634D01*
X116495635Y-37615932D01*
X116547610Y-37581921D01*
X116555022Y-37575876D01*
X116855777Y-37327069D01*
X116899524Y-37283016D01*
X116943881Y-37239578D01*
X116949978Y-37232208D01*
X117196679Y-36929724D01*
X117231047Y-36877995D01*
X117266111Y-36826785D01*
X117270661Y-36818372D01*
X117453910Y-36473730D01*
X117477555Y-36416364D01*
X117502028Y-36359264D01*
X117504856Y-36350127D01*
X117617674Y-35976456D01*
X117629737Y-35915531D01*
X117642641Y-35854826D01*
X117643641Y-35845314D01*
X117681731Y-35456845D01*
X117681731Y-35456837D01*
X117685000Y-35423647D01*
X117685000Y-32682360D01*
X118399513Y-32682360D01*
X118411773Y-32806842D01*
X118448083Y-32926540D01*
X118507048Y-33036854D01*
X118586400Y-33133545D01*
X118683091Y-33212897D01*
X118793405Y-33271862D01*
X118811712Y-33277416D01*
X118745273Y-33343855D01*
X118577286Y-33595265D01*
X118461574Y-33874617D01*
X118402585Y-34171176D01*
X118402585Y-34473544D01*
X118461574Y-34770103D01*
X118577286Y-35049455D01*
X118745273Y-35300865D01*
X118959080Y-35514672D01*
X119210490Y-35682659D01*
X119489842Y-35798371D01*
X119786401Y-35857360D01*
X120088769Y-35857360D01*
X120385328Y-35798371D01*
X120664680Y-35682659D01*
X120916090Y-35514672D01*
X121129897Y-35300865D01*
X121297884Y-35049455D01*
X121413596Y-34770103D01*
X121472585Y-34473544D01*
X121472585Y-34171176D01*
X121413596Y-33874617D01*
X121297884Y-33595265D01*
X121129897Y-33343855D01*
X121063458Y-33277416D01*
X121081765Y-33271862D01*
X121192079Y-33212897D01*
X121288770Y-33133545D01*
X121368122Y-33036854D01*
X121427087Y-32926540D01*
X121463397Y-32806842D01*
X121475657Y-32682360D01*
X124749513Y-32682360D01*
X124761773Y-32806842D01*
X124798083Y-32926540D01*
X124857048Y-33036854D01*
X124936400Y-33133545D01*
X125033091Y-33212897D01*
X125143405Y-33271862D01*
X125161712Y-33277416D01*
X125095273Y-33343855D01*
X124927286Y-33595265D01*
X124811574Y-33874617D01*
X124752585Y-34171176D01*
X124752585Y-34473544D01*
X124811574Y-34770103D01*
X124927286Y-35049455D01*
X125095273Y-35300865D01*
X125309080Y-35514672D01*
X125560490Y-35682659D01*
X125839842Y-35798371D01*
X126136401Y-35857360D01*
X126438769Y-35857360D01*
X126735328Y-35798371D01*
X127014680Y-35682659D01*
X127266090Y-35514672D01*
X127479897Y-35300865D01*
X127647884Y-35049455D01*
X127763596Y-34770103D01*
X127822585Y-34473544D01*
X127822585Y-34171176D01*
X127763596Y-33874617D01*
X127647884Y-33595265D01*
X127479897Y-33343855D01*
X127413458Y-33277416D01*
X127431765Y-33271862D01*
X127542079Y-33212897D01*
X127638770Y-33133545D01*
X127718122Y-33036854D01*
X127777087Y-32926540D01*
X127813397Y-32806842D01*
X127825657Y-32682360D01*
X130464513Y-32682360D01*
X130476773Y-32806842D01*
X130513083Y-32926540D01*
X130572048Y-33036854D01*
X130651400Y-33133545D01*
X130748091Y-33212897D01*
X130858405Y-33271862D01*
X130876712Y-33277416D01*
X130810273Y-33343855D01*
X130642286Y-33595265D01*
X130526574Y-33874617D01*
X130467585Y-34171176D01*
X130467585Y-34473544D01*
X130526574Y-34770103D01*
X130642286Y-35049455D01*
X130810273Y-35300865D01*
X131024080Y-35514672D01*
X131275490Y-35682659D01*
X131554842Y-35798371D01*
X131851401Y-35857360D01*
X132153769Y-35857360D01*
X132450328Y-35798371D01*
X132729680Y-35682659D01*
X132981090Y-35514672D01*
X133194897Y-35300865D01*
X133362884Y-35049455D01*
X133478596Y-34770103D01*
X133537585Y-34473544D01*
X133537585Y-34171176D01*
X133478596Y-33874617D01*
X133362884Y-33595265D01*
X133194897Y-33343855D01*
X133128458Y-33277416D01*
X133146765Y-33271862D01*
X133257079Y-33212897D01*
X133353770Y-33133545D01*
X133433122Y-33036854D01*
X133492087Y-32926540D01*
X133528397Y-32806842D01*
X133540657Y-32682360D01*
X133537585Y-32068110D01*
X133378835Y-31909360D01*
X132129585Y-31909360D01*
X132129585Y-31929360D01*
X131875585Y-31929360D01*
X131875585Y-31909360D01*
X130626335Y-31909360D01*
X130467585Y-32068110D01*
X130464513Y-32682360D01*
X127825657Y-32682360D01*
X127822585Y-32068110D01*
X127663835Y-31909360D01*
X126414585Y-31909360D01*
X126414585Y-31929360D01*
X126160585Y-31929360D01*
X126160585Y-31909360D01*
X124911335Y-31909360D01*
X124752585Y-32068110D01*
X124749513Y-32682360D01*
X121475657Y-32682360D01*
X121472585Y-32068110D01*
X121313835Y-31909360D01*
X120064585Y-31909360D01*
X120064585Y-31929360D01*
X119810585Y-31929360D01*
X119810585Y-31909360D01*
X118561335Y-31909360D01*
X118402585Y-32068110D01*
X118399513Y-32682360D01*
X117685000Y-32682360D01*
X117685000Y-30575000D01*
X118481854Y-30575000D01*
X118448083Y-30638180D01*
G36*
X176895000Y-82790513D02*
G01*
X176895000Y-83210230D01*
X176758368Y-83301525D01*
X176626513Y-83433380D01*
X176604502Y-83360820D01*
X176545537Y-83250506D01*
X176466185Y-83153815D01*
X176369494Y-83074463D01*
X176259180Y-83015498D01*
X176139482Y-82979188D01*
X176015000Y-82966928D01*
X175450750Y-82970000D01*
X175292000Y-83128750D01*
X175292000Y-84328000D01*
X175312000Y-84328000D01*
X175312000Y-84582000D01*
X175292000Y-84582000D01*
X175292000Y-85781250D01*
X175450750Y-85940000D01*
X176015000Y-85943072D01*
X176139482Y-85930812D01*
X176259180Y-85894502D01*
X176369494Y-85835537D01*
X176466185Y-85756185D01*
X176545537Y-85659494D01*
X176604502Y-85549180D01*
X176626513Y-85476620D01*
X176758368Y-85608475D01*
X177001589Y-85770990D01*
X177271842Y-85882932D01*
X177558740Y-85940000D01*
X177851260Y-85940000D01*
X178138158Y-85882932D01*
X178408411Y-85770990D01*
X178651632Y-85608475D01*
X178858475Y-85401632D01*
X178975000Y-85227240D01*
X179091525Y-85401632D01*
X179298368Y-85608475D01*
X179485000Y-85733178D01*
X179485001Y-123605197D01*
X178120199Y-124970000D01*
X169859802Y-124970000D01*
X169035000Y-124145199D01*
X169035000Y-116877322D01*
X169038676Y-116839999D01*
X169035000Y-116802676D01*
X169035000Y-116802667D01*
X169024003Y-116691014D01*
X168980546Y-116547753D01*
X168909974Y-116415724D01*
X168815001Y-116299999D01*
X168786003Y-116276201D01*
X164393804Y-111884003D01*
X164370001Y-111854999D01*
X164254276Y-111760026D01*
X164122247Y-111689454D01*
X163978986Y-111645997D01*
X163867333Y-111635000D01*
X163867322Y-111635000D01*
X163830000Y-111631324D01*
X163792678Y-111635000D01*
X154975912Y-111635000D01*
X154938589Y-111631324D01*
X154901266Y-111635000D01*
X154901257Y-111635000D01*
X154789604Y-111645997D01*
X154646343Y-111689454D01*
X154514314Y-111760026D01*
X154398589Y-111854999D01*
X154374791Y-111883997D01*
X149984003Y-116274786D01*
X149954999Y-116298589D01*
X149899871Y-116365764D01*
X149860026Y-116414314D01*
X149821495Y-116486400D01*
X149789454Y-116546344D01*
X149745997Y-116689605D01*
X149735000Y-116801258D01*
X149735000Y-116801268D01*
X149731324Y-116838590D01*
X149735000Y-116875913D01*
X149735001Y-122873787D01*
X148908789Y-123700000D01*
X136206212Y-123700000D01*
X135380000Y-122873789D01*
X135380000Y-122829864D01*
X135608691Y-122899236D01*
X135890000Y-122926943D01*
X136171308Y-122899236D01*
X136441807Y-122817182D01*
X136691100Y-122683932D01*
X136909607Y-122504608D01*
X137088932Y-122286101D01*
X137160000Y-122153142D01*
X137231068Y-122286100D01*
X137410392Y-122504607D01*
X137628899Y-122683932D01*
X137878192Y-122817182D01*
X138148691Y-122899236D01*
X138430000Y-122926943D01*
X138711308Y-122899236D01*
X138981807Y-122817182D01*
X139231100Y-122683932D01*
X139449607Y-122504608D01*
X139573000Y-122354254D01*
X139573000Y-122555000D01*
X139575440Y-122579776D01*
X139582667Y-122603601D01*
X139594403Y-122625557D01*
X139610197Y-122644803D01*
X139629443Y-122660597D01*
X139651399Y-122672333D01*
X139675224Y-122679560D01*
X139700000Y-122682000D01*
X146685000Y-122682000D01*
X146709776Y-122679560D01*
X146733601Y-122672333D01*
X146755557Y-122660597D01*
X146774803Y-122644803D01*
X146790597Y-122625557D01*
X146802333Y-122603601D01*
X146809560Y-122579776D01*
X146812000Y-122555000D01*
X146812000Y-97494042D01*
X152065000Y-97494042D01*
X152065000Y-97825958D01*
X152129754Y-98151496D01*
X152256772Y-98458147D01*
X152441175Y-98734125D01*
X152675875Y-98968825D01*
X152951853Y-99153228D01*
X153258504Y-99280246D01*
X153584042Y-99345000D01*
X153915958Y-99345000D01*
X154241496Y-99280246D01*
X154548147Y-99153228D01*
X154824125Y-98968825D01*
X154909157Y-98883793D01*
X154756772Y-99111853D01*
X154629754Y-99418504D01*
X154565000Y-99744042D01*
X154565000Y-100075958D01*
X154629754Y-100401496D01*
X154756772Y-100708147D01*
X154941175Y-100984125D01*
X155175875Y-101218825D01*
X155451853Y-101403228D01*
X155758504Y-101530246D01*
X156084042Y-101595000D01*
X156415958Y-101595000D01*
X156741496Y-101530246D01*
X157048147Y-101403228D01*
X157324125Y-101218825D01*
X157558825Y-100984125D01*
X157743228Y-100708147D01*
X157870246Y-100401496D01*
X157935000Y-100075958D01*
X157935000Y-99744042D01*
X157870246Y-99418504D01*
X157743228Y-99111853D01*
X157558825Y-98835875D01*
X157324125Y-98601175D01*
X157048147Y-98416772D01*
X156741496Y-98289754D01*
X156415958Y-98225000D01*
X156084042Y-98225000D01*
X155758504Y-98289754D01*
X155451853Y-98416772D01*
X155175875Y-98601175D01*
X155090843Y-98686207D01*
X155243228Y-98458147D01*
X155370246Y-98151496D01*
X155435000Y-97825958D01*
X155435000Y-97494042D01*
X155370246Y-97168504D01*
X155243228Y-96861853D01*
X155058825Y-96585875D01*
X154824125Y-96351175D01*
X154548147Y-96166772D01*
X154241496Y-96039754D01*
X153915958Y-95975000D01*
X153584042Y-95975000D01*
X153258504Y-96039754D01*
X152951853Y-96166772D01*
X152675875Y-96351175D01*
X152441175Y-96585875D01*
X152256772Y-96861853D01*
X152129754Y-97168504D01*
X152065000Y-97494042D01*
X146812000Y-97494042D01*
X146812000Y-97155000D01*
X146809560Y-97130224D01*
X146802333Y-97106399D01*
X146790597Y-97084443D01*
X146774803Y-97065197D01*
X146755557Y-97049403D01*
X146733601Y-97037667D01*
X146709776Y-97030440D01*
X146685000Y-97028000D01*
X139925653Y-97028000D01*
X139881185Y-96973815D01*
X139784494Y-96894463D01*
X139674180Y-96835498D01*
X139554482Y-96799188D01*
X139430000Y-96786928D01*
X137430000Y-96786928D01*
X137305518Y-96799188D01*
X137185820Y-96835498D01*
X137075506Y-96894463D01*
X136978815Y-96973815D01*
X136899463Y-97070506D01*
X136852441Y-97158476D01*
X136691101Y-97026068D01*
X136441808Y-96892818D01*
X136171309Y-96810764D01*
X135890000Y-96783057D01*
X135608692Y-96810764D01*
X135338193Y-96892818D01*
X135088900Y-97026068D01*
X134870393Y-97205392D01*
X134691068Y-97423899D01*
X134620000Y-97556858D01*
X134548932Y-97423899D01*
X134369608Y-97205392D01*
X134151101Y-97026068D01*
X133901808Y-96892818D01*
X133631309Y-96810764D01*
X133350000Y-96783057D01*
X133068692Y-96810764D01*
X132798193Y-96892818D01*
X132548900Y-97026068D01*
X132330393Y-97205392D01*
X132151068Y-97423899D01*
X132080000Y-97556858D01*
X132008932Y-97423899D01*
X131829608Y-97205392D01*
X131611101Y-97026068D01*
X131361808Y-96892818D01*
X131091309Y-96810764D01*
X130810000Y-96783057D01*
X130528692Y-96810764D01*
X130258193Y-96892818D01*
X130008900Y-97026068D01*
X129790393Y-97205392D01*
X129611068Y-97423899D01*
X129540000Y-97556858D01*
X129468932Y-97423899D01*
X129289608Y-97205392D01*
X129071101Y-97026068D01*
X128821808Y-96892818D01*
X128551309Y-96810764D01*
X128270000Y-96783057D01*
X127988692Y-96810764D01*
X127718193Y-96892818D01*
X127468900Y-97026068D01*
X127250393Y-97205392D01*
X127071068Y-97423899D01*
X127000000Y-97556858D01*
X126928932Y-97423899D01*
X126749608Y-97205392D01*
X126531101Y-97026068D01*
X126281808Y-96892818D01*
X126011309Y-96810764D01*
X125730000Y-96783057D01*
X125448692Y-96810764D01*
X125178193Y-96892818D01*
X124928900Y-97026068D01*
X124710393Y-97205392D01*
X124531068Y-97423899D01*
X124460000Y-97556858D01*
X124388932Y-97423899D01*
X124209608Y-97205392D01*
X123991101Y-97026068D01*
X123741808Y-96892818D01*
X123471309Y-96810764D01*
X123190000Y-96783057D01*
X122908692Y-96810764D01*
X122638193Y-96892818D01*
X122388900Y-97026068D01*
X122170393Y-97205392D01*
X121991068Y-97423899D01*
X121920000Y-97556858D01*
X121848932Y-97423899D01*
X121669608Y-97205392D01*
X121451101Y-97026068D01*
X121201808Y-96892818D01*
X120931309Y-96810764D01*
X120650000Y-96783057D01*
X120368692Y-96810764D01*
X120098193Y-96892818D01*
X119848900Y-97026068D01*
X119630393Y-97205392D01*
X119555000Y-97297258D01*
X119555000Y-94744042D01*
X154565000Y-94744042D01*
X154565000Y-95075958D01*
X154629754Y-95401496D01*
X154756772Y-95708147D01*
X154941175Y-95984125D01*
X155175875Y-96218825D01*
X155451853Y-96403228D01*
X155758504Y-96530246D01*
X156084042Y-96595000D01*
X156415958Y-96595000D01*
X156741496Y-96530246D01*
X157048147Y-96403228D01*
X157324125Y-96218825D01*
X157558825Y-95984125D01*
X157743228Y-95708147D01*
X157870246Y-95401496D01*
X157935000Y-95075958D01*
X157935000Y-94744042D01*
X157870246Y-94418504D01*
X157743228Y-94111853D01*
X157558825Y-93835875D01*
X157324125Y-93601175D01*
X157048147Y-93416772D01*
X156741496Y-93289754D01*
X156415958Y-93225000D01*
X156084042Y-93225000D01*
X155758504Y-93289754D01*
X155451853Y-93416772D01*
X155175875Y-93601175D01*
X154941175Y-93835875D01*
X154756772Y-94111853D01*
X154629754Y-94418504D01*
X154565000Y-94744042D01*
X119555000Y-94744042D01*
X119555000Y-91775512D01*
X120031847Y-91298665D01*
X120485000Y-91298665D01*
X120485000Y-91581335D01*
X120540147Y-91858574D01*
X120648320Y-92119727D01*
X120805363Y-92354759D01*
X121005241Y-92554637D01*
X121240273Y-92711680D01*
X121501426Y-92819853D01*
X121778665Y-92875000D01*
X122061335Y-92875000D01*
X122338574Y-92819853D01*
X122599727Y-92711680D01*
X122834759Y-92554637D01*
X123034637Y-92354759D01*
X123191680Y-92119727D01*
X123299853Y-91858574D01*
X123355000Y-91581335D01*
X123355000Y-91298665D01*
X126835000Y-91298665D01*
X126835000Y-91581335D01*
X126890147Y-91858574D01*
X126998320Y-92119727D01*
X127155363Y-92354759D01*
X127355241Y-92554637D01*
X127590273Y-92711680D01*
X127851426Y-92819853D01*
X128128665Y-92875000D01*
X128411335Y-92875000D01*
X128688574Y-92819853D01*
X128949727Y-92711680D01*
X129184759Y-92554637D01*
X129384637Y-92354759D01*
X129541680Y-92119727D01*
X129649853Y-91858574D01*
X129705000Y-91581335D01*
X129705000Y-91298665D01*
X133185000Y-91298665D01*
X133185000Y-91581335D01*
X133240147Y-91858574D01*
X133348320Y-92119727D01*
X133505363Y-92354759D01*
X133705241Y-92554637D01*
X133940273Y-92711680D01*
X134201426Y-92819853D01*
X134478665Y-92875000D01*
X134761335Y-92875000D01*
X135038574Y-92819853D01*
X135299727Y-92711680D01*
X135534759Y-92554637D01*
X135734637Y-92354759D01*
X135891680Y-92119727D01*
X135999853Y-91858574D01*
X136055000Y-91581335D01*
X136055000Y-91298665D01*
X135999853Y-91021426D01*
X135953699Y-90910000D01*
X153111928Y-90910000D01*
X153124188Y-91034482D01*
X153160498Y-91154180D01*
X153219463Y-91264494D01*
X153298815Y-91361185D01*
X153395506Y-91440537D01*
X153505820Y-91499502D01*
X153625518Y-91535812D01*
X153750000Y-91548072D01*
X155214250Y-91545000D01*
X155373000Y-91386250D01*
X155373000Y-88537000D01*
X155627000Y-88537000D01*
X155627000Y-91386250D01*
X155785750Y-91545000D01*
X157250000Y-91548072D01*
X157374482Y-91535812D01*
X157494180Y-91499502D01*
X157604494Y-91440537D01*
X157701185Y-91361185D01*
X157780537Y-91264494D01*
X157839502Y-91154180D01*
X157875812Y-91034482D01*
X157888072Y-90910000D01*
X157885000Y-88695750D01*
X157726250Y-88537000D01*
X155627000Y-88537000D01*
X155373000Y-88537000D01*
X153273750Y-88537000D01*
X153115000Y-88695750D01*
X153111928Y-90910000D01*
X135953699Y-90910000D01*
X135891680Y-90760273D01*
X135734637Y-90525241D01*
X135534759Y-90325363D01*
X135299727Y-90168320D01*
X135038574Y-90060147D01*
X134761335Y-90005000D01*
X134478665Y-90005000D01*
X134201426Y-90060147D01*
X133940273Y-90168320D01*
X133705241Y-90325363D01*
X133505363Y-90525241D01*
X133348320Y-90760273D01*
X133240147Y-91021426D01*
X133185000Y-91298665D01*
X129705000Y-91298665D01*
X129649853Y-91021426D01*
X129541680Y-90760273D01*
X129384637Y-90525241D01*
X129184759Y-90325363D01*
X128949727Y-90168320D01*
X128688574Y-90060147D01*
X128411335Y-90005000D01*
X128128665Y-90005000D01*
X127851426Y-90060147D01*
X127590273Y-90168320D01*
X127355241Y-90325363D01*
X127155363Y-90525241D01*
X126998320Y-90760273D01*
X126890147Y-91021426D01*
X126835000Y-91298665D01*
X123355000Y-91298665D01*
X123299853Y-91021426D01*
X123191680Y-90760273D01*
X123034637Y-90525241D01*
X122834759Y-90325363D01*
X122599727Y-90168320D01*
X122338574Y-90060147D01*
X122061335Y-90005000D01*
X121778665Y-90005000D01*
X121501426Y-90060147D01*
X121240273Y-90168320D01*
X121005241Y-90325363D01*
X120805363Y-90525241D01*
X120648320Y-90760273D01*
X120540147Y-91021426D01*
X120485000Y-91298665D01*
X120031847Y-91298665D01*
X121620513Y-89710000D01*
X132040212Y-89710000D01*
X132080000Y-89713919D01*
X132119788Y-89710000D01*
X132119791Y-89710000D01*
X132238788Y-89698280D01*
X132391473Y-89651963D01*
X132532189Y-89576749D01*
X132655528Y-89475528D01*
X132680900Y-89444612D01*
X136215512Y-85910000D01*
X153111928Y-85910000D01*
X153115000Y-88124250D01*
X153273750Y-88283000D01*
X155373000Y-88283000D01*
X155373000Y-85433750D01*
X155627000Y-85433750D01*
X155627000Y-88283000D01*
X157726250Y-88283000D01*
X157885000Y-88124250D01*
X157888072Y-85910000D01*
X157875812Y-85785518D01*
X157839502Y-85665820D01*
X157780537Y-85555506D01*
X157701185Y-85458815D01*
X157604494Y-85379463D01*
X157494180Y-85320498D01*
X157374482Y-85284188D01*
X157250000Y-85271928D01*
X155785750Y-85275000D01*
X155627000Y-85433750D01*
X155373000Y-85433750D01*
X155214250Y-85275000D01*
X153750000Y-85271928D01*
X153625518Y-85284188D01*
X153505820Y-85320498D01*
X153395506Y-85379463D01*
X153298815Y-85458815D01*
X153219463Y-85555506D01*
X153160498Y-85665820D01*
X153124188Y-85785518D01*
X153111928Y-85910000D01*
X136215512Y-85910000D01*
X138810512Y-83315001D01*
X161190001Y-83315001D01*
X161190000Y-85271928D01*
X160250000Y-85271928D01*
X160125518Y-85284188D01*
X160005820Y-85320498D01*
X159895506Y-85379463D01*
X159798815Y-85458815D01*
X159719463Y-85555506D01*
X159660498Y-85665820D01*
X159624188Y-85785518D01*
X159611928Y-85910000D01*
X159611928Y-90910000D01*
X159624188Y-91034482D01*
X159660498Y-91154180D01*
X159719463Y-91264494D01*
X159798815Y-91361185D01*
X159895506Y-91440537D01*
X160005820Y-91499502D01*
X160125518Y-91535812D01*
X160250000Y-91548072D01*
X163750000Y-91548072D01*
X163874482Y-91535812D01*
X163994180Y-91499502D01*
X164104494Y-91440537D01*
X164201185Y-91361185D01*
X164280537Y-91264494D01*
X164339502Y-91154180D01*
X164375812Y-91034482D01*
X164388072Y-90910000D01*
X164388072Y-85940000D01*
X169866928Y-85940000D01*
X169879188Y-86064482D01*
X169915498Y-86184180D01*
X169974463Y-86294494D01*
X170053815Y-86391185D01*
X170150506Y-86470537D01*
X170260820Y-86529502D01*
X170333380Y-86551513D01*
X170201525Y-86683368D01*
X170039010Y-86926589D01*
X169927068Y-87196842D01*
X169870000Y-87483740D01*
X169870000Y-87776260D01*
X169927068Y-88063158D01*
X170039010Y-88333411D01*
X170201525Y-88576632D01*
X170408368Y-88783475D01*
X170582760Y-88900000D01*
X170408368Y-89016525D01*
X170201525Y-89223368D01*
X170039010Y-89466589D01*
X169927068Y-89736842D01*
X169870000Y-90023740D01*
X169870000Y-90316260D01*
X169927068Y-90603158D01*
X170039010Y-90873411D01*
X170201525Y-91116632D01*
X170408368Y-91323475D01*
X170582760Y-91440000D01*
X170408368Y-91556525D01*
X170201525Y-91763368D01*
X170039010Y-92006589D01*
X169927068Y-92276842D01*
X169870000Y-92563740D01*
X169870000Y-92856260D01*
X169927068Y-93143158D01*
X170039010Y-93413411D01*
X170201525Y-93656632D01*
X170408368Y-93863475D01*
X170582760Y-93980000D01*
X170408368Y-94096525D01*
X170201525Y-94303368D01*
X170039010Y-94546589D01*
X169927068Y-94816842D01*
X169870000Y-95103740D01*
X169870000Y-95396260D01*
X169927068Y-95683158D01*
X170039010Y-95953411D01*
X170201525Y-96196632D01*
X170408368Y-96403475D01*
X170582760Y-96520000D01*
X170408368Y-96636525D01*
X170201525Y-96843368D01*
X170039010Y-97086589D01*
X169927068Y-97356842D01*
X169870000Y-97643740D01*
X169870000Y-97936260D01*
X169927068Y-98223158D01*
X170039010Y-98493411D01*
X170201525Y-98736632D01*
X170408368Y-98943475D01*
X170582760Y-99060000D01*
X170408368Y-99176525D01*
X170201525Y-99383368D01*
X170039010Y-99626589D01*
X169927068Y-99896842D01*
X169870000Y-100183740D01*
X169870000Y-100476260D01*
X169927068Y-100763158D01*
X170039010Y-101033411D01*
X170201525Y-101276632D01*
X170408368Y-101483475D01*
X170582760Y-101600000D01*
X170408368Y-101716525D01*
X170201525Y-101923368D01*
X170039010Y-102166589D01*
X169927068Y-102436842D01*
X169870000Y-102723740D01*
X169870000Y-103016260D01*
X169927068Y-103303158D01*
X170039010Y-103573411D01*
X170201525Y-103816632D01*
X170408368Y-104023475D01*
X170582760Y-104140000D01*
X170408368Y-104256525D01*
X170201525Y-104463368D01*
X170039010Y-104706589D01*
X169927068Y-104976842D01*
X169870000Y-105263740D01*
X169870000Y-105556260D01*
X169927068Y-105843158D01*
X170039010Y-106113411D01*
X170201525Y-106356632D01*
X170408368Y-106563475D01*
X170582760Y-106680000D01*
X170408368Y-106796525D01*
X170201525Y-107003368D01*
X170039010Y-107246589D01*
X169927068Y-107516842D01*
X169870000Y-107803740D01*
X169870000Y-108096260D01*
X169927068Y-108383158D01*
X170039010Y-108653411D01*
X170201525Y-108896632D01*
X170408368Y-109103475D01*
X170582760Y-109220000D01*
X170408368Y-109336525D01*
X170201525Y-109543368D01*
X170039010Y-109786589D01*
X169927068Y-110056842D01*
X169870000Y-110343740D01*
X169870000Y-110636260D01*
X169927068Y-110923158D01*
X170039010Y-111193411D01*
X170201525Y-111436632D01*
X170408368Y-111643475D01*
X170582760Y-111760000D01*
X170408368Y-111876525D01*
X170201525Y-112083368D01*
X170039010Y-112326589D01*
X169927068Y-112596842D01*
X169870000Y-112883740D01*
X169870000Y-113176260D01*
X169927068Y-113463158D01*
X170039010Y-113733411D01*
X170201525Y-113976632D01*
X170408368Y-114183475D01*
X170582760Y-114300000D01*
X170408368Y-114416525D01*
X170201525Y-114623368D01*
X170039010Y-114866589D01*
X169927068Y-115136842D01*
X169870000Y-115423740D01*
X169870000Y-115716260D01*
X169927068Y-116003158D01*
X170039010Y-116273411D01*
X170201525Y-116516632D01*
X170408368Y-116723475D01*
X170582760Y-116840000D01*
X170408368Y-116956525D01*
X170201525Y-117163368D01*
X170039010Y-117406589D01*
X169927068Y-117676842D01*
X169870000Y-117963740D01*
X169870000Y-118256260D01*
X169927068Y-118543158D01*
X170039010Y-118813411D01*
X170201525Y-119056632D01*
X170408368Y-119263475D01*
X170582760Y-119380000D01*
X170408368Y-119496525D01*
X170201525Y-119703368D01*
X170039010Y-119946589D01*
X169927068Y-120216842D01*
X169870000Y-120503740D01*
X169870000Y-120796260D01*
X169927068Y-121083158D01*
X170039010Y-121353411D01*
X170201525Y-121596632D01*
X170408368Y-121803475D01*
X170582760Y-121920000D01*
X170408368Y-122036525D01*
X170201525Y-122243368D01*
X170039010Y-122486589D01*
X169927068Y-122756842D01*
X169870000Y-123043740D01*
X169870000Y-123336260D01*
X169927068Y-123623158D01*
X170039010Y-123893411D01*
X170201525Y-124136632D01*
X170408368Y-124343475D01*
X170651589Y-124505990D01*
X170921842Y-124617932D01*
X171208740Y-124675000D01*
X171501260Y-124675000D01*
X171788158Y-124617932D01*
X172058411Y-124505990D01*
X172301632Y-124343475D01*
X172508475Y-124136632D01*
X172670990Y-123893411D01*
X172782932Y-123623158D01*
X172840000Y-123336260D01*
X172840000Y-123043740D01*
X172782932Y-122756842D01*
X172670990Y-122486589D01*
X172508475Y-122243368D01*
X172301632Y-122036525D01*
X172127240Y-121920000D01*
X172301632Y-121803475D01*
X172508475Y-121596632D01*
X172670990Y-121353411D01*
X172782932Y-121083158D01*
X172840000Y-120796260D01*
X172840000Y-120503740D01*
X172782932Y-120216842D01*
X172670990Y-119946589D01*
X172508475Y-119703368D01*
X172301632Y-119496525D01*
X172127240Y-119380000D01*
X172301632Y-119263475D01*
X172508475Y-119056632D01*
X172670990Y-118813411D01*
X172782932Y-118543158D01*
X172840000Y-118256260D01*
X172840000Y-117963740D01*
X172782932Y-117676842D01*
X172670990Y-117406589D01*
X172508475Y-117163368D01*
X172301632Y-116956525D01*
X172127240Y-116840000D01*
X172301632Y-116723475D01*
X172508475Y-116516632D01*
X172670990Y-116273411D01*
X172782932Y-116003158D01*
X172840000Y-115716260D01*
X172840000Y-115423740D01*
X172782932Y-115136842D01*
X172670990Y-114866589D01*
X172508475Y-114623368D01*
X172301632Y-114416525D01*
X172127240Y-114300000D01*
X172301632Y-114183475D01*
X172508475Y-113976632D01*
X172670990Y-113733411D01*
X172782932Y-113463158D01*
X172840000Y-113176260D01*
X172840000Y-112883740D01*
X172782932Y-112596842D01*
X172670990Y-112326589D01*
X172508475Y-112083368D01*
X172301632Y-111876525D01*
X172127240Y-111760000D01*
X172301632Y-111643475D01*
X172508475Y-111436632D01*
X172670990Y-111193411D01*
X172782932Y-110923158D01*
X172840000Y-110636260D01*
X172840000Y-110343740D01*
X172782932Y-110056842D01*
X172670990Y-109786589D01*
X172508475Y-109543368D01*
X172301632Y-109336525D01*
X172127240Y-109220000D01*
X172301632Y-109103475D01*
X172508475Y-108896632D01*
X172670990Y-108653411D01*
X172782932Y-108383158D01*
X172840000Y-108096260D01*
X172840000Y-107803740D01*
X172782932Y-107516842D01*
X172670990Y-107246589D01*
X172508475Y-107003368D01*
X172301632Y-106796525D01*
X172127240Y-106680000D01*
X172301632Y-106563475D01*
X172508475Y-106356632D01*
X172670990Y-106113411D01*
X172782932Y-105843158D01*
X172840000Y-105556260D01*
X172840000Y-105263740D01*
X172782932Y-104976842D01*
X172670990Y-104706589D01*
X172508475Y-104463368D01*
X172301632Y-104256525D01*
X172127240Y-104140000D01*
X172301632Y-104023475D01*
X172508475Y-103816632D01*
X172670990Y-103573411D01*
X172782932Y-103303158D01*
X172840000Y-103016260D01*
X172840000Y-102723740D01*
X172782932Y-102436842D01*
X172670990Y-102166589D01*
X172508475Y-101923368D01*
X172301632Y-101716525D01*
X172127240Y-101600000D01*
X172301632Y-101483475D01*
X172508475Y-101276632D01*
X172670990Y-101033411D01*
X172782932Y-100763158D01*
X172840000Y-100476260D01*
X172840000Y-100183740D01*
X172782932Y-99896842D01*
X172670990Y-99626589D01*
X172508475Y-99383368D01*
X172301632Y-99176525D01*
X172127240Y-99060000D01*
X172301632Y-98943475D01*
X172508475Y-98736632D01*
X172670990Y-98493411D01*
X172782932Y-98223158D01*
X172840000Y-97936260D01*
X172840000Y-97643740D01*
X172782932Y-97356842D01*
X172670990Y-97086589D01*
X172508475Y-96843368D01*
X172301632Y-96636525D01*
X172127240Y-96520000D01*
X172301632Y-96403475D01*
X172508475Y-96196632D01*
X172670990Y-95953411D01*
X172782932Y-95683158D01*
X172840000Y-95396260D01*
X172840000Y-95103740D01*
X172782932Y-94816842D01*
X172670990Y-94546589D01*
X172508475Y-94303368D01*
X172301632Y-94096525D01*
X172127240Y-93980000D01*
X172301632Y-93863475D01*
X172508475Y-93656632D01*
X172670990Y-93413411D01*
X172782932Y-93143158D01*
X172840000Y-92856260D01*
X172840000Y-92563740D01*
X172782932Y-92276842D01*
X172670990Y-92006589D01*
X172508475Y-91763368D01*
X172301632Y-91556525D01*
X172127240Y-91440000D01*
X172301632Y-91323475D01*
X172508475Y-91116632D01*
X172670990Y-90873411D01*
X172782932Y-90603158D01*
X172840000Y-90316260D01*
X172840000Y-90023740D01*
X172782932Y-89736842D01*
X172670990Y-89466589D01*
X172508475Y-89223368D01*
X172301632Y-89016525D01*
X172127240Y-88900000D01*
X172301632Y-88783475D01*
X172508475Y-88576632D01*
X172670990Y-88333411D01*
X172782932Y-88063158D01*
X172840000Y-87776260D01*
X172840000Y-87483740D01*
X172782932Y-87196842D01*
X172670990Y-86926589D01*
X172508475Y-86683368D01*
X172376620Y-86551513D01*
X172449180Y-86529502D01*
X172559494Y-86470537D01*
X172656185Y-86391185D01*
X172735537Y-86294494D01*
X172794502Y-86184180D01*
X172830812Y-86064482D01*
X172843072Y-85940000D01*
X172840000Y-85375750D01*
X172769250Y-85305000D01*
X173676928Y-85305000D01*
X173689188Y-85429482D01*
X173725498Y-85549180D01*
X173784463Y-85659494D01*
X173863815Y-85756185D01*
X173960506Y-85835537D01*
X174070820Y-85894502D01*
X174190518Y-85930812D01*
X174315000Y-85943072D01*
X174879250Y-85940000D01*
X175038000Y-85781250D01*
X175038000Y-84582000D01*
X173838750Y-84582000D01*
X173680000Y-84740750D01*
X173676928Y-85305000D01*
X172769250Y-85305000D01*
X172681250Y-85217000D01*
X171482000Y-85217000D01*
X171482000Y-85237000D01*
X171228000Y-85237000D01*
X171228000Y-85217000D01*
X170028750Y-85217000D01*
X169870000Y-85375750D01*
X169866928Y-85940000D01*
X164388072Y-85940000D01*
X164388072Y-85910000D01*
X164375812Y-85785518D01*
X164339502Y-85665820D01*
X164280537Y-85555506D01*
X164201185Y-85458815D01*
X164104494Y-85379463D01*
X163994180Y-85320498D01*
X163874482Y-85284188D01*
X163750000Y-85271928D01*
X162810000Y-85271928D01*
X162810000Y-84240000D01*
X169866928Y-84240000D01*
X169870000Y-84804250D01*
X170028750Y-84963000D01*
X171228000Y-84963000D01*
X171228000Y-83763750D01*
X171482000Y-83763750D01*
X171482000Y-84963000D01*
X172681250Y-84963000D01*
X172840000Y-84804250D01*
X172843072Y-84240000D01*
X172830812Y-84115518D01*
X172794502Y-83995820D01*
X172735537Y-83885506D01*
X172656185Y-83788815D01*
X172559494Y-83709463D01*
X172449180Y-83650498D01*
X172329482Y-83614188D01*
X172236192Y-83605000D01*
X173676928Y-83605000D01*
X173680000Y-84169250D01*
X173838750Y-84328000D01*
X175038000Y-84328000D01*
X175038000Y-83128750D01*
X174879250Y-82970000D01*
X174315000Y-82966928D01*
X174190518Y-82979188D01*
X174070820Y-83015498D01*
X173960506Y-83074463D01*
X173863815Y-83153815D01*
X173784463Y-83250506D01*
X173725498Y-83360820D01*
X173689188Y-83480518D01*
X173676928Y-83605000D01*
X172236192Y-83605000D01*
X172205000Y-83601928D01*
X171640750Y-83605000D01*
X171482000Y-83763750D01*
X171228000Y-83763750D01*
X171069250Y-83605000D01*
X170505000Y-83601928D01*
X170380518Y-83614188D01*
X170260820Y-83650498D01*
X170150506Y-83709463D01*
X170053815Y-83788815D01*
X169974463Y-83885506D01*
X169915498Y-83995820D01*
X169879188Y-84115518D01*
X169866928Y-84240000D01*
X162810000Y-84240000D01*
X162810000Y-82709701D01*
X162849482Y-82705812D01*
X162969180Y-82669502D01*
X163079494Y-82610537D01*
X163176185Y-82531185D01*
X163255537Y-82434494D01*
X163314502Y-82324180D01*
X163350812Y-82204482D01*
X163362087Y-82090000D01*
X176194488Y-82090000D01*
X176895000Y-82790513D01*
G37*
X176895000Y-82790513D02*
X176895000Y-83210230D01*
X176758368Y-83301525D01*
X176626513Y-83433380D01*
X176604502Y-83360820D01*
X176545537Y-83250506D01*
X176466185Y-83153815D01*
X176369494Y-83074463D01*
X176259180Y-83015498D01*
X176139482Y-82979188D01*
X176015000Y-82966928D01*
X175450750Y-82970000D01*
X175292000Y-83128750D01*
X175292000Y-84328000D01*
X175312000Y-84328000D01*
X175312000Y-84582000D01*
X175292000Y-84582000D01*
X175292000Y-85781250D01*
X175450750Y-85940000D01*
X176015000Y-85943072D01*
X176139482Y-85930812D01*
X176259180Y-85894502D01*
X176369494Y-85835537D01*
X176466185Y-85756185D01*
X176545537Y-85659494D01*
X176604502Y-85549180D01*
X176626513Y-85476620D01*
X176758368Y-85608475D01*
X177001589Y-85770990D01*
X177271842Y-85882932D01*
X177558740Y-85940000D01*
X177851260Y-85940000D01*
X178138158Y-85882932D01*
X178408411Y-85770990D01*
X178651632Y-85608475D01*
X178858475Y-85401632D01*
X178975000Y-85227240D01*
X179091525Y-85401632D01*
X179298368Y-85608475D01*
X179485000Y-85733178D01*
X179485001Y-123605197D01*
X178120199Y-124970000D01*
X169859802Y-124970000D01*
X169035000Y-124145199D01*
X169035000Y-116877322D01*
X169038676Y-116839999D01*
X169035000Y-116802676D01*
X169035000Y-116802667D01*
X169024003Y-116691014D01*
X168980546Y-116547753D01*
X168909974Y-116415724D01*
X168815001Y-116299999D01*
X168786003Y-116276201D01*
X164393804Y-111884003D01*
X164370001Y-111854999D01*
X164254276Y-111760026D01*
X164122247Y-111689454D01*
X163978986Y-111645997D01*
X163867333Y-111635000D01*
X163867322Y-111635000D01*
X163830000Y-111631324D01*
X163792678Y-111635000D01*
X154975912Y-111635000D01*
X154938589Y-111631324D01*
X154901266Y-111635000D01*
X154901257Y-111635000D01*
X154789604Y-111645997D01*
X154646343Y-111689454D01*
X154514314Y-111760026D01*
X154398589Y-111854999D01*
X154374791Y-111883997D01*
X149984003Y-116274786D01*
X149954999Y-116298589D01*
X149899871Y-116365764D01*
X149860026Y-116414314D01*
X149821495Y-116486400D01*
X149789454Y-116546344D01*
X149745997Y-116689605D01*
X149735000Y-116801258D01*
X149735000Y-116801268D01*
X149731324Y-116838590D01*
X149735000Y-116875913D01*
X149735001Y-122873787D01*
X148908789Y-123700000D01*
X136206212Y-123700000D01*
X135380000Y-122873789D01*
X135380000Y-122829864D01*
X135608691Y-122899236D01*
X135890000Y-122926943D01*
X136171308Y-122899236D01*
X136441807Y-122817182D01*
X136691100Y-122683932D01*
X136909607Y-122504608D01*
X137088932Y-122286101D01*
X137160000Y-122153142D01*
X137231068Y-122286100D01*
X137410392Y-122504607D01*
X137628899Y-122683932D01*
X137878192Y-122817182D01*
X138148691Y-122899236D01*
X138430000Y-122926943D01*
X138711308Y-122899236D01*
X138981807Y-122817182D01*
X139231100Y-122683932D01*
X139449607Y-122504608D01*
X139573000Y-122354254D01*
X139573000Y-122555000D01*
X139575440Y-122579776D01*
X139582667Y-122603601D01*
X139594403Y-122625557D01*
X139610197Y-122644803D01*
X139629443Y-122660597D01*
X139651399Y-122672333D01*
X139675224Y-122679560D01*
X139700000Y-122682000D01*
X146685000Y-122682000D01*
X146709776Y-122679560D01*
X146733601Y-122672333D01*
X146755557Y-122660597D01*
X146774803Y-122644803D01*
X146790597Y-122625557D01*
X146802333Y-122603601D01*
X146809560Y-122579776D01*
X146812000Y-122555000D01*
X146812000Y-97494042D01*
X152065000Y-97494042D01*
X152065000Y-97825958D01*
X152129754Y-98151496D01*
X152256772Y-98458147D01*
X152441175Y-98734125D01*
X152675875Y-98968825D01*
X152951853Y-99153228D01*
X153258504Y-99280246D01*
X153584042Y-99345000D01*
X153915958Y-99345000D01*
X154241496Y-99280246D01*
X154548147Y-99153228D01*
X154824125Y-98968825D01*
X154909157Y-98883793D01*
X154756772Y-99111853D01*
X154629754Y-99418504D01*
X154565000Y-99744042D01*
X154565000Y-100075958D01*
X154629754Y-100401496D01*
X154756772Y-100708147D01*
X154941175Y-100984125D01*
X155175875Y-101218825D01*
X155451853Y-101403228D01*
X155758504Y-101530246D01*
X156084042Y-101595000D01*
X156415958Y-101595000D01*
X156741496Y-101530246D01*
X157048147Y-101403228D01*
X157324125Y-101218825D01*
X157558825Y-100984125D01*
X157743228Y-100708147D01*
X157870246Y-100401496D01*
X157935000Y-100075958D01*
X157935000Y-99744042D01*
X157870246Y-99418504D01*
X157743228Y-99111853D01*
X157558825Y-98835875D01*
X157324125Y-98601175D01*
X157048147Y-98416772D01*
X156741496Y-98289754D01*
X156415958Y-98225000D01*
X156084042Y-98225000D01*
X155758504Y-98289754D01*
X155451853Y-98416772D01*
X155175875Y-98601175D01*
X155090843Y-98686207D01*
X155243228Y-98458147D01*
X155370246Y-98151496D01*
X155435000Y-97825958D01*
X155435000Y-97494042D01*
X155370246Y-97168504D01*
X155243228Y-96861853D01*
X155058825Y-96585875D01*
X154824125Y-96351175D01*
X154548147Y-96166772D01*
X154241496Y-96039754D01*
X153915958Y-95975000D01*
X153584042Y-95975000D01*
X153258504Y-96039754D01*
X152951853Y-96166772D01*
X152675875Y-96351175D01*
X152441175Y-96585875D01*
X152256772Y-96861853D01*
X152129754Y-97168504D01*
X152065000Y-97494042D01*
X146812000Y-97494042D01*
X146812000Y-97155000D01*
X146809560Y-97130224D01*
X146802333Y-97106399D01*
X146790597Y-97084443D01*
X146774803Y-97065197D01*
X146755557Y-97049403D01*
X146733601Y-97037667D01*
X146709776Y-97030440D01*
X146685000Y-97028000D01*
X139925653Y-97028000D01*
X139881185Y-96973815D01*
X139784494Y-96894463D01*
X139674180Y-96835498D01*
X139554482Y-96799188D01*
X139430000Y-96786928D01*
X137430000Y-96786928D01*
X137305518Y-96799188D01*
X137185820Y-96835498D01*
X137075506Y-96894463D01*
X136978815Y-96973815D01*
X136899463Y-97070506D01*
X136852441Y-97158476D01*
X136691101Y-97026068D01*
X136441808Y-96892818D01*
X136171309Y-96810764D01*
X135890000Y-96783057D01*
X135608692Y-96810764D01*
X135338193Y-96892818D01*
X135088900Y-97026068D01*
X134870393Y-97205392D01*
X134691068Y-97423899D01*
X134620000Y-97556858D01*
X134548932Y-97423899D01*
X134369608Y-97205392D01*
X134151101Y-97026068D01*
X133901808Y-96892818D01*
X133631309Y-96810764D01*
X133350000Y-96783057D01*
X133068692Y-96810764D01*
X132798193Y-96892818D01*
X132548900Y-97026068D01*
X132330393Y-97205392D01*
X132151068Y-97423899D01*
X132080000Y-97556858D01*
X132008932Y-97423899D01*
X131829608Y-97205392D01*
X131611101Y-97026068D01*
X131361808Y-96892818D01*
X131091309Y-96810764D01*
X130810000Y-96783057D01*
X130528692Y-96810764D01*
X130258193Y-96892818D01*
X130008900Y-97026068D01*
X129790393Y-97205392D01*
X129611068Y-97423899D01*
X129540000Y-97556858D01*
X129468932Y-97423899D01*
X129289608Y-97205392D01*
X129071101Y-97026068D01*
X128821808Y-96892818D01*
X128551309Y-96810764D01*
X128270000Y-96783057D01*
X127988692Y-96810764D01*
X127718193Y-96892818D01*
X127468900Y-97026068D01*
X127250393Y-97205392D01*
X127071068Y-97423899D01*
X127000000Y-97556858D01*
X126928932Y-97423899D01*
X126749608Y-97205392D01*
X126531101Y-97026068D01*
X126281808Y-96892818D01*
X126011309Y-96810764D01*
X125730000Y-96783057D01*
X125448692Y-96810764D01*
X125178193Y-96892818D01*
X124928900Y-97026068D01*
X124710393Y-97205392D01*
X124531068Y-97423899D01*
X124460000Y-97556858D01*
X124388932Y-97423899D01*
X124209608Y-97205392D01*
X123991101Y-97026068D01*
X123741808Y-96892818D01*
X123471309Y-96810764D01*
X123190000Y-96783057D01*
X122908692Y-96810764D01*
X122638193Y-96892818D01*
X122388900Y-97026068D01*
X122170393Y-97205392D01*
X121991068Y-97423899D01*
X121920000Y-97556858D01*
X121848932Y-97423899D01*
X121669608Y-97205392D01*
X121451101Y-97026068D01*
X121201808Y-96892818D01*
X120931309Y-96810764D01*
X120650000Y-96783057D01*
X120368692Y-96810764D01*
X120098193Y-96892818D01*
X119848900Y-97026068D01*
X119630393Y-97205392D01*
X119555000Y-97297258D01*
X119555000Y-94744042D01*
X154565000Y-94744042D01*
X154565000Y-95075958D01*
X154629754Y-95401496D01*
X154756772Y-95708147D01*
X154941175Y-95984125D01*
X155175875Y-96218825D01*
X155451853Y-96403228D01*
X155758504Y-96530246D01*
X156084042Y-96595000D01*
X156415958Y-96595000D01*
X156741496Y-96530246D01*
X157048147Y-96403228D01*
X157324125Y-96218825D01*
X157558825Y-95984125D01*
X157743228Y-95708147D01*
X157870246Y-95401496D01*
X157935000Y-95075958D01*
X157935000Y-94744042D01*
X157870246Y-94418504D01*
X157743228Y-94111853D01*
X157558825Y-93835875D01*
X157324125Y-93601175D01*
X157048147Y-93416772D01*
X156741496Y-93289754D01*
X156415958Y-93225000D01*
X156084042Y-93225000D01*
X155758504Y-93289754D01*
X155451853Y-93416772D01*
X155175875Y-93601175D01*
X154941175Y-93835875D01*
X154756772Y-94111853D01*
X154629754Y-94418504D01*
X154565000Y-94744042D01*
X119555000Y-94744042D01*
X119555000Y-91775512D01*
X120031847Y-91298665D01*
X120485000Y-91298665D01*
X120485000Y-91581335D01*
X120540147Y-91858574D01*
X120648320Y-92119727D01*
X120805363Y-92354759D01*
X121005241Y-92554637D01*
X121240273Y-92711680D01*
X121501426Y-92819853D01*
X121778665Y-92875000D01*
X122061335Y-92875000D01*
X122338574Y-92819853D01*
X122599727Y-92711680D01*
X122834759Y-92554637D01*
X123034637Y-92354759D01*
X123191680Y-92119727D01*
X123299853Y-91858574D01*
X123355000Y-91581335D01*
X123355000Y-91298665D01*
X126835000Y-91298665D01*
X126835000Y-91581335D01*
X126890147Y-91858574D01*
X126998320Y-92119727D01*
X127155363Y-92354759D01*
X127355241Y-92554637D01*
X127590273Y-92711680D01*
X127851426Y-92819853D01*
X128128665Y-92875000D01*
X128411335Y-92875000D01*
X128688574Y-92819853D01*
X128949727Y-92711680D01*
X129184759Y-92554637D01*
X129384637Y-92354759D01*
X129541680Y-92119727D01*
X129649853Y-91858574D01*
X129705000Y-91581335D01*
X129705000Y-91298665D01*
X133185000Y-91298665D01*
X133185000Y-91581335D01*
X133240147Y-91858574D01*
X133348320Y-92119727D01*
X133505363Y-92354759D01*
X133705241Y-92554637D01*
X133940273Y-92711680D01*
X134201426Y-92819853D01*
X134478665Y-92875000D01*
X134761335Y-92875000D01*
X135038574Y-92819853D01*
X135299727Y-92711680D01*
X135534759Y-92554637D01*
X135734637Y-92354759D01*
X135891680Y-92119727D01*
X135999853Y-91858574D01*
X136055000Y-91581335D01*
X136055000Y-91298665D01*
X135999853Y-91021426D01*
X135953699Y-90910000D01*
X153111928Y-90910000D01*
X153124188Y-91034482D01*
X153160498Y-91154180D01*
X153219463Y-91264494D01*
X153298815Y-91361185D01*
X153395506Y-91440537D01*
X153505820Y-91499502D01*
X153625518Y-91535812D01*
X153750000Y-91548072D01*
X155214250Y-91545000D01*
X155373000Y-91386250D01*
X155373000Y-88537000D01*
X155627000Y-88537000D01*
X155627000Y-91386250D01*
X155785750Y-91545000D01*
X157250000Y-91548072D01*
X157374482Y-91535812D01*
X157494180Y-91499502D01*
X157604494Y-91440537D01*
X157701185Y-91361185D01*
X157780537Y-91264494D01*
X157839502Y-91154180D01*
X157875812Y-91034482D01*
X157888072Y-90910000D01*
X157885000Y-88695750D01*
X157726250Y-88537000D01*
X155627000Y-88537000D01*
X155373000Y-88537000D01*
X153273750Y-88537000D01*
X153115000Y-88695750D01*
X153111928Y-90910000D01*
X135953699Y-90910000D01*
X135891680Y-90760273D01*
X135734637Y-90525241D01*
X135534759Y-90325363D01*
X135299727Y-90168320D01*
X135038574Y-90060147D01*
X134761335Y-90005000D01*
X134478665Y-90005000D01*
X134201426Y-90060147D01*
X133940273Y-90168320D01*
X133705241Y-90325363D01*
X133505363Y-90525241D01*
X133348320Y-90760273D01*
X133240147Y-91021426D01*
X133185000Y-91298665D01*
X129705000Y-91298665D01*
X129649853Y-91021426D01*
X129541680Y-90760273D01*
X129384637Y-90525241D01*
X129184759Y-90325363D01*
X128949727Y-90168320D01*
X128688574Y-90060147D01*
X128411335Y-90005000D01*
X128128665Y-90005000D01*
X127851426Y-90060147D01*
X127590273Y-90168320D01*
X127355241Y-90325363D01*
X127155363Y-90525241D01*
X126998320Y-90760273D01*
X126890147Y-91021426D01*
X126835000Y-91298665D01*
X123355000Y-91298665D01*
X123299853Y-91021426D01*
X123191680Y-90760273D01*
X123034637Y-90525241D01*
X122834759Y-90325363D01*
X122599727Y-90168320D01*
X122338574Y-90060147D01*
X122061335Y-90005000D01*
X121778665Y-90005000D01*
X121501426Y-90060147D01*
X121240273Y-90168320D01*
X121005241Y-90325363D01*
X120805363Y-90525241D01*
X120648320Y-90760273D01*
X120540147Y-91021426D01*
X120485000Y-91298665D01*
X120031847Y-91298665D01*
X121620513Y-89710000D01*
X132040212Y-89710000D01*
X132080000Y-89713919D01*
X132119788Y-89710000D01*
X132119791Y-89710000D01*
X132238788Y-89698280D01*
X132391473Y-89651963D01*
X132532189Y-89576749D01*
X132655528Y-89475528D01*
X132680900Y-89444612D01*
X136215512Y-85910000D01*
X153111928Y-85910000D01*
X153115000Y-88124250D01*
X153273750Y-88283000D01*
X155373000Y-88283000D01*
X155373000Y-85433750D01*
X155627000Y-85433750D01*
X155627000Y-88283000D01*
X157726250Y-88283000D01*
X157885000Y-88124250D01*
X157888072Y-85910000D01*
X157875812Y-85785518D01*
X157839502Y-85665820D01*
X157780537Y-85555506D01*
X157701185Y-85458815D01*
X157604494Y-85379463D01*
X157494180Y-85320498D01*
X157374482Y-85284188D01*
X157250000Y-85271928D01*
X155785750Y-85275000D01*
X155627000Y-85433750D01*
X155373000Y-85433750D01*
X155214250Y-85275000D01*
X153750000Y-85271928D01*
X153625518Y-85284188D01*
X153505820Y-85320498D01*
X153395506Y-85379463D01*
X153298815Y-85458815D01*
X153219463Y-85555506D01*
X153160498Y-85665820D01*
X153124188Y-85785518D01*
X153111928Y-85910000D01*
X136215512Y-85910000D01*
X138810512Y-83315001D01*
X161190001Y-83315001D01*
X161190000Y-85271928D01*
X160250000Y-85271928D01*
X160125518Y-85284188D01*
X160005820Y-85320498D01*
X159895506Y-85379463D01*
X159798815Y-85458815D01*
X159719463Y-85555506D01*
X159660498Y-85665820D01*
X159624188Y-85785518D01*
X159611928Y-85910000D01*
X159611928Y-90910000D01*
X159624188Y-91034482D01*
X159660498Y-91154180D01*
X159719463Y-91264494D01*
X159798815Y-91361185D01*
X159895506Y-91440537D01*
X160005820Y-91499502D01*
X160125518Y-91535812D01*
X160250000Y-91548072D01*
X163750000Y-91548072D01*
X163874482Y-91535812D01*
X163994180Y-91499502D01*
X164104494Y-91440537D01*
X164201185Y-91361185D01*
X164280537Y-91264494D01*
X164339502Y-91154180D01*
X164375812Y-91034482D01*
X164388072Y-90910000D01*
X164388072Y-85940000D01*
X169866928Y-85940000D01*
X169879188Y-86064482D01*
X169915498Y-86184180D01*
X169974463Y-86294494D01*
X170053815Y-86391185D01*
X170150506Y-86470537D01*
X170260820Y-86529502D01*
X170333380Y-86551513D01*
X170201525Y-86683368D01*
X170039010Y-86926589D01*
X169927068Y-87196842D01*
X169870000Y-87483740D01*
X169870000Y-87776260D01*
X169927068Y-88063158D01*
X170039010Y-88333411D01*
X170201525Y-88576632D01*
X170408368Y-88783475D01*
X170582760Y-88900000D01*
X170408368Y-89016525D01*
X170201525Y-89223368D01*
X170039010Y-89466589D01*
X169927068Y-89736842D01*
X169870000Y-90023740D01*
X169870000Y-90316260D01*
X169927068Y-90603158D01*
X170039010Y-90873411D01*
X170201525Y-91116632D01*
X170408368Y-91323475D01*
X170582760Y-91440000D01*
X170408368Y-91556525D01*
X170201525Y-91763368D01*
X170039010Y-92006589D01*
X169927068Y-92276842D01*
X169870000Y-92563740D01*
X169870000Y-92856260D01*
X169927068Y-93143158D01*
X170039010Y-93413411D01*
X170201525Y-93656632D01*
X170408368Y-93863475D01*
X170582760Y-93980000D01*
X170408368Y-94096525D01*
X170201525Y-94303368D01*
X170039010Y-94546589D01*
X169927068Y-94816842D01*
X169870000Y-95103740D01*
X169870000Y-95396260D01*
X169927068Y-95683158D01*
X170039010Y-95953411D01*
X170201525Y-96196632D01*
X170408368Y-96403475D01*
X170582760Y-96520000D01*
X170408368Y-96636525D01*
X170201525Y-96843368D01*
X170039010Y-97086589D01*
X169927068Y-97356842D01*
X169870000Y-97643740D01*
X169870000Y-97936260D01*
X169927068Y-98223158D01*
X170039010Y-98493411D01*
X170201525Y-98736632D01*
X170408368Y-98943475D01*
X170582760Y-99060000D01*
X170408368Y-99176525D01*
X170201525Y-99383368D01*
X170039010Y-99626589D01*
X169927068Y-99896842D01*
X169870000Y-100183740D01*
X169870000Y-100476260D01*
X169927068Y-100763158D01*
X170039010Y-101033411D01*
X170201525Y-101276632D01*
X170408368Y-101483475D01*
X170582760Y-101600000D01*
X170408368Y-101716525D01*
X170201525Y-101923368D01*
X170039010Y-102166589D01*
X169927068Y-102436842D01*
X169870000Y-102723740D01*
X169870000Y-103016260D01*
X169927068Y-103303158D01*
X170039010Y-103573411D01*
X170201525Y-103816632D01*
X170408368Y-104023475D01*
X170582760Y-104140000D01*
X170408368Y-104256525D01*
X170201525Y-104463368D01*
X170039010Y-104706589D01*
X169927068Y-104976842D01*
X169870000Y-105263740D01*
X169870000Y-105556260D01*
X169927068Y-105843158D01*
X170039010Y-106113411D01*
X170201525Y-106356632D01*
X170408368Y-106563475D01*
X170582760Y-106680000D01*
X170408368Y-106796525D01*
X170201525Y-107003368D01*
X170039010Y-107246589D01*
X169927068Y-107516842D01*
X169870000Y-107803740D01*
X169870000Y-108096260D01*
X169927068Y-108383158D01*
X170039010Y-108653411D01*
X170201525Y-108896632D01*
X170408368Y-109103475D01*
X170582760Y-109220000D01*
X170408368Y-109336525D01*
X170201525Y-109543368D01*
X170039010Y-109786589D01*
X169927068Y-110056842D01*
X169870000Y-110343740D01*
X169870000Y-110636260D01*
X169927068Y-110923158D01*
X170039010Y-111193411D01*
X170201525Y-111436632D01*
X170408368Y-111643475D01*
X170582760Y-111760000D01*
X170408368Y-111876525D01*
X170201525Y-112083368D01*
X170039010Y-112326589D01*
X169927068Y-112596842D01*
X169870000Y-112883740D01*
X169870000Y-113176260D01*
X169927068Y-113463158D01*
X170039010Y-113733411D01*
X170201525Y-113976632D01*
X170408368Y-114183475D01*
X170582760Y-114300000D01*
X170408368Y-114416525D01*
X170201525Y-114623368D01*
X170039010Y-114866589D01*
X169927068Y-115136842D01*
X169870000Y-115423740D01*
X169870000Y-115716260D01*
X169927068Y-116003158D01*
X170039010Y-116273411D01*
X170201525Y-116516632D01*
X170408368Y-116723475D01*
X170582760Y-116840000D01*
X170408368Y-116956525D01*
X170201525Y-117163368D01*
X170039010Y-117406589D01*
X169927068Y-117676842D01*
X169870000Y-117963740D01*
X169870000Y-118256260D01*
X169927068Y-118543158D01*
X170039010Y-118813411D01*
X170201525Y-119056632D01*
X170408368Y-119263475D01*
X170582760Y-119380000D01*
X170408368Y-119496525D01*
X170201525Y-119703368D01*
X170039010Y-119946589D01*
X169927068Y-120216842D01*
X169870000Y-120503740D01*
X169870000Y-120796260D01*
X169927068Y-121083158D01*
X170039010Y-121353411D01*
X170201525Y-121596632D01*
X170408368Y-121803475D01*
X170582760Y-121920000D01*
X170408368Y-122036525D01*
X170201525Y-122243368D01*
X170039010Y-122486589D01*
X169927068Y-122756842D01*
X169870000Y-123043740D01*
X169870000Y-123336260D01*
X169927068Y-123623158D01*
X170039010Y-123893411D01*
X170201525Y-124136632D01*
X170408368Y-124343475D01*
X170651589Y-124505990D01*
X170921842Y-124617932D01*
X171208740Y-124675000D01*
X171501260Y-124675000D01*
X171788158Y-124617932D01*
X172058411Y-124505990D01*
X172301632Y-124343475D01*
X172508475Y-124136632D01*
X172670990Y-123893411D01*
X172782932Y-123623158D01*
X172840000Y-123336260D01*
X172840000Y-123043740D01*
X172782932Y-122756842D01*
X172670990Y-122486589D01*
X172508475Y-122243368D01*
X172301632Y-122036525D01*
X172127240Y-121920000D01*
X172301632Y-121803475D01*
X172508475Y-121596632D01*
X172670990Y-121353411D01*
X172782932Y-121083158D01*
X172840000Y-120796260D01*
X172840000Y-120503740D01*
X172782932Y-120216842D01*
X172670990Y-119946589D01*
X172508475Y-119703368D01*
X172301632Y-119496525D01*
X172127240Y-119380000D01*
X172301632Y-119263475D01*
X172508475Y-119056632D01*
X172670990Y-118813411D01*
X172782932Y-118543158D01*
X172840000Y-118256260D01*
X172840000Y-117963740D01*
X172782932Y-117676842D01*
X172670990Y-117406589D01*
X172508475Y-117163368D01*
X172301632Y-116956525D01*
X172127240Y-116840000D01*
X172301632Y-116723475D01*
X172508475Y-116516632D01*
X172670990Y-116273411D01*
X172782932Y-116003158D01*
X172840000Y-115716260D01*
X172840000Y-115423740D01*
X172782932Y-115136842D01*
X172670990Y-114866589D01*
X172508475Y-114623368D01*
X172301632Y-114416525D01*
X172127240Y-114300000D01*
X172301632Y-114183475D01*
X172508475Y-113976632D01*
X172670990Y-113733411D01*
X172782932Y-113463158D01*
X172840000Y-113176260D01*
X172840000Y-112883740D01*
X172782932Y-112596842D01*
X172670990Y-112326589D01*
X172508475Y-112083368D01*
X172301632Y-111876525D01*
X172127240Y-111760000D01*
X172301632Y-111643475D01*
X172508475Y-111436632D01*
X172670990Y-111193411D01*
X172782932Y-110923158D01*
X172840000Y-110636260D01*
X172840000Y-110343740D01*
X172782932Y-110056842D01*
X172670990Y-109786589D01*
X172508475Y-109543368D01*
X172301632Y-109336525D01*
X172127240Y-109220000D01*
X172301632Y-109103475D01*
X172508475Y-108896632D01*
X172670990Y-108653411D01*
X172782932Y-108383158D01*
X172840000Y-108096260D01*
X172840000Y-107803740D01*
X172782932Y-107516842D01*
X172670990Y-107246589D01*
X172508475Y-107003368D01*
X172301632Y-106796525D01*
X172127240Y-106680000D01*
X172301632Y-106563475D01*
X172508475Y-106356632D01*
X172670990Y-106113411D01*
X172782932Y-105843158D01*
X172840000Y-105556260D01*
X172840000Y-105263740D01*
X172782932Y-104976842D01*
X172670990Y-104706589D01*
X172508475Y-104463368D01*
X172301632Y-104256525D01*
X172127240Y-104140000D01*
X172301632Y-104023475D01*
X172508475Y-103816632D01*
X172670990Y-103573411D01*
X172782932Y-103303158D01*
X172840000Y-103016260D01*
X172840000Y-102723740D01*
X172782932Y-102436842D01*
X172670990Y-102166589D01*
X172508475Y-101923368D01*
X172301632Y-101716525D01*
X172127240Y-101600000D01*
X172301632Y-101483475D01*
X172508475Y-101276632D01*
X172670990Y-101033411D01*
X172782932Y-100763158D01*
X172840000Y-100476260D01*
X172840000Y-100183740D01*
X172782932Y-99896842D01*
X172670990Y-99626589D01*
X172508475Y-99383368D01*
X172301632Y-99176525D01*
X172127240Y-99060000D01*
X172301632Y-98943475D01*
X172508475Y-98736632D01*
X172670990Y-98493411D01*
X172782932Y-98223158D01*
X172840000Y-97936260D01*
X172840000Y-97643740D01*
X172782932Y-97356842D01*
X172670990Y-97086589D01*
X172508475Y-96843368D01*
X172301632Y-96636525D01*
X172127240Y-96520000D01*
X172301632Y-96403475D01*
X172508475Y-96196632D01*
X172670990Y-95953411D01*
X172782932Y-95683158D01*
X172840000Y-95396260D01*
X172840000Y-95103740D01*
X172782932Y-94816842D01*
X172670990Y-94546589D01*
X172508475Y-94303368D01*
X172301632Y-94096525D01*
X172127240Y-93980000D01*
X172301632Y-93863475D01*
X172508475Y-93656632D01*
X172670990Y-93413411D01*
X172782932Y-93143158D01*
X172840000Y-92856260D01*
X172840000Y-92563740D01*
X172782932Y-92276842D01*
X172670990Y-92006589D01*
X172508475Y-91763368D01*
X172301632Y-91556525D01*
X172127240Y-91440000D01*
X172301632Y-91323475D01*
X172508475Y-91116632D01*
X172670990Y-90873411D01*
X172782932Y-90603158D01*
X172840000Y-90316260D01*
X172840000Y-90023740D01*
X172782932Y-89736842D01*
X172670990Y-89466589D01*
X172508475Y-89223368D01*
X172301632Y-89016525D01*
X172127240Y-88900000D01*
X172301632Y-88783475D01*
X172508475Y-88576632D01*
X172670990Y-88333411D01*
X172782932Y-88063158D01*
X172840000Y-87776260D01*
X172840000Y-87483740D01*
X172782932Y-87196842D01*
X172670990Y-86926589D01*
X172508475Y-86683368D01*
X172376620Y-86551513D01*
X172449180Y-86529502D01*
X172559494Y-86470537D01*
X172656185Y-86391185D01*
X172735537Y-86294494D01*
X172794502Y-86184180D01*
X172830812Y-86064482D01*
X172843072Y-85940000D01*
X172840000Y-85375750D01*
X172769250Y-85305000D01*
X173676928Y-85305000D01*
X173689188Y-85429482D01*
X173725498Y-85549180D01*
X173784463Y-85659494D01*
X173863815Y-85756185D01*
X173960506Y-85835537D01*
X174070820Y-85894502D01*
X174190518Y-85930812D01*
X174315000Y-85943072D01*
X174879250Y-85940000D01*
X175038000Y-85781250D01*
X175038000Y-84582000D01*
X173838750Y-84582000D01*
X173680000Y-84740750D01*
X173676928Y-85305000D01*
X172769250Y-85305000D01*
X172681250Y-85217000D01*
X171482000Y-85217000D01*
X171482000Y-85237000D01*
X171228000Y-85237000D01*
X171228000Y-85217000D01*
X170028750Y-85217000D01*
X169870000Y-85375750D01*
X169866928Y-85940000D01*
X164388072Y-85940000D01*
X164388072Y-85910000D01*
X164375812Y-85785518D01*
X164339502Y-85665820D01*
X164280537Y-85555506D01*
X164201185Y-85458815D01*
X164104494Y-85379463D01*
X163994180Y-85320498D01*
X163874482Y-85284188D01*
X163750000Y-85271928D01*
X162810000Y-85271928D01*
X162810000Y-84240000D01*
X169866928Y-84240000D01*
X169870000Y-84804250D01*
X170028750Y-84963000D01*
X171228000Y-84963000D01*
X171228000Y-83763750D01*
X171482000Y-83763750D01*
X171482000Y-84963000D01*
X172681250Y-84963000D01*
X172840000Y-84804250D01*
X172843072Y-84240000D01*
X172830812Y-84115518D01*
X172794502Y-83995820D01*
X172735537Y-83885506D01*
X172656185Y-83788815D01*
X172559494Y-83709463D01*
X172449180Y-83650498D01*
X172329482Y-83614188D01*
X172236192Y-83605000D01*
X173676928Y-83605000D01*
X173680000Y-84169250D01*
X173838750Y-84328000D01*
X175038000Y-84328000D01*
X175038000Y-83128750D01*
X174879250Y-82970000D01*
X174315000Y-82966928D01*
X174190518Y-82979188D01*
X174070820Y-83015498D01*
X173960506Y-83074463D01*
X173863815Y-83153815D01*
X173784463Y-83250506D01*
X173725498Y-83360820D01*
X173689188Y-83480518D01*
X173676928Y-83605000D01*
X172236192Y-83605000D01*
X172205000Y-83601928D01*
X171640750Y-83605000D01*
X171482000Y-83763750D01*
X171228000Y-83763750D01*
X171069250Y-83605000D01*
X170505000Y-83601928D01*
X170380518Y-83614188D01*
X170260820Y-83650498D01*
X170150506Y-83709463D01*
X170053815Y-83788815D01*
X169974463Y-83885506D01*
X169915498Y-83995820D01*
X169879188Y-84115518D01*
X169866928Y-84240000D01*
X162810000Y-84240000D01*
X162810000Y-82709701D01*
X162849482Y-82705812D01*
X162969180Y-82669502D01*
X163079494Y-82610537D01*
X163176185Y-82531185D01*
X163255537Y-82434494D01*
X163314502Y-82324180D01*
X163350812Y-82204482D01*
X163362087Y-82090000D01*
X176194488Y-82090000D01*
X176895000Y-82790513D01*
G36*
X115789248Y-154926048D02*
G01*
X115754875Y-154977784D01*
X115719815Y-155028988D01*
X115715266Y-155037401D01*
X115540721Y-155365673D01*
X115517064Y-155423069D01*
X115492605Y-155480137D01*
X115489776Y-155489274D01*
X115382316Y-155845196D01*
X115370252Y-155906126D01*
X115357349Y-155966829D01*
X115356349Y-155976341D01*
X115320069Y-156346356D01*
X115320069Y-156346368D01*
X115316789Y-156379785D01*
X115319989Y-165836607D01*
X115293543Y-166106327D01*
X115224908Y-166333656D01*
X115113428Y-166543320D01*
X114963343Y-166727341D01*
X114780380Y-166878701D01*
X114571493Y-166991646D01*
X114344653Y-167061865D01*
X114076966Y-167090000D01*
X111938503Y-167090000D01*
X111668673Y-167063543D01*
X111441344Y-166994908D01*
X111231680Y-166883428D01*
X111047659Y-166733343D01*
X110896299Y-166550380D01*
X110783354Y-166341493D01*
X110713135Y-166114653D01*
X110685000Y-165846966D01*
X110685000Y-154813000D01*
X115881448Y-154813000D01*
X115789248Y-154926048D01*
G37*
X115789248Y-154926048D02*
X115754875Y-154977784D01*
X115719815Y-155028988D01*
X115715266Y-155037401D01*
X115540721Y-155365673D01*
X115517064Y-155423069D01*
X115492605Y-155480137D01*
X115489776Y-155489274D01*
X115382316Y-155845196D01*
X115370252Y-155906126D01*
X115357349Y-155966829D01*
X115356349Y-155976341D01*
X115320069Y-156346356D01*
X115320069Y-156346368D01*
X115316789Y-156379785D01*
X115319989Y-165836607D01*
X115293543Y-166106327D01*
X115224908Y-166333656D01*
X115113428Y-166543320D01*
X114963343Y-166727341D01*
X114780380Y-166878701D01*
X114571493Y-166991646D01*
X114344653Y-167061865D01*
X114076966Y-167090000D01*
X111938503Y-167090000D01*
X111668673Y-167063543D01*
X111441344Y-166994908D01*
X111231680Y-166883428D01*
X111047659Y-166733343D01*
X110896299Y-166550380D01*
X110783354Y-166341493D01*
X110713135Y-166114653D01*
X110685000Y-165846966D01*
X110685000Y-154813000D01*
X115881448Y-154813000D01*
X115789248Y-154926048D01*
M02*
