G04 #@! TF.GenerationSoftware,KiCad,Pcbnew,(5.1.2)-1*
G04 #@! TF.CreationDate,2020-02-01T16:47:34+00:00*
G04 #@! TF.ProjectId,Keypad,4b657970-6164-42e6-9b69-6361645f7063,1*
G04 #@! TF.SameCoordinates,Original*
G04 #@! TF.FileFunction,Copper,L2,Bot*
G04 #@! TF.FilePolarity,Positive*
%FSLAX46Y46*%
G04 Gerber Fmt 4.6, Leading zero omitted, Abs format (unit mm)*
G04 Created by KiCad (PCBNEW (5.1.2)-1) date 2020-02-01 16:47:34*
%MOMM*%
%LPD*%
G04 APERTURE LIST*
%ADD10R,3.500000X3.500000*%
%ADD11O,3.500000X3.500000*%
%ADD12O,1.600000X1.600000*%
%ADD13C,1.600000*%
%ADD14O,1.700000X1.700000*%
%ADD15R,1.700000X1.700000*%
%ADD16C,3.000000*%
%ADD17O,1.800000X2.600000*%
%ADD18R,1.800000X2.600000*%
%ADD19O,1.600000X2.000000*%
%ADD20R,2.000000X2.000000*%
%ADD21C,2.100000*%
%ADD22O,1.700000X2.000000*%
%ADD23C,0.100000*%
%ADD24C,1.700000*%
%ADD25C,1.800000*%
%ADD26R,1.800000X1.800000*%
%ADD27C,0.800000*%
%ADD28C,0.350000*%
%ADD29C,0.250000*%
%ADD30C,0.254000*%
G04 APERTURE END LIST*
D10*
X115316000Y-145542000D03*
D11*
X115316000Y-131572000D03*
D12*
X130556000Y-137922000D03*
D13*
X130556000Y-127762000D03*
D14*
X152146000Y-147828000D03*
X149606000Y-147828000D03*
D15*
X147066000Y-147828000D03*
D16*
X112170636Y-40019233D03*
X112171156Y-71019933D03*
X187169736Y-71019933D03*
X187169736Y-40019233D03*
D17*
X143570636Y-40019233D03*
X146110636Y-40019233D03*
X148650636Y-40019233D03*
X151190636Y-40019233D03*
X153730636Y-40019233D03*
X156270636Y-40019233D03*
X158810636Y-40019233D03*
X161350636Y-40019233D03*
X163890636Y-40019233D03*
X166430636Y-40019233D03*
X168970636Y-40019233D03*
X171510636Y-40019233D03*
X174050636Y-40019233D03*
X176590636Y-40019233D03*
X179130636Y-40019233D03*
D18*
X181670636Y-40019233D03*
D19*
X119380000Y-98425000D03*
X121920000Y-98425000D03*
X124460000Y-98425000D03*
X127000000Y-98425000D03*
X129540000Y-98425000D03*
X132080000Y-98425000D03*
X134620000Y-98425000D03*
X137160000Y-98425000D03*
X137160000Y-121285000D03*
X134620000Y-121285000D03*
X132080000Y-121285000D03*
X129540000Y-121285000D03*
X127000000Y-121285000D03*
X124460000Y-121285000D03*
D20*
X119380000Y-121285000D03*
D19*
X121920000Y-121285000D03*
D21*
X153750000Y-97660000D03*
X156250000Y-99910000D03*
X156250000Y-94910000D03*
D22*
X132040000Y-145415000D03*
D23*
G36*
X130164504Y-144416204D02*
G01*
X130188773Y-144419804D01*
X130212571Y-144425765D01*
X130235671Y-144434030D01*
X130257849Y-144444520D01*
X130278893Y-144457133D01*
X130298598Y-144471747D01*
X130316777Y-144488223D01*
X130333253Y-144506402D01*
X130347867Y-144526107D01*
X130360480Y-144547151D01*
X130370970Y-144569329D01*
X130379235Y-144592429D01*
X130385196Y-144616227D01*
X130388796Y-144640496D01*
X130390000Y-144665000D01*
X130390000Y-146165000D01*
X130388796Y-146189504D01*
X130385196Y-146213773D01*
X130379235Y-146237571D01*
X130370970Y-146260671D01*
X130360480Y-146282849D01*
X130347867Y-146303893D01*
X130333253Y-146323598D01*
X130316777Y-146341777D01*
X130298598Y-146358253D01*
X130278893Y-146372867D01*
X130257849Y-146385480D01*
X130235671Y-146395970D01*
X130212571Y-146404235D01*
X130188773Y-146410196D01*
X130164504Y-146413796D01*
X130140000Y-146415000D01*
X128940000Y-146415000D01*
X128915496Y-146413796D01*
X128891227Y-146410196D01*
X128867429Y-146404235D01*
X128844329Y-146395970D01*
X128822151Y-146385480D01*
X128801107Y-146372867D01*
X128781402Y-146358253D01*
X128763223Y-146341777D01*
X128746747Y-146323598D01*
X128732133Y-146303893D01*
X128719520Y-146282849D01*
X128709030Y-146260671D01*
X128700765Y-146237571D01*
X128694804Y-146213773D01*
X128691204Y-146189504D01*
X128690000Y-146165000D01*
X128690000Y-144665000D01*
X128691204Y-144640496D01*
X128694804Y-144616227D01*
X128700765Y-144592429D01*
X128709030Y-144569329D01*
X128719520Y-144547151D01*
X128732133Y-144526107D01*
X128746747Y-144506402D01*
X128763223Y-144488223D01*
X128781402Y-144471747D01*
X128801107Y-144457133D01*
X128822151Y-144444520D01*
X128844329Y-144434030D01*
X128867429Y-144425765D01*
X128891227Y-144419804D01*
X128915496Y-144416204D01*
X128940000Y-144415000D01*
X130140000Y-144415000D01*
X130164504Y-144416204D01*
X130164504Y-144416204D01*
G37*
D24*
X129540000Y-145415000D03*
D25*
X132002585Y-34322360D03*
D26*
X132002585Y-31782360D03*
D25*
X126287585Y-34322360D03*
D26*
X126287585Y-31782360D03*
D25*
X119937585Y-34322360D03*
D26*
X119937585Y-31782360D03*
D14*
X184785000Y-84455000D03*
X182245000Y-84455000D03*
X179705000Y-84455000D03*
D15*
X177165000Y-84455000D03*
D14*
X173355000Y-123190000D03*
X173355000Y-120650000D03*
X173355000Y-118110000D03*
X173355000Y-115570000D03*
X173355000Y-113030000D03*
X173355000Y-110490000D03*
X173355000Y-107950000D03*
X173355000Y-105410000D03*
X173355000Y-102870000D03*
X173355000Y-100330000D03*
X173355000Y-97790000D03*
X173355000Y-95250000D03*
X173355000Y-92710000D03*
X173355000Y-90170000D03*
X173355000Y-87630000D03*
D15*
X173355000Y-85090000D03*
D12*
X128270000Y-81280000D03*
D13*
X128270000Y-91440000D03*
D12*
X121920000Y-81280000D03*
D13*
X121920000Y-91440000D03*
D12*
X115570000Y-81280000D03*
D13*
X115570000Y-91440000D03*
D12*
X134620000Y-81280000D03*
D13*
X134620000Y-91440000D03*
D12*
X125730000Y-127635000D03*
D13*
X125730000Y-137795000D03*
D27*
X113538000Y-154940000D03*
X135382000Y-130302000D03*
X142240000Y-128016000D03*
D28*
X129540000Y-141605000D02*
X125730000Y-137795000D01*
X129540000Y-145415000D02*
X129540000Y-141605000D01*
X125532910Y-145415000D02*
X118801910Y-152146000D01*
X129540000Y-145415000D02*
X125532910Y-145415000D01*
X118801910Y-152146000D02*
X116332000Y-152146000D01*
X116332000Y-152146000D02*
X113538000Y-154940000D01*
X113538000Y-154940000D02*
X113538000Y-154940000D01*
D29*
X132002585Y-38530585D02*
X132002585Y-34322360D01*
X132080000Y-38608000D02*
X132002585Y-38530585D01*
X130832000Y-39856000D02*
X132080000Y-38608000D01*
X130810000Y-39856000D02*
X130832000Y-39856000D01*
X128270000Y-81280000D02*
X128270000Y-42396000D01*
X128270000Y-42396000D02*
X130810000Y-39856000D01*
X126287585Y-38304415D02*
X126287585Y-34322360D01*
X125039585Y-39552415D02*
X126287585Y-38304415D01*
X125017585Y-39552415D02*
X125039585Y-39552415D01*
X121920000Y-81280000D02*
X121920000Y-42650000D01*
X121920000Y-42650000D02*
X125017585Y-39552415D01*
X119937585Y-38050415D02*
X119937585Y-34322360D01*
X118689585Y-39298415D02*
X119937585Y-38050415D01*
X118667585Y-39298415D02*
X118689585Y-39298415D01*
X115570000Y-81280000D02*
X115570000Y-42396000D01*
X115570000Y-42396000D02*
X118667585Y-39298415D01*
X179130636Y-41569233D02*
X179130636Y-40019233D01*
X178977500Y-41722369D02*
X179130636Y-41569233D01*
X178977500Y-58617500D02*
X178977500Y-41722369D01*
X172179999Y-65415001D02*
X178977500Y-58617500D01*
X173355000Y-87630000D02*
X172179999Y-86454999D01*
X172179999Y-86454999D02*
X172179999Y-65415001D01*
X171729989Y-88544989D02*
X173355000Y-90170000D01*
X171729989Y-64595011D02*
X171729989Y-88544989D01*
X176592500Y-59732500D02*
X171729989Y-64595011D01*
X176592500Y-41571097D02*
X176592500Y-59732500D01*
X176590636Y-40019233D02*
X176590636Y-41569233D01*
X176590636Y-41569233D02*
X176592500Y-41571097D01*
X174050636Y-61004364D02*
X174050636Y-40019233D01*
X171279979Y-63775021D02*
X174050636Y-61004364D01*
X173355000Y-92710000D02*
X171279979Y-90634979D01*
X171279979Y-90634979D02*
X171279979Y-63775021D01*
X170829969Y-92724969D02*
X173355000Y-95250000D01*
X170829969Y-62320031D02*
X170829969Y-92724969D01*
X171510636Y-40019233D02*
X171510636Y-61639364D01*
X171510636Y-61639364D02*
X170829969Y-62320031D01*
X168970636Y-60490636D02*
X168970636Y-40019233D01*
X170379959Y-61899959D02*
X168970636Y-60490636D01*
X173355000Y-97790000D02*
X170379959Y-94814959D01*
X170379959Y-94814959D02*
X170379959Y-61899959D01*
X169929949Y-96904949D02*
X173355000Y-100330000D01*
X169929949Y-62086359D02*
X169929949Y-96904949D01*
X166430636Y-40019233D02*
X166430636Y-58587046D01*
X166430636Y-58587046D02*
X169929949Y-62086359D01*
X163890636Y-56683456D02*
X163890636Y-40019233D01*
X169479939Y-62272759D02*
X163890636Y-56683456D01*
X173355000Y-102870000D02*
X169479939Y-98994939D01*
X169479939Y-98994939D02*
X169479939Y-62272759D01*
X168910000Y-100965000D02*
X173355000Y-105410000D01*
X168910000Y-62339230D02*
X168910000Y-100965000D01*
X161350636Y-40019233D02*
X161350636Y-54779866D01*
X161350636Y-54779866D02*
X168910000Y-62339230D01*
X158810636Y-52876276D02*
X158810636Y-40019233D01*
X159412180Y-53477820D02*
X158810636Y-52876276D01*
X159412180Y-53477820D02*
X159385000Y-53450640D01*
X168459990Y-62525630D02*
X159412180Y-53477820D01*
X173355000Y-107950000D02*
X168459990Y-103054990D01*
X168459990Y-103054990D02*
X168459990Y-62525630D01*
X168009980Y-105144980D02*
X173355000Y-110490000D01*
X168009980Y-62712030D02*
X168009980Y-105144980D01*
X156270636Y-40019233D02*
X156270636Y-50972686D01*
X156270636Y-50972686D02*
X168009980Y-62712030D01*
X153730636Y-49069096D02*
X153730636Y-40019233D01*
X167559970Y-62898430D02*
X153730636Y-49069096D01*
X173355000Y-113030000D02*
X167559970Y-107234970D01*
X167559970Y-107234970D02*
X167559970Y-62898430D01*
X167005000Y-109220000D02*
X173355000Y-115570000D01*
X167005000Y-62979870D02*
X167005000Y-109220000D01*
X151190636Y-40019233D02*
X151190636Y-47165506D01*
X151190636Y-47165506D02*
X167005000Y-62979870D01*
X166554990Y-111309990D02*
X173355000Y-118110000D01*
X166554990Y-63166270D02*
X166554990Y-111309990D01*
X148650636Y-40019233D02*
X148650636Y-45261916D01*
X148650636Y-45261916D02*
X166554990Y-63166270D01*
X146110636Y-43358326D02*
X146110636Y-40019233D01*
X166104980Y-63352670D02*
X146110636Y-43358326D01*
X173355000Y-120650000D02*
X166104980Y-113399980D01*
X166104980Y-113399980D02*
X166104980Y-63352670D01*
X142995000Y-40110000D02*
X144145000Y-40110000D01*
X134620000Y-81280000D02*
X134620000Y-48485000D01*
X134620000Y-48485000D02*
X142995000Y-40110000D01*
X124460000Y-99675000D02*
X126238000Y-101453000D01*
X124460000Y-98425000D02*
X124460000Y-99675000D01*
X125874990Y-121950994D02*
X129399996Y-125476000D01*
X125874990Y-120619006D02*
X125874990Y-121950994D01*
X126238000Y-101453000D02*
X126238000Y-120255996D01*
X126238000Y-120255996D02*
X125874990Y-120619006D01*
X129399996Y-125476000D02*
X130556000Y-125476000D01*
X130556000Y-125476000D02*
X135382000Y-130302000D01*
X172505001Y-124039999D02*
X152614999Y-124039999D01*
X173355000Y-123190000D02*
X172505001Y-124039999D01*
X152614999Y-124039999D02*
X143510000Y-114935000D01*
X143510000Y-100330000D02*
X134620000Y-91440000D01*
X143510000Y-114935000D02*
X143510000Y-100330000D01*
D28*
X137160000Y-121285000D02*
X137160000Y-121085000D01*
X138310000Y-121285000D02*
X142240000Y-125215000D01*
X137160000Y-121285000D02*
X138310000Y-121285000D01*
X142240000Y-125215000D02*
X142240000Y-128016000D01*
X151296001Y-146978001D02*
X142240000Y-137922000D01*
X152146000Y-147828000D02*
X151296001Y-146978001D01*
X142240000Y-128016000D02*
X142240000Y-137922000D01*
D29*
X121920000Y-121285000D02*
X121920000Y-121485000D01*
X121920000Y-121485000D02*
X147066000Y-146631000D01*
X147066000Y-146631000D02*
X147066000Y-147828000D01*
X129540000Y-121485000D02*
X129540000Y-121285000D01*
X128270000Y-92571370D02*
X128270000Y-91440000D01*
X128270000Y-118765000D02*
X128270000Y-92571370D01*
X129540000Y-120035000D02*
X128270000Y-118765000D01*
X129540000Y-121285000D02*
X129540000Y-120035000D01*
X132080000Y-121485000D02*
X132080000Y-121285000D01*
X122719999Y-90640001D02*
X121920000Y-91440000D01*
X123045001Y-90314999D02*
X122719999Y-90640001D01*
X128810001Y-90314999D02*
X123045001Y-90314999D01*
X130665010Y-92170008D02*
X128810001Y-90314999D01*
X130665010Y-118620010D02*
X130665010Y-92170008D01*
X132080000Y-120035000D02*
X130665010Y-118620010D01*
X132080000Y-121285000D02*
X132080000Y-120035000D01*
X134620000Y-121485000D02*
X134620000Y-121285000D01*
X116369999Y-90640001D02*
X115570000Y-91440000D01*
X117145011Y-89864989D02*
X116369999Y-90640001D01*
X128996401Y-89864989D02*
X117145011Y-89864989D01*
X133205010Y-94073598D02*
X128996401Y-89864989D01*
X133205010Y-118620010D02*
X133205010Y-94073598D01*
X134620000Y-120035000D02*
X133205010Y-118620010D01*
X134620000Y-121285000D02*
X134620000Y-120035000D01*
D30*
G36*
X118448083Y-30638180D02*
G01*
X118411773Y-30757878D01*
X118399513Y-30882360D01*
X118402585Y-31496610D01*
X118561335Y-31655360D01*
X119810585Y-31655360D01*
X119810585Y-31635360D01*
X120064585Y-31635360D01*
X120064585Y-31655360D01*
X121313835Y-31655360D01*
X121472585Y-31496610D01*
X121475657Y-30882360D01*
X121463397Y-30757878D01*
X121427087Y-30638180D01*
X121393316Y-30575000D01*
X124831854Y-30575000D01*
X124798083Y-30638180D01*
X124761773Y-30757878D01*
X124749513Y-30882360D01*
X124752585Y-31496610D01*
X124911335Y-31655360D01*
X126160585Y-31655360D01*
X126160585Y-31635360D01*
X126414585Y-31635360D01*
X126414585Y-31655360D01*
X127663835Y-31655360D01*
X127822585Y-31496610D01*
X127825657Y-30882360D01*
X127813397Y-30757878D01*
X127777087Y-30638180D01*
X127743316Y-30575000D01*
X130546854Y-30575000D01*
X130513083Y-30638180D01*
X130476773Y-30757878D01*
X130464513Y-30882360D01*
X130467585Y-31496610D01*
X130626335Y-31655360D01*
X131875585Y-31655360D01*
X131875585Y-31635360D01*
X132129585Y-31635360D01*
X132129585Y-31655360D01*
X133378835Y-31655360D01*
X133537585Y-31496610D01*
X133540657Y-30882360D01*
X133528397Y-30757878D01*
X133492087Y-30638180D01*
X133458316Y-30575000D01*
X181315000Y-30575000D01*
X181315001Y-35423647D01*
X181317955Y-35453636D01*
X181317868Y-35466047D01*
X181318802Y-35475565D01*
X181359603Y-35863758D01*
X181372080Y-35924539D01*
X181383720Y-35985560D01*
X181386484Y-35994716D01*
X181501908Y-36367591D01*
X181525986Y-36424870D01*
X181549225Y-36482388D01*
X181553714Y-36490833D01*
X181739366Y-36834188D01*
X181774068Y-36885635D01*
X181808079Y-36937610D01*
X181814124Y-36945022D01*
X182062931Y-37245777D01*
X182106984Y-37289524D01*
X182150422Y-37333881D01*
X182157792Y-37339978D01*
X182460276Y-37586679D01*
X182512005Y-37621047D01*
X182563215Y-37656111D01*
X182571628Y-37660661D01*
X182916270Y-37843910D01*
X182973636Y-37867555D01*
X183030736Y-37892028D01*
X183039873Y-37894856D01*
X183413544Y-38007674D01*
X183474469Y-38019737D01*
X183535174Y-38032641D01*
X183544686Y-38033641D01*
X183933155Y-38071731D01*
X183933163Y-38071731D01*
X183966353Y-38075000D01*
X186284507Y-38075000D01*
X186158434Y-38127221D01*
X185808753Y-38360870D01*
X185511373Y-38658250D01*
X185277724Y-39007931D01*
X185116783Y-39396477D01*
X185034736Y-39808954D01*
X185034736Y-40229512D01*
X185116783Y-40641989D01*
X185277724Y-41030535D01*
X185511373Y-41380216D01*
X185808753Y-41677596D01*
X186158434Y-41911245D01*
X186546980Y-42072186D01*
X186959457Y-42154233D01*
X187380015Y-42154233D01*
X187792492Y-42072186D01*
X188181038Y-41911245D01*
X188315001Y-41821734D01*
X188315001Y-41966344D01*
X188315000Y-41966354D01*
X188315000Y-69217432D01*
X188181038Y-69127921D01*
X187792492Y-68966980D01*
X187380015Y-68884933D01*
X186959457Y-68884933D01*
X186546980Y-68966980D01*
X186158434Y-69127921D01*
X185808753Y-69361570D01*
X185511373Y-69658950D01*
X185277724Y-70008631D01*
X185116783Y-70397177D01*
X185034736Y-70809654D01*
X185034736Y-71230212D01*
X185116783Y-71642689D01*
X185277724Y-72031235D01*
X185511373Y-72380916D01*
X185808753Y-72678296D01*
X186158434Y-72911945D01*
X186546980Y-73072886D01*
X186959457Y-73154933D01*
X187380015Y-73154933D01*
X187792492Y-73072886D01*
X188181038Y-72911945D01*
X188315000Y-72822434D01*
X188315001Y-165836487D01*
X188288543Y-166106327D01*
X188219908Y-166333656D01*
X188108428Y-166543320D01*
X187958343Y-166727341D01*
X187775380Y-166878701D01*
X187566493Y-166991646D01*
X187339653Y-167061865D01*
X187071966Y-167090000D01*
X184691503Y-167090000D01*
X184421673Y-167063543D01*
X184194344Y-166994908D01*
X183984680Y-166883428D01*
X183800659Y-166733343D01*
X183649299Y-166550380D01*
X183536354Y-166341493D01*
X183466135Y-166114653D01*
X183438000Y-165846966D01*
X183438000Y-156379553D01*
X183435053Y-156349628D01*
X183435135Y-156337817D01*
X183434201Y-156328299D01*
X183395338Y-155958544D01*
X183382863Y-155897769D01*
X183371221Y-155836742D01*
X183368456Y-155827586D01*
X183258514Y-155472422D01*
X183234454Y-155415184D01*
X183211199Y-155357626D01*
X183206709Y-155349181D01*
X183029877Y-155022136D01*
X182995142Y-154970639D01*
X182961163Y-154918714D01*
X182955118Y-154911302D01*
X182718129Y-154624832D01*
X182674076Y-154581085D01*
X182630638Y-154536728D01*
X182623269Y-154530632D01*
X182335152Y-154295648D01*
X182283416Y-154261275D01*
X182232212Y-154226215D01*
X182223799Y-154221666D01*
X181895527Y-154047121D01*
X181838131Y-154023464D01*
X181781063Y-153999005D01*
X181771926Y-153996176D01*
X181416004Y-153888716D01*
X181355074Y-153876652D01*
X181294371Y-153863749D01*
X181284863Y-153862749D01*
X181284859Y-153862749D01*
X180914844Y-153826469D01*
X180914837Y-153826469D01*
X180881647Y-153823200D01*
X117873153Y-153823200D01*
X117843228Y-153826147D01*
X117831417Y-153826065D01*
X117821899Y-153826999D01*
X117452144Y-153865862D01*
X117391369Y-153878337D01*
X117330342Y-153889979D01*
X117321186Y-153892744D01*
X116966022Y-154002686D01*
X116908784Y-154026746D01*
X116851226Y-154050001D01*
X116849347Y-154051000D01*
X115572512Y-154051000D01*
X116667513Y-152956000D01*
X118762122Y-152956000D01*
X118801910Y-152959919D01*
X118841698Y-152956000D01*
X118841701Y-152956000D01*
X118960698Y-152944280D01*
X119113383Y-152897963D01*
X119254099Y-152822749D01*
X119377438Y-152721528D01*
X119402810Y-152690612D01*
X125868423Y-146225000D01*
X128057837Y-146225000D01*
X128068992Y-146338254D01*
X128119528Y-146504850D01*
X128201595Y-146658386D01*
X128312038Y-146792962D01*
X128446614Y-146903405D01*
X128600150Y-146985472D01*
X128766746Y-147036008D01*
X128940000Y-147053072D01*
X130140000Y-147053072D01*
X130313254Y-147036008D01*
X130479850Y-146985472D01*
X130633386Y-146903405D01*
X130767962Y-146792962D01*
X130878405Y-146658386D01*
X130932777Y-146556663D01*
X130984866Y-146620134D01*
X131210987Y-146805706D01*
X131468967Y-146943599D01*
X131748890Y-147028513D01*
X132040000Y-147057185D01*
X132331111Y-147028513D01*
X132611034Y-146943599D01*
X132869014Y-146805706D01*
X133095134Y-146620134D01*
X133280706Y-146394014D01*
X133418599Y-146136033D01*
X133503513Y-145856110D01*
X133525000Y-145637949D01*
X133525000Y-145192050D01*
X133503513Y-144973889D01*
X133418599Y-144693966D01*
X133280706Y-144435986D01*
X133095134Y-144209866D01*
X132869013Y-144024294D01*
X132611033Y-143886401D01*
X132331110Y-143801487D01*
X132040000Y-143772815D01*
X131748889Y-143801487D01*
X131468966Y-143886401D01*
X131210986Y-144024294D01*
X130984866Y-144209866D01*
X130932777Y-144273337D01*
X130878405Y-144171614D01*
X130767962Y-144037038D01*
X130633386Y-143926595D01*
X130479850Y-143844528D01*
X130350000Y-143805139D01*
X130350000Y-141644788D01*
X130353919Y-141605000D01*
X130350000Y-141565209D01*
X130338280Y-141446212D01*
X130291963Y-141293527D01*
X130291963Y-141293526D01*
X130216749Y-141152811D01*
X130140893Y-141060380D01*
X130115528Y-141029472D01*
X130084618Y-141004105D01*
X127351553Y-138271040D01*
X129164091Y-138271040D01*
X129258930Y-138535881D01*
X129403615Y-138777131D01*
X129592586Y-138985519D01*
X129818580Y-139153037D01*
X130072913Y-139273246D01*
X130206961Y-139313904D01*
X130429000Y-139191915D01*
X130429000Y-138049000D01*
X130683000Y-138049000D01*
X130683000Y-139191915D01*
X130905039Y-139313904D01*
X131039087Y-139273246D01*
X131293420Y-139153037D01*
X131519414Y-138985519D01*
X131708385Y-138777131D01*
X131853070Y-138535881D01*
X131947909Y-138271040D01*
X131826624Y-138049000D01*
X130683000Y-138049000D01*
X130429000Y-138049000D01*
X129285376Y-138049000D01*
X129164091Y-138271040D01*
X127351553Y-138271040D01*
X127140420Y-138059907D01*
X127165000Y-137936335D01*
X127165000Y-137653665D01*
X127148947Y-137572960D01*
X129164091Y-137572960D01*
X129285376Y-137795000D01*
X130429000Y-137795000D01*
X130429000Y-136652085D01*
X130683000Y-136652085D01*
X130683000Y-137795000D01*
X131826624Y-137795000D01*
X131947909Y-137572960D01*
X131853070Y-137308119D01*
X131708385Y-137066869D01*
X131519414Y-136858481D01*
X131293420Y-136690963D01*
X131039087Y-136570754D01*
X130905039Y-136530096D01*
X130683000Y-136652085D01*
X130429000Y-136652085D01*
X130206961Y-136530096D01*
X130072913Y-136570754D01*
X129818580Y-136690963D01*
X129592586Y-136858481D01*
X129403615Y-137066869D01*
X129258930Y-137308119D01*
X129164091Y-137572960D01*
X127148947Y-137572960D01*
X127109853Y-137376426D01*
X127001680Y-137115273D01*
X126844637Y-136880241D01*
X126644759Y-136680363D01*
X126409727Y-136523320D01*
X126148574Y-136415147D01*
X125871335Y-136360000D01*
X125588665Y-136360000D01*
X125311426Y-136415147D01*
X125050273Y-136523320D01*
X124815241Y-136680363D01*
X124615363Y-136880241D01*
X124458320Y-137115273D01*
X124350147Y-137376426D01*
X124295000Y-137653665D01*
X124295000Y-137936335D01*
X124350147Y-138213574D01*
X124458320Y-138474727D01*
X124615363Y-138709759D01*
X124815241Y-138909637D01*
X125050273Y-139066680D01*
X125311426Y-139174853D01*
X125588665Y-139230000D01*
X125871335Y-139230000D01*
X125994907Y-139205420D01*
X128730001Y-141940514D01*
X128730000Y-143805139D01*
X128600150Y-143844528D01*
X128446614Y-143926595D01*
X128312038Y-144037038D01*
X128201595Y-144171614D01*
X128119528Y-144325150D01*
X128068992Y-144491746D01*
X128057837Y-144605000D01*
X125572697Y-144605000D01*
X125532909Y-144601081D01*
X125493121Y-144605000D01*
X125493119Y-144605000D01*
X125374122Y-144616720D01*
X125221437Y-144663037D01*
X125080721Y-144738251D01*
X124957382Y-144839472D01*
X124932015Y-144870382D01*
X118466398Y-151336000D01*
X116371788Y-151336000D01*
X116332000Y-151332081D01*
X116292212Y-151336000D01*
X116292209Y-151336000D01*
X116173212Y-151347720D01*
X116056063Y-151383257D01*
X116020526Y-151394037D01*
X115879811Y-151469251D01*
X115756472Y-151570472D01*
X115731107Y-151601380D01*
X113425359Y-153907129D01*
X113236102Y-153944774D01*
X113047744Y-154022795D01*
X113005532Y-154051000D01*
X110685000Y-154051000D01*
X110685000Y-143792000D01*
X112927928Y-143792000D01*
X112927928Y-147292000D01*
X112940188Y-147416482D01*
X112976498Y-147536180D01*
X113035463Y-147646494D01*
X113114815Y-147743185D01*
X113211506Y-147822537D01*
X113321820Y-147881502D01*
X113441518Y-147917812D01*
X113566000Y-147930072D01*
X117066000Y-147930072D01*
X117190482Y-147917812D01*
X117310180Y-147881502D01*
X117420494Y-147822537D01*
X117517185Y-147743185D01*
X117596537Y-147646494D01*
X117655502Y-147536180D01*
X117691812Y-147416482D01*
X117704072Y-147292000D01*
X117704072Y-143792000D01*
X117691812Y-143667518D01*
X117655502Y-143547820D01*
X117596537Y-143437506D01*
X117517185Y-143340815D01*
X117420494Y-143261463D01*
X117310180Y-143202498D01*
X117190482Y-143166188D01*
X117066000Y-143153928D01*
X113566000Y-143153928D01*
X113441518Y-143166188D01*
X113321820Y-143202498D01*
X113211506Y-143261463D01*
X113114815Y-143340815D01*
X113035463Y-143437506D01*
X112976498Y-143547820D01*
X112940188Y-143667518D01*
X112927928Y-143792000D01*
X110685000Y-143792000D01*
X110685000Y-131572000D01*
X112919461Y-131572000D01*
X112965510Y-132039542D01*
X113101887Y-132489116D01*
X113323351Y-132903446D01*
X113621391Y-133266609D01*
X113984554Y-133564649D01*
X114398884Y-133786113D01*
X114848458Y-133922490D01*
X115198843Y-133957000D01*
X115433157Y-133957000D01*
X115783542Y-133922490D01*
X116233116Y-133786113D01*
X116647446Y-133564649D01*
X117010609Y-133266609D01*
X117308649Y-132903446D01*
X117530113Y-132489116D01*
X117666490Y-132039542D01*
X117712539Y-131572000D01*
X117666490Y-131104458D01*
X117530113Y-130654884D01*
X117308649Y-130240554D01*
X117010609Y-129877391D01*
X116647446Y-129579351D01*
X116233116Y-129357887D01*
X115783542Y-129221510D01*
X115433157Y-129187000D01*
X115198843Y-129187000D01*
X114848458Y-129221510D01*
X114398884Y-129357887D01*
X113984554Y-129579351D01*
X113621391Y-129877391D01*
X113323351Y-130240554D01*
X113101887Y-130654884D01*
X112965510Y-131104458D01*
X112919461Y-131572000D01*
X110685000Y-131572000D01*
X110685000Y-123317000D01*
X118110000Y-123317000D01*
X118134776Y-123314560D01*
X118158601Y-123307333D01*
X118180557Y-123295597D01*
X118199803Y-123279803D01*
X118215597Y-123260557D01*
X118227333Y-123238601D01*
X118234560Y-123214776D01*
X118237000Y-123190000D01*
X118237000Y-122905195D01*
X118255518Y-122910812D01*
X118380000Y-122923072D01*
X120380000Y-122923072D01*
X120504482Y-122910812D01*
X120624180Y-122874502D01*
X120734494Y-122815537D01*
X120831185Y-122736185D01*
X120910537Y-122639494D01*
X120957559Y-122551523D01*
X121118900Y-122683932D01*
X121368193Y-122817182D01*
X121638692Y-122899236D01*
X121920000Y-122926943D01*
X122201309Y-122899236D01*
X122245907Y-122885708D01*
X125569103Y-126208904D01*
X125448691Y-126220764D01*
X125178192Y-126302818D01*
X124928899Y-126436068D01*
X124710392Y-126615392D01*
X124531068Y-126833899D01*
X124397818Y-127083192D01*
X124315764Y-127353691D01*
X124288057Y-127635000D01*
X124315764Y-127916309D01*
X124397818Y-128186808D01*
X124531068Y-128436101D01*
X124710392Y-128654608D01*
X124928899Y-128833932D01*
X125178192Y-128967182D01*
X125448691Y-129049236D01*
X125659508Y-129070000D01*
X125800492Y-129070000D01*
X126011309Y-129049236D01*
X126281808Y-128967182D01*
X126531101Y-128833932D01*
X126749608Y-128654608D01*
X126928932Y-128436101D01*
X127062182Y-128186808D01*
X127144236Y-127916309D01*
X127156096Y-127795897D01*
X145831932Y-146471734D01*
X145764815Y-146526815D01*
X145685463Y-146623506D01*
X145626498Y-146733820D01*
X145590188Y-146853518D01*
X145577928Y-146978000D01*
X145577928Y-148678000D01*
X145590188Y-148802482D01*
X145626498Y-148922180D01*
X145685463Y-149032494D01*
X145764815Y-149129185D01*
X145861506Y-149208537D01*
X145971820Y-149267502D01*
X146091518Y-149303812D01*
X146216000Y-149316072D01*
X147916000Y-149316072D01*
X148040482Y-149303812D01*
X148160180Y-149267502D01*
X148270494Y-149208537D01*
X148367185Y-149129185D01*
X148446537Y-149032494D01*
X148505502Y-148922180D01*
X148529966Y-148841534D01*
X148605731Y-148925588D01*
X148839080Y-149099641D01*
X149101901Y-149224825D01*
X149249110Y-149269476D01*
X149479000Y-149148155D01*
X149479000Y-147955000D01*
X149459000Y-147955000D01*
X149459000Y-147701000D01*
X149479000Y-147701000D01*
X149479000Y-147681000D01*
X149733000Y-147681000D01*
X149733000Y-147701000D01*
X149753000Y-147701000D01*
X149753000Y-147955000D01*
X149733000Y-147955000D01*
X149733000Y-149148155D01*
X149962890Y-149269476D01*
X150110099Y-149224825D01*
X150372920Y-149099641D01*
X150606269Y-148925588D01*
X150801178Y-148709355D01*
X150870799Y-148592477D01*
X150905294Y-148657014D01*
X151090866Y-148883134D01*
X151316986Y-149068706D01*
X151574966Y-149206599D01*
X151854889Y-149291513D01*
X152073050Y-149313000D01*
X152218950Y-149313000D01*
X152437111Y-149291513D01*
X152717034Y-149206599D01*
X152975014Y-149068706D01*
X153201134Y-148883134D01*
X153386706Y-148657014D01*
X153524599Y-148399034D01*
X153609513Y-148119111D01*
X153638185Y-147828000D01*
X153609513Y-147536889D01*
X153524599Y-147256966D01*
X153386706Y-146998986D01*
X153201134Y-146772866D01*
X152975014Y-146587294D01*
X152717034Y-146449401D01*
X152437111Y-146364487D01*
X152218950Y-146343000D01*
X152073050Y-146343000D01*
X151854889Y-146364487D01*
X151834258Y-146370745D01*
X143050000Y-137586488D01*
X143050000Y-128666700D01*
X143157205Y-128506256D01*
X143235226Y-128317898D01*
X143275000Y-128117939D01*
X143275000Y-127914061D01*
X143235226Y-127714102D01*
X143157205Y-127525744D01*
X143050000Y-127365300D01*
X143050000Y-125254787D01*
X143053919Y-125214999D01*
X143050000Y-125175209D01*
X143038280Y-125056212D01*
X142991963Y-124903527D01*
X142938591Y-124803675D01*
X142916749Y-124762810D01*
X142871119Y-124707210D01*
X142815528Y-124639472D01*
X142784619Y-124614106D01*
X138910900Y-120740388D01*
X138885528Y-120709472D01*
X138762189Y-120608251D01*
X138621473Y-120533037D01*
X138468788Y-120486720D01*
X138467262Y-120486570D01*
X138358932Y-120283899D01*
X138179607Y-120065392D01*
X137961100Y-119886068D01*
X137711807Y-119752818D01*
X137441308Y-119670764D01*
X137160000Y-119643057D01*
X136878691Y-119670764D01*
X136608192Y-119752818D01*
X136358899Y-119886068D01*
X136140392Y-120065393D01*
X135961068Y-120283900D01*
X135890000Y-120416858D01*
X135818932Y-120283899D01*
X135639607Y-120065392D01*
X135421100Y-119886068D01*
X135358941Y-119852843D01*
X135325546Y-119742753D01*
X135272257Y-119643057D01*
X135254974Y-119610723D01*
X135183799Y-119523997D01*
X135160001Y-119494999D01*
X135131003Y-119471201D01*
X133965010Y-118305209D01*
X133965010Y-99905986D01*
X134213270Y-100006444D01*
X134270961Y-100016904D01*
X134493000Y-99894915D01*
X134493000Y-98552000D01*
X134473000Y-98552000D01*
X134473000Y-98298000D01*
X134493000Y-98298000D01*
X134493000Y-96955085D01*
X134747000Y-96955085D01*
X134747000Y-98298000D01*
X134767000Y-98298000D01*
X134767000Y-98552000D01*
X134747000Y-98552000D01*
X134747000Y-99894915D01*
X134969039Y-100016904D01*
X135026730Y-100006444D01*
X135288421Y-99900551D01*
X135524425Y-99745639D01*
X135725673Y-99547662D01*
X135884430Y-99314227D01*
X135891878Y-99296655D01*
X135961068Y-99426101D01*
X136140393Y-99644608D01*
X136358900Y-99823932D01*
X136608193Y-99957182D01*
X136878692Y-100039236D01*
X137160000Y-100066943D01*
X137441309Y-100039236D01*
X137711808Y-99957182D01*
X137961101Y-99823932D01*
X138179608Y-99644608D01*
X138358932Y-99426101D01*
X138492182Y-99176807D01*
X138574236Y-98906308D01*
X138595000Y-98695491D01*
X138595000Y-98154508D01*
X138574236Y-97943691D01*
X138492182Y-97673192D01*
X138358932Y-97423899D01*
X138179607Y-97205392D01*
X137961100Y-97026068D01*
X137711807Y-96892818D01*
X137441308Y-96810764D01*
X137160000Y-96783057D01*
X136878691Y-96810764D01*
X136608192Y-96892818D01*
X136358899Y-97026068D01*
X136140392Y-97205393D01*
X135961068Y-97423900D01*
X135891878Y-97553345D01*
X135884430Y-97535773D01*
X135725673Y-97302338D01*
X135524425Y-97104361D01*
X135288421Y-96949449D01*
X135026730Y-96843556D01*
X134969039Y-96833096D01*
X134747000Y-96955085D01*
X134493000Y-96955085D01*
X134270961Y-96833096D01*
X134213270Y-96843556D01*
X133965010Y-96944014D01*
X133965010Y-94110921D01*
X133968686Y-94073598D01*
X133965010Y-94036275D01*
X133965010Y-94036265D01*
X133954013Y-93924612D01*
X133910556Y-93781351D01*
X133901816Y-93765000D01*
X133839984Y-93649321D01*
X133768809Y-93562595D01*
X133745011Y-93533597D01*
X133716013Y-93509799D01*
X129560205Y-89353992D01*
X129536402Y-89324988D01*
X129420677Y-89230015D01*
X129288648Y-89159443D01*
X129145387Y-89115986D01*
X129033734Y-89104989D01*
X129033723Y-89104989D01*
X128996401Y-89101313D01*
X128959079Y-89104989D01*
X117182333Y-89104989D01*
X117145010Y-89101313D01*
X117107687Y-89104989D01*
X117107678Y-89104989D01*
X116996025Y-89115986D01*
X116852764Y-89159443D01*
X116720735Y-89230015D01*
X116720733Y-89230016D01*
X116720734Y-89230016D01*
X116634007Y-89301190D01*
X116634003Y-89301194D01*
X116605010Y-89324988D01*
X116581216Y-89353981D01*
X115893887Y-90041312D01*
X115711335Y-90005000D01*
X115428665Y-90005000D01*
X115151426Y-90060147D01*
X114890273Y-90168320D01*
X114655241Y-90325363D01*
X114455363Y-90525241D01*
X114298320Y-90760273D01*
X114190147Y-91021426D01*
X114135000Y-91298665D01*
X114135000Y-91581335D01*
X114190147Y-91858574D01*
X114298320Y-92119727D01*
X114455363Y-92354759D01*
X114655241Y-92554637D01*
X114890273Y-92711680D01*
X115151426Y-92819853D01*
X115428665Y-92875000D01*
X115711335Y-92875000D01*
X115988574Y-92819853D01*
X116249727Y-92711680D01*
X116484759Y-92554637D01*
X116684637Y-92354759D01*
X116841680Y-92119727D01*
X116949853Y-91858574D01*
X117005000Y-91581335D01*
X117005000Y-91298665D01*
X116968688Y-91116113D01*
X117459813Y-90624989D01*
X120738714Y-90624989D01*
X120648320Y-90760273D01*
X120540147Y-91021426D01*
X120485000Y-91298665D01*
X120485000Y-91581335D01*
X120540147Y-91858574D01*
X120648320Y-92119727D01*
X120805363Y-92354759D01*
X121005241Y-92554637D01*
X121240273Y-92711680D01*
X121501426Y-92819853D01*
X121778665Y-92875000D01*
X122061335Y-92875000D01*
X122338574Y-92819853D01*
X122599727Y-92711680D01*
X122834759Y-92554637D01*
X123034637Y-92354759D01*
X123191680Y-92119727D01*
X123299853Y-91858574D01*
X123355000Y-91581335D01*
X123355000Y-91298665D01*
X123318688Y-91116113D01*
X123359802Y-91074999D01*
X126879491Y-91074999D01*
X126835000Y-91298665D01*
X126835000Y-91581335D01*
X126890147Y-91858574D01*
X126998320Y-92119727D01*
X127155363Y-92354759D01*
X127355241Y-92554637D01*
X127510001Y-92658044D01*
X127510001Y-96880136D01*
X127281308Y-96810764D01*
X127000000Y-96783057D01*
X126718691Y-96810764D01*
X126448192Y-96892818D01*
X126198899Y-97026068D01*
X125980392Y-97205393D01*
X125801068Y-97423900D01*
X125730000Y-97556858D01*
X125658932Y-97423899D01*
X125479607Y-97205392D01*
X125261100Y-97026068D01*
X125011807Y-96892818D01*
X124741308Y-96810764D01*
X124460000Y-96783057D01*
X124178691Y-96810764D01*
X123908192Y-96892818D01*
X123658899Y-97026068D01*
X123440392Y-97205393D01*
X123261068Y-97423900D01*
X123190000Y-97556858D01*
X123118932Y-97423899D01*
X122939607Y-97205392D01*
X122721100Y-97026068D01*
X122471807Y-96892818D01*
X122201308Y-96810764D01*
X121920000Y-96783057D01*
X121638691Y-96810764D01*
X121368192Y-96892818D01*
X121118899Y-97026068D01*
X120900392Y-97205393D01*
X120721068Y-97423900D01*
X120650000Y-97556858D01*
X120578932Y-97423899D01*
X120399607Y-97205392D01*
X120181100Y-97026068D01*
X119931807Y-96892818D01*
X119661308Y-96810764D01*
X119380000Y-96783057D01*
X119098691Y-96810764D01*
X118828192Y-96892818D01*
X118578899Y-97026068D01*
X118360392Y-97205393D01*
X118237000Y-97355747D01*
X118237000Y-96520000D01*
X118234560Y-96495224D01*
X118227333Y-96471399D01*
X118215597Y-96449443D01*
X118199803Y-96430197D01*
X118180557Y-96414403D01*
X118158601Y-96402667D01*
X118134776Y-96395440D01*
X118110000Y-96393000D01*
X110685000Y-96393000D01*
X110685000Y-81280000D01*
X114128057Y-81280000D01*
X114155764Y-81561309D01*
X114237818Y-81831808D01*
X114371068Y-82081101D01*
X114550392Y-82299608D01*
X114768899Y-82478932D01*
X115018192Y-82612182D01*
X115288691Y-82694236D01*
X115499508Y-82715000D01*
X115640492Y-82715000D01*
X115851309Y-82694236D01*
X116121808Y-82612182D01*
X116371101Y-82478932D01*
X116589608Y-82299608D01*
X116768932Y-82081101D01*
X116902182Y-81831808D01*
X116984236Y-81561309D01*
X117011943Y-81280000D01*
X120478057Y-81280000D01*
X120505764Y-81561309D01*
X120587818Y-81831808D01*
X120721068Y-82081101D01*
X120900392Y-82299608D01*
X121118899Y-82478932D01*
X121368192Y-82612182D01*
X121638691Y-82694236D01*
X121849508Y-82715000D01*
X121990492Y-82715000D01*
X122201309Y-82694236D01*
X122471808Y-82612182D01*
X122721101Y-82478932D01*
X122939608Y-82299608D01*
X123118932Y-82081101D01*
X123252182Y-81831808D01*
X123334236Y-81561309D01*
X123361943Y-81280000D01*
X126828057Y-81280000D01*
X126855764Y-81561309D01*
X126937818Y-81831808D01*
X127071068Y-82081101D01*
X127250392Y-82299608D01*
X127468899Y-82478932D01*
X127718192Y-82612182D01*
X127988691Y-82694236D01*
X128199508Y-82715000D01*
X128340492Y-82715000D01*
X128551309Y-82694236D01*
X128821808Y-82612182D01*
X129071101Y-82478932D01*
X129289608Y-82299608D01*
X129468932Y-82081101D01*
X129602182Y-81831808D01*
X129684236Y-81561309D01*
X129711943Y-81280000D01*
X133178057Y-81280000D01*
X133205764Y-81561309D01*
X133287818Y-81831808D01*
X133421068Y-82081101D01*
X133600392Y-82299608D01*
X133818899Y-82478932D01*
X134068192Y-82612182D01*
X134338691Y-82694236D01*
X134549508Y-82715000D01*
X134690492Y-82715000D01*
X134901309Y-82694236D01*
X135171808Y-82612182D01*
X135421101Y-82478932D01*
X135639608Y-82299608D01*
X135818932Y-82081101D01*
X135952182Y-81831808D01*
X136034236Y-81561309D01*
X136061943Y-81280000D01*
X136034236Y-80998691D01*
X135952182Y-80728192D01*
X135818932Y-80478899D01*
X135639608Y-80260392D01*
X135421101Y-80081068D01*
X135380000Y-80059099D01*
X135380000Y-48799801D01*
X142584295Y-41595507D01*
X142713709Y-41701714D01*
X142980375Y-41844250D01*
X143269723Y-41932023D01*
X143570636Y-41961660D01*
X143871548Y-41932023D01*
X144160896Y-41844250D01*
X144427562Y-41701714D01*
X144661297Y-41509894D01*
X144840636Y-41291368D01*
X145019975Y-41509894D01*
X145253709Y-41701714D01*
X145350636Y-41753523D01*
X145350636Y-43321003D01*
X145346960Y-43358326D01*
X145350636Y-43395648D01*
X145350636Y-43395658D01*
X145361633Y-43507311D01*
X145405090Y-43650572D01*
X145475662Y-43782602D01*
X145515507Y-43831152D01*
X145570635Y-43898327D01*
X145599639Y-43922130D01*
X165344981Y-63667474D01*
X165344980Y-113362658D01*
X165341304Y-113399980D01*
X165344980Y-113437302D01*
X165344980Y-113437312D01*
X165355977Y-113548965D01*
X165399434Y-113692226D01*
X165470006Y-113824256D01*
X165509851Y-113872806D01*
X165564979Y-113939981D01*
X165593983Y-113963784D01*
X171914203Y-120284005D01*
X171891487Y-120358889D01*
X171862815Y-120650000D01*
X171891487Y-120941111D01*
X171976401Y-121221034D01*
X172114294Y-121479014D01*
X172299866Y-121705134D01*
X172525986Y-121890706D01*
X172580791Y-121920000D01*
X172525986Y-121949294D01*
X172299866Y-122134866D01*
X172114294Y-122360986D01*
X171976401Y-122618966D01*
X171891487Y-122898889D01*
X171862815Y-123190000D01*
X171871679Y-123279999D01*
X152929801Y-123279999D01*
X144270000Y-114620199D01*
X144270000Y-100367333D01*
X144273677Y-100330000D01*
X144259003Y-100181014D01*
X144215546Y-100037753D01*
X144144974Y-99905724D01*
X144073799Y-99818997D01*
X144050001Y-99789999D01*
X144021003Y-99766201D01*
X141748844Y-97494042D01*
X152065000Y-97494042D01*
X152065000Y-97825958D01*
X152129754Y-98151496D01*
X152256772Y-98458147D01*
X152441175Y-98734125D01*
X152675875Y-98968825D01*
X152951853Y-99153228D01*
X153258504Y-99280246D01*
X153584042Y-99345000D01*
X153915958Y-99345000D01*
X154241496Y-99280246D01*
X154548147Y-99153228D01*
X154824125Y-98968825D01*
X154909157Y-98883793D01*
X154756772Y-99111853D01*
X154629754Y-99418504D01*
X154565000Y-99744042D01*
X154565000Y-100075958D01*
X154629754Y-100401496D01*
X154756772Y-100708147D01*
X154941175Y-100984125D01*
X155175875Y-101218825D01*
X155451853Y-101403228D01*
X155758504Y-101530246D01*
X156084042Y-101595000D01*
X156415958Y-101595000D01*
X156741496Y-101530246D01*
X157048147Y-101403228D01*
X157324125Y-101218825D01*
X157558825Y-100984125D01*
X157743228Y-100708147D01*
X157870246Y-100401496D01*
X157935000Y-100075958D01*
X157935000Y-99744042D01*
X157870246Y-99418504D01*
X157743228Y-99111853D01*
X157558825Y-98835875D01*
X157324125Y-98601175D01*
X157048147Y-98416772D01*
X156741496Y-98289754D01*
X156415958Y-98225000D01*
X156084042Y-98225000D01*
X155758504Y-98289754D01*
X155451853Y-98416772D01*
X155175875Y-98601175D01*
X155090843Y-98686207D01*
X155243228Y-98458147D01*
X155370246Y-98151496D01*
X155435000Y-97825958D01*
X155435000Y-97494042D01*
X155370246Y-97168504D01*
X155243228Y-96861853D01*
X155058825Y-96585875D01*
X154824125Y-96351175D01*
X154548147Y-96166772D01*
X154241496Y-96039754D01*
X153915958Y-95975000D01*
X153584042Y-95975000D01*
X153258504Y-96039754D01*
X152951853Y-96166772D01*
X152675875Y-96351175D01*
X152441175Y-96585875D01*
X152256772Y-96861853D01*
X152129754Y-97168504D01*
X152065000Y-97494042D01*
X141748844Y-97494042D01*
X138998844Y-94744042D01*
X154565000Y-94744042D01*
X154565000Y-95075958D01*
X154629754Y-95401496D01*
X154756772Y-95708147D01*
X154941175Y-95984125D01*
X155175875Y-96218825D01*
X155451853Y-96403228D01*
X155758504Y-96530246D01*
X156084042Y-96595000D01*
X156415958Y-96595000D01*
X156741496Y-96530246D01*
X157048147Y-96403228D01*
X157324125Y-96218825D01*
X157558825Y-95984125D01*
X157743228Y-95708147D01*
X157870246Y-95401496D01*
X157935000Y-95075958D01*
X157935000Y-94744042D01*
X157870246Y-94418504D01*
X157743228Y-94111853D01*
X157558825Y-93835875D01*
X157324125Y-93601175D01*
X157048147Y-93416772D01*
X156741496Y-93289754D01*
X156415958Y-93225000D01*
X156084042Y-93225000D01*
X155758504Y-93289754D01*
X155451853Y-93416772D01*
X155175875Y-93601175D01*
X154941175Y-93835875D01*
X154756772Y-94111853D01*
X154629754Y-94418504D01*
X154565000Y-94744042D01*
X138998844Y-94744042D01*
X136018688Y-91763887D01*
X136055000Y-91581335D01*
X136055000Y-91298665D01*
X135999853Y-91021426D01*
X135891680Y-90760273D01*
X135734637Y-90525241D01*
X135534759Y-90325363D01*
X135299727Y-90168320D01*
X135038574Y-90060147D01*
X134761335Y-90005000D01*
X134478665Y-90005000D01*
X134201426Y-90060147D01*
X133940273Y-90168320D01*
X133705241Y-90325363D01*
X133505363Y-90525241D01*
X133348320Y-90760273D01*
X133240147Y-91021426D01*
X133185000Y-91298665D01*
X133185000Y-91581335D01*
X133240147Y-91858574D01*
X133348320Y-92119727D01*
X133505363Y-92354759D01*
X133705241Y-92554637D01*
X133940273Y-92711680D01*
X134201426Y-92819853D01*
X134478665Y-92875000D01*
X134761335Y-92875000D01*
X134943887Y-92838688D01*
X142750001Y-100644803D01*
X142750000Y-114897678D01*
X142746324Y-114935000D01*
X142750000Y-114972322D01*
X142750000Y-114972332D01*
X142760997Y-115083985D01*
X142779725Y-115145723D01*
X142804454Y-115227246D01*
X142875026Y-115359276D01*
X142914871Y-115407826D01*
X142969999Y-115475001D01*
X142999003Y-115498804D01*
X152051200Y-124551002D01*
X152074998Y-124580000D01*
X152103996Y-124603798D01*
X152190722Y-124674973D01*
X152322752Y-124745545D01*
X152466013Y-124789002D01*
X152577666Y-124799999D01*
X152577675Y-124799999D01*
X152614998Y-124803675D01*
X152652321Y-124799999D01*
X172467679Y-124799999D01*
X172505001Y-124803675D01*
X172542323Y-124799999D01*
X172542334Y-124799999D01*
X172653987Y-124789002D01*
X172797248Y-124745545D01*
X172929277Y-124674973D01*
X172984698Y-124629490D01*
X173063889Y-124653513D01*
X173282050Y-124675000D01*
X173427950Y-124675000D01*
X173646111Y-124653513D01*
X173926034Y-124568599D01*
X174184014Y-124430706D01*
X174410134Y-124245134D01*
X174595706Y-124019014D01*
X174733599Y-123761034D01*
X174818513Y-123481111D01*
X174847185Y-123190000D01*
X174818513Y-122898889D01*
X174733599Y-122618966D01*
X174595706Y-122360986D01*
X174410134Y-122134866D01*
X174184014Y-121949294D01*
X174129209Y-121920000D01*
X174184014Y-121890706D01*
X174410134Y-121705134D01*
X174595706Y-121479014D01*
X174733599Y-121221034D01*
X174818513Y-120941111D01*
X174847185Y-120650000D01*
X174818513Y-120358889D01*
X174733599Y-120078966D01*
X174595706Y-119820986D01*
X174410134Y-119594866D01*
X174184014Y-119409294D01*
X174129209Y-119380000D01*
X174184014Y-119350706D01*
X174410134Y-119165134D01*
X174595706Y-118939014D01*
X174733599Y-118681034D01*
X174818513Y-118401111D01*
X174847185Y-118110000D01*
X174818513Y-117818889D01*
X174733599Y-117538966D01*
X174595706Y-117280986D01*
X174410134Y-117054866D01*
X174184014Y-116869294D01*
X174129209Y-116840000D01*
X174184014Y-116810706D01*
X174410134Y-116625134D01*
X174595706Y-116399014D01*
X174733599Y-116141034D01*
X174818513Y-115861111D01*
X174847185Y-115570000D01*
X174818513Y-115278889D01*
X174733599Y-114998966D01*
X174595706Y-114740986D01*
X174410134Y-114514866D01*
X174184014Y-114329294D01*
X174129209Y-114300000D01*
X174184014Y-114270706D01*
X174410134Y-114085134D01*
X174595706Y-113859014D01*
X174733599Y-113601034D01*
X174818513Y-113321111D01*
X174847185Y-113030000D01*
X174818513Y-112738889D01*
X174733599Y-112458966D01*
X174595706Y-112200986D01*
X174410134Y-111974866D01*
X174184014Y-111789294D01*
X174129209Y-111760000D01*
X174184014Y-111730706D01*
X174410134Y-111545134D01*
X174595706Y-111319014D01*
X174733599Y-111061034D01*
X174818513Y-110781111D01*
X174847185Y-110490000D01*
X174818513Y-110198889D01*
X174733599Y-109918966D01*
X174595706Y-109660986D01*
X174410134Y-109434866D01*
X174184014Y-109249294D01*
X174129209Y-109220000D01*
X174184014Y-109190706D01*
X174410134Y-109005134D01*
X174595706Y-108779014D01*
X174733599Y-108521034D01*
X174818513Y-108241111D01*
X174847185Y-107950000D01*
X174818513Y-107658889D01*
X174733599Y-107378966D01*
X174595706Y-107120986D01*
X174410134Y-106894866D01*
X174184014Y-106709294D01*
X174129209Y-106680000D01*
X174184014Y-106650706D01*
X174410134Y-106465134D01*
X174595706Y-106239014D01*
X174733599Y-105981034D01*
X174818513Y-105701111D01*
X174847185Y-105410000D01*
X174818513Y-105118889D01*
X174733599Y-104838966D01*
X174595706Y-104580986D01*
X174410134Y-104354866D01*
X174184014Y-104169294D01*
X174129209Y-104140000D01*
X174184014Y-104110706D01*
X174410134Y-103925134D01*
X174595706Y-103699014D01*
X174733599Y-103441034D01*
X174818513Y-103161111D01*
X174847185Y-102870000D01*
X174818513Y-102578889D01*
X174733599Y-102298966D01*
X174595706Y-102040986D01*
X174410134Y-101814866D01*
X174184014Y-101629294D01*
X174129209Y-101600000D01*
X174184014Y-101570706D01*
X174410134Y-101385134D01*
X174595706Y-101159014D01*
X174733599Y-100901034D01*
X174818513Y-100621111D01*
X174847185Y-100330000D01*
X174818513Y-100038889D01*
X174733599Y-99758966D01*
X174595706Y-99500986D01*
X174410134Y-99274866D01*
X174184014Y-99089294D01*
X174129209Y-99060000D01*
X174184014Y-99030706D01*
X174410134Y-98845134D01*
X174595706Y-98619014D01*
X174733599Y-98361034D01*
X174818513Y-98081111D01*
X174847185Y-97790000D01*
X174818513Y-97498889D01*
X174733599Y-97218966D01*
X174595706Y-96960986D01*
X174410134Y-96734866D01*
X174184014Y-96549294D01*
X174129209Y-96520000D01*
X174184014Y-96490706D01*
X174410134Y-96305134D01*
X174595706Y-96079014D01*
X174733599Y-95821034D01*
X174818513Y-95541111D01*
X174847185Y-95250000D01*
X174818513Y-94958889D01*
X174733599Y-94678966D01*
X174595706Y-94420986D01*
X174410134Y-94194866D01*
X174184014Y-94009294D01*
X174129209Y-93980000D01*
X174184014Y-93950706D01*
X174410134Y-93765134D01*
X174595706Y-93539014D01*
X174733599Y-93281034D01*
X174818513Y-93001111D01*
X174847185Y-92710000D01*
X174818513Y-92418889D01*
X174733599Y-92138966D01*
X174595706Y-91880986D01*
X174410134Y-91654866D01*
X174184014Y-91469294D01*
X174129209Y-91440000D01*
X174184014Y-91410706D01*
X174410134Y-91225134D01*
X174595706Y-90999014D01*
X174733599Y-90741034D01*
X174818513Y-90461111D01*
X174847185Y-90170000D01*
X174818513Y-89878889D01*
X174733599Y-89598966D01*
X174595706Y-89340986D01*
X174410134Y-89114866D01*
X174184014Y-88929294D01*
X174129209Y-88900000D01*
X174184014Y-88870706D01*
X174410134Y-88685134D01*
X174595706Y-88459014D01*
X174733599Y-88201034D01*
X174818513Y-87921111D01*
X174847185Y-87630000D01*
X174818513Y-87338889D01*
X174733599Y-87058966D01*
X174595706Y-86800986D01*
X174410134Y-86574866D01*
X174380313Y-86550393D01*
X174449180Y-86529502D01*
X174559494Y-86470537D01*
X174656185Y-86391185D01*
X174735537Y-86294494D01*
X174794502Y-86184180D01*
X174830812Y-86064482D01*
X174843072Y-85940000D01*
X174840000Y-85375750D01*
X174769250Y-85305000D01*
X175676928Y-85305000D01*
X175689188Y-85429482D01*
X175725498Y-85549180D01*
X175784463Y-85659494D01*
X175863815Y-85756185D01*
X175960506Y-85835537D01*
X176070820Y-85894502D01*
X176190518Y-85930812D01*
X176315000Y-85943072D01*
X176879250Y-85940000D01*
X177038000Y-85781250D01*
X177038000Y-84582000D01*
X175838750Y-84582000D01*
X175680000Y-84740750D01*
X175676928Y-85305000D01*
X174769250Y-85305000D01*
X174681250Y-85217000D01*
X173482000Y-85217000D01*
X173482000Y-85237000D01*
X173228000Y-85237000D01*
X173228000Y-85217000D01*
X173208000Y-85217000D01*
X173208000Y-84963000D01*
X173228000Y-84963000D01*
X173228000Y-83763750D01*
X173482000Y-83763750D01*
X173482000Y-84963000D01*
X174681250Y-84963000D01*
X174840000Y-84804250D01*
X174843072Y-84240000D01*
X174830812Y-84115518D01*
X174794502Y-83995820D01*
X174735537Y-83885506D01*
X174656185Y-83788815D01*
X174559494Y-83709463D01*
X174449180Y-83650498D01*
X174329482Y-83614188D01*
X174236192Y-83605000D01*
X175676928Y-83605000D01*
X175680000Y-84169250D01*
X175838750Y-84328000D01*
X177038000Y-84328000D01*
X177038000Y-83128750D01*
X177292000Y-83128750D01*
X177292000Y-84328000D01*
X177312000Y-84328000D01*
X177312000Y-84582000D01*
X177292000Y-84582000D01*
X177292000Y-85781250D01*
X177450750Y-85940000D01*
X178015000Y-85943072D01*
X178139482Y-85930812D01*
X178259180Y-85894502D01*
X178369494Y-85835537D01*
X178466185Y-85756185D01*
X178545537Y-85659494D01*
X178604502Y-85549180D01*
X178625393Y-85480313D01*
X178649866Y-85510134D01*
X178875986Y-85695706D01*
X179133966Y-85833599D01*
X179413889Y-85918513D01*
X179632050Y-85940000D01*
X179777950Y-85940000D01*
X179996111Y-85918513D01*
X180276034Y-85833599D01*
X180534014Y-85695706D01*
X180760134Y-85510134D01*
X180945706Y-85284014D01*
X180975000Y-85229209D01*
X181004294Y-85284014D01*
X181189866Y-85510134D01*
X181415986Y-85695706D01*
X181673966Y-85833599D01*
X181953889Y-85918513D01*
X182172050Y-85940000D01*
X182317950Y-85940000D01*
X182536111Y-85918513D01*
X182816034Y-85833599D01*
X183074014Y-85695706D01*
X183300134Y-85510134D01*
X183485706Y-85284014D01*
X183515000Y-85229209D01*
X183544294Y-85284014D01*
X183729866Y-85510134D01*
X183955986Y-85695706D01*
X184213966Y-85833599D01*
X184493889Y-85918513D01*
X184712050Y-85940000D01*
X184857950Y-85940000D01*
X185076111Y-85918513D01*
X185356034Y-85833599D01*
X185614014Y-85695706D01*
X185840134Y-85510134D01*
X186025706Y-85284014D01*
X186163599Y-85026034D01*
X186248513Y-84746111D01*
X186277185Y-84455000D01*
X186248513Y-84163889D01*
X186163599Y-83883966D01*
X186025706Y-83625986D01*
X185840134Y-83399866D01*
X185614014Y-83214294D01*
X185356034Y-83076401D01*
X185076111Y-82991487D01*
X184857950Y-82970000D01*
X184712050Y-82970000D01*
X184493889Y-82991487D01*
X184213966Y-83076401D01*
X183955986Y-83214294D01*
X183729866Y-83399866D01*
X183544294Y-83625986D01*
X183515000Y-83680791D01*
X183485706Y-83625986D01*
X183300134Y-83399866D01*
X183074014Y-83214294D01*
X182816034Y-83076401D01*
X182536111Y-82991487D01*
X182317950Y-82970000D01*
X182172050Y-82970000D01*
X181953889Y-82991487D01*
X181673966Y-83076401D01*
X181415986Y-83214294D01*
X181189866Y-83399866D01*
X181004294Y-83625986D01*
X180975000Y-83680791D01*
X180945706Y-83625986D01*
X180760134Y-83399866D01*
X180534014Y-83214294D01*
X180276034Y-83076401D01*
X179996111Y-82991487D01*
X179777950Y-82970000D01*
X179632050Y-82970000D01*
X179413889Y-82991487D01*
X179133966Y-83076401D01*
X178875986Y-83214294D01*
X178649866Y-83399866D01*
X178625393Y-83429687D01*
X178604502Y-83360820D01*
X178545537Y-83250506D01*
X178466185Y-83153815D01*
X178369494Y-83074463D01*
X178259180Y-83015498D01*
X178139482Y-82979188D01*
X178015000Y-82966928D01*
X177450750Y-82970000D01*
X177292000Y-83128750D01*
X177038000Y-83128750D01*
X176879250Y-82970000D01*
X176315000Y-82966928D01*
X176190518Y-82979188D01*
X176070820Y-83015498D01*
X175960506Y-83074463D01*
X175863815Y-83153815D01*
X175784463Y-83250506D01*
X175725498Y-83360820D01*
X175689188Y-83480518D01*
X175676928Y-83605000D01*
X174236192Y-83605000D01*
X174205000Y-83601928D01*
X173640750Y-83605000D01*
X173482000Y-83763750D01*
X173228000Y-83763750D01*
X173069250Y-83605000D01*
X172939999Y-83604296D01*
X172939999Y-65729802D01*
X179488504Y-59181298D01*
X179517501Y-59157501D01*
X179566721Y-59097526D01*
X179612474Y-59041777D01*
X179683046Y-58909747D01*
X179692284Y-58879292D01*
X179726503Y-58766486D01*
X179737500Y-58654833D01*
X179737500Y-58654824D01*
X179741176Y-58617501D01*
X179737500Y-58580178D01*
X179737500Y-42027761D01*
X179765610Y-41993509D01*
X179836182Y-41861480D01*
X179864730Y-41767369D01*
X179987562Y-41701714D01*
X180176141Y-41546953D01*
X180181134Y-41563413D01*
X180240099Y-41673727D01*
X180319451Y-41770418D01*
X180416142Y-41849770D01*
X180526456Y-41908735D01*
X180646154Y-41945045D01*
X180770636Y-41957305D01*
X181384886Y-41954233D01*
X181543636Y-41795483D01*
X181543636Y-40146233D01*
X181797636Y-40146233D01*
X181797636Y-41795483D01*
X181956386Y-41954233D01*
X182570636Y-41957305D01*
X182695118Y-41945045D01*
X182814816Y-41908735D01*
X182925130Y-41849770D01*
X183021821Y-41770418D01*
X183101173Y-41673727D01*
X183160138Y-41563413D01*
X183196448Y-41443715D01*
X183208708Y-41319233D01*
X183205636Y-40304983D01*
X183046886Y-40146233D01*
X181797636Y-40146233D01*
X181543636Y-40146233D01*
X181523636Y-40146233D01*
X181523636Y-39892233D01*
X181543636Y-39892233D01*
X181543636Y-38242983D01*
X181797636Y-38242983D01*
X181797636Y-39892233D01*
X183046886Y-39892233D01*
X183205636Y-39733483D01*
X183208708Y-38719233D01*
X183196448Y-38594751D01*
X183160138Y-38475053D01*
X183101173Y-38364739D01*
X183021821Y-38268048D01*
X182925130Y-38188696D01*
X182814816Y-38129731D01*
X182695118Y-38093421D01*
X182570636Y-38081161D01*
X181956386Y-38084233D01*
X181797636Y-38242983D01*
X181543636Y-38242983D01*
X181384886Y-38084233D01*
X180770636Y-38081161D01*
X180646154Y-38093421D01*
X180526456Y-38129731D01*
X180416142Y-38188696D01*
X180319451Y-38268048D01*
X180240099Y-38364739D01*
X180181134Y-38475053D01*
X180176141Y-38491513D01*
X179987563Y-38336752D01*
X179720897Y-38194216D01*
X179431549Y-38106443D01*
X179130636Y-38076806D01*
X178829724Y-38106443D01*
X178540376Y-38194216D01*
X178273710Y-38336752D01*
X178039975Y-38528572D01*
X177860636Y-38747098D01*
X177681297Y-38528572D01*
X177447563Y-38336752D01*
X177180897Y-38194216D01*
X176891549Y-38106443D01*
X176590636Y-38076806D01*
X176289724Y-38106443D01*
X176000376Y-38194216D01*
X175733710Y-38336752D01*
X175499975Y-38528572D01*
X175320636Y-38747098D01*
X175141297Y-38528572D01*
X174907563Y-38336752D01*
X174640897Y-38194216D01*
X174351549Y-38106443D01*
X174050636Y-38076806D01*
X173749724Y-38106443D01*
X173460376Y-38194216D01*
X173193710Y-38336752D01*
X172959975Y-38528572D01*
X172780636Y-38747098D01*
X172601297Y-38528572D01*
X172367563Y-38336752D01*
X172100897Y-38194216D01*
X171811549Y-38106443D01*
X171510636Y-38076806D01*
X171209724Y-38106443D01*
X170920376Y-38194216D01*
X170653710Y-38336752D01*
X170419975Y-38528572D01*
X170240636Y-38747098D01*
X170061297Y-38528572D01*
X169827563Y-38336752D01*
X169560897Y-38194216D01*
X169271549Y-38106443D01*
X168970636Y-38076806D01*
X168669724Y-38106443D01*
X168380376Y-38194216D01*
X168113710Y-38336752D01*
X167879975Y-38528572D01*
X167700636Y-38747098D01*
X167521297Y-38528572D01*
X167287563Y-38336752D01*
X167020897Y-38194216D01*
X166731549Y-38106443D01*
X166430636Y-38076806D01*
X166129724Y-38106443D01*
X165840376Y-38194216D01*
X165573710Y-38336752D01*
X165339975Y-38528572D01*
X165160636Y-38747098D01*
X164981297Y-38528572D01*
X164747563Y-38336752D01*
X164480897Y-38194216D01*
X164191549Y-38106443D01*
X163890636Y-38076806D01*
X163589724Y-38106443D01*
X163300376Y-38194216D01*
X163033710Y-38336752D01*
X162799975Y-38528572D01*
X162620636Y-38747098D01*
X162441297Y-38528572D01*
X162207563Y-38336752D01*
X161940897Y-38194216D01*
X161651549Y-38106443D01*
X161350636Y-38076806D01*
X161049724Y-38106443D01*
X160760376Y-38194216D01*
X160493710Y-38336752D01*
X160259975Y-38528572D01*
X160080636Y-38747098D01*
X159901297Y-38528572D01*
X159667563Y-38336752D01*
X159400897Y-38194216D01*
X159111549Y-38106443D01*
X158810636Y-38076806D01*
X158509724Y-38106443D01*
X158220376Y-38194216D01*
X157953710Y-38336752D01*
X157719975Y-38528572D01*
X157540636Y-38747098D01*
X157361297Y-38528572D01*
X157127563Y-38336752D01*
X156860897Y-38194216D01*
X156571549Y-38106443D01*
X156270636Y-38076806D01*
X155969724Y-38106443D01*
X155680376Y-38194216D01*
X155413710Y-38336752D01*
X155179975Y-38528572D01*
X155000636Y-38747098D01*
X154821297Y-38528572D01*
X154587563Y-38336752D01*
X154320897Y-38194216D01*
X154031549Y-38106443D01*
X153730636Y-38076806D01*
X153429724Y-38106443D01*
X153140376Y-38194216D01*
X152873710Y-38336752D01*
X152639975Y-38528572D01*
X152460636Y-38747098D01*
X152281297Y-38528572D01*
X152047563Y-38336752D01*
X151780897Y-38194216D01*
X151491549Y-38106443D01*
X151190636Y-38076806D01*
X150889724Y-38106443D01*
X150600376Y-38194216D01*
X150333710Y-38336752D01*
X150099975Y-38528572D01*
X149920636Y-38747098D01*
X149741297Y-38528572D01*
X149507563Y-38336752D01*
X149240897Y-38194216D01*
X148951549Y-38106443D01*
X148650636Y-38076806D01*
X148349724Y-38106443D01*
X148060376Y-38194216D01*
X147793710Y-38336752D01*
X147559975Y-38528572D01*
X147380636Y-38747098D01*
X147201297Y-38528572D01*
X146967563Y-38336752D01*
X146700897Y-38194216D01*
X146411549Y-38106443D01*
X146110636Y-38076806D01*
X145809724Y-38106443D01*
X145520376Y-38194216D01*
X145253710Y-38336752D01*
X145019975Y-38528572D01*
X144840636Y-38747098D01*
X144661297Y-38528572D01*
X144427563Y-38336752D01*
X144160897Y-38194216D01*
X143871549Y-38106443D01*
X143570636Y-38076806D01*
X143269724Y-38106443D01*
X142980376Y-38194216D01*
X142713710Y-38336752D01*
X142479975Y-38528572D01*
X142288155Y-38762306D01*
X142145619Y-39028972D01*
X142057846Y-39318320D01*
X142035636Y-39543825D01*
X142035636Y-39994562D01*
X134108998Y-47921201D01*
X134080000Y-47944999D01*
X134056202Y-47973997D01*
X134056201Y-47973998D01*
X133985026Y-48060724D01*
X133914454Y-48192754D01*
X133884180Y-48292558D01*
X133880279Y-48305420D01*
X133870998Y-48336015D01*
X133856324Y-48485000D01*
X133860001Y-48522333D01*
X133860000Y-80059099D01*
X133818899Y-80081068D01*
X133600392Y-80260392D01*
X133421068Y-80478899D01*
X133287818Y-80728192D01*
X133205764Y-80998691D01*
X133178057Y-81280000D01*
X129711943Y-81280000D01*
X129684236Y-80998691D01*
X129602182Y-80728192D01*
X129468932Y-80478899D01*
X129289608Y-80260392D01*
X129071101Y-80081068D01*
X129030000Y-80059099D01*
X129030000Y-42710801D01*
X131242426Y-40498377D01*
X131256276Y-40490974D01*
X131372001Y-40396001D01*
X131395804Y-40366997D01*
X132591013Y-39171789D01*
X132620000Y-39148000D01*
X132643789Y-39119013D01*
X132643799Y-39119003D01*
X132714974Y-39032276D01*
X132785546Y-38900247D01*
X132829003Y-38756986D01*
X132843677Y-38608000D01*
X132829003Y-38459014D01*
X132785546Y-38315754D01*
X132762585Y-38272797D01*
X132762585Y-35660673D01*
X132981090Y-35514672D01*
X133194897Y-35300865D01*
X133362884Y-35049455D01*
X133478596Y-34770103D01*
X133537585Y-34473544D01*
X133537585Y-34171176D01*
X133478596Y-33874617D01*
X133362884Y-33595265D01*
X133194897Y-33343855D01*
X133128458Y-33277416D01*
X133146765Y-33271862D01*
X133257079Y-33212897D01*
X133353770Y-33133545D01*
X133433122Y-33036854D01*
X133492087Y-32926540D01*
X133528397Y-32806842D01*
X133540657Y-32682360D01*
X133537585Y-32068110D01*
X133378835Y-31909360D01*
X132129585Y-31909360D01*
X132129585Y-31929360D01*
X131875585Y-31929360D01*
X131875585Y-31909360D01*
X130626335Y-31909360D01*
X130467585Y-32068110D01*
X130464513Y-32682360D01*
X130476773Y-32806842D01*
X130513083Y-32926540D01*
X130572048Y-33036854D01*
X130651400Y-33133545D01*
X130748091Y-33212897D01*
X130858405Y-33271862D01*
X130876712Y-33277416D01*
X130810273Y-33343855D01*
X130642286Y-33595265D01*
X130526574Y-33874617D01*
X130467585Y-34171176D01*
X130467585Y-34473544D01*
X130526574Y-34770103D01*
X130642286Y-35049455D01*
X130810273Y-35300865D01*
X131024080Y-35514672D01*
X131242586Y-35660673D01*
X131242585Y-38370613D01*
X130399578Y-39213621D01*
X130385724Y-39221026D01*
X130385722Y-39221027D01*
X130385723Y-39221027D01*
X130298996Y-39292201D01*
X130298992Y-39292205D01*
X130269999Y-39315999D01*
X130246205Y-39344992D01*
X127758998Y-41832201D01*
X127730000Y-41855999D01*
X127706202Y-41884997D01*
X127706201Y-41884998D01*
X127635026Y-41971724D01*
X127564454Y-42103754D01*
X127520998Y-42247015D01*
X127506324Y-42396000D01*
X127510001Y-42433333D01*
X127510000Y-80059099D01*
X127468899Y-80081068D01*
X127250392Y-80260392D01*
X127071068Y-80478899D01*
X126937818Y-80728192D01*
X126855764Y-80998691D01*
X126828057Y-81280000D01*
X123361943Y-81280000D01*
X123334236Y-80998691D01*
X123252182Y-80728192D01*
X123118932Y-80478899D01*
X122939608Y-80260392D01*
X122721101Y-80081068D01*
X122680000Y-80059099D01*
X122680000Y-42964801D01*
X125450009Y-40194793D01*
X125463861Y-40187389D01*
X125579586Y-40092416D01*
X125603389Y-40063412D01*
X126798589Y-38868213D01*
X126827586Y-38844416D01*
X126922559Y-38728691D01*
X126993131Y-38596662D01*
X127036588Y-38453401D01*
X127047585Y-38341748D01*
X127047585Y-38341747D01*
X127051262Y-38304415D01*
X127047585Y-38267082D01*
X127047585Y-35660673D01*
X127266090Y-35514672D01*
X127479897Y-35300865D01*
X127647884Y-35049455D01*
X127763596Y-34770103D01*
X127822585Y-34473544D01*
X127822585Y-34171176D01*
X127763596Y-33874617D01*
X127647884Y-33595265D01*
X127479897Y-33343855D01*
X127413458Y-33277416D01*
X127431765Y-33271862D01*
X127542079Y-33212897D01*
X127638770Y-33133545D01*
X127718122Y-33036854D01*
X127777087Y-32926540D01*
X127813397Y-32806842D01*
X127825657Y-32682360D01*
X127822585Y-32068110D01*
X127663835Y-31909360D01*
X126414585Y-31909360D01*
X126414585Y-31929360D01*
X126160585Y-31929360D01*
X126160585Y-31909360D01*
X124911335Y-31909360D01*
X124752585Y-32068110D01*
X124749513Y-32682360D01*
X124761773Y-32806842D01*
X124798083Y-32926540D01*
X124857048Y-33036854D01*
X124936400Y-33133545D01*
X125033091Y-33212897D01*
X125143405Y-33271862D01*
X125161712Y-33277416D01*
X125095273Y-33343855D01*
X124927286Y-33595265D01*
X124811574Y-33874617D01*
X124752585Y-34171176D01*
X124752585Y-34473544D01*
X124811574Y-34770103D01*
X124927286Y-35049455D01*
X125095273Y-35300865D01*
X125309080Y-35514672D01*
X125527586Y-35660673D01*
X125527585Y-37989613D01*
X124607163Y-38910036D01*
X124593309Y-38917441D01*
X124477584Y-39012414D01*
X124453786Y-39041412D01*
X121408998Y-42086201D01*
X121380000Y-42109999D01*
X121356202Y-42138997D01*
X121356201Y-42138998D01*
X121285026Y-42225724D01*
X121214454Y-42357754D01*
X121170998Y-42501015D01*
X121156324Y-42650000D01*
X121160001Y-42687333D01*
X121160000Y-80059099D01*
X121118899Y-80081068D01*
X120900392Y-80260392D01*
X120721068Y-80478899D01*
X120587818Y-80728192D01*
X120505764Y-80998691D01*
X120478057Y-81280000D01*
X117011943Y-81280000D01*
X116984236Y-80998691D01*
X116902182Y-80728192D01*
X116768932Y-80478899D01*
X116589608Y-80260392D01*
X116371101Y-80081068D01*
X116330000Y-80059099D01*
X116330000Y-42710801D01*
X119100009Y-39940793D01*
X119113861Y-39933389D01*
X119229586Y-39838416D01*
X119253389Y-39809412D01*
X120448589Y-38614213D01*
X120477586Y-38590416D01*
X120572559Y-38474691D01*
X120643131Y-38342662D01*
X120686588Y-38199401D01*
X120697585Y-38087748D01*
X120697585Y-38087747D01*
X120701262Y-38050415D01*
X120697585Y-38013082D01*
X120697585Y-35660673D01*
X120916090Y-35514672D01*
X121129897Y-35300865D01*
X121297884Y-35049455D01*
X121413596Y-34770103D01*
X121472585Y-34473544D01*
X121472585Y-34171176D01*
X121413596Y-33874617D01*
X121297884Y-33595265D01*
X121129897Y-33343855D01*
X121063458Y-33277416D01*
X121081765Y-33271862D01*
X121192079Y-33212897D01*
X121288770Y-33133545D01*
X121368122Y-33036854D01*
X121427087Y-32926540D01*
X121463397Y-32806842D01*
X121475657Y-32682360D01*
X121472585Y-32068110D01*
X121313835Y-31909360D01*
X120064585Y-31909360D01*
X120064585Y-31929360D01*
X119810585Y-31929360D01*
X119810585Y-31909360D01*
X118561335Y-31909360D01*
X118402585Y-32068110D01*
X118399513Y-32682360D01*
X118411773Y-32806842D01*
X118448083Y-32926540D01*
X118507048Y-33036854D01*
X118586400Y-33133545D01*
X118683091Y-33212897D01*
X118793405Y-33271862D01*
X118811712Y-33277416D01*
X118745273Y-33343855D01*
X118577286Y-33595265D01*
X118461574Y-33874617D01*
X118402585Y-34171176D01*
X118402585Y-34473544D01*
X118461574Y-34770103D01*
X118577286Y-35049455D01*
X118745273Y-35300865D01*
X118959080Y-35514672D01*
X119177586Y-35660673D01*
X119177585Y-37735613D01*
X118257163Y-38656036D01*
X118243309Y-38663441D01*
X118127584Y-38758414D01*
X118103786Y-38787412D01*
X115058998Y-41832201D01*
X115030000Y-41855999D01*
X115006202Y-41884997D01*
X115006201Y-41884998D01*
X114935026Y-41971724D01*
X114864454Y-42103754D01*
X114820998Y-42247015D01*
X114806324Y-42396000D01*
X114810001Y-42433333D01*
X114810000Y-80059099D01*
X114768899Y-80081068D01*
X114550392Y-80260392D01*
X114371068Y-80478899D01*
X114237818Y-80728192D01*
X114155764Y-80998691D01*
X114128057Y-81280000D01*
X110685000Y-81280000D01*
X110685000Y-72553123D01*
X110810173Y-72678296D01*
X111159854Y-72911945D01*
X111548400Y-73072886D01*
X111960877Y-73154933D01*
X112381435Y-73154933D01*
X112793912Y-73072886D01*
X113182458Y-72911945D01*
X113532139Y-72678296D01*
X113829519Y-72380916D01*
X114063168Y-72031235D01*
X114224109Y-71642689D01*
X114306156Y-71230212D01*
X114306156Y-70809654D01*
X114224109Y-70397177D01*
X114063168Y-70008631D01*
X113829519Y-69658950D01*
X113532139Y-69361570D01*
X113182458Y-69127921D01*
X112793912Y-68966980D01*
X112381435Y-68884933D01*
X111960877Y-68884933D01*
X111548400Y-68966980D01*
X111159854Y-69127921D01*
X110810173Y-69361570D01*
X110685000Y-69486743D01*
X110685000Y-41552943D01*
X110809653Y-41677596D01*
X111159334Y-41911245D01*
X111547880Y-42072186D01*
X111960357Y-42154233D01*
X112380915Y-42154233D01*
X112793392Y-42072186D01*
X113181938Y-41911245D01*
X113531619Y-41677596D01*
X113828999Y-41380216D01*
X114062648Y-41030535D01*
X114223589Y-40641989D01*
X114305636Y-40229512D01*
X114305636Y-39808954D01*
X114223589Y-39396477D01*
X114062648Y-39007931D01*
X113828999Y-38658250D01*
X113531619Y-38360870D01*
X113181938Y-38127221D01*
X113055865Y-38075000D01*
X115033647Y-38075000D01*
X115063645Y-38072045D01*
X115076047Y-38072132D01*
X115085565Y-38071198D01*
X115473758Y-38030397D01*
X115534539Y-38017920D01*
X115595560Y-38006280D01*
X115604716Y-38003516D01*
X115977591Y-37888092D01*
X116034870Y-37864014D01*
X116092388Y-37840775D01*
X116100833Y-37836286D01*
X116444188Y-37650634D01*
X116495635Y-37615932D01*
X116547610Y-37581921D01*
X116555022Y-37575876D01*
X116855777Y-37327069D01*
X116899524Y-37283016D01*
X116943881Y-37239578D01*
X116949978Y-37232208D01*
X117196679Y-36929724D01*
X117231047Y-36877995D01*
X117266111Y-36826785D01*
X117270661Y-36818372D01*
X117453910Y-36473730D01*
X117477555Y-36416364D01*
X117502028Y-36359264D01*
X117504856Y-36350127D01*
X117617674Y-35976456D01*
X117629737Y-35915531D01*
X117642641Y-35854826D01*
X117643641Y-35845314D01*
X117681731Y-35456845D01*
X117681731Y-35456837D01*
X117685000Y-35423647D01*
X117685000Y-30575000D01*
X118481854Y-30575000D01*
X118448083Y-30638180D01*
X118448083Y-30638180D01*
G37*
X118448083Y-30638180D02*
X118411773Y-30757878D01*
X118399513Y-30882360D01*
X118402585Y-31496610D01*
X118561335Y-31655360D01*
X119810585Y-31655360D01*
X119810585Y-31635360D01*
X120064585Y-31635360D01*
X120064585Y-31655360D01*
X121313835Y-31655360D01*
X121472585Y-31496610D01*
X121475657Y-30882360D01*
X121463397Y-30757878D01*
X121427087Y-30638180D01*
X121393316Y-30575000D01*
X124831854Y-30575000D01*
X124798083Y-30638180D01*
X124761773Y-30757878D01*
X124749513Y-30882360D01*
X124752585Y-31496610D01*
X124911335Y-31655360D01*
X126160585Y-31655360D01*
X126160585Y-31635360D01*
X126414585Y-31635360D01*
X126414585Y-31655360D01*
X127663835Y-31655360D01*
X127822585Y-31496610D01*
X127825657Y-30882360D01*
X127813397Y-30757878D01*
X127777087Y-30638180D01*
X127743316Y-30575000D01*
X130546854Y-30575000D01*
X130513083Y-30638180D01*
X130476773Y-30757878D01*
X130464513Y-30882360D01*
X130467585Y-31496610D01*
X130626335Y-31655360D01*
X131875585Y-31655360D01*
X131875585Y-31635360D01*
X132129585Y-31635360D01*
X132129585Y-31655360D01*
X133378835Y-31655360D01*
X133537585Y-31496610D01*
X133540657Y-30882360D01*
X133528397Y-30757878D01*
X133492087Y-30638180D01*
X133458316Y-30575000D01*
X181315000Y-30575000D01*
X181315001Y-35423647D01*
X181317955Y-35453636D01*
X181317868Y-35466047D01*
X181318802Y-35475565D01*
X181359603Y-35863758D01*
X181372080Y-35924539D01*
X181383720Y-35985560D01*
X181386484Y-35994716D01*
X181501908Y-36367591D01*
X181525986Y-36424870D01*
X181549225Y-36482388D01*
X181553714Y-36490833D01*
X181739366Y-36834188D01*
X181774068Y-36885635D01*
X181808079Y-36937610D01*
X181814124Y-36945022D01*
X182062931Y-37245777D01*
X182106984Y-37289524D01*
X182150422Y-37333881D01*
X182157792Y-37339978D01*
X182460276Y-37586679D01*
X182512005Y-37621047D01*
X182563215Y-37656111D01*
X182571628Y-37660661D01*
X182916270Y-37843910D01*
X182973636Y-37867555D01*
X183030736Y-37892028D01*
X183039873Y-37894856D01*
X183413544Y-38007674D01*
X183474469Y-38019737D01*
X183535174Y-38032641D01*
X183544686Y-38033641D01*
X183933155Y-38071731D01*
X183933163Y-38071731D01*
X183966353Y-38075000D01*
X186284507Y-38075000D01*
X186158434Y-38127221D01*
X185808753Y-38360870D01*
X185511373Y-38658250D01*
X185277724Y-39007931D01*
X185116783Y-39396477D01*
X185034736Y-39808954D01*
X185034736Y-40229512D01*
X185116783Y-40641989D01*
X185277724Y-41030535D01*
X185511373Y-41380216D01*
X185808753Y-41677596D01*
X186158434Y-41911245D01*
X186546980Y-42072186D01*
X186959457Y-42154233D01*
X187380015Y-42154233D01*
X187792492Y-42072186D01*
X188181038Y-41911245D01*
X188315001Y-41821734D01*
X188315001Y-41966344D01*
X188315000Y-41966354D01*
X188315000Y-69217432D01*
X188181038Y-69127921D01*
X187792492Y-68966980D01*
X187380015Y-68884933D01*
X186959457Y-68884933D01*
X186546980Y-68966980D01*
X186158434Y-69127921D01*
X185808753Y-69361570D01*
X185511373Y-69658950D01*
X185277724Y-70008631D01*
X185116783Y-70397177D01*
X185034736Y-70809654D01*
X185034736Y-71230212D01*
X185116783Y-71642689D01*
X185277724Y-72031235D01*
X185511373Y-72380916D01*
X185808753Y-72678296D01*
X186158434Y-72911945D01*
X186546980Y-73072886D01*
X186959457Y-73154933D01*
X187380015Y-73154933D01*
X187792492Y-73072886D01*
X188181038Y-72911945D01*
X188315000Y-72822434D01*
X188315001Y-165836487D01*
X188288543Y-166106327D01*
X188219908Y-166333656D01*
X188108428Y-166543320D01*
X187958343Y-166727341D01*
X187775380Y-166878701D01*
X187566493Y-166991646D01*
X187339653Y-167061865D01*
X187071966Y-167090000D01*
X184691503Y-167090000D01*
X184421673Y-167063543D01*
X184194344Y-166994908D01*
X183984680Y-166883428D01*
X183800659Y-166733343D01*
X183649299Y-166550380D01*
X183536354Y-166341493D01*
X183466135Y-166114653D01*
X183438000Y-165846966D01*
X183438000Y-156379553D01*
X183435053Y-156349628D01*
X183435135Y-156337817D01*
X183434201Y-156328299D01*
X183395338Y-155958544D01*
X183382863Y-155897769D01*
X183371221Y-155836742D01*
X183368456Y-155827586D01*
X183258514Y-155472422D01*
X183234454Y-155415184D01*
X183211199Y-155357626D01*
X183206709Y-155349181D01*
X183029877Y-155022136D01*
X182995142Y-154970639D01*
X182961163Y-154918714D01*
X182955118Y-154911302D01*
X182718129Y-154624832D01*
X182674076Y-154581085D01*
X182630638Y-154536728D01*
X182623269Y-154530632D01*
X182335152Y-154295648D01*
X182283416Y-154261275D01*
X182232212Y-154226215D01*
X182223799Y-154221666D01*
X181895527Y-154047121D01*
X181838131Y-154023464D01*
X181781063Y-153999005D01*
X181771926Y-153996176D01*
X181416004Y-153888716D01*
X181355074Y-153876652D01*
X181294371Y-153863749D01*
X181284863Y-153862749D01*
X181284859Y-153862749D01*
X180914844Y-153826469D01*
X180914837Y-153826469D01*
X180881647Y-153823200D01*
X117873153Y-153823200D01*
X117843228Y-153826147D01*
X117831417Y-153826065D01*
X117821899Y-153826999D01*
X117452144Y-153865862D01*
X117391369Y-153878337D01*
X117330342Y-153889979D01*
X117321186Y-153892744D01*
X116966022Y-154002686D01*
X116908784Y-154026746D01*
X116851226Y-154050001D01*
X116849347Y-154051000D01*
X115572512Y-154051000D01*
X116667513Y-152956000D01*
X118762122Y-152956000D01*
X118801910Y-152959919D01*
X118841698Y-152956000D01*
X118841701Y-152956000D01*
X118960698Y-152944280D01*
X119113383Y-152897963D01*
X119254099Y-152822749D01*
X119377438Y-152721528D01*
X119402810Y-152690612D01*
X125868423Y-146225000D01*
X128057837Y-146225000D01*
X128068992Y-146338254D01*
X128119528Y-146504850D01*
X128201595Y-146658386D01*
X128312038Y-146792962D01*
X128446614Y-146903405D01*
X128600150Y-146985472D01*
X128766746Y-147036008D01*
X128940000Y-147053072D01*
X130140000Y-147053072D01*
X130313254Y-147036008D01*
X130479850Y-146985472D01*
X130633386Y-146903405D01*
X130767962Y-146792962D01*
X130878405Y-146658386D01*
X130932777Y-146556663D01*
X130984866Y-146620134D01*
X131210987Y-146805706D01*
X131468967Y-146943599D01*
X131748890Y-147028513D01*
X132040000Y-147057185D01*
X132331111Y-147028513D01*
X132611034Y-146943599D01*
X132869014Y-146805706D01*
X133095134Y-146620134D01*
X133280706Y-146394014D01*
X133418599Y-146136033D01*
X133503513Y-145856110D01*
X133525000Y-145637949D01*
X133525000Y-145192050D01*
X133503513Y-144973889D01*
X133418599Y-144693966D01*
X133280706Y-144435986D01*
X133095134Y-144209866D01*
X132869013Y-144024294D01*
X132611033Y-143886401D01*
X132331110Y-143801487D01*
X132040000Y-143772815D01*
X131748889Y-143801487D01*
X131468966Y-143886401D01*
X131210986Y-144024294D01*
X130984866Y-144209866D01*
X130932777Y-144273337D01*
X130878405Y-144171614D01*
X130767962Y-144037038D01*
X130633386Y-143926595D01*
X130479850Y-143844528D01*
X130350000Y-143805139D01*
X130350000Y-141644788D01*
X130353919Y-141605000D01*
X130350000Y-141565209D01*
X130338280Y-141446212D01*
X130291963Y-141293527D01*
X130291963Y-141293526D01*
X130216749Y-141152811D01*
X130140893Y-141060380D01*
X130115528Y-141029472D01*
X130084618Y-141004105D01*
X127351553Y-138271040D01*
X129164091Y-138271040D01*
X129258930Y-138535881D01*
X129403615Y-138777131D01*
X129592586Y-138985519D01*
X129818580Y-139153037D01*
X130072913Y-139273246D01*
X130206961Y-139313904D01*
X130429000Y-139191915D01*
X130429000Y-138049000D01*
X130683000Y-138049000D01*
X130683000Y-139191915D01*
X130905039Y-139313904D01*
X131039087Y-139273246D01*
X131293420Y-139153037D01*
X131519414Y-138985519D01*
X131708385Y-138777131D01*
X131853070Y-138535881D01*
X131947909Y-138271040D01*
X131826624Y-138049000D01*
X130683000Y-138049000D01*
X130429000Y-138049000D01*
X129285376Y-138049000D01*
X129164091Y-138271040D01*
X127351553Y-138271040D01*
X127140420Y-138059907D01*
X127165000Y-137936335D01*
X127165000Y-137653665D01*
X127148947Y-137572960D01*
X129164091Y-137572960D01*
X129285376Y-137795000D01*
X130429000Y-137795000D01*
X130429000Y-136652085D01*
X130683000Y-136652085D01*
X130683000Y-137795000D01*
X131826624Y-137795000D01*
X131947909Y-137572960D01*
X131853070Y-137308119D01*
X131708385Y-137066869D01*
X131519414Y-136858481D01*
X131293420Y-136690963D01*
X131039087Y-136570754D01*
X130905039Y-136530096D01*
X130683000Y-136652085D01*
X130429000Y-136652085D01*
X130206961Y-136530096D01*
X130072913Y-136570754D01*
X129818580Y-136690963D01*
X129592586Y-136858481D01*
X129403615Y-137066869D01*
X129258930Y-137308119D01*
X129164091Y-137572960D01*
X127148947Y-137572960D01*
X127109853Y-137376426D01*
X127001680Y-137115273D01*
X126844637Y-136880241D01*
X126644759Y-136680363D01*
X126409727Y-136523320D01*
X126148574Y-136415147D01*
X125871335Y-136360000D01*
X125588665Y-136360000D01*
X125311426Y-136415147D01*
X125050273Y-136523320D01*
X124815241Y-136680363D01*
X124615363Y-136880241D01*
X124458320Y-137115273D01*
X124350147Y-137376426D01*
X124295000Y-137653665D01*
X124295000Y-137936335D01*
X124350147Y-138213574D01*
X124458320Y-138474727D01*
X124615363Y-138709759D01*
X124815241Y-138909637D01*
X125050273Y-139066680D01*
X125311426Y-139174853D01*
X125588665Y-139230000D01*
X125871335Y-139230000D01*
X125994907Y-139205420D01*
X128730001Y-141940514D01*
X128730000Y-143805139D01*
X128600150Y-143844528D01*
X128446614Y-143926595D01*
X128312038Y-144037038D01*
X128201595Y-144171614D01*
X128119528Y-144325150D01*
X128068992Y-144491746D01*
X128057837Y-144605000D01*
X125572697Y-144605000D01*
X125532909Y-144601081D01*
X125493121Y-144605000D01*
X125493119Y-144605000D01*
X125374122Y-144616720D01*
X125221437Y-144663037D01*
X125080721Y-144738251D01*
X124957382Y-144839472D01*
X124932015Y-144870382D01*
X118466398Y-151336000D01*
X116371788Y-151336000D01*
X116332000Y-151332081D01*
X116292212Y-151336000D01*
X116292209Y-151336000D01*
X116173212Y-151347720D01*
X116056063Y-151383257D01*
X116020526Y-151394037D01*
X115879811Y-151469251D01*
X115756472Y-151570472D01*
X115731107Y-151601380D01*
X113425359Y-153907129D01*
X113236102Y-153944774D01*
X113047744Y-154022795D01*
X113005532Y-154051000D01*
X110685000Y-154051000D01*
X110685000Y-143792000D01*
X112927928Y-143792000D01*
X112927928Y-147292000D01*
X112940188Y-147416482D01*
X112976498Y-147536180D01*
X113035463Y-147646494D01*
X113114815Y-147743185D01*
X113211506Y-147822537D01*
X113321820Y-147881502D01*
X113441518Y-147917812D01*
X113566000Y-147930072D01*
X117066000Y-147930072D01*
X117190482Y-147917812D01*
X117310180Y-147881502D01*
X117420494Y-147822537D01*
X117517185Y-147743185D01*
X117596537Y-147646494D01*
X117655502Y-147536180D01*
X117691812Y-147416482D01*
X117704072Y-147292000D01*
X117704072Y-143792000D01*
X117691812Y-143667518D01*
X117655502Y-143547820D01*
X117596537Y-143437506D01*
X117517185Y-143340815D01*
X117420494Y-143261463D01*
X117310180Y-143202498D01*
X117190482Y-143166188D01*
X117066000Y-143153928D01*
X113566000Y-143153928D01*
X113441518Y-143166188D01*
X113321820Y-143202498D01*
X113211506Y-143261463D01*
X113114815Y-143340815D01*
X113035463Y-143437506D01*
X112976498Y-143547820D01*
X112940188Y-143667518D01*
X112927928Y-143792000D01*
X110685000Y-143792000D01*
X110685000Y-131572000D01*
X112919461Y-131572000D01*
X112965510Y-132039542D01*
X113101887Y-132489116D01*
X113323351Y-132903446D01*
X113621391Y-133266609D01*
X113984554Y-133564649D01*
X114398884Y-133786113D01*
X114848458Y-133922490D01*
X115198843Y-133957000D01*
X115433157Y-133957000D01*
X115783542Y-133922490D01*
X116233116Y-133786113D01*
X116647446Y-133564649D01*
X117010609Y-133266609D01*
X117308649Y-132903446D01*
X117530113Y-132489116D01*
X117666490Y-132039542D01*
X117712539Y-131572000D01*
X117666490Y-131104458D01*
X117530113Y-130654884D01*
X117308649Y-130240554D01*
X117010609Y-129877391D01*
X116647446Y-129579351D01*
X116233116Y-129357887D01*
X115783542Y-129221510D01*
X115433157Y-129187000D01*
X115198843Y-129187000D01*
X114848458Y-129221510D01*
X114398884Y-129357887D01*
X113984554Y-129579351D01*
X113621391Y-129877391D01*
X113323351Y-130240554D01*
X113101887Y-130654884D01*
X112965510Y-131104458D01*
X112919461Y-131572000D01*
X110685000Y-131572000D01*
X110685000Y-123317000D01*
X118110000Y-123317000D01*
X118134776Y-123314560D01*
X118158601Y-123307333D01*
X118180557Y-123295597D01*
X118199803Y-123279803D01*
X118215597Y-123260557D01*
X118227333Y-123238601D01*
X118234560Y-123214776D01*
X118237000Y-123190000D01*
X118237000Y-122905195D01*
X118255518Y-122910812D01*
X118380000Y-122923072D01*
X120380000Y-122923072D01*
X120504482Y-122910812D01*
X120624180Y-122874502D01*
X120734494Y-122815537D01*
X120831185Y-122736185D01*
X120910537Y-122639494D01*
X120957559Y-122551523D01*
X121118900Y-122683932D01*
X121368193Y-122817182D01*
X121638692Y-122899236D01*
X121920000Y-122926943D01*
X122201309Y-122899236D01*
X122245907Y-122885708D01*
X125569103Y-126208904D01*
X125448691Y-126220764D01*
X125178192Y-126302818D01*
X124928899Y-126436068D01*
X124710392Y-126615392D01*
X124531068Y-126833899D01*
X124397818Y-127083192D01*
X124315764Y-127353691D01*
X124288057Y-127635000D01*
X124315764Y-127916309D01*
X124397818Y-128186808D01*
X124531068Y-128436101D01*
X124710392Y-128654608D01*
X124928899Y-128833932D01*
X125178192Y-128967182D01*
X125448691Y-129049236D01*
X125659508Y-129070000D01*
X125800492Y-129070000D01*
X126011309Y-129049236D01*
X126281808Y-128967182D01*
X126531101Y-128833932D01*
X126749608Y-128654608D01*
X126928932Y-128436101D01*
X127062182Y-128186808D01*
X127144236Y-127916309D01*
X127156096Y-127795897D01*
X145831932Y-146471734D01*
X145764815Y-146526815D01*
X145685463Y-146623506D01*
X145626498Y-146733820D01*
X145590188Y-146853518D01*
X145577928Y-146978000D01*
X145577928Y-148678000D01*
X145590188Y-148802482D01*
X145626498Y-148922180D01*
X145685463Y-149032494D01*
X145764815Y-149129185D01*
X145861506Y-149208537D01*
X145971820Y-149267502D01*
X146091518Y-149303812D01*
X146216000Y-149316072D01*
X147916000Y-149316072D01*
X148040482Y-149303812D01*
X148160180Y-149267502D01*
X148270494Y-149208537D01*
X148367185Y-149129185D01*
X148446537Y-149032494D01*
X148505502Y-148922180D01*
X148529966Y-148841534D01*
X148605731Y-148925588D01*
X148839080Y-149099641D01*
X149101901Y-149224825D01*
X149249110Y-149269476D01*
X149479000Y-149148155D01*
X149479000Y-147955000D01*
X149459000Y-147955000D01*
X149459000Y-147701000D01*
X149479000Y-147701000D01*
X149479000Y-147681000D01*
X149733000Y-147681000D01*
X149733000Y-147701000D01*
X149753000Y-147701000D01*
X149753000Y-147955000D01*
X149733000Y-147955000D01*
X149733000Y-149148155D01*
X149962890Y-149269476D01*
X150110099Y-149224825D01*
X150372920Y-149099641D01*
X150606269Y-148925588D01*
X150801178Y-148709355D01*
X150870799Y-148592477D01*
X150905294Y-148657014D01*
X151090866Y-148883134D01*
X151316986Y-149068706D01*
X151574966Y-149206599D01*
X151854889Y-149291513D01*
X152073050Y-149313000D01*
X152218950Y-149313000D01*
X152437111Y-149291513D01*
X152717034Y-149206599D01*
X152975014Y-149068706D01*
X153201134Y-148883134D01*
X153386706Y-148657014D01*
X153524599Y-148399034D01*
X153609513Y-148119111D01*
X153638185Y-147828000D01*
X153609513Y-147536889D01*
X153524599Y-147256966D01*
X153386706Y-146998986D01*
X153201134Y-146772866D01*
X152975014Y-146587294D01*
X152717034Y-146449401D01*
X152437111Y-146364487D01*
X152218950Y-146343000D01*
X152073050Y-146343000D01*
X151854889Y-146364487D01*
X151834258Y-146370745D01*
X143050000Y-137586488D01*
X143050000Y-128666700D01*
X143157205Y-128506256D01*
X143235226Y-128317898D01*
X143275000Y-128117939D01*
X143275000Y-127914061D01*
X143235226Y-127714102D01*
X143157205Y-127525744D01*
X143050000Y-127365300D01*
X143050000Y-125254787D01*
X143053919Y-125214999D01*
X143050000Y-125175209D01*
X143038280Y-125056212D01*
X142991963Y-124903527D01*
X142938591Y-124803675D01*
X142916749Y-124762810D01*
X142871119Y-124707210D01*
X142815528Y-124639472D01*
X142784619Y-124614106D01*
X138910900Y-120740388D01*
X138885528Y-120709472D01*
X138762189Y-120608251D01*
X138621473Y-120533037D01*
X138468788Y-120486720D01*
X138467262Y-120486570D01*
X138358932Y-120283899D01*
X138179607Y-120065392D01*
X137961100Y-119886068D01*
X137711807Y-119752818D01*
X137441308Y-119670764D01*
X137160000Y-119643057D01*
X136878691Y-119670764D01*
X136608192Y-119752818D01*
X136358899Y-119886068D01*
X136140392Y-120065393D01*
X135961068Y-120283900D01*
X135890000Y-120416858D01*
X135818932Y-120283899D01*
X135639607Y-120065392D01*
X135421100Y-119886068D01*
X135358941Y-119852843D01*
X135325546Y-119742753D01*
X135272257Y-119643057D01*
X135254974Y-119610723D01*
X135183799Y-119523997D01*
X135160001Y-119494999D01*
X135131003Y-119471201D01*
X133965010Y-118305209D01*
X133965010Y-99905986D01*
X134213270Y-100006444D01*
X134270961Y-100016904D01*
X134493000Y-99894915D01*
X134493000Y-98552000D01*
X134473000Y-98552000D01*
X134473000Y-98298000D01*
X134493000Y-98298000D01*
X134493000Y-96955085D01*
X134747000Y-96955085D01*
X134747000Y-98298000D01*
X134767000Y-98298000D01*
X134767000Y-98552000D01*
X134747000Y-98552000D01*
X134747000Y-99894915D01*
X134969039Y-100016904D01*
X135026730Y-100006444D01*
X135288421Y-99900551D01*
X135524425Y-99745639D01*
X135725673Y-99547662D01*
X135884430Y-99314227D01*
X135891878Y-99296655D01*
X135961068Y-99426101D01*
X136140393Y-99644608D01*
X136358900Y-99823932D01*
X136608193Y-99957182D01*
X136878692Y-100039236D01*
X137160000Y-100066943D01*
X137441309Y-100039236D01*
X137711808Y-99957182D01*
X137961101Y-99823932D01*
X138179608Y-99644608D01*
X138358932Y-99426101D01*
X138492182Y-99176807D01*
X138574236Y-98906308D01*
X138595000Y-98695491D01*
X138595000Y-98154508D01*
X138574236Y-97943691D01*
X138492182Y-97673192D01*
X138358932Y-97423899D01*
X138179607Y-97205392D01*
X137961100Y-97026068D01*
X137711807Y-96892818D01*
X137441308Y-96810764D01*
X137160000Y-96783057D01*
X136878691Y-96810764D01*
X136608192Y-96892818D01*
X136358899Y-97026068D01*
X136140392Y-97205393D01*
X135961068Y-97423900D01*
X135891878Y-97553345D01*
X135884430Y-97535773D01*
X135725673Y-97302338D01*
X135524425Y-97104361D01*
X135288421Y-96949449D01*
X135026730Y-96843556D01*
X134969039Y-96833096D01*
X134747000Y-96955085D01*
X134493000Y-96955085D01*
X134270961Y-96833096D01*
X134213270Y-96843556D01*
X133965010Y-96944014D01*
X133965010Y-94110921D01*
X133968686Y-94073598D01*
X133965010Y-94036275D01*
X133965010Y-94036265D01*
X133954013Y-93924612D01*
X133910556Y-93781351D01*
X133901816Y-93765000D01*
X133839984Y-93649321D01*
X133768809Y-93562595D01*
X133745011Y-93533597D01*
X133716013Y-93509799D01*
X129560205Y-89353992D01*
X129536402Y-89324988D01*
X129420677Y-89230015D01*
X129288648Y-89159443D01*
X129145387Y-89115986D01*
X129033734Y-89104989D01*
X129033723Y-89104989D01*
X128996401Y-89101313D01*
X128959079Y-89104989D01*
X117182333Y-89104989D01*
X117145010Y-89101313D01*
X117107687Y-89104989D01*
X117107678Y-89104989D01*
X116996025Y-89115986D01*
X116852764Y-89159443D01*
X116720735Y-89230015D01*
X116720733Y-89230016D01*
X116720734Y-89230016D01*
X116634007Y-89301190D01*
X116634003Y-89301194D01*
X116605010Y-89324988D01*
X116581216Y-89353981D01*
X115893887Y-90041312D01*
X115711335Y-90005000D01*
X115428665Y-90005000D01*
X115151426Y-90060147D01*
X114890273Y-90168320D01*
X114655241Y-90325363D01*
X114455363Y-90525241D01*
X114298320Y-90760273D01*
X114190147Y-91021426D01*
X114135000Y-91298665D01*
X114135000Y-91581335D01*
X114190147Y-91858574D01*
X114298320Y-92119727D01*
X114455363Y-92354759D01*
X114655241Y-92554637D01*
X114890273Y-92711680D01*
X115151426Y-92819853D01*
X115428665Y-92875000D01*
X115711335Y-92875000D01*
X115988574Y-92819853D01*
X116249727Y-92711680D01*
X116484759Y-92554637D01*
X116684637Y-92354759D01*
X116841680Y-92119727D01*
X116949853Y-91858574D01*
X117005000Y-91581335D01*
X117005000Y-91298665D01*
X116968688Y-91116113D01*
X117459813Y-90624989D01*
X120738714Y-90624989D01*
X120648320Y-90760273D01*
X120540147Y-91021426D01*
X120485000Y-91298665D01*
X120485000Y-91581335D01*
X120540147Y-91858574D01*
X120648320Y-92119727D01*
X120805363Y-92354759D01*
X121005241Y-92554637D01*
X121240273Y-92711680D01*
X121501426Y-92819853D01*
X121778665Y-92875000D01*
X122061335Y-92875000D01*
X122338574Y-92819853D01*
X122599727Y-92711680D01*
X122834759Y-92554637D01*
X123034637Y-92354759D01*
X123191680Y-92119727D01*
X123299853Y-91858574D01*
X123355000Y-91581335D01*
X123355000Y-91298665D01*
X123318688Y-91116113D01*
X123359802Y-91074999D01*
X126879491Y-91074999D01*
X126835000Y-91298665D01*
X126835000Y-91581335D01*
X126890147Y-91858574D01*
X126998320Y-92119727D01*
X127155363Y-92354759D01*
X127355241Y-92554637D01*
X127510001Y-92658044D01*
X127510001Y-96880136D01*
X127281308Y-96810764D01*
X127000000Y-96783057D01*
X126718691Y-96810764D01*
X126448192Y-96892818D01*
X126198899Y-97026068D01*
X125980392Y-97205393D01*
X125801068Y-97423900D01*
X125730000Y-97556858D01*
X125658932Y-97423899D01*
X125479607Y-97205392D01*
X125261100Y-97026068D01*
X125011807Y-96892818D01*
X124741308Y-96810764D01*
X124460000Y-96783057D01*
X124178691Y-96810764D01*
X123908192Y-96892818D01*
X123658899Y-97026068D01*
X123440392Y-97205393D01*
X123261068Y-97423900D01*
X123190000Y-97556858D01*
X123118932Y-97423899D01*
X122939607Y-97205392D01*
X122721100Y-97026068D01*
X122471807Y-96892818D01*
X122201308Y-96810764D01*
X121920000Y-96783057D01*
X121638691Y-96810764D01*
X121368192Y-96892818D01*
X121118899Y-97026068D01*
X120900392Y-97205393D01*
X120721068Y-97423900D01*
X120650000Y-97556858D01*
X120578932Y-97423899D01*
X120399607Y-97205392D01*
X120181100Y-97026068D01*
X119931807Y-96892818D01*
X119661308Y-96810764D01*
X119380000Y-96783057D01*
X119098691Y-96810764D01*
X118828192Y-96892818D01*
X118578899Y-97026068D01*
X118360392Y-97205393D01*
X118237000Y-97355747D01*
X118237000Y-96520000D01*
X118234560Y-96495224D01*
X118227333Y-96471399D01*
X118215597Y-96449443D01*
X118199803Y-96430197D01*
X118180557Y-96414403D01*
X118158601Y-96402667D01*
X118134776Y-96395440D01*
X118110000Y-96393000D01*
X110685000Y-96393000D01*
X110685000Y-81280000D01*
X114128057Y-81280000D01*
X114155764Y-81561309D01*
X114237818Y-81831808D01*
X114371068Y-82081101D01*
X114550392Y-82299608D01*
X114768899Y-82478932D01*
X115018192Y-82612182D01*
X115288691Y-82694236D01*
X115499508Y-82715000D01*
X115640492Y-82715000D01*
X115851309Y-82694236D01*
X116121808Y-82612182D01*
X116371101Y-82478932D01*
X116589608Y-82299608D01*
X116768932Y-82081101D01*
X116902182Y-81831808D01*
X116984236Y-81561309D01*
X117011943Y-81280000D01*
X120478057Y-81280000D01*
X120505764Y-81561309D01*
X120587818Y-81831808D01*
X120721068Y-82081101D01*
X120900392Y-82299608D01*
X121118899Y-82478932D01*
X121368192Y-82612182D01*
X121638691Y-82694236D01*
X121849508Y-82715000D01*
X121990492Y-82715000D01*
X122201309Y-82694236D01*
X122471808Y-82612182D01*
X122721101Y-82478932D01*
X122939608Y-82299608D01*
X123118932Y-82081101D01*
X123252182Y-81831808D01*
X123334236Y-81561309D01*
X123361943Y-81280000D01*
X126828057Y-81280000D01*
X126855764Y-81561309D01*
X126937818Y-81831808D01*
X127071068Y-82081101D01*
X127250392Y-82299608D01*
X127468899Y-82478932D01*
X127718192Y-82612182D01*
X127988691Y-82694236D01*
X128199508Y-82715000D01*
X128340492Y-82715000D01*
X128551309Y-82694236D01*
X128821808Y-82612182D01*
X129071101Y-82478932D01*
X129289608Y-82299608D01*
X129468932Y-82081101D01*
X129602182Y-81831808D01*
X129684236Y-81561309D01*
X129711943Y-81280000D01*
X133178057Y-81280000D01*
X133205764Y-81561309D01*
X133287818Y-81831808D01*
X133421068Y-82081101D01*
X133600392Y-82299608D01*
X133818899Y-82478932D01*
X134068192Y-82612182D01*
X134338691Y-82694236D01*
X134549508Y-82715000D01*
X134690492Y-82715000D01*
X134901309Y-82694236D01*
X135171808Y-82612182D01*
X135421101Y-82478932D01*
X135639608Y-82299608D01*
X135818932Y-82081101D01*
X135952182Y-81831808D01*
X136034236Y-81561309D01*
X136061943Y-81280000D01*
X136034236Y-80998691D01*
X135952182Y-80728192D01*
X135818932Y-80478899D01*
X135639608Y-80260392D01*
X135421101Y-80081068D01*
X135380000Y-80059099D01*
X135380000Y-48799801D01*
X142584295Y-41595507D01*
X142713709Y-41701714D01*
X142980375Y-41844250D01*
X143269723Y-41932023D01*
X143570636Y-41961660D01*
X143871548Y-41932023D01*
X144160896Y-41844250D01*
X144427562Y-41701714D01*
X144661297Y-41509894D01*
X144840636Y-41291368D01*
X145019975Y-41509894D01*
X145253709Y-41701714D01*
X145350636Y-41753523D01*
X145350636Y-43321003D01*
X145346960Y-43358326D01*
X145350636Y-43395648D01*
X145350636Y-43395658D01*
X145361633Y-43507311D01*
X145405090Y-43650572D01*
X145475662Y-43782602D01*
X145515507Y-43831152D01*
X145570635Y-43898327D01*
X145599639Y-43922130D01*
X165344981Y-63667474D01*
X165344980Y-113362658D01*
X165341304Y-113399980D01*
X165344980Y-113437302D01*
X165344980Y-113437312D01*
X165355977Y-113548965D01*
X165399434Y-113692226D01*
X165470006Y-113824256D01*
X165509851Y-113872806D01*
X165564979Y-113939981D01*
X165593983Y-113963784D01*
X171914203Y-120284005D01*
X171891487Y-120358889D01*
X171862815Y-120650000D01*
X171891487Y-120941111D01*
X171976401Y-121221034D01*
X172114294Y-121479014D01*
X172299866Y-121705134D01*
X172525986Y-121890706D01*
X172580791Y-121920000D01*
X172525986Y-121949294D01*
X172299866Y-122134866D01*
X172114294Y-122360986D01*
X171976401Y-122618966D01*
X171891487Y-122898889D01*
X171862815Y-123190000D01*
X171871679Y-123279999D01*
X152929801Y-123279999D01*
X144270000Y-114620199D01*
X144270000Y-100367333D01*
X144273677Y-100330000D01*
X144259003Y-100181014D01*
X144215546Y-100037753D01*
X144144974Y-99905724D01*
X144073799Y-99818997D01*
X144050001Y-99789999D01*
X144021003Y-99766201D01*
X141748844Y-97494042D01*
X152065000Y-97494042D01*
X152065000Y-97825958D01*
X152129754Y-98151496D01*
X152256772Y-98458147D01*
X152441175Y-98734125D01*
X152675875Y-98968825D01*
X152951853Y-99153228D01*
X153258504Y-99280246D01*
X153584042Y-99345000D01*
X153915958Y-99345000D01*
X154241496Y-99280246D01*
X154548147Y-99153228D01*
X154824125Y-98968825D01*
X154909157Y-98883793D01*
X154756772Y-99111853D01*
X154629754Y-99418504D01*
X154565000Y-99744042D01*
X154565000Y-100075958D01*
X154629754Y-100401496D01*
X154756772Y-100708147D01*
X154941175Y-100984125D01*
X155175875Y-101218825D01*
X155451853Y-101403228D01*
X155758504Y-101530246D01*
X156084042Y-101595000D01*
X156415958Y-101595000D01*
X156741496Y-101530246D01*
X157048147Y-101403228D01*
X157324125Y-101218825D01*
X157558825Y-100984125D01*
X157743228Y-100708147D01*
X157870246Y-100401496D01*
X157935000Y-100075958D01*
X157935000Y-99744042D01*
X157870246Y-99418504D01*
X157743228Y-99111853D01*
X157558825Y-98835875D01*
X157324125Y-98601175D01*
X157048147Y-98416772D01*
X156741496Y-98289754D01*
X156415958Y-98225000D01*
X156084042Y-98225000D01*
X155758504Y-98289754D01*
X155451853Y-98416772D01*
X155175875Y-98601175D01*
X155090843Y-98686207D01*
X155243228Y-98458147D01*
X155370246Y-98151496D01*
X155435000Y-97825958D01*
X155435000Y-97494042D01*
X155370246Y-97168504D01*
X155243228Y-96861853D01*
X155058825Y-96585875D01*
X154824125Y-96351175D01*
X154548147Y-96166772D01*
X154241496Y-96039754D01*
X153915958Y-95975000D01*
X153584042Y-95975000D01*
X153258504Y-96039754D01*
X152951853Y-96166772D01*
X152675875Y-96351175D01*
X152441175Y-96585875D01*
X152256772Y-96861853D01*
X152129754Y-97168504D01*
X152065000Y-97494042D01*
X141748844Y-97494042D01*
X138998844Y-94744042D01*
X154565000Y-94744042D01*
X154565000Y-95075958D01*
X154629754Y-95401496D01*
X154756772Y-95708147D01*
X154941175Y-95984125D01*
X155175875Y-96218825D01*
X155451853Y-96403228D01*
X155758504Y-96530246D01*
X156084042Y-96595000D01*
X156415958Y-96595000D01*
X156741496Y-96530246D01*
X157048147Y-96403228D01*
X157324125Y-96218825D01*
X157558825Y-95984125D01*
X157743228Y-95708147D01*
X157870246Y-95401496D01*
X157935000Y-95075958D01*
X157935000Y-94744042D01*
X157870246Y-94418504D01*
X157743228Y-94111853D01*
X157558825Y-93835875D01*
X157324125Y-93601175D01*
X157048147Y-93416772D01*
X156741496Y-93289754D01*
X156415958Y-93225000D01*
X156084042Y-93225000D01*
X155758504Y-93289754D01*
X155451853Y-93416772D01*
X155175875Y-93601175D01*
X154941175Y-93835875D01*
X154756772Y-94111853D01*
X154629754Y-94418504D01*
X154565000Y-94744042D01*
X138998844Y-94744042D01*
X136018688Y-91763887D01*
X136055000Y-91581335D01*
X136055000Y-91298665D01*
X135999853Y-91021426D01*
X135891680Y-90760273D01*
X135734637Y-90525241D01*
X135534759Y-90325363D01*
X135299727Y-90168320D01*
X135038574Y-90060147D01*
X134761335Y-90005000D01*
X134478665Y-90005000D01*
X134201426Y-90060147D01*
X133940273Y-90168320D01*
X133705241Y-90325363D01*
X133505363Y-90525241D01*
X133348320Y-90760273D01*
X133240147Y-91021426D01*
X133185000Y-91298665D01*
X133185000Y-91581335D01*
X133240147Y-91858574D01*
X133348320Y-92119727D01*
X133505363Y-92354759D01*
X133705241Y-92554637D01*
X133940273Y-92711680D01*
X134201426Y-92819853D01*
X134478665Y-92875000D01*
X134761335Y-92875000D01*
X134943887Y-92838688D01*
X142750001Y-100644803D01*
X142750000Y-114897678D01*
X142746324Y-114935000D01*
X142750000Y-114972322D01*
X142750000Y-114972332D01*
X142760997Y-115083985D01*
X142779725Y-115145723D01*
X142804454Y-115227246D01*
X142875026Y-115359276D01*
X142914871Y-115407826D01*
X142969999Y-115475001D01*
X142999003Y-115498804D01*
X152051200Y-124551002D01*
X152074998Y-124580000D01*
X152103996Y-124603798D01*
X152190722Y-124674973D01*
X152322752Y-124745545D01*
X152466013Y-124789002D01*
X152577666Y-124799999D01*
X152577675Y-124799999D01*
X152614998Y-124803675D01*
X152652321Y-124799999D01*
X172467679Y-124799999D01*
X172505001Y-124803675D01*
X172542323Y-124799999D01*
X172542334Y-124799999D01*
X172653987Y-124789002D01*
X172797248Y-124745545D01*
X172929277Y-124674973D01*
X172984698Y-124629490D01*
X173063889Y-124653513D01*
X173282050Y-124675000D01*
X173427950Y-124675000D01*
X173646111Y-124653513D01*
X173926034Y-124568599D01*
X174184014Y-124430706D01*
X174410134Y-124245134D01*
X174595706Y-124019014D01*
X174733599Y-123761034D01*
X174818513Y-123481111D01*
X174847185Y-123190000D01*
X174818513Y-122898889D01*
X174733599Y-122618966D01*
X174595706Y-122360986D01*
X174410134Y-122134866D01*
X174184014Y-121949294D01*
X174129209Y-121920000D01*
X174184014Y-121890706D01*
X174410134Y-121705134D01*
X174595706Y-121479014D01*
X174733599Y-121221034D01*
X174818513Y-120941111D01*
X174847185Y-120650000D01*
X174818513Y-120358889D01*
X174733599Y-120078966D01*
X174595706Y-119820986D01*
X174410134Y-119594866D01*
X174184014Y-119409294D01*
X174129209Y-119380000D01*
X174184014Y-119350706D01*
X174410134Y-119165134D01*
X174595706Y-118939014D01*
X174733599Y-118681034D01*
X174818513Y-118401111D01*
X174847185Y-118110000D01*
X174818513Y-117818889D01*
X174733599Y-117538966D01*
X174595706Y-117280986D01*
X174410134Y-117054866D01*
X174184014Y-116869294D01*
X174129209Y-116840000D01*
X174184014Y-116810706D01*
X174410134Y-116625134D01*
X174595706Y-116399014D01*
X174733599Y-116141034D01*
X174818513Y-115861111D01*
X174847185Y-115570000D01*
X174818513Y-115278889D01*
X174733599Y-114998966D01*
X174595706Y-114740986D01*
X174410134Y-114514866D01*
X174184014Y-114329294D01*
X174129209Y-114300000D01*
X174184014Y-114270706D01*
X174410134Y-114085134D01*
X174595706Y-113859014D01*
X174733599Y-113601034D01*
X174818513Y-113321111D01*
X174847185Y-113030000D01*
X174818513Y-112738889D01*
X174733599Y-112458966D01*
X174595706Y-112200986D01*
X174410134Y-111974866D01*
X174184014Y-111789294D01*
X174129209Y-111760000D01*
X174184014Y-111730706D01*
X174410134Y-111545134D01*
X174595706Y-111319014D01*
X174733599Y-111061034D01*
X174818513Y-110781111D01*
X174847185Y-110490000D01*
X174818513Y-110198889D01*
X174733599Y-109918966D01*
X174595706Y-109660986D01*
X174410134Y-109434866D01*
X174184014Y-109249294D01*
X174129209Y-109220000D01*
X174184014Y-109190706D01*
X174410134Y-109005134D01*
X174595706Y-108779014D01*
X174733599Y-108521034D01*
X174818513Y-108241111D01*
X174847185Y-107950000D01*
X174818513Y-107658889D01*
X174733599Y-107378966D01*
X174595706Y-107120986D01*
X174410134Y-106894866D01*
X174184014Y-106709294D01*
X174129209Y-106680000D01*
X174184014Y-106650706D01*
X174410134Y-106465134D01*
X174595706Y-106239014D01*
X174733599Y-105981034D01*
X174818513Y-105701111D01*
X174847185Y-105410000D01*
X174818513Y-105118889D01*
X174733599Y-104838966D01*
X174595706Y-104580986D01*
X174410134Y-104354866D01*
X174184014Y-104169294D01*
X174129209Y-104140000D01*
X174184014Y-104110706D01*
X174410134Y-103925134D01*
X174595706Y-103699014D01*
X174733599Y-103441034D01*
X174818513Y-103161111D01*
X174847185Y-102870000D01*
X174818513Y-102578889D01*
X174733599Y-102298966D01*
X174595706Y-102040986D01*
X174410134Y-101814866D01*
X174184014Y-101629294D01*
X174129209Y-101600000D01*
X174184014Y-101570706D01*
X174410134Y-101385134D01*
X174595706Y-101159014D01*
X174733599Y-100901034D01*
X174818513Y-100621111D01*
X174847185Y-100330000D01*
X174818513Y-100038889D01*
X174733599Y-99758966D01*
X174595706Y-99500986D01*
X174410134Y-99274866D01*
X174184014Y-99089294D01*
X174129209Y-99060000D01*
X174184014Y-99030706D01*
X174410134Y-98845134D01*
X174595706Y-98619014D01*
X174733599Y-98361034D01*
X174818513Y-98081111D01*
X174847185Y-97790000D01*
X174818513Y-97498889D01*
X174733599Y-97218966D01*
X174595706Y-96960986D01*
X174410134Y-96734866D01*
X174184014Y-96549294D01*
X174129209Y-96520000D01*
X174184014Y-96490706D01*
X174410134Y-96305134D01*
X174595706Y-96079014D01*
X174733599Y-95821034D01*
X174818513Y-95541111D01*
X174847185Y-95250000D01*
X174818513Y-94958889D01*
X174733599Y-94678966D01*
X174595706Y-94420986D01*
X174410134Y-94194866D01*
X174184014Y-94009294D01*
X174129209Y-93980000D01*
X174184014Y-93950706D01*
X174410134Y-93765134D01*
X174595706Y-93539014D01*
X174733599Y-93281034D01*
X174818513Y-93001111D01*
X174847185Y-92710000D01*
X174818513Y-92418889D01*
X174733599Y-92138966D01*
X174595706Y-91880986D01*
X174410134Y-91654866D01*
X174184014Y-91469294D01*
X174129209Y-91440000D01*
X174184014Y-91410706D01*
X174410134Y-91225134D01*
X174595706Y-90999014D01*
X174733599Y-90741034D01*
X174818513Y-90461111D01*
X174847185Y-90170000D01*
X174818513Y-89878889D01*
X174733599Y-89598966D01*
X174595706Y-89340986D01*
X174410134Y-89114866D01*
X174184014Y-88929294D01*
X174129209Y-88900000D01*
X174184014Y-88870706D01*
X174410134Y-88685134D01*
X174595706Y-88459014D01*
X174733599Y-88201034D01*
X174818513Y-87921111D01*
X174847185Y-87630000D01*
X174818513Y-87338889D01*
X174733599Y-87058966D01*
X174595706Y-86800986D01*
X174410134Y-86574866D01*
X174380313Y-86550393D01*
X174449180Y-86529502D01*
X174559494Y-86470537D01*
X174656185Y-86391185D01*
X174735537Y-86294494D01*
X174794502Y-86184180D01*
X174830812Y-86064482D01*
X174843072Y-85940000D01*
X174840000Y-85375750D01*
X174769250Y-85305000D01*
X175676928Y-85305000D01*
X175689188Y-85429482D01*
X175725498Y-85549180D01*
X175784463Y-85659494D01*
X175863815Y-85756185D01*
X175960506Y-85835537D01*
X176070820Y-85894502D01*
X176190518Y-85930812D01*
X176315000Y-85943072D01*
X176879250Y-85940000D01*
X177038000Y-85781250D01*
X177038000Y-84582000D01*
X175838750Y-84582000D01*
X175680000Y-84740750D01*
X175676928Y-85305000D01*
X174769250Y-85305000D01*
X174681250Y-85217000D01*
X173482000Y-85217000D01*
X173482000Y-85237000D01*
X173228000Y-85237000D01*
X173228000Y-85217000D01*
X173208000Y-85217000D01*
X173208000Y-84963000D01*
X173228000Y-84963000D01*
X173228000Y-83763750D01*
X173482000Y-83763750D01*
X173482000Y-84963000D01*
X174681250Y-84963000D01*
X174840000Y-84804250D01*
X174843072Y-84240000D01*
X174830812Y-84115518D01*
X174794502Y-83995820D01*
X174735537Y-83885506D01*
X174656185Y-83788815D01*
X174559494Y-83709463D01*
X174449180Y-83650498D01*
X174329482Y-83614188D01*
X174236192Y-83605000D01*
X175676928Y-83605000D01*
X175680000Y-84169250D01*
X175838750Y-84328000D01*
X177038000Y-84328000D01*
X177038000Y-83128750D01*
X177292000Y-83128750D01*
X177292000Y-84328000D01*
X177312000Y-84328000D01*
X177312000Y-84582000D01*
X177292000Y-84582000D01*
X177292000Y-85781250D01*
X177450750Y-85940000D01*
X178015000Y-85943072D01*
X178139482Y-85930812D01*
X178259180Y-85894502D01*
X178369494Y-85835537D01*
X178466185Y-85756185D01*
X178545537Y-85659494D01*
X178604502Y-85549180D01*
X178625393Y-85480313D01*
X178649866Y-85510134D01*
X178875986Y-85695706D01*
X179133966Y-85833599D01*
X179413889Y-85918513D01*
X179632050Y-85940000D01*
X179777950Y-85940000D01*
X179996111Y-85918513D01*
X180276034Y-85833599D01*
X180534014Y-85695706D01*
X180760134Y-85510134D01*
X180945706Y-85284014D01*
X180975000Y-85229209D01*
X181004294Y-85284014D01*
X181189866Y-85510134D01*
X181415986Y-85695706D01*
X181673966Y-85833599D01*
X181953889Y-85918513D01*
X182172050Y-85940000D01*
X182317950Y-85940000D01*
X182536111Y-85918513D01*
X182816034Y-85833599D01*
X183074014Y-85695706D01*
X183300134Y-85510134D01*
X183485706Y-85284014D01*
X183515000Y-85229209D01*
X183544294Y-85284014D01*
X183729866Y-85510134D01*
X183955986Y-85695706D01*
X184213966Y-85833599D01*
X184493889Y-85918513D01*
X184712050Y-85940000D01*
X184857950Y-85940000D01*
X185076111Y-85918513D01*
X185356034Y-85833599D01*
X185614014Y-85695706D01*
X185840134Y-85510134D01*
X186025706Y-85284014D01*
X186163599Y-85026034D01*
X186248513Y-84746111D01*
X186277185Y-84455000D01*
X186248513Y-84163889D01*
X186163599Y-83883966D01*
X186025706Y-83625986D01*
X185840134Y-83399866D01*
X185614014Y-83214294D01*
X185356034Y-83076401D01*
X185076111Y-82991487D01*
X184857950Y-82970000D01*
X184712050Y-82970000D01*
X184493889Y-82991487D01*
X184213966Y-83076401D01*
X183955986Y-83214294D01*
X183729866Y-83399866D01*
X183544294Y-83625986D01*
X183515000Y-83680791D01*
X183485706Y-83625986D01*
X183300134Y-83399866D01*
X183074014Y-83214294D01*
X182816034Y-83076401D01*
X182536111Y-82991487D01*
X182317950Y-82970000D01*
X182172050Y-82970000D01*
X181953889Y-82991487D01*
X181673966Y-83076401D01*
X181415986Y-83214294D01*
X181189866Y-83399866D01*
X181004294Y-83625986D01*
X180975000Y-83680791D01*
X180945706Y-83625986D01*
X180760134Y-83399866D01*
X180534014Y-83214294D01*
X180276034Y-83076401D01*
X179996111Y-82991487D01*
X179777950Y-82970000D01*
X179632050Y-82970000D01*
X179413889Y-82991487D01*
X179133966Y-83076401D01*
X178875986Y-83214294D01*
X178649866Y-83399866D01*
X178625393Y-83429687D01*
X178604502Y-83360820D01*
X178545537Y-83250506D01*
X178466185Y-83153815D01*
X178369494Y-83074463D01*
X178259180Y-83015498D01*
X178139482Y-82979188D01*
X178015000Y-82966928D01*
X177450750Y-82970000D01*
X177292000Y-83128750D01*
X177038000Y-83128750D01*
X176879250Y-82970000D01*
X176315000Y-82966928D01*
X176190518Y-82979188D01*
X176070820Y-83015498D01*
X175960506Y-83074463D01*
X175863815Y-83153815D01*
X175784463Y-83250506D01*
X175725498Y-83360820D01*
X175689188Y-83480518D01*
X175676928Y-83605000D01*
X174236192Y-83605000D01*
X174205000Y-83601928D01*
X173640750Y-83605000D01*
X173482000Y-83763750D01*
X173228000Y-83763750D01*
X173069250Y-83605000D01*
X172939999Y-83604296D01*
X172939999Y-65729802D01*
X179488504Y-59181298D01*
X179517501Y-59157501D01*
X179566721Y-59097526D01*
X179612474Y-59041777D01*
X179683046Y-58909747D01*
X179692284Y-58879292D01*
X179726503Y-58766486D01*
X179737500Y-58654833D01*
X179737500Y-58654824D01*
X179741176Y-58617501D01*
X179737500Y-58580178D01*
X179737500Y-42027761D01*
X179765610Y-41993509D01*
X179836182Y-41861480D01*
X179864730Y-41767369D01*
X179987562Y-41701714D01*
X180176141Y-41546953D01*
X180181134Y-41563413D01*
X180240099Y-41673727D01*
X180319451Y-41770418D01*
X180416142Y-41849770D01*
X180526456Y-41908735D01*
X180646154Y-41945045D01*
X180770636Y-41957305D01*
X181384886Y-41954233D01*
X181543636Y-41795483D01*
X181543636Y-40146233D01*
X181797636Y-40146233D01*
X181797636Y-41795483D01*
X181956386Y-41954233D01*
X182570636Y-41957305D01*
X182695118Y-41945045D01*
X182814816Y-41908735D01*
X182925130Y-41849770D01*
X183021821Y-41770418D01*
X183101173Y-41673727D01*
X183160138Y-41563413D01*
X183196448Y-41443715D01*
X183208708Y-41319233D01*
X183205636Y-40304983D01*
X183046886Y-40146233D01*
X181797636Y-40146233D01*
X181543636Y-40146233D01*
X181523636Y-40146233D01*
X181523636Y-39892233D01*
X181543636Y-39892233D01*
X181543636Y-38242983D01*
X181797636Y-38242983D01*
X181797636Y-39892233D01*
X183046886Y-39892233D01*
X183205636Y-39733483D01*
X183208708Y-38719233D01*
X183196448Y-38594751D01*
X183160138Y-38475053D01*
X183101173Y-38364739D01*
X183021821Y-38268048D01*
X182925130Y-38188696D01*
X182814816Y-38129731D01*
X182695118Y-38093421D01*
X182570636Y-38081161D01*
X181956386Y-38084233D01*
X181797636Y-38242983D01*
X181543636Y-38242983D01*
X181384886Y-38084233D01*
X180770636Y-38081161D01*
X180646154Y-38093421D01*
X180526456Y-38129731D01*
X180416142Y-38188696D01*
X180319451Y-38268048D01*
X180240099Y-38364739D01*
X180181134Y-38475053D01*
X180176141Y-38491513D01*
X179987563Y-38336752D01*
X179720897Y-38194216D01*
X179431549Y-38106443D01*
X179130636Y-38076806D01*
X178829724Y-38106443D01*
X178540376Y-38194216D01*
X178273710Y-38336752D01*
X178039975Y-38528572D01*
X177860636Y-38747098D01*
X177681297Y-38528572D01*
X177447563Y-38336752D01*
X177180897Y-38194216D01*
X176891549Y-38106443D01*
X176590636Y-38076806D01*
X176289724Y-38106443D01*
X176000376Y-38194216D01*
X175733710Y-38336752D01*
X175499975Y-38528572D01*
X175320636Y-38747098D01*
X175141297Y-38528572D01*
X174907563Y-38336752D01*
X174640897Y-38194216D01*
X174351549Y-38106443D01*
X174050636Y-38076806D01*
X173749724Y-38106443D01*
X173460376Y-38194216D01*
X173193710Y-38336752D01*
X172959975Y-38528572D01*
X172780636Y-38747098D01*
X172601297Y-38528572D01*
X172367563Y-38336752D01*
X172100897Y-38194216D01*
X171811549Y-38106443D01*
X171510636Y-38076806D01*
X171209724Y-38106443D01*
X170920376Y-38194216D01*
X170653710Y-38336752D01*
X170419975Y-38528572D01*
X170240636Y-38747098D01*
X170061297Y-38528572D01*
X169827563Y-38336752D01*
X169560897Y-38194216D01*
X169271549Y-38106443D01*
X168970636Y-38076806D01*
X168669724Y-38106443D01*
X168380376Y-38194216D01*
X168113710Y-38336752D01*
X167879975Y-38528572D01*
X167700636Y-38747098D01*
X167521297Y-38528572D01*
X167287563Y-38336752D01*
X167020897Y-38194216D01*
X166731549Y-38106443D01*
X166430636Y-38076806D01*
X166129724Y-38106443D01*
X165840376Y-38194216D01*
X165573710Y-38336752D01*
X165339975Y-38528572D01*
X165160636Y-38747098D01*
X164981297Y-38528572D01*
X164747563Y-38336752D01*
X164480897Y-38194216D01*
X164191549Y-38106443D01*
X163890636Y-38076806D01*
X163589724Y-38106443D01*
X163300376Y-38194216D01*
X163033710Y-38336752D01*
X162799975Y-38528572D01*
X162620636Y-38747098D01*
X162441297Y-38528572D01*
X162207563Y-38336752D01*
X161940897Y-38194216D01*
X161651549Y-38106443D01*
X161350636Y-38076806D01*
X161049724Y-38106443D01*
X160760376Y-38194216D01*
X160493710Y-38336752D01*
X160259975Y-38528572D01*
X160080636Y-38747098D01*
X159901297Y-38528572D01*
X159667563Y-38336752D01*
X159400897Y-38194216D01*
X159111549Y-38106443D01*
X158810636Y-38076806D01*
X158509724Y-38106443D01*
X158220376Y-38194216D01*
X157953710Y-38336752D01*
X157719975Y-38528572D01*
X157540636Y-38747098D01*
X157361297Y-38528572D01*
X157127563Y-38336752D01*
X156860897Y-38194216D01*
X156571549Y-38106443D01*
X156270636Y-38076806D01*
X155969724Y-38106443D01*
X155680376Y-38194216D01*
X155413710Y-38336752D01*
X155179975Y-38528572D01*
X155000636Y-38747098D01*
X154821297Y-38528572D01*
X154587563Y-38336752D01*
X154320897Y-38194216D01*
X154031549Y-38106443D01*
X153730636Y-38076806D01*
X153429724Y-38106443D01*
X153140376Y-38194216D01*
X152873710Y-38336752D01*
X152639975Y-38528572D01*
X152460636Y-38747098D01*
X152281297Y-38528572D01*
X152047563Y-38336752D01*
X151780897Y-38194216D01*
X151491549Y-38106443D01*
X151190636Y-38076806D01*
X150889724Y-38106443D01*
X150600376Y-38194216D01*
X150333710Y-38336752D01*
X150099975Y-38528572D01*
X149920636Y-38747098D01*
X149741297Y-38528572D01*
X149507563Y-38336752D01*
X149240897Y-38194216D01*
X148951549Y-38106443D01*
X148650636Y-38076806D01*
X148349724Y-38106443D01*
X148060376Y-38194216D01*
X147793710Y-38336752D01*
X147559975Y-38528572D01*
X147380636Y-38747098D01*
X147201297Y-38528572D01*
X146967563Y-38336752D01*
X146700897Y-38194216D01*
X146411549Y-38106443D01*
X146110636Y-38076806D01*
X145809724Y-38106443D01*
X145520376Y-38194216D01*
X145253710Y-38336752D01*
X145019975Y-38528572D01*
X144840636Y-38747098D01*
X144661297Y-38528572D01*
X144427563Y-38336752D01*
X144160897Y-38194216D01*
X143871549Y-38106443D01*
X143570636Y-38076806D01*
X143269724Y-38106443D01*
X142980376Y-38194216D01*
X142713710Y-38336752D01*
X142479975Y-38528572D01*
X142288155Y-38762306D01*
X142145619Y-39028972D01*
X142057846Y-39318320D01*
X142035636Y-39543825D01*
X142035636Y-39994562D01*
X134108998Y-47921201D01*
X134080000Y-47944999D01*
X134056202Y-47973997D01*
X134056201Y-47973998D01*
X133985026Y-48060724D01*
X133914454Y-48192754D01*
X133884180Y-48292558D01*
X133880279Y-48305420D01*
X133870998Y-48336015D01*
X133856324Y-48485000D01*
X133860001Y-48522333D01*
X133860000Y-80059099D01*
X133818899Y-80081068D01*
X133600392Y-80260392D01*
X133421068Y-80478899D01*
X133287818Y-80728192D01*
X133205764Y-80998691D01*
X133178057Y-81280000D01*
X129711943Y-81280000D01*
X129684236Y-80998691D01*
X129602182Y-80728192D01*
X129468932Y-80478899D01*
X129289608Y-80260392D01*
X129071101Y-80081068D01*
X129030000Y-80059099D01*
X129030000Y-42710801D01*
X131242426Y-40498377D01*
X131256276Y-40490974D01*
X131372001Y-40396001D01*
X131395804Y-40366997D01*
X132591013Y-39171789D01*
X132620000Y-39148000D01*
X132643789Y-39119013D01*
X132643799Y-39119003D01*
X132714974Y-39032276D01*
X132785546Y-38900247D01*
X132829003Y-38756986D01*
X132843677Y-38608000D01*
X132829003Y-38459014D01*
X132785546Y-38315754D01*
X132762585Y-38272797D01*
X132762585Y-35660673D01*
X132981090Y-35514672D01*
X133194897Y-35300865D01*
X133362884Y-35049455D01*
X133478596Y-34770103D01*
X133537585Y-34473544D01*
X133537585Y-34171176D01*
X133478596Y-33874617D01*
X133362884Y-33595265D01*
X133194897Y-33343855D01*
X133128458Y-33277416D01*
X133146765Y-33271862D01*
X133257079Y-33212897D01*
X133353770Y-33133545D01*
X133433122Y-33036854D01*
X133492087Y-32926540D01*
X133528397Y-32806842D01*
X133540657Y-32682360D01*
X133537585Y-32068110D01*
X133378835Y-31909360D01*
X132129585Y-31909360D01*
X132129585Y-31929360D01*
X131875585Y-31929360D01*
X131875585Y-31909360D01*
X130626335Y-31909360D01*
X130467585Y-32068110D01*
X130464513Y-32682360D01*
X130476773Y-32806842D01*
X130513083Y-32926540D01*
X130572048Y-33036854D01*
X130651400Y-33133545D01*
X130748091Y-33212897D01*
X130858405Y-33271862D01*
X130876712Y-33277416D01*
X130810273Y-33343855D01*
X130642286Y-33595265D01*
X130526574Y-33874617D01*
X130467585Y-34171176D01*
X130467585Y-34473544D01*
X130526574Y-34770103D01*
X130642286Y-35049455D01*
X130810273Y-35300865D01*
X131024080Y-35514672D01*
X131242586Y-35660673D01*
X131242585Y-38370613D01*
X130399578Y-39213621D01*
X130385724Y-39221026D01*
X130385722Y-39221027D01*
X130385723Y-39221027D01*
X130298996Y-39292201D01*
X130298992Y-39292205D01*
X130269999Y-39315999D01*
X130246205Y-39344992D01*
X127758998Y-41832201D01*
X127730000Y-41855999D01*
X127706202Y-41884997D01*
X127706201Y-41884998D01*
X127635026Y-41971724D01*
X127564454Y-42103754D01*
X127520998Y-42247015D01*
X127506324Y-42396000D01*
X127510001Y-42433333D01*
X127510000Y-80059099D01*
X127468899Y-80081068D01*
X127250392Y-80260392D01*
X127071068Y-80478899D01*
X126937818Y-80728192D01*
X126855764Y-80998691D01*
X126828057Y-81280000D01*
X123361943Y-81280000D01*
X123334236Y-80998691D01*
X123252182Y-80728192D01*
X123118932Y-80478899D01*
X122939608Y-80260392D01*
X122721101Y-80081068D01*
X122680000Y-80059099D01*
X122680000Y-42964801D01*
X125450009Y-40194793D01*
X125463861Y-40187389D01*
X125579586Y-40092416D01*
X125603389Y-40063412D01*
X126798589Y-38868213D01*
X126827586Y-38844416D01*
X126922559Y-38728691D01*
X126993131Y-38596662D01*
X127036588Y-38453401D01*
X127047585Y-38341748D01*
X127047585Y-38341747D01*
X127051262Y-38304415D01*
X127047585Y-38267082D01*
X127047585Y-35660673D01*
X127266090Y-35514672D01*
X127479897Y-35300865D01*
X127647884Y-35049455D01*
X127763596Y-34770103D01*
X127822585Y-34473544D01*
X127822585Y-34171176D01*
X127763596Y-33874617D01*
X127647884Y-33595265D01*
X127479897Y-33343855D01*
X127413458Y-33277416D01*
X127431765Y-33271862D01*
X127542079Y-33212897D01*
X127638770Y-33133545D01*
X127718122Y-33036854D01*
X127777087Y-32926540D01*
X127813397Y-32806842D01*
X127825657Y-32682360D01*
X127822585Y-32068110D01*
X127663835Y-31909360D01*
X126414585Y-31909360D01*
X126414585Y-31929360D01*
X126160585Y-31929360D01*
X126160585Y-31909360D01*
X124911335Y-31909360D01*
X124752585Y-32068110D01*
X124749513Y-32682360D01*
X124761773Y-32806842D01*
X124798083Y-32926540D01*
X124857048Y-33036854D01*
X124936400Y-33133545D01*
X125033091Y-33212897D01*
X125143405Y-33271862D01*
X125161712Y-33277416D01*
X125095273Y-33343855D01*
X124927286Y-33595265D01*
X124811574Y-33874617D01*
X124752585Y-34171176D01*
X124752585Y-34473544D01*
X124811574Y-34770103D01*
X124927286Y-35049455D01*
X125095273Y-35300865D01*
X125309080Y-35514672D01*
X125527586Y-35660673D01*
X125527585Y-37989613D01*
X124607163Y-38910036D01*
X124593309Y-38917441D01*
X124477584Y-39012414D01*
X124453786Y-39041412D01*
X121408998Y-42086201D01*
X121380000Y-42109999D01*
X121356202Y-42138997D01*
X121356201Y-42138998D01*
X121285026Y-42225724D01*
X121214454Y-42357754D01*
X121170998Y-42501015D01*
X121156324Y-42650000D01*
X121160001Y-42687333D01*
X121160000Y-80059099D01*
X121118899Y-80081068D01*
X120900392Y-80260392D01*
X120721068Y-80478899D01*
X120587818Y-80728192D01*
X120505764Y-80998691D01*
X120478057Y-81280000D01*
X117011943Y-81280000D01*
X116984236Y-80998691D01*
X116902182Y-80728192D01*
X116768932Y-80478899D01*
X116589608Y-80260392D01*
X116371101Y-80081068D01*
X116330000Y-80059099D01*
X116330000Y-42710801D01*
X119100009Y-39940793D01*
X119113861Y-39933389D01*
X119229586Y-39838416D01*
X119253389Y-39809412D01*
X120448589Y-38614213D01*
X120477586Y-38590416D01*
X120572559Y-38474691D01*
X120643131Y-38342662D01*
X120686588Y-38199401D01*
X120697585Y-38087748D01*
X120697585Y-38087747D01*
X120701262Y-38050415D01*
X120697585Y-38013082D01*
X120697585Y-35660673D01*
X120916090Y-35514672D01*
X121129897Y-35300865D01*
X121297884Y-35049455D01*
X121413596Y-34770103D01*
X121472585Y-34473544D01*
X121472585Y-34171176D01*
X121413596Y-33874617D01*
X121297884Y-33595265D01*
X121129897Y-33343855D01*
X121063458Y-33277416D01*
X121081765Y-33271862D01*
X121192079Y-33212897D01*
X121288770Y-33133545D01*
X121368122Y-33036854D01*
X121427087Y-32926540D01*
X121463397Y-32806842D01*
X121475657Y-32682360D01*
X121472585Y-32068110D01*
X121313835Y-31909360D01*
X120064585Y-31909360D01*
X120064585Y-31929360D01*
X119810585Y-31929360D01*
X119810585Y-31909360D01*
X118561335Y-31909360D01*
X118402585Y-32068110D01*
X118399513Y-32682360D01*
X118411773Y-32806842D01*
X118448083Y-32926540D01*
X118507048Y-33036854D01*
X118586400Y-33133545D01*
X118683091Y-33212897D01*
X118793405Y-33271862D01*
X118811712Y-33277416D01*
X118745273Y-33343855D01*
X118577286Y-33595265D01*
X118461574Y-33874617D01*
X118402585Y-34171176D01*
X118402585Y-34473544D01*
X118461574Y-34770103D01*
X118577286Y-35049455D01*
X118745273Y-35300865D01*
X118959080Y-35514672D01*
X119177586Y-35660673D01*
X119177585Y-37735613D01*
X118257163Y-38656036D01*
X118243309Y-38663441D01*
X118127584Y-38758414D01*
X118103786Y-38787412D01*
X115058998Y-41832201D01*
X115030000Y-41855999D01*
X115006202Y-41884997D01*
X115006201Y-41884998D01*
X114935026Y-41971724D01*
X114864454Y-42103754D01*
X114820998Y-42247015D01*
X114806324Y-42396000D01*
X114810001Y-42433333D01*
X114810000Y-80059099D01*
X114768899Y-80081068D01*
X114550392Y-80260392D01*
X114371068Y-80478899D01*
X114237818Y-80728192D01*
X114155764Y-80998691D01*
X114128057Y-81280000D01*
X110685000Y-81280000D01*
X110685000Y-72553123D01*
X110810173Y-72678296D01*
X111159854Y-72911945D01*
X111548400Y-73072886D01*
X111960877Y-73154933D01*
X112381435Y-73154933D01*
X112793912Y-73072886D01*
X113182458Y-72911945D01*
X113532139Y-72678296D01*
X113829519Y-72380916D01*
X114063168Y-72031235D01*
X114224109Y-71642689D01*
X114306156Y-71230212D01*
X114306156Y-70809654D01*
X114224109Y-70397177D01*
X114063168Y-70008631D01*
X113829519Y-69658950D01*
X113532139Y-69361570D01*
X113182458Y-69127921D01*
X112793912Y-68966980D01*
X112381435Y-68884933D01*
X111960877Y-68884933D01*
X111548400Y-68966980D01*
X111159854Y-69127921D01*
X110810173Y-69361570D01*
X110685000Y-69486743D01*
X110685000Y-41552943D01*
X110809653Y-41677596D01*
X111159334Y-41911245D01*
X111547880Y-42072186D01*
X111960357Y-42154233D01*
X112380915Y-42154233D01*
X112793392Y-42072186D01*
X113181938Y-41911245D01*
X113531619Y-41677596D01*
X113828999Y-41380216D01*
X114062648Y-41030535D01*
X114223589Y-40641989D01*
X114305636Y-40229512D01*
X114305636Y-39808954D01*
X114223589Y-39396477D01*
X114062648Y-39007931D01*
X113828999Y-38658250D01*
X113531619Y-38360870D01*
X113181938Y-38127221D01*
X113055865Y-38075000D01*
X115033647Y-38075000D01*
X115063645Y-38072045D01*
X115076047Y-38072132D01*
X115085565Y-38071198D01*
X115473758Y-38030397D01*
X115534539Y-38017920D01*
X115595560Y-38006280D01*
X115604716Y-38003516D01*
X115977591Y-37888092D01*
X116034870Y-37864014D01*
X116092388Y-37840775D01*
X116100833Y-37836286D01*
X116444188Y-37650634D01*
X116495635Y-37615932D01*
X116547610Y-37581921D01*
X116555022Y-37575876D01*
X116855777Y-37327069D01*
X116899524Y-37283016D01*
X116943881Y-37239578D01*
X116949978Y-37232208D01*
X117196679Y-36929724D01*
X117231047Y-36877995D01*
X117266111Y-36826785D01*
X117270661Y-36818372D01*
X117453910Y-36473730D01*
X117477555Y-36416364D01*
X117502028Y-36359264D01*
X117504856Y-36350127D01*
X117617674Y-35976456D01*
X117629737Y-35915531D01*
X117642641Y-35854826D01*
X117643641Y-35845314D01*
X117681731Y-35456845D01*
X117681731Y-35456837D01*
X117685000Y-35423647D01*
X117685000Y-30575000D01*
X118481854Y-30575000D01*
X118448083Y-30638180D01*
G36*
X115789248Y-154926048D02*
G01*
X115754875Y-154977784D01*
X115719815Y-155028988D01*
X115715266Y-155037401D01*
X115540721Y-155365673D01*
X115517064Y-155423069D01*
X115492605Y-155480137D01*
X115489776Y-155489274D01*
X115382316Y-155845196D01*
X115370252Y-155906126D01*
X115357349Y-155966829D01*
X115356349Y-155976341D01*
X115320069Y-156346356D01*
X115320069Y-156346368D01*
X115316789Y-156379785D01*
X115319989Y-165836607D01*
X115293543Y-166106327D01*
X115224908Y-166333656D01*
X115113428Y-166543320D01*
X114963343Y-166727341D01*
X114780380Y-166878701D01*
X114571493Y-166991646D01*
X114344653Y-167061865D01*
X114076966Y-167090000D01*
X111938503Y-167090000D01*
X111668673Y-167063543D01*
X111441344Y-166994908D01*
X111231680Y-166883428D01*
X111047659Y-166733343D01*
X110896299Y-166550380D01*
X110783354Y-166341493D01*
X110713135Y-166114653D01*
X110685000Y-165846966D01*
X110685000Y-154813000D01*
X115881448Y-154813000D01*
X115789248Y-154926048D01*
X115789248Y-154926048D01*
G37*
X115789248Y-154926048D02*
X115754875Y-154977784D01*
X115719815Y-155028988D01*
X115715266Y-155037401D01*
X115540721Y-155365673D01*
X115517064Y-155423069D01*
X115492605Y-155480137D01*
X115489776Y-155489274D01*
X115382316Y-155845196D01*
X115370252Y-155906126D01*
X115357349Y-155966829D01*
X115356349Y-155976341D01*
X115320069Y-156346356D01*
X115320069Y-156346368D01*
X115316789Y-156379785D01*
X115319989Y-165836607D01*
X115293543Y-166106327D01*
X115224908Y-166333656D01*
X115113428Y-166543320D01*
X114963343Y-166727341D01*
X114780380Y-166878701D01*
X114571493Y-166991646D01*
X114344653Y-167061865D01*
X114076966Y-167090000D01*
X111938503Y-167090000D01*
X111668673Y-167063543D01*
X111441344Y-166994908D01*
X111231680Y-166883428D01*
X111047659Y-166733343D01*
X110896299Y-166550380D01*
X110783354Y-166341493D01*
X110713135Y-166114653D01*
X110685000Y-165846966D01*
X110685000Y-154813000D01*
X115881448Y-154813000D01*
X115789248Y-154926048D01*
M02*
