M48
; DRILL file {KiCad (5.1.5)-3} date 07/04/2020 21:40:37
; FORMAT={-:-/ absolute / inch / decimal}
; #@! TF.CreationDate,2020-04-07T21:40:37+01:00
; #@! TF.GenerationSoftware,Kicad,Pcbnew,(5.1.5)-3
FMAT,2
INCH
T1C0.0157
T2C0.0315
T3C0.0354
T4C0.0394
T5C0.0472
T6C0.0787
T7C0.0866
T8C0.0984
%
G90
G05
T1
X4.47Y-6.1
X5.6Y-5.04
T2
X5.14Y-5.03
X5.14Y-5.43
X4.95Y-5.025
X4.95Y-5.425
X5.3Y-3.2
X5.3Y-3.6
X4.8Y-3.2
X4.8Y-3.6
X6.375Y-3.1016
X6.375Y-3.2
X4.55Y-3.2
X4.55Y-3.6
X5.05Y-3.2
X5.05Y-3.6
T3
X4.722Y-1.2513
X4.722Y-1.3513
X4.972Y-1.2513
X4.972Y-1.3513
X5.197Y-1.2513
X5.197Y-1.3513
T4
X6.7463Y-3.35
X6.7463Y-3.45
X6.7463Y-3.55
X6.7463Y-3.65
X6.7463Y-3.75
X6.7463Y-3.85
X6.7463Y-3.95
X6.7463Y-4.05
X6.7463Y-4.15
X6.7463Y-4.25
X6.7463Y-4.35
X6.7463Y-4.45
X6.7463Y-4.55
X6.7463Y-4.65
X6.7463Y-4.75
X6.7463Y-4.85
X5.79Y-5.82
X5.89Y-5.82
X5.99Y-5.82
X6.8963Y-3.325
X6.9963Y-3.325
X7.0963Y-3.325
X7.1963Y-3.325
X4.75Y-3.875
X4.75Y-4.775
X4.85Y-3.875
X4.85Y-4.775
X4.95Y-3.875
X4.95Y-4.775
X5.05Y-3.875
X5.05Y-4.775
X5.15Y-3.875
X5.15Y-4.775
X5.25Y-3.875
X5.25Y-4.775
X5.35Y-3.875
X5.35Y-4.775
X5.45Y-3.875
X5.45Y-4.775
X5.1Y-5.725
X5.1984Y-5.725
T5
X5.6524Y-1.5756
X5.7524Y-1.5756
X5.8524Y-1.5756
X5.9524Y-1.5756
X6.0524Y-1.5756
X6.1524Y-1.5756
X6.2524Y-1.5756
X6.3524Y-1.5756
X6.4524Y-1.5756
X6.5524Y-1.5756
X6.6524Y-1.5756
X6.7524Y-1.5756
X6.8524Y-1.5756
X6.9524Y-1.5756
X7.0524Y-1.5756
X7.1524Y-1.5756
T6
X6.0531Y-3.8449
X6.1516Y-3.7366
X6.1516Y-3.9335
T7
X4.54Y-5.18
X4.54Y-5.73
T8
X4.4162Y-1.5756
X4.4162Y-2.7961
X7.3689Y-1.5756
X7.3689Y-2.7961
T0
M30
