G04 #@! TF.GenerationSoftware,KiCad,Pcbnew,(5.1.2)-1*
G04 #@! TF.CreationDate,2019-10-17T22:12:22+01:00*
G04 #@! TF.ProjectId,Keypad,4b657970-6164-42e6-9b69-6361645f7063,1*
G04 #@! TF.SameCoordinates,Original*
G04 #@! TF.FileFunction,Legend,Top*
G04 #@! TF.FilePolarity,Positive*
%FSLAX46Y46*%
G04 Gerber Fmt 4.6, Leading zero omitted, Abs format (unit mm)*
G04 Created by KiCad (PCBNEW (5.1.2)-1) date 2019-10-17 22:12:22*
%MOMM*%
%LPD*%
G04 APERTURE LIST*
%ADD10C,0.120000*%
%ADD11C,0.150000*%
%ADD12O,1.702000X2.102000*%
%ADD13R,2.102000X2.102000*%
%ADD14R,3.602000X5.102000*%
%ADD15R,3.102000X3.102000*%
%ADD16R,3.102000X2.602000*%
%ADD17R,1.902000X2.702000*%
%ADD18O,1.902000X2.702000*%
%ADD19C,3.102000*%
%ADD20C,0.100000*%
%ADD21C,1.802000*%
%ADD22O,1.802000X2.102000*%
%ADD23R,1.902000X1.902000*%
%ADD24C,1.902000*%
%ADD25R,1.802000X1.802000*%
%ADD26O,1.802000X1.802000*%
%ADD27C,1.702000*%
%ADD28O,1.702000X1.702000*%
%ADD29R,2.602000X1.602000*%
%ADD30O,2.602000X1.602000*%
%ADD31O,3.602000X2.302000*%
G04 APERTURE END LIST*
D10*
X145500000Y-120245000D02*
X145500000Y-96925000D01*
X138600000Y-122785000D02*
X113170000Y-122785000D01*
X145500000Y-96925000D02*
X113170000Y-96925000D01*
X111040000Y-99045000D02*
X111040000Y-120655000D01*
D11*
G36*
X118745000Y-123825000D02*
G01*
X120015000Y-123825000D01*
X119380000Y-123190000D01*
X118745000Y-123825000D01*
G37*
X118745000Y-123825000D02*
X120015000Y-123825000D01*
X119380000Y-123190000D01*
X118745000Y-123825000D01*
D10*
X138600000Y-122785000D02*
X138600000Y-120245000D01*
X138600000Y-120245000D02*
X145500000Y-120245000D01*
X113170000Y-122785000D02*
G75*
G02X111040000Y-120655000I0J2130000D01*
G01*
X111040000Y-99055000D02*
G75*
G02X113170000Y-96925000I2130000J0D01*
G01*
D11*
X165750000Y-97410000D02*
X162750000Y-97410000D01*
X165750000Y-100910000D02*
X162750000Y-100910000D01*
X162750000Y-100910000D02*
X164250000Y-97410000D01*
X164250000Y-97410000D02*
X165750000Y-100910000D01*
X167250000Y-88410000D02*
G75*
G03X164750000Y-85910000I-2500000J0D01*
G01*
X164750000Y-121910000D02*
G75*
G03X167250000Y-119410000I0J2500000D01*
G01*
X150250000Y-119410000D02*
G75*
G03X152750000Y-121910000I2500000J0D01*
G01*
X152750000Y-85910000D02*
G75*
G03X150250000Y-88410000I0J-2500000D01*
G01*
X150250000Y-88410000D02*
X150250000Y-119410000D01*
X167250000Y-119410000D02*
X167250000Y-88410000D01*
X152750000Y-121910000D02*
X164750000Y-121910000D01*
X164750000Y-85910000D02*
X152750000Y-85910000D01*
X189820000Y-129295000D02*
X163830000Y-129295000D01*
X189830000Y-146295000D02*
X163830000Y-146295000D01*
X190400000Y-134535000D02*
X190400000Y-141085000D01*
X190386000Y-134507000D02*
X189878000Y-134507000D01*
X189878000Y-134507000D02*
X189624000Y-135015000D01*
X189624000Y-135015000D02*
X189370000Y-135015000D01*
X190386000Y-141111000D02*
X189878000Y-141111000D01*
X189878000Y-141111000D02*
X189624000Y-140603000D01*
X189624000Y-140603000D02*
X184798000Y-140603000D01*
X184798000Y-140603000D02*
X184798000Y-135015000D01*
X184798000Y-135015000D02*
X189370000Y-135015000D01*
X189826000Y-129295000D02*
X189826000Y-146295000D01*
X163824000Y-146295000D02*
X163824000Y-129295000D01*
D10*
X126980000Y-142955000D02*
X126980000Y-148925000D01*
X126980000Y-148925000D02*
X134600000Y-148925000D01*
X134600000Y-148925000D02*
X134600000Y-142955000D01*
X134600000Y-142955000D02*
X126980000Y-142955000D01*
X130290000Y-142965000D02*
X130290000Y-143715000D01*
X130290000Y-143715000D02*
X131290000Y-143715000D01*
X131290000Y-143715000D02*
X131290000Y-142965000D01*
X131290000Y-142965000D02*
X130290000Y-142965000D01*
X126990000Y-142965000D02*
X126990000Y-143715000D01*
X126990000Y-143715000D02*
X128790000Y-143715000D01*
X128790000Y-143715000D02*
X128790000Y-142965000D01*
X128790000Y-142965000D02*
X126990000Y-142965000D01*
X132790000Y-142965000D02*
X132790000Y-143715000D01*
X132790000Y-143715000D02*
X134590000Y-143715000D01*
X134590000Y-143715000D02*
X134590000Y-142965000D01*
X134590000Y-142965000D02*
X132790000Y-142965000D01*
X126990000Y-145215000D02*
X127740000Y-145215000D01*
X127740000Y-145215000D02*
X127740000Y-148165000D01*
X127740000Y-148165000D02*
X130790000Y-148165000D01*
X134590000Y-145215000D02*
X133840000Y-145215000D01*
X133840000Y-145215000D02*
X133840000Y-148165000D01*
X133840000Y-148165000D02*
X130790000Y-148165000D01*
X127940000Y-142665000D02*
X126690000Y-142665000D01*
X126690000Y-142665000D02*
X126690000Y-143915000D01*
X186115000Y-85785000D02*
X186115000Y-83125000D01*
X178435000Y-85785000D02*
X186115000Y-85785000D01*
X178435000Y-83125000D02*
X186115000Y-83125000D01*
X178435000Y-85785000D02*
X178435000Y-83125000D01*
X177165000Y-85785000D02*
X175835000Y-85785000D01*
X175835000Y-85785000D02*
X175835000Y-84455000D01*
X172025000Y-124520000D02*
X174685000Y-124520000D01*
X172025000Y-86360000D02*
X172025000Y-124520000D01*
X174685000Y-86360000D02*
X174685000Y-124520000D01*
X172025000Y-86360000D02*
X174685000Y-86360000D01*
X172025000Y-85090000D02*
X172025000Y-83760000D01*
X172025000Y-83760000D02*
X173355000Y-83760000D01*
X126900000Y-89630000D02*
X129640000Y-89630000D01*
X129640000Y-89630000D02*
X129640000Y-83090000D01*
X129640000Y-83090000D02*
X126900000Y-83090000D01*
X126900000Y-83090000D02*
X126900000Y-89630000D01*
X128270000Y-90400000D02*
X128270000Y-89630000D01*
X128270000Y-82320000D02*
X128270000Y-83090000D01*
X121920000Y-82320000D02*
X121920000Y-83090000D01*
X121920000Y-90400000D02*
X121920000Y-89630000D01*
X120550000Y-83090000D02*
X120550000Y-89630000D01*
X123290000Y-83090000D02*
X120550000Y-83090000D01*
X123290000Y-89630000D02*
X123290000Y-83090000D01*
X120550000Y-89630000D02*
X123290000Y-89630000D01*
X114200000Y-89630000D02*
X116940000Y-89630000D01*
X116940000Y-89630000D02*
X116940000Y-83090000D01*
X116940000Y-83090000D02*
X114200000Y-83090000D01*
X114200000Y-83090000D02*
X114200000Y-89630000D01*
X115570000Y-90400000D02*
X115570000Y-89630000D01*
X115570000Y-82320000D02*
X115570000Y-83090000D01*
X133250000Y-89630000D02*
X135990000Y-89630000D01*
X135990000Y-89630000D02*
X135990000Y-83090000D01*
X135990000Y-83090000D02*
X133250000Y-83090000D01*
X133250000Y-83090000D02*
X133250000Y-89630000D01*
X134620000Y-90400000D02*
X134620000Y-89630000D01*
X134620000Y-82320000D02*
X134620000Y-83090000D01*
X125730000Y-128675000D02*
X125730000Y-129445000D01*
X125730000Y-136755000D02*
X125730000Y-135985000D01*
X124360000Y-129445000D02*
X124360000Y-135985000D01*
X127100000Y-129445000D02*
X124360000Y-129445000D01*
X127100000Y-135985000D02*
X127100000Y-129445000D01*
X124360000Y-135985000D02*
X127100000Y-135985000D01*
X116560000Y-135385000D02*
X116560000Y-144205000D01*
X116560000Y-144205000D02*
X116250000Y-144205000D01*
X112040000Y-144205000D02*
X112040000Y-135385000D01*
X116250000Y-135385000D02*
X116560000Y-135385000D01*
X112040000Y-135385000D02*
X112350000Y-135385000D01*
X112040000Y-144205000D02*
X112350000Y-144205000D01*
X117260000Y-137295000D02*
X116760000Y-137795000D01*
X116760000Y-137795000D02*
X117260000Y-138295000D01*
X117260000Y-138295000D02*
X117260000Y-137295000D01*
D11*
X145832380Y-100046904D02*
X146641904Y-100046904D01*
X146737142Y-99999285D01*
X146784761Y-99951666D01*
X146832380Y-99856428D01*
X146832380Y-99665952D01*
X146784761Y-99570714D01*
X146737142Y-99523095D01*
X146641904Y-99475476D01*
X145832380Y-99475476D01*
X145832380Y-99094523D02*
X145832380Y-98475476D01*
X146213333Y-98808809D01*
X146213333Y-98665952D01*
X146260952Y-98570714D01*
X146308571Y-98523095D01*
X146403809Y-98475476D01*
X146641904Y-98475476D01*
X146737142Y-98523095D01*
X146784761Y-98570714D01*
X146832380Y-98665952D01*
X146832380Y-98951666D01*
X146784761Y-99046904D01*
X146737142Y-99094523D01*
X129627380Y-115204047D02*
X130627380Y-114965952D01*
X129913095Y-114775476D01*
X130627380Y-114585000D01*
X129627380Y-114346904D01*
X130579761Y-113585000D02*
X130627380Y-113680238D01*
X130627380Y-113870714D01*
X130579761Y-113965952D01*
X130484523Y-114013571D01*
X130103571Y-114013571D01*
X130008333Y-113965952D01*
X129960714Y-113870714D01*
X129960714Y-113680238D01*
X130008333Y-113585000D01*
X130103571Y-113537380D01*
X130198809Y-113537380D01*
X130294047Y-114013571D01*
X130627380Y-113108809D02*
X129627380Y-113108809D01*
X130341666Y-112775476D01*
X129627380Y-112442142D01*
X130627380Y-112442142D01*
X130627380Y-111823095D02*
X130579761Y-111918333D01*
X130532142Y-111965952D01*
X130436904Y-112013571D01*
X130151190Y-112013571D01*
X130055952Y-111965952D01*
X130008333Y-111918333D01*
X129960714Y-111823095D01*
X129960714Y-111680238D01*
X130008333Y-111585000D01*
X130055952Y-111537380D01*
X130151190Y-111489761D01*
X130436904Y-111489761D01*
X130532142Y-111537380D01*
X130579761Y-111585000D01*
X130627380Y-111680238D01*
X130627380Y-111823095D01*
X130579761Y-111108809D02*
X130627380Y-111013571D01*
X130627380Y-110823095D01*
X130579761Y-110727857D01*
X130484523Y-110680238D01*
X130436904Y-110680238D01*
X130341666Y-110727857D01*
X130294047Y-110823095D01*
X130294047Y-110965952D01*
X130246428Y-111061190D01*
X130151190Y-111108809D01*
X130103571Y-111108809D01*
X130008333Y-111061190D01*
X129960714Y-110965952D01*
X129960714Y-110823095D01*
X130008333Y-110727857D01*
X130722619Y-110489761D02*
X130722619Y-109727857D01*
X130627380Y-109489761D02*
X129627380Y-109489761D01*
X129627380Y-109251666D01*
X129675000Y-109108809D01*
X129770238Y-109013571D01*
X129865476Y-108965952D01*
X130055952Y-108918333D01*
X130198809Y-108918333D01*
X130389285Y-108965952D01*
X130484523Y-109013571D01*
X130579761Y-109108809D01*
X130627380Y-109251666D01*
X130627380Y-109489761D01*
X130627380Y-107965952D02*
X130627380Y-108537380D01*
X130627380Y-108251666D02*
X129627380Y-108251666D01*
X129770238Y-108346904D01*
X129865476Y-108442142D01*
X129913095Y-108537380D01*
X130722619Y-107775476D02*
X130722619Y-107013571D01*
X130627380Y-106775476D02*
X129960714Y-106775476D01*
X130055952Y-106775476D02*
X130008333Y-106727857D01*
X129960714Y-106632619D01*
X129960714Y-106489761D01*
X130008333Y-106394523D01*
X130103571Y-106346904D01*
X130627380Y-106346904D01*
X130103571Y-106346904D02*
X130008333Y-106299285D01*
X129960714Y-106204047D01*
X129960714Y-106061190D01*
X130008333Y-105965952D01*
X130103571Y-105918333D01*
X130627380Y-105918333D01*
X130627380Y-105442142D02*
X129960714Y-105442142D01*
X129627380Y-105442142D02*
X129675000Y-105489761D01*
X129722619Y-105442142D01*
X129675000Y-105394523D01*
X129627380Y-105442142D01*
X129722619Y-105442142D01*
X129960714Y-104965952D02*
X130627380Y-104965952D01*
X130055952Y-104965952D02*
X130008333Y-104918333D01*
X129960714Y-104823095D01*
X129960714Y-104680238D01*
X130008333Y-104585000D01*
X130103571Y-104537380D01*
X130627380Y-104537380D01*
X130627380Y-104061190D02*
X129960714Y-104061190D01*
X129627380Y-104061190D02*
X129675000Y-104108809D01*
X129722619Y-104061190D01*
X129675000Y-104013571D01*
X129627380Y-104061190D01*
X129722619Y-104061190D01*
X156932380Y-106421904D02*
X157741904Y-106421904D01*
X157837142Y-106374285D01*
X157884761Y-106326666D01*
X157932380Y-106231428D01*
X157932380Y-106040952D01*
X157884761Y-105945714D01*
X157837142Y-105898095D01*
X157741904Y-105850476D01*
X156932380Y-105850476D01*
X157027619Y-105421904D02*
X156980000Y-105374285D01*
X156932380Y-105279047D01*
X156932380Y-105040952D01*
X156980000Y-104945714D01*
X157027619Y-104898095D01*
X157122857Y-104850476D01*
X157218095Y-104850476D01*
X157360952Y-104898095D01*
X157932380Y-105469523D01*
X157932380Y-104850476D01*
X160202380Y-108029047D02*
X159202380Y-108029047D01*
X159916666Y-107695714D01*
X159202380Y-107362380D01*
X160202380Y-107362380D01*
X159202380Y-107029047D02*
X159202380Y-106457619D01*
X160202380Y-106743333D02*
X159202380Y-106743333D01*
X159202380Y-106219523D02*
X159202380Y-105600476D01*
X159583333Y-105933809D01*
X159583333Y-105790952D01*
X159630952Y-105695714D01*
X159678571Y-105648095D01*
X159773809Y-105600476D01*
X160011904Y-105600476D01*
X160107142Y-105648095D01*
X160154761Y-105695714D01*
X160202380Y-105790952D01*
X160202380Y-106076666D01*
X160154761Y-106171904D01*
X160107142Y-106219523D01*
X159202380Y-104743333D02*
X159202380Y-104933809D01*
X159250000Y-105029047D01*
X159297619Y-105076666D01*
X159440476Y-105171904D01*
X159630952Y-105219523D01*
X160011904Y-105219523D01*
X160107142Y-105171904D01*
X160154761Y-105124285D01*
X160202380Y-105029047D01*
X160202380Y-104838571D01*
X160154761Y-104743333D01*
X160107142Y-104695714D01*
X160011904Y-104648095D01*
X159773809Y-104648095D01*
X159678571Y-104695714D01*
X159630952Y-104743333D01*
X159583333Y-104838571D01*
X159583333Y-105029047D01*
X159630952Y-105124285D01*
X159678571Y-105171904D01*
X159773809Y-105219523D01*
X159202380Y-104029047D02*
X159202380Y-103933809D01*
X159250000Y-103838571D01*
X159297619Y-103790952D01*
X159392857Y-103743333D01*
X159583333Y-103695714D01*
X159821428Y-103695714D01*
X160011904Y-103743333D01*
X160107142Y-103790952D01*
X160154761Y-103838571D01*
X160202380Y-103933809D01*
X160202380Y-104029047D01*
X160154761Y-104124285D01*
X160107142Y-104171904D01*
X160011904Y-104219523D01*
X159821428Y-104267142D01*
X159583333Y-104267142D01*
X159392857Y-104219523D01*
X159297619Y-104171904D01*
X159250000Y-104124285D01*
X159202380Y-104029047D01*
X159630952Y-103124285D02*
X159583333Y-103219523D01*
X159535714Y-103267142D01*
X159440476Y-103314761D01*
X159392857Y-103314761D01*
X159297619Y-103267142D01*
X159250000Y-103219523D01*
X159202380Y-103124285D01*
X159202380Y-102933809D01*
X159250000Y-102838571D01*
X159297619Y-102790952D01*
X159392857Y-102743333D01*
X159440476Y-102743333D01*
X159535714Y-102790952D01*
X159583333Y-102838571D01*
X159630952Y-102933809D01*
X159630952Y-103124285D01*
X159678571Y-103219523D01*
X159726190Y-103267142D01*
X159821428Y-103314761D01*
X160011904Y-103314761D01*
X160107142Y-103267142D01*
X160154761Y-103219523D01*
X160202380Y-103124285D01*
X160202380Y-102933809D01*
X160154761Y-102838571D01*
X160107142Y-102790952D01*
X160011904Y-102743333D01*
X159821428Y-102743333D01*
X159726190Y-102790952D01*
X159678571Y-102838571D01*
X159630952Y-102933809D01*
X151702380Y-91790952D02*
X152702380Y-91457619D01*
X151702380Y-91124285D01*
X151702380Y-90600476D02*
X151702380Y-90410000D01*
X151750000Y-90314761D01*
X151845238Y-90219523D01*
X152035714Y-90171904D01*
X152369047Y-90171904D01*
X152559523Y-90219523D01*
X152654761Y-90314761D01*
X152702380Y-90410000D01*
X152702380Y-90600476D01*
X152654761Y-90695714D01*
X152559523Y-90790952D01*
X152369047Y-90838571D01*
X152035714Y-90838571D01*
X151845238Y-90790952D01*
X151750000Y-90695714D01*
X151702380Y-90600476D01*
X151702380Y-89743333D02*
X152511904Y-89743333D01*
X152607142Y-89695714D01*
X152654761Y-89648095D01*
X152702380Y-89552857D01*
X152702380Y-89362380D01*
X152654761Y-89267142D01*
X152607142Y-89219523D01*
X152511904Y-89171904D01*
X151702380Y-89171904D01*
X151702380Y-88838571D02*
X151702380Y-88267142D01*
X152702380Y-88552857D02*
X151702380Y-88552857D01*
X152321428Y-87933809D02*
X152321428Y-87171904D01*
X164702380Y-121124285D02*
X165702380Y-120790952D01*
X164702380Y-120457619D01*
X165702380Y-120124285D02*
X164702380Y-120124285D01*
X165702380Y-119648095D02*
X164702380Y-119648095D01*
X165702380Y-119076666D01*
X164702380Y-119076666D01*
X165321428Y-118600476D02*
X165321428Y-117838571D01*
X165702380Y-118219523D02*
X164940476Y-118219523D01*
X151702380Y-121124285D02*
X152702380Y-120790952D01*
X151702380Y-120457619D01*
X152702380Y-120124285D02*
X151702380Y-120124285D01*
X152702380Y-119648095D02*
X151702380Y-119648095D01*
X152702380Y-119076666D01*
X151702380Y-119076666D01*
X152321428Y-118600476D02*
X152321428Y-117838571D01*
X164702380Y-91790952D02*
X165702380Y-91457619D01*
X164702380Y-91124285D01*
X164702380Y-90600476D02*
X164702380Y-90410000D01*
X164750000Y-90314761D01*
X164845238Y-90219523D01*
X165035714Y-90171904D01*
X165369047Y-90171904D01*
X165559523Y-90219523D01*
X165654761Y-90314761D01*
X165702380Y-90410000D01*
X165702380Y-90600476D01*
X165654761Y-90695714D01*
X165559523Y-90790952D01*
X165369047Y-90838571D01*
X165035714Y-90838571D01*
X164845238Y-90790952D01*
X164750000Y-90695714D01*
X164702380Y-90600476D01*
X164702380Y-89743333D02*
X165511904Y-89743333D01*
X165607142Y-89695714D01*
X165654761Y-89648095D01*
X165702380Y-89552857D01*
X165702380Y-89362380D01*
X165654761Y-89267142D01*
X165607142Y-89219523D01*
X165511904Y-89171904D01*
X164702380Y-89171904D01*
X164702380Y-88838571D02*
X164702380Y-88267142D01*
X165702380Y-88552857D02*
X164702380Y-88552857D01*
X165321428Y-87933809D02*
X165321428Y-87171904D01*
X165702380Y-87552857D02*
X164940476Y-87552857D01*
X175133095Y-135342380D02*
X175133095Y-136151904D01*
X175180714Y-136247142D01*
X175228333Y-136294761D01*
X175323571Y-136342380D01*
X175514047Y-136342380D01*
X175609285Y-136294761D01*
X175656904Y-136247142D01*
X175704523Y-136151904D01*
X175704523Y-135342380D01*
X176704523Y-136342380D02*
X176133095Y-136342380D01*
X176418809Y-136342380D02*
X176418809Y-135342380D01*
X176323571Y-135485238D01*
X176228333Y-135580476D01*
X176133095Y-135628095D01*
X173204523Y-139152380D02*
X173775952Y-139152380D01*
X173490238Y-140152380D02*
X173490238Y-139152380D01*
X174109285Y-140152380D02*
X174109285Y-139152380D01*
X174490238Y-139152380D01*
X174585476Y-139200000D01*
X174633095Y-139247619D01*
X174680714Y-139342857D01*
X174680714Y-139485714D01*
X174633095Y-139580952D01*
X174585476Y-139628571D01*
X174490238Y-139676190D01*
X174109285Y-139676190D01*
X175537857Y-139485714D02*
X175537857Y-140152380D01*
X175299761Y-139104761D02*
X175061666Y-139819047D01*
X175680714Y-139819047D01*
X176252142Y-139152380D02*
X176347380Y-139152380D01*
X176442619Y-139200000D01*
X176490238Y-139247619D01*
X176537857Y-139342857D01*
X176585476Y-139533333D01*
X176585476Y-139771428D01*
X176537857Y-139961904D01*
X176490238Y-140057142D01*
X176442619Y-140104761D01*
X176347380Y-140152380D01*
X176252142Y-140152380D01*
X176156904Y-140104761D01*
X176109285Y-140057142D01*
X176061666Y-139961904D01*
X176014047Y-139771428D01*
X176014047Y-139533333D01*
X176061666Y-139342857D01*
X176109285Y-139247619D01*
X176156904Y-139200000D01*
X176252142Y-139152380D01*
X177490238Y-139152380D02*
X177014047Y-139152380D01*
X176966428Y-139628571D01*
X177014047Y-139580952D01*
X177109285Y-139533333D01*
X177347380Y-139533333D01*
X177442619Y-139580952D01*
X177490238Y-139628571D01*
X177537857Y-139723809D01*
X177537857Y-139961904D01*
X177490238Y-140057142D01*
X177442619Y-140104761D01*
X177347380Y-140152380D01*
X177109285Y-140152380D01*
X177014047Y-140104761D01*
X176966428Y-140057142D01*
X178395000Y-139152380D02*
X178204523Y-139152380D01*
X178109285Y-139200000D01*
X178061666Y-139247619D01*
X177966428Y-139390476D01*
X177918809Y-139580952D01*
X177918809Y-139961904D01*
X177966428Y-140057142D01*
X178014047Y-140104761D01*
X178109285Y-140152380D01*
X178299761Y-140152380D01*
X178395000Y-140104761D01*
X178442619Y-140057142D01*
X178490238Y-139961904D01*
X178490238Y-139723809D01*
X178442619Y-139628571D01*
X178395000Y-139580952D01*
X178299761Y-139533333D01*
X178109285Y-139533333D01*
X178014047Y-139580952D01*
X177966428Y-139628571D01*
X177918809Y-139723809D01*
X182710857Y-138261380D02*
X182710857Y-137594714D01*
X182710857Y-137689952D02*
X182758476Y-137642333D01*
X182853714Y-137594714D01*
X182996571Y-137594714D01*
X183091809Y-137642333D01*
X183139428Y-137737571D01*
X183139428Y-138261380D01*
X183139428Y-137737571D02*
X183187047Y-137642333D01*
X183282285Y-137594714D01*
X183425142Y-137594714D01*
X183520380Y-137642333D01*
X183568000Y-137737571D01*
X183568000Y-138261380D01*
X184044190Y-138261380D02*
X184044190Y-137594714D01*
X184044190Y-137261380D02*
X183996571Y-137309000D01*
X184044190Y-137356619D01*
X184091809Y-137309000D01*
X184044190Y-137261380D01*
X184044190Y-137356619D01*
X184948952Y-138213761D02*
X184853714Y-138261380D01*
X184663238Y-138261380D01*
X184568000Y-138213761D01*
X184520380Y-138166142D01*
X184472761Y-138070904D01*
X184472761Y-137785190D01*
X184520380Y-137689952D01*
X184568000Y-137642333D01*
X184663238Y-137594714D01*
X184853714Y-137594714D01*
X184948952Y-137642333D01*
X185377523Y-138261380D02*
X185377523Y-137594714D01*
X185377523Y-137785190D02*
X185425142Y-137689952D01*
X185472761Y-137642333D01*
X185568000Y-137594714D01*
X185663238Y-137594714D01*
X186139428Y-138261380D02*
X186044190Y-138213761D01*
X185996571Y-138166142D01*
X185948952Y-138070904D01*
X185948952Y-137785190D01*
X185996571Y-137689952D01*
X186044190Y-137642333D01*
X186139428Y-137594714D01*
X186282285Y-137594714D01*
X186377523Y-137642333D01*
X186425142Y-137689952D01*
X186472761Y-137785190D01*
X186472761Y-138070904D01*
X186425142Y-138166142D01*
X186377523Y-138213761D01*
X186282285Y-138261380D01*
X186139428Y-138261380D01*
X186901333Y-137261380D02*
X186901333Y-138070904D01*
X186948952Y-138166142D01*
X186996571Y-138213761D01*
X187091809Y-138261380D01*
X187282285Y-138261380D01*
X187377523Y-138213761D01*
X187425142Y-138166142D01*
X187472761Y-138070904D01*
X187472761Y-137261380D01*
X187901333Y-138213761D02*
X188044190Y-138261380D01*
X188282285Y-138261380D01*
X188377523Y-138213761D01*
X188425142Y-138166142D01*
X188472761Y-138070904D01*
X188472761Y-137975666D01*
X188425142Y-137880428D01*
X188377523Y-137832809D01*
X188282285Y-137785190D01*
X188091809Y-137737571D01*
X187996571Y-137689952D01*
X187948952Y-137642333D01*
X187901333Y-137547095D01*
X187901333Y-137451857D01*
X187948952Y-137356619D01*
X187996571Y-137309000D01*
X188091809Y-137261380D01*
X188329904Y-137261380D01*
X188472761Y-137309000D01*
X189234666Y-137737571D02*
X189377523Y-137785190D01*
X189425142Y-137832809D01*
X189472761Y-137928047D01*
X189472761Y-138070904D01*
X189425142Y-138166142D01*
X189377523Y-138213761D01*
X189282285Y-138261380D01*
X188901333Y-138261380D01*
X188901333Y-137261380D01*
X189234666Y-137261380D01*
X189329904Y-137309000D01*
X189377523Y-137356619D01*
X189425142Y-137451857D01*
X189425142Y-137547095D01*
X189377523Y-137642333D01*
X189329904Y-137689952D01*
X189234666Y-137737571D01*
X188901333Y-137737571D01*
X165308380Y-136433571D02*
X165451238Y-136481190D01*
X165498857Y-136528809D01*
X165546476Y-136624047D01*
X165546476Y-136766904D01*
X165498857Y-136862142D01*
X165451238Y-136909761D01*
X165356000Y-136957380D01*
X164975047Y-136957380D01*
X164975047Y-135957380D01*
X165308380Y-135957380D01*
X165403619Y-136005000D01*
X165451238Y-136052619D01*
X165498857Y-136147857D01*
X165498857Y-136243095D01*
X165451238Y-136338333D01*
X165403619Y-136385952D01*
X165308380Y-136433571D01*
X164975047Y-136433571D01*
X165975047Y-136576428D02*
X166736952Y-136576428D01*
X165308380Y-139735571D02*
X165451238Y-139783190D01*
X165498857Y-139830809D01*
X165546476Y-139926047D01*
X165546476Y-140068904D01*
X165498857Y-140164142D01*
X165451238Y-140211761D01*
X165356000Y-140259380D01*
X164975047Y-140259380D01*
X164975047Y-139259380D01*
X165308380Y-139259380D01*
X165403619Y-139307000D01*
X165451238Y-139354619D01*
X165498857Y-139449857D01*
X165498857Y-139545095D01*
X165451238Y-139640333D01*
X165403619Y-139687952D01*
X165308380Y-139735571D01*
X164975047Y-139735571D01*
X165975047Y-139878428D02*
X166736952Y-139878428D01*
X166356000Y-140259380D02*
X166356000Y-139497476D01*
X167720952Y-130691380D02*
X167911428Y-130691380D01*
X168006666Y-130739000D01*
X168101904Y-130834238D01*
X168149523Y-131024714D01*
X168149523Y-131358047D01*
X168101904Y-131548523D01*
X168006666Y-131643761D01*
X167911428Y-131691380D01*
X167720952Y-131691380D01*
X167625714Y-131643761D01*
X167530476Y-131548523D01*
X167482857Y-131358047D01*
X167482857Y-131024714D01*
X167530476Y-130834238D01*
X167625714Y-130739000D01*
X167720952Y-130691380D01*
X168578095Y-130691380D02*
X168578095Y-131500904D01*
X168625714Y-131596142D01*
X168673333Y-131643761D01*
X168768571Y-131691380D01*
X168959047Y-131691380D01*
X169054285Y-131643761D01*
X169101904Y-131596142D01*
X169149523Y-131500904D01*
X169149523Y-130691380D01*
X169482857Y-130691380D02*
X170054285Y-130691380D01*
X169768571Y-131691380D02*
X169768571Y-130691380D01*
X170387619Y-131310428D02*
X171149523Y-131310428D01*
X168040952Y-143595380D02*
X168231428Y-143595380D01*
X168326666Y-143643000D01*
X168421904Y-143738238D01*
X168469523Y-143928714D01*
X168469523Y-144262047D01*
X168421904Y-144452523D01*
X168326666Y-144547761D01*
X168231428Y-144595380D01*
X168040952Y-144595380D01*
X167945714Y-144547761D01*
X167850476Y-144452523D01*
X167802857Y-144262047D01*
X167802857Y-143928714D01*
X167850476Y-143738238D01*
X167945714Y-143643000D01*
X168040952Y-143595380D01*
X168898095Y-143595380D02*
X168898095Y-144404904D01*
X168945714Y-144500142D01*
X168993333Y-144547761D01*
X169088571Y-144595380D01*
X169279047Y-144595380D01*
X169374285Y-144547761D01*
X169421904Y-144500142D01*
X169469523Y-144404904D01*
X169469523Y-143595380D01*
X169802857Y-143595380D02*
X170374285Y-143595380D01*
X170088571Y-144595380D02*
X170088571Y-143595380D01*
X170707619Y-144214428D02*
X171469523Y-144214428D01*
X171088571Y-144595380D02*
X171088571Y-143833476D01*
X182287142Y-131487380D02*
X182287142Y-130487380D01*
X182763333Y-131487380D02*
X182763333Y-130487380D01*
X183334761Y-131487380D01*
X183334761Y-130487380D01*
X183810952Y-131106428D02*
X184572857Y-131106428D01*
X182817142Y-144377380D02*
X182817142Y-143377380D01*
X183293333Y-144377380D02*
X183293333Y-143377380D01*
X183864761Y-144377380D01*
X183864761Y-143377380D01*
X184340952Y-143996428D02*
X185102857Y-143996428D01*
X184721904Y-144377380D02*
X184721904Y-143615476D01*
X130004285Y-141793571D02*
X130147142Y-141841190D01*
X130194761Y-141888809D01*
X130242380Y-141984047D01*
X130242380Y-142126904D01*
X130194761Y-142222142D01*
X130147142Y-142269761D01*
X130051904Y-142317380D01*
X129670952Y-142317380D01*
X129670952Y-141317380D01*
X130004285Y-141317380D01*
X130099523Y-141365000D01*
X130147142Y-141412619D01*
X130194761Y-141507857D01*
X130194761Y-141603095D01*
X130147142Y-141698333D01*
X130099523Y-141745952D01*
X130004285Y-141793571D01*
X129670952Y-141793571D01*
X130528095Y-141317380D02*
X131099523Y-141317380D01*
X130813809Y-142317380D02*
X130813809Y-141317380D01*
X131956666Y-142317380D02*
X131385238Y-142317380D01*
X131670952Y-142317380D02*
X131670952Y-141317380D01*
X131575714Y-141460238D01*
X131480476Y-141555476D01*
X131385238Y-141603095D01*
X124313809Y-149467380D02*
X124932857Y-149467380D01*
X124599523Y-149848333D01*
X124742380Y-149848333D01*
X124837619Y-149895952D01*
X124885238Y-149943571D01*
X124932857Y-150038809D01*
X124932857Y-150276904D01*
X124885238Y-150372142D01*
X124837619Y-150419761D01*
X124742380Y-150467380D01*
X124456666Y-150467380D01*
X124361428Y-150419761D01*
X124313809Y-150372142D01*
X125361428Y-150372142D02*
X125409047Y-150419761D01*
X125361428Y-150467380D01*
X125313809Y-150419761D01*
X125361428Y-150372142D01*
X125361428Y-150467380D01*
X125742380Y-149467380D02*
X126409047Y-149467380D01*
X125980476Y-150467380D01*
X126647142Y-149467380D02*
X126980476Y-150467380D01*
X127313809Y-149467380D01*
X128885238Y-150467380D02*
X128409047Y-150467380D01*
X128409047Y-149467380D01*
X129218571Y-150467380D02*
X129218571Y-149800714D01*
X129218571Y-149467380D02*
X129170952Y-149515000D01*
X129218571Y-149562619D01*
X129266190Y-149515000D01*
X129218571Y-149467380D01*
X129218571Y-149562619D01*
X129694761Y-150467380D02*
X129694761Y-149467380D01*
X130075714Y-149467380D01*
X130170952Y-149515000D01*
X130218571Y-149562619D01*
X130266190Y-149657857D01*
X130266190Y-149800714D01*
X130218571Y-149895952D01*
X130170952Y-149943571D01*
X130075714Y-149991190D01*
X129694761Y-149991190D01*
X130837619Y-150467380D02*
X130742380Y-150419761D01*
X130694761Y-150372142D01*
X130647142Y-150276904D01*
X130647142Y-149991190D01*
X130694761Y-149895952D01*
X130742380Y-149848333D01*
X130837619Y-149800714D01*
X130980476Y-149800714D01*
X131075714Y-149848333D01*
X131123333Y-149895952D01*
X131170952Y-149991190D01*
X131170952Y-150276904D01*
X131123333Y-150372142D01*
X131075714Y-150419761D01*
X130980476Y-150467380D01*
X130837619Y-150467380D01*
X132694761Y-149943571D02*
X132837619Y-149991190D01*
X132885238Y-150038809D01*
X132932857Y-150134047D01*
X132932857Y-150276904D01*
X132885238Y-150372142D01*
X132837619Y-150419761D01*
X132742380Y-150467380D01*
X132361428Y-150467380D01*
X132361428Y-149467380D01*
X132694761Y-149467380D01*
X132790000Y-149515000D01*
X132837619Y-149562619D01*
X132885238Y-149657857D01*
X132885238Y-149753095D01*
X132837619Y-149848333D01*
X132790000Y-149895952D01*
X132694761Y-149943571D01*
X132361428Y-149943571D01*
X133790000Y-150467380D02*
X133790000Y-149943571D01*
X133742380Y-149848333D01*
X133647142Y-149800714D01*
X133456666Y-149800714D01*
X133361428Y-149848333D01*
X133790000Y-150419761D02*
X133694761Y-150467380D01*
X133456666Y-150467380D01*
X133361428Y-150419761D01*
X133313809Y-150324523D01*
X133313809Y-150229285D01*
X133361428Y-150134047D01*
X133456666Y-150086428D01*
X133694761Y-150086428D01*
X133790000Y-150038809D01*
X134123333Y-149800714D02*
X134504285Y-149800714D01*
X134266190Y-149467380D02*
X134266190Y-150324523D01*
X134313809Y-150419761D01*
X134409047Y-150467380D01*
X134504285Y-150467380D01*
X134694761Y-149800714D02*
X135075714Y-149800714D01*
X134837619Y-149467380D02*
X134837619Y-150324523D01*
X134885238Y-150419761D01*
X134980476Y-150467380D01*
X135075714Y-150467380D01*
X135790000Y-150419761D02*
X135694761Y-150467380D01*
X135504285Y-150467380D01*
X135409047Y-150419761D01*
X135361428Y-150324523D01*
X135361428Y-149943571D01*
X135409047Y-149848333D01*
X135504285Y-149800714D01*
X135694761Y-149800714D01*
X135790000Y-149848333D01*
X135837619Y-149943571D01*
X135837619Y-150038809D01*
X135361428Y-150134047D01*
X136266190Y-150467380D02*
X136266190Y-149800714D01*
X136266190Y-149991190D02*
X136313809Y-149895952D01*
X136361428Y-149848333D01*
X136456666Y-149800714D01*
X136551904Y-149800714D01*
X136790000Y-149800714D02*
X137028095Y-150467380D01*
X137266190Y-149800714D02*
X137028095Y-150467380D01*
X136932857Y-150705476D01*
X136885238Y-150753095D01*
X136790000Y-150800714D01*
X175712619Y-82367380D02*
X175712619Y-81367380D01*
X176141190Y-81462619D02*
X176188809Y-81415000D01*
X176284047Y-81367380D01*
X176522142Y-81367380D01*
X176617380Y-81415000D01*
X176665000Y-81462619D01*
X176712619Y-81557857D01*
X176712619Y-81653095D01*
X176665000Y-81795952D01*
X176093571Y-82367380D01*
X176712619Y-82367380D01*
X177712619Y-82272142D02*
X177665000Y-82319761D01*
X177522142Y-82367380D01*
X177426904Y-82367380D01*
X177284047Y-82319761D01*
X177188809Y-82224523D01*
X177141190Y-82129285D01*
X177093571Y-81938809D01*
X177093571Y-81795952D01*
X177141190Y-81605476D01*
X177188809Y-81510238D01*
X177284047Y-81415000D01*
X177426904Y-81367380D01*
X177522142Y-81367380D01*
X177665000Y-81415000D01*
X177712619Y-81462619D01*
X178665000Y-82367380D02*
X178093571Y-82367380D01*
X178379285Y-82367380D02*
X178379285Y-81367380D01*
X178284047Y-81510238D01*
X178188809Y-81605476D01*
X178093571Y-81653095D01*
X171267380Y-104060000D02*
X170267380Y-104060000D01*
X170362619Y-103631428D02*
X170315000Y-103583809D01*
X170267380Y-103488571D01*
X170267380Y-103250476D01*
X170315000Y-103155238D01*
X170362619Y-103107619D01*
X170457857Y-103060000D01*
X170553095Y-103060000D01*
X170695952Y-103107619D01*
X171267380Y-103679047D01*
X171267380Y-103060000D01*
X171172142Y-102060000D02*
X171219761Y-102107619D01*
X171267380Y-102250476D01*
X171267380Y-102345714D01*
X171219761Y-102488571D01*
X171124523Y-102583809D01*
X171029285Y-102631428D01*
X170838809Y-102679047D01*
X170695952Y-102679047D01*
X170505476Y-102631428D01*
X170410238Y-102583809D01*
X170315000Y-102488571D01*
X170267380Y-102345714D01*
X170267380Y-102250476D01*
X170315000Y-102107619D01*
X170362619Y-102060000D01*
X170886428Y-101631428D02*
X170886428Y-100869523D01*
X171267380Y-100393333D02*
X170267380Y-100393333D01*
X170267380Y-100012380D01*
X170315000Y-99917142D01*
X170362619Y-99869523D01*
X170457857Y-99821904D01*
X170600714Y-99821904D01*
X170695952Y-99869523D01*
X170743571Y-99917142D01*
X170791190Y-100012380D01*
X170791190Y-100393333D01*
X171267380Y-98964761D02*
X170743571Y-98964761D01*
X170648333Y-99012380D01*
X170600714Y-99107619D01*
X170600714Y-99298095D01*
X170648333Y-99393333D01*
X171219761Y-98964761D02*
X171267380Y-99060000D01*
X171267380Y-99298095D01*
X171219761Y-99393333D01*
X171124523Y-99440952D01*
X171029285Y-99440952D01*
X170934047Y-99393333D01*
X170886428Y-99298095D01*
X170886428Y-99060000D01*
X170838809Y-98964761D01*
X171267380Y-98488571D02*
X170600714Y-98488571D01*
X170791190Y-98488571D02*
X170695952Y-98440952D01*
X170648333Y-98393333D01*
X170600714Y-98298095D01*
X170600714Y-98202857D01*
X171267380Y-97440952D02*
X170743571Y-97440952D01*
X170648333Y-97488571D01*
X170600714Y-97583809D01*
X170600714Y-97774285D01*
X170648333Y-97869523D01*
X171219761Y-97440952D02*
X171267380Y-97536190D01*
X171267380Y-97774285D01*
X171219761Y-97869523D01*
X171124523Y-97917142D01*
X171029285Y-97917142D01*
X170934047Y-97869523D01*
X170886428Y-97774285D01*
X170886428Y-97536190D01*
X170838809Y-97440952D01*
X171267380Y-96821904D02*
X171219761Y-96917142D01*
X171124523Y-96964761D01*
X170267380Y-96964761D01*
X171267380Y-96298095D02*
X171219761Y-96393333D01*
X171124523Y-96440952D01*
X170267380Y-96440952D01*
X171219761Y-95536190D02*
X171267380Y-95631428D01*
X171267380Y-95821904D01*
X171219761Y-95917142D01*
X171124523Y-95964761D01*
X170743571Y-95964761D01*
X170648333Y-95917142D01*
X170600714Y-95821904D01*
X170600714Y-95631428D01*
X170648333Y-95536190D01*
X170743571Y-95488571D01*
X170838809Y-95488571D01*
X170934047Y-95964761D01*
X171267380Y-94917142D02*
X171219761Y-95012380D01*
X171124523Y-95060000D01*
X170267380Y-95060000D01*
X171267380Y-94012380D02*
X171267380Y-94583809D01*
X171267380Y-94298095D02*
X170267380Y-94298095D01*
X170410238Y-94393333D01*
X170505476Y-94488571D01*
X170553095Y-94583809D01*
X126352380Y-86526666D02*
X125876190Y-86860000D01*
X126352380Y-87098095D02*
X125352380Y-87098095D01*
X125352380Y-86717142D01*
X125400000Y-86621904D01*
X125447619Y-86574285D01*
X125542857Y-86526666D01*
X125685714Y-86526666D01*
X125780952Y-86574285D01*
X125828571Y-86621904D01*
X125876190Y-86717142D01*
X125876190Y-87098095D01*
X126352380Y-85574285D02*
X126352380Y-86145714D01*
X126352380Y-85860000D02*
X125352380Y-85860000D01*
X125495238Y-85955238D01*
X125590476Y-86050476D01*
X125638095Y-86145714D01*
X131092380Y-87026666D02*
X131092380Y-87598095D01*
X131092380Y-87312380D02*
X130092380Y-87312380D01*
X130235238Y-87407619D01*
X130330476Y-87502857D01*
X130378095Y-87598095D01*
X130092380Y-86121904D02*
X130092380Y-86598095D01*
X130568571Y-86645714D01*
X130520952Y-86598095D01*
X130473333Y-86502857D01*
X130473333Y-86264761D01*
X130520952Y-86169523D01*
X130568571Y-86121904D01*
X130663809Y-86074285D01*
X130901904Y-86074285D01*
X130997142Y-86121904D01*
X131044761Y-86169523D01*
X131092380Y-86264761D01*
X131092380Y-86502857D01*
X131044761Y-86598095D01*
X130997142Y-86645714D01*
X130092380Y-85455238D02*
X130092380Y-85360000D01*
X130140000Y-85264761D01*
X130187619Y-85217142D01*
X130282857Y-85169523D01*
X130473333Y-85121904D01*
X130711428Y-85121904D01*
X130901904Y-85169523D01*
X130997142Y-85217142D01*
X131044761Y-85264761D01*
X131092380Y-85360000D01*
X131092380Y-85455238D01*
X131044761Y-85550476D01*
X130997142Y-85598095D01*
X130901904Y-85645714D01*
X130711428Y-85693333D01*
X130473333Y-85693333D01*
X130282857Y-85645714D01*
X130187619Y-85598095D01*
X130140000Y-85550476D01*
X130092380Y-85455238D01*
X120002380Y-86526666D02*
X119526190Y-86860000D01*
X120002380Y-87098095D02*
X119002380Y-87098095D01*
X119002380Y-86717142D01*
X119050000Y-86621904D01*
X119097619Y-86574285D01*
X119192857Y-86526666D01*
X119335714Y-86526666D01*
X119430952Y-86574285D01*
X119478571Y-86621904D01*
X119526190Y-86717142D01*
X119526190Y-87098095D01*
X119097619Y-86145714D02*
X119050000Y-86098095D01*
X119002380Y-86002857D01*
X119002380Y-85764761D01*
X119050000Y-85669523D01*
X119097619Y-85621904D01*
X119192857Y-85574285D01*
X119288095Y-85574285D01*
X119430952Y-85621904D01*
X120002380Y-86193333D01*
X120002380Y-85574285D01*
X124742380Y-87026666D02*
X124742380Y-87598095D01*
X124742380Y-87312380D02*
X123742380Y-87312380D01*
X123885238Y-87407619D01*
X123980476Y-87502857D01*
X124028095Y-87598095D01*
X123837619Y-86645714D02*
X123790000Y-86598095D01*
X123742380Y-86502857D01*
X123742380Y-86264761D01*
X123790000Y-86169523D01*
X123837619Y-86121904D01*
X123932857Y-86074285D01*
X124028095Y-86074285D01*
X124170952Y-86121904D01*
X124742380Y-86693333D01*
X124742380Y-86074285D01*
X123742380Y-85455238D02*
X123742380Y-85360000D01*
X123790000Y-85264761D01*
X123837619Y-85217142D01*
X123932857Y-85169523D01*
X124123333Y-85121904D01*
X124361428Y-85121904D01*
X124551904Y-85169523D01*
X124647142Y-85217142D01*
X124694761Y-85264761D01*
X124742380Y-85360000D01*
X124742380Y-85455238D01*
X124694761Y-85550476D01*
X124647142Y-85598095D01*
X124551904Y-85645714D01*
X124361428Y-85693333D01*
X124123333Y-85693333D01*
X123932857Y-85645714D01*
X123837619Y-85598095D01*
X123790000Y-85550476D01*
X123742380Y-85455238D01*
X113652380Y-86526666D02*
X113176190Y-86860000D01*
X113652380Y-87098095D02*
X112652380Y-87098095D01*
X112652380Y-86717142D01*
X112700000Y-86621904D01*
X112747619Y-86574285D01*
X112842857Y-86526666D01*
X112985714Y-86526666D01*
X113080952Y-86574285D01*
X113128571Y-86621904D01*
X113176190Y-86717142D01*
X113176190Y-87098095D01*
X112652380Y-86193333D02*
X112652380Y-85574285D01*
X113033333Y-85907619D01*
X113033333Y-85764761D01*
X113080952Y-85669523D01*
X113128571Y-85621904D01*
X113223809Y-85574285D01*
X113461904Y-85574285D01*
X113557142Y-85621904D01*
X113604761Y-85669523D01*
X113652380Y-85764761D01*
X113652380Y-86050476D01*
X113604761Y-86145714D01*
X113557142Y-86193333D01*
X118392380Y-87026666D02*
X118392380Y-87598095D01*
X118392380Y-87312380D02*
X117392380Y-87312380D01*
X117535238Y-87407619D01*
X117630476Y-87502857D01*
X117678095Y-87598095D01*
X117392380Y-86407619D02*
X117392380Y-86312380D01*
X117440000Y-86217142D01*
X117487619Y-86169523D01*
X117582857Y-86121904D01*
X117773333Y-86074285D01*
X118011428Y-86074285D01*
X118201904Y-86121904D01*
X118297142Y-86169523D01*
X118344761Y-86217142D01*
X118392380Y-86312380D01*
X118392380Y-86407619D01*
X118344761Y-86502857D01*
X118297142Y-86550476D01*
X118201904Y-86598095D01*
X118011428Y-86645714D01*
X117773333Y-86645714D01*
X117582857Y-86598095D01*
X117487619Y-86550476D01*
X117440000Y-86502857D01*
X117392380Y-86407619D01*
X117392380Y-85455238D02*
X117392380Y-85360000D01*
X117440000Y-85264761D01*
X117487619Y-85217142D01*
X117582857Y-85169523D01*
X117773333Y-85121904D01*
X118011428Y-85121904D01*
X118201904Y-85169523D01*
X118297142Y-85217142D01*
X118344761Y-85264761D01*
X118392380Y-85360000D01*
X118392380Y-85455238D01*
X118344761Y-85550476D01*
X118297142Y-85598095D01*
X118201904Y-85645714D01*
X118011428Y-85693333D01*
X117773333Y-85693333D01*
X117582857Y-85645714D01*
X117487619Y-85598095D01*
X117440000Y-85550476D01*
X117392380Y-85455238D01*
X132702380Y-86526666D02*
X132226190Y-86860000D01*
X132702380Y-87098095D02*
X131702380Y-87098095D01*
X131702380Y-86717142D01*
X131750000Y-86621904D01*
X131797619Y-86574285D01*
X131892857Y-86526666D01*
X132035714Y-86526666D01*
X132130952Y-86574285D01*
X132178571Y-86621904D01*
X132226190Y-86717142D01*
X132226190Y-87098095D01*
X132035714Y-85669523D02*
X132702380Y-85669523D01*
X131654761Y-85907619D02*
X132369047Y-86145714D01*
X132369047Y-85526666D01*
X137442380Y-87026666D02*
X137442380Y-87598095D01*
X137442380Y-87312380D02*
X136442380Y-87312380D01*
X136585238Y-87407619D01*
X136680476Y-87502857D01*
X136728095Y-87598095D01*
X136442380Y-86407619D02*
X136442380Y-86312380D01*
X136490000Y-86217142D01*
X136537619Y-86169523D01*
X136632857Y-86121904D01*
X136823333Y-86074285D01*
X137061428Y-86074285D01*
X137251904Y-86121904D01*
X137347142Y-86169523D01*
X137394761Y-86217142D01*
X137442380Y-86312380D01*
X137442380Y-86407619D01*
X137394761Y-86502857D01*
X137347142Y-86550476D01*
X137251904Y-86598095D01*
X137061428Y-86645714D01*
X136823333Y-86645714D01*
X136632857Y-86598095D01*
X136537619Y-86550476D01*
X136490000Y-86502857D01*
X136442380Y-86407619D01*
X136442380Y-85455238D02*
X136442380Y-85360000D01*
X136490000Y-85264761D01*
X136537619Y-85217142D01*
X136632857Y-85169523D01*
X136823333Y-85121904D01*
X137061428Y-85121904D01*
X137251904Y-85169523D01*
X137347142Y-85217142D01*
X137394761Y-85264761D01*
X137442380Y-85360000D01*
X137442380Y-85455238D01*
X137394761Y-85550476D01*
X137347142Y-85598095D01*
X137251904Y-85645714D01*
X137061428Y-85693333D01*
X136823333Y-85693333D01*
X136632857Y-85645714D01*
X136537619Y-85598095D01*
X136490000Y-85550476D01*
X136442380Y-85455238D01*
X123812380Y-132881666D02*
X123336190Y-133215000D01*
X123812380Y-133453095D02*
X122812380Y-133453095D01*
X122812380Y-133072142D01*
X122860000Y-132976904D01*
X122907619Y-132929285D01*
X123002857Y-132881666D01*
X123145714Y-132881666D01*
X123240952Y-132929285D01*
X123288571Y-132976904D01*
X123336190Y-133072142D01*
X123336190Y-133453095D01*
X122812380Y-131976904D02*
X122812380Y-132453095D01*
X123288571Y-132500714D01*
X123240952Y-132453095D01*
X123193333Y-132357857D01*
X123193333Y-132119761D01*
X123240952Y-132024523D01*
X123288571Y-131976904D01*
X123383809Y-131929285D01*
X123621904Y-131929285D01*
X123717142Y-131976904D01*
X123764761Y-132024523D01*
X123812380Y-132119761D01*
X123812380Y-132357857D01*
X123764761Y-132453095D01*
X123717142Y-132500714D01*
X128552380Y-133786428D02*
X128552380Y-134357857D01*
X128552380Y-134072142D02*
X127552380Y-134072142D01*
X127695238Y-134167380D01*
X127790476Y-134262619D01*
X127838095Y-134357857D01*
X127552380Y-133167380D02*
X127552380Y-133072142D01*
X127600000Y-132976904D01*
X127647619Y-132929285D01*
X127742857Y-132881666D01*
X127933333Y-132834047D01*
X128171428Y-132834047D01*
X128361904Y-132881666D01*
X128457142Y-132929285D01*
X128504761Y-132976904D01*
X128552380Y-133072142D01*
X128552380Y-133167380D01*
X128504761Y-133262619D01*
X128457142Y-133310238D01*
X128361904Y-133357857D01*
X128171428Y-133405476D01*
X127933333Y-133405476D01*
X127742857Y-133357857D01*
X127647619Y-133310238D01*
X127600000Y-133262619D01*
X127552380Y-133167380D01*
X127552380Y-132215000D02*
X127552380Y-132119761D01*
X127600000Y-132024523D01*
X127647619Y-131976904D01*
X127742857Y-131929285D01*
X127933333Y-131881666D01*
X128171428Y-131881666D01*
X128361904Y-131929285D01*
X128457142Y-131976904D01*
X128504761Y-132024523D01*
X128552380Y-132119761D01*
X128552380Y-132215000D01*
X128504761Y-132310238D01*
X128457142Y-132357857D01*
X128361904Y-132405476D01*
X128171428Y-132453095D01*
X127933333Y-132453095D01*
X127742857Y-132405476D01*
X127647619Y-132357857D01*
X127600000Y-132310238D01*
X127552380Y-132215000D01*
X128552380Y-131453095D02*
X127552380Y-131453095D01*
X128171428Y-131357857D02*
X128552380Y-131072142D01*
X127885714Y-131072142D02*
X128266666Y-131453095D01*
X117694761Y-143118333D02*
X117742380Y-142975476D01*
X117742380Y-142737380D01*
X117694761Y-142642142D01*
X117647142Y-142594523D01*
X117551904Y-142546904D01*
X117456666Y-142546904D01*
X117361428Y-142594523D01*
X117313809Y-142642142D01*
X117266190Y-142737380D01*
X117218571Y-142927857D01*
X117170952Y-143023095D01*
X117123333Y-143070714D01*
X117028095Y-143118333D01*
X116932857Y-143118333D01*
X116837619Y-143070714D01*
X116790000Y-143023095D01*
X116742380Y-142927857D01*
X116742380Y-142689761D01*
X116790000Y-142546904D01*
X116742380Y-142213571D02*
X117742380Y-141975476D01*
X117028095Y-141785000D01*
X117742380Y-141594523D01*
X116742380Y-141356428D01*
X117742380Y-140451666D02*
X117742380Y-141023095D01*
X117742380Y-140737380D02*
X116742380Y-140737380D01*
X116885238Y-140832619D01*
X116980476Y-140927857D01*
X117028095Y-141023095D01*
%LPC*%
D12*
X121920000Y-121285000D03*
D13*
X119380000Y-121285000D03*
D12*
X124460000Y-121285000D03*
X127000000Y-121285000D03*
X129540000Y-121285000D03*
X132080000Y-121285000D03*
X134620000Y-121285000D03*
X137160000Y-121285000D03*
X137160000Y-98425000D03*
X134620000Y-98425000D03*
X132080000Y-98425000D03*
X129540000Y-98425000D03*
X127000000Y-98425000D03*
X124460000Y-98425000D03*
X121920000Y-98425000D03*
X119380000Y-98425000D03*
D14*
X161950000Y-119410000D03*
X155500000Y-119410000D03*
X155500000Y-88410000D03*
X162000000Y-88410000D03*
D15*
X187530000Y-144545000D03*
X187530000Y-131045000D03*
D16*
X165530000Y-130795000D03*
X165530000Y-144795000D03*
X165530000Y-141545000D03*
X165530000Y-134045000D03*
D17*
X182245000Y-45720000D03*
D18*
X179705000Y-45720000D03*
X177165000Y-45720000D03*
X174625000Y-45720000D03*
X172085000Y-45720000D03*
X169545000Y-45720000D03*
X167005000Y-45720000D03*
X164465000Y-45720000D03*
X161925000Y-45720000D03*
X159385000Y-45720000D03*
X156845000Y-45720000D03*
X154305000Y-45720000D03*
X151765000Y-45720000D03*
X149225000Y-45720000D03*
X146685000Y-45720000D03*
X144145000Y-45720000D03*
D19*
X187744100Y-45720000D03*
X187744100Y-76720700D03*
X112745520Y-76720700D03*
X112745000Y-45720000D03*
D20*
G36*
X130201975Y-144365276D02*
G01*
X130227699Y-144369092D01*
X130252925Y-144375411D01*
X130277411Y-144384172D01*
X130300920Y-144395291D01*
X130323226Y-144408661D01*
X130344114Y-144424152D01*
X130363383Y-144441617D01*
X130380848Y-144460886D01*
X130396339Y-144481774D01*
X130409709Y-144504080D01*
X130420828Y-144527589D01*
X130429589Y-144552075D01*
X130435908Y-144577301D01*
X130439724Y-144603025D01*
X130441000Y-144629000D01*
X130441000Y-146201000D01*
X130439724Y-146226975D01*
X130435908Y-146252699D01*
X130429589Y-146277925D01*
X130420828Y-146302411D01*
X130409709Y-146325920D01*
X130396339Y-146348226D01*
X130380848Y-146369114D01*
X130363383Y-146388383D01*
X130344114Y-146405848D01*
X130323226Y-146421339D01*
X130300920Y-146434709D01*
X130277411Y-146445828D01*
X130252925Y-146454589D01*
X130227699Y-146460908D01*
X130201975Y-146464724D01*
X130176000Y-146466000D01*
X128904000Y-146466000D01*
X128878025Y-146464724D01*
X128852301Y-146460908D01*
X128827075Y-146454589D01*
X128802589Y-146445828D01*
X128779080Y-146434709D01*
X128756774Y-146421339D01*
X128735886Y-146405848D01*
X128716617Y-146388383D01*
X128699152Y-146369114D01*
X128683661Y-146348226D01*
X128670291Y-146325920D01*
X128659172Y-146302411D01*
X128650411Y-146277925D01*
X128644092Y-146252699D01*
X128640276Y-146226975D01*
X128639000Y-146201000D01*
X128639000Y-144629000D01*
X128640276Y-144603025D01*
X128644092Y-144577301D01*
X128650411Y-144552075D01*
X128659172Y-144527589D01*
X128670291Y-144504080D01*
X128683661Y-144481774D01*
X128699152Y-144460886D01*
X128716617Y-144441617D01*
X128735886Y-144424152D01*
X128756774Y-144408661D01*
X128779080Y-144395291D01*
X128802589Y-144384172D01*
X128827075Y-144375411D01*
X128852301Y-144369092D01*
X128878025Y-144365276D01*
X128904000Y-144364000D01*
X130176000Y-144364000D01*
X130201975Y-144365276D01*
X130201975Y-144365276D01*
G37*
D21*
X129540000Y-145415000D03*
D22*
X132040000Y-145415000D03*
D23*
X130810000Y-37465000D03*
D24*
X130810000Y-40005000D03*
X125095000Y-40005000D03*
D23*
X125095000Y-37465000D03*
X118745000Y-37465000D03*
D24*
X118745000Y-40005000D03*
D25*
X177165000Y-84455000D03*
D26*
X179705000Y-84455000D03*
X182245000Y-84455000D03*
X184785000Y-84455000D03*
D25*
X173355000Y-85090000D03*
D26*
X173355000Y-87630000D03*
X173355000Y-90170000D03*
X173355000Y-92710000D03*
X173355000Y-95250000D03*
X173355000Y-97790000D03*
X173355000Y-100330000D03*
X173355000Y-102870000D03*
X173355000Y-105410000D03*
X173355000Y-107950000D03*
X173355000Y-110490000D03*
X173355000Y-113030000D03*
X173355000Y-115570000D03*
X173355000Y-118110000D03*
X173355000Y-120650000D03*
X173355000Y-123190000D03*
D25*
X160655000Y-147955000D03*
D26*
X158115000Y-147955000D03*
X155575000Y-147955000D03*
X153035000Y-147955000D03*
X150495000Y-147955000D03*
X147955000Y-147955000D03*
X145415000Y-147955000D03*
X142875000Y-147955000D03*
X140335000Y-147955000D03*
D27*
X128270000Y-91440000D03*
D28*
X128270000Y-81280000D03*
X121920000Y-81280000D03*
D27*
X121920000Y-91440000D03*
X115570000Y-91440000D03*
D28*
X115570000Y-81280000D03*
D27*
X134620000Y-91440000D03*
D28*
X134620000Y-81280000D03*
X125730000Y-127635000D03*
D27*
X125730000Y-137795000D03*
D29*
X114300000Y-137795000D03*
D30*
X114300000Y-139795000D03*
X114300000Y-141795000D03*
D31*
X114300000Y-135695000D03*
X114300000Y-143895000D03*
M02*
