G04 #@! TF.GenerationSoftware,KiCad,Pcbnew,(5.1.2)-1*
G04 #@! TF.CreationDate,2019-10-17T22:12:22+01:00*
G04 #@! TF.ProjectId,Keypad,4b657970-6164-42e6-9b69-6361645f7063,1*
G04 #@! TF.SameCoordinates,Original*
G04 #@! TF.FileFunction,Legend,Bot*
G04 #@! TF.FilePolarity,Positive*
%FSLAX46Y46*%
G04 Gerber Fmt 4.6, Leading zero omitted, Abs format (unit mm)*
G04 Created by KiCad (PCBNEW (5.1.2)-1) date 2019-10-17 22:12:22*
%MOMM*%
%LPD*%
G04 APERTURE LIST*
%ADD10C,0.120000*%
%ADD11C,0.150000*%
%ADD12O,1.702000X2.102000*%
%ADD13R,2.102000X2.102000*%
%ADD14R,1.902000X2.702000*%
%ADD15O,1.902000X2.702000*%
%ADD16C,3.102000*%
%ADD17C,0.100000*%
%ADD18C,1.802000*%
%ADD19O,1.802000X2.102000*%
%ADD20R,1.902000X1.902000*%
%ADD21C,1.902000*%
%ADD22R,1.802000X1.802000*%
%ADD23O,1.802000X1.802000*%
%ADD24C,1.702000*%
%ADD25O,1.702000X1.702000*%
%ADD26R,2.602000X1.602000*%
%ADD27O,2.602000X1.602000*%
%ADD28O,3.602000X2.302000*%
G04 APERTURE END LIST*
D10*
X190385000Y-79360000D02*
X110105000Y-79360000D01*
X110105000Y-79360000D02*
X110105000Y-43080000D01*
X110105000Y-43080000D02*
X189585000Y-43080000D01*
X190385000Y-43080000D02*
X190385000Y-79360000D01*
X190375000Y-43080000D02*
X189585000Y-43080000D01*
X183745000Y-42720000D02*
X180745000Y-42720000D01*
X182045000Y-53720000D02*
X118545000Y-53720000D01*
X182544720Y-68219320D02*
X182544720Y-54220000D01*
X118544340Y-68720000D02*
X182045000Y-68720000D01*
X118045000Y-54220000D02*
X118045000Y-68220000D01*
X118045000Y-54220000D02*
G75*
G02X118545000Y-53720000I500000J0D01*
G01*
X118544340Y-68719700D02*
G75*
G02X118043960Y-68219320I0J500380D01*
G01*
X182544720Y-68219320D02*
G75*
G02X182044340Y-68719700I-500380J0D01*
G01*
X182044340Y-53718460D02*
G75*
G02X182544720Y-54218840I0J-500380D01*
G01*
X187245000Y-48720000D02*
X114245000Y-48720000D01*
X114245000Y-48720000D02*
X114245000Y-73720000D01*
X114245000Y-73720000D02*
X187245000Y-73720000D01*
X187245000Y-73720000D02*
X187245000Y-48720000D01*
X129731392Y-40407335D02*
G75*
G02X129574484Y-37175000I1078608J1672335D01*
G01*
X131888608Y-40407335D02*
G75*
G03X132045516Y-37175000I-1078608J1672335D01*
G01*
X129730163Y-39776130D02*
G75*
G02X129730000Y-37694039I1079837J1041130D01*
G01*
X131889837Y-39776130D02*
G75*
G03X131890000Y-37694039I-1079837J1041130D01*
G01*
X129574000Y-37175000D02*
X129730000Y-37175000D01*
X131890000Y-37175000D02*
X132046000Y-37175000D01*
X126175000Y-37175000D02*
X126331000Y-37175000D01*
X123859000Y-37175000D02*
X124015000Y-37175000D01*
X126174837Y-39776130D02*
G75*
G03X126175000Y-37694039I-1079837J1041130D01*
G01*
X124015163Y-39776130D02*
G75*
G02X124015000Y-37694039I1079837J1041130D01*
G01*
X126173608Y-40407335D02*
G75*
G03X126330516Y-37175000I-1078608J1672335D01*
G01*
X124016392Y-40407335D02*
G75*
G02X123859484Y-37175000I1078608J1672335D01*
G01*
X117666392Y-40407335D02*
G75*
G02X117509484Y-37175000I1078608J1672335D01*
G01*
X119823608Y-40407335D02*
G75*
G03X119980516Y-37175000I-1078608J1672335D01*
G01*
X117665163Y-39776130D02*
G75*
G02X117665000Y-37694039I1079837J1041130D01*
G01*
X119824837Y-39776130D02*
G75*
G03X119825000Y-37694039I-1079837J1041130D01*
G01*
X117509000Y-37175000D02*
X117665000Y-37175000D01*
X119825000Y-37175000D02*
X119981000Y-37175000D01*
X139005000Y-149285000D02*
X139005000Y-146625000D01*
X159385000Y-149285000D02*
X139005000Y-149285000D01*
X159385000Y-146625000D02*
X139005000Y-146625000D01*
X159385000Y-149285000D02*
X159385000Y-146625000D01*
X160655000Y-149285000D02*
X161985000Y-149285000D01*
X161985000Y-149285000D02*
X161985000Y-147955000D01*
D11*
X180919285Y-41727380D02*
X180919285Y-40727380D01*
X180681190Y-40727380D01*
X180538333Y-40775000D01*
X180443095Y-40870238D01*
X180395476Y-40965476D01*
X180347857Y-41155952D01*
X180347857Y-41298809D01*
X180395476Y-41489285D01*
X180443095Y-41584523D01*
X180538333Y-41679761D01*
X180681190Y-41727380D01*
X180919285Y-41727380D01*
X179966904Y-41679761D02*
X179824047Y-41727380D01*
X179585952Y-41727380D01*
X179490714Y-41679761D01*
X179443095Y-41632142D01*
X179395476Y-41536904D01*
X179395476Y-41441666D01*
X179443095Y-41346428D01*
X179490714Y-41298809D01*
X179585952Y-41251190D01*
X179776428Y-41203571D01*
X179871666Y-41155952D01*
X179919285Y-41108333D01*
X179966904Y-41013095D01*
X179966904Y-40917857D01*
X179919285Y-40822619D01*
X179871666Y-40775000D01*
X179776428Y-40727380D01*
X179538333Y-40727380D01*
X179395476Y-40775000D01*
X178443095Y-41727380D02*
X179014523Y-41727380D01*
X178728809Y-41727380D02*
X178728809Y-40727380D01*
X178824047Y-40870238D01*
X178919285Y-40965476D01*
X179014523Y-41013095D01*
X140231428Y-39187380D02*
X140707619Y-39187380D01*
X140707619Y-38187380D01*
X139898095Y-38663571D02*
X139564761Y-38663571D01*
X139421904Y-39187380D02*
X139898095Y-39187380D01*
X139898095Y-38187380D01*
X139421904Y-38187380D01*
X138993333Y-39187380D02*
X138993333Y-38187380D01*
X138755238Y-38187380D01*
X138612380Y-38235000D01*
X138517142Y-38330238D01*
X138469523Y-38425476D01*
X138421904Y-38615952D01*
X138421904Y-38758809D01*
X138469523Y-38949285D01*
X138517142Y-39044523D01*
X138612380Y-39139761D01*
X138755238Y-39187380D01*
X138993333Y-39187380D01*
X136945714Y-39568333D02*
X136993333Y-39520714D01*
X137088571Y-39377857D01*
X137136190Y-39282619D01*
X137183809Y-39139761D01*
X137231428Y-38901666D01*
X137231428Y-38711190D01*
X137183809Y-38473095D01*
X137136190Y-38330238D01*
X137088571Y-38235000D01*
X136993333Y-38092142D01*
X136945714Y-38044523D01*
X135993333Y-39187380D02*
X136326666Y-38711190D01*
X136564761Y-39187380D02*
X136564761Y-38187380D01*
X136183809Y-38187380D01*
X136088571Y-38235000D01*
X136040952Y-38282619D01*
X135993333Y-38377857D01*
X135993333Y-38520714D01*
X136040952Y-38615952D01*
X136088571Y-38663571D01*
X136183809Y-38711190D01*
X136564761Y-38711190D01*
X135183809Y-39139761D02*
X135279047Y-39187380D01*
X135469523Y-39187380D01*
X135564761Y-39139761D01*
X135612380Y-39044523D01*
X135612380Y-38663571D01*
X135564761Y-38568333D01*
X135469523Y-38520714D01*
X135279047Y-38520714D01*
X135183809Y-38568333D01*
X135136190Y-38663571D01*
X135136190Y-38758809D01*
X135612380Y-38854047D01*
X134279047Y-39187380D02*
X134279047Y-38187380D01*
X134279047Y-39139761D02*
X134374285Y-39187380D01*
X134564761Y-39187380D01*
X134660000Y-39139761D01*
X134707619Y-39092142D01*
X134755238Y-38996904D01*
X134755238Y-38711190D01*
X134707619Y-38615952D01*
X134660000Y-38568333D01*
X134564761Y-38520714D01*
X134374285Y-38520714D01*
X134279047Y-38568333D01*
X133898095Y-39568333D02*
X133850476Y-39520714D01*
X133755238Y-39377857D01*
X133707619Y-39282619D01*
X133660000Y-39139761D01*
X133612380Y-38901666D01*
X133612380Y-38711190D01*
X133660000Y-38473095D01*
X133707619Y-38330238D01*
X133755238Y-38235000D01*
X133850476Y-38092142D01*
X133898095Y-38044523D01*
X129142619Y-42997380D02*
X129618809Y-42997380D01*
X129618809Y-41997380D01*
X128809285Y-42473571D02*
X128475952Y-42473571D01*
X128333095Y-42997380D02*
X128809285Y-42997380D01*
X128809285Y-41997380D01*
X128333095Y-41997380D01*
X127904523Y-42997380D02*
X127904523Y-41997380D01*
X127666428Y-41997380D01*
X127523571Y-42045000D01*
X127428333Y-42140238D01*
X127380714Y-42235476D01*
X127333095Y-42425952D01*
X127333095Y-42568809D01*
X127380714Y-42759285D01*
X127428333Y-42854523D01*
X127523571Y-42949761D01*
X127666428Y-42997380D01*
X127904523Y-42997380D01*
X125856904Y-43378333D02*
X125904523Y-43330714D01*
X125999761Y-43187857D01*
X126047380Y-43092619D01*
X126095000Y-42949761D01*
X126142619Y-42711666D01*
X126142619Y-42521190D01*
X126095000Y-42283095D01*
X126047380Y-42140238D01*
X125999761Y-42045000D01*
X125904523Y-41902142D01*
X125856904Y-41854523D01*
X125285476Y-42521190D02*
X125285476Y-42997380D01*
X125618809Y-41997380D02*
X125285476Y-42521190D01*
X124952142Y-41997380D01*
X124237857Y-42949761D02*
X124333095Y-42997380D01*
X124523571Y-42997380D01*
X124618809Y-42949761D01*
X124666428Y-42854523D01*
X124666428Y-42473571D01*
X124618809Y-42378333D01*
X124523571Y-42330714D01*
X124333095Y-42330714D01*
X124237857Y-42378333D01*
X124190238Y-42473571D01*
X124190238Y-42568809D01*
X124666428Y-42664047D01*
X123618809Y-42997380D02*
X123714047Y-42949761D01*
X123761666Y-42854523D01*
X123761666Y-41997380D01*
X123095000Y-42997380D02*
X123190238Y-42949761D01*
X123237857Y-42854523D01*
X123237857Y-41997380D01*
X122571190Y-42997380D02*
X122666428Y-42949761D01*
X122714047Y-42902142D01*
X122761666Y-42806904D01*
X122761666Y-42521190D01*
X122714047Y-42425952D01*
X122666428Y-42378333D01*
X122571190Y-42330714D01*
X122428333Y-42330714D01*
X122333095Y-42378333D01*
X122285476Y-42425952D01*
X122237857Y-42521190D01*
X122237857Y-42806904D01*
X122285476Y-42902142D01*
X122333095Y-42949761D01*
X122428333Y-42997380D01*
X122571190Y-42997380D01*
X121904523Y-42330714D02*
X121714047Y-42997380D01*
X121523571Y-42521190D01*
X121333095Y-42997380D01*
X121142619Y-42330714D01*
X120856904Y-43378333D02*
X120809285Y-43330714D01*
X120714047Y-43187857D01*
X120666428Y-43092619D01*
X120618809Y-42949761D01*
X120571190Y-42711666D01*
X120571190Y-42521190D01*
X120618809Y-42283095D01*
X120666428Y-42140238D01*
X120714047Y-42045000D01*
X120809285Y-41902142D01*
X120856904Y-41854523D01*
X123189523Y-44902380D02*
X123665714Y-44902380D01*
X123665714Y-43902380D01*
X122856190Y-44378571D02*
X122522857Y-44378571D01*
X122380000Y-44902380D02*
X122856190Y-44902380D01*
X122856190Y-43902380D01*
X122380000Y-43902380D01*
X121951428Y-44902380D02*
X121951428Y-43902380D01*
X121713333Y-43902380D01*
X121570476Y-43950000D01*
X121475238Y-44045238D01*
X121427619Y-44140476D01*
X121380000Y-44330952D01*
X121380000Y-44473809D01*
X121427619Y-44664285D01*
X121475238Y-44759523D01*
X121570476Y-44854761D01*
X121713333Y-44902380D01*
X121951428Y-44902380D01*
X119903809Y-45283333D02*
X119951428Y-45235714D01*
X120046666Y-45092857D01*
X120094285Y-44997619D01*
X120141904Y-44854761D01*
X120189523Y-44616666D01*
X120189523Y-44426190D01*
X120141904Y-44188095D01*
X120094285Y-44045238D01*
X120046666Y-43950000D01*
X119951428Y-43807142D01*
X119903809Y-43759523D01*
X118999047Y-43950000D02*
X119094285Y-43902380D01*
X119237142Y-43902380D01*
X119380000Y-43950000D01*
X119475238Y-44045238D01*
X119522857Y-44140476D01*
X119570476Y-44330952D01*
X119570476Y-44473809D01*
X119522857Y-44664285D01*
X119475238Y-44759523D01*
X119380000Y-44854761D01*
X119237142Y-44902380D01*
X119141904Y-44902380D01*
X118999047Y-44854761D01*
X118951428Y-44807142D01*
X118951428Y-44473809D01*
X119141904Y-44473809D01*
X118522857Y-44902380D02*
X118522857Y-44235714D01*
X118522857Y-44426190D02*
X118475238Y-44330952D01*
X118427619Y-44283333D01*
X118332380Y-44235714D01*
X118237142Y-44235714D01*
X117522857Y-44854761D02*
X117618095Y-44902380D01*
X117808571Y-44902380D01*
X117903809Y-44854761D01*
X117951428Y-44759523D01*
X117951428Y-44378571D01*
X117903809Y-44283333D01*
X117808571Y-44235714D01*
X117618095Y-44235714D01*
X117522857Y-44283333D01*
X117475238Y-44378571D01*
X117475238Y-44473809D01*
X117951428Y-44569047D01*
X116665714Y-44854761D02*
X116760952Y-44902380D01*
X116951428Y-44902380D01*
X117046666Y-44854761D01*
X117094285Y-44759523D01*
X117094285Y-44378571D01*
X117046666Y-44283333D01*
X116951428Y-44235714D01*
X116760952Y-44235714D01*
X116665714Y-44283333D01*
X116618095Y-44378571D01*
X116618095Y-44473809D01*
X117094285Y-44569047D01*
X116189523Y-44235714D02*
X116189523Y-44902380D01*
X116189523Y-44330952D02*
X116141904Y-44283333D01*
X116046666Y-44235714D01*
X115903809Y-44235714D01*
X115808571Y-44283333D01*
X115760952Y-44378571D01*
X115760952Y-44902380D01*
X115380000Y-45283333D02*
X115332380Y-45235714D01*
X115237142Y-45092857D01*
X115189523Y-44997619D01*
X115141904Y-44854761D01*
X115094285Y-44616666D01*
X115094285Y-44426190D01*
X115141904Y-44188095D01*
X115189523Y-44045238D01*
X115237142Y-43950000D01*
X115332380Y-43807142D01*
X115380000Y-43759523D01*
X162289761Y-145867380D02*
X162289761Y-144867380D01*
X161718333Y-145867380D02*
X162146904Y-145295952D01*
X161718333Y-144867380D02*
X162289761Y-145438809D01*
X160908809Y-145819761D02*
X161004047Y-145867380D01*
X161194523Y-145867380D01*
X161289761Y-145819761D01*
X161337380Y-145724523D01*
X161337380Y-145343571D01*
X161289761Y-145248333D01*
X161194523Y-145200714D01*
X161004047Y-145200714D01*
X160908809Y-145248333D01*
X160861190Y-145343571D01*
X160861190Y-145438809D01*
X161337380Y-145534047D01*
X160527857Y-145200714D02*
X160289761Y-145867380D01*
X160051666Y-145200714D02*
X160289761Y-145867380D01*
X160385000Y-146105476D01*
X160432619Y-146153095D01*
X160527857Y-146200714D01*
X159670714Y-145200714D02*
X159670714Y-146200714D01*
X159670714Y-145248333D02*
X159575476Y-145200714D01*
X159385000Y-145200714D01*
X159289761Y-145248333D01*
X159242142Y-145295952D01*
X159194523Y-145391190D01*
X159194523Y-145676904D01*
X159242142Y-145772142D01*
X159289761Y-145819761D01*
X159385000Y-145867380D01*
X159575476Y-145867380D01*
X159670714Y-145819761D01*
X158337380Y-145867380D02*
X158337380Y-145343571D01*
X158385000Y-145248333D01*
X158480238Y-145200714D01*
X158670714Y-145200714D01*
X158765952Y-145248333D01*
X158337380Y-145819761D02*
X158432619Y-145867380D01*
X158670714Y-145867380D01*
X158765952Y-145819761D01*
X158813571Y-145724523D01*
X158813571Y-145629285D01*
X158765952Y-145534047D01*
X158670714Y-145486428D01*
X158432619Y-145486428D01*
X158337380Y-145438809D01*
X157432619Y-145867380D02*
X157432619Y-144867380D01*
X157432619Y-145819761D02*
X157527857Y-145867380D01*
X157718333Y-145867380D01*
X157813571Y-145819761D01*
X157861190Y-145772142D01*
X157908809Y-145676904D01*
X157908809Y-145391190D01*
X157861190Y-145295952D01*
X157813571Y-145248333D01*
X157718333Y-145200714D01*
X157527857Y-145200714D01*
X157432619Y-145248333D01*
X156432619Y-145867380D02*
X157004047Y-145867380D01*
X156718333Y-145867380D02*
X156718333Y-144867380D01*
X156813571Y-145010238D01*
X156908809Y-145105476D01*
X157004047Y-145153095D01*
%LPC*%
D12*
X121920000Y-121285000D03*
D13*
X119380000Y-121285000D03*
D12*
X124460000Y-121285000D03*
X127000000Y-121285000D03*
X129540000Y-121285000D03*
X132080000Y-121285000D03*
X134620000Y-121285000D03*
X137160000Y-121285000D03*
X137160000Y-98425000D03*
X134620000Y-98425000D03*
X132080000Y-98425000D03*
X129540000Y-98425000D03*
X127000000Y-98425000D03*
X124460000Y-98425000D03*
X121920000Y-98425000D03*
X119380000Y-98425000D03*
D14*
X182245000Y-45720000D03*
D15*
X179705000Y-45720000D03*
X177165000Y-45720000D03*
X174625000Y-45720000D03*
X172085000Y-45720000D03*
X169545000Y-45720000D03*
X167005000Y-45720000D03*
X164465000Y-45720000D03*
X161925000Y-45720000D03*
X159385000Y-45720000D03*
X156845000Y-45720000D03*
X154305000Y-45720000D03*
X151765000Y-45720000D03*
X149225000Y-45720000D03*
X146685000Y-45720000D03*
X144145000Y-45720000D03*
D16*
X187744100Y-45720000D03*
X187744100Y-76720700D03*
X112745520Y-76720700D03*
X112745000Y-45720000D03*
D17*
G36*
X130201975Y-144365276D02*
G01*
X130227699Y-144369092D01*
X130252925Y-144375411D01*
X130277411Y-144384172D01*
X130300920Y-144395291D01*
X130323226Y-144408661D01*
X130344114Y-144424152D01*
X130363383Y-144441617D01*
X130380848Y-144460886D01*
X130396339Y-144481774D01*
X130409709Y-144504080D01*
X130420828Y-144527589D01*
X130429589Y-144552075D01*
X130435908Y-144577301D01*
X130439724Y-144603025D01*
X130441000Y-144629000D01*
X130441000Y-146201000D01*
X130439724Y-146226975D01*
X130435908Y-146252699D01*
X130429589Y-146277925D01*
X130420828Y-146302411D01*
X130409709Y-146325920D01*
X130396339Y-146348226D01*
X130380848Y-146369114D01*
X130363383Y-146388383D01*
X130344114Y-146405848D01*
X130323226Y-146421339D01*
X130300920Y-146434709D01*
X130277411Y-146445828D01*
X130252925Y-146454589D01*
X130227699Y-146460908D01*
X130201975Y-146464724D01*
X130176000Y-146466000D01*
X128904000Y-146466000D01*
X128878025Y-146464724D01*
X128852301Y-146460908D01*
X128827075Y-146454589D01*
X128802589Y-146445828D01*
X128779080Y-146434709D01*
X128756774Y-146421339D01*
X128735886Y-146405848D01*
X128716617Y-146388383D01*
X128699152Y-146369114D01*
X128683661Y-146348226D01*
X128670291Y-146325920D01*
X128659172Y-146302411D01*
X128650411Y-146277925D01*
X128644092Y-146252699D01*
X128640276Y-146226975D01*
X128639000Y-146201000D01*
X128639000Y-144629000D01*
X128640276Y-144603025D01*
X128644092Y-144577301D01*
X128650411Y-144552075D01*
X128659172Y-144527589D01*
X128670291Y-144504080D01*
X128683661Y-144481774D01*
X128699152Y-144460886D01*
X128716617Y-144441617D01*
X128735886Y-144424152D01*
X128756774Y-144408661D01*
X128779080Y-144395291D01*
X128802589Y-144384172D01*
X128827075Y-144375411D01*
X128852301Y-144369092D01*
X128878025Y-144365276D01*
X128904000Y-144364000D01*
X130176000Y-144364000D01*
X130201975Y-144365276D01*
X130201975Y-144365276D01*
G37*
D18*
X129540000Y-145415000D03*
D19*
X132040000Y-145415000D03*
D20*
X130810000Y-37465000D03*
D21*
X130810000Y-40005000D03*
X125095000Y-40005000D03*
D20*
X125095000Y-37465000D03*
X118745000Y-37465000D03*
D21*
X118745000Y-40005000D03*
D22*
X177165000Y-84455000D03*
D23*
X179705000Y-84455000D03*
X182245000Y-84455000D03*
X184785000Y-84455000D03*
D22*
X173355000Y-85090000D03*
D23*
X173355000Y-87630000D03*
X173355000Y-90170000D03*
X173355000Y-92710000D03*
X173355000Y-95250000D03*
X173355000Y-97790000D03*
X173355000Y-100330000D03*
X173355000Y-102870000D03*
X173355000Y-105410000D03*
X173355000Y-107950000D03*
X173355000Y-110490000D03*
X173355000Y-113030000D03*
X173355000Y-115570000D03*
X173355000Y-118110000D03*
X173355000Y-120650000D03*
X173355000Y-123190000D03*
D22*
X160655000Y-147955000D03*
D23*
X158115000Y-147955000D03*
X155575000Y-147955000D03*
X153035000Y-147955000D03*
X150495000Y-147955000D03*
X147955000Y-147955000D03*
X145415000Y-147955000D03*
X142875000Y-147955000D03*
X140335000Y-147955000D03*
D24*
X128270000Y-91440000D03*
D25*
X128270000Y-81280000D03*
X121920000Y-81280000D03*
D24*
X121920000Y-91440000D03*
X115570000Y-91440000D03*
D25*
X115570000Y-81280000D03*
D24*
X134620000Y-91440000D03*
D25*
X134620000Y-81280000D03*
X125730000Y-127635000D03*
D24*
X125730000Y-137795000D03*
D26*
X114300000Y-137795000D03*
D27*
X114300000Y-139795000D03*
X114300000Y-141795000D03*
D28*
X114300000Y-135695000D03*
X114300000Y-143895000D03*
M02*
