G04 #@! TF.GenerationSoftware,KiCad,Pcbnew,(5.1.2)-1*
G04 #@! TF.CreationDate,2019-10-17T22:12:22+01:00*
G04 #@! TF.ProjectId,Keypad,4b657970-6164-42e6-9b69-6361645f7063,1*
G04 #@! TF.SameCoordinates,Original*
G04 #@! TF.FileFunction,Soldermask,Top*
G04 #@! TF.FilePolarity,Negative*
%FSLAX46Y46*%
G04 Gerber Fmt 4.6, Leading zero omitted, Abs format (unit mm)*
G04 Created by KiCad (PCBNEW (5.1.2)-1) date 2019-10-17 22:12:22*
%MOMM*%
%LPD*%
G04 APERTURE LIST*
%ADD10C,0.100000*%
G04 APERTURE END LIST*
D10*
G36*
X161556000Y-148856000D02*
G01*
X159754000Y-148856000D01*
X159754000Y-147054000D01*
X161556000Y-147054000D01*
X161556000Y-148856000D01*
X161556000Y-148856000D01*
G37*
G36*
X155685442Y-147060518D02*
G01*
X155751627Y-147067037D01*
X155921466Y-147118557D01*
X156077991Y-147202222D01*
X156113729Y-147231552D01*
X156215186Y-147314814D01*
X156298448Y-147416271D01*
X156327778Y-147452009D01*
X156411443Y-147608534D01*
X156462963Y-147778373D01*
X156480359Y-147955000D01*
X156462963Y-148131627D01*
X156411443Y-148301466D01*
X156327778Y-148457991D01*
X156298448Y-148493729D01*
X156215186Y-148595186D01*
X156113729Y-148678448D01*
X156077991Y-148707778D01*
X155921466Y-148791443D01*
X155751627Y-148842963D01*
X155685443Y-148849481D01*
X155619260Y-148856000D01*
X155530740Y-148856000D01*
X155464557Y-148849481D01*
X155398373Y-148842963D01*
X155228534Y-148791443D01*
X155072009Y-148707778D01*
X155036271Y-148678448D01*
X154934814Y-148595186D01*
X154851552Y-148493729D01*
X154822222Y-148457991D01*
X154738557Y-148301466D01*
X154687037Y-148131627D01*
X154669641Y-147955000D01*
X154687037Y-147778373D01*
X154738557Y-147608534D01*
X154822222Y-147452009D01*
X154851552Y-147416271D01*
X154934814Y-147314814D01*
X155036271Y-147231552D01*
X155072009Y-147202222D01*
X155228534Y-147118557D01*
X155398373Y-147067037D01*
X155464558Y-147060518D01*
X155530740Y-147054000D01*
X155619260Y-147054000D01*
X155685442Y-147060518D01*
X155685442Y-147060518D01*
G37*
G36*
X153145442Y-147060518D02*
G01*
X153211627Y-147067037D01*
X153381466Y-147118557D01*
X153537991Y-147202222D01*
X153573729Y-147231552D01*
X153675186Y-147314814D01*
X153758448Y-147416271D01*
X153787778Y-147452009D01*
X153871443Y-147608534D01*
X153922963Y-147778373D01*
X153940359Y-147955000D01*
X153922963Y-148131627D01*
X153871443Y-148301466D01*
X153787778Y-148457991D01*
X153758448Y-148493729D01*
X153675186Y-148595186D01*
X153573729Y-148678448D01*
X153537991Y-148707778D01*
X153381466Y-148791443D01*
X153211627Y-148842963D01*
X153145443Y-148849481D01*
X153079260Y-148856000D01*
X152990740Y-148856000D01*
X152924557Y-148849481D01*
X152858373Y-148842963D01*
X152688534Y-148791443D01*
X152532009Y-148707778D01*
X152496271Y-148678448D01*
X152394814Y-148595186D01*
X152311552Y-148493729D01*
X152282222Y-148457991D01*
X152198557Y-148301466D01*
X152147037Y-148131627D01*
X152129641Y-147955000D01*
X152147037Y-147778373D01*
X152198557Y-147608534D01*
X152282222Y-147452009D01*
X152311552Y-147416271D01*
X152394814Y-147314814D01*
X152496271Y-147231552D01*
X152532009Y-147202222D01*
X152688534Y-147118557D01*
X152858373Y-147067037D01*
X152924558Y-147060518D01*
X152990740Y-147054000D01*
X153079260Y-147054000D01*
X153145442Y-147060518D01*
X153145442Y-147060518D01*
G37*
G36*
X150605442Y-147060518D02*
G01*
X150671627Y-147067037D01*
X150841466Y-147118557D01*
X150997991Y-147202222D01*
X151033729Y-147231552D01*
X151135186Y-147314814D01*
X151218448Y-147416271D01*
X151247778Y-147452009D01*
X151331443Y-147608534D01*
X151382963Y-147778373D01*
X151400359Y-147955000D01*
X151382963Y-148131627D01*
X151331443Y-148301466D01*
X151247778Y-148457991D01*
X151218448Y-148493729D01*
X151135186Y-148595186D01*
X151033729Y-148678448D01*
X150997991Y-148707778D01*
X150841466Y-148791443D01*
X150671627Y-148842963D01*
X150605443Y-148849481D01*
X150539260Y-148856000D01*
X150450740Y-148856000D01*
X150384557Y-148849481D01*
X150318373Y-148842963D01*
X150148534Y-148791443D01*
X149992009Y-148707778D01*
X149956271Y-148678448D01*
X149854814Y-148595186D01*
X149771552Y-148493729D01*
X149742222Y-148457991D01*
X149658557Y-148301466D01*
X149607037Y-148131627D01*
X149589641Y-147955000D01*
X149607037Y-147778373D01*
X149658557Y-147608534D01*
X149742222Y-147452009D01*
X149771552Y-147416271D01*
X149854814Y-147314814D01*
X149956271Y-147231552D01*
X149992009Y-147202222D01*
X150148534Y-147118557D01*
X150318373Y-147067037D01*
X150384558Y-147060518D01*
X150450740Y-147054000D01*
X150539260Y-147054000D01*
X150605442Y-147060518D01*
X150605442Y-147060518D01*
G37*
G36*
X148065442Y-147060518D02*
G01*
X148131627Y-147067037D01*
X148301466Y-147118557D01*
X148457991Y-147202222D01*
X148493729Y-147231552D01*
X148595186Y-147314814D01*
X148678448Y-147416271D01*
X148707778Y-147452009D01*
X148791443Y-147608534D01*
X148842963Y-147778373D01*
X148860359Y-147955000D01*
X148842963Y-148131627D01*
X148791443Y-148301466D01*
X148707778Y-148457991D01*
X148678448Y-148493729D01*
X148595186Y-148595186D01*
X148493729Y-148678448D01*
X148457991Y-148707778D01*
X148301466Y-148791443D01*
X148131627Y-148842963D01*
X148065443Y-148849481D01*
X147999260Y-148856000D01*
X147910740Y-148856000D01*
X147844557Y-148849481D01*
X147778373Y-148842963D01*
X147608534Y-148791443D01*
X147452009Y-148707778D01*
X147416271Y-148678448D01*
X147314814Y-148595186D01*
X147231552Y-148493729D01*
X147202222Y-148457991D01*
X147118557Y-148301466D01*
X147067037Y-148131627D01*
X147049641Y-147955000D01*
X147067037Y-147778373D01*
X147118557Y-147608534D01*
X147202222Y-147452009D01*
X147231552Y-147416271D01*
X147314814Y-147314814D01*
X147416271Y-147231552D01*
X147452009Y-147202222D01*
X147608534Y-147118557D01*
X147778373Y-147067037D01*
X147844558Y-147060518D01*
X147910740Y-147054000D01*
X147999260Y-147054000D01*
X148065442Y-147060518D01*
X148065442Y-147060518D01*
G37*
G36*
X145525442Y-147060518D02*
G01*
X145591627Y-147067037D01*
X145761466Y-147118557D01*
X145917991Y-147202222D01*
X145953729Y-147231552D01*
X146055186Y-147314814D01*
X146138448Y-147416271D01*
X146167778Y-147452009D01*
X146251443Y-147608534D01*
X146302963Y-147778373D01*
X146320359Y-147955000D01*
X146302963Y-148131627D01*
X146251443Y-148301466D01*
X146167778Y-148457991D01*
X146138448Y-148493729D01*
X146055186Y-148595186D01*
X145953729Y-148678448D01*
X145917991Y-148707778D01*
X145761466Y-148791443D01*
X145591627Y-148842963D01*
X145525443Y-148849481D01*
X145459260Y-148856000D01*
X145370740Y-148856000D01*
X145304557Y-148849481D01*
X145238373Y-148842963D01*
X145068534Y-148791443D01*
X144912009Y-148707778D01*
X144876271Y-148678448D01*
X144774814Y-148595186D01*
X144691552Y-148493729D01*
X144662222Y-148457991D01*
X144578557Y-148301466D01*
X144527037Y-148131627D01*
X144509641Y-147955000D01*
X144527037Y-147778373D01*
X144578557Y-147608534D01*
X144662222Y-147452009D01*
X144691552Y-147416271D01*
X144774814Y-147314814D01*
X144876271Y-147231552D01*
X144912009Y-147202222D01*
X145068534Y-147118557D01*
X145238373Y-147067037D01*
X145304558Y-147060518D01*
X145370740Y-147054000D01*
X145459260Y-147054000D01*
X145525442Y-147060518D01*
X145525442Y-147060518D01*
G37*
G36*
X142985442Y-147060518D02*
G01*
X143051627Y-147067037D01*
X143221466Y-147118557D01*
X143377991Y-147202222D01*
X143413729Y-147231552D01*
X143515186Y-147314814D01*
X143598448Y-147416271D01*
X143627778Y-147452009D01*
X143711443Y-147608534D01*
X143762963Y-147778373D01*
X143780359Y-147955000D01*
X143762963Y-148131627D01*
X143711443Y-148301466D01*
X143627778Y-148457991D01*
X143598448Y-148493729D01*
X143515186Y-148595186D01*
X143413729Y-148678448D01*
X143377991Y-148707778D01*
X143221466Y-148791443D01*
X143051627Y-148842963D01*
X142985443Y-148849481D01*
X142919260Y-148856000D01*
X142830740Y-148856000D01*
X142764557Y-148849481D01*
X142698373Y-148842963D01*
X142528534Y-148791443D01*
X142372009Y-148707778D01*
X142336271Y-148678448D01*
X142234814Y-148595186D01*
X142151552Y-148493729D01*
X142122222Y-148457991D01*
X142038557Y-148301466D01*
X141987037Y-148131627D01*
X141969641Y-147955000D01*
X141987037Y-147778373D01*
X142038557Y-147608534D01*
X142122222Y-147452009D01*
X142151552Y-147416271D01*
X142234814Y-147314814D01*
X142336271Y-147231552D01*
X142372009Y-147202222D01*
X142528534Y-147118557D01*
X142698373Y-147067037D01*
X142764558Y-147060518D01*
X142830740Y-147054000D01*
X142919260Y-147054000D01*
X142985442Y-147060518D01*
X142985442Y-147060518D01*
G37*
G36*
X140445442Y-147060518D02*
G01*
X140511627Y-147067037D01*
X140681466Y-147118557D01*
X140837991Y-147202222D01*
X140873729Y-147231552D01*
X140975186Y-147314814D01*
X141058448Y-147416271D01*
X141087778Y-147452009D01*
X141171443Y-147608534D01*
X141222963Y-147778373D01*
X141240359Y-147955000D01*
X141222963Y-148131627D01*
X141171443Y-148301466D01*
X141087778Y-148457991D01*
X141058448Y-148493729D01*
X140975186Y-148595186D01*
X140873729Y-148678448D01*
X140837991Y-148707778D01*
X140681466Y-148791443D01*
X140511627Y-148842963D01*
X140445443Y-148849481D01*
X140379260Y-148856000D01*
X140290740Y-148856000D01*
X140224557Y-148849481D01*
X140158373Y-148842963D01*
X139988534Y-148791443D01*
X139832009Y-148707778D01*
X139796271Y-148678448D01*
X139694814Y-148595186D01*
X139611552Y-148493729D01*
X139582222Y-148457991D01*
X139498557Y-148301466D01*
X139447037Y-148131627D01*
X139429641Y-147955000D01*
X139447037Y-147778373D01*
X139498557Y-147608534D01*
X139582222Y-147452009D01*
X139611552Y-147416271D01*
X139694814Y-147314814D01*
X139796271Y-147231552D01*
X139832009Y-147202222D01*
X139988534Y-147118557D01*
X140158373Y-147067037D01*
X140224558Y-147060518D01*
X140290740Y-147054000D01*
X140379260Y-147054000D01*
X140445442Y-147060518D01*
X140445442Y-147060518D01*
G37*
G36*
X158225442Y-147060518D02*
G01*
X158291627Y-147067037D01*
X158461466Y-147118557D01*
X158617991Y-147202222D01*
X158653729Y-147231552D01*
X158755186Y-147314814D01*
X158838448Y-147416271D01*
X158867778Y-147452009D01*
X158951443Y-147608534D01*
X159002963Y-147778373D01*
X159020359Y-147955000D01*
X159002963Y-148131627D01*
X158951443Y-148301466D01*
X158867778Y-148457991D01*
X158838448Y-148493729D01*
X158755186Y-148595186D01*
X158653729Y-148678448D01*
X158617991Y-148707778D01*
X158461466Y-148791443D01*
X158291627Y-148842963D01*
X158225443Y-148849481D01*
X158159260Y-148856000D01*
X158070740Y-148856000D01*
X158004557Y-148849481D01*
X157938373Y-148842963D01*
X157768534Y-148791443D01*
X157612009Y-148707778D01*
X157576271Y-148678448D01*
X157474814Y-148595186D01*
X157391552Y-148493729D01*
X157362222Y-148457991D01*
X157278557Y-148301466D01*
X157227037Y-148131627D01*
X157209641Y-147955000D01*
X157227037Y-147778373D01*
X157278557Y-147608534D01*
X157362222Y-147452009D01*
X157391552Y-147416271D01*
X157474814Y-147314814D01*
X157576271Y-147231552D01*
X157612009Y-147202222D01*
X157768534Y-147118557D01*
X157938373Y-147067037D01*
X158004558Y-147060518D01*
X158070740Y-147054000D01*
X158159260Y-147054000D01*
X158225442Y-147060518D01*
X158225442Y-147060518D01*
G37*
G36*
X132216626Y-144377037D02*
G01*
X132386465Y-144428557D01*
X132386467Y-144428558D01*
X132542989Y-144512221D01*
X132680186Y-144624814D01*
X132752408Y-144712818D01*
X132792778Y-144762009D01*
X132876443Y-144918534D01*
X132927963Y-145088373D01*
X132941000Y-145220742D01*
X132941000Y-145609257D01*
X132927963Y-145741626D01*
X132876443Y-145911466D01*
X132792778Y-146067991D01*
X132769791Y-146096000D01*
X132680186Y-146205186D01*
X132585250Y-146283097D01*
X132542991Y-146317778D01*
X132386466Y-146401443D01*
X132216627Y-146452963D01*
X132040000Y-146470359D01*
X131863374Y-146452963D01*
X131693535Y-146401443D01*
X131537010Y-146317778D01*
X131399815Y-146205185D01*
X131287222Y-146067991D01*
X131203557Y-145911466D01*
X131152037Y-145741627D01*
X131139000Y-145609258D01*
X131139000Y-145220743D01*
X131152037Y-145088374D01*
X131203557Y-144918535D01*
X131287222Y-144762010D01*
X131287223Y-144762009D01*
X131399814Y-144624814D01*
X131506141Y-144537555D01*
X131537009Y-144512222D01*
X131693534Y-144428557D01*
X131863373Y-144377037D01*
X132040000Y-144359641D01*
X132216626Y-144377037D01*
X132216626Y-144377037D01*
G37*
G36*
X130298600Y-144367989D02*
G01*
X130331652Y-144378015D01*
X130362103Y-144394292D01*
X130388799Y-144416201D01*
X130410708Y-144442897D01*
X130426985Y-144473348D01*
X130437011Y-144506400D01*
X130441000Y-144546903D01*
X130441000Y-146283097D01*
X130437011Y-146323600D01*
X130426985Y-146356652D01*
X130410708Y-146387103D01*
X130388799Y-146413799D01*
X130362103Y-146435708D01*
X130331652Y-146451985D01*
X130298600Y-146462011D01*
X130258097Y-146466000D01*
X128821903Y-146466000D01*
X128781400Y-146462011D01*
X128748348Y-146451985D01*
X128717897Y-146435708D01*
X128691201Y-146413799D01*
X128669292Y-146387103D01*
X128653015Y-146356652D01*
X128642989Y-146323600D01*
X128639000Y-146283097D01*
X128639000Y-144546903D01*
X128642989Y-144506400D01*
X128653015Y-144473348D01*
X128669292Y-144442897D01*
X128691201Y-144416201D01*
X128717897Y-144394292D01*
X128748348Y-144378015D01*
X128781400Y-144367989D01*
X128821903Y-144364000D01*
X130258097Y-144364000D01*
X130298600Y-144367989D01*
X130298600Y-144367989D01*
G37*
G36*
X189081000Y-146096000D02*
G01*
X185979000Y-146096000D01*
X185979000Y-142994000D01*
X189081000Y-142994000D01*
X189081000Y-146096000D01*
X189081000Y-146096000D01*
G37*
G36*
X167081000Y-146096000D02*
G01*
X163979000Y-146096000D01*
X163979000Y-143494000D01*
X167081000Y-143494000D01*
X167081000Y-146096000D01*
X167081000Y-146096000D01*
G37*
G36*
X114878571Y-140997863D02*
G01*
X114957023Y-141005590D01*
X115057682Y-141036125D01*
X115108013Y-141051392D01*
X115247165Y-141125771D01*
X115369133Y-141225867D01*
X115469229Y-141347835D01*
X115543608Y-141486987D01*
X115543608Y-141486988D01*
X115589410Y-141637977D01*
X115604875Y-141795000D01*
X115589410Y-141952023D01*
X115558875Y-142052682D01*
X115543608Y-142103013D01*
X115469229Y-142242165D01*
X115369133Y-142364133D01*
X115247165Y-142464229D01*
X115131161Y-142526235D01*
X115110787Y-142539849D01*
X115093460Y-142557176D01*
X115079846Y-142577550D01*
X115070469Y-142600189D01*
X115065689Y-142624223D01*
X115065689Y-142648727D01*
X115070470Y-142672760D01*
X115079847Y-142695399D01*
X115093461Y-142715773D01*
X115110788Y-142733100D01*
X115131162Y-142746714D01*
X115153801Y-142756091D01*
X115173516Y-142760012D01*
X115175631Y-142760654D01*
X115175635Y-142760654D01*
X115392600Y-142826470D01*
X115392602Y-142826471D01*
X115592555Y-142933347D01*
X115767818Y-143077182D01*
X115911653Y-143252445D01*
X116018529Y-143452398D01*
X116084346Y-143669366D01*
X116106569Y-143895000D01*
X116084346Y-144120634D01*
X116018529Y-144337602D01*
X115911653Y-144537555D01*
X115767818Y-144712818D01*
X115592555Y-144856653D01*
X115392602Y-144963529D01*
X115392600Y-144963530D01*
X115175635Y-145029346D01*
X115119271Y-145034897D01*
X115006545Y-145046000D01*
X113593455Y-145046000D01*
X113480729Y-145034897D01*
X113424365Y-145029346D01*
X113207400Y-144963530D01*
X113207398Y-144963529D01*
X113007445Y-144856653D01*
X112832182Y-144712818D01*
X112688347Y-144537555D01*
X112581471Y-144337602D01*
X112515654Y-144120634D01*
X112493431Y-143895000D01*
X112515654Y-143669366D01*
X112581471Y-143452398D01*
X112688347Y-143252445D01*
X112832182Y-143077182D01*
X113007445Y-142933347D01*
X113207398Y-142826471D01*
X113207400Y-142826470D01*
X113424365Y-142760654D01*
X113424369Y-142760654D01*
X113426484Y-142760012D01*
X113446197Y-142756091D01*
X113468836Y-142746715D01*
X113489210Y-142733101D01*
X113506538Y-142715775D01*
X113520152Y-142695401D01*
X113529530Y-142672762D01*
X113534311Y-142648729D01*
X113534311Y-142624225D01*
X113529531Y-142600191D01*
X113520155Y-142577552D01*
X113506541Y-142557178D01*
X113489215Y-142539850D01*
X113468839Y-142526235D01*
X113352835Y-142464229D01*
X113230867Y-142364133D01*
X113130771Y-142242165D01*
X113056392Y-142103013D01*
X113041125Y-142052682D01*
X113010590Y-141952023D01*
X112995125Y-141795000D01*
X113010590Y-141637977D01*
X113056392Y-141486988D01*
X113056392Y-141486987D01*
X113130771Y-141347835D01*
X113230867Y-141225867D01*
X113352835Y-141125771D01*
X113491987Y-141051392D01*
X113542318Y-141036125D01*
X113642977Y-141005590D01*
X113721429Y-140997863D01*
X113760654Y-140994000D01*
X114839346Y-140994000D01*
X114878571Y-140997863D01*
X114878571Y-140997863D01*
G37*
G36*
X167081000Y-142846000D02*
G01*
X163979000Y-142846000D01*
X163979000Y-140244000D01*
X167081000Y-140244000D01*
X167081000Y-142846000D01*
X167081000Y-142846000D01*
G37*
G36*
X114878571Y-138997863D02*
G01*
X114957023Y-139005590D01*
X115057682Y-139036125D01*
X115108013Y-139051392D01*
X115247165Y-139125771D01*
X115369133Y-139225867D01*
X115469229Y-139347835D01*
X115543608Y-139486987D01*
X115543608Y-139486988D01*
X115589410Y-139637977D01*
X115604875Y-139795000D01*
X115589410Y-139952023D01*
X115558875Y-140052682D01*
X115543608Y-140103013D01*
X115469229Y-140242165D01*
X115369133Y-140364133D01*
X115247165Y-140464229D01*
X115108013Y-140538608D01*
X115057682Y-140553875D01*
X114957023Y-140584410D01*
X114878571Y-140592137D01*
X114839346Y-140596000D01*
X113760654Y-140596000D01*
X113721429Y-140592137D01*
X113642977Y-140584410D01*
X113542318Y-140553875D01*
X113491987Y-140538608D01*
X113352835Y-140464229D01*
X113230867Y-140364133D01*
X113130771Y-140242165D01*
X113056392Y-140103013D01*
X113041125Y-140052682D01*
X113010590Y-139952023D01*
X112995125Y-139795000D01*
X113010590Y-139637977D01*
X113056392Y-139486988D01*
X113056392Y-139486987D01*
X113130771Y-139347835D01*
X113230867Y-139225867D01*
X113352835Y-139125771D01*
X113491987Y-139051392D01*
X113542318Y-139036125D01*
X113642977Y-139005590D01*
X113721429Y-138997863D01*
X113760654Y-138994000D01*
X114839346Y-138994000D01*
X114878571Y-138997863D01*
X114878571Y-138997863D01*
G37*
G36*
X125978228Y-136976703D02*
G01*
X126133100Y-137040853D01*
X126272481Y-137133985D01*
X126391015Y-137252519D01*
X126484147Y-137391900D01*
X126548297Y-137546772D01*
X126581000Y-137711184D01*
X126581000Y-137878816D01*
X126548297Y-138043228D01*
X126484147Y-138198100D01*
X126391015Y-138337481D01*
X126272481Y-138456015D01*
X126133100Y-138549147D01*
X125978228Y-138613297D01*
X125813816Y-138646000D01*
X125646184Y-138646000D01*
X125481772Y-138613297D01*
X125326900Y-138549147D01*
X125187519Y-138456015D01*
X125068985Y-138337481D01*
X124975853Y-138198100D01*
X124911703Y-138043228D01*
X124879000Y-137878816D01*
X124879000Y-137711184D01*
X124911703Y-137546772D01*
X124975853Y-137391900D01*
X125068985Y-137252519D01*
X125187519Y-137133985D01*
X125326900Y-137040853D01*
X125481772Y-136976703D01*
X125646184Y-136944000D01*
X125813816Y-136944000D01*
X125978228Y-136976703D01*
X125978228Y-136976703D01*
G37*
G36*
X115119271Y-134555103D02*
G01*
X115175635Y-134560654D01*
X115392600Y-134626470D01*
X115392602Y-134626471D01*
X115592555Y-134733347D01*
X115767818Y-134877182D01*
X115911653Y-135052445D01*
X116018529Y-135252398D01*
X116084346Y-135469366D01*
X116106569Y-135695000D01*
X116084346Y-135920634D01*
X116018529Y-136137602D01*
X115911653Y-136337555D01*
X115767818Y-136512818D01*
X115592555Y-136656653D01*
X115401521Y-136758762D01*
X115381147Y-136772375D01*
X115363820Y-136789702D01*
X115350206Y-136810077D01*
X115340828Y-136832715D01*
X115336048Y-136856749D01*
X115336048Y-136881253D01*
X115340828Y-136905286D01*
X115350206Y-136927925D01*
X115363819Y-136948299D01*
X115381146Y-136965626D01*
X115401521Y-136979240D01*
X115424159Y-136988618D01*
X115448193Y-136993398D01*
X115460445Y-136994000D01*
X115601000Y-136994000D01*
X115601000Y-138596000D01*
X112999000Y-138596000D01*
X112999000Y-136994000D01*
X113139555Y-136994000D01*
X113163941Y-136991598D01*
X113187390Y-136984485D01*
X113209001Y-136972934D01*
X113227943Y-136957389D01*
X113243488Y-136938447D01*
X113255039Y-136916836D01*
X113262152Y-136893387D01*
X113264554Y-136869001D01*
X113262152Y-136844615D01*
X113255039Y-136821166D01*
X113243488Y-136799555D01*
X113227943Y-136780613D01*
X113209001Y-136765068D01*
X113198479Y-136758762D01*
X113007445Y-136656653D01*
X112832182Y-136512818D01*
X112688347Y-136337555D01*
X112581471Y-136137602D01*
X112515654Y-135920634D01*
X112493431Y-135695000D01*
X112515654Y-135469366D01*
X112581471Y-135252398D01*
X112688347Y-135052445D01*
X112832182Y-134877182D01*
X113007445Y-134733347D01*
X113207398Y-134626471D01*
X113207400Y-134626470D01*
X113424365Y-134560654D01*
X113480729Y-134555103D01*
X113593455Y-134544000D01*
X115006545Y-134544000D01*
X115119271Y-134555103D01*
X115119271Y-134555103D01*
G37*
G36*
X167081000Y-135346000D02*
G01*
X163979000Y-135346000D01*
X163979000Y-132744000D01*
X167081000Y-132744000D01*
X167081000Y-135346000D01*
X167081000Y-135346000D01*
G37*
G36*
X189081000Y-132596000D02*
G01*
X185979000Y-132596000D01*
X185979000Y-129494000D01*
X189081000Y-129494000D01*
X189081000Y-132596000D01*
X189081000Y-132596000D01*
G37*
G36*
X167081000Y-132096000D02*
G01*
X163979000Y-132096000D01*
X163979000Y-129494000D01*
X167081000Y-129494000D01*
X167081000Y-132096000D01*
X167081000Y-132096000D01*
G37*
G36*
X125896823Y-126796313D02*
G01*
X126057242Y-126844976D01*
X126189906Y-126915886D01*
X126205078Y-126923996D01*
X126334659Y-127030341D01*
X126441004Y-127159922D01*
X126441005Y-127159924D01*
X126520024Y-127307758D01*
X126568687Y-127468177D01*
X126585117Y-127635000D01*
X126568687Y-127801823D01*
X126520024Y-127962242D01*
X126449114Y-128094906D01*
X126441004Y-128110078D01*
X126334659Y-128239659D01*
X126205078Y-128346004D01*
X126205076Y-128346005D01*
X126057242Y-128425024D01*
X125896823Y-128473687D01*
X125771804Y-128486000D01*
X125688196Y-128486000D01*
X125563177Y-128473687D01*
X125402758Y-128425024D01*
X125254924Y-128346005D01*
X125254922Y-128346004D01*
X125125341Y-128239659D01*
X125018996Y-128110078D01*
X125010886Y-128094906D01*
X124939976Y-127962242D01*
X124891313Y-127801823D01*
X124874883Y-127635000D01*
X124891313Y-127468177D01*
X124939976Y-127307758D01*
X125018995Y-127159924D01*
X125018996Y-127159922D01*
X125125341Y-127030341D01*
X125254922Y-126923996D01*
X125270094Y-126915886D01*
X125402758Y-126844976D01*
X125563177Y-126796313D01*
X125688196Y-126784000D01*
X125771804Y-126784000D01*
X125896823Y-126796313D01*
X125896823Y-126796313D01*
G37*
G36*
X173465443Y-122295519D02*
G01*
X173531627Y-122302037D01*
X173701466Y-122353557D01*
X173857991Y-122437222D01*
X173893729Y-122466552D01*
X173995186Y-122549814D01*
X174078448Y-122651271D01*
X174107778Y-122687009D01*
X174191443Y-122843534D01*
X174242963Y-123013373D01*
X174260359Y-123190000D01*
X174242963Y-123366627D01*
X174191443Y-123536466D01*
X174107778Y-123692991D01*
X174078448Y-123728729D01*
X173995186Y-123830186D01*
X173893729Y-123913448D01*
X173857991Y-123942778D01*
X173701466Y-124026443D01*
X173531627Y-124077963D01*
X173465442Y-124084482D01*
X173399260Y-124091000D01*
X173310740Y-124091000D01*
X173244558Y-124084482D01*
X173178373Y-124077963D01*
X173008534Y-124026443D01*
X172852009Y-123942778D01*
X172816271Y-123913448D01*
X172714814Y-123830186D01*
X172631552Y-123728729D01*
X172602222Y-123692991D01*
X172518557Y-123536466D01*
X172467037Y-123366627D01*
X172449641Y-123190000D01*
X172467037Y-123013373D01*
X172518557Y-122843534D01*
X172602222Y-122687009D01*
X172631552Y-122651271D01*
X172714814Y-122549814D01*
X172816271Y-122466552D01*
X172852009Y-122437222D01*
X173008534Y-122353557D01*
X173178373Y-122302037D01*
X173244557Y-122295519D01*
X173310740Y-122289000D01*
X173399260Y-122289000D01*
X173465443Y-122295519D01*
X173465443Y-122295519D01*
G37*
G36*
X124626822Y-120246313D02*
G01*
X124787241Y-120294976D01*
X124935077Y-120373995D01*
X125056171Y-120473375D01*
X125064659Y-120480341D01*
X125171004Y-120609922D01*
X125171005Y-120609924D01*
X125250024Y-120757758D01*
X125298687Y-120918177D01*
X125311000Y-121043196D01*
X125311000Y-121526803D01*
X125298687Y-121651822D01*
X125250024Y-121812242D01*
X125179114Y-121944906D01*
X125171004Y-121960078D01*
X125064659Y-122089659D01*
X124935078Y-122196004D01*
X124935076Y-122196005D01*
X124787242Y-122275024D01*
X124626823Y-122323687D01*
X124460000Y-122340117D01*
X124293178Y-122323687D01*
X124132759Y-122275024D01*
X123984925Y-122196005D01*
X123984923Y-122196004D01*
X123855342Y-122089659D01*
X123748996Y-121960078D01*
X123740886Y-121944906D01*
X123669976Y-121812242D01*
X123621313Y-121651823D01*
X123609000Y-121526804D01*
X123609000Y-121043197D01*
X123621313Y-120918178D01*
X123669976Y-120757759D01*
X123748995Y-120609923D01*
X123855341Y-120480341D01*
X123863829Y-120473375D01*
X123984922Y-120373996D01*
X124000094Y-120365886D01*
X124132758Y-120294976D01*
X124293177Y-120246313D01*
X124460000Y-120229883D01*
X124626822Y-120246313D01*
X124626822Y-120246313D01*
G37*
G36*
X132246822Y-120246313D02*
G01*
X132407241Y-120294976D01*
X132555077Y-120373995D01*
X132676171Y-120473375D01*
X132684659Y-120480341D01*
X132791004Y-120609922D01*
X132791005Y-120609924D01*
X132870024Y-120757758D01*
X132918687Y-120918177D01*
X132931000Y-121043196D01*
X132931000Y-121526803D01*
X132918687Y-121651822D01*
X132870024Y-121812242D01*
X132799114Y-121944906D01*
X132791004Y-121960078D01*
X132684659Y-122089659D01*
X132555078Y-122196004D01*
X132555076Y-122196005D01*
X132407242Y-122275024D01*
X132246823Y-122323687D01*
X132080000Y-122340117D01*
X131913178Y-122323687D01*
X131752759Y-122275024D01*
X131604925Y-122196005D01*
X131604923Y-122196004D01*
X131475342Y-122089659D01*
X131368996Y-121960078D01*
X131360886Y-121944906D01*
X131289976Y-121812242D01*
X131241313Y-121651823D01*
X131229000Y-121526804D01*
X131229000Y-121043197D01*
X131241313Y-120918178D01*
X131289976Y-120757759D01*
X131368995Y-120609923D01*
X131475341Y-120480341D01*
X131483829Y-120473375D01*
X131604922Y-120373996D01*
X131620094Y-120365886D01*
X131752758Y-120294976D01*
X131913177Y-120246313D01*
X132080000Y-120229883D01*
X132246822Y-120246313D01*
X132246822Y-120246313D01*
G37*
G36*
X137326822Y-120246313D02*
G01*
X137487241Y-120294976D01*
X137635077Y-120373995D01*
X137756171Y-120473375D01*
X137764659Y-120480341D01*
X137871004Y-120609922D01*
X137871005Y-120609924D01*
X137950024Y-120757758D01*
X137998687Y-120918177D01*
X138011000Y-121043196D01*
X138011000Y-121526803D01*
X137998687Y-121651822D01*
X137950024Y-121812242D01*
X137879114Y-121944906D01*
X137871004Y-121960078D01*
X137764659Y-122089659D01*
X137635078Y-122196004D01*
X137635076Y-122196005D01*
X137487242Y-122275024D01*
X137326823Y-122323687D01*
X137160000Y-122340117D01*
X136993178Y-122323687D01*
X136832759Y-122275024D01*
X136684925Y-122196005D01*
X136684923Y-122196004D01*
X136555342Y-122089659D01*
X136448996Y-121960078D01*
X136440886Y-121944906D01*
X136369976Y-121812242D01*
X136321313Y-121651823D01*
X136309000Y-121526804D01*
X136309000Y-121043197D01*
X136321313Y-120918178D01*
X136369976Y-120757759D01*
X136448995Y-120609923D01*
X136555341Y-120480341D01*
X136563829Y-120473375D01*
X136684922Y-120373996D01*
X136700094Y-120365886D01*
X136832758Y-120294976D01*
X136993177Y-120246313D01*
X137160000Y-120229883D01*
X137326822Y-120246313D01*
X137326822Y-120246313D01*
G37*
G36*
X129706822Y-120246313D02*
G01*
X129867241Y-120294976D01*
X130015077Y-120373995D01*
X130136171Y-120473375D01*
X130144659Y-120480341D01*
X130251004Y-120609922D01*
X130251005Y-120609924D01*
X130330024Y-120757758D01*
X130378687Y-120918177D01*
X130391000Y-121043196D01*
X130391000Y-121526803D01*
X130378687Y-121651822D01*
X130330024Y-121812242D01*
X130259114Y-121944906D01*
X130251004Y-121960078D01*
X130144659Y-122089659D01*
X130015078Y-122196004D01*
X130015076Y-122196005D01*
X129867242Y-122275024D01*
X129706823Y-122323687D01*
X129540000Y-122340117D01*
X129373178Y-122323687D01*
X129212759Y-122275024D01*
X129064925Y-122196005D01*
X129064923Y-122196004D01*
X128935342Y-122089659D01*
X128828996Y-121960078D01*
X128820886Y-121944906D01*
X128749976Y-121812242D01*
X128701313Y-121651823D01*
X128689000Y-121526804D01*
X128689000Y-121043197D01*
X128701313Y-120918178D01*
X128749976Y-120757759D01*
X128828995Y-120609923D01*
X128935341Y-120480341D01*
X128943829Y-120473375D01*
X129064922Y-120373996D01*
X129080094Y-120365886D01*
X129212758Y-120294976D01*
X129373177Y-120246313D01*
X129540000Y-120229883D01*
X129706822Y-120246313D01*
X129706822Y-120246313D01*
G37*
G36*
X127166822Y-120246313D02*
G01*
X127327241Y-120294976D01*
X127475077Y-120373995D01*
X127596171Y-120473375D01*
X127604659Y-120480341D01*
X127711004Y-120609922D01*
X127711005Y-120609924D01*
X127790024Y-120757758D01*
X127838687Y-120918177D01*
X127851000Y-121043196D01*
X127851000Y-121526803D01*
X127838687Y-121651822D01*
X127790024Y-121812242D01*
X127719114Y-121944906D01*
X127711004Y-121960078D01*
X127604659Y-122089659D01*
X127475078Y-122196004D01*
X127475076Y-122196005D01*
X127327242Y-122275024D01*
X127166823Y-122323687D01*
X127000000Y-122340117D01*
X126833178Y-122323687D01*
X126672759Y-122275024D01*
X126524925Y-122196005D01*
X126524923Y-122196004D01*
X126395342Y-122089659D01*
X126288996Y-121960078D01*
X126280886Y-121944906D01*
X126209976Y-121812242D01*
X126161313Y-121651823D01*
X126149000Y-121526804D01*
X126149000Y-121043197D01*
X126161313Y-120918178D01*
X126209976Y-120757759D01*
X126288995Y-120609923D01*
X126395341Y-120480341D01*
X126403829Y-120473375D01*
X126524922Y-120373996D01*
X126540094Y-120365886D01*
X126672758Y-120294976D01*
X126833177Y-120246313D01*
X127000000Y-120229883D01*
X127166822Y-120246313D01*
X127166822Y-120246313D01*
G37*
G36*
X122086822Y-120246313D02*
G01*
X122247241Y-120294976D01*
X122395077Y-120373995D01*
X122516171Y-120473375D01*
X122524659Y-120480341D01*
X122631004Y-120609922D01*
X122631005Y-120609924D01*
X122710024Y-120757758D01*
X122758687Y-120918177D01*
X122771000Y-121043196D01*
X122771000Y-121526803D01*
X122758687Y-121651822D01*
X122710024Y-121812242D01*
X122639114Y-121944906D01*
X122631004Y-121960078D01*
X122524659Y-122089659D01*
X122395078Y-122196004D01*
X122395076Y-122196005D01*
X122247242Y-122275024D01*
X122086823Y-122323687D01*
X121920000Y-122340117D01*
X121753178Y-122323687D01*
X121592759Y-122275024D01*
X121444925Y-122196005D01*
X121444923Y-122196004D01*
X121315342Y-122089659D01*
X121208996Y-121960078D01*
X121200886Y-121944906D01*
X121129976Y-121812242D01*
X121081313Y-121651823D01*
X121069000Y-121526804D01*
X121069000Y-121043197D01*
X121081313Y-120918178D01*
X121129976Y-120757759D01*
X121208995Y-120609923D01*
X121315341Y-120480341D01*
X121323829Y-120473375D01*
X121444922Y-120373996D01*
X121460094Y-120365886D01*
X121592758Y-120294976D01*
X121753177Y-120246313D01*
X121920000Y-120229883D01*
X122086822Y-120246313D01*
X122086822Y-120246313D01*
G37*
G36*
X134786822Y-120246313D02*
G01*
X134947241Y-120294976D01*
X135095077Y-120373995D01*
X135216171Y-120473375D01*
X135224659Y-120480341D01*
X135331004Y-120609922D01*
X135331005Y-120609924D01*
X135410024Y-120757758D01*
X135458687Y-120918177D01*
X135471000Y-121043196D01*
X135471000Y-121526803D01*
X135458687Y-121651822D01*
X135410024Y-121812242D01*
X135339114Y-121944906D01*
X135331004Y-121960078D01*
X135224659Y-122089659D01*
X135095078Y-122196004D01*
X135095076Y-122196005D01*
X134947242Y-122275024D01*
X134786823Y-122323687D01*
X134620000Y-122340117D01*
X134453178Y-122323687D01*
X134292759Y-122275024D01*
X134144925Y-122196005D01*
X134144923Y-122196004D01*
X134015342Y-122089659D01*
X133908996Y-121960078D01*
X133900886Y-121944906D01*
X133829976Y-121812242D01*
X133781313Y-121651823D01*
X133769000Y-121526804D01*
X133769000Y-121043197D01*
X133781313Y-120918178D01*
X133829976Y-120757759D01*
X133908995Y-120609923D01*
X134015341Y-120480341D01*
X134023829Y-120473375D01*
X134144922Y-120373996D01*
X134160094Y-120365886D01*
X134292758Y-120294976D01*
X134453177Y-120246313D01*
X134620000Y-120229883D01*
X134786822Y-120246313D01*
X134786822Y-120246313D01*
G37*
G36*
X120431000Y-122336000D02*
G01*
X118329000Y-122336000D01*
X118329000Y-120234000D01*
X120431000Y-120234000D01*
X120431000Y-122336000D01*
X120431000Y-122336000D01*
G37*
G36*
X157301000Y-121961000D02*
G01*
X153699000Y-121961000D01*
X153699000Y-116859000D01*
X157301000Y-116859000D01*
X157301000Y-121961000D01*
X157301000Y-121961000D01*
G37*
G36*
X163751000Y-121961000D02*
G01*
X160149000Y-121961000D01*
X160149000Y-116859000D01*
X163751000Y-116859000D01*
X163751000Y-121961000D01*
X163751000Y-121961000D01*
G37*
G36*
X173465442Y-119755518D02*
G01*
X173531627Y-119762037D01*
X173701466Y-119813557D01*
X173857991Y-119897222D01*
X173893729Y-119926552D01*
X173995186Y-120009814D01*
X174078448Y-120111271D01*
X174107778Y-120147009D01*
X174191443Y-120303534D01*
X174242963Y-120473373D01*
X174260359Y-120650000D01*
X174242963Y-120826627D01*
X174191443Y-120996466D01*
X174107778Y-121152991D01*
X174078448Y-121188729D01*
X173995186Y-121290186D01*
X173893729Y-121373448D01*
X173857991Y-121402778D01*
X173701466Y-121486443D01*
X173531627Y-121537963D01*
X173465443Y-121544481D01*
X173399260Y-121551000D01*
X173310740Y-121551000D01*
X173244557Y-121544481D01*
X173178373Y-121537963D01*
X173008534Y-121486443D01*
X172852009Y-121402778D01*
X172816271Y-121373448D01*
X172714814Y-121290186D01*
X172631552Y-121188729D01*
X172602222Y-121152991D01*
X172518557Y-120996466D01*
X172467037Y-120826627D01*
X172449641Y-120650000D01*
X172467037Y-120473373D01*
X172518557Y-120303534D01*
X172602222Y-120147009D01*
X172631552Y-120111271D01*
X172714814Y-120009814D01*
X172816271Y-119926552D01*
X172852009Y-119897222D01*
X173008534Y-119813557D01*
X173178373Y-119762037D01*
X173244558Y-119755518D01*
X173310740Y-119749000D01*
X173399260Y-119749000D01*
X173465442Y-119755518D01*
X173465442Y-119755518D01*
G37*
G36*
X173465443Y-117215519D02*
G01*
X173531627Y-117222037D01*
X173701466Y-117273557D01*
X173857991Y-117357222D01*
X173893729Y-117386552D01*
X173995186Y-117469814D01*
X174078448Y-117571271D01*
X174107778Y-117607009D01*
X174191443Y-117763534D01*
X174242963Y-117933373D01*
X174260359Y-118110000D01*
X174242963Y-118286627D01*
X174191443Y-118456466D01*
X174107778Y-118612991D01*
X174078448Y-118648729D01*
X173995186Y-118750186D01*
X173893729Y-118833448D01*
X173857991Y-118862778D01*
X173701466Y-118946443D01*
X173531627Y-118997963D01*
X173465443Y-119004481D01*
X173399260Y-119011000D01*
X173310740Y-119011000D01*
X173244557Y-119004481D01*
X173178373Y-118997963D01*
X173008534Y-118946443D01*
X172852009Y-118862778D01*
X172816271Y-118833448D01*
X172714814Y-118750186D01*
X172631552Y-118648729D01*
X172602222Y-118612991D01*
X172518557Y-118456466D01*
X172467037Y-118286627D01*
X172449641Y-118110000D01*
X172467037Y-117933373D01*
X172518557Y-117763534D01*
X172602222Y-117607009D01*
X172631552Y-117571271D01*
X172714814Y-117469814D01*
X172816271Y-117386552D01*
X172852009Y-117357222D01*
X173008534Y-117273557D01*
X173178373Y-117222037D01*
X173244557Y-117215519D01*
X173310740Y-117209000D01*
X173399260Y-117209000D01*
X173465443Y-117215519D01*
X173465443Y-117215519D01*
G37*
G36*
X173465443Y-114675519D02*
G01*
X173531627Y-114682037D01*
X173701466Y-114733557D01*
X173857991Y-114817222D01*
X173893729Y-114846552D01*
X173995186Y-114929814D01*
X174078448Y-115031271D01*
X174107778Y-115067009D01*
X174191443Y-115223534D01*
X174242963Y-115393373D01*
X174260359Y-115570000D01*
X174242963Y-115746627D01*
X174191443Y-115916466D01*
X174107778Y-116072991D01*
X174078448Y-116108729D01*
X173995186Y-116210186D01*
X173893729Y-116293448D01*
X173857991Y-116322778D01*
X173701466Y-116406443D01*
X173531627Y-116457963D01*
X173465442Y-116464482D01*
X173399260Y-116471000D01*
X173310740Y-116471000D01*
X173244558Y-116464482D01*
X173178373Y-116457963D01*
X173008534Y-116406443D01*
X172852009Y-116322778D01*
X172816271Y-116293448D01*
X172714814Y-116210186D01*
X172631552Y-116108729D01*
X172602222Y-116072991D01*
X172518557Y-115916466D01*
X172467037Y-115746627D01*
X172449641Y-115570000D01*
X172467037Y-115393373D01*
X172518557Y-115223534D01*
X172602222Y-115067009D01*
X172631552Y-115031271D01*
X172714814Y-114929814D01*
X172816271Y-114846552D01*
X172852009Y-114817222D01*
X173008534Y-114733557D01*
X173178373Y-114682037D01*
X173244557Y-114675519D01*
X173310740Y-114669000D01*
X173399260Y-114669000D01*
X173465443Y-114675519D01*
X173465443Y-114675519D01*
G37*
G36*
X173465443Y-112135519D02*
G01*
X173531627Y-112142037D01*
X173701466Y-112193557D01*
X173857991Y-112277222D01*
X173893729Y-112306552D01*
X173995186Y-112389814D01*
X174078448Y-112491271D01*
X174107778Y-112527009D01*
X174191443Y-112683534D01*
X174242963Y-112853373D01*
X174260359Y-113030000D01*
X174242963Y-113206627D01*
X174191443Y-113376466D01*
X174107778Y-113532991D01*
X174078448Y-113568729D01*
X173995186Y-113670186D01*
X173893729Y-113753448D01*
X173857991Y-113782778D01*
X173701466Y-113866443D01*
X173531627Y-113917963D01*
X173465443Y-113924481D01*
X173399260Y-113931000D01*
X173310740Y-113931000D01*
X173244557Y-113924481D01*
X173178373Y-113917963D01*
X173008534Y-113866443D01*
X172852009Y-113782778D01*
X172816271Y-113753448D01*
X172714814Y-113670186D01*
X172631552Y-113568729D01*
X172602222Y-113532991D01*
X172518557Y-113376466D01*
X172467037Y-113206627D01*
X172449641Y-113030000D01*
X172467037Y-112853373D01*
X172518557Y-112683534D01*
X172602222Y-112527009D01*
X172631552Y-112491271D01*
X172714814Y-112389814D01*
X172816271Y-112306552D01*
X172852009Y-112277222D01*
X173008534Y-112193557D01*
X173178373Y-112142037D01*
X173244557Y-112135519D01*
X173310740Y-112129000D01*
X173399260Y-112129000D01*
X173465443Y-112135519D01*
X173465443Y-112135519D01*
G37*
G36*
X173465442Y-109595518D02*
G01*
X173531627Y-109602037D01*
X173701466Y-109653557D01*
X173857991Y-109737222D01*
X173893729Y-109766552D01*
X173995186Y-109849814D01*
X174078448Y-109951271D01*
X174107778Y-109987009D01*
X174191443Y-110143534D01*
X174242963Y-110313373D01*
X174260359Y-110490000D01*
X174242963Y-110666627D01*
X174191443Y-110836466D01*
X174107778Y-110992991D01*
X174078448Y-111028729D01*
X173995186Y-111130186D01*
X173893729Y-111213448D01*
X173857991Y-111242778D01*
X173701466Y-111326443D01*
X173531627Y-111377963D01*
X173465443Y-111384481D01*
X173399260Y-111391000D01*
X173310740Y-111391000D01*
X173244557Y-111384481D01*
X173178373Y-111377963D01*
X173008534Y-111326443D01*
X172852009Y-111242778D01*
X172816271Y-111213448D01*
X172714814Y-111130186D01*
X172631552Y-111028729D01*
X172602222Y-110992991D01*
X172518557Y-110836466D01*
X172467037Y-110666627D01*
X172449641Y-110490000D01*
X172467037Y-110313373D01*
X172518557Y-110143534D01*
X172602222Y-109987009D01*
X172631552Y-109951271D01*
X172714814Y-109849814D01*
X172816271Y-109766552D01*
X172852009Y-109737222D01*
X173008534Y-109653557D01*
X173178373Y-109602037D01*
X173244558Y-109595518D01*
X173310740Y-109589000D01*
X173399260Y-109589000D01*
X173465442Y-109595518D01*
X173465442Y-109595518D01*
G37*
G36*
X173465442Y-107055518D02*
G01*
X173531627Y-107062037D01*
X173701466Y-107113557D01*
X173857991Y-107197222D01*
X173893729Y-107226552D01*
X173995186Y-107309814D01*
X174078448Y-107411271D01*
X174107778Y-107447009D01*
X174191443Y-107603534D01*
X174242963Y-107773373D01*
X174260359Y-107950000D01*
X174242963Y-108126627D01*
X174191443Y-108296466D01*
X174107778Y-108452991D01*
X174078448Y-108488729D01*
X173995186Y-108590186D01*
X173893729Y-108673448D01*
X173857991Y-108702778D01*
X173701466Y-108786443D01*
X173531627Y-108837963D01*
X173465442Y-108844482D01*
X173399260Y-108851000D01*
X173310740Y-108851000D01*
X173244558Y-108844482D01*
X173178373Y-108837963D01*
X173008534Y-108786443D01*
X172852009Y-108702778D01*
X172816271Y-108673448D01*
X172714814Y-108590186D01*
X172631552Y-108488729D01*
X172602222Y-108452991D01*
X172518557Y-108296466D01*
X172467037Y-108126627D01*
X172449641Y-107950000D01*
X172467037Y-107773373D01*
X172518557Y-107603534D01*
X172602222Y-107447009D01*
X172631552Y-107411271D01*
X172714814Y-107309814D01*
X172816271Y-107226552D01*
X172852009Y-107197222D01*
X173008534Y-107113557D01*
X173178373Y-107062037D01*
X173244558Y-107055518D01*
X173310740Y-107049000D01*
X173399260Y-107049000D01*
X173465442Y-107055518D01*
X173465442Y-107055518D01*
G37*
G36*
X173465443Y-104515519D02*
G01*
X173531627Y-104522037D01*
X173701466Y-104573557D01*
X173857991Y-104657222D01*
X173893729Y-104686552D01*
X173995186Y-104769814D01*
X174078448Y-104871271D01*
X174107778Y-104907009D01*
X174191443Y-105063534D01*
X174242963Y-105233373D01*
X174260359Y-105410000D01*
X174242963Y-105586627D01*
X174191443Y-105756466D01*
X174107778Y-105912991D01*
X174078448Y-105948729D01*
X173995186Y-106050186D01*
X173893729Y-106133448D01*
X173857991Y-106162778D01*
X173701466Y-106246443D01*
X173531627Y-106297963D01*
X173465442Y-106304482D01*
X173399260Y-106311000D01*
X173310740Y-106311000D01*
X173244558Y-106304482D01*
X173178373Y-106297963D01*
X173008534Y-106246443D01*
X172852009Y-106162778D01*
X172816271Y-106133448D01*
X172714814Y-106050186D01*
X172631552Y-105948729D01*
X172602222Y-105912991D01*
X172518557Y-105756466D01*
X172467037Y-105586627D01*
X172449641Y-105410000D01*
X172467037Y-105233373D01*
X172518557Y-105063534D01*
X172602222Y-104907009D01*
X172631552Y-104871271D01*
X172714814Y-104769814D01*
X172816271Y-104686552D01*
X172852009Y-104657222D01*
X173008534Y-104573557D01*
X173178373Y-104522037D01*
X173244557Y-104515519D01*
X173310740Y-104509000D01*
X173399260Y-104509000D01*
X173465443Y-104515519D01*
X173465443Y-104515519D01*
G37*
G36*
X173465442Y-101975518D02*
G01*
X173531627Y-101982037D01*
X173701466Y-102033557D01*
X173857991Y-102117222D01*
X173893729Y-102146552D01*
X173995186Y-102229814D01*
X174078448Y-102331271D01*
X174107778Y-102367009D01*
X174191443Y-102523534D01*
X174242963Y-102693373D01*
X174260359Y-102870000D01*
X174242963Y-103046627D01*
X174191443Y-103216466D01*
X174107778Y-103372991D01*
X174078448Y-103408729D01*
X173995186Y-103510186D01*
X173893729Y-103593448D01*
X173857991Y-103622778D01*
X173701466Y-103706443D01*
X173531627Y-103757963D01*
X173465443Y-103764481D01*
X173399260Y-103771000D01*
X173310740Y-103771000D01*
X173244557Y-103764481D01*
X173178373Y-103757963D01*
X173008534Y-103706443D01*
X172852009Y-103622778D01*
X172816271Y-103593448D01*
X172714814Y-103510186D01*
X172631552Y-103408729D01*
X172602222Y-103372991D01*
X172518557Y-103216466D01*
X172467037Y-103046627D01*
X172449641Y-102870000D01*
X172467037Y-102693373D01*
X172518557Y-102523534D01*
X172602222Y-102367009D01*
X172631552Y-102331271D01*
X172714814Y-102229814D01*
X172816271Y-102146552D01*
X172852009Y-102117222D01*
X173008534Y-102033557D01*
X173178373Y-101982037D01*
X173244558Y-101975518D01*
X173310740Y-101969000D01*
X173399260Y-101969000D01*
X173465442Y-101975518D01*
X173465442Y-101975518D01*
G37*
G36*
X173465443Y-99435519D02*
G01*
X173531627Y-99442037D01*
X173701466Y-99493557D01*
X173857991Y-99577222D01*
X173893729Y-99606552D01*
X173995186Y-99689814D01*
X174078448Y-99791271D01*
X174107778Y-99827009D01*
X174191443Y-99983534D01*
X174242963Y-100153373D01*
X174260359Y-100330000D01*
X174242963Y-100506627D01*
X174191443Y-100676466D01*
X174107778Y-100832991D01*
X174078448Y-100868729D01*
X173995186Y-100970186D01*
X173893729Y-101053448D01*
X173857991Y-101082778D01*
X173701466Y-101166443D01*
X173531627Y-101217963D01*
X173465443Y-101224481D01*
X173399260Y-101231000D01*
X173310740Y-101231000D01*
X173244558Y-101224482D01*
X173178373Y-101217963D01*
X173008534Y-101166443D01*
X172852009Y-101082778D01*
X172816271Y-101053448D01*
X172714814Y-100970186D01*
X172631552Y-100868729D01*
X172602222Y-100832991D01*
X172518557Y-100676466D01*
X172467037Y-100506627D01*
X172449641Y-100330000D01*
X172467037Y-100153373D01*
X172518557Y-99983534D01*
X172602222Y-99827009D01*
X172631552Y-99791271D01*
X172714814Y-99689814D01*
X172816271Y-99606552D01*
X172852009Y-99577222D01*
X173008534Y-99493557D01*
X173178373Y-99442037D01*
X173244558Y-99435518D01*
X173310740Y-99429000D01*
X173399260Y-99429000D01*
X173465443Y-99435519D01*
X173465443Y-99435519D01*
G37*
G36*
X137326822Y-97386313D02*
G01*
X137487241Y-97434976D01*
X137635077Y-97513995D01*
X137756171Y-97613375D01*
X137764659Y-97620341D01*
X137871004Y-97749922D01*
X137871005Y-97749924D01*
X137950024Y-97897758D01*
X137998687Y-98058177D01*
X138011000Y-98183196D01*
X138011000Y-98666803D01*
X137998687Y-98791822D01*
X137950024Y-98952242D01*
X137879114Y-99084906D01*
X137871004Y-99100078D01*
X137764659Y-99229659D01*
X137635078Y-99336004D01*
X137635076Y-99336005D01*
X137487242Y-99415024D01*
X137326823Y-99463687D01*
X137160000Y-99480117D01*
X136993178Y-99463687D01*
X136832759Y-99415024D01*
X136684925Y-99336005D01*
X136684923Y-99336004D01*
X136555342Y-99229659D01*
X136448996Y-99100078D01*
X136440886Y-99084906D01*
X136369976Y-98952242D01*
X136321313Y-98791823D01*
X136309000Y-98666804D01*
X136309000Y-98183197D01*
X136321313Y-98058178D01*
X136369976Y-97897759D01*
X136448995Y-97749923D01*
X136555341Y-97620341D01*
X136563829Y-97613375D01*
X136684922Y-97513996D01*
X136700094Y-97505886D01*
X136832758Y-97434976D01*
X136993177Y-97386313D01*
X137160000Y-97369883D01*
X137326822Y-97386313D01*
X137326822Y-97386313D01*
G37*
G36*
X132246822Y-97386313D02*
G01*
X132407241Y-97434976D01*
X132555077Y-97513995D01*
X132676171Y-97613375D01*
X132684659Y-97620341D01*
X132791004Y-97749922D01*
X132791005Y-97749924D01*
X132870024Y-97897758D01*
X132918687Y-98058177D01*
X132931000Y-98183196D01*
X132931000Y-98666803D01*
X132918687Y-98791822D01*
X132870024Y-98952242D01*
X132799114Y-99084906D01*
X132791004Y-99100078D01*
X132684659Y-99229659D01*
X132555078Y-99336004D01*
X132555076Y-99336005D01*
X132407242Y-99415024D01*
X132246823Y-99463687D01*
X132080000Y-99480117D01*
X131913178Y-99463687D01*
X131752759Y-99415024D01*
X131604925Y-99336005D01*
X131604923Y-99336004D01*
X131475342Y-99229659D01*
X131368996Y-99100078D01*
X131360886Y-99084906D01*
X131289976Y-98952242D01*
X131241313Y-98791823D01*
X131229000Y-98666804D01*
X131229000Y-98183197D01*
X131241313Y-98058178D01*
X131289976Y-97897759D01*
X131368995Y-97749923D01*
X131475341Y-97620341D01*
X131483829Y-97613375D01*
X131604922Y-97513996D01*
X131620094Y-97505886D01*
X131752758Y-97434976D01*
X131913177Y-97386313D01*
X132080000Y-97369883D01*
X132246822Y-97386313D01*
X132246822Y-97386313D01*
G37*
G36*
X129706822Y-97386313D02*
G01*
X129867241Y-97434976D01*
X130015077Y-97513995D01*
X130136171Y-97613375D01*
X130144659Y-97620341D01*
X130251004Y-97749922D01*
X130251005Y-97749924D01*
X130330024Y-97897758D01*
X130378687Y-98058177D01*
X130391000Y-98183196D01*
X130391000Y-98666803D01*
X130378687Y-98791822D01*
X130330024Y-98952242D01*
X130259114Y-99084906D01*
X130251004Y-99100078D01*
X130144659Y-99229659D01*
X130015078Y-99336004D01*
X130015076Y-99336005D01*
X129867242Y-99415024D01*
X129706823Y-99463687D01*
X129540000Y-99480117D01*
X129373178Y-99463687D01*
X129212759Y-99415024D01*
X129064925Y-99336005D01*
X129064923Y-99336004D01*
X128935342Y-99229659D01*
X128828996Y-99100078D01*
X128820886Y-99084906D01*
X128749976Y-98952242D01*
X128701313Y-98791823D01*
X128689000Y-98666804D01*
X128689000Y-98183197D01*
X128701313Y-98058178D01*
X128749976Y-97897759D01*
X128828995Y-97749923D01*
X128935341Y-97620341D01*
X128943829Y-97613375D01*
X129064922Y-97513996D01*
X129080094Y-97505886D01*
X129212758Y-97434976D01*
X129373177Y-97386313D01*
X129540000Y-97369883D01*
X129706822Y-97386313D01*
X129706822Y-97386313D01*
G37*
G36*
X127166822Y-97386313D02*
G01*
X127327241Y-97434976D01*
X127475077Y-97513995D01*
X127596171Y-97613375D01*
X127604659Y-97620341D01*
X127711004Y-97749922D01*
X127711005Y-97749924D01*
X127790024Y-97897758D01*
X127838687Y-98058177D01*
X127851000Y-98183196D01*
X127851000Y-98666803D01*
X127838687Y-98791822D01*
X127790024Y-98952242D01*
X127719114Y-99084906D01*
X127711004Y-99100078D01*
X127604659Y-99229659D01*
X127475078Y-99336004D01*
X127475076Y-99336005D01*
X127327242Y-99415024D01*
X127166823Y-99463687D01*
X127000000Y-99480117D01*
X126833178Y-99463687D01*
X126672759Y-99415024D01*
X126524925Y-99336005D01*
X126524923Y-99336004D01*
X126395342Y-99229659D01*
X126288996Y-99100078D01*
X126280886Y-99084906D01*
X126209976Y-98952242D01*
X126161313Y-98791823D01*
X126149000Y-98666804D01*
X126149000Y-98183197D01*
X126161313Y-98058178D01*
X126209976Y-97897759D01*
X126288995Y-97749923D01*
X126395341Y-97620341D01*
X126403829Y-97613375D01*
X126524922Y-97513996D01*
X126540094Y-97505886D01*
X126672758Y-97434976D01*
X126833177Y-97386313D01*
X127000000Y-97369883D01*
X127166822Y-97386313D01*
X127166822Y-97386313D01*
G37*
G36*
X134786822Y-97386313D02*
G01*
X134947241Y-97434976D01*
X135095077Y-97513995D01*
X135216171Y-97613375D01*
X135224659Y-97620341D01*
X135331004Y-97749922D01*
X135331005Y-97749924D01*
X135410024Y-97897758D01*
X135458687Y-98058177D01*
X135471000Y-98183196D01*
X135471000Y-98666803D01*
X135458687Y-98791822D01*
X135410024Y-98952242D01*
X135339114Y-99084906D01*
X135331004Y-99100078D01*
X135224659Y-99229659D01*
X135095078Y-99336004D01*
X135095076Y-99336005D01*
X134947242Y-99415024D01*
X134786823Y-99463687D01*
X134620000Y-99480117D01*
X134453178Y-99463687D01*
X134292759Y-99415024D01*
X134144925Y-99336005D01*
X134144923Y-99336004D01*
X134015342Y-99229659D01*
X133908996Y-99100078D01*
X133900886Y-99084906D01*
X133829976Y-98952242D01*
X133781313Y-98791823D01*
X133769000Y-98666804D01*
X133769000Y-98183197D01*
X133781313Y-98058178D01*
X133829976Y-97897759D01*
X133908995Y-97749923D01*
X134015341Y-97620341D01*
X134023829Y-97613375D01*
X134144922Y-97513996D01*
X134160094Y-97505886D01*
X134292758Y-97434976D01*
X134453177Y-97386313D01*
X134620000Y-97369883D01*
X134786822Y-97386313D01*
X134786822Y-97386313D01*
G37*
G36*
X124626822Y-97386313D02*
G01*
X124787241Y-97434976D01*
X124935077Y-97513995D01*
X125056171Y-97613375D01*
X125064659Y-97620341D01*
X125171004Y-97749922D01*
X125171005Y-97749924D01*
X125250024Y-97897758D01*
X125298687Y-98058177D01*
X125311000Y-98183196D01*
X125311000Y-98666803D01*
X125298687Y-98791822D01*
X125250024Y-98952242D01*
X125179114Y-99084906D01*
X125171004Y-99100078D01*
X125064659Y-99229659D01*
X124935078Y-99336004D01*
X124935076Y-99336005D01*
X124787242Y-99415024D01*
X124626823Y-99463687D01*
X124460000Y-99480117D01*
X124293178Y-99463687D01*
X124132759Y-99415024D01*
X123984925Y-99336005D01*
X123984923Y-99336004D01*
X123855342Y-99229659D01*
X123748996Y-99100078D01*
X123740886Y-99084906D01*
X123669976Y-98952242D01*
X123621313Y-98791823D01*
X123609000Y-98666804D01*
X123609000Y-98183197D01*
X123621313Y-98058178D01*
X123669976Y-97897759D01*
X123748995Y-97749923D01*
X123855341Y-97620341D01*
X123863829Y-97613375D01*
X123984922Y-97513996D01*
X124000094Y-97505886D01*
X124132758Y-97434976D01*
X124293177Y-97386313D01*
X124460000Y-97369883D01*
X124626822Y-97386313D01*
X124626822Y-97386313D01*
G37*
G36*
X119546822Y-97386313D02*
G01*
X119707241Y-97434976D01*
X119855077Y-97513995D01*
X119976171Y-97613375D01*
X119984659Y-97620341D01*
X120091004Y-97749922D01*
X120091005Y-97749924D01*
X120170024Y-97897758D01*
X120218687Y-98058177D01*
X120231000Y-98183196D01*
X120231000Y-98666803D01*
X120218687Y-98791822D01*
X120170024Y-98952242D01*
X120099114Y-99084906D01*
X120091004Y-99100078D01*
X119984659Y-99229659D01*
X119855078Y-99336004D01*
X119855076Y-99336005D01*
X119707242Y-99415024D01*
X119546823Y-99463687D01*
X119380000Y-99480117D01*
X119213178Y-99463687D01*
X119052759Y-99415024D01*
X118904925Y-99336005D01*
X118904923Y-99336004D01*
X118775342Y-99229659D01*
X118668996Y-99100078D01*
X118660886Y-99084906D01*
X118589976Y-98952242D01*
X118541313Y-98791823D01*
X118529000Y-98666804D01*
X118529000Y-98183197D01*
X118541313Y-98058178D01*
X118589976Y-97897759D01*
X118668995Y-97749923D01*
X118775341Y-97620341D01*
X118783829Y-97613375D01*
X118904922Y-97513996D01*
X118920094Y-97505886D01*
X119052758Y-97434976D01*
X119213177Y-97386313D01*
X119380000Y-97369883D01*
X119546822Y-97386313D01*
X119546822Y-97386313D01*
G37*
G36*
X122086822Y-97386313D02*
G01*
X122247241Y-97434976D01*
X122395077Y-97513995D01*
X122516171Y-97613375D01*
X122524659Y-97620341D01*
X122631004Y-97749922D01*
X122631005Y-97749924D01*
X122710024Y-97897758D01*
X122758687Y-98058177D01*
X122771000Y-98183196D01*
X122771000Y-98666803D01*
X122758687Y-98791822D01*
X122710024Y-98952242D01*
X122639114Y-99084906D01*
X122631004Y-99100078D01*
X122524659Y-99229659D01*
X122395078Y-99336004D01*
X122395076Y-99336005D01*
X122247242Y-99415024D01*
X122086823Y-99463687D01*
X121920000Y-99480117D01*
X121753178Y-99463687D01*
X121592759Y-99415024D01*
X121444925Y-99336005D01*
X121444923Y-99336004D01*
X121315342Y-99229659D01*
X121208996Y-99100078D01*
X121200886Y-99084906D01*
X121129976Y-98952242D01*
X121081313Y-98791823D01*
X121069000Y-98666804D01*
X121069000Y-98183197D01*
X121081313Y-98058178D01*
X121129976Y-97897759D01*
X121208995Y-97749923D01*
X121315341Y-97620341D01*
X121323829Y-97613375D01*
X121444922Y-97513996D01*
X121460094Y-97505886D01*
X121592758Y-97434976D01*
X121753177Y-97386313D01*
X121920000Y-97369883D01*
X122086822Y-97386313D01*
X122086822Y-97386313D01*
G37*
G36*
X173465442Y-96895518D02*
G01*
X173531627Y-96902037D01*
X173701466Y-96953557D01*
X173857991Y-97037222D01*
X173893729Y-97066552D01*
X173995186Y-97149814D01*
X174078448Y-97251271D01*
X174107778Y-97287009D01*
X174191443Y-97443534D01*
X174242963Y-97613373D01*
X174260359Y-97790000D01*
X174242963Y-97966627D01*
X174191443Y-98136466D01*
X174107778Y-98292991D01*
X174078448Y-98328729D01*
X173995186Y-98430186D01*
X173893729Y-98513448D01*
X173857991Y-98542778D01*
X173701466Y-98626443D01*
X173531627Y-98677963D01*
X173465442Y-98684482D01*
X173399260Y-98691000D01*
X173310740Y-98691000D01*
X173244558Y-98684482D01*
X173178373Y-98677963D01*
X173008534Y-98626443D01*
X172852009Y-98542778D01*
X172816271Y-98513448D01*
X172714814Y-98430186D01*
X172631552Y-98328729D01*
X172602222Y-98292991D01*
X172518557Y-98136466D01*
X172467037Y-97966627D01*
X172449641Y-97790000D01*
X172467037Y-97613373D01*
X172518557Y-97443534D01*
X172602222Y-97287009D01*
X172631552Y-97251271D01*
X172714814Y-97149814D01*
X172816271Y-97066552D01*
X172852009Y-97037222D01*
X173008534Y-96953557D01*
X173178373Y-96902037D01*
X173244558Y-96895518D01*
X173310740Y-96889000D01*
X173399260Y-96889000D01*
X173465442Y-96895518D01*
X173465442Y-96895518D01*
G37*
G36*
X173465442Y-94355518D02*
G01*
X173531627Y-94362037D01*
X173701466Y-94413557D01*
X173857991Y-94497222D01*
X173893729Y-94526552D01*
X173995186Y-94609814D01*
X174078448Y-94711271D01*
X174107778Y-94747009D01*
X174191443Y-94903534D01*
X174242963Y-95073373D01*
X174260359Y-95250000D01*
X174242963Y-95426627D01*
X174191443Y-95596466D01*
X174107778Y-95752991D01*
X174078448Y-95788729D01*
X173995186Y-95890186D01*
X173893729Y-95973448D01*
X173857991Y-96002778D01*
X173701466Y-96086443D01*
X173531627Y-96137963D01*
X173465443Y-96144481D01*
X173399260Y-96151000D01*
X173310740Y-96151000D01*
X173244558Y-96144482D01*
X173178373Y-96137963D01*
X173008534Y-96086443D01*
X172852009Y-96002778D01*
X172816271Y-95973448D01*
X172714814Y-95890186D01*
X172631552Y-95788729D01*
X172602222Y-95752991D01*
X172518557Y-95596466D01*
X172467037Y-95426627D01*
X172449641Y-95250000D01*
X172467037Y-95073373D01*
X172518557Y-94903534D01*
X172602222Y-94747009D01*
X172631552Y-94711271D01*
X172714814Y-94609814D01*
X172816271Y-94526552D01*
X172852009Y-94497222D01*
X173008534Y-94413557D01*
X173178373Y-94362037D01*
X173244557Y-94355519D01*
X173310740Y-94349000D01*
X173399260Y-94349000D01*
X173465442Y-94355518D01*
X173465442Y-94355518D01*
G37*
G36*
X173465442Y-91815518D02*
G01*
X173531627Y-91822037D01*
X173701466Y-91873557D01*
X173857991Y-91957222D01*
X173888768Y-91982480D01*
X173995186Y-92069814D01*
X174078448Y-92171271D01*
X174107778Y-92207009D01*
X174191443Y-92363534D01*
X174242963Y-92533373D01*
X174260359Y-92710000D01*
X174242963Y-92886627D01*
X174191443Y-93056466D01*
X174107778Y-93212991D01*
X174078448Y-93248729D01*
X173995186Y-93350186D01*
X173893729Y-93433448D01*
X173857991Y-93462778D01*
X173701466Y-93546443D01*
X173531627Y-93597963D01*
X173465442Y-93604482D01*
X173399260Y-93611000D01*
X173310740Y-93611000D01*
X173244557Y-93604481D01*
X173178373Y-93597963D01*
X173008534Y-93546443D01*
X172852009Y-93462778D01*
X172816271Y-93433448D01*
X172714814Y-93350186D01*
X172631552Y-93248729D01*
X172602222Y-93212991D01*
X172518557Y-93056466D01*
X172467037Y-92886627D01*
X172449641Y-92710000D01*
X172467037Y-92533373D01*
X172518557Y-92363534D01*
X172602222Y-92207009D01*
X172631552Y-92171271D01*
X172714814Y-92069814D01*
X172821232Y-91982480D01*
X172852009Y-91957222D01*
X173008534Y-91873557D01*
X173178373Y-91822037D01*
X173244558Y-91815518D01*
X173310740Y-91809000D01*
X173399260Y-91809000D01*
X173465442Y-91815518D01*
X173465442Y-91815518D01*
G37*
G36*
X128518228Y-90621703D02*
G01*
X128673100Y-90685853D01*
X128812481Y-90778985D01*
X128931015Y-90897519D01*
X129024147Y-91036900D01*
X129088297Y-91191772D01*
X129121000Y-91356184D01*
X129121000Y-91523816D01*
X129088297Y-91688228D01*
X129024147Y-91843100D01*
X128931015Y-91982481D01*
X128812481Y-92101015D01*
X128673100Y-92194147D01*
X128518228Y-92258297D01*
X128353816Y-92291000D01*
X128186184Y-92291000D01*
X128021772Y-92258297D01*
X127866900Y-92194147D01*
X127727519Y-92101015D01*
X127608985Y-91982481D01*
X127515853Y-91843100D01*
X127451703Y-91688228D01*
X127419000Y-91523816D01*
X127419000Y-91356184D01*
X127451703Y-91191772D01*
X127515853Y-91036900D01*
X127608985Y-90897519D01*
X127727519Y-90778985D01*
X127866900Y-90685853D01*
X128021772Y-90621703D01*
X128186184Y-90589000D01*
X128353816Y-90589000D01*
X128518228Y-90621703D01*
X128518228Y-90621703D01*
G37*
G36*
X134868228Y-90621703D02*
G01*
X135023100Y-90685853D01*
X135162481Y-90778985D01*
X135281015Y-90897519D01*
X135374147Y-91036900D01*
X135438297Y-91191772D01*
X135471000Y-91356184D01*
X135471000Y-91523816D01*
X135438297Y-91688228D01*
X135374147Y-91843100D01*
X135281015Y-91982481D01*
X135162481Y-92101015D01*
X135023100Y-92194147D01*
X134868228Y-92258297D01*
X134703816Y-92291000D01*
X134536184Y-92291000D01*
X134371772Y-92258297D01*
X134216900Y-92194147D01*
X134077519Y-92101015D01*
X133958985Y-91982481D01*
X133865853Y-91843100D01*
X133801703Y-91688228D01*
X133769000Y-91523816D01*
X133769000Y-91356184D01*
X133801703Y-91191772D01*
X133865853Y-91036900D01*
X133958985Y-90897519D01*
X134077519Y-90778985D01*
X134216900Y-90685853D01*
X134371772Y-90621703D01*
X134536184Y-90589000D01*
X134703816Y-90589000D01*
X134868228Y-90621703D01*
X134868228Y-90621703D01*
G37*
G36*
X115818228Y-90621703D02*
G01*
X115973100Y-90685853D01*
X116112481Y-90778985D01*
X116231015Y-90897519D01*
X116324147Y-91036900D01*
X116388297Y-91191772D01*
X116421000Y-91356184D01*
X116421000Y-91523816D01*
X116388297Y-91688228D01*
X116324147Y-91843100D01*
X116231015Y-91982481D01*
X116112481Y-92101015D01*
X115973100Y-92194147D01*
X115818228Y-92258297D01*
X115653816Y-92291000D01*
X115486184Y-92291000D01*
X115321772Y-92258297D01*
X115166900Y-92194147D01*
X115027519Y-92101015D01*
X114908985Y-91982481D01*
X114815853Y-91843100D01*
X114751703Y-91688228D01*
X114719000Y-91523816D01*
X114719000Y-91356184D01*
X114751703Y-91191772D01*
X114815853Y-91036900D01*
X114908985Y-90897519D01*
X115027519Y-90778985D01*
X115166900Y-90685853D01*
X115321772Y-90621703D01*
X115486184Y-90589000D01*
X115653816Y-90589000D01*
X115818228Y-90621703D01*
X115818228Y-90621703D01*
G37*
G36*
X122168228Y-90621703D02*
G01*
X122323100Y-90685853D01*
X122462481Y-90778985D01*
X122581015Y-90897519D01*
X122674147Y-91036900D01*
X122738297Y-91191772D01*
X122771000Y-91356184D01*
X122771000Y-91523816D01*
X122738297Y-91688228D01*
X122674147Y-91843100D01*
X122581015Y-91982481D01*
X122462481Y-92101015D01*
X122323100Y-92194147D01*
X122168228Y-92258297D01*
X122003816Y-92291000D01*
X121836184Y-92291000D01*
X121671772Y-92258297D01*
X121516900Y-92194147D01*
X121377519Y-92101015D01*
X121258985Y-91982481D01*
X121165853Y-91843100D01*
X121101703Y-91688228D01*
X121069000Y-91523816D01*
X121069000Y-91356184D01*
X121101703Y-91191772D01*
X121165853Y-91036900D01*
X121258985Y-90897519D01*
X121377519Y-90778985D01*
X121516900Y-90685853D01*
X121671772Y-90621703D01*
X121836184Y-90589000D01*
X122003816Y-90589000D01*
X122168228Y-90621703D01*
X122168228Y-90621703D01*
G37*
G36*
X173465443Y-89275519D02*
G01*
X173531627Y-89282037D01*
X173701466Y-89333557D01*
X173857991Y-89417222D01*
X173893729Y-89446552D01*
X173995186Y-89529814D01*
X174078448Y-89631271D01*
X174107778Y-89667009D01*
X174191443Y-89823534D01*
X174242963Y-89993373D01*
X174260359Y-90170000D01*
X174242963Y-90346627D01*
X174191443Y-90516466D01*
X174107778Y-90672991D01*
X174097223Y-90685852D01*
X173995186Y-90810186D01*
X173893729Y-90893448D01*
X173857991Y-90922778D01*
X173701466Y-91006443D01*
X173531627Y-91057963D01*
X173465442Y-91064482D01*
X173399260Y-91071000D01*
X173310740Y-91071000D01*
X173244558Y-91064482D01*
X173178373Y-91057963D01*
X173008534Y-91006443D01*
X172852009Y-90922778D01*
X172816271Y-90893448D01*
X172714814Y-90810186D01*
X172612777Y-90685852D01*
X172602222Y-90672991D01*
X172518557Y-90516466D01*
X172467037Y-90346627D01*
X172449641Y-90170000D01*
X172467037Y-89993373D01*
X172518557Y-89823534D01*
X172602222Y-89667009D01*
X172631552Y-89631271D01*
X172714814Y-89529814D01*
X172816271Y-89446552D01*
X172852009Y-89417222D01*
X173008534Y-89333557D01*
X173178373Y-89282037D01*
X173244557Y-89275519D01*
X173310740Y-89269000D01*
X173399260Y-89269000D01*
X173465443Y-89275519D01*
X173465443Y-89275519D01*
G37*
G36*
X157301000Y-90961000D02*
G01*
X153699000Y-90961000D01*
X153699000Y-85859000D01*
X157301000Y-85859000D01*
X157301000Y-90961000D01*
X157301000Y-90961000D01*
G37*
G36*
X163801000Y-90961000D02*
G01*
X160199000Y-90961000D01*
X160199000Y-85859000D01*
X163801000Y-85859000D01*
X163801000Y-90961000D01*
X163801000Y-90961000D01*
G37*
G36*
X173465442Y-86735518D02*
G01*
X173531627Y-86742037D01*
X173701466Y-86793557D01*
X173857991Y-86877222D01*
X173893729Y-86906552D01*
X173995186Y-86989814D01*
X174078448Y-87091271D01*
X174107778Y-87127009D01*
X174191443Y-87283534D01*
X174242963Y-87453373D01*
X174260359Y-87630000D01*
X174242963Y-87806627D01*
X174191443Y-87976466D01*
X174107778Y-88132991D01*
X174078448Y-88168729D01*
X173995186Y-88270186D01*
X173893729Y-88353448D01*
X173857991Y-88382778D01*
X173701466Y-88466443D01*
X173531627Y-88517963D01*
X173465442Y-88524482D01*
X173399260Y-88531000D01*
X173310740Y-88531000D01*
X173244558Y-88524482D01*
X173178373Y-88517963D01*
X173008534Y-88466443D01*
X172852009Y-88382778D01*
X172816271Y-88353448D01*
X172714814Y-88270186D01*
X172631552Y-88168729D01*
X172602222Y-88132991D01*
X172518557Y-87976466D01*
X172467037Y-87806627D01*
X172449641Y-87630000D01*
X172467037Y-87453373D01*
X172518557Y-87283534D01*
X172602222Y-87127009D01*
X172631552Y-87091271D01*
X172714814Y-86989814D01*
X172816271Y-86906552D01*
X172852009Y-86877222D01*
X173008534Y-86793557D01*
X173178373Y-86742037D01*
X173244558Y-86735518D01*
X173310740Y-86729000D01*
X173399260Y-86729000D01*
X173465442Y-86735518D01*
X173465442Y-86735518D01*
G37*
G36*
X174256000Y-85991000D02*
G01*
X172454000Y-85991000D01*
X172454000Y-84189000D01*
X174256000Y-84189000D01*
X174256000Y-85991000D01*
X174256000Y-85991000D01*
G37*
G36*
X184895443Y-83560519D02*
G01*
X184961627Y-83567037D01*
X185131466Y-83618557D01*
X185287991Y-83702222D01*
X185323729Y-83731552D01*
X185425186Y-83814814D01*
X185508448Y-83916271D01*
X185537778Y-83952009D01*
X185621443Y-84108534D01*
X185672963Y-84278373D01*
X185690359Y-84455000D01*
X185672963Y-84631627D01*
X185621443Y-84801466D01*
X185537778Y-84957991D01*
X185508448Y-84993729D01*
X185425186Y-85095186D01*
X185323729Y-85178448D01*
X185287991Y-85207778D01*
X185131466Y-85291443D01*
X184961627Y-85342963D01*
X184895442Y-85349482D01*
X184829260Y-85356000D01*
X184740740Y-85356000D01*
X184674558Y-85349482D01*
X184608373Y-85342963D01*
X184438534Y-85291443D01*
X184282009Y-85207778D01*
X184246271Y-85178448D01*
X184144814Y-85095186D01*
X184061552Y-84993729D01*
X184032222Y-84957991D01*
X183948557Y-84801466D01*
X183897037Y-84631627D01*
X183879641Y-84455000D01*
X183897037Y-84278373D01*
X183948557Y-84108534D01*
X184032222Y-83952009D01*
X184061552Y-83916271D01*
X184144814Y-83814814D01*
X184246271Y-83731552D01*
X184282009Y-83702222D01*
X184438534Y-83618557D01*
X184608373Y-83567037D01*
X184674557Y-83560519D01*
X184740740Y-83554000D01*
X184829260Y-83554000D01*
X184895443Y-83560519D01*
X184895443Y-83560519D01*
G37*
G36*
X178066000Y-85356000D02*
G01*
X176264000Y-85356000D01*
X176264000Y-83554000D01*
X178066000Y-83554000D01*
X178066000Y-85356000D01*
X178066000Y-85356000D01*
G37*
G36*
X179815443Y-83560519D02*
G01*
X179881627Y-83567037D01*
X180051466Y-83618557D01*
X180207991Y-83702222D01*
X180243729Y-83731552D01*
X180345186Y-83814814D01*
X180428448Y-83916271D01*
X180457778Y-83952009D01*
X180541443Y-84108534D01*
X180592963Y-84278373D01*
X180610359Y-84455000D01*
X180592963Y-84631627D01*
X180541443Y-84801466D01*
X180457778Y-84957991D01*
X180428448Y-84993729D01*
X180345186Y-85095186D01*
X180243729Y-85178448D01*
X180207991Y-85207778D01*
X180051466Y-85291443D01*
X179881627Y-85342963D01*
X179815442Y-85349482D01*
X179749260Y-85356000D01*
X179660740Y-85356000D01*
X179594558Y-85349482D01*
X179528373Y-85342963D01*
X179358534Y-85291443D01*
X179202009Y-85207778D01*
X179166271Y-85178448D01*
X179064814Y-85095186D01*
X178981552Y-84993729D01*
X178952222Y-84957991D01*
X178868557Y-84801466D01*
X178817037Y-84631627D01*
X178799641Y-84455000D01*
X178817037Y-84278373D01*
X178868557Y-84108534D01*
X178952222Y-83952009D01*
X178981552Y-83916271D01*
X179064814Y-83814814D01*
X179166271Y-83731552D01*
X179202009Y-83702222D01*
X179358534Y-83618557D01*
X179528373Y-83567037D01*
X179594557Y-83560519D01*
X179660740Y-83554000D01*
X179749260Y-83554000D01*
X179815443Y-83560519D01*
X179815443Y-83560519D01*
G37*
G36*
X182355443Y-83560519D02*
G01*
X182421627Y-83567037D01*
X182591466Y-83618557D01*
X182747991Y-83702222D01*
X182783729Y-83731552D01*
X182885186Y-83814814D01*
X182968448Y-83916271D01*
X182997778Y-83952009D01*
X183081443Y-84108534D01*
X183132963Y-84278373D01*
X183150359Y-84455000D01*
X183132963Y-84631627D01*
X183081443Y-84801466D01*
X182997778Y-84957991D01*
X182968448Y-84993729D01*
X182885186Y-85095186D01*
X182783729Y-85178448D01*
X182747991Y-85207778D01*
X182591466Y-85291443D01*
X182421627Y-85342963D01*
X182355442Y-85349482D01*
X182289260Y-85356000D01*
X182200740Y-85356000D01*
X182134558Y-85349482D01*
X182068373Y-85342963D01*
X181898534Y-85291443D01*
X181742009Y-85207778D01*
X181706271Y-85178448D01*
X181604814Y-85095186D01*
X181521552Y-84993729D01*
X181492222Y-84957991D01*
X181408557Y-84801466D01*
X181357037Y-84631627D01*
X181339641Y-84455000D01*
X181357037Y-84278373D01*
X181408557Y-84108534D01*
X181492222Y-83952009D01*
X181521552Y-83916271D01*
X181604814Y-83814814D01*
X181706271Y-83731552D01*
X181742009Y-83702222D01*
X181898534Y-83618557D01*
X182068373Y-83567037D01*
X182134557Y-83560519D01*
X182200740Y-83554000D01*
X182289260Y-83554000D01*
X182355443Y-83560519D01*
X182355443Y-83560519D01*
G37*
G36*
X134786823Y-80441313D02*
G01*
X134947242Y-80489976D01*
X135079906Y-80560886D01*
X135095078Y-80568996D01*
X135224659Y-80675341D01*
X135331004Y-80804922D01*
X135331005Y-80804924D01*
X135410024Y-80952758D01*
X135458687Y-81113177D01*
X135475117Y-81280000D01*
X135458687Y-81446823D01*
X135410024Y-81607242D01*
X135339114Y-81739906D01*
X135331004Y-81755078D01*
X135224659Y-81884659D01*
X135095078Y-81991004D01*
X135095076Y-81991005D01*
X134947242Y-82070024D01*
X134786823Y-82118687D01*
X134661804Y-82131000D01*
X134578196Y-82131000D01*
X134453177Y-82118687D01*
X134292758Y-82070024D01*
X134144924Y-81991005D01*
X134144922Y-81991004D01*
X134015341Y-81884659D01*
X133908996Y-81755078D01*
X133900886Y-81739906D01*
X133829976Y-81607242D01*
X133781313Y-81446823D01*
X133764883Y-81280000D01*
X133781313Y-81113177D01*
X133829976Y-80952758D01*
X133908995Y-80804924D01*
X133908996Y-80804922D01*
X134015341Y-80675341D01*
X134144922Y-80568996D01*
X134160094Y-80560886D01*
X134292758Y-80489976D01*
X134453177Y-80441313D01*
X134578196Y-80429000D01*
X134661804Y-80429000D01*
X134786823Y-80441313D01*
X134786823Y-80441313D01*
G37*
G36*
X128436823Y-80441313D02*
G01*
X128597242Y-80489976D01*
X128729906Y-80560886D01*
X128745078Y-80568996D01*
X128874659Y-80675341D01*
X128981004Y-80804922D01*
X128981005Y-80804924D01*
X129060024Y-80952758D01*
X129108687Y-81113177D01*
X129125117Y-81280000D01*
X129108687Y-81446823D01*
X129060024Y-81607242D01*
X128989114Y-81739906D01*
X128981004Y-81755078D01*
X128874659Y-81884659D01*
X128745078Y-81991004D01*
X128745076Y-81991005D01*
X128597242Y-82070024D01*
X128436823Y-82118687D01*
X128311804Y-82131000D01*
X128228196Y-82131000D01*
X128103177Y-82118687D01*
X127942758Y-82070024D01*
X127794924Y-81991005D01*
X127794922Y-81991004D01*
X127665341Y-81884659D01*
X127558996Y-81755078D01*
X127550886Y-81739906D01*
X127479976Y-81607242D01*
X127431313Y-81446823D01*
X127414883Y-81280000D01*
X127431313Y-81113177D01*
X127479976Y-80952758D01*
X127558995Y-80804924D01*
X127558996Y-80804922D01*
X127665341Y-80675341D01*
X127794922Y-80568996D01*
X127810094Y-80560886D01*
X127942758Y-80489976D01*
X128103177Y-80441313D01*
X128228196Y-80429000D01*
X128311804Y-80429000D01*
X128436823Y-80441313D01*
X128436823Y-80441313D01*
G37*
G36*
X122086823Y-80441313D02*
G01*
X122247242Y-80489976D01*
X122379906Y-80560886D01*
X122395078Y-80568996D01*
X122524659Y-80675341D01*
X122631004Y-80804922D01*
X122631005Y-80804924D01*
X122710024Y-80952758D01*
X122758687Y-81113177D01*
X122775117Y-81280000D01*
X122758687Y-81446823D01*
X122710024Y-81607242D01*
X122639114Y-81739906D01*
X122631004Y-81755078D01*
X122524659Y-81884659D01*
X122395078Y-81991004D01*
X122395076Y-81991005D01*
X122247242Y-82070024D01*
X122086823Y-82118687D01*
X121961804Y-82131000D01*
X121878196Y-82131000D01*
X121753177Y-82118687D01*
X121592758Y-82070024D01*
X121444924Y-81991005D01*
X121444922Y-81991004D01*
X121315341Y-81884659D01*
X121208996Y-81755078D01*
X121200886Y-81739906D01*
X121129976Y-81607242D01*
X121081313Y-81446823D01*
X121064883Y-81280000D01*
X121081313Y-81113177D01*
X121129976Y-80952758D01*
X121208995Y-80804924D01*
X121208996Y-80804922D01*
X121315341Y-80675341D01*
X121444922Y-80568996D01*
X121460094Y-80560886D01*
X121592758Y-80489976D01*
X121753177Y-80441313D01*
X121878196Y-80429000D01*
X121961804Y-80429000D01*
X122086823Y-80441313D01*
X122086823Y-80441313D01*
G37*
G36*
X115736823Y-80441313D02*
G01*
X115897242Y-80489976D01*
X116029906Y-80560886D01*
X116045078Y-80568996D01*
X116174659Y-80675341D01*
X116281004Y-80804922D01*
X116281005Y-80804924D01*
X116360024Y-80952758D01*
X116408687Y-81113177D01*
X116425117Y-81280000D01*
X116408687Y-81446823D01*
X116360024Y-81607242D01*
X116289114Y-81739906D01*
X116281004Y-81755078D01*
X116174659Y-81884659D01*
X116045078Y-81991004D01*
X116045076Y-81991005D01*
X115897242Y-82070024D01*
X115736823Y-82118687D01*
X115611804Y-82131000D01*
X115528196Y-82131000D01*
X115403177Y-82118687D01*
X115242758Y-82070024D01*
X115094924Y-81991005D01*
X115094922Y-81991004D01*
X114965341Y-81884659D01*
X114858996Y-81755078D01*
X114850886Y-81739906D01*
X114779976Y-81607242D01*
X114731313Y-81446823D01*
X114714883Y-81280000D01*
X114731313Y-81113177D01*
X114779976Y-80952758D01*
X114858995Y-80804924D01*
X114858996Y-80804922D01*
X114965341Y-80675341D01*
X115094922Y-80568996D01*
X115110094Y-80560886D01*
X115242758Y-80489976D01*
X115403177Y-80441313D01*
X115528196Y-80429000D01*
X115611804Y-80429000D01*
X115736823Y-80441313D01*
X115736823Y-80441313D01*
G37*
G36*
X113048105Y-75199502D02*
G01*
X113197930Y-75229304D01*
X113480194Y-75346221D01*
X113734225Y-75515959D01*
X113950261Y-75731995D01*
X114119999Y-75986026D01*
X114236916Y-76268290D01*
X114296520Y-76567940D01*
X114296520Y-76873460D01*
X114236916Y-77173110D01*
X114119999Y-77455374D01*
X113950261Y-77709405D01*
X113734225Y-77925441D01*
X113480194Y-78095179D01*
X113197930Y-78212096D01*
X113048105Y-78241898D01*
X112898281Y-78271700D01*
X112592759Y-78271700D01*
X112442935Y-78241898D01*
X112293110Y-78212096D01*
X112010846Y-78095179D01*
X111756815Y-77925441D01*
X111540779Y-77709405D01*
X111371041Y-77455374D01*
X111254124Y-77173110D01*
X111194520Y-76873460D01*
X111194520Y-76567940D01*
X111254124Y-76268290D01*
X111371041Y-75986026D01*
X111540779Y-75731995D01*
X111756815Y-75515959D01*
X112010846Y-75346221D01*
X112293110Y-75229304D01*
X112442935Y-75199502D01*
X112592759Y-75169700D01*
X112898281Y-75169700D01*
X113048105Y-75199502D01*
X113048105Y-75199502D01*
G37*
G36*
X188046685Y-75199502D02*
G01*
X188196510Y-75229304D01*
X188478774Y-75346221D01*
X188732805Y-75515959D01*
X188948841Y-75731995D01*
X189118579Y-75986026D01*
X189235496Y-76268290D01*
X189295100Y-76567940D01*
X189295100Y-76873460D01*
X189235496Y-77173110D01*
X189118579Y-77455374D01*
X188948841Y-77709405D01*
X188732805Y-77925441D01*
X188478774Y-78095179D01*
X188196510Y-78212096D01*
X188046685Y-78241898D01*
X187896861Y-78271700D01*
X187591339Y-78271700D01*
X187441515Y-78241898D01*
X187291690Y-78212096D01*
X187009426Y-78095179D01*
X186755395Y-77925441D01*
X186539359Y-77709405D01*
X186369621Y-77455374D01*
X186252704Y-77173110D01*
X186193100Y-76873460D01*
X186193100Y-76567940D01*
X186252704Y-76268290D01*
X186369621Y-75986026D01*
X186539359Y-75731995D01*
X186755395Y-75515959D01*
X187009426Y-75346221D01*
X187291690Y-75229304D01*
X187441515Y-75199502D01*
X187591339Y-75169700D01*
X187896861Y-75169700D01*
X188046685Y-75199502D01*
X188046685Y-75199502D01*
G37*
G36*
X188046685Y-44198802D02*
G01*
X188196510Y-44228604D01*
X188478774Y-44345521D01*
X188732805Y-44515259D01*
X188948841Y-44731295D01*
X189118579Y-44985326D01*
X189235496Y-45267590D01*
X189295100Y-45567240D01*
X189295100Y-45872760D01*
X189235496Y-46172410D01*
X189118579Y-46454674D01*
X188948841Y-46708705D01*
X188732805Y-46924741D01*
X188478774Y-47094479D01*
X188196510Y-47211396D01*
X188046685Y-47241198D01*
X187896861Y-47271000D01*
X187591339Y-47271000D01*
X187441515Y-47241198D01*
X187291690Y-47211396D01*
X187009426Y-47094479D01*
X186755395Y-46924741D01*
X186539359Y-46708705D01*
X186369621Y-46454674D01*
X186252704Y-46172410D01*
X186193100Y-45872760D01*
X186193100Y-45567240D01*
X186252704Y-45267590D01*
X186369621Y-44985326D01*
X186539359Y-44731295D01*
X186755395Y-44515259D01*
X187009426Y-44345521D01*
X187291690Y-44228604D01*
X187441515Y-44198802D01*
X187591339Y-44169000D01*
X187896861Y-44169000D01*
X188046685Y-44198802D01*
X188046685Y-44198802D01*
G37*
G36*
X113047585Y-44198802D02*
G01*
X113197410Y-44228604D01*
X113479674Y-44345521D01*
X113733705Y-44515259D01*
X113949741Y-44731295D01*
X114119479Y-44985326D01*
X114236396Y-45267590D01*
X114296000Y-45567240D01*
X114296000Y-45872760D01*
X114236396Y-46172410D01*
X114119479Y-46454674D01*
X113949741Y-46708705D01*
X113733705Y-46924741D01*
X113479674Y-47094479D01*
X113197410Y-47211396D01*
X113047585Y-47241198D01*
X112897761Y-47271000D01*
X112592239Y-47271000D01*
X112442415Y-47241198D01*
X112292590Y-47211396D01*
X112010326Y-47094479D01*
X111756295Y-46924741D01*
X111540259Y-46708705D01*
X111370521Y-46454674D01*
X111253604Y-46172410D01*
X111194000Y-45872760D01*
X111194000Y-45567240D01*
X111253604Y-45267590D01*
X111370521Y-44985326D01*
X111540259Y-44731295D01*
X111756295Y-44515259D01*
X112010326Y-44345521D01*
X112292590Y-44228604D01*
X112442415Y-44198802D01*
X112592239Y-44169000D01*
X112897761Y-44169000D01*
X113047585Y-44198802D01*
X113047585Y-44198802D01*
G37*
G36*
X144331425Y-44382760D02*
G01*
X144331428Y-44382761D01*
X144331429Y-44382761D01*
X144510693Y-44437140D01*
X144510696Y-44437142D01*
X144510697Y-44437142D01*
X144675903Y-44525446D01*
X144820712Y-44644288D01*
X144939554Y-44789097D01*
X145027859Y-44954305D01*
X145082240Y-45133574D01*
X145096000Y-45273283D01*
X145096000Y-46166718D01*
X145082240Y-46306425D01*
X145082239Y-46306428D01*
X145082239Y-46306429D01*
X145027860Y-46485693D01*
X145027858Y-46485696D01*
X145027858Y-46485697D01*
X144939554Y-46650903D01*
X144820712Y-46795712D01*
X144675903Y-46914554D01*
X144510696Y-47002858D01*
X144510692Y-47002860D01*
X144331428Y-47057239D01*
X144331427Y-47057239D01*
X144331424Y-47057240D01*
X144145000Y-47075601D01*
X143958575Y-47057240D01*
X143958572Y-47057239D01*
X143958571Y-47057239D01*
X143779307Y-47002860D01*
X143779303Y-47002858D01*
X143614097Y-46914554D01*
X143469288Y-46795712D01*
X143350446Y-46650903D01*
X143262142Y-46485696D01*
X143262141Y-46485693D01*
X143262140Y-46485692D01*
X143207761Y-46306428D01*
X143207761Y-46306427D01*
X143207760Y-46306424D01*
X143194000Y-46166717D01*
X143194000Y-45273282D01*
X143207760Y-45133570D01*
X143262140Y-44954308D01*
X143350447Y-44789097D01*
X143469289Y-44644288D01*
X143614098Y-44525446D01*
X143779304Y-44437142D01*
X143779305Y-44437142D01*
X143779308Y-44437140D01*
X143958572Y-44382761D01*
X143958573Y-44382761D01*
X143958576Y-44382760D01*
X144145000Y-44364399D01*
X144331425Y-44382760D01*
X144331425Y-44382760D01*
G37*
G36*
X177351425Y-44382760D02*
G01*
X177351428Y-44382761D01*
X177351429Y-44382761D01*
X177530693Y-44437140D01*
X177530696Y-44437142D01*
X177530697Y-44437142D01*
X177695903Y-44525446D01*
X177840712Y-44644288D01*
X177959554Y-44789097D01*
X178047859Y-44954305D01*
X178102240Y-45133574D01*
X178116000Y-45273283D01*
X178116000Y-46166718D01*
X178102240Y-46306425D01*
X178102239Y-46306428D01*
X178102239Y-46306429D01*
X178047860Y-46485693D01*
X178047858Y-46485696D01*
X178047858Y-46485697D01*
X177959554Y-46650903D01*
X177840712Y-46795712D01*
X177695903Y-46914554D01*
X177530696Y-47002858D01*
X177530692Y-47002860D01*
X177351428Y-47057239D01*
X177351427Y-47057239D01*
X177351424Y-47057240D01*
X177165000Y-47075601D01*
X176978575Y-47057240D01*
X176978572Y-47057239D01*
X176978571Y-47057239D01*
X176799307Y-47002860D01*
X176799303Y-47002858D01*
X176634097Y-46914554D01*
X176489288Y-46795712D01*
X176370446Y-46650903D01*
X176282142Y-46485696D01*
X176282141Y-46485693D01*
X176282140Y-46485692D01*
X176227761Y-46306428D01*
X176227761Y-46306427D01*
X176227760Y-46306424D01*
X176214000Y-46166717D01*
X176214000Y-45273282D01*
X176227760Y-45133570D01*
X176282140Y-44954308D01*
X176370447Y-44789097D01*
X176489289Y-44644288D01*
X176634098Y-44525446D01*
X176799304Y-44437142D01*
X176799305Y-44437142D01*
X176799308Y-44437140D01*
X176978572Y-44382761D01*
X176978573Y-44382761D01*
X176978576Y-44382760D01*
X177165000Y-44364399D01*
X177351425Y-44382760D01*
X177351425Y-44382760D01*
G37*
G36*
X179891425Y-44382760D02*
G01*
X179891428Y-44382761D01*
X179891429Y-44382761D01*
X180070693Y-44437140D01*
X180070696Y-44437142D01*
X180070697Y-44437142D01*
X180235903Y-44525446D01*
X180380712Y-44644288D01*
X180499554Y-44789097D01*
X180587859Y-44954305D01*
X180642240Y-45133574D01*
X180656000Y-45273283D01*
X180656000Y-46166718D01*
X180642240Y-46306425D01*
X180642239Y-46306428D01*
X180642239Y-46306429D01*
X180587860Y-46485693D01*
X180587858Y-46485696D01*
X180587858Y-46485697D01*
X180499554Y-46650903D01*
X180380712Y-46795712D01*
X180235903Y-46914554D01*
X180070696Y-47002858D01*
X180070692Y-47002860D01*
X179891428Y-47057239D01*
X179891427Y-47057239D01*
X179891424Y-47057240D01*
X179705000Y-47075601D01*
X179518575Y-47057240D01*
X179518572Y-47057239D01*
X179518571Y-47057239D01*
X179339307Y-47002860D01*
X179339303Y-47002858D01*
X179174097Y-46914554D01*
X179029288Y-46795712D01*
X178910446Y-46650903D01*
X178822142Y-46485696D01*
X178822141Y-46485693D01*
X178822140Y-46485692D01*
X178767761Y-46306428D01*
X178767761Y-46306427D01*
X178767760Y-46306424D01*
X178754000Y-46166717D01*
X178754000Y-45273282D01*
X178767760Y-45133570D01*
X178822140Y-44954308D01*
X178910447Y-44789097D01*
X179029289Y-44644288D01*
X179174098Y-44525446D01*
X179339304Y-44437142D01*
X179339305Y-44437142D01*
X179339308Y-44437140D01*
X179518572Y-44382761D01*
X179518573Y-44382761D01*
X179518576Y-44382760D01*
X179705000Y-44364399D01*
X179891425Y-44382760D01*
X179891425Y-44382760D01*
G37*
G36*
X146871425Y-44382760D02*
G01*
X146871428Y-44382761D01*
X146871429Y-44382761D01*
X147050693Y-44437140D01*
X147050696Y-44437142D01*
X147050697Y-44437142D01*
X147215903Y-44525446D01*
X147360712Y-44644288D01*
X147479554Y-44789097D01*
X147567859Y-44954305D01*
X147622240Y-45133574D01*
X147636000Y-45273283D01*
X147636000Y-46166718D01*
X147622240Y-46306425D01*
X147622239Y-46306428D01*
X147622239Y-46306429D01*
X147567860Y-46485693D01*
X147567858Y-46485696D01*
X147567858Y-46485697D01*
X147479554Y-46650903D01*
X147360712Y-46795712D01*
X147215903Y-46914554D01*
X147050696Y-47002858D01*
X147050692Y-47002860D01*
X146871428Y-47057239D01*
X146871427Y-47057239D01*
X146871424Y-47057240D01*
X146685000Y-47075601D01*
X146498575Y-47057240D01*
X146498572Y-47057239D01*
X146498571Y-47057239D01*
X146319307Y-47002860D01*
X146319303Y-47002858D01*
X146154097Y-46914554D01*
X146009288Y-46795712D01*
X145890446Y-46650903D01*
X145802142Y-46485696D01*
X145802141Y-46485693D01*
X145802140Y-46485692D01*
X145747761Y-46306428D01*
X145747761Y-46306427D01*
X145747760Y-46306424D01*
X145734000Y-46166717D01*
X145734000Y-45273282D01*
X145747760Y-45133570D01*
X145802140Y-44954308D01*
X145890447Y-44789097D01*
X146009289Y-44644288D01*
X146154098Y-44525446D01*
X146319304Y-44437142D01*
X146319305Y-44437142D01*
X146319308Y-44437140D01*
X146498572Y-44382761D01*
X146498573Y-44382761D01*
X146498576Y-44382760D01*
X146685000Y-44364399D01*
X146871425Y-44382760D01*
X146871425Y-44382760D01*
G37*
G36*
X149411425Y-44382760D02*
G01*
X149411428Y-44382761D01*
X149411429Y-44382761D01*
X149590693Y-44437140D01*
X149590696Y-44437142D01*
X149590697Y-44437142D01*
X149755903Y-44525446D01*
X149900712Y-44644288D01*
X150019554Y-44789097D01*
X150107859Y-44954305D01*
X150162240Y-45133574D01*
X150176000Y-45273283D01*
X150176000Y-46166718D01*
X150162240Y-46306425D01*
X150162239Y-46306428D01*
X150162239Y-46306429D01*
X150107860Y-46485693D01*
X150107858Y-46485696D01*
X150107858Y-46485697D01*
X150019554Y-46650903D01*
X149900712Y-46795712D01*
X149755903Y-46914554D01*
X149590696Y-47002858D01*
X149590692Y-47002860D01*
X149411428Y-47057239D01*
X149411427Y-47057239D01*
X149411424Y-47057240D01*
X149225000Y-47075601D01*
X149038575Y-47057240D01*
X149038572Y-47057239D01*
X149038571Y-47057239D01*
X148859307Y-47002860D01*
X148859303Y-47002858D01*
X148694097Y-46914554D01*
X148549288Y-46795712D01*
X148430446Y-46650903D01*
X148342142Y-46485696D01*
X148342141Y-46485693D01*
X148342140Y-46485692D01*
X148287761Y-46306428D01*
X148287761Y-46306427D01*
X148287760Y-46306424D01*
X148274000Y-46166717D01*
X148274000Y-45273282D01*
X148287760Y-45133570D01*
X148342140Y-44954308D01*
X148430447Y-44789097D01*
X148549289Y-44644288D01*
X148694098Y-44525446D01*
X148859304Y-44437142D01*
X148859305Y-44437142D01*
X148859308Y-44437140D01*
X149038572Y-44382761D01*
X149038573Y-44382761D01*
X149038576Y-44382760D01*
X149225000Y-44364399D01*
X149411425Y-44382760D01*
X149411425Y-44382760D01*
G37*
G36*
X151951425Y-44382760D02*
G01*
X151951428Y-44382761D01*
X151951429Y-44382761D01*
X152130693Y-44437140D01*
X152130696Y-44437142D01*
X152130697Y-44437142D01*
X152295903Y-44525446D01*
X152440712Y-44644288D01*
X152559554Y-44789097D01*
X152647859Y-44954305D01*
X152702240Y-45133574D01*
X152716000Y-45273283D01*
X152716000Y-46166718D01*
X152702240Y-46306425D01*
X152702239Y-46306428D01*
X152702239Y-46306429D01*
X152647860Y-46485693D01*
X152647858Y-46485696D01*
X152647858Y-46485697D01*
X152559554Y-46650903D01*
X152440712Y-46795712D01*
X152295903Y-46914554D01*
X152130696Y-47002858D01*
X152130692Y-47002860D01*
X151951428Y-47057239D01*
X151951427Y-47057239D01*
X151951424Y-47057240D01*
X151765000Y-47075601D01*
X151578575Y-47057240D01*
X151578572Y-47057239D01*
X151578571Y-47057239D01*
X151399307Y-47002860D01*
X151399303Y-47002858D01*
X151234097Y-46914554D01*
X151089288Y-46795712D01*
X150970446Y-46650903D01*
X150882142Y-46485696D01*
X150882141Y-46485693D01*
X150882140Y-46485692D01*
X150827761Y-46306428D01*
X150827761Y-46306427D01*
X150827760Y-46306424D01*
X150814000Y-46166717D01*
X150814000Y-45273282D01*
X150827760Y-45133570D01*
X150882140Y-44954308D01*
X150970447Y-44789097D01*
X151089289Y-44644288D01*
X151234098Y-44525446D01*
X151399304Y-44437142D01*
X151399305Y-44437142D01*
X151399308Y-44437140D01*
X151578572Y-44382761D01*
X151578573Y-44382761D01*
X151578576Y-44382760D01*
X151765000Y-44364399D01*
X151951425Y-44382760D01*
X151951425Y-44382760D01*
G37*
G36*
X157031425Y-44382760D02*
G01*
X157031428Y-44382761D01*
X157031429Y-44382761D01*
X157210693Y-44437140D01*
X157210696Y-44437142D01*
X157210697Y-44437142D01*
X157375903Y-44525446D01*
X157520712Y-44644288D01*
X157639554Y-44789097D01*
X157727859Y-44954305D01*
X157782240Y-45133574D01*
X157796000Y-45273283D01*
X157796000Y-46166718D01*
X157782240Y-46306425D01*
X157782239Y-46306428D01*
X157782239Y-46306429D01*
X157727860Y-46485693D01*
X157727858Y-46485696D01*
X157727858Y-46485697D01*
X157639554Y-46650903D01*
X157520712Y-46795712D01*
X157375903Y-46914554D01*
X157210696Y-47002858D01*
X157210692Y-47002860D01*
X157031428Y-47057239D01*
X157031427Y-47057239D01*
X157031424Y-47057240D01*
X156845000Y-47075601D01*
X156658575Y-47057240D01*
X156658572Y-47057239D01*
X156658571Y-47057239D01*
X156479307Y-47002860D01*
X156479303Y-47002858D01*
X156314097Y-46914554D01*
X156169288Y-46795712D01*
X156050446Y-46650903D01*
X155962142Y-46485696D01*
X155962141Y-46485693D01*
X155962140Y-46485692D01*
X155907761Y-46306428D01*
X155907761Y-46306427D01*
X155907760Y-46306424D01*
X155894000Y-46166717D01*
X155894000Y-45273282D01*
X155907760Y-45133570D01*
X155962140Y-44954308D01*
X156050447Y-44789097D01*
X156169289Y-44644288D01*
X156314098Y-44525446D01*
X156479304Y-44437142D01*
X156479305Y-44437142D01*
X156479308Y-44437140D01*
X156658572Y-44382761D01*
X156658573Y-44382761D01*
X156658576Y-44382760D01*
X156845000Y-44364399D01*
X157031425Y-44382760D01*
X157031425Y-44382760D01*
G37*
G36*
X159571425Y-44382760D02*
G01*
X159571428Y-44382761D01*
X159571429Y-44382761D01*
X159750693Y-44437140D01*
X159750696Y-44437142D01*
X159750697Y-44437142D01*
X159915903Y-44525446D01*
X160060712Y-44644288D01*
X160179554Y-44789097D01*
X160267859Y-44954305D01*
X160322240Y-45133574D01*
X160336000Y-45273283D01*
X160336000Y-46166718D01*
X160322240Y-46306425D01*
X160322239Y-46306428D01*
X160322239Y-46306429D01*
X160267860Y-46485693D01*
X160267858Y-46485696D01*
X160267858Y-46485697D01*
X160179554Y-46650903D01*
X160060712Y-46795712D01*
X159915903Y-46914554D01*
X159750696Y-47002858D01*
X159750692Y-47002860D01*
X159571428Y-47057239D01*
X159571427Y-47057239D01*
X159571424Y-47057240D01*
X159385000Y-47075601D01*
X159198575Y-47057240D01*
X159198572Y-47057239D01*
X159198571Y-47057239D01*
X159019307Y-47002860D01*
X159019303Y-47002858D01*
X158854097Y-46914554D01*
X158709288Y-46795712D01*
X158590446Y-46650903D01*
X158502142Y-46485696D01*
X158502141Y-46485693D01*
X158502140Y-46485692D01*
X158447761Y-46306428D01*
X158447761Y-46306427D01*
X158447760Y-46306424D01*
X158434000Y-46166717D01*
X158434000Y-45273282D01*
X158447760Y-45133570D01*
X158502140Y-44954308D01*
X158590447Y-44789097D01*
X158709289Y-44644288D01*
X158854098Y-44525446D01*
X159019304Y-44437142D01*
X159019305Y-44437142D01*
X159019308Y-44437140D01*
X159198572Y-44382761D01*
X159198573Y-44382761D01*
X159198576Y-44382760D01*
X159385000Y-44364399D01*
X159571425Y-44382760D01*
X159571425Y-44382760D01*
G37*
G36*
X162111425Y-44382760D02*
G01*
X162111428Y-44382761D01*
X162111429Y-44382761D01*
X162290693Y-44437140D01*
X162290696Y-44437142D01*
X162290697Y-44437142D01*
X162455903Y-44525446D01*
X162600712Y-44644288D01*
X162719554Y-44789097D01*
X162807859Y-44954305D01*
X162862240Y-45133574D01*
X162876000Y-45273283D01*
X162876000Y-46166718D01*
X162862240Y-46306425D01*
X162862239Y-46306428D01*
X162862239Y-46306429D01*
X162807860Y-46485693D01*
X162807858Y-46485696D01*
X162807858Y-46485697D01*
X162719554Y-46650903D01*
X162600712Y-46795712D01*
X162455903Y-46914554D01*
X162290696Y-47002858D01*
X162290692Y-47002860D01*
X162111428Y-47057239D01*
X162111427Y-47057239D01*
X162111424Y-47057240D01*
X161925000Y-47075601D01*
X161738575Y-47057240D01*
X161738572Y-47057239D01*
X161738571Y-47057239D01*
X161559307Y-47002860D01*
X161559303Y-47002858D01*
X161394097Y-46914554D01*
X161249288Y-46795712D01*
X161130446Y-46650903D01*
X161042142Y-46485696D01*
X161042141Y-46485693D01*
X161042140Y-46485692D01*
X160987761Y-46306428D01*
X160987761Y-46306427D01*
X160987760Y-46306424D01*
X160974000Y-46166717D01*
X160974000Y-45273282D01*
X160987760Y-45133570D01*
X161042140Y-44954308D01*
X161130447Y-44789097D01*
X161249289Y-44644288D01*
X161394098Y-44525446D01*
X161559304Y-44437142D01*
X161559305Y-44437142D01*
X161559308Y-44437140D01*
X161738572Y-44382761D01*
X161738573Y-44382761D01*
X161738576Y-44382760D01*
X161925000Y-44364399D01*
X162111425Y-44382760D01*
X162111425Y-44382760D01*
G37*
G36*
X164651425Y-44382760D02*
G01*
X164651428Y-44382761D01*
X164651429Y-44382761D01*
X164830693Y-44437140D01*
X164830696Y-44437142D01*
X164830697Y-44437142D01*
X164995903Y-44525446D01*
X165140712Y-44644288D01*
X165259554Y-44789097D01*
X165347859Y-44954305D01*
X165402240Y-45133574D01*
X165416000Y-45273283D01*
X165416000Y-46166718D01*
X165402240Y-46306425D01*
X165402239Y-46306428D01*
X165402239Y-46306429D01*
X165347860Y-46485693D01*
X165347858Y-46485696D01*
X165347858Y-46485697D01*
X165259554Y-46650903D01*
X165140712Y-46795712D01*
X164995903Y-46914554D01*
X164830696Y-47002858D01*
X164830692Y-47002860D01*
X164651428Y-47057239D01*
X164651427Y-47057239D01*
X164651424Y-47057240D01*
X164465000Y-47075601D01*
X164278575Y-47057240D01*
X164278572Y-47057239D01*
X164278571Y-47057239D01*
X164099307Y-47002860D01*
X164099303Y-47002858D01*
X163934097Y-46914554D01*
X163789288Y-46795712D01*
X163670446Y-46650903D01*
X163582142Y-46485696D01*
X163582141Y-46485693D01*
X163582140Y-46485692D01*
X163527761Y-46306428D01*
X163527761Y-46306427D01*
X163527760Y-46306424D01*
X163514000Y-46166717D01*
X163514000Y-45273282D01*
X163527760Y-45133570D01*
X163582140Y-44954308D01*
X163670447Y-44789097D01*
X163789289Y-44644288D01*
X163934098Y-44525446D01*
X164099304Y-44437142D01*
X164099305Y-44437142D01*
X164099308Y-44437140D01*
X164278572Y-44382761D01*
X164278573Y-44382761D01*
X164278576Y-44382760D01*
X164465000Y-44364399D01*
X164651425Y-44382760D01*
X164651425Y-44382760D01*
G37*
G36*
X167191425Y-44382760D02*
G01*
X167191428Y-44382761D01*
X167191429Y-44382761D01*
X167370693Y-44437140D01*
X167370696Y-44437142D01*
X167370697Y-44437142D01*
X167535903Y-44525446D01*
X167680712Y-44644288D01*
X167799554Y-44789097D01*
X167887859Y-44954305D01*
X167942240Y-45133574D01*
X167956000Y-45273283D01*
X167956000Y-46166718D01*
X167942240Y-46306425D01*
X167942239Y-46306428D01*
X167942239Y-46306429D01*
X167887860Y-46485693D01*
X167887858Y-46485696D01*
X167887858Y-46485697D01*
X167799554Y-46650903D01*
X167680712Y-46795712D01*
X167535903Y-46914554D01*
X167370696Y-47002858D01*
X167370692Y-47002860D01*
X167191428Y-47057239D01*
X167191427Y-47057239D01*
X167191424Y-47057240D01*
X167005000Y-47075601D01*
X166818575Y-47057240D01*
X166818572Y-47057239D01*
X166818571Y-47057239D01*
X166639307Y-47002860D01*
X166639303Y-47002858D01*
X166474097Y-46914554D01*
X166329288Y-46795712D01*
X166210446Y-46650903D01*
X166122142Y-46485696D01*
X166122141Y-46485693D01*
X166122140Y-46485692D01*
X166067761Y-46306428D01*
X166067761Y-46306427D01*
X166067760Y-46306424D01*
X166054000Y-46166717D01*
X166054000Y-45273282D01*
X166067760Y-45133570D01*
X166122140Y-44954308D01*
X166210447Y-44789097D01*
X166329289Y-44644288D01*
X166474098Y-44525446D01*
X166639304Y-44437142D01*
X166639305Y-44437142D01*
X166639308Y-44437140D01*
X166818572Y-44382761D01*
X166818573Y-44382761D01*
X166818576Y-44382760D01*
X167005000Y-44364399D01*
X167191425Y-44382760D01*
X167191425Y-44382760D01*
G37*
G36*
X169731425Y-44382760D02*
G01*
X169731428Y-44382761D01*
X169731429Y-44382761D01*
X169910693Y-44437140D01*
X169910696Y-44437142D01*
X169910697Y-44437142D01*
X170075903Y-44525446D01*
X170220712Y-44644288D01*
X170339554Y-44789097D01*
X170427859Y-44954305D01*
X170482240Y-45133574D01*
X170496000Y-45273283D01*
X170496000Y-46166718D01*
X170482240Y-46306425D01*
X170482239Y-46306428D01*
X170482239Y-46306429D01*
X170427860Y-46485693D01*
X170427858Y-46485696D01*
X170427858Y-46485697D01*
X170339554Y-46650903D01*
X170220712Y-46795712D01*
X170075903Y-46914554D01*
X169910696Y-47002858D01*
X169910692Y-47002860D01*
X169731428Y-47057239D01*
X169731427Y-47057239D01*
X169731424Y-47057240D01*
X169545000Y-47075601D01*
X169358575Y-47057240D01*
X169358572Y-47057239D01*
X169358571Y-47057239D01*
X169179307Y-47002860D01*
X169179303Y-47002858D01*
X169014097Y-46914554D01*
X168869288Y-46795712D01*
X168750446Y-46650903D01*
X168662142Y-46485696D01*
X168662141Y-46485693D01*
X168662140Y-46485692D01*
X168607761Y-46306428D01*
X168607761Y-46306427D01*
X168607760Y-46306424D01*
X168594000Y-46166717D01*
X168594000Y-45273282D01*
X168607760Y-45133570D01*
X168662140Y-44954308D01*
X168750447Y-44789097D01*
X168869289Y-44644288D01*
X169014098Y-44525446D01*
X169179304Y-44437142D01*
X169179305Y-44437142D01*
X169179308Y-44437140D01*
X169358572Y-44382761D01*
X169358573Y-44382761D01*
X169358576Y-44382760D01*
X169545000Y-44364399D01*
X169731425Y-44382760D01*
X169731425Y-44382760D01*
G37*
G36*
X172271425Y-44382760D02*
G01*
X172271428Y-44382761D01*
X172271429Y-44382761D01*
X172450693Y-44437140D01*
X172450696Y-44437142D01*
X172450697Y-44437142D01*
X172615903Y-44525446D01*
X172760712Y-44644288D01*
X172879554Y-44789097D01*
X172967859Y-44954305D01*
X173022240Y-45133574D01*
X173036000Y-45273283D01*
X173036000Y-46166718D01*
X173022240Y-46306425D01*
X173022239Y-46306428D01*
X173022239Y-46306429D01*
X172967860Y-46485693D01*
X172967858Y-46485696D01*
X172967858Y-46485697D01*
X172879554Y-46650903D01*
X172760712Y-46795712D01*
X172615903Y-46914554D01*
X172450696Y-47002858D01*
X172450692Y-47002860D01*
X172271428Y-47057239D01*
X172271427Y-47057239D01*
X172271424Y-47057240D01*
X172085000Y-47075601D01*
X171898575Y-47057240D01*
X171898572Y-47057239D01*
X171898571Y-47057239D01*
X171719307Y-47002860D01*
X171719303Y-47002858D01*
X171554097Y-46914554D01*
X171409288Y-46795712D01*
X171290446Y-46650903D01*
X171202142Y-46485696D01*
X171202141Y-46485693D01*
X171202140Y-46485692D01*
X171147761Y-46306428D01*
X171147761Y-46306427D01*
X171147760Y-46306424D01*
X171134000Y-46166717D01*
X171134000Y-45273282D01*
X171147760Y-45133570D01*
X171202140Y-44954308D01*
X171290447Y-44789097D01*
X171409289Y-44644288D01*
X171554098Y-44525446D01*
X171719304Y-44437142D01*
X171719305Y-44437142D01*
X171719308Y-44437140D01*
X171898572Y-44382761D01*
X171898573Y-44382761D01*
X171898576Y-44382760D01*
X172085000Y-44364399D01*
X172271425Y-44382760D01*
X172271425Y-44382760D01*
G37*
G36*
X174811425Y-44382760D02*
G01*
X174811428Y-44382761D01*
X174811429Y-44382761D01*
X174990693Y-44437140D01*
X174990696Y-44437142D01*
X174990697Y-44437142D01*
X175155903Y-44525446D01*
X175300712Y-44644288D01*
X175419554Y-44789097D01*
X175507859Y-44954305D01*
X175562240Y-45133574D01*
X175576000Y-45273283D01*
X175576000Y-46166718D01*
X175562240Y-46306425D01*
X175562239Y-46306428D01*
X175562239Y-46306429D01*
X175507860Y-46485693D01*
X175507858Y-46485696D01*
X175507858Y-46485697D01*
X175419554Y-46650903D01*
X175300712Y-46795712D01*
X175155903Y-46914554D01*
X174990696Y-47002858D01*
X174990692Y-47002860D01*
X174811428Y-47057239D01*
X174811427Y-47057239D01*
X174811424Y-47057240D01*
X174625000Y-47075601D01*
X174438575Y-47057240D01*
X174438572Y-47057239D01*
X174438571Y-47057239D01*
X174259307Y-47002860D01*
X174259303Y-47002858D01*
X174094097Y-46914554D01*
X173949288Y-46795712D01*
X173830446Y-46650903D01*
X173742142Y-46485696D01*
X173742141Y-46485693D01*
X173742140Y-46485692D01*
X173687761Y-46306428D01*
X173687761Y-46306427D01*
X173687760Y-46306424D01*
X173674000Y-46166717D01*
X173674000Y-45273282D01*
X173687760Y-45133570D01*
X173742140Y-44954308D01*
X173830447Y-44789097D01*
X173949289Y-44644288D01*
X174094098Y-44525446D01*
X174259304Y-44437142D01*
X174259305Y-44437142D01*
X174259308Y-44437140D01*
X174438572Y-44382761D01*
X174438573Y-44382761D01*
X174438576Y-44382760D01*
X174625000Y-44364399D01*
X174811425Y-44382760D01*
X174811425Y-44382760D01*
G37*
G36*
X154491425Y-44382760D02*
G01*
X154491428Y-44382761D01*
X154491429Y-44382761D01*
X154670693Y-44437140D01*
X154670696Y-44437142D01*
X154670697Y-44437142D01*
X154835903Y-44525446D01*
X154980712Y-44644288D01*
X155099554Y-44789097D01*
X155187859Y-44954305D01*
X155242240Y-45133574D01*
X155256000Y-45273283D01*
X155256000Y-46166718D01*
X155242240Y-46306425D01*
X155242239Y-46306428D01*
X155242239Y-46306429D01*
X155187860Y-46485693D01*
X155187858Y-46485696D01*
X155187858Y-46485697D01*
X155099554Y-46650903D01*
X154980712Y-46795712D01*
X154835903Y-46914554D01*
X154670696Y-47002858D01*
X154670692Y-47002860D01*
X154491428Y-47057239D01*
X154491427Y-47057239D01*
X154491424Y-47057240D01*
X154305000Y-47075601D01*
X154118575Y-47057240D01*
X154118572Y-47057239D01*
X154118571Y-47057239D01*
X153939307Y-47002860D01*
X153939303Y-47002858D01*
X153774097Y-46914554D01*
X153629288Y-46795712D01*
X153510446Y-46650903D01*
X153422142Y-46485696D01*
X153422141Y-46485693D01*
X153422140Y-46485692D01*
X153367761Y-46306428D01*
X153367761Y-46306427D01*
X153367760Y-46306424D01*
X153354000Y-46166717D01*
X153354000Y-45273282D01*
X153367760Y-45133570D01*
X153422140Y-44954308D01*
X153510447Y-44789097D01*
X153629289Y-44644288D01*
X153774098Y-44525446D01*
X153939304Y-44437142D01*
X153939305Y-44437142D01*
X153939308Y-44437140D01*
X154118572Y-44382761D01*
X154118573Y-44382761D01*
X154118576Y-44382760D01*
X154305000Y-44364399D01*
X154491425Y-44382760D01*
X154491425Y-44382760D01*
G37*
G36*
X183196000Y-47071000D02*
G01*
X181294000Y-47071000D01*
X181294000Y-44369000D01*
X183196000Y-44369000D01*
X183196000Y-47071000D01*
X183196000Y-47071000D01*
G37*
G36*
X125372395Y-39090546D02*
G01*
X125545466Y-39162234D01*
X125545467Y-39162235D01*
X125701227Y-39266310D01*
X125833690Y-39398773D01*
X125833691Y-39398775D01*
X125937766Y-39554534D01*
X126009454Y-39727605D01*
X126046000Y-39911333D01*
X126046000Y-40098667D01*
X126009454Y-40282395D01*
X125937766Y-40455466D01*
X125937765Y-40455467D01*
X125833690Y-40611227D01*
X125701227Y-40743690D01*
X125622818Y-40796081D01*
X125545466Y-40847766D01*
X125372395Y-40919454D01*
X125188667Y-40956000D01*
X125001333Y-40956000D01*
X124817605Y-40919454D01*
X124644534Y-40847766D01*
X124567182Y-40796081D01*
X124488773Y-40743690D01*
X124356310Y-40611227D01*
X124252235Y-40455467D01*
X124252234Y-40455466D01*
X124180546Y-40282395D01*
X124144000Y-40098667D01*
X124144000Y-39911333D01*
X124180546Y-39727605D01*
X124252234Y-39554534D01*
X124356309Y-39398775D01*
X124356310Y-39398773D01*
X124488773Y-39266310D01*
X124644533Y-39162235D01*
X124644534Y-39162234D01*
X124817605Y-39090546D01*
X125001333Y-39054000D01*
X125188667Y-39054000D01*
X125372395Y-39090546D01*
X125372395Y-39090546D01*
G37*
G36*
X131087395Y-39090546D02*
G01*
X131260466Y-39162234D01*
X131260467Y-39162235D01*
X131416227Y-39266310D01*
X131548690Y-39398773D01*
X131548691Y-39398775D01*
X131652766Y-39554534D01*
X131724454Y-39727605D01*
X131761000Y-39911333D01*
X131761000Y-40098667D01*
X131724454Y-40282395D01*
X131652766Y-40455466D01*
X131652765Y-40455467D01*
X131548690Y-40611227D01*
X131416227Y-40743690D01*
X131337818Y-40796081D01*
X131260466Y-40847766D01*
X131087395Y-40919454D01*
X130903667Y-40956000D01*
X130716333Y-40956000D01*
X130532605Y-40919454D01*
X130359534Y-40847766D01*
X130282182Y-40796081D01*
X130203773Y-40743690D01*
X130071310Y-40611227D01*
X129967235Y-40455467D01*
X129967234Y-40455466D01*
X129895546Y-40282395D01*
X129859000Y-40098667D01*
X129859000Y-39911333D01*
X129895546Y-39727605D01*
X129967234Y-39554534D01*
X130071309Y-39398775D01*
X130071310Y-39398773D01*
X130203773Y-39266310D01*
X130359533Y-39162235D01*
X130359534Y-39162234D01*
X130532605Y-39090546D01*
X130716333Y-39054000D01*
X130903667Y-39054000D01*
X131087395Y-39090546D01*
X131087395Y-39090546D01*
G37*
G36*
X119022395Y-39090546D02*
G01*
X119195466Y-39162234D01*
X119195467Y-39162235D01*
X119351227Y-39266310D01*
X119483690Y-39398773D01*
X119483691Y-39398775D01*
X119587766Y-39554534D01*
X119659454Y-39727605D01*
X119696000Y-39911333D01*
X119696000Y-40098667D01*
X119659454Y-40282395D01*
X119587766Y-40455466D01*
X119587765Y-40455467D01*
X119483690Y-40611227D01*
X119351227Y-40743690D01*
X119272818Y-40796081D01*
X119195466Y-40847766D01*
X119022395Y-40919454D01*
X118838667Y-40956000D01*
X118651333Y-40956000D01*
X118467605Y-40919454D01*
X118294534Y-40847766D01*
X118217182Y-40796081D01*
X118138773Y-40743690D01*
X118006310Y-40611227D01*
X117902235Y-40455467D01*
X117902234Y-40455466D01*
X117830546Y-40282395D01*
X117794000Y-40098667D01*
X117794000Y-39911333D01*
X117830546Y-39727605D01*
X117902234Y-39554534D01*
X118006309Y-39398775D01*
X118006310Y-39398773D01*
X118138773Y-39266310D01*
X118294533Y-39162235D01*
X118294534Y-39162234D01*
X118467605Y-39090546D01*
X118651333Y-39054000D01*
X118838667Y-39054000D01*
X119022395Y-39090546D01*
X119022395Y-39090546D01*
G37*
G36*
X131761000Y-38416000D02*
G01*
X129859000Y-38416000D01*
X129859000Y-36514000D01*
X131761000Y-36514000D01*
X131761000Y-38416000D01*
X131761000Y-38416000D01*
G37*
G36*
X126046000Y-38416000D02*
G01*
X124144000Y-38416000D01*
X124144000Y-36514000D01*
X126046000Y-36514000D01*
X126046000Y-38416000D01*
X126046000Y-38416000D01*
G37*
G36*
X119696000Y-38416000D02*
G01*
X117794000Y-38416000D01*
X117794000Y-36514000D01*
X119696000Y-36514000D01*
X119696000Y-38416000D01*
X119696000Y-38416000D01*
G37*
M02*
