M48
; DRILL file {KiCad (5.1.2)-1} date 17/10/2019 22:12:35
; FORMAT={-:-/ absolute / metric / decimal}
; #@! TF.CreationDate,2019-10-17T22:12:35+01:00
; #@! TF.GenerationSoftware,Kicad,Pcbnew,(5.1.2)-1
FMAT,2
METRIC
T1C0.800
T2C0.900
T3C1.000
T4C1.200
T5C1.500
T6C2.500
%
G90
G05
T1
X115.57Y-81.28
X115.57Y-91.44
X128.27Y-81.28
X128.27Y-91.44
X121.92Y-81.28
X121.92Y-91.44
X125.73Y-127.635
X125.73Y-137.795
X134.62Y-81.28
X134.62Y-91.44
X114.3Y-137.795
X114.3Y-139.795
X114.3Y-141.795
T2
X130.81Y-37.465
X130.81Y-40.005
X125.095Y-37.465
X125.095Y-40.005
X118.745Y-37.465
X118.745Y-40.005
T3
X119.38Y-98.425
X119.38Y-121.285
X121.92Y-98.425
X121.92Y-121.285
X124.46Y-98.425
X124.46Y-121.285
X127.0Y-98.425
X127.0Y-121.285
X129.54Y-98.425
X129.54Y-121.285
X132.08Y-98.425
X132.08Y-121.285
X134.62Y-98.425
X134.62Y-121.285
X137.16Y-98.425
X137.16Y-121.285
X140.335Y-147.955
X142.875Y-147.955
X145.415Y-147.955
X147.955Y-147.955
X150.495Y-147.955
X153.035Y-147.955
X155.575Y-147.955
X158.115Y-147.955
X160.655Y-147.955
X177.165Y-84.455
X179.705Y-84.455
X182.245Y-84.455
X184.785Y-84.455
X129.54Y-145.415
X132.04Y-145.415
X173.355Y-85.09
X173.355Y-87.63
X173.355Y-90.17
X173.355Y-92.71
X173.355Y-95.25
X173.355Y-97.79
X173.355Y-100.33
X173.355Y-102.87
X173.355Y-105.41
X173.355Y-107.95
X173.355Y-110.49
X173.355Y-113.03
X173.355Y-115.57
X173.355Y-118.11
X173.355Y-120.65
X173.355Y-123.19
T4
X144.145Y-45.72
X146.685Y-45.72
X149.225Y-45.72
X151.765Y-45.72
X154.305Y-45.72
X156.845Y-45.72
X159.385Y-45.72
X161.925Y-45.72
X164.465Y-45.72
X167.005Y-45.72
X169.545Y-45.72
X172.085Y-45.72
X174.625Y-45.72
X177.165Y-45.72
X179.705Y-45.72
X182.245Y-45.72
T5
X114.3Y-135.695
X114.3Y-143.895
T6
X112.745Y-45.72
X112.746Y-76.721
X187.744Y-45.72
X187.744Y-76.721
T0
M30
